<?xml version="1.0" encoding="utf-8" ?>
<svg baseProfile="full" height="200mm" version="1.1" viewBox="0,0,200,200" width="200mm" xmlns="http://www.w3.org/2000/svg" xmlns:ev="http://www.w3.org/2001/xml-events" xmlns:xlink="http://www.w3.org/1999/xlink"><defs /><rect fill="#1a1a1a" height="200" width="200" x="0" y="0" /><text alignment-baseline="middle" fill="#e1ed5e" style="dominant-baseline: central; font-size:9.0px; font-family:Arial;" text-anchor="middle" x="100.0" y="100.0">2020</text><line stroke="#e1ed5e" stroke-width="0.3" x1="100.0" x2="100.0" y1="15.0" y2="10.0" /><path d="M 100.0 14.0 a86.0,86.0 0 0,1 42.35913384403234,11.155469271406648" fill="none" id="id37" stroke="none" /><text fill="#e1ed5e" style="font-size:6.75px; font-family:Arial;" text-anchor="middle"><textPath startOffset="22.145653131862478" xlink:href="#id37">January</textPath></text><line stroke="#e1ed5e" stroke-width="0.3" x1="143.13028292997686" x2="145.6673583964461" y1="26.7553504044142" y2="22.446841604673864" /><path d="M 143.63769802327073 25.89364864446614 a86.0,86.0 0 0,1 29.32050498858742,28.57503671076993" fill="none" id="id38" stroke="none" /><text fill="#e1ed5e" style="font-size:6.75px; font-family:Arial;" text-anchor="middle"><textPath startOffset="20.669276256404974" xlink:href="#id38">February</textPath></text><line stroke="#e1ed5e" stroke-width="0.3" x1="172.87174338648825" x2="177.1583165268699" y1="56.24261187166439" y2="53.66864786411523" /><path d="M 173.72905801456457 55.72781907015455 a86.0,86.0 0 0,1 12.242430191666344,42.057860355516425" fill="none" id="id39" stroke="none" /><text fill="#e1ed5e" style="font-size:6.75px; font-family:Arial;" text-anchor="middle"><textPath startOffset="22.145653131862474" xlink:href="#id39">March</textPath></text><line stroke="#e1ed5e" stroke-width="0.3" x1="184.99686870605535" x2="189.99668451229388" y1="99.2704041080226" y2="99.22748670261217" /><path d="M 185.99683186730306 99.26182062694052 a86.0,86.0 0 0,1 -10.086455211305974,41.156179273409016" fill="none" id="id40" stroke="none" /><text fill="#e1ed5e" style="font-size:6.75px; font-family:Arial;" text-anchor="middle"><textPath startOffset="21.40746469413373" xlink:href="#id40">April</textPath></text><line stroke="#e1ed5e" stroke-width="0.3" x1="174.33088141563837" x2="178.70328620479359" y1="141.23008692659167" y2="143.65538615756765" /><path d="M 175.20536237346943 141.71514677278685 a86.0,86.0 0 0,1 -30.301960400862466,31.631185727798858" fill="none" id="id41" stroke="none" /><text fill="#e1ed5e" style="font-size:6.75px; font-family:Arial;" text-anchor="middle"><textPath startOffset="22.145653131862474" xlink:href="#id41">May</textPath></text><line stroke="#e1ed5e" stroke-width="0.3" x1="143.1302829299769" x2="145.66735839644613" y1="173.24464959558577" y2="177.55315839532614" /><path d="M 143.63769802327073 174.10635135553383 a86.0,86.0 0 0,1 -40.68552437913181,11.842963189579606" fill="none" id="id42" stroke="none" /><text fill="#e1ed5e" style="font-size:6.75px; font-family:Arial;" text-anchor="middle"><textPath startOffset="21.407464694133747" xlink:href="#id42">June</textPath></text><path d="M 101.08105385017728 120.97215588758144 l 0.40518247301814597 7.8604317311841685 a28.870867794407935,28.870867794407935 0 0,0 -0.4951687070783278,0.021264674861756497 l -0.2701880053389886 -7.866228974471756" fill="#ff2703" stroke="none" /><path d="M 100.72087961077811 120.9876233191556 l 0.521787075910655 15.19126139549986 a36.20021988456061,36.20021988456061 0 0,0 -0.6212417749574838,0.01600098442661949 l -0.2609319868824274 -15.197980097276524" fill="#ff940d" stroke="none" /><line stroke="#e1ed5e" stroke-width="0.3" x1="101.45913802915013" x2="101.54496967792366" y1="184.9874750549273" y2="189.98673829345242" /><path d="M 101.47630435890484 185.9873277026323 a86.0,86.0 0 0,1 -42.54439059252881,-10.42667462771756" fill="none" id="id43" stroke="none" /><text fill="#e1ed5e" style="font-size:6.75px; font-family:Arial;" text-anchor="middle"><textPath startOffset="22.145653131862474" xlink:href="#id43">July</textPath></text><path d="M 100.36049292484886 120.99690560180557 l 0.18015188268601726 10.492944005300002 a31.494490392543916,31.494490392543916 0 0,0 -0.5406448075348682,0.004640785438349311 l -1.2852044067911557e-15 -10.494490392543916" fill="#ff4f07" stroke="none" /><path d="M 100.0 121.0 l 9.639033050933666e-16 7.8708677944079355 a28.870867794407935,28.870867794407935 0 0,0 -0.4956068368633641,-0.004254188627370711 l 0.13511391201451098 -7.869708003975" fill="#ff2703" stroke="none" /><path d="M 99.63950707515114 120.99690560180557 l -0.27923541816332276 16.264063208215003 a37.26646010844307,37.26646010844307 0 0,0 -0.6395398121331726,-0.016472276956654788 l 0.5583885443672392 -16.2568732139083" fill="#ffa30f" stroke="none" /><path d="M 99.27912038922189 120.98762331915562 l -0.5583885443672392 16.2568732139083 a37.26646010844307,37.26646010844307 0 0,0 -0.6391628059360794,-0.02744840103518722 l 0.8373771109041573 -16.244892244447286" fill="#ffa30f" stroke="none" /><path d="M 98.19965949673042 120.92268563240118 l -1.394531760859477 16.2065729143309 a37.26646010844307,37.26646010844307 0 0,0 -0.6369023240007204,-0.06031531226771816 l 1.6725336482452127 -16.180245846557998" fill="#ffa30f" stroke="none" /><path d="M 97.84075906011543 120.88869738790638 l -1.780439044906194 17.22413267536819 a38.31590914769746,38.31590914769746 0 0,0 -0.6536768878640723,-0.07324585872468158 l 2.0758518343710657 -17.191031056136538" fill="#ffb110" stroke="none" /><path d="M 97.48249496171623 120.84855314841334 l -2.2016610364541607 18.232911726205415 a39.36535818695185,39.36535818695185 0 0,0 -0.6701899333832424,-0.08676950454636354 l 2.5143287917281967 -18.192430625458655" fill="#ffc011" stroke="none" /><path d="M 97.12497278360702 120.80226474461374 l -2.5861667572061457 18.71221435761462 a39.89008270657905,39.89008270657905 0 0,0 -0.6775138588890379,-0.09957120578560406 l 2.907005721702869 -18.665062078530134" fill="#ffc712" stroke="none" /><path d="M 95.70440661134978 120.55596938700252 l -3.649338477651913 17.463405690964382 a38.84063366732465,38.84063366732465 0 0,0 -0.6514824257123735,-0.141987562466805 l 3.9485833199834226 -17.398186670363856" fill="#ffb911" stroke="none" /><path d="M 95.35216902796893 120.47920084513623 l -2.2065612670495596 9.72251608049745 a30.969765872916717,30.969765872916717 0 0,0 -0.5174426214766766,-0.12211504974528392 l 2.373136042266124 -9.683204887105937" fill="#ff4706" stroke="none" /><path d="M 95.00130118170881 120.39639698878247 l -3.747056908841249 15.289270874377799 a36.74173558881587,36.74173558881587 0 0,0 -0.6113032348783328,-0.15539089182336896 l 4.008965436944961 -15.222694750719166" fill="#ff9b0e" stroke="none" /><path d="M 94.6519064749342 120.30758222061772 l -4.677126343102454 17.759810542505697 a39.36535818695185,39.36535818695185 0 0,0 -0.6520001779185487,-0.17770554780770456 l 4.981307921955699 -17.676904500553846" fill="#ffc011" stroke="none" /><path d="M 94.30408787586889 120.21278271476187 l -2.7041385862045213 9.59603387172923 a30.969765872916717,30.969765872916717 0 0,0 -0.5104702083712347,-0.14859043798433838 l 2.868468806957363 -9.548199739442374" fill="#ff4706" stroke="none" /><path d="M 93.95794788825049 120.11202640906438 l -4.680133316614646 15.578641680142827 a37.26646010844307,37.26646010844307 0 0,0 -0.6110978389551412,-0.1893196726064811 l 4.946871788441421 -15.496005419729697" fill="#ffa30f" stroke="none" /><path d="M 93.61358852112213 120.00534299687104 l -5.744754334964232 17.995361132589327 a39.89008270657905,39.89008270657905 0 0,0 -0.6505450628740134,-0.2138470836335154 l 6.052822135485989 -17.89409312755379" fill="#ffc712" stroke="none" /><path d="M 91.92203290615298 119.3841803445677 l -6.069021628090059 14.563442557668765 a36.77741685615052,36.77741685615052 0 0,0 -0.5806714978731079,-0.2478541335804213 l 6.3181282011335975 -14.45711377442894" fill="#ff9c0e" stroke="none" /><path d="M 91.26138138417905 119.09545874513695 l -9.389085741992979 20.516846806448843 a43.563154343969416,43.563154343969416 0 0,0 -0.6773267406030593,-0.31702311483429485 l 9.739901196467528 -20.35264746004402" fill="#fff817" stroke="none" /><path d="M 90.93487009805054 118.94263497670748 l -14.49659712962609 30.292312498670178 a54.58236925614053,54.58236925614053 0 0,0 -0.8417114692663922,-0.41172325831780715 l 15.014468848154552 -30.038995490255147" fill="#7eff26" stroke="none" /><path d="M 90.28995756902619 118.62028667847754 l -9.704947333623661 18.61051615749486 a41.98898078508783,41.98898078508783 0 0,0 -0.6362553952161,-0.3387701607249188 l 10.022991544626324 -18.441175529047367" fill="#ffe415" stroke="none" /><path d="M 89.97174638481275 118.45085714620012 l -16.036786471402117 29.505880846475787 a54.58236925614053,54.58236925614053 0 0,0 -0.8194004348670462,-0.45450760859869754 l 16.540931094425265 -29.226240322443942" fill="#7eff26" stroke="none" /><line stroke="#e1ed5e" stroke-width="0.3" x1="58.13341422392154" x2="55.67067388415222" y1="173.97424548756322" y2="178.32567169271397" /><path d="M 57.64086615596768 174.84453072859336 a86.0,86.0 0 0,1 -31.369924170532247,-30.572349798747897" fill="none" id="id44" stroke="none" /><text fill="#e1ed5e" style="font-size:6.75px; font-family:Arial;" text-anchor="middle"><textPath startOffset="22.145653131862474" xlink:href="#id44">August</textPath></text><path d="M 89.34428304082925 118.09573695890944 l -17.040201029132906 28.937986691242198 a54.58236925614053,54.58236925614053 0 0,0 -0.8033153526933325,-0.48236778816754206 l 17.534449138383664 -28.641204902538735" fill="#7eff26" stroke="none" /><path d="M 89.03521579738668 117.91015095944536 l -17.20869195048463 28.10910501770876 a53.9584718023038,53.9584718023038 0 0,0 -0.7858302968015862,-0.49041622496164444 l 17.688686376075932 -27.80955299590557" fill="#85ff25" stroke="none" /><path d="M 88.72937992617639 117.7192867562869 l -18.023529764991157 28.335982419288918 a54.58236925614053,54.58236925614053 0 0,0 -0.7862833774017042,-0.5096593856255259 l 18.50729877464987 -28.022409191959497" fill="#7eff26" stroke="none" /><path d="M 88.4268655584334 117.5232005979908 l -17.46655239511917 26.4465865250554 a52.693885710002256,52.693885710002256 0 0,0 -0.7505208004978012,-0.5049838892540361 l 17.917969483713975 -26.142852961744246" fill="#94ff23" stroke="none" /><path d="M 88.1277618465304 117.32195027204791 l -18.34544243989072 26.766548779990188 a53.45001374278504,53.45001374278504 0 0,0 -0.7523850685331884,-0.5252232110052758 l 18.802222599597677 -26.44768075317978" fill="#8bff24" stroke="none" /><path d="M 87.83215693770417 117.11559508785305 l -18.610983667882227 26.178679246214454 a53.119962019939535,53.119962019939535 0 0,0 -0.7386684589541279,-0.5347389997955848 l 19.05763313721031 -25.855339475045803" fill="#8fff24" stroke="none" /><path d="M 87.54013794807813 116.9041958592261 l -18.732912712429453 25.41479385446728 a52.572674345968366,52.572674345968366 0 0,0 -0.7218654053632195,-0.5417012578244192 l 19.16643110670344 -25.089473569378846" fill="#95ff23" stroke="none" /><path d="M 87.2517909369889 116.68781488649013 l -19.624488742260024 25.689085718170055 a53.32722820519228,53.32722820519228 0 0,0 -0.7226856584459754,-0.5619647391327156 l 20.062584345341225 -25.348419927416547" fill="#8dff24" stroke="none" /><path d="M 86.96720088162412 116.46651593811092 l -19.55294364120444 24.704505546387995 a52.50603433197571,52.50603433197571 0 0,0 -0.7019537471620169,-0.5654442500151461 l 19.974148158721718 -24.365213002579438" fill="#96ff23" stroke="none" /><path d="M 86.68645165197938 116.24036423190432 l -19.720658144949162 24.055996402676616 a52.1061942480198,52.1061942480198 0 0,0 -0.6868729484284685,-0.5730138430619792 l 20.130705427539525 -23.713920375702767" fill="#9bff22" stroke="none" /><path d="M 86.40962598614128 116.0094264158162 l -20.875746295743863 24.591576645068862 a53.25743984408186,53.25743984408186 0 0,0 -0.6918915449885935,-0.5976394375792845 l 21.29481732049532 -24.229593075024855" fill="#8dff24" stroke="none" /><path d="M 86.13680546590413 115.77377054828092 l -21.013888538926846 23.909947690985078 a52.8318882586642,52.8318882586642 0 0,0 -0.6760845749553709,-0.6045589958694598 l 21.42123814070559 -23.545693165232237" fill="#92ff23" stroke="none" /><path d="M 85.86807049272751 115.53346607816431 l -21.998577656069784 24.180290427614448 a53.68981284825466,53.68981284825466 0 0,0 -0.6764155268272873,-0.6260801133338786 l 22.410422954211036 -23.799092568148193" fill="#88ff25" stroke="none" /><path d="M 85.60350026404147 115.28858382429668 l -21.775870455916877 23.125219804697526 a52.764198795632296,52.764198795632296 0 0,0 -0.6540939384654917,-0.6266071968464518 l 22.169636880247683 -22.748000477545492" fill="#93ff23" stroke="none" /><path d="M 85.34317274990678 115.03919595460226 l -22.198202696331922 22.777311521358968 a52.80512730816322,52.80512730816322 0 0,0 -0.6437399642597975,-0.6382379463443965 l 22.585934580721684 -22.39289356478591" fill="#93ff23" stroke="none" /><path d="M 85.08716467003676 114.78537596483092 l -22.722315424048094 22.52810876688301 a52.99717648234677,52.99717648234677 0 0,0 -0.6349899573665886,-0.6515556358201576 l 23.10569218256549 -22.134730438995113" fill="#90ff24" stroke="none" /><path d="M 84.83555147118756 114.52719865689866 l -23.415642431099226 22.431655765732152 a53.42640113940181,53.42640113940181 0 0,0 -0.6287630174319031,-0.6677245354032108 l 23.79726128226738 -22.02638977038445" fill="#8bff24" stroke="none" /><path d="M 84.58840730492382 114.26474011684316 l -23.284324537312447 21.551623176955125 a52.72746807925839,52.72746807925839 0 0,0 -0.6091335707054512,-0.669544498700971 l 23.650855808859777 -21.14874110269648" fill="#94ff23" stroke="none" /><path d="M 84.3458050057657 113.99807769240083 l -23.493613701274207 21.008134240490513 a52.51652882236826,52.51652882236826 0 0,0 -0.5951596580487301,-0.6771824389079192 l 23.85078442328153 -20.601739523771293" fill="#96ff23" stroke="none" /><path d="M 84.1078160697243 113.72728997021213 l -24.026300909555783 20.753346484287867 a52.74845706004348,52.74845706004348 0 0,0 -0.586023895177133,-0.6903346749825366 l 24.379019368240026 -20.337845026855774" fill="#93ff23" stroke="none" /><path d="M 83.8745106332314 113.45245675266167 l -24.780333363624994 20.67263543503276 a53.27108268159217,53.27108268159217 0 0,0 -0.5797750185466585,-0.7072312525275574 l 25.13155520141028 -20.244201900806708" fill="#8dff24" stroke="none" /><path d="M 83.64595745247003 113.17365903436017 l -13.185474897707445 10.621285226798427 a37.93128607481073,37.93128607481073 0 0,0 -0.40411914399397303,-0.510591336905514 l 13.36586047234298 -10.393373945978233" fill="#ffac0f" stroke="none" /><path d="M 83.4222238831116 112.89097897827486 l -24.63448997894782 19.155928408010393 a52.20589190674896,52.20589190674896 0 0,0 -0.5440550578213057,-0.7121855350900611 l 24.959697014123417 -18.730221959679465" fill="#9aff23" stroke="none" /><path d="M 83.20337586046588 112.60449989151573 l -24.580292495941993 18.445509736048614 a51.731540941005974,51.731540941005974 0 0,0 -0.5269177205284558,-0.7148650853751704 l 24.89331223605428 -18.020838341404563" fill="#9fff22" stroke="none" /><path d="M 82.37810715431573 111.42229804090323 l -28.919524754796157 18.74528655027317 a55.46338172459458,55.46338172459458 0 0,0 -0.5110087203004281,-0.8033905846046918 l 29.237051166722477 -18.246082290989808" fill="#74ff27" stroke="none" /><path d="M 81.99639281039703 110.81064883170644 l -29.74749588033472 17.8625165611617 a55.69845830938757,55.69845830938757 0 0,0 -0.48517677762037853,-0.8239362381743415 l 30.049746368084868 -17.3492291546938" fill="#71ff27" stroke="none" /><line stroke="#e1ed5e" stroke-width="0.3" x1="26.387840678322732" x2="22.057713659400548" y1="142.50000000000003" y2="145.00000000000006" /><path d="M 25.521815274538298 143.00000000000003 a86.0,86.0 0 0,1 -11.493303480769221,-40.785679425670985" fill="none" id="id45" stroke="none" /><text fill="#e1ed5e" style="font-size:6.75px; font-family:Arial;" text-anchor="middle"><textPath startOffset="21.40746469413373" xlink:href="#id45">September</textPath></text><path d="M 81.81346652052679 110.50000000000001 l -30.446004762280435 17.578009045251257 a56.156018090502485,56.156018090502485 0 0,0 -0.4748302460061491,-0.8389795473374481 l 30.743268373307963 -17.052772727814688" fill="#6cff28" stroke="none" /><path d="M 81.63589988554817 110.18625677009913 l -26.973261463427246 14.961613445859355 a51.84488143724545,51.84488143724545 0 0,0 -0.4250160684792227,-0.7819816954443144 l 27.2261228815218 -14.496376916940454" fill="#9eff22" stroke="none" /><path d="M 81.4637452351635 109.86951160357371 l -20.37825484478839 10.850272895080993 a44.08682941455736,44.08682941455736 0 0,0 -0.34994851085164635,-0.67107241199877 l 20.561511424614988 -10.498854239977721" fill="#ffff18" stroke="none" /><path d="M 81.29705330413844 109.54985784667822 l -20.675539534701947 10.557077805470573 a44.21486219734639,44.21486219734639 0 0,0 -0.33935977744282764,-0.6789468829882737 l 20.85371922535651 -10.200599066318548" fill="#fdff18" stroke="none" /><path d="M 80.5471966667186 107.91128576633889 l -24.342616219836227 9.899930098298855 a47.2787286674496,47.2787286674496 0 0,0 -0.2992998492841823,-0.7544311373284861 l 24.508974744086533 -9.480597943756804" fill="#d6ff1c" stroke="none" /><path d="M 80.41425534168474 107.57618678355246 l -24.922017109135332 9.640371603718279 a47.72159616201495,47.72159616201495 0 0,0 -0.2889867976765275,-0.7665718145339522 l 25.083834590626296 -9.211131508990182" fill="#d0ff1d" stroke="none" /><path d="M 80.28708602549918 107.23885506374661 l -23.342127391559924 8.571552500334523 a45.866170260613174,45.866170260613174 0 0,0 -0.26506241064588393,-0.7414267375313873 l 23.48582997224975 -8.169590806422214" fill="#e8ff1a" stroke="none" /><path d="M 80.16572619554312 106.89939002012753 l -25.482093306108283 8.863994819342272 a47.97976062567152,47.97976062567152 0 0,0 -0.26392199151110357,-0.7802384720379701 l 25.63050071919175 -8.42525467283014" fill="#cdff1d" stroke="none" /><path d="M 80.05021161711548 106.5578916946017 l -25.635485549251694 8.42689328548215 a47.98500787086779,47.98500787086779 0 0,0 -0.2505166655406311,-0.7847398867342048 l 25.77636693056958 -7.985584365056553" fill="#cdff1d" stroke="none" /><path d="M 79.64726062577567 105.17358676015961 l -25.349257810838957 6.443682208013684 a47.1554184053372,47.1554184053372 0 0,0 -0.1926915757867182,-0.7862473853712779 l 25.456136913141968 -6.007578998034307" fill="#d7ff1c" stroke="none" /><path d="M 79.56144815229197 104.8234425847677 l -25.550615614119607 6.0298757142128645 a47.252492441468235,47.252492441468235 0 0,0 -0.1795350314836967,-0.7910644751536146 l 25.65036150716097 -5.590376905120224" fill="#d6ff1c" stroke="none" /><path d="M 79.48165901384964 104.47187691870673 l -26.68291788371595 5.815417761527494 a48.309287623997406,48.309287623997406 0 0,0 -0.1696398789446502,-0.8117882310776224 l 26.77881547348497 -5.356513079164462" fill="#c9ff1d" stroke="none" /><path d="M 79.407916724674 104.11899336999214 l -26.32294016347425 5.265325249629642 a47.84438169960771,47.84438169960771 0 0,0 -0.15418127157524633,-0.8067415636856247 l 26.409447727331653 -4.812681120910702" fill="#cfff1d" stroke="none" /><path d="M 79.34024301695615 103.76489593502545 l -26.880759241924462 4.898569779082117 a48.32345518602733,48.32345518602733 0 0,0 -0.14171470509701567,-0.8173727597822107 l 26.96088876451371 -4.436403986379314" fill="#c9ff1d" stroke="none" /><path d="M 79.2786578344484 103.40968896794605 l -26.815397718599826 4.41246349014002 a48.1760075960121,48.1760075960121 0 0,0 -0.1272730007696305,-0.8171839644314164 l 26.887192211507724 -3.9514913437771537" fill="#cbff1d" stroke="none" /><path d="M 79.22317932658666 103.0534771498775 l -27.042936600753965 3.9743804056437546 a48.333424951900255,48.333424951900255 0 0,0 -0.11359616928778049,-0.8219252930979665 l 27.107177286596958 -3.5095668043457025" fill="#c9ff1d" stroke="none" /><path d="M 79.17382384314188 102.69636545807758 l -26.044038487255083 3.371922201990626 a47.261412758301894,47.261412758301894 0 0,0 -0.09726379332546824,-0.8054837363680656 l 26.098084366840215 -2.9243447886991616" fill="#d6ff1c" stroke="none" /><path d="M 79.13060592940153 102.33845913500099 l -27.879916893244726 3.124002839829777 a49.05439644186802,49.05439644186802 0 0,0 -0.08658710068361526,-0.8376516536282921 l 27.929436386410007 -2.644946663918553" fill="#c0ff1e" stroke="none" /><path d="M 79.06263194458094 101.62068470465958 l -27.80383705238004 2.1521928316093497 a48.88700932010695,48.88700932010695 0 0,0 -0.05758433147933056,-0.8372635416859223 l 27.836685345024435 -1.6745858657690842" fill="#c2ff1e" stroke="none" /><path d="M 79.03789590574601 101.26102812881392 l -27.660172287385596 1.6639672785421202 a48.71017715699257,48.71017715699257 0 0,0 -0.0430468316820259,-0.8350970345777986 l 27.684660708524195 -1.188898450587591" fill="#c4ff1e" stroke="none" /><path d="M 79.01933749520258 100.90099992219065 l -26.2990908576914 1.12939611945269 a47.323330251617904,47.323330251617904 0 0,0 -0.027887667819776054,-0.8119190204581526 l 26.314603212508025 -0.6777708344304176" fill="#d5ff1c" stroke="none" /><path d="M 79.00696218219943 100.54070618675478 l -27.907663252303642 0.7188024100825562 a48.9169186177257,48.9169186177257 0 0,0 -0.014415509373727748,-0.8396311512881004 l 27.915890193276038 -0.23962434282540346" fill="#c1ff1e" stroke="none" /><line stroke="#e1ed5e" stroke-width="0.3" x1="15.003131293944662" x2="10.003315487706104" y1="100.72959589197737" y2="100.7725132973878" /><path d="M 14.003168132696942 100.73817937305945 a86.0,86.0 0 0,1 10.791469493833604,-42.45332614584628" fill="none" id="id46" stroke="none" /><text fill="#e1ed5e" style="font-size:6.75px; font-family:Arial;" text-anchor="middle"><textPath startOffset="22.145653131862435" xlink:href="#id46">October</textPath></text><path d="M 79.00077361379809 100.18025310272382 l -26.84444219645876 0.23042725040487316 a47.845431148646966,47.845431148646966 0 0,0 0.0,-0.8213607062573716 l 26.84444219645876 0.2304272504048633" fill="#cfff1d" stroke="none" /><path d="M 79.00077361379809 99.81974689727619 l -26.380602809002106 -0.22644574712388948 a47.38157467329652,47.38157467329652 0 0,0 0.013963053134695659,-0.8132778436777319 l 26.372828324268745 0.6792705067706738" fill="#d5ff1c" stroke="none" /><path d="M 79.01933749520258 99.09900007780938 l -26.269733342879967 -1.128135381449042 a47.29394567851878,47.29394567851878 0 0,0 0.041795260005743455,-0.8108168784179199 l 26.246496493417652 1.5789240532436741" fill="#d6ff1c" stroke="none" /><path d="M 79.03789590574601 98.7389718711861 l -18.22117581347063 -1.0961406897673305 a39.254116588790886,39.254116588790886 0 0,0 0.04623768344625936,-0.6722857695319733 l 18.199674168859307 1.4087698834536286" fill="#ffbe11" stroke="none" /><path d="M 79.06263194458094 98.37931529534042 l -25.245586888940863 -1.9541680894543612 a46.32110641912996,46.32110641912996 0 0,0 0.06817226628798206,-0.7922650708582255 l 25.208320999955138 2.3872542076882675" fill="#e2ff1b" stroke="none" /><path d="M 79.13060592940154 97.66154086499901 l -26.23418570994573 -2.939595228074384 a47.39836585792459,47.39836585792459 0 0,0 0.09754564224192701,-0.8078178497165488 l 26.179857981444137 3.389506754714369" fill="#d4ff1c" stroke="none" /><path d="M 79.17382384314186 97.30363454192245 l -27.324696629780952 -3.537729038209799 a48.552759801104415,48.552759801104415 0 0,0 0.11411166345535131,-0.8256551521013418 l 27.259940449770394 4.0062724985112075" fill="#c6ff1e" stroke="none" /><path d="M 79.22317932658666 96.9465228501225 l -26.065900132215845 -3.8307896908672654 a47.34589340596187,47.34589340596187 0 0,0 0.12507997712111443,-0.8031031794389262 l 25.996298662956463 4.277681052237642" fill="#d5ff1c" stroke="none" /><path d="M 79.2786578344484 96.59031103205396 l -27.37250933925231 -4.5041359953125415 a48.74061117913095,48.74061117913095 0 0,0 0.14293806833365827,-0.8244287938350362 l 27.291156453426417 4.97335782206817" fill="#c4ff1e" stroke="none" /><path d="M 79.34024301695615 96.23510406497455 l -25.9949207325693 -4.737140493844267 a47.42302791034707,47.42302791034707 0 0,0 0.1528234347571349,-0.7996367876860683 l 25.909771005530008 5.1826798465636505" fill="#d4ff1c" stroke="none" /><path d="M 79.407916724674 95.88100663000787 l -27.518712421335316 -5.504513190757082 a49.06384148322131,49.06384148322131 0 0,0 0.17228952317729207,-0.8244677379128235 l 27.420165187333655 5.976097379955315" fill="#c0ff1e" stroke="none" /><path d="M 79.48165901384962 95.52812308129327 l -25.719574571130646 -5.605461570271644 a47.323330251617904,47.323330251617904 0 0,0 0.17980417852375405,-0.7922503866730634 l 25.61955953104923 6.0461462908837165" fill="#d5ff1c" stroke="none" /><path d="M 79.56144815229197 95.17655741523228 l -10.451897806531386 -2.4666194232991696 a31.73901201869019,31.73901201869019 0 0,0 0.12969538701203545,-0.5292014376684437 l 10.408014893003054 2.645676685575731" fill="#ff5307" stroke="none" /><path d="M 79.73907114497095 94.47779374421319 l -11.731503569565689 -3.1974734655642747 a33.15944129332101,33.15944129332101 0 0,0 0.15439905579168092,-0.5479077798374101 l 11.674886021699425 3.3983891693046977" fill="#ff6809" stroke="none" /><path d="M 80.05021161711548 93.44210830539832 l -15.450480770782987 -5.078879914899159 a37.263836485844934,37.263836485844934 0 0,0 0.20497696963136675,-0.6059779886945088 l 15.361018379579255 5.343359578067829" fill="#ffa30f" stroke="none" /><path d="M 80.28708602549916 92.7611449362534 l -24.6631847184536 -9.05666304932051 a47.273481422253326,47.273481422253326 0 0,0 0.2862731574370915,-0.759373561398993 l 24.50408087720207 9.478704890913649" fill="#d6ff1c" stroke="none" /><path d="M 80.41425534168474 92.42381321644754 l -25.93064307402346 -10.03052979469055 a48.8030533969666,48.8030533969666 0 0,0 0.3089496468710181,-0.7787549309616528 l 25.754634752186313 10.474185742865785" fill="#c3ff1e" stroke="none" /><path d="M 80.5471966667186 92.08871423366112 l -24.6571002096574 -10.027827999171393 a47.61822543164838,47.61822543164838 0 0,0 0.31444843792406757,-0.754561780083325 l 24.481325927196853 10.449622288695982" fill="#d2ff1c" stroke="none" /><path d="M 80.68587082218212 91.75594674310238 l -36.91985483524708 -15.758890638894103 a61.142475200519726,61.142475200519726 0 0,0 0.42032865659867946,-0.9617942241200037 l 36.64389229663142 16.390346932789974" fill="#36ff2e" stroke="none" /><path d="M 80.9802524753101 91.09779779509293 l -23.848703687663694 -11.162397517469493 a47.331725843931935,47.331725843931935 0 0,0 0.3507522998986205,-0.7329374047680702 l 23.653572129805166 11.570147424302652" fill="#d5ff1c" stroke="none" /><path d="M 81.1358732173502 90.77261029715801 l -24.008502977793363 -11.743761887865285 a47.72684340721122,47.72684340721122 0 0,0 0.3663150839287528,-0.7328755526040858 l 23.803367980652865 12.15416929663314" fill="#d0ff1d" stroke="none" /><path d="M 81.29705330413844 90.45014215332179 l -25.784372729253768 -13.165684436486437 a49.95115064591089,49.95115064591089 0 0,0 0.39649779800431256,-0.7603368078675795 l 25.554566862274516 13.606367487458503" fill="#b5ff20" stroke="none" /><path d="M 81.46374523516351 90.13048839642627 l -25.03999253770159 -13.332385643137515 a49.368181704605085,49.368181704605085 0 0,0 0.4047124791181968,-0.7446253778609702 l 24.807434708968042 13.760265854473104" fill="#bcff1f" stroke="none" /><line stroke="#e1ed5e" stroke-width="0.3" x1="26.387840678322718" x2="22.05771365940052" y1="57.49999999999999" y2="54.99999999999999" /><path d="M 25.521815274538284 56.99999999999999 a86.0,86.0 0 0,1 29.574782752854787,-30.34633250058573" fill="none" id="id47" stroke="none" /><text fill="#e1ed5e" style="font-size:6.75px; font-family:Arial;" text-anchor="middle"><textPath startOffset="21.40746469413373" xlink:href="#id47">November</textPath></text><path d="M 82.18462484594161 88.88188828441811 l -23.969583232438662 -14.958792719752687 a49.25431648384598,49.25431648384598 0 0,0 0.4538018500325477,-0.7134518827349917 l 23.709263690780226 15.368058277166352" fill="#bdff1f" stroke="none" /><path d="M 82.37810715431573 88.57770195909679 l -27.15605855337777 -17.602229064107963 a53.361860023487665,53.361860023487665 0 0,0 0.5048427371619015,-0.7643962487771216 l 26.84989137729514 18.065805191224147" fill="#8cff24" stroke="none" /><path d="M 82.576782715395 88.27688183743585 l -26.890814453299065 -18.09334006309844 a53.41118412833263,53.41118412833263 0 0,0 0.5183689282952967,-0.7563157580259423 l 26.576255788188455 18.552290556194418" fill="#8cff24" stroke="none" /><path d="M 82.78059297857968 87.97951657250589 l -26.945418258501007 -18.809994631074854 a53.861397766172765,53.861397766172765 0 0,0 0.5357539412107127,-0.7536050126170728 l 26.61854921876032 19.269776870401447" fill="#86ff25" stroke="none" /><path d="M 82.98947788004972 87.6856937992154 l -28.85978464862209 -20.892258482473537 a56.62827015816696,56.62827015816696 0 0,0 0.5767939343473246,-0.7825317484246838 l 28.496888694690945 21.384596540167085" fill="#67ff28" stroke="none" /><path d="M 83.2033758604659 87.39550010848427 l -26.541528462160787 -19.917257768158095 a54.18357862122386,54.18357862122386 0 0,0 0.5646651924343953,-0.7391648628928075 l 26.195711292372085 20.369943544291786" fill="#83ff25" stroke="none" /><path d="M 83.42222388311158 87.10902102172516 l -24.105936411442023 -18.744921956990204 a51.53634341970466,51.53634341970466 0 0,0 0.5490671459510852,-0.6937284023006798 l 23.78060283484938 19.155970303205567" fill="#a2ff22" stroke="none" /><path d="M 83.64595745247003 86.82634096563983 l -20.653307474507386 -16.63684253053726 a47.52062667099773,47.52062667099773 0 0,0 0.5171900179728632,-0.6308877280062815 l 20.36467063729589 16.988932540242033" fill="#d3ff1c" stroke="none" /><path d="M 84.10781606972428 86.27271002978789 l -20.66249965338114 -17.847775075835617 a48.3035156542815,48.3035156542815 0 0,0 0.5474143951248536,-0.6228570941775758 l 20.353074194297694 18.199844447824493" fill="#c9ff1d" stroke="none" /><path d="M 84.58840730492382 85.73525988315684 l -39.63784161539145 -36.688194440591204 a75.01094425426652,75.01094425426652 0 0,0 0.8827865370655098,-0.9374887103408786 l 39.002199244589676 37.36322461087659" fill="#41ffcf" stroke="none" /><path d="M 84.83555147118756 85.47280134310135 l -25.985046630741365 -24.893086866714867 a56.98455810699383,56.98455810699383 0 0,0 0.6827650928718424,-0.7005771336082696 l 25.55389473671872 25.335486692390866" fill="#63ff29" stroke="none" /><path d="M 85.08716467003674 85.21462403516908 l -20.080402366167505 -19.908776026805263 a49.27687963818995,49.27687963818995 0 0,0 0.6007275875313938,-0.5955931945584888 l 19.735682858506134 20.250549231592426" fill="#bdff1f" stroke="none" /><path d="M 85.34317274990677 84.96080404539775 l -18.92265578533937 -19.416311830747443 a48.111991204617574,48.111991204617574 0 0,0 0.5964226223985059,-0.5713593806322287 l 18.586560677075564 19.73828334168524" fill="#cbff1d" stroke="none" /><path d="M 85.60350026404147 84.71141617570332 l -36.96448164382765 -39.25499854119281 a74.91964218785137,74.91964218785137 0 0,0 0.9438812793674586,-0.8736424208532262 l 36.28517059314623 39.883758708178405" fill="#41ffce" stroke="none" /><path d="M 85.86807049272753 84.46653392183569 l -37.62629321048767 -41.35788739473968 a76.91254591339548,76.91254591339548 0 0,0 0.9842424268086177,-0.8801156471922427 l 36.91078575685565 41.99769857181532" fill="#44ffe3" stroke="none" /><path d="M 86.13680546590413 84.22622945171909 l -36.732390784589604 -41.79471784088994 a76.64231278578747,76.64231278578747 0 0,0 0.9956950307808105,-0.8600576528307496 l 36.00951627404595 42.4191196261854" fill="#43ffe1" stroke="none" /><path d="M 86.68645165197937 83.75963576809568 l -36.61300645119189 -44.66191467887832 a78.75118063016916,78.75118063016916 0 0,0 1.0528253950254716,-0.8480816126331899 l 35.840930285811176 45.283844585304905" fill="#46fff7" stroke="none" /><path d="M 86.96720088162412 83.53348406188908 l -34.72949020707709 -43.87957635370719 a76.96029584468155,76.96029584468155 0 0,0 1.0429588026345655,-0.8110110732085606 l 33.971121459807286 44.469288478536555" fill="#44ffe4" stroke="none" /><path d="M 87.54013794807813 83.09580414077388 l -3.170616304859257 -4.301549952034149 a26.34379450788336,26.34379450788336 0 0,0 0.3663280121479958,-0.2651932303844119 l 3.096307282337293 4.35534395379164" fill="#ff0000" stroke="none" /><path d="M 88.4268655584334 82.4767994020092 l -34.71940332469979 -52.569601793972396 a84.0,84.0 0 0,0 1.210057470971896,-0.7843446331843746 l 33.811860221470866 53.157860268860674" fill="#4dd2ff" stroke="none" /><path d="M 88.72937992617638 82.28071324371311 l -28.844406447647756 -45.34819786426948 a74.7443841982959,74.7443841982959 0 0,0 1.0885482790173007,-0.6793346347894207 l 28.06169403984076 45.83666829590044" fill="#41ffcc" stroke="none" /><line stroke="#e1ed5e" stroke-width="0.3" x1="56.869717070023135" x2="54.33264160355391" y1="26.7553504044142" y2="22.446841604673864" /><path d="M 56.362301976729285 25.89364864446614 a86.0,86.0 0 0,1 42.16139366436587,-11.88097634709845" fill="none" id="id48" stroke="none" /><text fill="#e1ed5e" style="font-size:6.75px; font-family:Arial;" text-anchor="middle"><textPath startOffset="22.145653131862474" xlink:href="#id48">December</textPath></text><path d="M 89.34428304082924 81.90426304109057 l -14.027014231528272 -23.82093676335488 a48.644061867519554,48.644061867519554 0 0,0 0.7231925004240151,-0.4175353847957214 l 13.616029263243856 24.058219045426775" fill="#c5ff1e" stroke="none" /><path d="M 89.65649057296885 81.72400993836675 l -13.001430292266619 -22.972281553445974 a47.39626695984609,47.39626695984609 0 0,0 0.7115213627998271,-0.3946689058390758 l 12.60516474131069 23.192083374718194" fill="#d4ff1c" stroke="none" /><path d="M 90.61103034731259 81.2157712731953 l -12.176030432626092 -24.360217264683314 a48.233727293171086,48.233727293171086 0 0,0 0.7438094392277443,-0.3638344694926134 l 11.756060744136295 24.56564548427314" fill="#caff1d" stroke="none" /><path d="M 91.5904679813234 80.7573450057729 l -11.05063064046881 -25.286005500772177 a48.595262487194226,48.595262487194226 0 0,0 0.767261169220939,-0.32749816897111383 l 10.61493439607744 25.471978319402695" fill="#c5ff1e" stroke="none" /><path d="M 91.92203290615298 80.6158196554323 l -20.73898610625907 -49.76601689222261 a74.9143949426551,74.9143949426551 0 0,0 1.1913013325579556,-0.4844918808983073 l 19.881630312510673 50.11469602970021" fill="#41ffce" stroke="none" /><path d="M 92.25597844496254 80.48000691201159 l -9.745768212713756 -24.565702303031514 a47.428275155543346,47.428275155543346 0 0,0 0.7593667452086995,-0.29373937010236945 l 9.322629205011527 24.729381561271925" fill="#d4ff1c" stroke="none" /><path d="M 92.93061703081487 80.22567764915836 l -10.948614357363194 -30.6252229566944 a53.523475175532845,53.523475175532845 0 0,0 0.8678302074934016,-0.30187639496030944 l 10.421278377824787 30.808657784223296" fill="#8aff24" stroke="none" /><path d="M 93.27111125876988 80.10723608172694 l -8.418971188616384 -24.889192366000024 a47.274530871292576,47.274530871292576 0 0,0 0.7709739005612708,-0.25343443460197496 l 7.990474550407352 25.030047722004028" fill="#d6ff1c" stroke="none" /><path d="M 94.30408787586887 79.78721728523814 l -7.1441918216688824 -25.35221643469432 a47.339596711726344,47.339596711726344 0 0,0 0.7840758194566666,-0.21370335122320788 l 6.707934601277539 25.471120280061665" fill="#d5ff1c" stroke="none" /><path d="M 94.6519064749342 79.69241777938228 l -7.6311993414059645 -28.976906881152296 a50.964918417830646,50.964918417830646 0 0,0 0.8479463203043078,-0.2155446387530649 l 7.132647727876279 29.103636751740627" fill="#a9ff21" stroke="none" /><path d="M 95.00130118170881 79.60360301121753 l -6.983764666698318 -28.49614305566534 a50.33944679043502,50.33944679043502 0 0,0 0.8410711084421209,-0.1984904914744439 l 6.49356140451629 28.611829690786013" fill="#b0ff20" stroke="none" /><path d="M 95.35216902796891 79.52079915486377 l -11.632990999885317 -51.25710477638253 a73.56060568201693,73.56060568201693 0 0,0 1.2338480941651235,-0.26891144938139355 l 10.751380489101075 51.44924768389764" fill="#3fffbe" stroke="none" /><path d="M 95.70440661134978 79.44403061299748 l -5.395654272692989 -25.820158943669988 a47.37790160165913,47.37790160165913 0 0,0 0.7975359392549557,-0.15952952414765134 l 4.951621847907057 25.908977864480505" fill="#d5ff1c" stroke="none" /><path d="M 96.05791012581881 79.37332000966035 l -4.940786789158901 -25.85228425865013 a47.32018190450014,47.32018190450014 0 0,0 0.7991821392177556,-0.145637607923238 l 4.496269916390107 25.93329004050473" fill="#d5ff1c" stroke="none" /></svg>