<?xml version="1.0" encoding="utf-8" ?>
<svg baseProfile="full" height="200mm" version="1.1" viewBox="0,0,200,200" width="200mm" xmlns="http://www.w3.org/2000/svg" xmlns:ev="http://www.w3.org/2001/xml-events" xmlns:xlink="http://www.w3.org/1999/xlink"><defs /><rect fill="#1a1a1a" height="200" width="200" x="0" y="0" /><text alignment-baseline="middle" fill="#e1ed5e" style="dominant-baseline: central; font-size:9.0px; font-family:Arial;" text-anchor="middle" x="100.0" y="100.0">2025</text><line stroke="#e1ed5e" stroke-width="0.3" x1="100.0" x2="100.0" y1="15.0" y2="10.0" /><path d="M 100.0 14.0 a86.0,86.0 0 0,1 42.46469731375804,11.215312516191453" fill="none" id="id97" stroke="none" /><text fill="#e1ed5e" style="font-size:6.75px; font-family:Arial;" text-anchor="middle"><textPath startOffset="22.20632615414155" xlink:href="#id97">January</textPath></text><path d="M 100.0 79.0 l 0.0 -46.03079653871755 a67.03079653871755,67.03079653871755 0 0,0 1.153824974230236,0.009931335828744505 l -0.7923444949577076 46.023976579497365" fill="#41ff2d" stroke="none" /><path d="M 100.36148047927253 79.00311137660856 l 0.42981334022956136 -24.966058614866427 a45.969758153982696,45.969758153982696 0 0,0 0.7910593420658518,0.020430728953170392 l -0.859499317490281 24.954961093770894" fill="#ff4006" stroke="none" /><path d="M 101.08401301168833 79.027996857942 l 3.0921635225800967 -59.82295637789999 a80.90281783891723,80.90281783891723 0 0,0 1.3901336681950947,0.0838566591559067 l -4.121459239614803 59.76086644936378" fill="#47feff" stroke="none" /><path d="M 101.80526077348638 79.07773832637324 l 2.692699023066401 -31.207321621526145 a52.32327490570224,52.32327490570224 0 0,0 0.8966586622338957,0.08514854424214353 l -3.2294828123905406 31.156347532768823" fill="#ffc112" stroke="none" /><path d="M 102.16513564639614 79.11191278185805 l 2.5722009126992993 -24.815238295336428 a45.9481917017972,45.9481917017972 0 0,0 0.7860057320382712,0.08831690227586168 l -2.998973348247296 24.767285439589966" fill="#ff4006" stroke="none" /><path d="M 102.52436894288641 79.15227682838746 l 2.681156826609692 -22.142569713651113 a43.3043044153539,43.3043044153539 0 0,0 0.7392359678627153,0.09597404484291663 l -3.061907522980253 22.09313734564406" fill="#ff0701" stroke="none" /><path d="M 102.88285421437855 79.19881850522331 l 4.443829902146352 -32.06437282378778 a53.37084535167517,53.37084535167517 0 0,0 0.9089080875478157,0.1339494254773901 l -4.995106970122824 31.983128914149418" fill="#ffd513" stroke="none" /><path d="M 103.59715602781102 79.31037775812273 l 10.28084956763389 -59.131962093218014 a81.01903705347237,81.01903705347237 0 0,0 1.3719411837980777,0.250713482111742 l -11.297185872534868 58.946233129755534" fill="#47fcff" stroke="none" /><path d="M 104.307194497241 79.44645832069477 l 7.64539651726822 -36.48313909974212 a58.27561570889727,58.27561570889727 0 0,0 0.980021794858573,0.21419480585138645 l -8.272261036280321 36.346130795794856" fill="#cfff1d" stroke="none" /><path d="M 104.66035177308747 79.52364482259891 l 5.539686840279307 -24.339921284093318 a45.96236964721544,45.96236964721544 0 0,0 0.7699272825220508,0.1822169124201498 l -5.957837809763881 24.2409584595323" fill="#ff4006" stroke="none" /><path d="M 105.01212808612495 79.60689891045804 l 5.93086201499942 -24.131200668001537 a45.84934546261371,45.84934546261371 0 0,0 0.7647913416744363,0.19496234178237706 l -6.345362245358881 24.02553533005029" fill="#ff3e05" stroke="none" /><path d="M 105.71112130821622 79.79150937346287 l 8.686972307796752 -30.738376753185946 a52.94231195917462,52.94231195917462 0 0,0 0.8748333402938849,0.2553878415415094 l -9.214795865814065 30.584290582725732" fill="#ffcd13" stroke="none" /><path d="M 106.0581310904928 79.89281104454417 l 17.454249716098637 -57.931380466175845 a81.50368315952963,81.50368315952963 0 0,0 1.339822076410511,0.4162892410604251 l -18.448857165219867 57.6223510902329" fill="#48f5ff" stroke="none" /><path d="M 106.74666289553966 80.11325718540242 l 7.067219733487414 -20.831629418898245 a42.99778122919902,42.99778122919902 0 0,0 0.6988531675655238,0.24381614782195674 l -7.424754905116211 20.706892417904083" fill="#ff0000" stroke="none" /><path d="M 107.4271985657038 80.35727306442388 l 21.30089190982785 -56.334511534541484 a81.22711337918793,81.22711337918793 0 0,0 1.3035668889174816,0.5057637007732668 l -22.267441963745 55.95950512987767" fill="#48f9ff" stroke="none" /><path d="M 107.76421540070413 80.48803036053334 l 10.5584371402076 -26.53402749507237 a49.557577102285336,49.557577102285336 0 0,0 0.7898914495358134,0.32221655525880866 l -11.013612459331801 26.348350053629982" fill="#ff8b0c" stroke="none" /><path d="M 108.76106565485865 80.91482961587045 l 15.49966336574648 -33.76458160290949 a58.15220767694697,58.15220767694697 0 0,0 0.9061271149013257,0.4254388302842811 l -16.078568691947403 33.492777789985205" fill="#d1ff1c" stroke="none" /><path d="M 109.08828744355905 81.06846463323043 l 14.058917252383788 -29.285703256515955 a53.48546705125361,53.48546705125361 0 0,0 0.8265509931189824,0.4055849826519334 l -14.560939512513203 29.03936311372919" fill="#ffd714" stroke="none" /><path d="M 110.05341064243156 81.56283822128135 l 28.68219032271797 -52.600873669281235 a80.91260261814955,80.91260261814955 0 0,0 1.2170639075028775,0.6772947468382173 l -29.583378319292883 52.09936352488283" fill="#47feff" stroke="none" /><line stroke="#e1ed5e" stroke-width="0.3" x1="143.23703022742887" x2="145.7803849466894" y1="26.81831364943548" y2="22.513508569990506" /><path d="M 143.74570117128098 25.957352633546492 a86.0,86.0 0 0,1 28.547481713284135,27.462654790039103" fill="none" id="id98" stroke="none" /><text fill="#e1ed5e" style="font-size:6.75px; font-family:Arial;" text-anchor="middle"><textPath startOffset="19.985693538727396" xlink:href="#id98">February</textPath></text><path d="M 110.68208982089419 81.91981866633111 l 32.04626946268258 -54.24054400100664 a84.0,84.0 0 0,0 1.23855173512945,0.7462135621655417 l -32.97518326402967 53.68088382938249" fill="#4dd2ff" stroke="none" /><path d="M 111.60114157652 82.49532879139004 l 19.85567979040068 -29.959736639871704 a56.942090082094516,56.942090082094516 0 0,0 0.8123610894893014,0.548509833924941 l -20.368445574296523 29.61351489364809" fill="#e7ff1a" stroke="none" /><path d="M 112.19680574252982 82.90503203632743 l 21.084866940762964 -29.552419910549425 a57.30312846682937,57.30312846682937 0 0,0 0.7980270622716567,0.5798005992395374 l -21.59043931938841 29.185100076493214" fill="#e0ff1b" stroke="none" /><path d="M 112.48926042617603 83.11751280151076 l 21.375720156969383 -28.894851223709907 a56.942090082094516,56.942090082094516 0 0,0 0.7829641678210203,0.5897123786532943 l -21.869930478548785 28.522622255550765" fill="#e7ff1a" stroke="none" /><path d="M 113.06298171725822 83.55741782278167 l 38.044914644158425 -47.887737195205176 a82.16086088307078,82.16086088307078 0 0,0 1.0997685126308019,0.8892696534405745 l -38.86358655535372 47.22576144450047" fill="#4aecff" stroke="none" /><line stroke="#e1ed5e" stroke-width="0.3" x1="172.23445277983987" x2="176.4835382374775" y1="55.19839476539836" y2="52.563006222186495" /><path d="M 173.08426987136738 54.67131705675599 a86.0,86.0 0 0,1 12.851231095245387,41.99856678651699" fill="none" id="id99" stroke="none" /><text fill="#e1ed5e" style="font-size:6.75px; font-family:Arial;" text-anchor="middle"><textPath startOffset="22.20632615414155" xlink:href="#id99">March</textPath></text><line stroke="#e1ed5e" stroke-width="0.3" x1="184.98032266829074" x2="189.97916517819016" y1="98.17113171792111" y2="98.06355123074" /><path d="M 185.9800911702706 98.14961562048488 a86.0,86.0 0 0,1 -9.607161424134198,41.387399972396054" fill="none" id="id100" stroke="none" /><text fill="#e1ed5e" style="font-size:6.75px; font-family:Arial;" text-anchor="middle"><textPath startOffset="21.466115282336823" xlink:href="#id100">April</textPath></text><line stroke="#e1ed5e" stroke-width="0.3" x1="174.80103733775053" x2="179.2010983576182" y1="140.37084112569926" y2="142.7455964860345" /><path d="M 175.68104954172406 140.8457921977663 a86.0,86.0 0 0,1 -30.038265399797805,32.042727171017184" fill="none" id="id101" stroke="none" /><text fill="#e1ed5e" style="font-size:6.75px; font-family:Arial;" text-anchor="middle"><textPath startOffset="22.206326154141568" xlink:href="#id101">May</textPath></text><line stroke="#e1ed5e" stroke-width="0.3" x1="143.8653032363475" x2="146.44561519142675" y1="172.8068346515853" y2="177.08958963109032" /><path d="M 144.38136562736335 173.6633856474863 a86.0,86.0 0 0,1 -40.68145358897372,12.25698825130547" fill="none" id="id102" stroke="none" /><text fill="#e1ed5e" style="font-size:6.75px; font-family:Arial;" text-anchor="middle"><textPath startOffset="21.466115282336833" xlink:href="#id102">June</textPath></text><line stroke="#e1ed5e" stroke-width="0.3" x1="102.19456741930631" x2="102.32365962044197" y1="184.97166512339345" y2="189.96999836594603" /><path d="M 102.22038585953345 185.97133177190398 a86.0,86.0 0 0,1 -42.740103519485714,-10.115201625700543" fill="none" id="id103" stroke="none" /><text fill="#e1ed5e" style="font-size:6.75px; font-family:Arial;" text-anchor="middle"><textPath startOffset="22.20632615414155" xlink:href="#id103">July</textPath></text><line stroke="#e1ed5e" stroke-width="0.3" x1="58.666819895761336" x2="56.23545636021788" y1="174.27360380694188" y2="178.64263932499728" /><path d="M 58.180547188652646 175.14741091055294 a86.0,86.0 0 0,1 -31.652253787137756,-30.449443065178592" fill="none" id="id104" stroke="none" /><text fill="#e1ed5e" style="font-size:6.75px; font-family:Arial;" text-anchor="middle"><textPath startOffset="22.20632615414155" xlink:href="#id104">August</textPath></text><line stroke="#e1ed5e" stroke-width="0.3" x1="26.63291911575756" x2="22.317208475507996" y1="142.92168965132927" y2="145.44649492493687" /><path d="M 25.769776987707644 143.4266507060508 a86.0,86.0 0 0,1 -11.730757126820373,-40.83630448921669" fill="none" id="id105" stroke="none" /><text fill="#e1ed5e" style="font-size:6.75px; font-family:Arial;" text-anchor="middle"><textPath startOffset="21.46611528233685" xlink:href="#id105">September</textPath></text><line stroke="#e1ed5e" stroke-width="0.3" x1="15.007084014347285" x2="10.007500721073583" y1="101.09737516637583" y2="101.16192664675087" /><path d="M 14.007167355692545 101.11028546245083 a86.0,86.0 0 0,1 10.666146001902534,-42.60595125391555" fill="none" id="id106" stroke="none" /><text fill="#e1ed5e" style="font-size:6.75px; font-family:Arial;" text-anchor="middle"><textPath startOffset="22.20632615414155" xlink:href="#id106">October</textPath></text><line stroke="#e1ed5e" stroke-width="0.3" x1="26.266209847984243" x2="21.928928074336255" y1="57.711370442889674" y2="55.22380399835377" /><path d="M 25.398753493254645 57.213857153982495 a86.0,86.0 0 0,1 29.58750427330803,-30.492523968695096" fill="none" id="id107" stroke="none" /><text fill="#e1ed5e" style="font-size:6.75px; font-family:Arial;" text-anchor="middle"><textPath startOffset="21.46611528233685" xlink:href="#id107">November</textPath></text><line stroke="#e1ed5e" stroke-width="0.3" x1="56.762969772571076" x2="54.21961505331055" y1="26.818313649435495" y2="22.513508569990535" /><path d="M 56.25429882871897 25.957352633546506 a86.0,86.0 0 0,1 42.265352541879196,-11.944610805530505" fill="none" id="id108" stroke="none" /><text fill="#e1ed5e" style="font-size:6.75px; font-family:Arial;" text-anchor="middle"><textPath startOffset="22.20632615414155" xlink:href="#id108">December</textPath></text></svg>