<?xml version="1.0" encoding="utf-8" ?>
<svg baseProfile="full" height="200mm" version="1.1" viewBox="0,0,200,200" width="200mm" xmlns="http://www.w3.org/2000/svg" xmlns:ev="http://www.w3.org/2001/xml-events" xmlns:xlink="http://www.w3.org/1999/xlink"><defs /><rect fill="#1a1a1a" height="200" width="200" x="0" y="0" /><text alignment-baseline="middle" fill="#e1ed5e" style="dominant-baseline: central; font-size:9.0px; font-family:Arial;" text-anchor="middle" x="100.0" y="100.0">2023</text><line stroke="#e1ed5e" stroke-width="0.3" x1="100.0" x2="100.0" y1="15.0" y2="10.0" /><path d="M 100.0 14.0 a86.0,86.0 0 0,1 42.46469731375804,11.215312516191453" fill="none" id="id73" stroke="none" /><text fill="#e1ed5e" style="font-size:6.75px; font-family:Arial;" text-anchor="middle"><textPath startOffset="22.20632615414155" xlink:href="#id73">January</textPath></text><path d="M 101.08401301168833 79.027996857942 l 0.8880515585775877 -17.180808602833846 a38.2037443545846,38.2037443545846 0 0,0 0.656445754264931,0.039598600572855795 l -1.1836593616821305 17.162976732880686" fill="#ff3e05" stroke="none" /><path d="M 101.80526077348638 79.07773832637324 l 1.5253894191428652 -17.67866285592308 a38.74434933305325,38.74434933305325 0 0,0 0.663957990104939,0.06305081150337205 l -1.8294725363380484 17.64978649990453" fill="#ff4806" stroke="none" /><path d="M 102.16513564639614 79.11191278185805 l 1.7330749940097934 -16.71979383403221 a37.80937401533453,37.80937401533453 0 0,0 0.6467802888458265,0.07267330152392472 l -2.020621986365345 16.687484579037687" fill="#ff3705" stroke="none" /><path d="M 102.52436894288641 79.15227682838746 l 2.12529805596429 -17.551961115972105 a38.6801648986451,38.6801648986451 0 0,0 0.6602985435739082,0.08572570165098302 l -2.427111328046044 17.512777091156988" fill="#ff4706" stroke="none" /><path d="M 102.88285421437855 79.19881850522331 l 2.451455564873692 -17.68843248367668 a38.85749921226762,38.85749921226762 0 0,0 0.6617450981559987,0.09752402572368131 l -2.7555696434583465 17.643613973792032" fill="#ff4a06" stroke="none" /><path d="M 103.2404852339499 79.25152402106235 l 3.436867964754347 -22.005893334241403 a43.272660434828275,43.272660434828275 0 0,0 0.7349568642749089,0.12127417995877572 l -3.8151540351681312 21.943472891343" fill="#ff950d" stroke="none" /><path d="M 103.59715602781102 79.31037775812273 l 4.588555804596822 -26.39181773014511 a47.78773763260162,47.78773763260162 0 0,0 0.8092167930289355,0.14787919654246734 l -5.042167718728659 26.308923052251906" fill="#ffde14" stroke="none" /><path d="M 103.95276090670814 79.375362276772 l 6.256891291561061 -32.64708369865384 a54.241250919021105,54.241250919021105 0 0,0 0.9154724437249161,0.18363515989361376 l -6.817930144753102 32.53454458268301" fill="#beff1e" stroke="none" /><path d="M 105.01212808612495 79.60689891045804 l 8.01764140150242 -32.62178635321882 a54.592611070265725,54.592611070265725 0 0,0 0.9106336381614089,0.23214079047109648 l -8.577983928348853 32.47894256657886" fill="#b9ff1f" stroke="none" /><path d="M 105.71112130821622 79.79150937346287 l 9.048957094327879 -32.01924013723619 a54.273343136225186,54.273343136225186 0 0,0 0.8968276659582491,0.26180858832705833 l -9.598774978009555 31.858733219990427" fill="#beff1f" stroke="none" /><path d="M 106.0581310904928 79.89281104454417 l 3.9651139274776663 -13.16037797445841 a34.74473269614536,34.74473269614536 0 0,0 0.5711614260935973,0.17746263535863946 l -4.1910607262819815 13.09017520421725" fill="#ff0000" stroke="none" /><path d="M 106.40334571778207 80.00007090966166 l 12.441127044754303 -38.85807040029086 a61.801118579981086,61.801118579981086 0 0,0 1.0103516958638477,0.3330970689848276 l -13.108161562860568 38.638159607046795" fill="#58ff2a" stroke="none" /><path d="M 107.08798089147638 80.2323363322302 l 11.295618072400643 -31.502339297120848 a54.466227287049676,54.466227287049676 0 0,0 0.8798050925835821,0.32403964057914164 l -11.836205490756802 31.30323638873538" fill="#bbff1f" stroke="none" /><path d="M 107.76421540070413 80.48803036053334 l 12.484476718201854 -31.374288079139482 a54.766967755487876,54.766967755487876 0 0,0 0.8729232153092599,0.35608729732127625 l -13.022683803099502 31.154739895634627" fill="#b7ff1f" stroke="none" /><path d="M 108.76106565485865 80.91482961587045 l 14.078115084560052 -30.667870286670958 a54.744800966285055,54.744800966285055 0 0,0 0.8530329378207282,0.40051040222975187 l -14.603926233680378 30.420994901801205" fill="#b7ff1f" stroke="none" /><path d="M 109.08828744355905 81.06846463323043 l 21.49130365112725 -44.76788148218693 a70.65923222350594,70.65923222350594 0 0,0 1.091950052738574,0.5358151485918059 l -22.258724970876255 44.39131117346029" fill="#38ff82" stroke="none" /><path d="M 109.73455568895987 81.39251694778311 l 16.580235514128525 -31.692915546295065 a56.76793404054196,56.76793404054196 0 0,0 0.8619398555800433,0.46041841998331096 l -17.12332041623688 31.40281839981" fill="#9bff22" stroke="none" /><path d="M 110.05341064243156 81.56283822128135 l 20.561922638385642 -37.708943526624125 a63.950635437454046,63.950635437454046 0 0,0 0.9619269153918091,0.535311286959368 l -21.207973642849485 37.349416842104574" fill="#3dff2e" stroke="none" /><path d="M 110.36928655335952 81.73862282372117 l 21.925797061326453 -38.613577507673874 a65.40437979203864,65.40437979203864 0 0,0 0.9742239861918256,0.5643334146095076 l -22.587217779983607 38.23043993567432" fill="#30ff35" stroke="none" /><line stroke="#e1ed5e" stroke-width="0.3" x1="143.23703022742887" x2="145.7803849466894" y1="26.81831364943548" y2="22.513508569990506" /><path d="M 143.74570117128098 25.957352633546492 a86.0,86.0 0 0,1 28.547481713284135,27.462654790039103" fill="none" id="id74" stroke="none" /><text fill="#e1ed5e" style="font-size:6.75px; font-family:Arial;" text-anchor="middle"><textPath startOffset="19.985693538727396" xlink:href="#id74">February</textPath></text><path d="M 110.99172775467656 82.1063720568725 l 23.324374718160673 -37.97016197342467 a65.56186324965864,65.56186324965864 0 0,0 0.9565190111659133,0.5989721170408722 l -23.97451288169885 37.56304551506086" fill="#30ff37" stroke="none" /><path d="M 111.2981086023043 82.29822771554956 l 23.995160617197236 -37.59539619647557 a65.60024157126352,65.60024157126352 0 0,0 0.9466207767909377,0.6157084851948045 l -24.63874841977245 37.17678878712124" fill="#30ff38" stroke="none" /><path d="M 111.60114157652 82.49532879139004 l 18.863339229407117 -28.462418886046777 a55.145788257535976,55.145788257535976 0 0,0 0.7867342516766013,0.5312064786380669 l -19.35047817549026 28.133500495110038" fill="#b2ff20" stroke="none" /><path d="M 111.90073688211348 82.69761687909136 l 10.278681819418518 -14.944090654150616 a39.137727129503205,39.137727129503205 0 0,0 0.5517839176437163,0.38655989649657574 l -10.534396876645884 14.764945914890104" fill="#ff4f07" stroke="none" /><path d="M 112.19680574252982 82.90503203632743 l 20.458697257663175 -28.674784331334763 a56.225013128873016,56.225013128873016 0 0,0 0.7830127822670778,0.5688920862888305 l -20.94925535628404 28.318373010229255" fill="#a2ff22" stroke="none" /><path d="M 112.48926042617603 83.11751280151076 l 37.46778127852809 -50.647461595467746 a84.0,84.0 0 0,0 1.1550153849664682,0.8699336419766106 l -38.33404281725294 49.995011363985284" fill="#4dd2ff" stroke="none" /><path d="M 113.06298171725822 83.55741782278167 l 22.067191702022043 -27.776324030336642 a56.47513391450478,56.47513391450478 0 0,0 0.7559508670944066,0.6112596949980335 l -22.54204596768094 27.39235823807448" fill="#9fff22" stroke="none" /><line stroke="#e1ed5e" stroke-width="0.3" x1="172.23445277983987" x2="176.4835382374775" y1="55.19839476539836" y2="52.563006222186495" /><path d="M 173.08426987136738 54.67131705675599 a86.0,86.0 0 0,1 12.851231095245387,41.99856678651699" fill="none" id="id75" stroke="none" /><text fill="#e1ed5e" style="font-size:6.75px; font-family:Arial;" text-anchor="middle"><textPath startOffset="22.20632615414155" xlink:href="#id75">March</textPath></text><line stroke="#e1ed5e" stroke-width="0.3" x1="184.98032266829074" x2="189.97916517819016" y1="98.17113171792111" y2="98.06355123074" /><path d="M 185.9800911702706 98.14961562048488 a86.0,86.0 0 0,1 -9.607161424134198,41.387399972396054" fill="none" id="id76" stroke="none" /><text fill="#e1ed5e" style="font-size:6.75px; font-family:Arial;" text-anchor="middle"><textPath startOffset="21.466115282336823" xlink:href="#id76">April</textPath></text><line stroke="#e1ed5e" stroke-width="0.3" x1="174.80103733775053" x2="179.2010983576182" y1="140.37084112569926" y2="142.7455964860345" /><path d="M 175.68104954172406 140.8457921977663 a86.0,86.0 0 0,1 -30.038265399797805,32.042727171017184" fill="none" id="id77" stroke="none" /><text fill="#e1ed5e" style="font-size:6.75px; font-family:Arial;" text-anchor="middle"><textPath startOffset="22.206326154141568" xlink:href="#id77">May</textPath></text><line stroke="#e1ed5e" stroke-width="0.3" x1="143.8653032363475" x2="146.44561519142675" y1="172.8068346515853" y2="177.08958963109032" /><path d="M 144.38136562736335 173.6633856474863 a86.0,86.0 0 0,1 -40.68145358897372,12.25698825130547" fill="none" id="id78" stroke="none" /><text fill="#e1ed5e" style="font-size:6.75px; font-family:Arial;" text-anchor="middle"><textPath startOffset="21.466115282336833" xlink:href="#id78">June</textPath></text><line stroke="#e1ed5e" stroke-width="0.3" x1="102.19456741930631" x2="102.32365962044197" y1="184.97166512339345" y2="189.96999836594603" /><path d="M 102.22038585953345 185.97133177190398 a86.0,86.0 0 0,1 -42.740103519485714,-10.115201625700543" fill="none" id="id79" stroke="none" /><text fill="#e1ed5e" style="font-size:6.75px; font-family:Arial;" text-anchor="middle"><textPath startOffset="22.20632615414155" xlink:href="#id79">July</textPath></text><line stroke="#e1ed5e" stroke-width="0.3" x1="58.666819895761336" x2="56.23545636021788" y1="174.27360380694188" y2="178.64263932499728" /><path d="M 58.180547188652646 175.14741091055294 a86.0,86.0 0 0,1 -31.652253787137756,-30.449443065178592" fill="none" id="id80" stroke="none" /><text fill="#e1ed5e" style="font-size:6.75px; font-family:Arial;" text-anchor="middle"><textPath startOffset="22.20632615414155" xlink:href="#id80">August</textPath></text><line stroke="#e1ed5e" stroke-width="0.3" x1="26.63291911575756" x2="22.317208475507996" y1="142.92168965132927" y2="145.44649492493687" /><path d="M 25.769776987707644 143.4266507060508 a86.0,86.0 0 0,1 -11.730757126820373,-40.83630448921669" fill="none" id="id81" stroke="none" /><text fill="#e1ed5e" style="font-size:6.75px; font-family:Arial;" text-anchor="middle"><textPath startOffset="21.46611528233685" xlink:href="#id81">September</textPath></text><line stroke="#e1ed5e" stroke-width="0.3" x1="15.007084014347285" x2="10.007500721073583" y1="101.09737516637583" y2="101.16192664675087" /><path d="M 14.007167355692545 101.11028546245083 a86.0,86.0 0 0,1 10.666146001902534,-42.60595125391555" fill="none" id="id82" stroke="none" /><text fill="#e1ed5e" style="font-size:6.75px; font-family:Arial;" text-anchor="middle"><textPath startOffset="22.20632615414155" xlink:href="#id82">October</textPath></text><line stroke="#e1ed5e" stroke-width="0.3" x1="26.266209847984243" x2="21.928928074336255" y1="57.711370442889674" y2="55.22380399835377" /><path d="M 25.398753493254645 57.213857153982495 a86.0,86.0 0 0,1 29.58750427330803,-30.492523968695096" fill="none" id="id83" stroke="none" /><text fill="#e1ed5e" style="font-size:6.75px; font-family:Arial;" text-anchor="middle"><textPath startOffset="21.46611528233685" xlink:href="#id83">November</textPath></text><line stroke="#e1ed5e" stroke-width="0.3" x1="56.762969772571076" x2="54.21961505331055" y1="26.818313649435495" y2="22.513508569990535" /><path d="M 56.25429882871897 25.957352633546506 a86.0,86.0 0 0,1 42.265352541879196,-11.944610805530505" fill="none" id="id84" stroke="none" /><text fill="#e1ed5e" style="font-size:6.75px; font-family:Arial;" text-anchor="middle"><textPath startOffset="22.20632615414155" xlink:href="#id84">December</textPath></text></svg>