<?xml version="1.0" encoding="utf-8" ?>
<svg baseProfile="full" height="200mm" version="1.1" viewBox="0,0,200,200" width="200mm" xmlns="http://www.w3.org/2000/svg" xmlns:ev="http://www.w3.org/2001/xml-events" xmlns:xlink="http://www.w3.org/1999/xlink"><defs /><rect fill="#1a1a1a" height="200" width="200" x="0" y="0" /><text alignment-baseline="middle" fill="#e1ed5e" style="dominant-baseline: central; font-size:9.0px; font-family:Arial;" text-anchor="middle" x="100.0" y="100.0">2023</text><line stroke="#e1ed5e" stroke-width="0.3" x1="100.0" x2="100.0" y1="15.0" y2="10.0" /><path d="M 100.0 14.0 a86.0,86.0 0 0,1 42.46469731375804,11.215312516191453" fill="none" id="id73" stroke="none" /><text fill="#e1ed5e" style="font-size:6.75px; font-family:Arial;" text-anchor="middle"><textPath startOffset="22.20632615414155" xlink:href="#id73">January</textPath></text><path d="M 101.08401301168833 79.027996857942 l 0.5066916895668299 -9.802778740727396 a30.81586509218281,30.81586509218281 0 0,0 0.5295016010999128,0.03194098258449687 l -0.6753553395063546 9.792604488762596" fill="#ff2003" stroke="none" /><path d="M 101.80526077348638 79.07773832637324 l 0.8703347621739878 -10.086837262126613 a31.12431570778363,31.12431570778363 0 0,0 0.5333742457019881,0.05065031150719958 l -1.04383413496622 10.070361406104235" fill="#ff2503" stroke="none" /><path d="M 102.16513564639614 79.11191278185805 l 0.9888330113032784 -9.539739562581579 a30.59085093441282,30.59085093441282 0 0,0 0.5232977249338914,0.05879859669002635 l -1.152897439746895 9.521305012420951" fill="#ff1c02" stroke="none" /><path d="M 102.52436894288641 79.15227682838746 l 1.2126220064682878 -10.014545605108804 a31.087694276066024,31.087694276066024 0 0,0 0.5306895486962194,0.06889873431279915 l -1.3848262836723533 9.992188547631867" fill="#ff2403" stroke="none" /><path d="M 102.88285421437855 79.19881850522331 l 1.3987162682912346 -10.09241147585902 a31.18887513895589,31.18887513895589 0 0,0 0.5311480578680069,0.07827741679227625 l -1.5722333065878973 10.066839574905774" fill="#ff2603" stroke="none" /><path d="M 103.2404852339499 79.25152402106235 l 1.9609587067993932 -12.555806209961219 a33.70801434654026,33.70801434654026 0 0,0 0.572507820783938,0.09446869586564952 l -2.1767957337222064 12.520191251155945" fill="#ff4e07" stroke="none" /><path d="M 103.59715602781102 79.31037775812273 l 2.618072195072576 -15.058263889369327 a36.284162174633465,36.284162174633465 0 0,0 0.6144202426663447,0.11228137207191886 l -2.8768875588418217 15.010967035946669" fill="#ff760a" stroke="none" /><path d="M 103.95276090670814 79.375362276772 l 3.569967069293841 -18.62730360520545 a39.966314994651505,39.966314994651505 0 0,0 0.6745430725677238,0.1353069945853272 l -3.89007655132869 18.563092654542917" fill="#ffad10" stroke="none" /><path d="M 105.01212808612495 79.60689891045804 l 4.57459055032253 -18.61286980958153 a40.16678901776538,40.16678901776538 0 0,0 0.6700032934755794,0.17079875775255582 l -4.894302732483135 18.531368055660103" fill="#ffb010" stroke="none" /><path d="M 105.71112130821622 79.79150937346287 l 5.163023829704992 -18.269077653293486 a39.98462571051031,39.98462571051031 0 0,0 0.6607169648673542,0.19288140009689841 l -5.476731012295773 18.177497924277883" fill="#ffad10" stroke="none" /><path d="M 106.0581310904928 79.89281104454417 l 2.2623576928986333 -7.5088592399940355 a28.842271955030725,28.842271955030725 0 0,0 0.47413210300628744,0.14731515236086928 l -2.391275168615639 7.468803952750646" fill="#ff0000" stroke="none" /><path d="M 106.40334571778207 80.00007090966166 l 7.09847938617337 -22.17107909361323 a44.27971558613167,44.27971558613167 0 0,0 0.7239041422351983,0.23865981419307122 l -7.479066350650986 22.045605555160922" fill="#ffea16" stroke="none" /><path d="M 107.08798089147638 80.2323363322302 l 6.444891347269964 -17.974151804127633 a40.094678775929694,40.094678775929694 0 0,0 0.6476582706317386,0.23853800688665547 l -6.753331943674279 17.860550529434654" fill="#ffae10" stroke="none" /><path d="M 107.76421540070413 80.48803036053334 l 7.123213219551798 -17.901090181338535 a40.26627094825598,40.26627094825598 0 0,0 0.6417985903764654,0.26180575961746466 l -7.43029567951665 17.77582353553749" fill="#ffb110" stroke="none" /><path d="M 108.76106565485865 80.91482961587045 l 8.03248848471987 -17.498032474442255 a40.25362334039474,40.25362334039474 0 0,0 0.627231553862677,0.2944936247954442 l -8.332498249882146 17.357173867006807" fill="#ffb110" stroke="none" /><path d="M 109.08828744355905 81.06846463323043 l 12.262199027526453 -25.543014127321154 a49.33385070369361,49.33385070369361 0 0,0 0.7623929553507716,0.3741029121543712 l -12.700063249887656 25.32815605503195" fill="#d0ff1d" stroke="none" /><path d="M 109.73455568895987 81.39251694778311 l 9.460112383030912 -18.082888060207246 a41.40795352056547,41.40795352056547 0 0,0 0.6287205282456075,0.33584073221804217 l -9.769977957804832 17.91736860148745" fill="#ffc212" stroke="none" /><path d="M 110.05341064243156 81.56283822128135 l 11.731926172252548 -21.5154268045981 a45.50615600813809,45.50615600813809 0 0,0 0.6844904039000335,0.3809181686883326 l -12.100540665224617 21.310293238349587" fill="#fffb17" stroke="none" /><path d="M 110.36928655335952 81.73862282372117 l 12.510106030214581 -22.031579854351037 a46.33561255951507,46.33561255951507 0 0,0 0.6901871910398517,0.39980096955093036 l -12.887489953719761 21.812974727410058" fill="#f8ff18" stroke="none" /><line stroke="#e1ed5e" stroke-width="0.3" x1="143.23703022742887" x2="145.7803849466894" y1="26.81831364943548" y2="22.513508569990506" /><path d="M 143.74570117128098 25.957352633546492 a86.0,86.0 0 0,1 28.547481713284135,27.462654790039103" fill="none" id="id74" stroke="none" /><text fill="#e1ed5e" style="font-size:6.75px; font-family:Arial;" text-anchor="middle"><textPath startOffset="19.985693538727396" xlink:href="#id74">February</textPath></text><path d="M 110.99172775467656 82.1063720568725 l 13.308086360395865 -21.664469070080294 a46.4254672064098,46.4254672064098 0 0,0 0.6773273330577871,0.4241423138226574 l -13.679032845825915 21.43218241493469" fill="#f6ff19" stroke="none" /><path d="M 111.2981086023043 82.29822771554956 l 13.690813733865978 -21.450640601586507 a46.44736455733373,46.44736455733373 0 0,0 0.6702420488709834,0.43594407258119455 l -14.058022808521242 21.21179760484578" fill="#f6ff19" stroke="none" /><path d="M 111.60114157652 82.49532879139004 l 10.762772873603932 -16.239677725051692 a40.482412903496446,40.482412903496446 0 0,0 0.5775400411896938,0.3899576138944732 l -11.040717609200168 16.052008198858548" fill="#ffb410" stroke="none" /><path d="M 111.90073688211348 82.69761687909136 l 5.864662481920526 -8.526584373907037 a31.348763554753866,31.348763554753866 0 0,0 0.44197108100559773,0.309628986755499 l -6.010564702509774 8.424370544387601" fill="#ff2903" stroke="none" /><path d="M 112.19680574252982 82.90503203632743 l 11.673029318731766 -16.36084614735696 a41.09818151309855,41.09818151309855 0 0,0 0.5723502701356098,0.4158368121688747 l -11.952924905221163 16.157490100371408" fill="#ffbd11" stroke="none" /><path d="M 112.48926042617603 83.11751280151076 l 21.377827916597457 -28.89770040962838 a56.94563416322335,56.94563416322335 0 0,0 0.7830128995856558,0.5897490824081023 l -21.872086969941495 28.525434737714434" fill="#71ff27" stroke="none" /><path d="M 113.06298171725822 83.55741782278167 l 39.188945151774654 -49.32774653165496 a84.0,84.0 0 0,0 1.1243864057420354,0.9091756109434814 l -40.032234956081176 48.64586482344735" fill="#4dd2ff" stroke="none" /><line stroke="#e1ed5e" stroke-width="0.3" x1="172.23445277983987" x2="176.4835382374775" y1="55.19839476539836" y2="52.563006222186495" /><path d="M 173.08426987136738 54.67131705675599 a86.0,86.0 0 0,1 12.851231095245387,41.99856678651699" fill="none" id="id75" stroke="none" /><text fill="#e1ed5e" style="font-size:6.75px; font-family:Arial;" text-anchor="middle"><textPath startOffset="22.20632615414155" xlink:href="#id75">March</textPath></text><line stroke="#e1ed5e" stroke-width="0.3" x1="184.98032266829074" x2="189.97916517819016" y1="98.17113171792111" y2="98.06355123074" /><path d="M 185.9800911702706 98.14961562048488 a86.0,86.0 0 0,1 -9.607161424134198,41.387399972396054" fill="none" id="id76" stroke="none" /><text fill="#e1ed5e" style="font-size:6.75px; font-family:Arial;" text-anchor="middle"><textPath startOffset="21.466115282336823" xlink:href="#id76">April</textPath></text><line stroke="#e1ed5e" stroke-width="0.3" x1="174.80103733775053" x2="179.2010983576182" y1="140.37084112569926" y2="142.7455964860345" /><path d="M 175.68104954172406 140.8457921977663 a86.0,86.0 0 0,1 -30.038265399797805,32.042727171017184" fill="none" id="id77" stroke="none" /><text fill="#e1ed5e" style="font-size:6.75px; font-family:Arial;" text-anchor="middle"><textPath startOffset="22.206326154141568" xlink:href="#id77">May</textPath></text><line stroke="#e1ed5e" stroke-width="0.3" x1="143.8653032363475" x2="146.44561519142675" y1="172.8068346515853" y2="177.08958963109032" /><path d="M 144.38136562736335 173.6633856474863 a86.0,86.0 0 0,1 -40.68145358897372,12.25698825130547" fill="none" id="id78" stroke="none" /><text fill="#e1ed5e" style="font-size:6.75px; font-family:Arial;" text-anchor="middle"><textPath startOffset="21.466115282336833" xlink:href="#id78">June</textPath></text><line stroke="#e1ed5e" stroke-width="0.3" x1="102.19456741930631" x2="102.32365962044197" y1="184.97166512339345" y2="189.96999836594603" /><path d="M 102.22038585953345 185.97133177190398 a86.0,86.0 0 0,1 -42.740103519485714,-10.115201625700543" fill="none" id="id79" stroke="none" /><text fill="#e1ed5e" style="font-size:6.75px; font-family:Arial;" text-anchor="middle"><textPath startOffset="22.20632615414155" xlink:href="#id79">July</textPath></text><line stroke="#e1ed5e" stroke-width="0.3" x1="58.666819895761336" x2="56.23545636021788" y1="174.27360380694188" y2="178.64263932499728" /><path d="M 58.180547188652646 175.14741091055294 a86.0,86.0 0 0,1 -31.652253787137756,-30.449443065178592" fill="none" id="id80" stroke="none" /><text fill="#e1ed5e" style="font-size:6.75px; font-family:Arial;" text-anchor="middle"><textPath startOffset="22.20632615414155" xlink:href="#id80">August</textPath></text><line stroke="#e1ed5e" stroke-width="0.3" x1="26.63291911575756" x2="22.317208475507996" y1="142.92168965132927" y2="145.44649492493687" /><path d="M 25.769776987707644 143.4266507060508 a86.0,86.0 0 0,1 -11.730757126820373,-40.83630448921669" fill="none" id="id81" stroke="none" /><text fill="#e1ed5e" style="font-size:6.75px; font-family:Arial;" text-anchor="middle"><textPath startOffset="21.46611528233685" xlink:href="#id81">September</textPath></text><line stroke="#e1ed5e" stroke-width="0.3" x1="15.007084014347285" x2="10.007500721073583" y1="101.09737516637583" y2="101.16192664675087" /><path d="M 14.007167355692545 101.11028546245083 a86.0,86.0 0 0,1 10.666146001902534,-42.60595125391555" fill="none" id="id82" stroke="none" /><text fill="#e1ed5e" style="font-size:6.75px; font-family:Arial;" text-anchor="middle"><textPath startOffset="22.20632615414155" xlink:href="#id82">October</textPath></text><line stroke="#e1ed5e" stroke-width="0.3" x1="26.266209847984243" x2="21.928928074336255" y1="57.711370442889674" y2="55.22380399835377" /><path d="M 25.398753493254645 57.213857153982495 a86.0,86.0 0 0,1 29.58750427330803,-30.492523968695096" fill="none" id="id83" stroke="none" /><text fill="#e1ed5e" style="font-size:6.75px; font-family:Arial;" text-anchor="middle"><textPath startOffset="21.46611528233685" xlink:href="#id83">November</textPath></text><line stroke="#e1ed5e" stroke-width="0.3" x1="56.762969772571076" x2="54.21961505331055" y1="26.818313649435495" y2="22.513508569990535" /><path d="M 56.25429882871897 25.957352633546506 a86.0,86.0 0 0,1 42.265352541879196,-11.944610805530505" fill="none" id="id84" stroke="none" /><text fill="#e1ed5e" style="font-size:6.75px; font-family:Arial;" text-anchor="middle"><textPath startOffset="22.20632615414155" xlink:href="#id84">December</textPath></text></svg>