<?xml version="1.0" encoding="utf-8" ?>
<svg baseProfile="full" height="200mm" version="1.1" viewBox="0,0,200,200" width="200mm" xmlns="http://www.w3.org/2000/svg" xmlns:ev="http://www.w3.org/2001/xml-events" xmlns:xlink="http://www.w3.org/1999/xlink"><defs /><rect fill="#1a1a1a" height="200" width="200" x="0" y="0" /><text alignment-baseline="middle" fill="#e1ed5e" style="dominant-baseline: central; font-size:9.0px; font-family:Arial;" text-anchor="middle" x="100.0" y="100.0">2023</text><line stroke="#e1ed5e" stroke-width="0.3" x1="100.0" x2="100.0" y1="15.0" y2="10.0" /><path d="M 100.0 14.0 a86.0,86.0 0 0,1 42.46469731375804,11.215312516191453" fill="none" id="id73" stroke="none" /><text fill="#e1ed5e" style="font-size:6.75px; font-family:Arial;" text-anchor="middle"><textPath startOffset="22.20632615414155" xlink:href="#id73">January</textPath></text><path d="M 101.08401301168833 79.027996857942 l 0.7332910297315972 -14.18671327166282 a35.20565201554152,35.20565201554152 0 0,0 0.6049302544073137,0.036491044938716515 l -0.9773833329785229 14.171988957343798" fill="#ff3104" stroke="none" /><path d="M 101.80526077348638 79.07773832637324 l 1.2595601765471465 -14.597806585308716 a35.65204589606605,35.65204589606605 0 0,0 0.6109654993247405,0.0580185359722825 l -1.5106508029621313 14.573962504821255" fill="#ff3905" stroke="none" /><path d="M 102.16513564639614 79.11191278185805 l 1.4310524368597133 -13.806039434349254 a34.88000849927149,34.88000849927149 0 0,0 0.5966695445143856,0.06704277552430635 l -1.6684886848838243 13.779360705354346" fill="#ff2c04" stroke="none" /><path d="M 102.52436894288641 79.15227682838746 l 1.754922881325539 -14.4931851267233 a35.59904686741136,35.59904686741136 0 0,0 0.607701618148851,0.0788971111889434 l -2.004139227982236 14.46082969237022" fill="#ff3805" stroke="none" /><path d="M 102.88285421437855 79.19881850522331 l 2.0242410005864864 -14.6058736624129 a35.74547717338514,35.74547717338514 0 0,0 0.6087472117419971,0.08971351492074159 l -2.275357192757139 14.56886566333119" fill="#ff3b05" stroke="none" /><path d="M 103.2404852339499 79.25152402106235 l 2.837925821517565 -18.170931661981573 a39.391209324915,39.391209324915 0 0,0 0.6690330429079608,0.11039618457613107 l -3.1502880705644007 18.119389214465816" fill="#ff770a" stroke="none" /><path d="M 103.59715602781102 79.31037775812273 l 3.788909301981401 -21.79252208151596 a43.1194451189898,43.1194451189898 0 0,0 0.7301659552213562,0.1334331612133714 l -4.163470378305658 21.724073438951848" fill="#ffb210" stroke="none" /><path d="M 103.95276090670814 79.375362276772 l 5.166504369922365 -26.957684373038497 a48.44830621660999,48.44830621660999 0 0,0 0.817700339409013,0.16402299556004596 l -5.629771118798504 26.86475742140124" fill="#fcff18" stroke="none" /><path d="M 105.01212808612495 79.60689891045804 l 6.620408986999976 -26.93679558983178 a48.738434919864005,48.738434919864005 0 0,0 0.8129828824681783,0.20724743856011815 l -7.08310075815318 26.818845155102792" fill="#f8ff18" stroke="none" /><path d="M 105.71112130821622 79.79150937346287 l 7.471997545193204 -26.439254956170274 a48.47480573093735,48.47480573093735 0 0,0 0.8010110372662731,0.2338370869469125 l -7.925998800182905 26.30671954030466" fill="#fbff18" stroke="none" /><path d="M 106.0581310904928 79.89281104454417 l 3.2741144889609077 -10.866922109798315 a32.34944147644487,32.34944147644487 0 0,0 0.5317857324908262,0.1652284156852034 l -3.4606855941624524 10.808953559230591" fill="#ff0000" stroke="none" /><path d="M 106.40334571778207 80.00007090966166 l 10.273014864454462 -32.08628393474375 a54.690717581350164,54.690717581350164 0 0,0 0.8941077528364828,0.29477326860109226 l -10.823805439533361 31.90469694188342" fill="#a5ff21" stroke="none" /><path d="M 107.08798089147638 80.2323363322302 l 9.327133461746905 -26.012434299580896 a48.63407600777076,48.63407600777076 0 0,0 0.7855970548359875,0.28934202522236685 l -9.77351284235547 25.848029006552206" fill="#f9ff18" stroke="none" /><path d="M 107.76421540070413 80.48803036053334 l 10.30881000086726 -25.90669853617281 a48.8824065080136,48.8824065080136 0 0,0 0.779129997693797,0.31782668884848636 l -10.753223868149444 25.725410961140746" fill="#f6ff19" stroke="none" /><path d="M 108.76106565485865 80.91482961587045 l 11.624725397219198 -25.32338800036375 a48.864102719766876,48.864102719766876 0 0,0 0.7613999569143951,0.3574874890300983 l -12.05890356543319 25.11953552869365" fill="#f6ff19" stroke="none" /><path d="M 109.08828744355905 81.06846463323043 l 17.746019397625624 -36.966193678614935 a62.005129917435646,62.005129917435646 0 0,0 0.9582117262361409,0.47019033259623705 l -18.379702390872197 36.65524818588387" fill="#48ff2c" stroke="none" /><path d="M 109.73455568895987 81.39251694778311 l 13.690801908868526 -26.16979887222258 a50.53466488586692,50.53466488586692 0 0,0 0.7672965819471659,0.40986326091275915 l -14.139243537344003 25.930256884808067" fill="#deff1b" stroke="none" /><path d="M 110.05341064243156 81.56283822128135 l 16.978601387642204 -31.137415121503874 a56.465638659543465,56.465638659543465 0 0,0 0.8493397641767907,0.47265665920373257 l -17.51206524089103 30.84054306473996" fill="#8dff24" stroke="none" /><path d="M 110.36928655335952 81.73862282372117 l 18.10479374704166 -31.884398758981735 a57.66603933948518,57.66603933948518 0 0,0 0.8589583586273278,0.4975641232426938 l -18.65094883813432 31.56803047834899" fill="#7eff26" stroke="none" /><line stroke="#e1ed5e" stroke-width="0.3" x1="143.23703022742887" x2="145.7803849466894" y1="26.81831364943548" y2="22.513508569990506" /><path d="M 143.74570117128098 25.957352633546492 a86.0,86.0 0 0,1 28.547481713284135,27.462654790039103" fill="none" id="id74" stroke="none" /><text fill="#e1ed5e" style="font-size:6.75px; font-family:Arial;" text-anchor="middle"><textPath startOffset="19.985693538727396" xlink:href="#id74">February</textPath></text><path d="M 110.99172775467656 82.1063720568725 l 19.2596416162152 -31.353111093195057 a57.79607819329771,57.79607819329771 0 0,0 0.8432195917343573,0.5280240309869406 l -19.79648036032182 31.016942720885172" fill="#7cff26" stroke="none" /><path d="M 111.2981086023043 82.29822771554956 l 19.813529819983245 -31.043655656928106 a57.82776833414278,57.82776833414278 0 0,0 0.8344628871691862,0.5427578739101486 l -20.34495973293671 30.69799885885843" fill="#7cff26" stroke="none" /><path d="M 111.60114157652 82.49532879139004 l 15.5760296956901 -23.50228007823244 a49.19521005342399,49.19521005342399 0 0,0 0.7018406661757107,0.47388595075106565 l -15.978275056272352 23.230682215182703" fill="#f1ff19" stroke="none" /><path d="M 111.90073688211348 82.69761687909136 l 8.487418441917342 -12.339787615188373 a35.976869839728025,35.976869839728025 0 0,0 0.5072205168950283,0.35534038641279103 l -8.69857009839602 12.191862386011646" fill="#ff3e05" stroke="none" /><path d="M 112.19680574252982 82.90503203632743 l 16.893365068879746 -23.67763664908747 a50.08635866925691,50.08635866925691 0 0,0 0.6975233418861049,0.5067803721566753 l -17.29843372711964 23.38333704211412" fill="#e4ff1a" stroke="none" /><path d="M 112.48926042617603 83.11751280151076 l 30.938280159653253 -41.821140797409306 a73.0210053423992,73.0210053423992 0 0,0 1.0040521975736876,0.7562312990274629 l -31.653578510985323 41.28239290887599" fill="#3dffaa" stroke="none" /><path d="M 113.06298171725822 83.55741782278167 l 39.188945151774654 -49.32774653165496 a84.0,84.0 0 0,0 1.1243864057420354,0.9091756109434814 l -40.032234956081176 48.64586482344735" fill="#4dd2ff" stroke="none" /><line stroke="#e1ed5e" stroke-width="0.3" x1="172.23445277983987" x2="176.4835382374775" y1="55.19839476539836" y2="52.563006222186495" /><path d="M 173.08426987136738 54.67131705675599 a86.0,86.0 0 0,1 12.851231095245387,41.99856678651699" fill="none" id="id75" stroke="none" /><text fill="#e1ed5e" style="font-size:6.75px; font-family:Arial;" text-anchor="middle"><textPath startOffset="22.20632615414155" xlink:href="#id75">March</textPath></text><line stroke="#e1ed5e" stroke-width="0.3" x1="184.98032266829074" x2="189.97916517819016" y1="98.17113171792111" y2="98.06355123074" /><path d="M 185.9800911702706 98.14961562048488 a86.0,86.0 0 0,1 -9.607161424134198,41.387399972396054" fill="none" id="id76" stroke="none" /><text fill="#e1ed5e" style="font-size:6.75px; font-family:Arial;" text-anchor="middle"><textPath startOffset="21.466115282336823" xlink:href="#id76">April</textPath></text><line stroke="#e1ed5e" stroke-width="0.3" x1="174.80103733775053" x2="179.2010983576182" y1="140.37084112569926" y2="142.7455964860345" /><path d="M 175.68104954172406 140.8457921977663 a86.0,86.0 0 0,1 -30.038265399797805,32.042727171017184" fill="none" id="id77" stroke="none" /><text fill="#e1ed5e" style="font-size:6.75px; font-family:Arial;" text-anchor="middle"><textPath startOffset="22.206326154141568" xlink:href="#id77">May</textPath></text><line stroke="#e1ed5e" stroke-width="0.3" x1="143.8653032363475" x2="146.44561519142675" y1="172.8068346515853" y2="177.08958963109032" /><path d="M 144.38136562736335 173.6633856474863 a86.0,86.0 0 0,1 -40.68145358897372,12.25698825130547" fill="none" id="id78" stroke="none" /><text fill="#e1ed5e" style="font-size:6.75px; font-family:Arial;" text-anchor="middle"><textPath startOffset="21.466115282336833" xlink:href="#id78">June</textPath></text><line stroke="#e1ed5e" stroke-width="0.3" x1="102.19456741930631" x2="102.32365962044197" y1="184.97166512339345" y2="189.96999836594603" /><path d="M 102.22038585953345 185.97133177190398 a86.0,86.0 0 0,1 -42.740103519485714,-10.115201625700543" fill="none" id="id79" stroke="none" /><text fill="#e1ed5e" style="font-size:6.75px; font-family:Arial;" text-anchor="middle"><textPath startOffset="22.20632615414155" xlink:href="#id79">July</textPath></text><line stroke="#e1ed5e" stroke-width="0.3" x1="58.666819895761336" x2="56.23545636021788" y1="174.27360380694188" y2="178.64263932499728" /><path d="M 58.180547188652646 175.14741091055294 a86.0,86.0 0 0,1 -31.652253787137756,-30.449443065178592" fill="none" id="id80" stroke="none" /><text fill="#e1ed5e" style="font-size:6.75px; font-family:Arial;" text-anchor="middle"><textPath startOffset="22.20632615414155" xlink:href="#id80">August</textPath></text><line stroke="#e1ed5e" stroke-width="0.3" x1="26.63291911575756" x2="22.317208475507996" y1="142.92168965132927" y2="145.44649492493687" /><path d="M 25.769776987707644 143.4266507060508 a86.0,86.0 0 0,1 -11.730757126820373,-40.83630448921669" fill="none" id="id81" stroke="none" /><text fill="#e1ed5e" style="font-size:6.75px; font-family:Arial;" text-anchor="middle"><textPath startOffset="21.46611528233685" xlink:href="#id81">September</textPath></text><line stroke="#e1ed5e" stroke-width="0.3" x1="15.007084014347285" x2="10.007500721073583" y1="101.09737516637583" y2="101.16192664675087" /><path d="M 14.007167355692545 101.11028546245083 a86.0,86.0 0 0,1 10.666146001902534,-42.60595125391555" fill="none" id="id82" stroke="none" /><text fill="#e1ed5e" style="font-size:6.75px; font-family:Arial;" text-anchor="middle"><textPath startOffset="22.20632615414155" xlink:href="#id82">October</textPath></text><line stroke="#e1ed5e" stroke-width="0.3" x1="26.266209847984243" x2="21.928928074336255" y1="57.711370442889674" y2="55.22380399835377" /><path d="M 25.398753493254645 57.213857153982495 a86.0,86.0 0 0,1 29.58750427330803,-30.492523968695096" fill="none" id="id83" stroke="none" /><text fill="#e1ed5e" style="font-size:6.75px; font-family:Arial;" text-anchor="middle"><textPath startOffset="21.46611528233685" xlink:href="#id83">November</textPath></text><line stroke="#e1ed5e" stroke-width="0.3" x1="56.762969772571076" x2="54.21961505331055" y1="26.818313649435495" y2="22.513508569990535" /><path d="M 56.25429882871897 25.957352633546506 a86.0,86.0 0 0,1 42.265352541879196,-11.944610805530505" fill="none" id="id84" stroke="none" /><text fill="#e1ed5e" style="font-size:6.75px; font-family:Arial;" text-anchor="middle"><textPath startOffset="22.20632615414155" xlink:href="#id84">December</textPath></text></svg>