<?xml version="1.0" encoding="utf-8" ?>
<svg baseProfile="full" height="200mm" version="1.1" viewBox="0,0,200,200" width="200mm" xmlns="http://www.w3.org/2000/svg" xmlns:ev="http://www.w3.org/2001/xml-events" xmlns:xlink="http://www.w3.org/1999/xlink"><defs /><rect fill="#1a1a1a" height="200" width="200" x="0" y="0" /><text alignment-baseline="middle" fill="#e1ed5e" style="dominant-baseline: central; font-size:9.0px; font-family:Arial;" text-anchor="middle" x="100.0" y="100.0">2023</text><line stroke="#e1ed5e" stroke-width="0.3" x1="100.0" x2="100.0" y1="15.0" y2="10.0" /><path d="M 100.0 14.0 a86.0,86.0 0 0,1 42.46469731375804,11.215312516191453" fill="none" id="id73" stroke="none" /><text fill="#e1ed5e" style="font-size:6.75px; font-family:Arial;" text-anchor="middle"><textPath startOffset="22.20632615414155" xlink:href="#id73">January</textPath></text><path d="M 101.08401301168833 79.027996857942 l 0.39994886080150294 -7.737664285346457 a28.747993784456884,28.747993784456884 0 0,0 0.49396986557880923,0.029797611264903122 l -0.533080775219924 7.72963340470125" fill="#ff1902" stroke="none" /><path d="M 101.80526077348638 79.07773832637324 l 0.6869846176972322 -7.961881268521569 a28.991464271270143,28.991464271270143 0 0,0 0.49682378667100324,0.04717940500849156 l -0.8239335314584797 7.9488763189978995" fill="#ff1c02" stroke="none" /><path d="M 102.16513564639614 79.11191278185805 l 0.780519287244998 -7.530038579593278 a28.570382511334852,28.570382511334852 0 0,0 0.48873489007309107,0.05491505947858345 l -0.9100208808278143 7.515487566644093" fill="#ff1602" stroke="none" /><path d="M 102.52436894288641 79.15227682838746 l 0.957163498150994 -7.90481902245544 a28.962557738564037,28.962557738564037 0 0,0 0.4944119225722053,0.06418885726706092 l -1.0930901492310454 7.887171842024243" fill="#ff1c02" stroke="none" /><path d="M 102.88285421437855 79.19881850522331 l 1.104053983134896 -7.9662811836534875 a29.042423210370593,29.042423210370593 0 0,0 0.4945938773117765,0.07289028078657286 l -1.2410168408753284 7.946096418705946" fill="#ff1d03" stroke="none" /><path d="M 103.2404852339499 79.25152402106235 l 1.5478509259421411 -9.910721832464734 a31.03086485450946,31.03086485450946 0 0,0 0.5270382477073889,0.08696582670968295 l -1.7182183797884052 9.882609742815427" fill="#ff3c05" stroke="none" /><path d="M 103.59715602781102 79.31037775812273 l 2.0665327919834793 -11.885996183103636 a33.06430532791247,33.06430532791247 0 0,0 0.5598965853309059,0.10231752220031444 l -2.270824498417286 11.848663179552583" fill="#ff5b08" stroke="none" /><path d="M 103.95276090670814 79.375362276772 l 2.817895560283572 -14.703159751987682 a35.970752889588965,35.970752889588965 0 0,0 0.607106814325133,0.12177991558924298 l -3.0705687840758302 14.652475880321232" fill="#ff860c" stroke="none" /><path d="M 105.01212808612495 79.60689891045804 l 3.6108787985035655 -14.691766669693857 a36.128993805742994,36.128993805742994 0 0,0 0.6026507329002647,0.1536290903945896 l -3.8632384200888557 14.6274345831304" fill="#ff880c" stroke="none" /><path d="M 105.71112130821622 79.79150937346287 l 4.075349056438727 -14.420399911384791 a35.985206155942016,35.985206155942016 0 0,0 0.5946294549214776,0.17358864370485164 l -4.322968729083631 14.348112938761236" fill="#ff860c" stroke="none" /><path d="M 106.0581310904928 79.89281104454417 l 1.7857553234667434 -5.926996161160353 a27.1901700759914,27.1901700759914 0 0,0 0.44697354422455016,0.13887685594629348 l -1.8875142404020118 5.895379170331539" fill="#ff0000" stroke="none" /><path d="M 106.40334571778207 80.00007090966166 l 5.6030694846210585 -17.500381413027064 a39.37546563358096,39.37546563358096 0 0,0 0.6437273206767474,0.21222677669635537 l -5.903479627540223 17.401340912071472" fill="#ffb711" stroke="none" /><path d="M 107.08798089147638 80.2323363322302 l 5.087170374816479 -14.187604979429938 a36.07207475680623,36.07207475680623 0 0,0 0.5826802525505507,0.21460605445530165 l -5.330632953139606 14.097935657168312" fill="#ff880c" stroke="none" /><path d="M 107.76421540070413 80.48803036053334 l 5.622592734531499 -14.12993497337993 a36.20751825283638,36.20751825283638 0 0,0 0.5771066857808201,0.2354163074159122 l -5.864983289900707 14.031057779780438" fill="#ff8a0c" stroke="none" /><path d="M 108.76106565485865 80.91482961587045 l 6.340314406204958 -13.811787914666088 a36.19753506886055,36.19753506886055 0 0,0 0.5640296272275276,0.2648194727949283 l -6.577122244732084 13.700603459231157" fill="#ff890c" stroke="none" /><path d="M 109.08828744355905 81.06846463323043 l 9.678967768690148 -20.161963600374715 a43.36486515251495,43.36486515251495 0 0,0 0.6701497497242455,0.3288395717612785 l -10.024588785424825 19.992368868478604" fill="#ffee16" stroke="none" /><path d="M 109.73455568895987 81.39251694778311 l 7.467186157882255 -14.273434178215577 a37.10868686008642,37.10868686008642 0 0,0 0.5634423153413489,0.30097137161226395 l -7.711773519751914 14.14278408010156" fill="#ff970d" stroke="none" /><path d="M 110.05341064243156 81.56283822128135 l 9.260405497495082 -16.982852920902637 a40.34353647374358,40.34353647374358 0 0,0 0.6068357777952063,0.33770345333587604 l -9.551365364362324 16.82093407000658" fill="#ffc412" stroke="none" /><path d="M 110.36928655335952 81.73862282372117 l 9.874649137363464 -17.390269952795126 a40.99825453926222,40.99825453926222 0 0,0 0.6106851420523528,0.3537482512751831 l -10.172531011881146 17.217717544129894" fill="#ffce13" stroke="none" /><line stroke="#e1ed5e" stroke-width="0.3" x1="143.23703022742887" x2="145.7803849466894" y1="26.81831364943548" y2="22.513508569990506" /><path d="M 143.74570117128098 25.957352633546492 a86.0,86.0 0 0,1 28.547481713284135,27.462654790039103" fill="none" id="id74" stroke="none" /><text fill="#e1ed5e" style="font-size:6.75px; font-family:Arial;" text-anchor="middle"><textPath startOffset="19.985693538727396" xlink:href="#id74">February</textPath></text><path d="M 110.99172775467656 82.1063720568725 l 10.504521958587066 -17.100497013983855 a41.06917984631431,41.06917984631431 0 0,0 0.5991814348899878,0.37520735955909984 l -10.797322545849317 16.917145313101813" fill="#ffcf13" stroke="none" /><path d="M 111.2981086023043 82.29822771554956 l 10.806621598602444 -16.931714983131656 a41.08646416483961,41.08646416483961 0 0,0 0.5928834969466161,0.38562791854147077 l -11.09647212133334 16.743188140430657" fill="#ffcf13" stroke="none" /><path d="M 111.60114157652 82.49532879139004 l 8.495420072003101 -12.818526018199687 a36.37812639690075,36.37812639690075 0 0,0 0.518986471180806,0.35042198204696773 l -8.71481123759045 12.67039212385405" fill="#ff8c0c" stroke="none" /><path d="M 111.90073688211348 82.69761687909136 l 4.489427742972581 -6.527141938521107 a28.92202899167713,28.92202899167713 0 0,0 0.4077577221187837,0.28566034242355837 l -4.601116604675016 6.448896753333614" fill="#ff1b02" stroke="none" /><path d="M 112.19680574252982 82.90503203632743 l 9.213916222151791 -12.914168345603034 a36.86417335405181,36.86417335405181 0 0,0 0.513385721720872,0.37299656010093685 l -9.434847260226453 12.753652550685423" fill="#ff930d" stroke="none" /><path d="M 112.48926042617603 83.11751280151076 l 16.874241472093487 -22.809930765777068 a49.373102875753,49.373102875753 0 0,0 0.6788892074407963,0.5113252761951151 l -17.26437683329267 22.516088900076106" fill="#c2ff1e" stroke="none" /><path d="M 113.06298171725822 83.55741782278167 l 21.374288425704275 -26.904155691720153 a55.3612252282935,55.3612252282935 0 0,0 0.7410405839513836,0.5992032829703978 l -21.83423240822015 26.532246311485622" fill="#7aff26" stroke="none" /><path d="M 113.6212207817346 84.01681056812373 l 23.28994189986194 -27.32850154973271 a56.906383703356816,56.906383703356816 0 0,0 0.740070775522546,0.6417820837546298 l -23.75690647403125 26.92355447255841" fill="#68ff28" stroke="none" /><path d="M 114.42810811169701 84.74124197986012 l 12.815942062022298 -13.553776920065639 a39.653504757444814,39.653504757444814 0 0,0 0.49192392565757453,0.4732304267317712 l -13.04734923129229 13.331163406571566" fill="#ffbb11" stroke="none" /><path d="M 114.68862486808459 84.99185889309783 l 12.588880122437242 -12.86272138829913 a38.99804167819664,38.99804167819664 0 0,0 0.47570962578745946,0.47366677747430685 l -12.808425548392025 12.644118760174704" fill="#ffb210" stroke="none" /><path d="M 114.94478906791727 85.2469230424477 l 12.29328910237755 -12.135590496767726 a38.27418633857681,38.27418633857681 0 0,0 0.4588085942431447,0.4728425867815952 l -12.500361960323803 11.922183714436017" fill="#ffa70f" stroke="none" /><path d="M 115.4437574822437 85.77008943001954 l 11.553149555247506 -10.64509625729355 a36.70965750654548,36.70965750654548 0 0,0 0.4241824687985974,0.46839287662706375 l -11.73467566466214 10.444650593396938" fill="#ff910d" stroke="none" /><path d="M 115.68641384162765 86.03803664274999 l 23.895967649062587 -21.269018404758913 a52.99044253815535,52.99044253815535 0 0,0 0.6005788798424512,0.6865654802168406 l -24.258538392482887 20.854537368339127" fill="#96ff23" stroke="none" /><path d="M 116.15771136456269 86.58626213691792 l 14.939609068866899 -12.402499048610025 a40.4168458247302,40.4168458247302 0 0,0 0.43977667697457856,0.539114206191222 l -15.150884237917888 12.143500672810703" fill="#ffc512" stroke="none" /><path d="M 116.38621287248628 86.86637796730983 l 14.803480759321138 -11.865055249439417 a39.97162561995785,39.97162561995785 0 0,0 0.4256900458061588,0.5405831286728394 l -15.005524885721261 11.608479726813538" fill="#ffbf11" stroke="none" /><path d="M 116.60985879189232 87.15038557335679 l 9.482222685867251 -7.3355774391313835 a32.98846293024543,32.98846293024543 0 0,0 0.34358907323188653,0.45212294531470504 l -9.607087699323252 7.171269717935645" fill="#ff5a08" stroke="none" /><path d="M 117.04232023915458 87.72973835380427 l 28.00760715179481 -20.165133797147405 a55.51171800166031,55.51171800166031 0 0,0 0.5516473809501011,0.780266098816413 l -28.350567152548795 19.6800411979992" fill="#78ff26" stroke="none" /><path d="M 117.2510076193507 88.02491185347247 l 15.67764894179169 -10.882913749204862 a40.08471870410183,40.08471870410183 0 0,0 0.38858419184314513,0.5701993527590005 l -15.862657599303567 10.611436373175454" fill="#ffc111" stroke="none" /><path d="M 117.65298651832404 88.62581576622439 l 17.56480738503115 -11.31736859486902 a41.895102066880945,41.895102066880945 0 0,0 0.3853798843704963,0.6095784278947093 l -17.7570148656476 11.013342519260105" fill="#ffda14" stroke="none" /><line stroke="#e1ed5e" stroke-width="0.3" x1="172.23445277983987" x2="176.4835382374775" y1="55.19839476539836" y2="52.563006222186495" /><path d="M 173.08426987136738 54.67131705675599 a86.0,86.0 0 0,1 12.851231095245387,41.99856678651699" fill="none" id="id75" stroke="none" /><text fill="#e1ed5e" style="font-size:6.75px; font-family:Arial;" text-anchor="middle"><textPath startOffset="22.20632615414155" xlink:href="#id75">March</textPath></text><path d="M 117.84615892207809 88.93136811851018 l 17.851223925284362 -11.071773322525596 a42.00596010983631,42.00596010983631 0 0,0 0.37582172773606265,0.6177521047283455 l -18.039161451306647 10.762853444590169" fill="#ffdb14" stroke="none" /><path d="M 118.03404312379186 89.2402003453031 l 17.655414845885417 -10.533895547342206 a41.55910087485898,41.55910087485898 0 0,0 0.36124818106748874,0.6174902417627258 l -17.834122701423233 10.228425893225586" fill="#ffd513" stroke="none" /><path d="M 118.21658344932153 89.55222093294921 l 15.36073004451826 -8.809858020863581 a38.707784329168355,38.707784329168355 0 0,0 0.3265137245910801,0.5808314826670724 l -15.510101410401774 8.544143028261717" fill="#ffad10" stroke="none" /><path d="M 118.56541770881063 90.18545643968196 l 30.01894615730654 -15.869411575690402 a54.9554907511867,54.9554907511867 0 0,0 0.43490876947160484,0.8401053139381078 l -30.287664359938262 15.350333539491949" fill="#7fff26" stroke="none" /><path d="M 118.89224826269711 90.83032412892265 l 17.215582509418585 -8.355877466148648 a40.13627365418591,40.13627365418591 0 0,0 0.2963238266574533,0.6241335509381511 l -17.356864529917797 8.058301499569955" fill="#ffc212" stroke="none" /><path d="M 119.04729006885535 91.15688171328212 l 17.888670133988736 -8.305203806687569 a40.7225994593329,40.7225994593329 0 0,0 0.28970771459304734,0.6383325468929764 l -18.028980165545132 7.99604925095253" fill="#ffca12" stroke="none" /><path d="M 119.34039704204932 91.81776055985345 l 18.975784236748197 -8.027984629894664 a41.604099704123115,41.604099704123115 0 0,0 0.27335540456158863,0.6619517945020829 l -19.11116132819598 7.700158264939279" fill="#ffd614" stroke="none" /><path d="M 119.47837535516314 92.15188598940014 l 29.27692262046859 -11.796087836660488 a52.56399667936738,52.56399667936738 0 0,0 0.33091901928615464,0.8421528090203733 l -29.475635189636446 11.29038602274433" fill="#9bff22" stroke="none" /><path d="M 119.97218684219823 93.5106431181261 l 16.458628297845333 -5.3477325069462225 a38.30562591796334,38.30562591796334 0 0,0 0.19835841711452318,0.6288503885785575 l -16.54824219872806 5.063631951941246" fill="#ffa80f" stroke="none" /><path d="M 120.37134235888165 94.90015583598534 l 61.11402707664495 -15.299532492043943 a84.0,84.0 0 0,0 0.33906879895672226,1.4056590733623755 l -61.36832867586249 14.245288187022162" fill="#4dd2ff" stroke="none" /><line stroke="#e1ed5e" stroke-width="0.3" x1="184.98032266829074" x2="189.97916517819016" y1="98.17113171792111" y2="98.06355123074" /><path d="M 185.9800911702706 98.14961562048488 a86.0,86.0 0 0,1 -9.607161424134198,41.387399972396054" fill="none" id="id76" stroke="none" /><text fill="#e1ed5e" style="font-size:6.75px; font-family:Arial;" text-anchor="middle"><textPath startOffset="21.466115282336823" xlink:href="#id76">April</textPath></text><line stroke="#e1ed5e" stroke-width="0.3" x1="174.80103733775053" x2="179.2010983576182" y1="140.37084112569926" y2="142.7455964860345" /><path d="M 175.68104954172406 140.8457921977663 a86.0,86.0 0 0,1 -30.038265399797805,32.042727171017184" fill="none" id="id77" stroke="none" /><text fill="#e1ed5e" style="font-size:6.75px; font-family:Arial;" text-anchor="middle"><textPath startOffset="22.206326154141568" xlink:href="#id77">May</textPath></text><line stroke="#e1ed5e" stroke-width="0.3" x1="143.8653032363475" x2="146.44561519142675" y1="172.8068346515853" y2="177.08958963109032" /><path d="M 144.38136562736335 173.6633856474863 a86.0,86.0 0 0,1 -40.68145358897372,12.25698825130547" fill="none" id="id78" stroke="none" /><text fill="#e1ed5e" style="font-size:6.75px; font-family:Arial;" text-anchor="middle"><textPath startOffset="21.466115282336833" xlink:href="#id78">June</textPath></text><line stroke="#e1ed5e" stroke-width="0.3" x1="102.19456741930631" x2="102.32365962044197" y1="184.97166512339345" y2="189.96999836594603" /><path d="M 102.22038585953345 185.97133177190398 a86.0,86.0 0 0,1 -42.740103519485714,-10.115201625700543" fill="none" id="id79" stroke="none" /><text fill="#e1ed5e" style="font-size:6.75px; font-family:Arial;" text-anchor="middle"><textPath startOffset="22.20632615414155" xlink:href="#id79">July</textPath></text><line stroke="#e1ed5e" stroke-width="0.3" x1="58.666819895761336" x2="56.23545636021788" y1="174.27360380694188" y2="178.64263932499728" /><path d="M 58.180547188652646 175.14741091055294 a86.0,86.0 0 0,1 -31.652253787137756,-30.449443065178592" fill="none" id="id80" stroke="none" /><text fill="#e1ed5e" style="font-size:6.75px; font-family:Arial;" text-anchor="middle"><textPath startOffset="22.20632615414155" xlink:href="#id80">August</textPath></text><line stroke="#e1ed5e" stroke-width="0.3" x1="26.63291911575756" x2="22.317208475507996" y1="142.92168965132927" y2="145.44649492493687" /><path d="M 25.769776987707644 143.4266507060508 a86.0,86.0 0 0,1 -11.730757126820373,-40.83630448921669" fill="none" id="id81" stroke="none" /><text fill="#e1ed5e" style="font-size:6.75px; font-family:Arial;" text-anchor="middle"><textPath startOffset="21.46611528233685" xlink:href="#id81">September</textPath></text><line stroke="#e1ed5e" stroke-width="0.3" x1="15.007084014347285" x2="10.007500721073583" y1="101.09737516637583" y2="101.16192664675087" /><path d="M 14.007167355692545 101.11028546245083 a86.0,86.0 0 0,1 10.666146001902534,-42.60595125391555" fill="none" id="id82" stroke="none" /><text fill="#e1ed5e" style="font-size:6.75px; font-family:Arial;" text-anchor="middle"><textPath startOffset="22.20632615414155" xlink:href="#id82">October</textPath></text><line stroke="#e1ed5e" stroke-width="0.3" x1="26.266209847984243" x2="21.928928074336255" y1="57.711370442889674" y2="55.22380399835377" /><path d="M 25.398753493254645 57.213857153982495 a86.0,86.0 0 0,1 29.58750427330803,-30.492523968695096" fill="none" id="id83" stroke="none" /><text fill="#e1ed5e" style="font-size:6.75px; font-family:Arial;" text-anchor="middle"><textPath startOffset="21.46611528233685" xlink:href="#id83">November</textPath></text><line stroke="#e1ed5e" stroke-width="0.3" x1="56.762969772571076" x2="54.21961505331055" y1="26.818313649435495" y2="22.513508569990535" /><path d="M 56.25429882871897 25.957352633546506 a86.0,86.0 0 0,1 42.265352541879196,-11.944610805530505" fill="none" id="id84" stroke="none" /><text fill="#e1ed5e" style="font-size:6.75px; font-family:Arial;" text-anchor="middle"><textPath startOffset="22.20632615414155" xlink:href="#id84">December</textPath></text></svg>