<?xml version="1.0" encoding="utf-8" ?>
<svg baseProfile="full" height="200mm" version="1.1" viewBox="0,0,200,200" width="200mm" xmlns="http://www.w3.org/2000/svg" xmlns:ev="http://www.w3.org/2001/xml-events" xmlns:xlink="http://www.w3.org/1999/xlink"><defs /><rect fill="#1a1a1a" height="200" width="200" x="0" y="0" /><text alignment-baseline="middle" fill="#e1ed5e" style="dominant-baseline: central; font-size:9.0px; font-family:Arial;" text-anchor="middle" x="100.0" y="100.0">2023</text><line stroke="#e1ed5e" stroke-width="0.3" x1="100.0" x2="100.0" y1="15.0" y2="10.0" /><path d="M 100.0 14.0 a86.0,86.0 0 0,1 42.46469731375804,11.215312516191453" fill="none" id="id73" stroke="none" /><text fill="#e1ed5e" style="font-size:6.75px; font-family:Arial;" text-anchor="middle"><textPath startOffset="22.20632615414155" xlink:href="#id73">January</textPath></text><path d="M 101.08401301168833 79.027996857942 l 0.6299744355445194 -12.187884923151163 a33.204155304215654,33.204155304215654 0 0,0 0.5705390176183099,0.034416471617209975 l -0.8396755020024412 12.17523518215365" fill="#ff2904" stroke="none" /><path d="M 101.80526077348638 79.07773832637324 l 1.0820952106083732 -12.541057494094778 a33.587654790111316,33.587654790111316 0 0,0 0.5755882380441933,0.05465903873639145 l -1.2978085757428108 12.520572910843208" fill="#ff3004" stroke="none" /><path d="M 102.16513564639614 79.11191278185805 l 1.2294251730793537 -11.860845894900727 a32.924393133354194,32.924393133354194 0 0,0 0.5632161085826949,0.06328389220890188 l -1.4334079851717738 11.837926049221226" fill="#ff2503" stroke="none" /><path d="M 102.52436894288641 79.15227682838746 l 1.5076640880113847 -12.45117661236312 a33.542123027403996,33.542123027403996 0 0,0 0.5725884323762928,0.07433841192048597 l -1.7217672488955236 12.423379877278498" fill="#ff2f04" stroke="none" /><path d="M 102.88285421437855 79.19881850522331 l 1.7390367944597744 -12.547987965270812 a33.667922124368545,33.667922124368545 0 0,0 0.5733663483898352,0.08449929537110334 l -1.9547721232782655 12.51619418573874" fill="#ff3104" stroke="none" /><path d="M 103.2404852339499 79.25152402106235 l 2.4380779868289557 -15.610749283630057 a36.799991059054946,36.799991059054946 0 0,0 0.6250229535769249,0.10313414274351347 l -2.7064301465447556 15.566468877946917" fill="#ff6409" stroke="none" /><path d="M 103.59715602781102 79.31037775812273 l 3.2550732274998397 -18.722077920985264 a40.002939335687785,40.002939335687785 0 0,0 0.677392399904536,0.12378913129929896 l -3.5768607485072765 18.663273308335224" fill="#ff960d" stroke="none" /><path d="M 103.95276090670814 79.375362276772 l 4.438572875180895 -23.159497809087217 a44.58099378604318,44.58099378604318 0 0,0 0.7524286522433837,0.15093010915877278 l -4.836567936891403 23.079663743851235" fill="#ffdb14" stroke="none" /><path d="M 105.01212808612495 79.60689891045804 l 5.687630484428193 -23.141552138301254 a44.83024498189459,44.83024498189459 0 0,0 0.7477922064395445,0.19062888370946826 l -6.085131579552763 23.040220258422917" fill="#ffde14" stroke="none" /><path d="M 105.71112130821622 79.79150937346287 l 6.419234990023077 -22.7141121899821 a44.603759667396844,44.603759667396844 0 0,0 0.7370448062333315,0.21516359003884925 l -6.809270013979836 22.600250271024546" fill="#ffdb14" stroke="none" /><path d="M 106.0581310904928 79.89281104454417 l 2.812810116941218 -9.335833720388225 a30.750368813983638,30.750368813983638 0 0,0 0.5054989099584436,0.1570609719666967 l -2.9730943996103796 9.286032613539007" fill="#ff0000" stroke="none" /><path d="M 106.40334571778207 80.00007090966166 l 8.825604675600587 -27.565506450978983 a49.9438843935804,49.9438843935804 0 0,0 0.8165044493454758,0.2691886795493629 l -9.29879194718848 27.409504047170383" fill="#d8ff1c" stroke="none" /><path d="M 107.08798089147638 80.2323363322302 l 8.012992658539833 -22.34742817052525 a44.740589655326566,44.740589655326566 0 0,0 0.7227047031639716,0.266178241331174 l -8.396479687476381 22.20618666138775" fill="#ffdd14" stroke="none" /><path d="M 107.76421540070413 80.48803036053334 l 8.856356478012716 -22.256589983272015 a44.953931780589215,44.953931780589215 0 0,0 0.7165145758279253,0.2922842860897849 l -9.238154923429029 22.10084481099865" fill="#ffe015" stroke="none" /><path d="M 108.76106565485865 80.91482961587045 l 9.986866773965177 -21.75546463106637 a44.93820689346864,44.93820689346864 0 0,0 0.7002266876509307,0.32876581886691403 l -10.359871672915707 21.580333829559454" fill="#ffe015" stroke="none" /><path d="M 109.08828744355905 81.06846463323043 l 15.245704774642178 -31.757864275850636 a56.22773704680585,56.22773704680585 0 0,0 0.8689293458414528,0.4263798562856844 l -15.790105387494062 31.49072925943012" fill="#86ff25" stroke="none" /><path d="M 109.73455568895987 81.39251694778311 l 11.761844690570113 -22.482620957297698 a46.37339621798024,46.37339621798024 0 0,0 0.7041136711146802,0.3761131381088159 l -12.147103408213104 22.27682909268713" fill="#fff417" stroke="none" /><path d="M 110.05341064243156 81.56283822128135 l 29.208553397393967 -53.566182011624825 a82.0120926281908,82.0120926281908 0 0,0 1.2336021174304002,0.6864982427573437 l -30.126279603896403 53.055468371307306" fill="#4ae7ff" stroke="none" /><path d="M 110.36928655335952 81.73862282372117 l 31.107859660078564 -54.7841315288365 a84.0,84.0 0 0,0 1.2512130701386868,0.7247833704398019 l -32.04626946268258 54.24054400100664" fill="#4dd2ff" stroke="none" /><line stroke="#e1ed5e" stroke-width="0.3" x1="143.23703022742887" x2="145.7803849466894" y1="26.81831364943548" y2="22.513508569990506" /><path d="M 143.74570117128098 25.957352633546492 a86.0,86.0 0 0,1 28.547481713284135,27.462654790039103" fill="none" id="id74" stroke="none" /><text fill="#e1ed5e" style="font-size:6.75px; font-family:Arial;" text-anchor="middle"><textPath startOffset="19.985693538727396" xlink:href="#id74">February</textPath></text><line stroke="#e1ed5e" stroke-width="0.3" x1="172.23445277983987" x2="176.4835382374775" y1="55.19839476539836" y2="52.563006222186495" /><path d="M 173.08426987136738 54.67131705675599 a86.0,86.0 0 0,1 12.851231095245387,41.99856678651699" fill="none" id="id75" stroke="none" /><text fill="#e1ed5e" style="font-size:6.75px; font-family:Arial;" text-anchor="middle"><textPath startOffset="22.20632615414155" xlink:href="#id75">March</textPath></text><line stroke="#e1ed5e" stroke-width="0.3" x1="184.98032266829074" x2="189.97916517819016" y1="98.17113171792111" y2="98.06355123074" /><path d="M 185.9800911702706 98.14961562048488 a86.0,86.0 0 0,1 -9.607161424134198,41.387399972396054" fill="none" id="id76" stroke="none" /><text fill="#e1ed5e" style="font-size:6.75px; font-family:Arial;" text-anchor="middle"><textPath startOffset="21.466115282336823" xlink:href="#id76">April</textPath></text><line stroke="#e1ed5e" stroke-width="0.3" x1="174.80103733775053" x2="179.2010983576182" y1="140.37084112569926" y2="142.7455964860345" /><path d="M 175.68104954172406 140.8457921977663 a86.0,86.0 0 0,1 -30.038265399797805,32.042727171017184" fill="none" id="id77" stroke="none" /><text fill="#e1ed5e" style="font-size:6.75px; font-family:Arial;" text-anchor="middle"><textPath startOffset="22.206326154141568" xlink:href="#id77">May</textPath></text><line stroke="#e1ed5e" stroke-width="0.3" x1="143.8653032363475" x2="146.44561519142675" y1="172.8068346515853" y2="177.08958963109032" /><path d="M 144.38136562736335 173.6633856474863 a86.0,86.0 0 0,1 -40.68145358897372,12.25698825130547" fill="none" id="id78" stroke="none" /><text fill="#e1ed5e" style="font-size:6.75px; font-family:Arial;" text-anchor="middle"><textPath startOffset="21.466115282336833" xlink:href="#id78">June</textPath></text><line stroke="#e1ed5e" stroke-width="0.3" x1="102.19456741930631" x2="102.32365962044197" y1="184.97166512339345" y2="189.96999836594603" /><path d="M 102.22038585953345 185.97133177190398 a86.0,86.0 0 0,1 -42.740103519485714,-10.115201625700543" fill="none" id="id79" stroke="none" /><text fill="#e1ed5e" style="font-size:6.75px; font-family:Arial;" text-anchor="middle"><textPath startOffset="22.20632615414155" xlink:href="#id79">July</textPath></text><line stroke="#e1ed5e" stroke-width="0.3" x1="58.666819895761336" x2="56.23545636021788" y1="174.27360380694188" y2="178.64263932499728" /><path d="M 58.180547188652646 175.14741091055294 a86.0,86.0 0 0,1 -31.652253787137756,-30.449443065178592" fill="none" id="id80" stroke="none" /><text fill="#e1ed5e" style="font-size:6.75px; font-family:Arial;" text-anchor="middle"><textPath startOffset="22.20632615414155" xlink:href="#id80">August</textPath></text><line stroke="#e1ed5e" stroke-width="0.3" x1="26.63291911575756" x2="22.317208475507996" y1="142.92168965132927" y2="145.44649492493687" /><path d="M 25.769776987707644 143.4266507060508 a86.0,86.0 0 0,1 -11.730757126820373,-40.83630448921669" fill="none" id="id81" stroke="none" /><text fill="#e1ed5e" style="font-size:6.75px; font-family:Arial;" text-anchor="middle"><textPath startOffset="21.46611528233685" xlink:href="#id81">September</textPath></text><line stroke="#e1ed5e" stroke-width="0.3" x1="15.007084014347285" x2="10.007500721073583" y1="101.09737516637583" y2="101.16192664675087" /><path d="M 14.007167355692545 101.11028546245083 a86.0,86.0 0 0,1 10.666146001902534,-42.60595125391555" fill="none" id="id82" stroke="none" /><text fill="#e1ed5e" style="font-size:6.75px; font-family:Arial;" text-anchor="middle"><textPath startOffset="22.20632615414155" xlink:href="#id82">October</textPath></text><line stroke="#e1ed5e" stroke-width="0.3" x1="26.266209847984243" x2="21.928928074336255" y1="57.711370442889674" y2="55.22380399835377" /><path d="M 25.398753493254645 57.213857153982495 a86.0,86.0 0 0,1 29.58750427330803,-30.492523968695096" fill="none" id="id83" stroke="none" /><text fill="#e1ed5e" style="font-size:6.75px; font-family:Arial;" text-anchor="middle"><textPath startOffset="21.46611528233685" xlink:href="#id83">November</textPath></text><line stroke="#e1ed5e" stroke-width="0.3" x1="56.762969772571076" x2="54.21961505331055" y1="26.818313649435495" y2="22.513508569990535" /><path d="M 56.25429882871897 25.957352633546506 a86.0,86.0 0 0,1 42.265352541879196,-11.944610805530505" fill="none" id="id84" stroke="none" /><text fill="#e1ed5e" style="font-size:6.75px; font-family:Arial;" text-anchor="middle"><textPath startOffset="22.20632615414155" xlink:href="#id84">December</textPath></text></svg>