<?xml version="1.0" encoding="utf-8" ?>
<svg baseProfile="full" height="200mm" version="1.1" viewBox="0,0,200,200" width="200mm" xmlns="http://www.w3.org/2000/svg" xmlns:ev="http://www.w3.org/2001/xml-events" xmlns:xlink="http://www.w3.org/1999/xlink"><defs /><rect fill="#1a1a1a" height="200" width="200" x="0" y="0" /><text alignment-baseline="middle" fill="#e1ed5e" style="dominant-baseline: central; font-size:9.0px; font-family:Arial;" text-anchor="middle" x="100.0" y="100.0">2023</text><line stroke="#e1ed5e" stroke-width="0.3" x1="100.0" x2="100.0" y1="15.0" y2="10.0" /><path d="M 100.0 14.0 a86.0,86.0 0 0,1 42.46469731375804,11.215312516191453" fill="none" id="id73" stroke="none" /><text fill="#e1ed5e" style="font-size:6.75px; font-family:Arial;" text-anchor="middle"><textPath startOffset="22.20632615414155" xlink:href="#id73">January</textPath></text><path d="M 101.08401301168833 79.027996857942 l 0.701735335940809 -13.57621680880255 a34.594340562209,34.594340562209 0 0,0 0.5944262366767715,0.035857413903982054 l -0.9353236214571925 13.562126125518265" fill="#ff2f04" stroke="none" /><path d="M 101.80526077348638 79.07773832637324 l 1.2053575562631629 -13.969619554585371 a35.021524786495036,35.021524786495036 0 0,0 0.6001603229355126,0.05699245427745988 l -1.4456430062889196 13.946801555792732" fill="#ff3605" stroke="none" /><path d="M 102.16513564639614 79.11191278185805 l 1.3694699946025977 -13.211924498819032 a34.282710454896296,34.282710454896296 0 0,0 0.5864519566349525,0.06589471047406446 l -1.5966886547472754 13.186393834874368" fill="#ff2a04" stroke="none" /><path d="M 102.52436894288641 79.15227682838746 l 1.6794033306638778 -13.86950026850338 a34.97080646366058,34.97080646366058 0 0,0 0.5969770975916635,0.07750476062481954 l -1.9178951567633873 13.838537184714422" fill="#ff3505" stroke="none" /><path d="M 102.88285421437855 79.19881850522331 l 1.9371318903105195 -13.977339481370555 a35.11093543808978,35.11093543808978 0 0,0 0.597940935182271,0.08812095065978275 l -2.177441805921446 13.941924046549802" fill="#ff3805" stroke="none" /><path d="M 103.2404852339499 79.25152402106235 l 2.715801433527221 -17.388982432862118 a38.59978089286159,38.59978089286159 0 0,0 0.6555911663772581,0.10817815977412265 l -3.0147218060433545 17.33965801014837" fill="#ff710a" stroke="none" /><path d="M 103.59715602781102 79.31037775812273 l 3.625861266635655 -20.85472504616285 a42.16757961307671,42.16757961307671 0 0,0 0.7140474781758062,0.1304876125600096 l -3.9843038659143617 20.789221952252102" fill="#ffa90f" stroke="none" /><path d="M 103.95276090670814 79.375362276772 l 4.944174321884393 -25.797615043272263 a47.26712396982297,47.26712396982297 0 0,0 0.7977645934660409,0.16002407246964634 l -5.3875053248175595 25.70868701472541" fill="#fff617" stroke="none" /><path d="M 105.01212808612495 79.60689891045804 l 6.335513099428541 -25.777625166529425 a47.54476757214351,47.54476757214351 0 0,0 0.7930718795265874,0.2021716805733327 l -6.778293867640153 25.664750489787227" fill="#fffa17" stroke="none" /><path d="M 105.71112130821622 79.79150937346287 l 7.150455269368633 -25.30149518600252 a47.292483131240196,47.292483131240196 0 0,0 0.7814740130804836,0.22813369384660276 l -7.584919500172544 25.174663163237213" fill="#fff617" stroke="none" /><path d="M 106.0581310904928 79.89281104454417 l 3.133219605400896 -10.399286133573895 a31.86104125687822,31.86104125687822 0 0,0 0.5237570229781735,0.1627338565578669 l -3.311762001089788 10.343812142133508" fill="#ff0000" stroke="none" /><path d="M 106.40334571778207 80.00007090966166 l 9.830936483256208 -30.70551571356467 a53.24090580882902,53.24090580882902 0 0,0 0.8704055963592601,0.2869590402650549 l -10.358024901857886 30.531742949040378" fill="#b4ff20" stroke="none" /><path d="M 107.08798089147638 80.2323363322302 l 8.925759170324804 -24.89304189161563 a47.44489953439733,47.44489953439733 0 0,0 0.7663880225720016,0.282267176527849 l -9.35292951866938 24.73571144728146" fill="#fff917" stroke="none" /><path d="M 107.76421540070413 80.48803036053334 l 9.865191248495702 -24.791856252561395 a47.68254363468865,47.68254363468865 0 0,0 0.7600055473136119,0.3100253453520571 l -10.2904806653977 24.618370021025758" fill="#fffc17" stroke="none" /><path d="M 108.76106565485865 80.91482961587045 l 11.124478891857034 -24.23364730385298 a47.66502751288499,47.66502751288499 0 0,0 0.7427159791057191,0.34871511092413443 l -11.539973082262351 24.038567210288843" fill="#fffc17" stroke="none" /><path d="M 109.08828744355905 81.06846463323043 l 16.982355406915364 -35.37542842847909 a60.240557229290644,60.240557229290644 0 0,0 0.9309424624860603,0.4568094233031847 l -17.588769136411855 35.07786384504107" fill="#5bff2a" stroke="none" /><path d="M 109.73455568895987 81.39251694778311 l 13.101645986772045 -25.043634598699906 a49.2637004207853,49.2637004207853 0 0,0 0.747998805024415,0.399555056804963 l -13.53078983832477 24.81440081539319" fill="#ebff1a" stroke="none" /><path d="M 110.05341064243156 81.56283822128135 l 16.247961676175393 -29.797479547260604 a54.93944675447551,54.93944675447551 0 0,0 0.8263832280689704,0.4598813717142448 l -16.7584689933164 29.51338277798618" fill="#9eff22" stroke="none" /><path d="M 110.36928655335952 81.73862282372117 l 17.325690629093877 -30.512318257315027 a56.088190623210416,56.088190623210416 0 0,0 0.8354556808117977,0.48394985525905404 l -17.848343042371003 30.209564244665923" fill="#8fff24" stroke="none" /><line stroke="#e1ed5e" stroke-width="0.3" x1="143.23703022742887" x2="145.7803849466894" y1="26.81831364943548" y2="22.513508569990506" /><path d="M 143.74570117128098 25.957352633546492 a86.0,86.0 0 0,1 28.547481713284135,27.462654790039103" fill="none" id="id74" stroke="none" /><text fill="#e1ed5e" style="font-size:6.75px; font-family:Arial;" text-anchor="middle"><textPath startOffset="19.985693538727396" xlink:href="#id74">February</textPath></text><path d="M 110.99172775467656 82.1063720568725 l 18.430841959980395 -30.00389347981777 a56.21263351841247,56.21263351841247 0 0,0 0.8201178240361209,0.5135577061736651 l -18.94457893638878 29.68219143232116" fill="#8dff24" stroke="none" /><path d="M 111.2981086023043 82.29822771554956 l 18.96089470709649 -29.707754831282852 a56.24295993825163,56.24295993825163 0 0,0 0.8115938775611414,0.5278832339181887 l -19.469455610441912 29.376972673205135" fill="#8dff24" stroke="none" /><path d="M 111.60114157652 82.49532879139004 l 14.905746815326312 -22.49090707152117 a47.98188631327342,47.98188631327342 0 0,0 0.6845308520464627,0.4621982869816521 l -15.290682361779316 22.230996872240848" fill="#feff18" stroke="none" /><path d="M 111.90073688211348 82.69761687909136 l 7.876982269891776 -11.452279503390551 a34.89969623783084,34.89969623783084 0 0,0 0.49203396638149144,0.3447012372695509 l -8.072947375856918 11.314993423357066" fill="#ff3404" stroke="none" /><path d="M 112.19680574252982 82.90503203632743 l 16.166393329699066 -22.658717527628102 a48.83468615392276,48.83468615392276 0 0,0 0.6800920328622617,0.4941157848320496 l -16.554030678915115 22.377082507979377" fill="#f1ff19" stroke="none" /><path d="M 112.48926042617603 83.11751280151076 l 29.606913955038717 -40.021452734311715 a70.78238677389638,70.78238677389638 0 0,0 0.9732707822440163,0.7330473751668184 l -30.291430891041117 39.50588876963905" fill="#39ff8e" stroke="none" /><path d="M 113.06298171725822 83.55741782278167 l 37.50252829536493 -47.20502689943434 a81.28892264024103,81.28892264024103 0 0,0 1.0880971375488449,0.8798322131473635 l -38.30952883147827 46.55248858902284" fill="#49f0ff" stroke="none" /><path d="M 113.6212207817346 84.01681056812373 l 40.86366234520383 -47.94956829562881 a84.0,84.0 0 0,0 1.0924248054129433,0.947340026321315 l -41.68298094926353 47.23906327588782" fill="#4dd2ff" stroke="none" /><path d="M 114.42810811169701 84.74124197986012 l 22.486373358504554 -23.780950847587224 a53.72874287279337,53.72874287279337 0 0,0 0.6665351341905966,0.6412062709962593 l -22.89239173630757 23.39036148982866" fill="#aeff20" stroke="none" /><path d="M 114.68862486808459 84.99185889309783 l 22.087978958443564 -22.56845061751755 a52.57869183078954,52.57869183078954 0 0,0 0.6413704057658637,0.6386161574166613 l -22.47318516437675 22.18489860945077" fill="#bdff1f" stroke="none" /><path d="M 114.94478906791727 85.2469230424477 l 21.569345992851442 -21.292653908360347 a51.30864228269801,51.30864228269801 0 0,0 0.615058040163275,0.6338713755163418 l -21.932668296717825 20.91821833729389" fill="#cfff1d" stroke="none" /><path d="M 115.4437574822437 85.77008943001954 l 20.270724782360848 -18.677488375048938 a48.56357841794687,48.56357841794687 0 0,0 0.5611552922646024,0.6196416893955022 l -20.589223715241488 18.325793898383886" fill="#f5ff19" stroke="none" /><path d="M 115.68641384162765 86.03803664274999 l 41.92697249403598 -37.31782544769449 a77.1292358638548,77.1292358638548 0 0,0 0.8741612234105084,0.9993173924051707 l -42.56312558102434 36.59059249908637" fill="#43ffde" stroke="none" /><path d="M 116.15771136456269 86.58626213691792 l 26.212480184982375 -21.760961686302707 a55.068072604138145,55.068072604138145 0 0,0 0.5991970299281603,0.7345447088375975 l -26.583175706986943 21.306532807857007" fill="#9cff22" stroke="none" /><path d="M 116.38621287248628 86.86637796730983 l 25.973634536469433 -20.8179828659493 a54.2869058586261,54.2869058586261 0 0,0 0.5781449986886359,0.7341854367907226 l -26.328133615752034 20.36780503520554" fill="#a6ff21" stroke="none" /><path d="M 116.60985879189232 87.15038557335679 l 16.637153831612085 -12.870730243493508 a42.03450937429973,42.03450937429973 0 0,0 0.43780754957306645,0.5761034160140416 l -16.856237321409267 12.582442051598433" fill="#ffa70f" stroke="none" /><path d="M 117.04232023915458 87.72973835380427 l 49.14110162528329 -35.38099073735234 a81.55297164056469,81.55297164056469 0 0,0 0.8104321904227466,1.1462988594041668 l -49.74284643550992 34.52986537761638" fill="#49edff" stroke="none" /><line stroke="#e1ed5e" stroke-width="0.3" x1="172.23445277983987" x2="176.4835382374775" y1="55.19839476539836" y2="52.563006222186495" /><path d="M 173.08426987136738 54.67131705675599 a86.0,86.0 0 0,1 12.851231095245387,41.99856678651699" fill="none" id="id75" stroke="none" /><text fill="#e1ed5e" style="font-size:6.75px; font-family:Arial;" text-anchor="middle"><textPath startOffset="22.20632615414155" xlink:href="#id75">March</textPath></text><line stroke="#e1ed5e" stroke-width="0.3" x1="184.98032266829074" x2="189.97916517819016" y1="98.17113171792111" y2="98.06355123074" /><path d="M 185.9800911702706 98.14961562048488 a86.0,86.0 0 0,1 -9.607161424134198,41.387399972396054" fill="none" id="id76" stroke="none" /><text fill="#e1ed5e" style="font-size:6.75px; font-family:Arial;" text-anchor="middle"><textPath startOffset="21.466115282336823" xlink:href="#id76">April</textPath></text><line stroke="#e1ed5e" stroke-width="0.3" x1="174.80103733775053" x2="179.2010983576182" y1="140.37084112569926" y2="142.7455964860345" /><path d="M 175.68104954172406 140.8457921977663 a86.0,86.0 0 0,1 -30.038265399797805,32.042727171017184" fill="none" id="id77" stroke="none" /><text fill="#e1ed5e" style="font-size:6.75px; font-family:Arial;" text-anchor="middle"><textPath startOffset="22.206326154141568" xlink:href="#id77">May</textPath></text><line stroke="#e1ed5e" stroke-width="0.3" x1="143.8653032363475" x2="146.44561519142675" y1="172.8068346515853" y2="177.08958963109032" /><path d="M 144.38136562736335 173.6633856474863 a86.0,86.0 0 0,1 -40.68145358897372,12.25698825130547" fill="none" id="id78" stroke="none" /><text fill="#e1ed5e" style="font-size:6.75px; font-family:Arial;" text-anchor="middle"><textPath startOffset="21.466115282336833" xlink:href="#id78">June</textPath></text><line stroke="#e1ed5e" stroke-width="0.3" x1="102.19456741930631" x2="102.32365962044197" y1="184.97166512339345" y2="189.96999836594603" /><path d="M 102.22038585953345 185.97133177190398 a86.0,86.0 0 0,1 -42.740103519485714,-10.115201625700543" fill="none" id="id79" stroke="none" /><text fill="#e1ed5e" style="font-size:6.75px; font-family:Arial;" text-anchor="middle"><textPath startOffset="22.20632615414155" xlink:href="#id79">July</textPath></text><line stroke="#e1ed5e" stroke-width="0.3" x1="58.666819895761336" x2="56.23545636021788" y1="174.27360380694188" y2="178.64263932499728" /><path d="M 58.180547188652646 175.14741091055294 a86.0,86.0 0 0,1 -31.652253787137756,-30.449443065178592" fill="none" id="id80" stroke="none" /><text fill="#e1ed5e" style="font-size:6.75px; font-family:Arial;" text-anchor="middle"><textPath startOffset="22.20632615414155" xlink:href="#id80">August</textPath></text><line stroke="#e1ed5e" stroke-width="0.3" x1="26.63291911575756" x2="22.317208475507996" y1="142.92168965132927" y2="145.44649492493687" /><path d="M 25.769776987707644 143.4266507060508 a86.0,86.0 0 0,1 -11.730757126820373,-40.83630448921669" fill="none" id="id81" stroke="none" /><text fill="#e1ed5e" style="font-size:6.75px; font-family:Arial;" text-anchor="middle"><textPath startOffset="21.46611528233685" xlink:href="#id81">September</textPath></text><line stroke="#e1ed5e" stroke-width="0.3" x1="15.007084014347285" x2="10.007500721073583" y1="101.09737516637583" y2="101.16192664675087" /><path d="M 14.007167355692545 101.11028546245083 a86.0,86.0 0 0,1 10.666146001902534,-42.60595125391555" fill="none" id="id82" stroke="none" /><text fill="#e1ed5e" style="font-size:6.75px; font-family:Arial;" text-anchor="middle"><textPath startOffset="22.20632615414155" xlink:href="#id82">October</textPath></text><line stroke="#e1ed5e" stroke-width="0.3" x1="26.266209847984243" x2="21.928928074336255" y1="57.711370442889674" y2="55.22380399835377" /><path d="M 25.398753493254645 57.213857153982495 a86.0,86.0 0 0,1 29.58750427330803,-30.492523968695096" fill="none" id="id83" stroke="none" /><text fill="#e1ed5e" style="font-size:6.75px; font-family:Arial;" text-anchor="middle"><textPath startOffset="21.46611528233685" xlink:href="#id83">November</textPath></text><line stroke="#e1ed5e" stroke-width="0.3" x1="56.762969772571076" x2="54.21961505331055" y1="26.818313649435495" y2="22.513508569990535" /><path d="M 56.25429882871897 25.957352633546506 a86.0,86.0 0 0,1 42.265352541879196,-11.944610805530505" fill="none" id="id84" stroke="none" /><text fill="#e1ed5e" style="font-size:6.75px; font-family:Arial;" text-anchor="middle"><textPath startOffset="22.20632615414155" xlink:href="#id84">December</textPath></text></svg>