<?xml version="1.0" encoding="utf-8" ?>
<svg baseProfile="full" height="200mm" version="1.1" viewBox="0,0,200,200" width="200mm" xmlns="http://www.w3.org/2000/svg" xmlns:ev="http://www.w3.org/2001/xml-events" xmlns:xlink="http://www.w3.org/1999/xlink"><defs /><rect fill="#1a1a1a" height="200" width="200" x="0" y="0" /><text alignment-baseline="middle" fill="#e1ed5e" style="dominant-baseline: central; font-size:9.0px; font-family:Arial;" text-anchor="middle" x="100.0" y="100.0">2024</text><line stroke="#e1ed5e" stroke-width="0.3" x1="100.0" x2="100.0" y1="15.0" y2="10.0" /><path d="M 100.0 14.0 a86.0,86.0 0 0,1 42.35913384403234,11.155469271406648" fill="none" id="id85" stroke="none" /><text fill="#e1ed5e" style="font-size:6.75px; font-family:Arial;" text-anchor="middle"><textPath startOffset="22.145653131862478" xlink:href="#id85">January</textPath></text><path d="M 100.0 79.0 l 0.0 -31.409816255000763 a52.40981625500076,52.40981625500076 0 0,0 0.8996841882169656,0.007722706704292371 l -0.5391912633681109 31.405187946490905" fill="#81ff25" stroke="none" /><path d="M 101.08105385017728 79.02784411241856 l 1.283646992969861 -24.902408734564382 a45.93547092769393,45.93547092769393 0 0,0 0.7871494595612256,0.04735295682266409 l -1.710940804663549 24.876703799917028" fill="#c9ff1d" stroke="none" /><path d="M 102.15924093988457 79.11130261209362 l 5.764781146468976 -55.76902820420583 a77.06618596362864,77.06618596362864 0 0,0 1.3147641729202264,0.14732206791134425 l -6.721281220989999 55.661850375787516" fill="#44ffea" stroke="none" /><path d="M 103.23170211078529 79.25015418208739 l 2.368714804616213 -15.208848246984607 a36.392201753661325,36.392201753661325 0 0,0 0.616453565581373,0.10143719962832154 l -2.6294458732506563 15.165945048860618" fill="#ffc011" stroke="none" /><path d="M 103.58742460773223 79.30868818359171 l 4.2689916771338 -24.622409553316096 a45.989744739606074,45.989744739606074 0 0,0 0.7767126224757818,0.14154291347386178 l -4.691039033160636 24.54549846591087" fill="#c9ff1d" stroke="none" /><path d="M 104.29559338865022 79.4440306129975 l 7.689911598136525 -36.79901077641817 a58.59390821010893,58.59390821010893 0 0,0 0.9828084108937641,0.21419851883508512 l -8.320482425649423 36.66158079944937" fill="#40ff2d" stroke="none" /><path d="M 104.64783097203109 79.52079915486377 l 2.33677782906452 -10.29627427930348 a31.558115109102282,31.558115109102282 0 0,0 0.5272727562075958,0.12443493477571065 l -2.513182739012001 10.254643200881542" fill="#ff800b" stroke="none" /><path d="M 104.9986988182912 79.60360301121754 l 4.608710998475497 -18.80511360026457 a40.3616247920035,40.3616247920035 0 0,0 0.6715303837689863,0.17070039755493824 l -4.930846675469878 18.723227970874362" fill="#fff216" stroke="none" /><path d="M 105.3480935250658 79.69241777938227 l 5.425029527131668 -20.599720751919673 a42.30209943708179,42.30209943708179 0 0,0 0.700640807796529,0.19096276777622478 l -5.77785173586289 20.503557489999306" fill="#f4ff19" stroke="none" /><path d="M 105.69591212413111 79.78721728523813 l 6.598067921485142 -23.414215375481064 a45.32611728052681,45.32611728052681 0 0,0 0.7471038892510236,0.21747105375222733 l -6.999031823117769 23.29750062742632" fill="#d0ff1d" stroke="none" /><path d="M 106.04205211174951 79.88797359093562 l 5.578792702400147 -18.569986502297667 a40.38987691327283,40.38987691327283 0 0,0 0.6623158310593994,0.20518713748464237 l -5.896749166331177 18.471482777006376" fill="#fff216" stroke="none" /><path d="M 106.72888874123014 80.10723608172694 l 10.189934279619685 -30.124730065032214 a52.80147987301887,52.80147987301887 0 0,0 0.856123767821146,0.2978042875646847 l -10.70556381948585 29.94536734489894" fill="#7cff26" stroke="none" /><path d="M 107.74402155503746 80.48000691201159 l 5.683421104061353 -14.325933867686441 a36.41212693392497,36.41212693392497 0 0,0 0.5790317784834131,0.2354871834609211 l -5.928507343735205 14.226259427646227" fill="#ffc011" stroke="none" /><path d="M 108.07796709384702 80.6158196554323 l 5.935142302604787 -14.242180913561258 a36.429375597436774,36.429375597436774 0 0,0 0.5751763419786807,0.24550857829126127 l -6.178753719753899 14.138197685610594" fill="#ffc011" stroke="none" /><path d="M 109.06512990194946 81.05736502329252 l 19.28142442883156 -40.290761272795635 a65.66675242220046,65.66675242220046 0 0,0 1.0126430826749977,0.4953344759283331 l -19.970227760768626 39.95383304677008" fill="#36ff6f" stroke="none" /><path d="M 109.3889696526874 81.21577127319529 l 6.874777382614936 -13.754159996026821 a36.37658873927564,36.37658873927564 0 0,0 0.5561682100524653,0.2839834509081796 l -7.10987281438098 13.634118593445807" fill="#ffbf11" stroke="none" /><path d="M 109.71004243097381 81.37971332152246 l 8.946160244286087 -17.155441863862116 a40.347944817494124,40.347944817494124 0 0,0 0.6113889190930168,0.3255301627992123 l -9.239337979165663 16.99934123334033" fill="#fff216" stroke="none" /><path d="M 110.02825361518725 81.54914285379988 l 9.2333023520562 -16.988236359265766 a40.33530571061047,40.33530571061047 0 0,0 0.605520930846209,0.335872253082249 l -9.523567471058508 16.82723119075037" fill="#fff216" stroke="none" /><line stroke="#e1ed5e" stroke-width="0.3" x1="143.13028292997686" x2="145.6673583964461" y1="26.7553504044142" y2="22.446841604673864" /><path d="M 143.63769802327073 25.89364864446614 a86.0,86.0 0 0,1 29.32050498858742,28.57503671076993" fill="none" id="id86" stroke="none" /><text fill="#e1ed5e" style="font-size:6.75px; font-family:Arial;" text-anchor="middle"><textPath startOffset="20.669276256404974" xlink:href="#id86">February</textPath></text><path d="M 110.96478420261332 82.08984904055464 l 8.004938163096025 -13.07546489495932 a36.331236649869595,36.331236649869595 0 0,0 0.5291140672838092,0.33020631109231446 l -8.228216359169545 12.93612278702546" fill="#ffbf11" stroke="none" /><path d="M 112.45986205192187 83.09580414077388 l 13.72012599417392 -18.613985937589224 a44.12406386820397,44.12406386820397 0 0,0 0.6058591396908126,0.45464799337460515 l -14.037638122775498 18.375718916950603" fill="#dfff1b" stroke="none" /><path d="M 113.59037401385872 83.9905735841838 l 7.244660355924952 -8.534191682840243 a32.194531314537926,32.194531314537926 0 0,0 0.4182537515249107,0.3612776288961511 l -7.390093587212723 8.408569921479371" fill="#ff880c" stroke="none" /><path d="M 113.86319453409587 84.22622945171908 l 14.407075057469932 -16.392606745109987 a42.82387150831396,42.82387150831396 0 0,0 0.5480129505288553,0.4900365595784432 l -14.686353034822162 16.142874655648157" fill="#eeff19" stroke="none" /><path d="M 114.39649973595853 84.71141617570332 l 15.618087854507555 -16.58586807336684 a43.781915810094766,43.781915810094766 0 0,0 0.542744633661722,0.5199370816676178 l -15.90050497403459 16.315318861393642" fill="#e3ff1b" stroke="none" /><path d="M 115.16444852881244 85.47280134310134 l 23.62795637394652 -22.63504772024417 a53.7204172911479,53.7204172911479 0 0,0 0.6322232258457596,0.671399156828914 l -24.01303543352854 22.22610710347076" fill="#73ff27" stroke="none" /><path d="M 115.8921839302757 86.27271002978787 l 11.724323332396185 -10.12719125291007 a36.49257113185503,36.49257113185503 0 0,0 0.405424535079295,0.47758908289791957 l -11.896442430982594 9.924435387562598" fill="#ffc111" stroke="none" /><path d="M 116.57777611688842 87.10902102172516 l 4.18469654507763 -3.254045344363136 a26.300990122378654,26.300990122378654 0 0,0 0.274091413424118,0.35879445862474385 l -4.2399399358560546 3.18172997249751" fill="#ff3705" stroke="none" /><path d="M 116.7966241395341 87.39550010848427 l 26.165127233894307 -19.634799269269347 a53.712982522392814,53.712982522392814 0 0,0 0.547099927793766,0.7422461256356944 l -26.4983291812719 19.182746834364778" fill="#73ff27" stroke="none" /><path d="M 117.42321728460499 88.27688183743584 l 18.9353116461116 -12.740522731613064 a43.822509647497554,43.822509647497554 0 0,0 0.414593413910407,0.6277472706499042 l -19.151229498942733 12.413595582624101" fill="#e2ff1b" stroke="none" /><line stroke="#e1ed5e" stroke-width="0.3" x1="172.87174338648825" x2="177.1583165268699" y1="56.24261187166439" y2="53.66864786411523" /><path d="M 173.72905801456457 55.72781907015455 a86.0,86.0 0 0,1 12.242430191666344,42.057860355516425" fill="none" id="id87" stroke="none" /><text fill="#e1ed5e" style="font-size:6.75px; font-family:Arial;" text-anchor="middle"><textPath startOffset="22.145653131862474" xlink:href="#id87">March</textPath></text><path d="M 118.00360718960297 89.18935116829356 l 20.13398906871304 -12.08988193926891 a44.484947543576006,44.484947543576006 0 0,0 0.3874984004389649,0.6580569991873482 l -20.33856117928177 11.742473771788005" fill="#daff1b" stroke="none" /><path d="M 118.18653347947321 89.5 l 28.611645027344053 -16.51894095849511 a54.037881916990216,54.037881916990216 0 0,0 0.4569202311129614,0.8073342671256654 l -28.890998623478392 16.02534992127033" fill="#6fff27" stroke="none" /><path d="M 118.36410011445183 89.81374322990088 l 26.47228689498493 -14.683731297665906 a51.27199924472191,51.27199924472191 0 0,0 0.4203196716427422,0.7733408542314026 l -26.72045191624301 14.2271356099599" fill="#8dff24" stroke="none" /><path d="M 118.53625476483649 90.13048839642627 l 13.53780755315194 -7.208120002010538 a36.337184464873665,36.337184464873665 0 0,0 0.28843406887921125,0.5531103585334157 l -13.659549691006095 6.974663400372624" fill="#ffbf11" stroke="none" /><path d="M 118.8641267826498 90.77261029715802 l 16.266243757491846 -7.956634933658678 a39.107974084520336,39.107974084520336 0 0,0 0.28981009270083746,0.6055916305641877 l -16.400433108152598 7.676230801029387" fill="#ffe215" stroke="none" /><path d="M 119.0197475246899 91.09779779509293 l 16.202597387413583 -7.583633694412382 a38.88954057849581,38.88954057849581 0 0,0 0.27781120197258297,0.6070676132495262 l -16.330393054241217 7.304377098948171" fill="#ffdf14" stroke="none" /><path d="M 119.16976305983485 91.42560881287824 l 21.754401918404458 -9.730467273280889 a44.831407767563164,44.831407767563164 0 0,0 0.3081969668151113,0.7052149738557965 l -21.91823276723654 9.355590229649243" fill="#d6ff1c" stroke="none" /><path d="M 119.31412917781788 91.75594674310238 l 30.384247613781607 -12.96922854727847 a54.036394963239196,54.036394963239196 0 0,0 0.3568310207533442,0.8562645500360515 l -30.602404479071435 12.44573148780114" fill="#6fff27" stroke="none" /><path d="M 119.58574465831526 92.42381321644754 l 16.93078148293493 -6.549189992210376 a39.15332617392639,39.15332617392639 0 0,0 0.23710008171087538,0.628936135922366 l -17.040712248460245 6.257585576093853" fill="#ffe315" stroke="none" /><path d="M 119.71291397450082 92.76114493625339 l 14.554061346570403 -5.344452921215964 a36.504318066488075,36.504318066488075 0 0,0 0.21095989681956206,0.5900923773678696 l -14.643661413433907 5.093825587467178" fill="#ffc112" stroke="none" /><path d="M 119.83427380445688 93.10060997987247 l 24.096055043670795 -8.381858762854673 a46.51226028771376,46.51226028771376 0 0,0 0.25584972089769925,0.7563742383179142 l -24.23639018614086 7.966982850062597" fill="#c3ff1e" stroke="none" /><path d="M 119.94978838288452 93.4421083053983 l 20.503194481434253 -6.739807271236817 a42.58253891452377,42.58253891452377 0 0,0 0.22231184556284855,0.6963886898709054 l -20.615871042774362 6.386849547674524" fill="#f1ff19" stroke="none" /><path d="M 120.26092885502905 94.47779374421319 l 30.274112925634654 -8.251344100882108 a52.37844153085429,52.37844153085429 0 0,0 0.22899485293270527,0.8695307556297753 l -30.41129725937209 7.730432840879534" fill="#81ff25" stroke="none" /><path d="M 120.43855184770803 95.1765574152323 l 20.675410102242054 -4.879340487906145 a42.24336476391659,42.24336476391659 0 0,0 0.1605029371151494,0.7072055557087145 l -20.75612390091487 4.5237005982584035" fill="#f5ff19" stroke="none" /><path d="M 120.592083275326 95.88100663000786 l 24.341024926416484 -4.868886695444639 a45.823205919492075,45.823205919492075 0 0,0 0.1476679163852497,0.7726609370496372 l -24.42101913508389 4.450323193361687" fill="#cbff1d" stroke="none" /><path d="M 120.65975698304385 96.23510406497455 l 10.10618250237972 -1.8416831065855528 a31.272619988906854,31.272619988906854 0 0,0 0.09171095283394427,0.5289644047088787 l -10.1363082727059 1.6679256689560815" fill="#ff7c0b" stroke="none" /><path d="M 120.77682067341334 96.94652285012252 l 31.38097530730468 -4.611922706939471 a52.718061767586775,52.718061767586775 0 0,0 0.12390121070530533,0.896487439344538 l -31.455521034565198 4.072546959394847" fill="#7dff26" stroke="none" /><path d="M 120.86939407059847 97.66154086499901 l 15.451631690941115 -1.7313875599894581 a36.5483318975182,36.5483318975182 0 0,0 0.0645123439155719,0.6240984065025008 l -15.479076427338352 1.465884631204026" fill="#ffc212" stroke="none" /><path d="M 120.9064616781168 98.02013634271609 l 17.7766974786339 -1.6834717335893146 a38.85623281447302,38.85623281447302 0 0,0 0.05718597104326324,0.6645876669157073 l -17.8029770723749 1.3780630192979453" fill="#ffdf14" stroke="none" /><path d="M 120.96210409425399 98.7389718711861 l 19.347168376113046 -1.1638776062497067 a40.382144753767534,40.382144753767534 0 0,0 0.03568706766497752,0.6923195788238186 l -19.3642970332346 0.8315862340491574" fill="#fff216" stroke="none" /><path d="M 120.98066250479742 99.09900007780936 l 30.06971616363133 -1.2913229940918927 a51.09743087435241,51.09743087435241 0 0,0 0.030111747653667954,0.876670678137957 l -30.087452598281846 0.7749460513898156" fill="#8fff24" stroke="none" /><path d="M 120.99303781780057 99.45929381324524 l 22.682648234943027 -0.5842245576395876 a43.690170763656965,43.690170763656965 0 0,0 0.01287521953508823,0.7499169901713468 l -22.689334886076782 0.19476065149917435" fill="#e4ff1b" stroke="none" /><line stroke="#e1ed5e" stroke-width="0.3" x1="184.99686870605535" x2="189.99668451229388" y1="99.2704041080226" y2="99.22748670261217" /><path d="M 185.99683186730306 99.26182062694052 a86.0,86.0 0 0,1 -10.086455211305974,41.156179273409016" fill="none" id="id88" stroke="none" /><text fill="#e1ed5e" style="font-size:6.75px; font-family:Arial;" text-anchor="middle"><textPath startOffset="21.40746469413373" xlink:href="#id88">April</textPath></text><path d="M 120.99922638620191 99.81974689727618 l 18.094668368073833 -0.15532096545457263 a39.09533497763668,39.09533497763668 0 0,0 0.0,0.6711481363567968 l -18.094668368073833 -0.15532096545457044" fill="#ffe215" stroke="none" /><path d="M 120.99303781780057 100.54070618675476 l 7.445682034721297 0.19177435756195516 a28.448151338848437,28.448151338848437 0 0,0 -0.016764513199016645,0.4880805101009142 l -7.441292834525434 -0.31956113222698007" fill="#ff5507" stroke="none" /><path d="M 120.98066250479742 100.90099992219065 l 32.20078715008106 1.3828403516841499 a53.23046603018752,53.23046603018752 0 0,0 -0.0470415639050563,0.9125937725032988 l -32.172303996719435 -1.9354059175641793" fill="#78ff26" stroke="none" /><path d="M 120.96210409425399 101.26102812881392 l 23.989521042051067 1.4431500146539202 a45.032890000826086,45.032890000826086 0 0,0 -0.053044538852844825,0.7712559532443436 l -23.961212542033156 -1.8547493920526072" fill="#d4ff1c" stroke="none" /><path d="M 120.82617615685814 102.69636545807757 l 19.2102101888472 2.4871463107527902 a40.3705465145096,40.3705465145096 0 0,0 -0.0948813257216188,0.6865140078420802 l -19.164684346570372 -2.8165486267949555" fill="#fff216" stroke="none" /><path d="M 120.77682067341334 103.0534771498775 l 19.138350743299963 2.8126784939616383 a40.34393004236638,40.34393004236638 0 0,0 -0.10658195428707658,0.6843326032581761 l -19.08724729687462 -3.1407992791512647" fill="#fff216" stroke="none" /><path d="M 120.7213421655516 103.40968896794604 l 17.212576806893242 2.8323229634206166 a38.444049234690866,38.444049234690866 0 0,0 -0.11274208516456984,0.6502663871860063 l -17.16141990423644 -3.127382383527211" fill="#ffda14" stroke="none" /><path d="M 120.51834098615036 104.47187691870673 l 61.555022958451104 13.415630756120176 a84.0,84.0 0 0,0 -0.3191565537693437,1.4062626642439322 l -61.315655543124095 -14.470327754303124" fill="#4dd2ff" stroke="none" /><path d="M 120.16314734710363 105.8691983318838 l 4.748382295459978 1.3821848825433278 a25.945459480510287,25.945459480510287 0 0,0 -0.12815040650072582,0.42657102458003643 l -4.723955568955622 -1.4634935107140878" fill="#ff3204" stroke="none" /><path d="M 119.83427380445688 106.89939002012753 l 59.414203028693755 20.667343986039384 a83.90617321831078,83.90617321831078 0 0,0 -0.4848970911446496,1.3563434643554204 l -59.050665767505166 -21.684222406775728" fill="#4dd3ff" stroke="none" /><path d="M 119.4528033332814 107.91128576633889 l 10.23477738187196 4.162394860812707 a32.04880984693817,32.04880984693817 0 0,0 -0.21163531614928177,0.5078477156266323 l -10.161816221186191 -4.337475085880618" fill="#ff860c" stroke="none" /><path d="M 119.31412917781788 108.2440532568976 l 4.473906949194338 1.9096448416593583 a25.864420501079813,25.864420501079813 0 0,0 -0.17780695150579526,0.4068571016559007 l -4.440466115671577 -1.9861640130911038" fill="#ff3004" stroke="none" /><path d="M 119.0197475246899 108.90220220490707 l 34.63795067280682 16.212309887533625 a59.244301780804136,59.244301780804136 0 0,0 -0.43903058117979277,0.9174050601428395 l -34.35454083366711 -16.804527449741567" fill="#3aff2e" stroke="none" /><path d="M 118.70294669586154 109.54985784667822 l 6.651059810280665 3.396078529806723 a28.467927823736975,28.467927823736975 0 0,0 -0.22597018386764225,0.4333276228517799 l -6.591781557438074 -3.5097523957630057" fill="#ff5507" stroke="none" /><line stroke="#e1ed5e" stroke-width="0.3" x1="174.33088141563837" x2="178.70328620479359" y1="141.23008692659167" y2="143.65538615756765" /><path d="M 175.20536237346943 141.71514677278685 a86.0,86.0 0 0,1 -30.301960400862466,31.631185727798858" fill="none" id="id89" stroke="none" /><text fill="#e1ed5e" style="font-size:6.75px; font-family:Arial;" text-anchor="middle"><textPath startOffset="22.145653131862474" xlink:href="#id89">May</textPath></text><path d="M 118.00360718960297 110.81064883170644 l 23.909271367496984 14.356830487017731 a48.888561077215385,48.888561077215385 0 0,0 -0.4382092079243108,0.715781808443875 l -23.65929419511727 -14.765149411586163" fill="#a7ff21" stroke="none" /><path d="M 117.62189284568427 111.42229804090321 l 31.202086227664683 20.22481531986119 a58.183508974827994,58.183508974827994 0 0,0 -0.5504591091016613,0.833465249927052 l -30.850302679642297 -20.757460448127304" fill="#45ff2d" stroke="none" /><path d="M 117.21940702142032 112.02048342749411 l 12.571912699663697 8.776171448309563 a36.33212882212021,36.33212882212021 0 0,0 -0.3613920547240646,0.5083431833363297 l -12.41940554640967 -8.990691858355396" fill="#ffbf11" stroke="none" /><path d="M 116.79662413953412 112.60449989151573 l 15.451102293597184 11.594795213941488 a40.31775965634847,40.31775965634847 0 0,0 -0.4201648561093458,0.5500092841202148 l -15.249785460133534 -11.85832541130258" fill="#fff116" stroke="none" /><path d="M 116.57777611688842 112.89097897827486 l 18.309954855089316 14.237931642089308 a44.19424808525201,44.19424808525201 0 0,0 -0.4708446128202744,0.5948967870184503 l -18.06284381162748 -14.550148373022441" fill="#deff1b" stroke="none" /><path d="M 116.35404254752997 113.17365903436017 l 15.392180819496415 12.398851312875529 a40.76488664927954,40.76488664927954 0 0,0 -0.44366402414617356,0.5411979706970812 l -15.177069976111616 -12.661251565271103" fill="#fff717" stroke="none" /><path d="M 116.1254893667686 113.45245675266167 l 27.493467443673097 22.93602838056626 a56.80435937075894,56.80435937075894 0 0,0 -0.6310840884616021,0.7434154693693978 l -27.09568879170438 -23.404610632385214" fill="#52ff2b" stroke="none" /><path d="M 115.6541949942343 113.99807769240083 l 14.559692667472193 13.019366962773885 a40.53173230111993,40.53173230111993 0 0,0 -0.46824244976729235,0.514680476298289 l -14.33405251686302 -13.267385014629845" fill="#fff417" stroke="none" /><path d="M 115.41159269507618 114.26474011684316 l 14.256137009934879 13.195267584628134 a40.425563803297266,40.425563803297266 0 0,0 -0.47575915532893,0.5052397360349515 l -14.027522020869688 -13.438048780607582" fill="#fff316" stroke="none" /><path d="M 115.16444852881244 114.52719865689866 l 11.169403671577667 10.700036055238531 a36.467590308837934,36.467590308837934 0 0,0 -0.43693938342516847,0.4483382996529738 l -10.984077487001692 -10.890197046959242" fill="#ffc111" stroke="none" /><path d="M 114.91283532996324 114.78537596483092 l 12.285837761364391 12.180831231986577 a38.300706893092745,38.300706893092745 0 0,0 -0.4669185918745568,0.46292785865903924 l -12.074927249359868 -12.389939100874278" fill="#ffd814" stroke="none" /><path d="M 114.65682725009322 115.03919595460226 l 11.512226299243585 11.812558354806887 a37.49448056929086,37.49448056929086 0 0,0 -0.4648021390654689,0.445269934974965 l -11.307751674312803 -12.008440420087434" fill="#ffce13" stroke="none" /><path d="M 114.39649973595853 115.28858382429668 l 15.907183337598847 16.892877458115212 a44.20361589388342,44.20361589388342 0 0,0 -0.5569028936092518,0.5154610042472734 l -15.614850672675626 -17.163456208494864" fill="#deff1b" stroke="none" /><path d="M 113.86319453409587 115.77377054828091 l 9.837752265530439 11.193556186898613 a35.902250492700944,35.902250492700944 0 0,0 -0.46642241224299746,0.40288457077745043 l -9.644150373524587 -11.360784890140781" fill="#ffb911" stroke="none" /><path d="M 113.59037401385872 116.0094264158162 l 12.51468525321166 14.742267760554867 a40.33783353198721,40.33783353198721 0 0,0 -0.5317403631409046,0.4435967229335075 l -12.259770555908862 -14.954926667400244" fill="#fff216" stroke="none" /><path d="M 113.31354834802062 116.24036423190432 l 9.806402399680268 11.962216428883583 a36.468036394963235,36.468036394963235 0 0,0 -0.48754157735916864,0.3927289834631043 l -9.599610051965847 -12.12879370614009" fill="#ffc111" stroke="none" /><path d="M 113.03279911837588 116.46651593811092 l 10.75876123545773 13.593343360000468 a38.33579900161676,38.33579900161676 0 0,0 -0.5195231981106088,0.4039843811587827 l -10.52382809271189 -13.776028792780044" fill="#ffd814" stroke="none" /><path d="M 112.7482090630111 116.68781488649013 l 18.249389919542214 23.88903721796723 a51.06204137507818,51.06204137507818 0 0,0 -0.701123190981837,0.5261359134583112 l -17.83661373964961 -24.198792158689557" fill="#8fff24" stroke="none" /><path d="M 112.45986205192187 116.90419585922612 l 9.014824960515783 12.230341406203127 a36.19369342790044,36.19369342790044 0 0,0 -0.5032974183642784,0.3643485177055945 l -8.803546531777537 -12.383290695281799" fill="#ffbd11" stroke="none" /><path d="M 111.8722381534696 117.32195027204791 l 12.012765371425509 17.526983682752377 a42.24856910204515,42.24856910204515 0 0,0 -0.6017478019529505,0.404882776305087 l -11.710121281375555 -17.730616133114587" fill="#f5ff19" stroke="none" /><path d="M 111.5731344415666 117.5232005979908 l 10.046612100046488 15.211851210075915 a39.230052987478906,39.230052987478906 0 0,0 -0.5651264131443424,0.3663081133365423 l -9.784000054645135 -15.382073165116353" fill="#ffe415" stroke="none" /><path d="M 111.27062007382361 117.71928675628689 l 11.444566719710844 17.992759775391562 a42.32410635259686,42.32410635259686 0 0,0 -0.6163919018830105,0.3846741349229518 l -11.134010689038119 -18.18656970715606" fill="#f4ff19" stroke="none" /><line stroke="#e1ed5e" stroke-width="0.3" x1="143.1302829299769" x2="145.66735839644613" y1="173.24464959558577" y2="177.55315839532614" /><path d="M 143.63769802327073 174.10635135553383 a86.0,86.0 0 0,1 -40.68552437913181,11.842963189579606" fill="none" id="id90" stroke="none" /><text fill="#e1ed5e" style="font-size:6.75px; font-family:Arial;" text-anchor="middle"><textPath startOffset="21.407464694133747" xlink:href="#id90">June</textPath></text><path d="M 110.65571695917076 118.09573695890943 l 13.727197161103069 23.31178183150056 a48.05319045989356,48.05319045989356 0 0,0 -0.7144080002341718,0.41246365124642287 l -13.324996693008499 -23.543992380023155" fill="#b1ff20" stroke="none" /><path d="M 110.34350942703117 118.27599006163325 l 3.661980986002984 6.470369518026336 a28.434768755089276,28.434768755089276 0 0,0 -0.42686790992759,0.23677643393024758 l -3.550368887919299 -6.532278867389728" fill="#ff5507" stroke="none" /><path d="M 109.71004243097381 118.62028667847754 l 9.729064428962191 18.656763867764717 a42.04113905377816,42.04113905377816 0 0,0 -0.6427745389677224,0.3282052595468338 l -9.407362668280888 -18.821027078984386" fill="#f8ff18" stroke="none" /><path d="M 109.3889696526874 118.78422872680471 l 9.84247936849571 19.691551952536226 a43.01435028381935,43.01435028381935 0 0,0 -0.6633217368602901,0.32446390097448824 l -9.50299738237335 -19.857609603607937" fill="#ecff1a" stroke="none" /><path d="M 108.73861861582097 119.09545874513695 l 9.25785985318668 20.230094556904707 a43.24780202272915,43.24780202272915 0 0,0 -0.6777272381730223,0.30313877329233907 l -8.90921921215803 -20.386037081106895" fill="#e9ff1a" stroke="none" /><path d="M 108.4095320186766 119.2426549942271 l 17.869290404045934 40.888433443508184 a65.62258989579523,65.62258989579523 0 0,0 -1.036102337424808,0.4422504773933182 l -17.164752991450698 -41.189158570560906" fill="#36ff6e" stroke="none" /><path d="M 108.07796709384702 119.3841803445677 l 3.4896451778722892 8.373878066172333 a30.071904834959934,30.071904834959934 0 0,0 -0.47820849824478484,0.19448323312011348 l -3.3453822184370634 -8.432548555871739" fill="#ff6b09" stroke="none" /><path d="M 107.74402155503746 119.51999308798841 l 3.6412081005624195 9.178223026596669 a30.874116383634068,30.874116383634068 0 0,0 -0.4943206809133685,0.191213858594981 l -3.4831151571555217 -9.239376773329692" fill="#ff760a" stroke="none" /><path d="M 107.407793817531 119.65005319985036 l 7.34152869469577 19.474277088759735 a41.81214817612141,41.81214817612141 0 0,0 -0.6737945016878377,0.2474266740461012 l -7.006145041353805 -19.59743461181456" fill="#faff18" stroke="none" /><path d="M 107.06938296918513 119.77432235084164 l 8.009125273509031 22.40294882834675 a44.79155740703589,44.79155740703589 0 0,0 -0.726250798009989,0.25262772699920444 l -7.6233687034540205 -22.53713498791455" fill="#d7ff1c" stroke="none" /><path d="M 106.38641147887787 120.00534299687104 l 6.329282952956623 19.826388703095844 a41.81214817612141,41.81214817612141 0 0,0 -0.6856383278193827,0.21241250659822972 l -5.988003992265615 -19.932117797500716" fill="#faff18" stroke="none" /><path d="M 104.9986988182912 120.39639698878246 l 4.954337777525597 20.21538880421651 a41.813635129872424,41.813635129872424 0 0,0 -0.6986219096345174,0.16487286842491 l -4.6065837141512 -20.297457816287643" fill="#faff18" stroke="none" /><path d="M 104.64783097203109 120.47920084513623 l 4.781006958909204 21.065998815939906 a42.601720617911894,42.601720617911894 0 0,0 -0.7145679580152391,0.15573676061103742 l -4.418676584274829 -21.14496703468466" fill="#f1ff19" stroke="none" /><path d="M 104.29559338865022 120.5559693870025 l 2.431450739266425 11.635371982465614 a32.886708285636736,32.886708285636736 0 0,0 -0.5535984265852727,0.11073518974523076 l -2.2313558271501934 -11.675396568873706" fill="#ff920d" stroke="none" /><path d="M 103.94208987418118 120.62667999033965 l 3.6223943266001535 18.953897794915996 a40.296942303834214,40.296942303834214 0 0,0 -0.6805678942508113,0.12402214124187087 l -3.296491698798285 -19.01328811008923" fill="#fff116" stroke="none" /><path d="M 103.2317021107853 120.74984581791261 l 1.6297142287085649 10.463934426413989 a31.590084614749166,31.590084614749166 0 0,0 -0.5365423854195208,0.07885325380488757 l -1.4498467376813586 -10.490368753517759" fill="#ff800b" stroke="none" /><path d="M 101.44090949804482 120.95050786540614 l 1.3378180749020743 19.451581198367982 a40.49753236484652,40.49753236484652 0 0,0 -0.6939650355327764,0.041747213270450535 l -1.0037086872368326 -19.471680389463128" fill="#fff417" stroke="none" /><line stroke="#e1ed5e" stroke-width="0.3" x1="101.45913802915013" x2="101.54496967792366" y1="184.9874750549273" y2="189.98673829345242" /><path d="M 101.47630435890484 185.9873277026323 a86.0,86.0 0 0,1 -42.54439059252881,-10.42667462771756" fill="none" id="id91" stroke="none" /><text fill="#e1ed5e" style="font-size:6.75px; font-family:Arial;" text-anchor="middle"><textPath startOffset="22.145653131862474" xlink:href="#id91">July</textPath></text><path d="M 100.0 121.0 l 1.8925581825245683e-15 15.453910334328569 a36.45391033432857,36.45391033432857 0 0,0 -0.6257798456476145,-0.005371567348506593 l 0.26528692079876043 -15.451633165174497" fill="#ffc011" stroke="none" /><path d="M 99.63950707515114 120.99690560180557 l -0.09716806710330424 5.659552773007769 a26.660386843999667,26.660386843999667 0 0,0 -0.4575261171571895,-0.011784249821099133 l 0.19430749833123764 -5.657050805836622" fill="#ff3c05" stroke="none" /><path d="M 98.91894614982273 120.97215588758144 l -1.0714600187301622 20.786038120520278 a41.813635129872424,41.813635129872424 0 0,0 -0.7165177504456067,-0.04310392859627269 l 1.4281221213082151 -20.764582214099313" fill="#faff18" stroke="none" /><path d="M 98.19965949673042 120.92268563240118 l -1.390649743335348 16.16145798627739 a37.22117846985378,37.22117846985378 0 0,0 -0.6361284382930853,-0.06024202448659918 l 1.6678777450134485 -16.135204206285607" fill="#ffca12" stroke="none" /><path d="M 97.48249496171623 120.84855314841334 l -2.49498513766162 20.662056065834335 a41.81214817612141,41.81214817612141 0 0,0 -0.7118462041596091,-0.09216274278595908 l 2.8493091637120234 -20.61618172684798" fill="#faff18" stroke="none" /><path d="M 97.12497278360702 120.80226474461374 l -2.3748823422901775 17.183465582496236 a38.3468024593743,38.3468024593743 0 0,0 -0.6513019865466808,-0.0957189632066751 l 2.669509434444543 -17.140165545990676" fill="#ffd914" stroke="none" /><path d="M 96.76829788921471 120.74984581791261 l -2.309722902318952 14.830077916300885 a36.00886507664893,36.00886507664893 0 0,0 -0.609960161775757,-0.1003687125031354 l 2.5639605671477725 -14.788243205302082" fill="#ffbb11" stroke="none" /><path d="M 96.41257539226777 120.69131181640829 l -4.063111767915846 23.43494894740376 a44.7845687244061,44.7845687244061 0 0,0 -0.7563586190210705,-0.13783373601688587 l 4.4648051204879735 -23.36174703745551" fill="#d7ff1c" stroke="none" /><path d="M 95.70440661134978 120.55596938700252 l -4.717057016501539 22.572825417821868 a44.06042224766041,44.06042224766041 0 0,0 -0.7390350788217305,-0.16106925571264513 l 5.103854511942407 -22.488524703975504" fill="#dfff1b" stroke="none" /><path d="M 95.00130118170881 120.39639698878247 l -4.954691721999779 20.21683301845508 a41.81512208362345,41.81512208362345 0 0,0 -0.6957134437691718,-0.17684763683986623 l 5.3010104589943285 -20.128800149779952" fill="#faff18" stroke="none" /><path d="M 94.6519064749342 120.30758222061772 l -4.504258949495163 17.103404892063974 a38.68657139148188,38.68657139148188 0 0,0 -0.6407575744773871,-0.17464132624617917 l 4.797197924907245 -17.023563071673653" fill="#ffdd14" stroke="none" /><path d="M 94.30408787586889 120.21278271476187 l -4.03251784036194 14.309983216791714 a35.86730707955203,35.86730707955203 0 0,0 -0.5911956775438688,-0.17208844555489897 l 4.277573530287415 -14.2386510769343" fill="#ffb911" stroke="none" /><path d="M 93.95794788825049 120.11202640906438 l -6.162341264215626 20.51242987569752 a42.41808182966119,42.41808182966119 0 0,0 -0.6955744673172087,-0.21549074801357315 l 6.513556364404469 -20.403622539877297" fill="#f3ff19" stroke="none" /><path d="M 93.27111125876986 119.89276391827306 l -4.845543162843417 14.324987364351134 a36.12231964785159,36.12231964785159 0 0,0 -0.585687682878008,-0.20373257896904495 l 5.090736617766447 -14.2396963528135" fill="#ffbc11" stroke="none" /><path d="M 91.92203290615298 119.3841803445677 l -0.5903397456289107 1.4166004838709159 a22.534684966425527,22.534684966425527 0 0,0 -0.3557957679500426,-0.15186805641373033 l 0.6145705887493844 -1.4062577777977816" fill="#ff0000" stroke="none" /><path d="M 90.93487009805054 118.94263497670748 l -6.6943978993397275 13.9887168929327 a36.50803545086562,36.50803545086562 0 0,0 -0.5629882428733265,-0.27538576128996806 l 6.933546391475123 -13.871737381545511" fill="#ffc112" stroke="none" /><path d="M 90.28995756902619 118.62028667847754 l -9.626276885615328 18.459655200351488 a41.81883946800099,41.81883946800099 0 0,0 -0.6336772585497267,-0.33739744816420025 l 9.941742959951615 -18.291687284464714" fill="#faff18" stroke="none" /><path d="M 89.97174638481275 118.45085714620012 l -3.991608733309906 7.344110485028921 a29.358761815971768,29.358761815971768 0 0,0 -0.4407390614774188,-0.24447052786912332 l 4.117091982943427 -7.2745070417266495" fill="#ff6209" stroke="none" /><line stroke="#e1ed5e" stroke-width="0.3" x1="58.13341422392154" x2="55.67067388415222" y1="173.97424548756322" y2="178.32567169271397" /><path d="M 57.64086615596768 174.84453072859336 a86.0,86.0 0 0,1 -31.369924170532247,-30.572349798747897" fill="none" id="id92" stroke="none" /><text fill="#e1ed5e" style="font-size:6.75px; font-family:Arial;" text-anchor="middle"><textPath startOffset="22.145653131862474" xlink:href="#id92">August</textPath></text><path d="M 89.65649057296885 118.27599006163327 l -7.360362063006829 13.005054509061862 a35.94343911160414,35.94343911160414 0 0,0 -0.5343720200782818,-0.3085198296396024 l 7.58252655094551 -12.876787782146089" fill="#ffba11" stroke="none" /><path d="M 86.68645165197938 116.24036423190432 l -1.6867672015138573 2.0575817213363523 a23.660606346696248,23.660606346696248 0 0,0 -0.311898243145597,-0.260196607477475 l 1.721839778821347 -2.028322929947007" fill="#ff1101" stroke="none" /><path d="M 86.13680546590413 115.77377054828092 l -10.307357203050866 11.727880401607493 a36.61360916718789,36.61360916718789 0 0,0 -0.4685408227354199,-0.41897209285609627 l 10.507163052609657 -11.549212778868014" fill="#ffc212" stroke="none" /><path d="M 85.86807049272751 115.53346607816431 l -11.999223433904294 13.189248508418322 a38.83080590533061,38.83080590533061 0 0,0 -0.4892131046874414,-0.45280834617112165 l 12.223866309905704 -12.981322416114821" fill="#ffdf14" stroke="none" /><path d="M 85.60350026404147 115.28858382429668 l -8.170719094393379 8.677020530719824 a32.91852909590852,32.91852909590852 0 0,0 -0.4080761356432468,-0.3909277068905869 l 8.31846771590194 -8.535480693523656" fill="#ff920d" stroke="none" /><path d="M 85.34317274990678 115.03919595460226 l -6.33583419487254 6.5011240404673405 a30.077852649964008,30.077852649964008 0 0,0 -0.3666749192157716,-0.3635409643789406 l 6.446501034218273 -6.39140306585974" fill="#ff6b09" stroke="none" /><path d="M 84.3458050057657 113.99807769240083 l -9.633379187006172 8.614227071384795 a33.92311505009618,33.92311505009618 0 0,0 -0.3844440979991737,-0.43742681209336887 l 9.779834348963938 -8.447587981480126" fill="#ff9f0e" stroke="none" /><path d="M 84.1078160697243 113.72728997021213 l -12.585164809436506 10.870765617866036 a37.63009075138369,37.63009075138369 0 0,0 -0.41806213085802635,-0.4924761389484784 l 12.769921503801644 -10.653122696468003" fill="#ffd013" stroke="none" /><path d="M 83.20337586046588 112.60449989151573 l -25.626125612876095 19.230322404322386 a53.03909508243152,53.03909508243152 0 0,0 -0.5402359676777759,-0.7329338454766485 l 25.9524636001377 -18.78758224957686" fill="#7aff26" stroke="none" /><path d="M 82.78059297857968 112.02048342749411 l -19.503894007445407 13.615232765939995 a44.786055678157126,44.786055678157126 0 0,0 -0.4346598949889863,-0.6341817767572685 l 19.734743639249718 -13.278416254112676" fill="#d7ff1c" stroke="none" /><path d="M 82.576782715395 111.72311816256416 l -15.23608814082668 10.251520066157692 a39.363878825070515,39.363878825070515 0 0,0 -0.3724114624679719,-0.5638784198668653 l 15.40982404221538 -9.988461767951767" fill="#ffe515" stroke="none" /><path d="M 82.37810715431573 111.42229804090323 l -12.475718679035666 8.086610120393987 a35.86730707955203,35.86730707955203 0 0,0 -0.33046139851975176,-0.5195402066524089 l 12.612697769181308 -7.871256239062906" fill="#ffb911" stroke="none" /><path d="M 82.18462484594161 111.11811171558189 l -4.344464781423256 2.71126733883409 a26.121068718505494,26.121068718505494 0 0,0 -0.23413437788021635,-0.3824409103857295 l 4.390367123758877 -2.6362893123238034" fill="#ff3404" stroke="none" /><line stroke="#e1ed5e" stroke-width="0.3" x1="26.387840678322732" x2="22.057713659400548" y1="142.50000000000003" y2="145.00000000000006" /><path d="M 25.521815274538298 143.00000000000003 a86.0,86.0 0 0,1 -11.493303480769221,-40.785679425670985" fill="none" id="id93" stroke="none" /><text fill="#e1ed5e" style="font-size:6.75px; font-family:Arial;" text-anchor="middle"><textPath startOffset="21.40746469413373" xlink:href="#id93">September</textPath></text><path d="M 81.4637452351635 109.86951160357371 l -10.592814331205915 5.640076988727174 a33.000757638339806,33.000757638339806 0 0,0 -0.2619504769535503,-0.5023245790234806 l 10.688072877134415 -5.45740616659919" fill="#ff930d" stroke="none" /><path d="M 81.29705330413844 109.54985784667822 l -12.92747357784616 6.6008601207443345 a35.515196431311,35.515196431311 0 0,0 -0.27258773538575787,-0.545358070056408 l 13.038881226443655 -6.377970194524174" fill="#ffb410" stroke="none" /><path d="M 81.1358732173502 109.22738970284198 l -13.351840021669462 6.531054023834337 a35.86358969517448,35.86358969517448 0 0,0 -0.2657675447897289,-0.5553519523779755 l 13.461986824419103 -6.300889569391257" fill="#ffb911" stroke="none" /><path d="M 80.9802524753101 108.90220220490708 l -20.26166384287569 9.483481749849085 a43.371219184063634,43.371219184063634 0 0,0 -0.30982650741837925,-0.6770268334913195 l 20.421474815149125 -9.134265934143077" fill="#e7ff1a" stroke="none" /><path d="M 80.68587082218212 108.24405325689762 l -13.544666447244492 5.781412690676308 a35.726938645455945,35.726938645455945 0 0,0 -0.2359239544740667,-0.5661316056377944 l 13.641916246255045 -5.548048575597232" fill="#ffb711" stroke="none" /><path d="M 80.5471966667186 107.91128576633889 l -9.730373172566866 3.9572580600550795 a31.504287383315436,31.504287383315436 0 0,0 -0.19943912899933156,-0.5027168883600244 l 9.79687097653232 -3.78964015448149" fill="#ff7f0b" stroke="none" /><path d="M 80.41425534168474 107.57618678355246 l -22.38109964961381 8.657490145251408 a44.99720311080166,44.99720311080166 0 0,0 -0.27248874046969435,-0.7228087577057188 l 22.52641907389794 -8.272013107351544" fill="#d4ff1c" stroke="none" /><path d="M 80.16572619554312 106.89939002012753 l -4.712082476513004 1.6391068880558823 a25.989027225415107,25.989027225415107 0 0,0 -0.14295769160419497,-0.42262901331069924 l 4.739525589689566 -1.5579762002710213" fill="#ff3204" stroke="none" /><path d="M 79.94057633289273 106.21446072829308 l -15.668635815548852 4.854183428077357 a37.403330304353474,37.403330304353474 0 0,0 -0.18474338396606194,-0.6149506406937522 l 15.749655519518544 -4.584495183792881" fill="#ffcd13" stroke="none" /><path d="M 79.83685265289637 105.86919833188381 l -37.50635229347884 10.917552529196469 a60.06301851611457,60.06301851611457 0 0,0 -0.2796691676694477,-0.9924472138837812 l 37.68823995322286 -10.272097391409693" fill="#32ff2f" stroke="none" /><path d="M 79.64726062577567 105.17358676015961 l -26.00506380975569 6.610385528428909 a47.8320804371172,47.8320804371172 0 0,0 -0.19545662543717307,-0.7975297315206406 l 26.114707961709158 -6.1629999723001685" fill="#b3ff20" stroke="none" /><path d="M 79.48165901384964 104.47187691870673 l -20.50332821556442 4.468604955231981 a41.98463481123948,41.98463481123948 0 0,0 -0.14743062291351322,-0.7055089011274446 l 20.5770165493023 -4.115979602819127" fill="#f8ff18" stroke="none" /><path d="M 79.2786578344484 103.40968896794605 l -30.441937329681114 5.009209203083275 a51.85131642611846,51.85131642611846 0 0,0 -0.1369825555232186,-0.8795262711140632 l 30.5234413773426 -4.485894750037762" fill="#87ff25" stroke="none" /><path d="M 79.13060592940153 102.33845913500099 l -7.737268066156713 0.8669770252096585 a28.78568984032949,28.78568984032949 0 0,0 -0.05081031681646791,-0.4915437237956343 l 7.751010775454847 -0.7340287791310928" fill="#ff5a08" stroke="none" /><path d="M 79.03789590574601 101.26102812881392 l -44.66095550779864 2.6866921804132593 a65.74169489125175,65.74169489125175 0 0,0 -0.058098160172028054,-1.1270887862891195 l 44.70049525742724 -1.9196316007474092" fill="#36ff70" stroke="none" /><path d="M 79.01933749520258 100.90099992219065 l -15.089824708862468 0.6480220005181812 a36.103732725963866,36.103732725963866 0 0,0 -0.021275952050759057,-0.619426129857912 l 15.098725347910076 -0.38888960609614925" fill="#ffbc11" stroke="none" /><line stroke="#e1ed5e" stroke-width="0.3" x1="15.003131293944662" x2="10.003315487706104" y1="100.72959589197737" y2="100.7725132973878" /><path d="M 14.003168132696942 100.73817937305945 a86.0,86.0 0 0,1 10.791469493833604,-42.45332614584628" fill="none" id="id94" stroke="none" /><text fill="#e1ed5e" style="font-size:6.75px; font-family:Arial;" text-anchor="middle"><textPath startOffset="22.145653131862435" xlink:href="#id94">October</textPath></text><path d="M 79.00077361379809 100.18025310272382 l -23.836477444129684 0.2046074906899405 a44.83735558256724,44.83735558256724 0 0,0 0.0,-0.7697211868275073 l 23.836477444129684 0.20460749068993173" fill="#d6ff1c" stroke="none" /><path d="M 79.00077361379809 99.81974689727619 l -21.082294475521273 -0.1809661423645022 a42.083071149556865,42.083071149556865 0 0,0 0.012401617349868424,-0.7223320372072175 l 21.07608142657274 0.5428450955407721" fill="#f7ff18" stroke="none" /><path d="M 79.00696218219943 99.45929381324524 l -22.84229412245132 -0.5883364693988511 a43.84986959651628,43.84986959651628 0 0,0 0.02584075530496092,-0.7523253959668695 l 22.82882868014951 0.9803681299298592" fill="#e2ff1b" stroke="none" /><path d="M 79.01933749520258 99.09900007780938 l -23.185814639050786 -0.9956986430211234 a44.20718458288587,44.20718458288587 0 0,0 0.039067384783731916,-0.7578968278686222 l 23.165305664810482 1.3935672642664576" fill="#deff1b" stroke="none" /><path d="M 79.03789590574601 98.7389718711861 l -30.04356332674204 -1.8073461649877394 a51.09787696047771,51.09787696047771 0 0,0 0.060188527089389085,-0.875127974313763 l 30.008110838487585 2.3228175634558275" fill="#8fff24" stroke="none" /><path d="M 79.0935383218832 98.0201363427161 l -28.172910919226307 -2.6680039553157635 a49.29896031249631,49.29896031249631 0 0,0 0.08701878628217379,-0.8418278202007304 l 28.12295974046247 3.151236297799407" fill="#a3ff22" stroke="none" /><path d="M 79.17382384314186 97.30363454192245 l -20.885112832010837 -2.703995990629416 a42.05942858491568,42.05942858491568 0 0,0 0.09885063958191535,-0.7152339856237 l 20.835617675873713 3.0621182844531836" fill="#f7ff18" stroke="none" /><path d="M 79.22317932658666 96.9465228501225 l -23.638454600498402 -3.4740387913826183 a44.892372871354894,44.892372871354894 0 0,0 0.11859818387025181,-0.7614854170436467 l 23.575334924489884 3.8793123903577147" fill="#d5ff1c" stroke="none" /><path d="M 79.2786578344484 96.59031103205396 l -23.59954409963639 -3.883296000915401 a44.91690760824669,44.91690760824669 0 0,0 0.13172456917801528,-0.7597523105767268 l 23.52940471296614 4.287841344412721" fill="#d5ff1c" stroke="none" /><path d="M 79.407916724674 95.88100663000787 l -43.798972550894014 -8.761021171945687 a65.66660372682534,65.66660372682534 0 0,0 0.23059074672406032,-1.1034601978646146 l 43.642124093345586 9.51159782109571" fill="#36ff6f" stroke="none" /><path d="M 79.56144815229197 95.17655741523228 l -23.403380426865034 -5.5231340566390905 a45.046272584585246,45.046272584585246 0 0,0 0.18407295579544403,-0.7510804746955979 l 23.305119944553294 5.924070355942805" fill="#d4ff1c" stroke="none" /><path d="M 79.64726062577567 94.8264132398404 l -18.331804610251996 -4.659873045961751 a39.91479518982263,39.91479518982263 0 0,0 0.1745046699976503,-0.6626226555780746 l 18.24911045944962 4.97387620591261" fill="#ffec16" stroke="none" /><path d="M 79.73907114497095 94.47779374421319 l -23.215054868504676 -6.327366437174471 a45.06188559897093,45.06188559897093 0 0,0 0.2098199582776216,-0.7445770112777065 l 23.103016418152475 6.724951372355191" fill="#d3ff1c" stroke="none" /><path d="M 79.94057633289273 93.78553927170692 l -29.051353806545794 -9.0001836708084 a51.4135572418188,51.4135572418188 0 0,0 0.26841618862424105,-0.8408098878533703 l 28.892572902144295 9.497562592353162" fill="#8bff24" stroke="none" /><path d="M 80.05021161711548 93.44210830539832 l -14.163203198755212 -4.655726208392154 a35.908793089205425,35.908793089205425 0 0,0 0.19752329026403515,-0.5839425100770214 l 14.081194486918811 4.898170392943337" fill="#ffb911" stroke="none" /><line stroke="#e1ed5e" stroke-width="0.3" x1="26.387840678322718" x2="22.05771365940052" y1="57.49999999999999" y2="54.99999999999999" /><path d="M 25.521815274538284 56.99999999999999 a86.0,86.0 0 0,1 29.574782752854787,-30.34633250058573" fill="none" id="id95" stroke="none" /><text fill="#e1ed5e" style="font-size:6.75px; font-family:Arial;" text-anchor="middle"><textPath startOffset="21.40746469413373" xlink:href="#id95">November</textPath></text><line stroke="#e1ed5e" stroke-width="0.3" x1="56.869717070023135" x2="54.33264160355391" y1="26.7553504044142" y2="22.446841604673864" /><path d="M 56.362301976729285 25.89364864446614 a86.0,86.0 0 0,1 42.16139366436587,-11.88097634709845" fill="none" id="id96" stroke="none" /><text fill="#e1ed5e" style="font-size:6.75px; font-family:Arial;" text-anchor="middle"><textPath startOffset="22.145653131862474" xlink:href="#id96">December</textPath></text></svg>