<?xml version="1.0" encoding="utf-8" ?>
<svg baseProfile="full" height="200mm" version="1.1" viewBox="0,0,200,200" width="200mm" xmlns="http://www.w3.org/2000/svg" xmlns:ev="http://www.w3.org/2001/xml-events" xmlns:xlink="http://www.w3.org/1999/xlink"><defs /><rect fill="#1a1a1a" height="200" width="200" x="0" y="0" /><text alignment-baseline="middle" fill="#e1ed5e" style="dominant-baseline: central; font-size:9.0px; font-family:Arial;" text-anchor="middle" x="100.0" y="100.0">2023</text><line stroke="#e1ed5e" stroke-width="0.3" x1="100.0" x2="100.0" y1="15.0" y2="10.0" /><path d="M 100.0 14.0 a86.0,86.0 0 0,1 42.46469731375804,11.215312516191453" fill="none" id="id73" stroke="none" /><text fill="#e1ed5e" style="font-size:6.75px; font-family:Arial;" text-anchor="middle"><textPath startOffset="22.20632615414155" xlink:href="#id73">January</textPath></text><path d="M 101.08401301168833 79.027996857942 l 1.1266233021602312 -21.796368842492658 a42.82546619852495,42.82546619852495 0 0,0 0.735859689550676,0.04438906601934217 l -1.5016450405505193 21.773746507093012" fill="#ff5507" stroke="none" /><path d="M 101.80526077348638 79.07773832637324 l 1.9351796051432368 -22.42796978637063 a43.511302690926534,43.511302690926534 0 0,0 0.7456487869540525,0.0708083369951274 l -2.3209535191875332 22.391335904860327" fill="#ff6209" stroke="none" /><path d="M 102.16513564639614 79.11191278185805 l 2.198659136154252 -21.211504173144117 a42.325149736503725,42.325149736503725 0 0,0 0.7240287173470817,0.0813530625394297 l -2.563454557011059 21.170515157134087" fill="#ff4c07" stroke="none" /><path d="M 102.52436894288641 79.15227682838746 l 2.6962514628321683 -22.267230095894043 a43.42987534727543,43.42987534727543 0 0,0 0.7413795549875444,0.09625234397308187 l -3.079145746327559 22.217519428756823" fill="#ff6008" stroke="none" /><path d="M 102.88285421437855 79.19881850522331 l 3.1100299717066187 -22.440363988232367 a43.65484986375477,43.65484986375477 0 0,0 0.743444212667075,0.10956435147355473 l -3.4958431648023494 22.38350515259784" fill="#ff6509" stroke="none" /><path d="M 103.2404852339499 79.25152402106235 l 4.360169742556631 -27.91769461552361 a49.25612770408469,49.25612770408469 0 0,0 0.8365820081305158,0.13804319945278426 l -4.840080956826022 27.8385051531312" fill="#ffc912" stroke="none" /><path d="M 103.59715602781102 79.31037775812273 l 5.821254231006129 -33.48188126461043 a54.984163574222,54.984163574222 0 0,0 0.931077944241405,0.17014854300967014 l -6.396727296350434 33.37671724025002" fill="#d6ff1c" stroke="none" /><path d="M 103.95276090670814 79.375362276772 l 7.937781832675251 -41.417601137248994 a63.1713891683378,63.1713891683378 0 0,0 1.066193441994453,0.2138683742369481 l -8.649541684136828 41.27482880693484" fill="#5cff2a" stroke="none" /><path d="M 105.01212808612495 79.60689891045804 l 10.171550901577586 -41.38550775418515 a63.617140915541285,63.617140915541285 0 0,0 1.0611675709517294,0.2705152417171792 l -10.88242736121434 41.204289516299106" fill="#56ff2b" stroke="none" /><path d="M 105.71112130821622 79.79150937346287 l 11.47992571405101 -40.62108974151725 a63.21210284016336,63.21210284016336 0 0,0 1.0445341925623535,0.3049281738224437 l -12.17745012433679 40.4174632387761" fill="#5bff2a" stroke="none" /><path d="M 106.0581310904928 79.89281104454417 l 5.0303270156651845 -16.69586450026563 a38.437203941451195,38.437203941451195 0 0,0 0.631861192032866,0.19632234810729066 l -5.316973580408769 16.606802017275818" fill="#ff0000" stroke="none" /><path d="M 106.40334571778207 80.00007090966166 l 15.783389487212363 -49.29714628289296 a72.76218711899637,72.76218711899637 0 0,0 1.1895480347220455,0.39217528451198924 l -16.629620344176825 49.018157274121734" fill="#3aff93" stroke="none" /><path d="M 107.08798089147638 80.2323363322302 l 14.330143795988795 -39.96532541594936 a63.45680459969219,63.45680459969219 0 0,0 1.025031889057698,0.37752789533991077 l -15.01595801081907 39.71273425280312" fill="#58ff2a" stroke="none" /><path d="M 107.76421540070413 80.48803036053334 l 15.838384888971776 -39.802873715195766 a63.83833787484094,63.83833787484094 0 0,0 1.0175105440655163,0.4150680990925727 l -16.52117930262568 39.52434472991962" fill="#52ff2b" stroke="none" /><path d="M 108.76106565485865 80.91482961587045 l 17.8601482668003 -38.90667941389823 a63.810216060281014,63.810216060281014 0 0,0 0.9942901446002035,0.46683255486506847 l -18.527216622700102 38.59348187639316" fill="#53ff2b" stroke="none" /><path d="M 109.08828744355905 81.06846463323043 l 27.264862330677165 -56.79460610030869 a84.0,84.0 0 0,0 1.2981149319582728,0.6369793594606721 l -28.23844852964587 56.31687158071319" fill="#4dd2ff" stroke="none" /><path d="M 109.73455568895987 81.39251694778311 l 21.034454030396038 -40.20709926464557 a66.37685629959293,66.37685629959293 0 0,0 1.00783759176208,0.5383519378931777 l -21.72343666868643 39.83906860025064" fill="#30ff2f" stroke="none" /><path d="M 110.05341064243156 81.56283822128135 l 26.085806570427078 -47.83931075464376 a75.48916367415737,75.48916367415737 0 0,0 1.1354861114649855,0.6318967916655363 l -26.9054167709641 47.38319856541804" fill="#3fffbb" stroke="none" /><path d="M 110.36928655335952 81.73862282372117 l 27.816080777215955 -48.98697128531056 a77.33345103499735,77.33345103499735 0 0,0 1.151912198737129,0.6672618962962711 l -28.655189708418412 48.50090523162424" fill="#42ffd5" stroke="none" /><line stroke="#e1ed5e" stroke-width="0.3" x1="143.23703022742887" x2="145.7803849466894" y1="26.81831364943548" y2="22.513508569990506" /><path d="M 143.74570117128098 25.957352633546492 a86.0,86.0 0 0,1 28.547481713284135,27.462654790039103" fill="none" id="id74" stroke="none" /><text fill="#e1ed5e" style="font-size:6.75px; font-family:Arial;" text-anchor="middle"><textPath startOffset="19.985693538727396" xlink:href="#id74">February</textPath></text><path d="M 110.99172775467656 82.1063720568725 l 29.590381112428332 -48.1707045642453 a77.53324183694544,77.53324183694544 0 0,0 1.1311762073014116,0.7083424372378393 l -30.415176472102008 47.654217785684516" fill="#42ffd8" stroke="none" /><path d="M 111.2981086023043 82.29822771554956 l 30.44137114483765 -47.69525935716821 a77.58193035170589,77.58193035170589 0 0,0 1.1195182428511554,0.7281658065762762 l -31.257856413473085 47.16419462643241" fill="#42ffd8" stroke="none" /><path d="M 111.60114157652 82.49532879139004 l 23.930905055155687 -36.10874170890176 a64.31892709381268,64.31892709381268 0 0,0 0.9176023151482935,0.619569179276601 l -24.548912064710525 35.69146061732649" fill="#4cff2c" stroke="none" /><line stroke="#e1ed5e" stroke-width="0.3" x1="172.23445277983987" x2="176.4835382374775" y1="55.19839476539836" y2="52.563006222186495" /><path d="M 173.08426987136738 54.67131705675599 a86.0,86.0 0 0,1 12.851231095245387,41.99856678651699" fill="none" id="id75" stroke="none" /><text fill="#e1ed5e" style="font-size:6.75px; font-family:Arial;" text-anchor="middle"><textPath startOffset="22.20632615414155" xlink:href="#id75">March</textPath></text><line stroke="#e1ed5e" stroke-width="0.3" x1="184.98032266829074" x2="189.97916517819016" y1="98.17113171792111" y2="98.06355123074" /><path d="M 185.9800911702706 98.14961562048488 a86.0,86.0 0 0,1 -9.607161424134198,41.387399972396054" fill="none" id="id76" stroke="none" /><text fill="#e1ed5e" style="font-size:6.75px; font-family:Arial;" text-anchor="middle"><textPath startOffset="21.466115282336823" xlink:href="#id76">April</textPath></text><line stroke="#e1ed5e" stroke-width="0.3" x1="174.80103733775053" x2="179.2010983576182" y1="140.37084112569926" y2="142.7455964860345" /><path d="M 175.68104954172406 140.8457921977663 a86.0,86.0 0 0,1 -30.038265399797805,32.042727171017184" fill="none" id="id77" stroke="none" /><text fill="#e1ed5e" style="font-size:6.75px; font-family:Arial;" text-anchor="middle"><textPath startOffset="22.206326154141568" xlink:href="#id77">May</textPath></text><line stroke="#e1ed5e" stroke-width="0.3" x1="143.8653032363475" x2="146.44561519142675" y1="172.8068346515853" y2="177.08958963109032" /><path d="M 144.38136562736335 173.6633856474863 a86.0,86.0 0 0,1 -40.68145358897372,12.25698825130547" fill="none" id="id78" stroke="none" /><text fill="#e1ed5e" style="font-size:6.75px; font-family:Arial;" text-anchor="middle"><textPath startOffset="21.466115282336833" xlink:href="#id78">June</textPath></text><line stroke="#e1ed5e" stroke-width="0.3" x1="102.19456741930631" x2="102.32365962044197" y1="184.97166512339345" y2="189.96999836594603" /><path d="M 102.22038585953345 185.97133177190398 a86.0,86.0 0 0,1 -42.740103519485714,-10.115201625700543" fill="none" id="id79" stroke="none" /><text fill="#e1ed5e" style="font-size:6.75px; font-family:Arial;" text-anchor="middle"><textPath startOffset="22.20632615414155" xlink:href="#id79">July</textPath></text><line stroke="#e1ed5e" stroke-width="0.3" x1="58.666819895761336" x2="56.23545636021788" y1="174.27360380694188" y2="178.64263932499728" /><path d="M 58.180547188652646 175.14741091055294 a86.0,86.0 0 0,1 -31.652253787137756,-30.449443065178592" fill="none" id="id80" stroke="none" /><text fill="#e1ed5e" style="font-size:6.75px; font-family:Arial;" text-anchor="middle"><textPath startOffset="22.20632615414155" xlink:href="#id80">August</textPath></text><line stroke="#e1ed5e" stroke-width="0.3" x1="26.63291911575756" x2="22.317208475507996" y1="142.92168965132927" y2="145.44649492493687" /><path d="M 25.769776987707644 143.4266507060508 a86.0,86.0 0 0,1 -11.730757126820373,-40.83630448921669" fill="none" id="id81" stroke="none" /><text fill="#e1ed5e" style="font-size:6.75px; font-family:Arial;" text-anchor="middle"><textPath startOffset="21.46611528233685" xlink:href="#id81">September</textPath></text><line stroke="#e1ed5e" stroke-width="0.3" x1="15.007084014347285" x2="10.007500721073583" y1="101.09737516637583" y2="101.16192664675087" /><path d="M 14.007167355692545 101.11028546245083 a86.0,86.0 0 0,1 10.666146001902534,-42.60595125391555" fill="none" id="id82" stroke="none" /><text fill="#e1ed5e" style="font-size:6.75px; font-family:Arial;" text-anchor="middle"><textPath startOffset="22.20632615414155" xlink:href="#id82">October</textPath></text><line stroke="#e1ed5e" stroke-width="0.3" x1="26.266209847984243" x2="21.928928074336255" y1="57.711370442889674" y2="55.22380399835377" /><path d="M 25.398753493254645 57.213857153982495 a86.0,86.0 0 0,1 29.58750427330803,-30.492523968695096" fill="none" id="id83" stroke="none" /><text fill="#e1ed5e" style="font-size:6.75px; font-family:Arial;" text-anchor="middle"><textPath startOffset="21.46611528233685" xlink:href="#id83">November</textPath></text><line stroke="#e1ed5e" stroke-width="0.3" x1="56.762969772571076" x2="54.21961505331055" y1="26.818313649435495" y2="22.513508569990535" /><path d="M 56.25429882871897 25.957352633546506 a86.0,86.0 0 0,1 42.265352541879196,-11.944610805530505" fill="none" id="id84" stroke="none" /><text fill="#e1ed5e" style="font-size:6.75px; font-family:Arial;" text-anchor="middle"><textPath startOffset="22.20632615414155" xlink:href="#id84">December</textPath></text></svg>