<?xml version="1.0" encoding="utf-8" ?>
<svg baseProfile="full" height="200mm" version="1.1" viewBox="0,0,200,200" width="200mm" xmlns="http://www.w3.org/2000/svg" xmlns:ev="http://www.w3.org/2001/xml-events" xmlns:xlink="http://www.w3.org/1999/xlink"><defs /><rect fill="#1a1a1a" height="200" width="200" x="0" y="0" /><text alignment-baseline="middle" fill="#e1ed5e" style="dominant-baseline: central; font-size:9.0px; font-family:Arial;" text-anchor="middle" x="100.0" y="100.0">2021</text><line stroke="#e1ed5e" stroke-width="0.3" x1="100.0" x2="100.0" y1="15.0" y2="10.0" /><path d="M 100.0 14.0 a86.0,86.0 0 0,1 42.46469731375804,11.215312516191453" fill="none" id="id49" stroke="none" /><text fill="#e1ed5e" style="font-size:6.75px; font-family:Arial;" text-anchor="middle"><textPath startOffset="22.20632615414155" xlink:href="#id49">January</textPath></text><path d="M 100.0 79.0 l 0.0 -62.58700092238767 a83.58700092238767,83.58700092238767 0 0,0 1.4388128168751413,0.012384316164262173 l -1.077332337602613 62.57772798283197" fill="#4cd6ff" stroke="none" /><path d="M 100.72285384407766 79.0124445844662 l 0.307794250193639 -8.936590619870387 a29.94188957701937,29.94188957701937 0 0,0 0.5149422817298508,0.022174497861150836 l -0.46157736431282126 8.929968395485043" fill="#ff4d07" stroke="none" /><path d="M 103.2404852339499 79.25152402106235 l 6.011334042694525 -38.489920793185036 a59.9565160100145,59.9565160100145 0 0,0 1.0183208648780528,0.16803166801474176 l -6.672984113711453 38.38074286223067" fill="#3cff2e" stroke="none" /><path d="M 105.71112130821622 79.79150937346287 l 11.406008982836047 -40.359539427789386 a62.94030834101989,62.94030834101989 0 0,0 1.0400429854208417,0.3036170673008276 l -12.099042185980316 40.157224031569854" fill="#32ff45" stroke="none" /><path d="M 108.09893153111575 80.62456947434976 l 17.339874457798487 -41.48294519959809 a65.96116089076294,65.96116089076294 0 0,0 1.043807862809846,0.44690405274571676 l -18.051366078398647 41.17832161888959" fill="#36ff6a" stroke="none" /><path d="M 110.05341064243156 81.56283822128135 l 20.08165132805639 -36.82816384287732 a62.94742390301752,62.94742390301752 0 0,0 0.9468368983778291,0.526913708828703 l -20.712612315506256 36.47703473648844" fill="#32ff45" stroke="none" /><line stroke="#e1ed5e" stroke-width="0.3" x1="143.23703022742887" x2="145.7803849466894" y1="26.81831364943548" y2="22.513508569990506" /><path d="M 143.74570117128098 25.957352633546492 a86.0,86.0 0 0,1 28.547481713284135,27.462654790039103" fill="none" id="id50" stroke="none" /><text fill="#e1ed5e" style="font-size:6.75px; font-family:Arial;" text-anchor="middle"><textPath startOffset="19.985693538727396" xlink:href="#id50">February</textPath></text><path d="M 112.48926042617603 83.11751280151076 l 5.550377515791216 -7.502780321622148 a30.332652523389115,30.332652523389115 0 0,0 0.41707952775424273,0.3141356533390824 l -5.678703197303842 7.406128078777218" fill="#ff5207" stroke="none" /><path d="M 113.89432698308785 84.25364557470407 l 9.945247120582005 -11.27088675820377 a36.03132823823955,36.03132823823955 0 0,0 0.46152530468613207,0.41436197547112646 l -10.137783412864126 11.098025773963348" fill="#ffa30f" stroke="none" /><path d="M 114.16331599549186 84.49514656593476 l 9.36973619124613 -10.257229762251225 a34.89254183686916,34.89254183686916 0 0,0 0.43996523775054414,0.4088997393453447 l -9.544909312791521 10.094425436831239" fill="#ff930d" stroke="none" /><path d="M 114.42810811169701 84.74124197986012 l 9.40517206859469 -9.946643289713002 a34.68915535643695,34.68915535643695 0 0,0 0.43033839215637437,0.41398519229777087 l -9.574993704363482 9.78327501065293" fill="#ff900d" stroke="none" /><path d="M 114.68862486808459 84.99185889309783 l 10.397034660876018 -10.623197520880518 a35.8644090130452,35.8644090130452 0 0,0 0.4374846493951709,0.43560595127850427 l -10.578355110438512 10.442655718951896" fill="#ffa10e" stroke="none" /><path d="M 114.94478906791727 85.2469230424477 l 10.320943405581025 -10.188546097579602 a35.502701278165766,35.502701278165766 0 0,0 0.42558564984703,0.43860342220213905 l -10.494793319131164 10.009378479827348" fill="#ff9c0e" stroke="none" /><path d="M 115.19652480421416 85.50635884689758 l 10.439225581179263 -9.956380912032037 a35.42591250494136,35.42591250494136 0 0,0 0.4170687247731771,0.44489983631215213 l -10.609061627922904 9.77521165884183" fill="#ff9b0e" stroke="none" /><path d="M 115.4437574822437 85.77008943001954 l 11.58325418713452 -10.67283472832218 a36.7505929634998,36.7505929634998 0 0,0 0.42465548065356185,0.4689151881314807 l -11.765253308404116 10.47186675292115" fill="#ffad10" stroke="none" /><path d="M 115.68641384162765 86.03803664274999 l 11.590075607379221 -10.315946816891774 a36.51607589932797,36.51607589932797 0 0,0 0.4138630082975667,0.4731169619390283 l -11.765930479254637 10.114914298749797" fill="#ffaa0f" stroke="none" /><path d="M 115.9244219780498 86.31012108654704 l 7.22156634165434 -6.208223376583909 a30.52329028857557,30.52329028857557 0 0,0 0.3390837936084013,0.40136825909823565 l -7.327360748749858 6.0829961678565665" fill="#ff5507" stroke="none" /><path d="M 116.15771136456269 86.58626213691792 l 12.081784730738109 -10.030002989887842 a36.702562920015815,36.702562920015815 0 0,0 0.3993614748516236,0.48956994713576935 l -12.252644697666142 9.820548873143972" fill="#ffac0f" stroke="none" /><path d="M 116.38621287248628 86.86637796730983 l 11.915577248229752 -9.550387822822602 a36.27058901040981,36.27058901040981 0 0,0 0.38627472507769356,0.49052967403617737 l -12.07820605390141 9.343865754833386" fill="#ffa60f" stroke="none" /><path d="M 116.60985879189232 87.15038557335679 l 12.670320958691162 -9.801933961080316 a37.01920542891027,37.01920542891027 0 0,0 0.38557099528994243,0.5073662336775175 l -12.83716789420522 9.582382951521764" fill="#ffb010" stroke="none" /><path d="M 116.82858285166822 87.43820079747576 l 12.754724532814732 -9.52084259720335 a36.91632626169456,36.91632626169456 0 0,0 0.37573329194139043,0.5124997879504902 l -12.916720437269749 9.299880365581368" fill="#ffaf10" stroke="none" /><path d="M 117.04232023915458 87.72973835380427 l 12.857771839789471 -9.257438098060922 a36.843688232968766,36.843688232968766 0 0,0 0.36613394162384566,0.5178704950671296 l -13.015218401217199 9.034741102662" fill="#ffae10" stroke="none" /><path d="M 117.2510076193507 88.02491185347247 l 15.040603536128454 -10.440697557867699 a39.309230465146925,39.309230465146925 0 0,0 0.3810665521949138,0.5591681442032309 l -15.2180945539921 10.180251390394062" fill="#ffcf13" stroke="none" /><path d="M 117.45458315368197 88.32363383020206 l 13.4610706017621 -9.004877859287111 a37.19531558835156,37.19531558835156 0 0,0 0.351413131507275,0.5352263083547371 l -13.614080368627299 8.771833486954701" fill="#ffb310" stroke="none" /><path d="M 117.65298651832404 88.62581576622439 l 13.793773768092382 -8.887613659844298 a37.409078930030304,37.409078930030304 0 0,0 0.34411436662565364,0.5443062887578898 l -13.944715730963992 8.648859723372203" fill="#ffb610" stroke="none" /><line stroke="#e1ed5e" stroke-width="0.3" x1="172.23445277983987" x2="176.4835382374775" y1="55.19839476539836" y2="52.563006222186495" /><path d="M 173.08426987136738 54.67131705675599 a86.0,86.0 0 0,1 12.851231095245387,41.99856678651699" fill="none" id="id51" stroke="none" /><text fill="#e1ed5e" style="font-size:6.75px; font-family:Arial;" text-anchor="middle"><textPath startOffset="22.20632615414155" xlink:href="#id51">March</textPath></text><path d="M 118.03404312379186 89.2402003453031 l 14.785586548456047 -8.821646257942296 a38.2172881802609,38.2172881802609 0 0,0 0.33219982025172085,0.5678371769640732 l -14.935246043178095 8.565829668624328" fill="#ffc111" stroke="none" /><path d="M 118.21658344932153 89.55222093294921 l 37.024606619747246 -21.234767270368287 a63.68180919752273,63.68180919752273 0 0,0 0.5371783756197339,0.9555803902535963 l -37.384642636659414 20.594303370179897" fill="#33ff4e" stroke="none" /><path d="M 118.3937258080291 89.86733742301442 l 13.44419901183303 -7.406086924775346 a36.34915667413362,36.34915667413362 0 0,0 0.29718360958037265,0.5506360941842753 l -13.569690720631867 7.173569847258612" fill="#ffa70f" stroke="none" /><path d="M 118.56541770881063 90.18545643968196 l 14.476590913662449 -7.652999482991257 a37.374983528791674,37.374983528791674 0 0,0 0.2957795094419621,0.5713518675148782 l -14.606179856264527 7.402674893216035" fill="#ffb510" stroke="none" /><path d="M 118.73160827565052 90.50648371742162 l 13.899552915308561 -7.044543638763403 a36.58278429305574,36.58278429305574 0 0,0 0.2798408569030828,0.5641420913960631 l -14.018753785165051 6.80424195886839" fill="#ffaa0f" stroke="none" /><path d="M 118.89224826269711 90.83032412892265 l 30.53431219338096 -14.820350752664517 a54.94093424693635,54.94093424693635 0 0,0 0.4056257941745869,0.8543513700062592 l -30.7848961813973 14.292556967017717" fill="#71ff27" stroke="none" /><path d="M 119.04729006885535 91.15688171328212 l 11.704977996730236 -5.434290368568735 a33.90496112794835,33.90496112794835 0 0,0 0.2412058398077747,0.5314650949707612 l -11.796786153501357 5.232003264755912" fill="#ff850c" stroke="none" /><path d="M 119.196687751892 91.48605970444005 l 14.923841053657545 -6.618886203363066 a37.32576755830807,37.32576755830807 0 0,0 0.2554314076372166,0.5895709060977342 l -15.035563171137444 6.3610161526787286" fill="#ffb510" stroke="none" /><path d="M 119.34039704204932 91.81776055985345 l 17.50913380161659 -7.407496590835755 a40.0115957306628,40.0115957306628 0 0,0 0.2628920230432514,0.636613886207452 l -17.63404751154604 7.105008134175" fill="#ffd814" stroke="none" /><path d="M 119.47837535516314 92.15188598940014 l 17.489672941282773 -7.046837569792836 a39.85594281196468,39.85594281196468 0 0,0 0.25091489120418137,0.6385510295191537 l -17.608381382368652 6.744737535377897" fill="#ffd614" stroke="none" /><path d="M 119.61058180528143 92.48833698450437 l 15.052357279442074 -5.765674705355275 a37.11882329687705,37.11882329687705 0 0,0 0.223411854521154,0.5986326967308963 l -15.149373722464853 5.505718871595046" fill="#ffb210" stroke="none" /><path d="M 119.85752413597 93.16781622104841 l 50.98622950965001 -17.542332458996523 a74.91965344577679,74.91965344577679 0 0,0 0.40907096256066183,1.2230701105214867 l -51.28063776598244 16.66208924555272" fill="#41ffd0" stroke="none" /><path d="M 119.97218684219823 93.5106431181261 l 19.106348197965353 -6.208028852603041 a41.08960337330346,41.08960337330346 0 0,0 0.2127747162374366,0.6745539964071816 l -19.210378397971 5.87822468976944" fill="#ffe615" stroke="none" /><path d="M 120.08093135843002 93.85539295169968 l 18.42223123229273 -5.637057856275359 a40.2653841085782,40.2653841085782 0 0,0 0.1970973350901912,0.6645142315903084 l -18.516534464494626 5.3191142379385195" fill="#ffdc14" stroke="none" /><path d="M 120.18372546131832 94.20196356495316 l 19.581135461099 -5.624934656420182 a41.37303992620899,41.37303992620899 0 0,0 0.19073607651157576,0.686179149975952 l -19.67505830817694 5.287044203025278" fill="#ffea16" stroke="none" /><path d="M 120.28053869075195 94.5502522615342 l 10.155349090087022 -2.7289260695165694 a31.515614705494798,31.515614705494798 0 0,0 0.13627301993434085,0.5251155350703736 l -10.200818441891665 2.5537141088973456" fill="#ff6409" stroke="none" /><path d="M 120.37134235888165 94.90015583598534 l 8.945129558467192 -2.239359879748652 a30.22117538542627,30.22117538542627 0 0,0 0.1219887814404398,0.5057222546214301 l -8.98235114016845 2.085052393467816" fill="#ff5107" stroke="none" /><path d="M 120.45610955862082 95.25157060432595 l 36.4223912945259 -8.454645444093424 a58.3907958887864,58.3907958887864 0 0,0 0.2188420658983732,0.9810260708055267 l -36.56252774742631 7.826441203737933" fill="#4cff2c" stroke="none" /><path d="M 120.53481517161879 95.60439243477599 l 15.589555600542004 -3.3370433560528077 a36.94271313743576,36.94271313743576 0 0,0 0.12775265899289898,0.6229673356827498 l -15.6446875554499 3.068200364206646" fill="#ffaf10" stroke="none" /><path d="M 120.6074358757038 95.95851677861258 l 20.711398242563504 -4.0618720831484705 a42.10594281196468,42.10594281196468 0 0,0 0.1333641097728902,0.7124364071523179 l -20.778248076246257 3.70475759853359" fill="#fff417" stroke="none" /><path d="M 120.67395015179393 96.31383870115 l 19.10695167116975 -3.40676577393951 a40.408288312030564,40.408288312030564 0 0,0 0.11619911001512644,0.6858137249637484 l -19.1627626427051 3.077366260659924" fill="#ffde14" stroke="none" /><path d="M 120.73433829027371 96.67025291283417 l 18.963998232293005 -3.0454464951320137 a40.20697720384767,40.20697720384767 0 0,0 0.10385674075853112,0.6842861590803084 l -19.013610866490836 2.718561223659623" fill="#ffdb14" stroke="none" /><path d="M 120.78858239683441 97.02765380044208 l 7.897415081048047 -1.1291703904764083 a28.977730926340758,28.977730926340758 0 0,0 0.06635072576971135,0.4943899752139722 l -7.915681805875594 0.9930620731977718" fill="#ff3f05" stroke="none" /><path d="M 120.83666639777658 97.38593545837742 l 18.581318774577294 -2.3311198450819104 a39.72697325075767,39.72697325075767 0 0,0 0.07928302024643429,0.6792485001469344 l -18.618692147827318 2.010927606610123" fill="#ffd513" stroke="none" /><path d="M 120.87857604477298 97.74499172005257 l 15.525107604551913 -1.676802389217728 a36.615397285544866,36.615397285544866 0 0,0 0.06228605882508498,0.627212112218519 l -15.551670789059227 1.409314746294774" fill="#ffab0f" stroke="none" /><path d="M 120.91429891909075 98.10471618934814 l 26.267675199177845 -2.3804144590770546 a47.375312952958225,47.375312952958225 0 0,0 0.066608598530908,0.812793615470351 l -26.304758281528247 1.9279069263989348" fill="#c9ff1d" stroke="none" /><path d="M 120.94382443527127 98.46500227214037 l 19.216509885885262 -1.4084007963010796 a40.26805244432731,40.26805244432731 0 0,0 0.04471558020975782,0.6917302342606898 l -19.237906057099437 1.0774114977873546" fill="#ffdc14" stroke="none" /><path d="M 120.96714384426684 98.82574320788733 l 20.508118783730318 -1.1485492709028906 a41.54025563315325,41.54025563315325 0 0,0 0.03383828033054402,0.7142726160558575 l -20.52485067229436 0.7953655482240335" fill="#ffec16" stroke="none" /><path d="M 120.98425023603335 99.18683210126433 l 15.535249993559058 -0.6020118160763838 a36.5469100013177,36.5469100013177 0 0,0 0.018949234418875638,0.6288328382308548 l -15.543310922433578 0.33450883042052987" fill="#ffaa0f" stroke="none" /><line stroke="#e1ed5e" stroke-width="0.3" x1="184.98032266829074" x2="189.97916517819016" y1="98.17113171792111" y2="98.06355123074" /><path d="M 185.9800911702706 98.14961562048488 a86.0,86.0 0 0,1 -9.607161424134198,41.387399972396054" fill="none" id="id52" stroke="none" /><text fill="#e1ed5e" style="font-size:6.75px; font-family:Arial;" text-anchor="middle"><textPath startOffset="21.466115282336823" xlink:href="#id52">April</textPath></text><path d="M 120.99513854157772 99.54816195383933 l 15.95710363092202 -0.3434140962061634 a36.96079852417973,36.96079852417973 0 0,0 0.008214084935042684,0.6361899304582539 l -15.96065072297478 0.06868790768744679" fill="#ffb010" stroke="none" /><path d="M 120.99980553446 99.90962569577887 l 16.32176215033636 -0.07024197893541854 a37.32191329555936,37.32191329555936 0 0,0 -0.0027648476988016775,0.6424532338880281 l -16.32055300534806 -0.2107207331562943" fill="#ffb410" stroke="none" /><path d="M 120.99824983174949 100.27111621757518 l 34.688438333862095 0.4478753358028409 a55.69132955593622,55.69132955593622 0 0,0 -0.020626841441650643,0.9584482701763968 l -34.67558942973544 -1.0449134217693525" fill="#69ff28" stroke="none" /><path d="M 120.9904718944345 100.63252640178507 l 29.947962063078155 0.9024512064246258 a50.96155619976282,50.96155619976282 0 0,0 -0.03396919492286772,0.8765939822347032 l -29.927990735304085 -1.417822435673335" fill="#9eff22" stroke="none" /><path d="M 120.9764740272857 100.99374915477107 l 11.928017681564288 0.5650834107643696 a32.94139544076953,32.94139544076953 0 0,0 -0.03170789565308845,0.5661657770453837 l -11.91652343502367 -0.7703209041451767" fill="#ff780b" stroke="none" /><path d="M 120.95626037817324 101.35467743843564 l 15.573405269740572 1.0067130479303243 a36.60590986954803,36.60590986954803 0 0,0 -0.046059719617930706,0.628448279569051 l -15.553768991458304 -1.2746344639961456" fill="#ffab0f" stroke="none" /><path d="M 120.92983693683757 101.71520430193887 l 19.939153523293943 1.6340175990564034 a41.00599551983133,41.00599551983133 0 0,0 -0.06370653137594938,0.7029962651539625 l -19.908072395640918 -1.9769952527589363" fill="#ffe515" stroke="none" /><path d="M 120.89721153311464 102.0752229133903 l 15.662877610660967 1.555421040542387 a36.73991962050336,36.73991962050336 0 0,0 -0.06791233917639465,0.6287839164412393 l -15.633782969983521 -1.8248012788684176" fill="#ffad10" stroke="none" /><path d="M 120.8583938346157 102.4346265915055 l 15.882326224267201 1.853811662928486 a36.99015021741995,36.99015021741995 0 0,0 -0.07926194916744146,0.6317957213919426 l -15.848062765852912 -2.1269251386078234" fill="#ffb010" stroke="none" /><path d="M 120.81339534386255 102.79330883721812 l 30.026191711997246 4.029733028727554 a51.29539465015153,51.29539465015153 0 0,0 -0.12497988313109303,0.8741090115289815 l -29.952377777849552 -4.545987512236945" fill="#9bff22" stroke="none" /><path d="M 120.76222939487914 103.15116336523771 l 31.62700011468499 4.800151381544068 a52.989194887336936,52.989194887336936 0 0,0 -0.14463084232142562,0.9006163931964374 l -31.539687518002275 -5.3438470044337105" fill="#87ff25" stroke="none" /><path d="M 120.70491114924044 103.5080841355445 l 3.7527480940545823 0.6358373604482092 a24.806232705231256,24.806232705231256 0 0,0 -0.07495446272899496,0.420384432606676 l -3.7412471889863985 -0.7003405437881035" fill="#ff0000" stroke="none" /><path d="M 120.64145759157962 103.86396538481128 l 15.596495428210238 2.919576691306707 a36.86740677296086,36.86740677296086 0 0,0 -0.12213656953373056,0.6227717367290543 l -15.543928925700843 -3.187612155103706" fill="#ffae10" stroke="none" /><path d="M 120.5718875245553 104.21870165774334 l 15.136444998819586 3.104048937300488 a36.45144287784952,36.45144287784952 0 0,0 -0.13133968882064462,0.6135753009362246 l -15.080771271274498 -3.3641380576528817" fill="#ffa90f" stroke="none" /><path d="M 120.49622156327973 104.57218783832717 l 15.634624142047757 3.48768860340366 a37.01890894716036,37.01890894716036 0 0,0 -0.14409069843853725,0.6207389576692762 l -15.572272877678666 -3.7562962184215007" fill="#ffb010" stroke="none" /><path d="M 120.41448212921028 104.9243191809786 l 7.393875410030884 1.7835280989706686 a28.605942811964688,28.605942811964688 0 0,0 -0.11958467251490623,0.477681322473628 l -7.362079423220917 -1.9105372608416926" fill="#ff3905" stroke="none" /><path d="M 120.32669344350535 105.2749913415812 l 29.40900199626788 7.631946205418093 a51.383153248122284,51.383153248122284 0 0,0 -0.22954059284912426,0.8542059371880841 l -29.27327332707698 -8.137043075781726" fill="#9aff23" stroke="none" /><path d="M 120.23288151984713 105.62410040840565 l 29.004189676044994 8.062246341061574 a51.10386743971538,51.10386743971538 0 0,0 -0.24288296448001498,0.8455074626063764 l -28.86111407467888 -8.560311279172533" fill="#9dff22" stroke="none" /><path d="M 120.13307415673323 105.97154293290107 l 15.202417100861014 4.509092138385649 a36.85702991171432,36.85702991171432 0 0,0 -0.18564223855238243,0.6066895767772227 l -15.1225480898025 -4.770108687714929" fill="#ffae10" stroke="none" /><path d="M 120.02730092923936 106.31721596034902 l 14.503045007296382 4.574698693421619 a36.20743839768085,36.20743839768085 0 0,0 -0.19260244951775396,0.5927693881004235 l -14.422150306762381 -4.823666981499838" fill="#ffa50f" stroke="none" /><path d="M 119.9155931802556 106.66101706037122 l 18.43672270611421 6.166390494685939 a40.4406048227698,40.4406048227698 0 0,0 -0.22648504425519667,0.6582715539048192 l -18.327846830915785 -6.482834751680059" fill="#ffde14" stroke="none" /><path d="M 119.79798401119884 107.00284435728193 l 18.45865820052839 6.529104698208038 a40.57935828172354,40.57935828172354 0 0,0 -0.23859839294140414,0.6565203034425272 l -18.34353554658176 -6.845872798656697" fill="#ffe015" stroke="none" /><path d="M 119.67450827220406 107.3425965602758 l 15.108924613043326 5.638704477810572 a37.12682830412439,37.12682830412439 0 0,0 -0.22860529906061847,0.5968162987478376 l -15.009625034389202 -5.897944343391553" fill="#ffb210" stroke="none" /><path d="M 119.54520255179757 107.68017299344265 l 41.11186904803001 16.154668417268038 a65.17192647252602,65.17192647252602 0 0,0 -0.41926461382131924,1.040580387863793 l -40.8277018199513 -16.859948172974644" fill="#35ff61" stroke="none" /><path d="M 119.41010516605496 108.01547362559984 l 5.131859638641144 2.1192201295099315 a26.552213730399263,26.552213730399263 0 0,0 -0.17808825005232568,0.4209480167050753 l -5.094620407396509 -2.20724267188117" fill="#ff1b02" stroke="none" /><path d="M 119.26925614724726 108.34839909993367 l 14.003608985461376 6.067059141084167 a36.26139807616286,36.26139807616286 0 0,0 -0.2530681508652351,0.5706018721604225 l -13.897099749864868 -6.307209349737277" fill="#ffa60f" stroke="none" /><path d="M 119.12269723197855 108.67885076344098 l 14.180036331464843 6.43562033368142 a36.5721109500593,36.5721109500593 0 0,0 -0.2651049334451893,0.571012441798885 l -14.067156781179822 -6.6787528427591365" fill="#ffaa0f" stroke="none" /><path d="M 118.97047184881838 109.00673069616215 l 56.56136368511814 26.85399575610852 a83.61249835287916,83.61249835287916 0 0,0 -0.628474312919502,1.294843232556739 l -56.09073611558392 -27.823627944630537" fill="#4cd6ff" stroke="none" /><path d="M 118.81262510543309 109.33194174019688 l 8.57808321767651 4.25513039149434 a30.575471076558173,30.575471076558173 0 0,0 -0.23793734072583778,0.46947294637344145 l -8.503567207164403 -4.402157549570476" fill="#ff5608" stroke="none" /><path d="M 118.64920377521936 109.65438752849418 l 7.10995847485115 3.6807091206180504 a29.00619317433127,29.00619317433127 0 0,0 -0.2333582658451188,0.4414258956203491 l -7.045547700781138 -3.802550031324534" fill="#ff3f05" stroke="none" /><line stroke="#e1ed5e" stroke-width="0.3" x1="174.80103733775053" x2="179.2010983576182" y1="140.37084112569926" y2="142.7455964860345" /><path d="M 175.68104954172406 140.8457921977663 a86.0,86.0 0 0,1 -30.038265399797805,32.042727171017184" fill="none" id="id53" stroke="none" /><text fill="#e1ed5e" style="font-size:6.75px; font-family:Arial;" text-anchor="middle"><textPath startOffset="22.206326154141568" xlink:href="#id53">May</textPath></text><path d="M 118.48025628344425 109.97397251340804 l 4.624847376094151 2.496074724309683 a26.255435498748188,26.255435498748188 0 0,0 -0.21807463481456926,0.39586880624802406 l -4.581196331828072 -2.575314048955512" fill="#ff1602" stroke="none" /><path d="M 118.30583269289576 110.29060199501025 l 14.651247887359443 8.236181509381025 a37.80755040189749,37.80755040189749 0 0,0 -0.32379107000712204,0.5645570229879302 l -14.507304821199941 -8.487158378227269" fill="#ffbb11" stroke="none" /><path d="M 118.12598468904814 110.60418214915192 l 25.673758267540727 15.01983002814695 a50.744531558835156,50.744531558835156 0 0,0 -0.44756465230624387,0.7501441011359664 l -25.411412739536253 -15.459536223169021" fill="#a1ff22" stroke="none" /><path d="M 117.94076556474637 110.91462005526583 l 25.47777496368536 15.499908996560205 a50.82220977730927,50.82220977730927 0 0,0 -0.4611156215614286,0.7434652043672891 l -25.20719470245597 -15.936170532292767" fill="#a0ff22" stroke="none" /><path d="M 117.75023020441432 111.22182372390056 l 12.707722033332729 8.03391364214097 a36.034293055738566,36.034293055738566 0 0,0 -0.3359685396171304,0.5214306343685396 l -12.567548630338548 -8.251465876430961" fill="#ffa30f" stroke="none" /><path d="M 117.55443506779139 111.5257021239791 l 13.85877757123787 9.09924708324248 a37.57896297272367,37.57896297272367 0 0,0 -0.35967880282871223,0.5376710083681085 l -13.700095662998438 -9.336455005816395" fill="#ffb811" stroke="none" /><path d="M 117.35343817320211 111.8261652097733 l 12.546395659832084 8.550221943308317 a36.18283041243906,36.18283041243906 0 0,0 -0.35517599226316465,0.5116575071323346 l -12.397358760406783 -8.764920712627672" fill="#ffa50f" stroke="none" /><path d="M 117.14729908036423 112.12312394758627 l 13.206903140309151 9.337267810128685 a37.17426538410858,37.17426538410858 0 0,0 -0.37390266917694553,0.5193181050351787 l -13.044220678756602 -9.563219520614995" fill="#ffb210" stroke="none" /><path d="M 116.93607887273984 112.41649034213515 l 25.11790772597247 18.414903534499476 a52.14511134536829,52.14511134536829 0 0,0 -0.5369425154936106,0.7193222453955186 l -24.797203943783767 -18.84453865940431" fill="#91ff24" stroke="none" /><path d="M 116.71984013943494 112.70617746262583 l 12.205628081383232 9.275619572407338 a36.330181842139936,36.330181842139936 0 0,0 -0.3826661215575843,0.4946475460254731 l -12.044155142607579 -9.484345112546064" fill="#ffa70f" stroke="none" /><path d="M 116.498646956653 112.99209946851258 l 23.896608200732096 18.81773163094385 a51.41635920411122,51.41635920411122 0 0,0 -0.5535389449239567,0.6906249442963105 l -23.569151343753287 -19.22628440881841" fill="#99ff23" stroke="none" /><path d="M 116.27256486870786 113.27417163493432 l 4.089583521655431 3.3360342404438654 a26.277671629990778,26.277671629990778 0 0,0 -0.28893426156422963,0.3480399311020368 l -4.031553260197658 -3.4059354286596726" fill="#ff1602" stroke="none" /><path d="M 116.0416608686014 113.55231037782055 l 12.380929277862217 10.459652383491843 a37.20776782184741,37.20776782184741 0 0,0 -0.41753758044617584,0.485690535669008 l -12.199049187845262 -10.671220018322378" fill="#ffb310" stroke="none" /><path d="M 115.80600337817218 113.82643327865902 l 11.491434265229108 10.052227963186734 a36.267624192910795,36.267624192910795 0 0,0 -0.4150763104307589,0.46634263496271305 l -11.316699105150011 -10.248544767890314" fill="#ffa60f" stroke="none" /><path d="M 115.56566222782051 114.09645910891815 l 46.38163280712376 42.00378889771294 a83.57454868889181,83.57454868889181 0 0,0 -0.9748517095943082,1.0580089952136493 l -45.65173468953373 -42.795949147727924" fill="#4cd6ff" stroke="none" /><path d="M 115.32070863581623 114.36230785411682 l 8.537813347414565 8.00372271357556 a32.70272763209909,32.70272763209909 0 0,0 -0.38852934744032536,0.40737146747132 l -8.398777448595274 -8.149501297629387" fill="#ff740a" stroke="none" /><path d="M 115.07121518719521 114.62390073753431 l 14.539979179476829 14.10843184212116 a41.259783897746736,41.259783897746736 0 0,0 -0.498967091857878,0.5054510297142311 l -14.294971462563415 -14.356623365816056" fill="#ffe915" stroke="none" /><path d="M 114.81725581225074 114.88116024355365 l 31.430988487117542 31.566545264297364 a65.54608644090129,65.54608644090129 0 0,0 -0.8063730739803407,0.78920577192429 l -30.882965460761408 -32.10290113914423" fill="#35ff65" stroke="none" /><path d="M 114.55890576462653 115.13401014063108 l 10.778175294783633 11.203933650362439 a36.54661351956779,36.54661351956779 0 0,0 -0.45711836885518586,0.43223394964256534 l -10.58372109153764 -11.387802236750925" fill="#ffaa0f" stroke="none" /><path d="M 114.29624159901734 115.38237550388516 l 5.041078207796862 5.424065996626257 a28.404928185531688,28.404928185531688 0 0,0 -0.36101372047998964,0.3297774741057749 l -4.946964937850009 -5.510036237318615" fill="#ff3605" stroke="none" /><path d="M 114.0293411484842 115.62618273729858 l 10.69690056188051 11.914438542305781 a37.01179338516273,37.01179338516273 0 0,0 -0.4777299823661777,0.4215411647255431 l -10.490228226607744 -12.096802848803613" fill="#ffb010" stroke="none" /><path d="M 113.75828350139079 115.86535959552629 l 29.99386348945738 34.58741273003019 a66.7812294109896,66.7812294109896 0 0,0 -0.8749438917900714,0.7456461660858601 l -29.39405412109026 -35.098583286339" fill="#37ff74" stroke="none" /><path d="M 113.48314897796784 116.09983520530334 l 21.33488843560246 25.47536843937636 a54.229081565423634,54.229081565423634 0 0,0 -0.7208074555474362,0.5931754635938102 l -20.89321085151033 -25.83883902182735" fill="#79ff26" stroke="none" /><path d="M 113.20401910651253 116.32954008644616 l 10.118325617857904 12.513432648929722 a37.09243642113586,37.09243642113586 0 0,0 -0.49993981932669224,0.39718242847783486 l -9.90142830581386 -12.685748991412684" fill="#ffb110" stroke="none" /><path d="M 112.92097659922987 116.55440617244103 l 9.966187638297809 12.768718903567725 a37.19768744235077,37.19768744235077 0 0,0 -0.5081403758899412,0.3896203720151998 l -9.744918533914374 -12.938378617410295" fill="#ffb310" stroke="none" /><path d="M 112.63410532772338 116.77436683061366 l 9.318969648460756 12.37284408446545 a36.48968902358677,36.48968902358677 0 0,0 -0.5049739073812886,0.3735676244595622 l -9.104610770660903 -12.531421657664781" fill="#ffa90f" stroke="none" /><path d="M 112.34349029814194 116.9893568818739 l 26.634885741736852 36.65977518874203 a66.31397417314534,66.31397417314534 0 0,0 -0.9292566848043587,0.6629999713126719 l -25.999901729083607 -37.11281942189893" fill="#36ff6e" stroke="none" /><path d="M 112.04921762599082 117.19931262002967 l 4.5210933613400694 6.45350598849644 a28.879595467123465,28.879595467123465 0 0,0 -0.40959946117899576,0.28172624432620563 l -4.40933701553819 -6.53037302218774" fill="#ff3d05" stroke="none" /><path d="M 111.7513745106137 117.40417183066458 l 16.977531931257804 25.14428271563735 a51.33927394913691,51.33927394913691 0 0,0 -0.7366581994854853,0.48821688587512213 l -16.542199033032357 -25.43279762260379" fill="#9aff23" stroke="none" /><path d="M 111.45004920935366 117.60387380957326 l 16.262861198660755 25.003329775207987 a50.826953485307676,50.826953485307676 0 0,0 -0.7375189368327353,0.47071947998741726 l -15.83006045978109 -25.279563684019212" fill="#a0ff22" stroke="none" /><path d="M 111.1453310114006 117.79835938074945 l 8.02273751878571 12.811783286715146 a36.116418500461194,36.116418500461194 0 0,0 -0.529743243909125,0.32541156748286626 l -7.801015074944276 -12.94798332102639" fill="#ffa40f" stroke="none" /><line stroke="#e1ed5e" stroke-width="0.3" x1="143.8653032363475" x2="146.44561519142675" y1="172.8068346515853" y2="177.08958963109032" /><path d="M 144.38136562736335 173.6633856474863 a86.0,86.0 0 0,1 -40.68145358897372,12.25698825130547" fill="none" id="id54" stroke="none" /><text fill="#e1ed5e" style="font-size:6.75px; font-family:Arial;" text-anchor="middle"><textPath startOffset="21.466115282336833" xlink:href="#id54">June</textPath></text><path d="M 110.8373102113329 117.98757091392108 l 23.71945559581672 39.36912215756163 a66.9623797601792,66.9623797601792 0 0,0 -0.9924211435126928,0.5863399044242802 l -23.038266581275646 -39.77158063427966" fill="#37ff76" stroke="none" /><path d="M 110.5260780823613 118.17145234162733 l 4.6172831826934475 7.970940424877563 a30.211687969429438,30.211687969429438 0 0,0 -0.45224196983724374,0.256794793263984 l -4.479392445935004 -8.049238383936176" fill="#ff5107" stroke="none" /><path d="M 110.21172684928248 118.3499491758327 l 7.7862422860512295 13.991477869367264 a37.01208986691263,37.01208986691263 0 0,0 -0.5593710956583624,0.3050137213988906 l -7.544248378524219 -14.123432242525924" fill="#ffb010" stroke="none" /><path d="M 109.89434966115114 118.52300852407294 l 7.318229642500147 13.70030721487383 a36.53238239557254,36.53238239557254 0 0,0 -0.55722163969918,0.2915120259695186 l -7.081317100274471 -13.824248659788065" fill="#ffaa0f" stroke="none" /><path d="M 109.57404056367764 118.69057910512821 l 28.722121691032903 56.07173731538463 a84.0,84.0 0 0,0 -1.292584369268958,0.6481286363627916 l -27.752683414081186 -56.55783379265672" fill="#4dd2ff" stroke="none" /><path d="M 109.2508944713604 118.85261126421891 l 4.403112662777512 8.973204876662821 a30.995289234418237,30.995289234418237 0 0,0 -0.480998672055508,0.23090859282780754 l -4.2480013227217714 -9.04766774599019" fill="#ff5c08" stroke="none" /><path d="M 108.92500713936063 119.00905698771935 l 6.576318839443894 14.006668861595646 a36.47367900909211,36.47367900909211 0 0,0 -0.5706081365044207,0.261938208907417 l -6.334242707172053 -14.117794140837137" fill="#ffa90f" stroke="none" /><path d="M 108.59647513512805 119.15986991738527 l 6.535225748751575 14.56574622256054 a36.96465278692845,36.96465278692845 0 0,0 -0.5827729669622215,0.2554705425974403 l -6.2835321071316 -14.676081318452434" fill="#ffb010" stroke="none" /><path d="M 108.2653958097858 119.30500536409082 l 6.095890834112349 14.237818485609907 a36.48791013308736,36.48791013308736 0 0,0 -0.5795123529845918,0.2422362105474028 l -5.849907021630296 -14.340639739177284" fill="#ffa90f" stroke="none" /><path d="M 107.93186726928326 119.44442032107085 l 6.000972788053454 14.710966946975104 a36.887864013704046,36.887864013704046 0 0,0 -0.5899931462874705,0.2347704489786361 l -5.746858565724117 -14.812084240359809" fill="#ffaf10" stroke="none" /><path d="M 107.59598834532513 119.57807347666477 l 5.804661744923288 14.961067471783888 a37.04766767690077,37.04766767690077 0 0,0 -0.59651998537796,0.2255528162837987 l -5.546271538785053 -15.058768538174318" fill="#ffb110" stroke="none" /><path d="M 107.2578585660854 119.70592522655815 l 18.5605971409716 50.394167382835626 a74.70351825009882,74.70351825009882 0 0,0 -1.2104831434594405,0.43403618831717966 l -17.69039443688242 -50.70619111219277" fill="#41ffce" stroke="none" /><path d="M 106.91757812671514 119.82793768551818 l 9.974872117143947 28.591096354362513 a51.28116352615628,51.28116352615628 0 0,0 -0.8359568764380387,0.28360196001508126 l -9.481245507768682 -28.75856130127572" fill="#9bff22" stroke="none" /><path d="M 106.57524785965236 119.94407469862006 l 5.023059621338067 15.235969569804958 a37.04262748715246,37.04262748715246 0 0,0 -0.6072850459797242,0.1944334942930344 l -4.760053230267403 -15.320175910757698" fill="#ffb110" stroke="none" /><path d="M 106.2309692047433 120.05430185196036 l 4.717211871495637 15.182291496258733 a36.89824087495059,36.89824087495059 0 0,0 -0.6081621221882018,0.1832342585853453 l -4.4551747748671895 -15.261241123949805" fill="#ffaf10" stroke="none" /><path d="M 105.88484417918355 120.15858648285463 l 4.332294602328752 14.840313991519281 a36.45974436684675,36.45974436684675 0 0,0 -0.60396231829046,0.17068578396542083 l -4.076201115933686 -14.91268856882322" fill="#ffa90f" stroke="none" /><path d="M 105.53697534728816 120.25689768951611 l 8.433508767861879 30.853798971289592 a52.98563710633812,52.98563710633812 0 0,0 -0.881856502970806,0.23290631750362023 l -7.901161822079576 -30.994396638096795" fill="#87ff25" stroke="none" /><path d="M 105.18746579009965 120.34920634021253 l 4.793545322557121 18.803949137561748 a40.40532349453156,40.40532349453156 0 0,0 -0.6754360043639648,0.1660057365963212 l -4.469156033449945 -18.8836761324721" fill="#ffdd14" stroke="none" /><path d="M 104.83641907484287 120.43548508189849 l 10.962105315011833 46.318554319737636 a68.59806957438397,68.59806957438397 0 0,0 -1.151401776929377,0.2620552957867784 l -10.163183388689593 -46.5003863491021" fill="#39ff89" stroke="none" /><path d="M 104.48393922423573 120.51570834832081 l 6.370387649438681 29.14691938178647 a50.83495849255502,50.83495849255502 0 0,0 -0.8564686844071009,0.17948134010654657 l -5.867727503602201 -29.25225670261956" fill="#a0ff22" stroke="none" /><path d="M 104.13013068566511 120.58985236759428 l 3.9094470655521527 19.489683025775918 a40.87791540387403,40.87791540387403 0 0,0 -0.6910944674844508,0.13244989951209046 l -3.5733849834959974 -19.554090123636477" fill="#ffe415" stroke="none" /><path d="M 103.7750983002368 120.6578951692458 l 6.877351044288594 37.63388013130806 a59.25711556199763,59.25711556199763 0 0,0 -1.00497536452405,0.1747278489687571 l -6.228526708292494 -37.746686558797826" fill="#43ff2d" stroke="none" /><path d="M 103.41894727170886 120.7198165907248 l 3.2623777260271463 19.770959526720777 a41.038312030570566,41.038312030570566 0 0,0 -0.6979720607315685,0.10900888136585044 l -2.9215698016870606 -19.824186715433733" fill="#ffe615" stroke="none" /><path d="M 103.06178313531738 120.77559828337769 l 3.498863729536064 23.741389928841887 a44.99782580050072,44.99782580050072 0 0,0 -0.7672588037102325,0.1063350789160965 l -3.0896763346390013 -23.79809957325059" fill="#e6ff1a" stroke="none" /><path d="M 102.70371172650421 120.8252237178851 l 3.124526900396278 24.06653456263037 a45.2685136381605,45.2685136381605 0 0,0 -0.7736013401885902,0.09367234883502407 l -2.7097981371563074 -24.116752440190744" fill="#e3ff1b" stroke="none" /><path d="M 102.34483914955558 120.86867818915974 l 5.347725627977432 47.59386808913289 a68.89336539728555,68.89336539728555 0 0,0 -1.1796099289049233,0.12227139226500158 l -4.527683102466907 -47.67886884985365" fill="#39ff8d" stroke="none" /><path d="M 101.98527174616119 120.90594882070398 l 1.4987917853974289 15.78306064094165 a36.85406509421531,36.85406509421531 0 0,0 -0.6320571884764166,0.05453655377969294 l -1.2268902791794707 -15.806521447000007" fill="#ffae10" stroke="none" /><path d="M 101.62511606390274 120.93702456842531 l 1.837926332497115 23.678744942091164 a44.74996705758335,44.74996705758335 0 0,0 -0.7685002178514606,0.053000274455419105 l -1.4300633538667238 -23.70687356106287" fill="#e9ff1a" stroke="none" /><path d="M 101.26447882468166 120.96189622390904 l 1.894665241170814 31.408810799555127 a52.46590459876136,52.46590459876136 0 0,0 -0.9019436934110925,0.04662018658136987 l -1.3537334793462419 -31.4367707928987" fill="#8dff24" stroke="none" /><path d="M 100.90346689309514 120.98055641714683 l 0.6803298055034862 15.798805662632383 a36.813447094478846,36.813447094478846 0 0,0 -0.6333309152351005,0.02181319727747297 l -0.40827853859373336 -15.80817565833595" fill="#ffae10" stroke="none" /><line stroke="#e1ed5e" stroke-width="0.3" x1="102.19456741930631" x2="102.32365962044197" y1="184.97166512339345" y2="189.96999836594603" /><path d="M 102.22038585953345 185.97133177190398 a86.0,86.0 0 0,1 -42.740103519485714,-10.115201625700543" fill="none" id="id55" stroke="none" /><text fill="#e1ed5e" style="font-size:6.75px; font-family:Arial;" text-anchor="middle"><textPath startOffset="22.20632615414155" xlink:href="#id55">July</textPath></text><path d="M 100.54218724476979 120.99299961872073 l 0.5442029814722029 21.071047120268037 a42.078073527473975,42.078073527473975 0 0,0 -0.7242243783090149,0.01246817945589987 l -0.18141891327052012 -21.077292777003098" fill="#fff316" stroke="none" /><path d="M 100.18074693466247 120.99922214144158 l 0.13841058114317675 16.080574453887074 a37.081170114639605,37.081170114639605 0 0,0 -0.6383150316112534,0.0 l 0.13841058114316568 -16.080574453887074" fill="#ffb110" stroke="none" /><path d="M 99.81925306533755 120.99922214144158 l -0.16423497423256164 19.080858625593148 a40.081565423639475,40.081565423639475 0 0,0 -0.6898615922051223,-0.011876592930259295 l 0.4926562563303519 -19.075204555383728" fill="#ffd914" stroke="none" /><path d="M 99.45781275523022 120.99299961872073 l -1.6173378252217387 62.621857440853994 a83.6427394913691,83.6427394913691 0 0,0 -1.4389723575433941,-0.0495611175088015 l 2.695030534439776 -62.5847395249191" fill="#4dd5ff" stroke="none" /><path d="M 99.09653310690486 120.98055641714683 l -0.6851768221353012 15.911364414564446 a36.92611015944129,36.92611015944129 0 0,0 -0.6347983978398186,-0.03281182624263783 l 0.9589632883886088 -15.897212781559606" fill="#ffaf10" stroke="none" /><path d="M 98.73552117531835 120.96189622390904 l -0.9371122716715987 15.534977577720438 a36.563216497562266,36.563216497562266 0 0,0 -0.6279074978439587,-0.043304177338278446 l 1.2043825302944875 -15.516545055865874" fill="#ffaa0f" stroke="none" /><line stroke="#e1ed5e" stroke-width="0.3" x1="58.666819895761336" x2="56.23545636021788" y1="174.27360380694188" y2="178.64263932499728" /><path d="M 58.180547188652646 175.14741091055294 a86.0,86.0 0 0,1 -31.652253787137756,-30.449443065178592" fill="none" id="id56" stroke="none" /><text fill="#e1ed5e" style="font-size:6.75px; font-family:Arial;" text-anchor="middle"><textPath startOffset="22.20632615414155" xlink:href="#id56">August</textPath></text><line stroke="#e1ed5e" stroke-width="0.3" x1="26.63291911575756" x2="22.317208475507996" y1="142.92168965132927" y2="145.44649492493687" /><path d="M 25.769776987707644 143.4266507060508 a86.0,86.0 0 0,1 -11.730757126820373,-40.83630448921669" fill="none" id="id57" stroke="none" /><text fill="#e1ed5e" style="font-size:6.75px; font-family:Arial;" text-anchor="middle"><textPath startOffset="21.46611528233685" xlink:href="#id57">September</textPath></text><line stroke="#e1ed5e" stroke-width="0.3" x1="15.007084014347285" x2="10.007500721073583" y1="101.09737516637583" y2="101.16192664675087" /><path d="M 14.007167355692545 101.11028546245083 a86.0,86.0 0 0,1 10.666146001902534,-42.60595125391555" fill="none" id="id58" stroke="none" /><text fill="#e1ed5e" style="font-size:6.75px; font-family:Arial;" text-anchor="middle"><textPath startOffset="22.20632615414155" xlink:href="#id58">October</textPath></text><line stroke="#e1ed5e" stroke-width="0.3" x1="26.266209847984243" x2="21.928928074336255" y1="57.711370442889674" y2="55.22380399835377" /><path d="M 25.398753493254645 57.213857153982495 a86.0,86.0 0 0,1 29.58750427330803,-30.492523968695096" fill="none" id="id59" stroke="none" /><text fill="#e1ed5e" style="font-size:6.75px; font-family:Arial;" text-anchor="middle"><textPath startOffset="21.46611528233685" xlink:href="#id59">November</textPath></text><line stroke="#e1ed5e" stroke-width="0.3" x1="56.762969772571076" x2="54.21961505331055" y1="26.818313649435495" y2="22.513508569990535" /><path d="M 56.25429882871897 25.957352633546506 a86.0,86.0 0 0,1 42.265352541879196,-11.944610805530505" fill="none" id="id60" stroke="none" /><text fill="#e1ed5e" style="font-size:6.75px; font-family:Arial;" text-anchor="middle"><textPath startOffset="22.20632615414155" xlink:href="#id60">December</textPath></text></svg>