<?xml version="1.0" encoding="utf-8" ?>
<svg baseProfile="full" height="200mm" version="1.1" viewBox="0,0,200,200" width="200mm" xmlns="http://www.w3.org/2000/svg" xmlns:ev="http://www.w3.org/2001/xml-events" xmlns:xlink="http://www.w3.org/1999/xlink"><defs /><rect fill="#1a1a1a" height="200" width="200" x="0" y="0" /><text alignment-baseline="middle" fill="#e1ed5e" style="dominant-baseline: central; font-size:9.0px; font-family:Arial;" text-anchor="middle" x="100.0" y="100.0">2017</text><line stroke="#e1ed5e" stroke-width="0.3" x1="100.0" x2="100.0" y1="15.0" y2="10.0" /><path d="M 100.0 14.0 a86.0,86.0 0 0,1 42.46469731375804,11.215312516191453" fill="none" id="id1" stroke="none" /><text fill="#e1ed5e" style="font-size:6.75px; font-family:Arial;" text-anchor="middle"><textPath startOffset="22.20632615414155" xlink:href="#id1">January</textPath></text><line stroke="#e1ed5e" stroke-width="0.3" x1="143.23703022742887" x2="145.7803849466894" y1="26.81831364943548" y2="22.513508569990506" /><path d="M 143.74570117128098 25.957352633546492 a86.0,86.0 0 0,1 28.547481713284135,27.462654790039103" fill="none" id="id2" stroke="none" /><text fill="#e1ed5e" style="font-size:6.75px; font-family:Arial;" text-anchor="middle"><textPath startOffset="19.985693538727396" xlink:href="#id2">February</textPath></text><line stroke="#e1ed5e" stroke-width="0.3" x1="172.23445277983987" x2="176.4835382374775" y1="55.19839476539836" y2="52.563006222186495" /><path d="M 173.08426987136738 54.67131705675599 a86.0,86.0 0 0,1 12.851231095245387,41.99856678651699" fill="none" id="id3" stroke="none" /><text fill="#e1ed5e" style="font-size:6.75px; font-family:Arial;" text-anchor="middle"><textPath startOffset="22.20632615414155" xlink:href="#id3">March</textPath></text><line stroke="#e1ed5e" stroke-width="0.3" x1="184.98032266829074" x2="189.97916517819016" y1="98.17113171792111" y2="98.06355123074" /><path d="M 185.9800911702706 98.14961562048488 a86.0,86.0 0 0,1 -9.607161424134198,41.387399972396054" fill="none" id="id4" stroke="none" /><text fill="#e1ed5e" style="font-size:6.75px; font-family:Arial;" text-anchor="middle"><textPath startOffset="21.466115282336823" xlink:href="#id4">April</textPath></text><line stroke="#e1ed5e" stroke-width="0.3" x1="174.80103733775053" x2="179.2010983576182" y1="140.37084112569926" y2="142.7455964860345" /><path d="M 175.68104954172406 140.8457921977663 a86.0,86.0 0 0,1 -30.038265399797805,32.042727171017184" fill="none" id="id5" stroke="none" /><text fill="#e1ed5e" style="font-size:6.75px; font-family:Arial;" text-anchor="middle"><textPath startOffset="22.206326154141568" xlink:href="#id5">May</textPath></text><line stroke="#e1ed5e" stroke-width="0.3" x1="143.8653032363475" x2="146.44561519142675" y1="172.8068346515853" y2="177.08958963109032" /><path d="M 144.38136562736335 173.6633856474863 a86.0,86.0 0 0,1 -40.68145358897372,12.25698825130547" fill="none" id="id6" stroke="none" /><text fill="#e1ed5e" style="font-size:6.75px; font-family:Arial;" text-anchor="middle"><textPath startOffset="21.466115282336833" xlink:href="#id6">June</textPath></text><path d="M 106.57524785965236 119.94407469862006 l 5.4324014629852 16.4775872914999 a38.34998180414155,38.34998180414155 0 0,0 -0.6287181024436554,0.20129568213917015 l -5.147962015450604 -16.56865582029878" fill="red" stroke="none" /><path d="M 105.53697534728816 120.25689768951611 l 4.55306539945516 16.65728564524148 a38.26834009390838,38.26834009390838 0 0,0 -0.6369119333600446,0.16821423040286862 l -4.265663023283618 -16.73319122494793" fill="red" stroke="none" /><path d="M 105.18746579009965 120.34920634021253 l 4.430178572026561 17.378546969545358 a38.934335141084475,38.934335141084475 0 0,0 -0.6508462124754605,0.15996216401679114 l -4.130379074807889 -17.45223039187618" fill="red" stroke="none" /><path d="M 104.83641907484287 120.43548508189849 l 3.983049514394437 16.829713817658593 a38.29462201432591,38.29462201432591 0 0,0 -0.6427658403174482,0.14629141259033995 l -3.6927635246841266 -16.895781963826618" fill="red" stroke="none" /><path d="M 104.48393922423573 120.51570834832081 l 3.817296386694135 17.465566643995757 a38.87785697167659,38.87785697167659 0 0,0 -0.6550151313288839,0.13726478936279832 l -3.5160897939358735 -17.5286874140851" fill="red" stroke="none" /><path d="M 104.13013068566511 120.58985236759428 l 3.3004239690974804 16.453533179966023 a37.78128578148993,37.78128578148993 0 0,0 -0.6387419055024056,0.12241640640808382 l -3.0167144490233704 -16.507906784722575" fill="red" stroke="none" /><path d="M 103.06178313531738 120.77559828337769 l 2.487055054708021 16.875805516481094 a38.058084730568154,38.058084730568154 0 0,0 -0.648929143628834,0.08993566625113295 l -2.196197319892357 -16.91611574822483" fill="red" stroke="none" /><path d="M 102.70371172650421 120.8252237178851 l 2.177262722444998 16.770272822744317 a37.91101781418922,37.91101781418922 0 0,0 -0.6478678408439578,0.07844777307616166 l -1.8882674585496597 -16.80526612454583" fill="red" stroke="none" /><path d="M 102.34483914955558 120.86867818915974 l 1.8830226180457852 16.758587916938467 a37.86404587131534,37.86404587131534 0 0,0 -0.648317935997867,0.06720080487828839 l -1.5942720854423156 -16.788518090272515" fill="red" stroke="none" /><path d="M 101.98527174616119 120.90594882070398 l 1.6319112433717182 17.1848780902816 a38.26218900615109,38.26218900615109 0 0,0 -0.6562068945815442,0.05662029203910712 l -1.3358600310486324 -17.210422634599368" fill="red" stroke="none" /><path d="M 101.62511606390274 120.93702456842531 l 1.2961780210560314 16.699183322777937 a37.74941196311123,37.74941196311123 0 0,0 -0.6482782720283453,0.044709065193301235 l -1.0085369882487556 -16.719020732487525" fill="red" stroke="none" /><path d="M 101.26447882468166 120.96189622390904 l 1.0133518912407624 16.798839781155298 a37.82937610395605,37.82937610395605 0 0,0 -0.6503264827620062,0.033614450865007715 l -0.7240373400652764 -16.813794038782508" fill="red" stroke="none" /><path d="M 100.90346689309514 120.98055641714683 l 0.719538570042941 16.709322365295918 a37.72480761208205,37.72480761208205 0 0,0 -0.6490097727254478,0.02235320883114136 l -0.4318084456428408 -16.71923237255315" fill="red" stroke="none" /><line stroke="#e1ed5e" stroke-width="0.3" x1="102.19456741930631" x2="102.32365962044197" y1="184.97166512339345" y2="189.96999836594603" /><path d="M 102.22038585953345 185.97133177190398 a86.0,86.0 0 0,1 -42.740103519485714,-10.115201625700543" fill="none" id="id7" stroke="none" /><text fill="#e1ed5e" style="font-size:6.75px; font-family:Arial;" text-anchor="middle"><textPath startOffset="22.20632615414155" xlink:href="#id7">July</textPath></text><path d="M 100.54218724476979 120.99299961872073 l 0.43232819234260156 16.739356494570337 a37.74493844474229,37.74493844474229 0 0,0 -0.649644869354753,0.011184225574720425 l -0.14412363309518064 -16.744318197424217" fill="red" stroke="none" /><path d="M 100.18074693466247 120.99922214144158 l 0.14375303634285705 16.701262178015238 a37.701880830441226,37.701880830441226 0 0,0 -0.6489999420106135,0.0 l 0.14375303634284553 -16.701262178015238" fill="red" stroke="none" /><path d="M 99.81925306533755 120.99922214144158 l -0.14382523051537616 16.709649714263747 a37.710268677383,37.710268677383 0 0,0 -0.6490481526182915,-0.011173952554952833 l 0.4314330730263356 -16.704698284429636" fill="red" stroke="none" /><path d="M 99.45781275523022 120.99299961872073 l -0.43167850896788906 16.714201342048856 a37.71977490391699,37.71977490391699 0 0,0 -0.6489231910570836,-0.02235022678341943 l 0.7193220516996157 -16.70429431683934" fill="red" stroke="none" /><path d="M 98.73552117531835 120.96189622390904 l -1.0067861144334687 16.689995623881057 a37.720334093713106,37.720334093713106 0 0,0 -0.6477789119072902,-0.04467462639568835 l 1.2939277871196888 -16.670192652969085" fill="red" stroke="none" /><path d="M 98.37488393609728 120.93702456842531 l -1.2922833853969862 16.64900716349339 a37.69908488146064,37.69908488146064 0 0,0 -0.6465495064762852,-0.055787011957215485 l 1.578677209614813 -16.624295899257515" fill="red" stroke="none" /><path d="M 98.01472825383883 120.90594882070398 l -1.5047733573882611 15.846049719464387 a36.9173375464882,36.9173375464882 0 0,0 -0.6321081524678855,-0.06552059453759389 l 1.77731410646174 -15.817799756471032" fill="red" stroke="none" /><path d="M 97.65516085044442 120.86867818915974 l -1.84737019033492 16.44128724379794 a37.54474849773217,37.54474849773217 0 0,0 -0.6416086021080297,-0.0776898664337483 l 2.130106215494339 -16.407051848638844" fill="red" stroke="none" /><path d="M 97.2962882734958 120.8252237178851 l -2.1650236290379477 16.676001730228386 a37.81595554884922,37.81595554884922 0 0,0 -0.6448005942377435,-0.08936348692495147 l 2.451752814462522 -16.63626367781083" fill="red" stroke="none" /><path d="M 96.93821686468263 120.77559828337769 l -2.438626577327365 16.54719615812051 a37.72592599167429,37.72592599167429 0 0,0 -0.6416356083993021,-0.10021028612920996 l 2.7230980493351846 -16.502767564644195" fill="red" stroke="none" /><path d="M 96.58105272829116 120.7198165907248 l -2.7164521278480573 16.462491344115993 a37.6851051365577,37.6851051365577 0 0,0 -0.6391232835509029,-0.11111977517338022 l 2.99942438287101 -16.413292990421606" fill="red" stroke="none" /><path d="M 96.22490169976321 120.6578951692458 l -3.015709212619154 16.50240598272834 a37.77569388352876,37.77569388352876 0 0,0 -0.6386473671751736,-0.12239828791266348 l 3.2993241943660223 -16.44805049646721" fill="red" stroke="none" /><path d="M 95.86986931433489 120.58985236759428 l -3.289316244309778 16.398158076627922 a37.72480761208205,37.72480761208205 0 0,0 -0.6355885261470617,-0.13319375536560654 l 3.571096231886227 -16.339108340535777" fill="red" stroke="none" /><path d="M 95.51606077576429 120.51570834832081 l -3.584588286926619 16.400839566671063 a37.78799605904334,37.78799605904334 0 0,0 -0.6342622478873662,-0.1443560226385694 l 3.866370684206848 -16.336706810454807" fill="red" stroke="none" /><path d="M 95.16358092515715 120.4354850818985 l -3.8697190833071544 16.350854914414302 a37.8025349937424,37.8025349937424 0 0,0 -0.6319264637111003,-0.15531215008571161 l 4.1505988317614655 -16.28182150601456" fill="red" stroke="none" /><path d="M 94.81253420990036 120.34920634021253 l -4.133746693267225 16.215714536374854 a37.734313838616046,37.734313838616046 0 0,0 -0.6280239676450946,-0.16586683787608733 l 4.41226110372381 -16.142156349195186" fill="red" stroke="none" /><path d="M 94.46302465271185 120.25689768951611 l -4.3139192552915535 15.782374945569146 a37.3613342446056,37.3613342446056 0 0,0 -0.618897319129716,-0.1749065643842857 l 4.584947742525883 -15.705779587846338" fill="red" stroke="none" /><path d="M 94.11515582081647 120.15858648285463 l -7.8028260668968095 26.728650630480207 a48.84429670788103,48.84429670788103 0 0,0 -0.8050587355458827,-0.2425575930224665 l 8.261759776882938 -26.590377668352012" fill="red" stroke="none" /><path d="M 93.76903079525671 120.05430185196036 l -4.74992286003544 15.287571432091845 a37.00848548325537,37.00848548325537 0 0,0 -0.606725314399839,-0.19425428591689586 l 5.01236951952622 -15.203544299515242" fill="red" stroke="none" /><path d="M 93.42475214034765 119.94407469862007 l -5.266419686245257 15.974130536017855 a37.81986987742205,37.81986987742205 0 0,0 -0.6165183883532028,-0.20915651064121174 l 5.540607807535685 -15.881111038478519" fill="red" stroke="none" /><path d="M 92.7421414339146 119.70592522655815 l -5.784744483993898 15.706250158827794 a37.73766897739276,37.73766897739276 0 0,0 -0.6076299847784443,-0.22975366741220407 l 6.054244689532625 -15.604348241308957" fill="red" stroke="none" /><path d="M 92.40401165467489 119.57807347666478 l -6.074875885521277 15.657523556042802 a37.794706336596754,37.794706336596754 0 0,0 -0.6044973950309565,-0.24054198888724704 l 6.343494356594092 -15.55063472274949" fill="red" stroke="none" /><path d="M 91.7346041902142 119.30500536409082 l -6.2376179219035315 14.56884222034824 a36.84799801176961,36.84799801176961 0 0,0 -0.5809338248547381,-0.25466431674491996 l 6.487472421416013 -14.459313350308866" fill="red" stroke="none" /><path d="M 91.40352486487194 119.15986991738527 l -6.869290423565618 15.31031136266959 a37.78072659169381,37.78072659169381 0 0,0 -0.5910560870729676,-0.27132486010479456 l 7.131814506406005 -15.189799432230721" fill="red" stroke="none" /><line stroke="#e1ed5e" stroke-width="0.3" x1="58.666819895761336" x2="56.23545636021788" y1="174.27360380694188" y2="178.64263932499728" /><path d="M 58.180547188652646 175.14741091055294 a86.0,86.0 0 0,1 -31.652253787137756,-30.449443065178592" fill="none" id="id8" stroke="none" /><text fill="#e1ed5e" style="font-size:6.75px; font-family:Arial;" text-anchor="middle"><textPath startOffset="22.20632615414155" xlink:href="#id8">August</textPath></text><path d="M 89.7882731507175 118.34994917583269 l -7.905765328884532 14.206254644510441 a37.25788413232384,37.25788413232384 0 0,0 -0.5577172294715612,-0.3166863984195323 l 8.149131325277299 -14.068065080296275" fill="red" stroke="none" /><path d="M 89.4739219176387 118.17145234162733 l -9.234691813094557 15.942097413514523 a39.423626212687395,39.423626212687395 0 0,0 -0.5842809103788562,-0.3452034606355485 l 9.507740594501794 -15.780775380585226" fill="red" stroke="none" /><path d="M 89.1626897886671 117.98757091392108 l -8.64662735402487 14.351515243526736 a37.75500386107241,37.75500386107241 0 0,0 -0.553777452183157,-0.3401753412120959 l 8.892384006140336 -14.200551435486261" fill="red" stroke="none" /><path d="M 88.24862548938628 117.40417183066458 l -11.887388928495717 17.605613653332064 a42.243061164712465,42.243061164712465 0 0,0 -0.5991335685887503,-0.4120895316668927 l 12.188679381707358 -17.39838333230007" fill="red" stroke="none" /><path d="M 87.65650970185807 116.9893568818739 l -12.085364177388696 16.634076756067785 a41.560849613448966,41.560849613448966 0 0,0 -0.5751527399924796,-0.4254842470863924 l 12.36990188779974 -16.423582560241627" fill="red" stroke="none" /><path d="M 86.24171649860922 115.8653595955263 l -13.17748593402071 15.19561309280293 a41.113497776554865,41.113497776554865 0 0,0 -0.5306727605282476,-0.46825701090230387 l 13.437101047455545 -14.966532940128337" fill="red" stroke="none" /><path d="M 85.70375840098266 115.38237550388516 l -11.34545205725519 12.207404484408091 a37.66553349369359,37.66553349369359 0 0,0 -0.4711136155878935,-0.4454673289675961 l 11.5539015072339 -12.010302518694564" fill="red" stroke="none" /><path d="M 84.67929136418377 114.36230785411682 l -18.09919597280351 16.9669844034304 a45.80845530475844,45.80845530475844 0 0,0 -0.5343307462413183,-0.5799104934408925 l 18.38857312704056 -16.65292265518816" fill="red" stroke="none" /><path d="M 82.44556493220864 111.52570212397912 l -23.164038675991264 15.208795312226334 a48.710650346608915,48.710650346608915 0 0,0 -0.4541575447432024,-0.7048625949577747 l 23.42240108411151 -14.80781111734711" fill="red" stroke="none" /><path d="M 82.24976979558568 111.22182372390057 l -14.195709699529917 8.97463019066498 a37.794706336596754,37.794706336596754 0 0,0 -0.3429156185946311,-0.5528891638845247 l 14.348089957792505 -8.728944695415192" fill="red" stroke="none" /><line stroke="#e1ed5e" stroke-width="0.3" x1="26.63291911575756" x2="22.317208475507996" y1="142.92168965132927" y2="145.44649492493687" /><path d="M 25.769776987707644 143.4266507060508 a86.0,86.0 0 0,1 -11.730757126820373,-40.83630448921669" fill="none" id="id9" stroke="none" /><text fill="#e1ed5e" style="font-size:6.75px; font-family:Arial;" text-anchor="middle"><textPath startOffset="21.46611528233685" xlink:href="#id9">September</textPath></text><path d="M 81.87401531095188 110.60418214915194 l -48.28533347130048 28.24820168647631 a76.94134720360722,76.94134720360722 0 0,0 -0.6589403670436015,-1.1489180721893655 l 48.76442583449646 -27.41286376842864" fill="red" stroke="none" /><path d="M 81.51974371655577 109.97397251340807 l -24.639630909038548 13.298246391065094 a48.99919228140561,48.99919228140561 0 0,0 -0.39420431595,-0.7456860060021436 l 24.864887733213433 -12.872145369976824" fill="red" stroke="none" /><path d="M 81.35079622478065 109.6543875284942 l -7.018343119440503 3.6332813507595696 a28.903029388530395,28.903029388530395 0 0,0 -0.2249224528514411,-0.4437933378745308 l 7.07984424207821 -3.5119338011823538" fill="red" stroke="none" /><path d="M 80.87730276802145 108.67885076344099 l -30.588202304807695 13.882479009364138 a54.59109024258186,54.59109024258186 0 0,0 -0.38099099853760043,-0.8590341230161208 l 30.822634388076573 -13.353896549855321" fill="red" stroke="none" /><path d="M 80.58989483394504 108.01547362559985 l -25.831326238137486 10.667140255280684 a48.94718763036667,48.94718763036667 0 0,0 -0.31488748039598397,-0.7815249026085125 l 26.01111633279086 -10.220915984829366" fill="red" stroke="none" /><path d="M 80.32549172779594 107.34259656027581 l -26.225634225919677 9.787500098812746 a48.992482003852196,48.992482003852196 0 0,0 -0.2880658533625664,-0.7926335090927117 l 26.390224340287467 -9.334618792713917" fill="red" stroke="none" /><path d="M 80.0844068197444 106.66101706037122 l -26.616995925287164 8.902384295032768 a49.06629505693973,49.06629505693973 0 0,0 -0.2610040653230129,-0.8032879149804546 l 26.766292241626427 -8.44289748007451" fill="red" stroke="none" /><path d="M 79.76711848015287 105.62410040840567 l -52.99271880632052 14.730297866312327 a76.00190834612961,76.00190834612961 0 0,0 -0.3395183439831682,-1.2634740618855014 l 53.23842522664546 -13.815932871251288" fill="red" stroke="none" /><path d="M 79.23777060512086 103.15116336523772 l -16.914150504786825 2.5671256400792517 a38.10785262242263,38.10785262242263 0 0,0 -0.09284878300694474,-0.6493841720970239 l 16.95583333881037 -2.2755959960018273" fill="red" stroke="none" /><line stroke="#e1ed5e" stroke-width="0.3" x1="15.007084014347285" x2="10.007500721073583" y1="101.09737516637583" y2="101.16192664675087" /><path d="M 14.007167355692545 101.11028546245083 a86.0,86.0 0 0,1 10.666146001902534,-42.60595125391555" fill="none" id="id10" stroke="none" /><text fill="#e1ed5e" style="font-size:6.75px; font-family:Arial;" text-anchor="middle"><textPath startOffset="22.20632615414155" xlink:href="#id10">October</textPath></text><path d="M 79.01574976396665 99.18683210126434 l -6.606342558087988 -0.2560046528164074 a27.61130095949868,27.61130095949868 0 0,0 0.022491891971235942,-0.4747682908649727 l 6.600957057883253 0.3696840503043891" fill="red" stroke="none" /><path d="M 79.46518482838121 95.60439243477599 l -54.73058733100491 -11.71542970855742 a76.97042507300534,76.97042507300534 0 0,0 0.28847640419450576,-1.293183155465498 l 54.52081653980837 12.655791033572875" fill="red" stroke="none" /><path d="M 79.81627453868168 94.20196356495316 l -30.291980537998004 -8.701763566178169 a52.51705528878159,52.51705528878159 0 0,0 0.25706874213072334,-0.8667080027475687 l 30.137705898755573 9.221900955672277" fill="red" stroke="none" /><path d="M 80.14247586403 93.16781622104843 l -54.72165614196495 -18.8275441032083 a78.8699928104169,78.8699928104169 0 0,0 0.452739745230868,-1.2799562263574382 l 54.389463315924274 19.76669795599235" fill="red" stroke="none" /><path d="M 80.52162464483688 92.15188598940014 l -58.435126065489385 -23.544342031799562 a84.0,84.0 0 0,0 0.5519132524552011,-1.336501718186755 l 58.02119112614798 24.546718320439627" fill="red" stroke="none" /><path d="M 81.26839172434947 90.50648371742162 l -11.165344023781644 -5.658797351007441 a33.517463586093044,33.517463586093044 0 0,0 0.2652517272575257,-0.5123819091324658 l 11.066282863364005 5.8501519824002415" fill="red" stroke="none" /><line stroke="#e1ed5e" stroke-width="0.3" x1="26.266209847984243" x2="21.928928074336255" y1="57.711370442889674" y2="55.22380399835377" /><path d="M 25.398753493254645 57.213857153982495 a86.0,86.0 0 0,1 29.58750427330803,-30.492523968695096" fill="none" id="id11" stroke="none" /><text fill="#e1ed5e" style="font-size:6.75px; font-family:Arial;" text-anchor="middle"><textPath startOffset="21.46611528233685" xlink:href="#id11">November</textPath></text><path d="M 82.34701348167596 88.62581576622439 l -22.78688232504753 -14.682059458291711 a48.107284556598,48.107284556598 0 0,0 0.4545070057058574,-0.6922453516233366 l 22.53077868398375 15.072122873892715" fill="red" stroke="none" /><path d="M 82.54541684631803 88.32363383020206 l -18.91616803489262 -12.654103656336321 a43.75846551219123,43.75846551219123 0 0,0 0.4241977618171584,-0.6224578722121478 l 18.69554580740672 12.977839551818885" fill="red" stroke="none" /><line stroke="#e1ed5e" stroke-width="0.3" x1="56.762969772571076" x2="54.21961505331055" y1="26.818313649435495" y2="22.513508569990535" /><path d="M 56.25429882871897 25.957352633546506 a86.0,86.0 0 0,1 42.265352541879196,-11.944610805530505" fill="none" id="id12" stroke="none" /><text fill="#e1ed5e" style="font-size:6.75px; font-family:Arial;" text-anchor="middle"><textPath startOffset="22.20632615414155" xlink:href="#id12">December</textPath></text><path d="M 89.94658935756843 81.56283822128135 l -5.524588429951102 -10.13165922159227 a32.53999982247943,32.53999982247943 0 0,0 0.4940733394936015,-0.26391686711416873 l 5.349370043929195 10.225254815208189" fill="red" stroke="none" /><path d="M 90.26544431104013 81.39251694778311 l -13.43446967276069 -25.679822966642927 a49.98168875318428,49.98168875318428 0 0,0 0.7657659128066515,-0.3922550430489839 l 12.990443272365274 25.907270535004415" fill="red" stroke="none" /><path d="M 90.58718382345135 81.22770947309562 l -7.248911975767461 -14.456744831806407 a37.172328093517834,37.172328093517834 0 0,0 0.5744518351648614,-0.28188102069846765 l 6.9989888735921735 14.579381012639704" fill="red" stroke="none" /></svg>