<?xml version="1.0" encoding="utf-8" ?>
<svg baseProfile="full" height="200mm" version="1.1" viewBox="0,0,200,200" width="200mm" xmlns="http://www.w3.org/2000/svg" xmlns:ev="http://www.w3.org/2001/xml-events" xmlns:xlink="http://www.w3.org/1999/xlink"><defs /><rect fill="#1a1a1a" height="200" width="200" x="0" y="0" /><rect fill="#1a1a1a" height="200" width="180" x="10" y="0" /><text alignment-baseline="middle" fill="#e1ed5e" style="dominant-baseline: central; font-size:9.0px; font-family:Arial;" text-anchor="middle" x="100.0" y="100.0">2023</text><line stroke="#e1ed5e" stroke-width="0.3" x1="100.0" x2="100.0" y1="15.0" y2="10.0" /><path d="M 100.0 14.0 a86.0,86.0 0 0,1 42.46469731375804,11.215312516191453" fill="none" id="id73" stroke="none" /><text fill="#e1ed5e" style="font-size:6.75px; font-family:Arial;" text-anchor="middle"><textPath startOffset="22.20632615414155" xlink:href="#id73">January</textPath></text><path d="M 101.08401301168833 79.027996857942 l 0.3987191629259617 -7.713873770443443 a28.724171510085707,28.724171510085707 0 0,0 0.49356053316566273,0.029772919215903793 l -0.5314417449312363 7.705867581847235" fill="#ff1f03" stroke="none" /><path d="M 101.80526077348638 79.07773832637324 l 0.6848723888407258 -7.937401367612258 a28.96689341334308,28.96689341334308 0 0,0 0.49640271836748967,0.0471394194994224 l -0.8214002342984597 7.9244364035976576" fill="#ff2303" stroke="none" /><path d="M 102.16513564639614 79.11191278185805 l 0.7781194731602157 -7.506886438528261 a28.547106327293307,28.547106327293307 0 0,0 0.48833671958152164,0.054870320384503464 l -0.9072228962514626 7.492380164673158" fill="#ff1d02" stroke="none" /><path d="M 102.52436894288641 79.15227682838746 l 0.9542205671026021 -7.880514567283422 a28.938075757754383,28.938075757754383 0 0,0 0.49399399735614746,0.06413459857948259 l -1.0897292929665956 7.862921645539802" fill="#ff2303" stroke="none" /><path d="M 102.88285421437855 79.19881850522331 l 1.1006594170525645 -7.941787754598904 a29.01769567216439,29.01769567216439 0 0,0 0.49417276613557776,0.072828219945783 l -1.237201163616798 7.921665050492152" fill="#ff2403" stroke="none" /><path d="M 103.2404852339499 79.25152402106235 l 1.5430918450149667 -9.880249952739815 a31.000023578510543,31.000023578510543 0 0,0 0.5265144294981401,0.0868793922169093 l -1.7129354806519819 9.85222429758328" fill="#ff4206" stroke="none" /><path d="M 103.59715602781102 79.31037775812273 l 2.060178952197698 -11.849451050243994 a33.02721195902055,33.02721195902055 0 0,0 0.5592684623331584,0.10220273673733725 l -2.2638425356337577 11.812232832155917" fill="#ff6108" stroke="none" /><path d="M 103.95276090670814 79.375362276772 l 2.809231552147548 -14.657952861600423 a35.92472324723247,35.92472324723247 0 0,0 0.606329935686497,0.12162408104282738 l -3.06112789730117 14.607424824480388" fill="#ff8b0c" stroke="none" /><path d="M 105.01212808612495 79.60689891045804 l 3.5997766541482634 -14.64659480890779 a36.08247762988812,36.08247762988812 0 0,0 0.6018748184748206,0.15343129253108853 l -3.851360361308109 14.582460520207833" fill="#ff8d0d" stroke="none" /><path d="M 105.71112130821622 79.79150937346287 l 4.062818834282952 -14.37606240508474 a35.93913207502682,35.93913207502682 0 0,0 0.5938681141220977,0.17336638744817334 l -4.309677166128477 14.303997688717862" fill="#ff8b0c" stroke="none" /><path d="M 106.0581310904928 79.89281104454417 l 1.7802647726920695 -5.908772794870187 a27.171137545241265,27.171137545241265 0 0,0 0.44666067241458446,0.1387796451519552 l -1.881710817817372 5.877253014835712" fill="#ff0701" stroke="none" /><path d="M 106.40334571778207 80.00007090966166 l 5.585842075526956 -17.44657407925536 a39.31896773280832,39.31896773280832 0 0,0 0.6428036683032955,0.21192226303084935 l -5.885328566072668 17.347838091965276" fill="#ffbb11" stroke="none" /><path d="M 107.08798089147638 80.2323363322302 l 5.071529168613537 -14.143983233221537 a36.025733586409345,36.025733586409345 0 0,0 0.5819316933104074,0.2143303537698056 l -5.314243187696521 14.054589611645406" fill="#ff8d0c" stroke="none" /><path d="M 107.76421540070413 80.48803036053334 l 5.605305298515725 -14.086490541550615 a36.1607606427502,36.1607606427502 0 0,0 0.5763614226229467,0.23511229586137217 l -5.846950590727059 13.987917359505664" fill="#ff8e0d" stroke="none" /><path d="M 108.76106565485865 80.91482961587045 l 6.320820236025431 -13.76932166980155 a36.15080815344895,36.15080815344895 0 0,0 0.5633015289017449,0.2644776208682406 l -6.556899976226773 13.658479066293308" fill="#ff8e0d" stroke="none" /><path d="M 109.08828744355905 81.06846463323043 l 9.649208448764254 -20.099972865468178 a43.29610129328131,43.29610129328131 0 0,0 0.6690870902903138,0.32831812939212746 l -9.993766806065 19.93089957594122" fill="#fff116" stroke="none" /><path d="M 109.73455568895987 81.39251694778311 l 7.444227265247291 -14.229548538310384 a37.05915848295864,37.05915848295864 0 0,0 0.5626902977992247,0.30056966988527795 l -7.688062609574827 14.09930014192335" fill="#ff9b0e" stroke="none" /><path d="M 110.05341064243156 81.56283822128135 l 9.231933104939449 -16.930636799782526 a40.28406210579678,40.28406210579678 0 0,0 0.605941181597489,0.3372056115204051 l -9.521998375608973 16.769215790701942" fill="#ffc912" stroke="none" /><path d="M 110.36928655335952 81.73862282372117 l 9.844288168109555 -17.336801171878527 a40.93676715041911,40.93676715041911 0 0,0 0.6097692631884337,0.353217715121311 l -10.141254163763318 17.164779299367165" fill="#ffd113" stroke="none" /><line stroke="#e1ed5e" stroke-width="0.3" x1="143.23703022742887" x2="145.7803849466894" y1="26.81831364943548" y2="22.513508569990506" /><path d="M 143.74570117128098 25.957352633546492 a86.0,86.0 0 0,1 28.547481713284135,27.462654790039103" fill="none" id="id74" stroke="none" /><text fill="#e1ed5e" style="font-size:6.75px; font-family:Arial;" text-anchor="middle"><textPath startOffset="19.985693538727396" xlink:href="#id74">February</textPath></text><path d="M 110.99172775467656 82.1063720568725 l 10.472224358563492 -17.04791917989113 a41.00747438784292,41.00747438784292 0 0,0 0.5982811791438104,0.3746436194934332 l -10.764124690079566 16.86513121907475" fill="#ffd213" stroke="none" /><path d="M 111.2981086023043 82.29822771554956 l 10.773395151613824 -16.879656092646755 a41.02470556334956,41.02470556334956 0 0,0 0.591992311580286,0.38504826678927595 l -11.062354488978391 16.69170890169795" fill="#ffd313" stroke="none" /><path d="M 111.60114157652 82.49532879139004 l 8.46929973253411 -12.779113693882623 a36.330844228570086,36.330844228570086 0 0,0 0.5183119228155609,0.34996652397963524 l -8.688016349756213 12.631435257604318" fill="#ff910d" stroke="none" /><path d="M 111.90073688211348 82.69761687909136 l 4.475624378845314 -6.507073341353284 a28.89767162208363,28.89767162208363 0 0,0 0.4074143193255319,0.2854197668214587 l -4.586969837754497 6.42906873176789" fill="#ff2203" stroke="none" /><path d="M 112.19680574252982 82.90503203632743 l 9.185586767278267 -12.874461955773235 a36.815396767386204,36.815396767386204 0 0,0 0.5127064388055087,0.3725030321743779 l -9.405838522437564 12.714439688782182" fill="#ff980e" stroke="none" /><path d="M 112.48926042617603 83.11751280151076 l 16.822359291836694 -22.73979849099647 a49.28586586185351,49.28586586185351 0 0,0 0.6776896825218386,0.5104218188949158 l -17.211295128116916 22.44686008259571" fill="#c0ff1e" stroke="none" /><path d="M 113.06298171725822 83.55741782278167 l 21.30857023109404 -26.82143515832236 a55.25557690720677,55.25557690720677 0 0,0 0.7396264228082957,0.5980597963410029 l -21.767100052466827 26.450669264717227" fill="#79ff26" stroke="none" /><path d="M 113.6212207817346 84.01681056812373 l 23.218333764716004 -27.24447630653016 a56.7959845796541,56.7959845796541 0 0,0 0.7386350286031567,0.6405370181742205 l -23.683862591965923 26.840774294936267" fill="#67ff28" stroke="none" /><path d="M 114.42810811169701 84.74124197986012 l 12.776537682434505 -13.512103965551498 a39.596151987078976,39.596151987078976 0 0,0 0.4912124324335007,0.4725459708139275 l -13.007233358480423 13.290174907975269" fill="#ffbf11" stroke="none" /><path d="M 114.68862486808459 84.99185889309783 l 12.550173876066191 -12.82317317922767 a38.94270421937446,38.94270421937446 0 0,0 0.4750346031274615,0.4729946535761324 l -12.769044279360976 12.605242675001419" fill="#ffb610" stroke="none" /><path d="M 114.94478906791727 85.2469230424477 l 12.255491691322765 -12.098277951802837 a38.22107447272556,38.22107447272556 0 0,0 0.4581719202118987,0.4721864382271689 l -12.461927875237773 11.885527318025554" fill="#ffac0f" stroke="none" /><path d="M 115.4437574822437 85.77008943001954 l 11.517627805203194 -10.61236644222096 a36.661356000141474,36.661356000141474 0 0,0 0.42362434176541847,0.4677765788169858 l -11.698595787584647 10.412537076134425" fill="#ff960d" stroke="none" /><path d="M 115.68641384162765 86.03803664274999 l 23.82249620425545 -21.20362387733167 a52.89208351508435,52.89208351508435 0 0,0 0.5994641061385735,0.6852911011651885 l -24.18395217397187 20.79041721996353" fill="#94ff23" stroke="none" /><path d="M 116.15771136456269 86.58626213691792 l 14.89367518247806 -12.364365856529131 a40.357146057083575,40.357146057083575 0 0,0 0.43912708235886705,0.5383178800012917 l -15.104300756913334 12.10616380691974" fill="#ffca12" stroke="none" /><path d="M 116.38621287248628 86.86637796730983 l 14.757965418175095 -11.828574502365466 a39.91329474317107,39.91329474317107 0 0,0 0.42506883330288553,0.5397942518787997 l -14.959388332071946 11.572787856533628" fill="#ffc312" stroke="none" /><path d="M 116.60985879189232 87.15038557335679 l 9.453068285805074 -7.313023195634626 a32.951602749254334,32.951602749254334 0 0,0 0.3432051585447224,0.4516177585883708 l -9.57754938457391 7.149220661165222" fill="#ff6008" stroke="none" /><path d="M 117.04232023915458 87.72973835380427 l 27.921493904854852 -20.10313331503411 a55.405606969807714,55.405606969807714 0 0,0 0.5505929031764237,0.778774614786635 l -28.26339942783516 19.61953219991568" fill="#77ff27" stroke="none" /><path d="M 117.2510076193507 88.02491185347247 l 15.62944585013 -10.849452731488054 a40.026040107046434,40.026040107046434 0 0,0 0.3880153572360327,0.5693646581635669 l -15.813885673034767 10.57881005005408" fill="#ffc512" stroke="none" /><path d="M 117.65298651832404 88.62581576622439 l 17.51080196473222 -11.282571785872149 a41.830857196750884,41.830857196750884 0 0,0 0.3847889159899301,0.6086436578380171 l -17.70241847696811 10.979480480319925" fill="#ffde14" stroke="none" /><line stroke="#e1ed5e" stroke-width="0.3" x1="172.23445277983987" x2="176.4835382374775" y1="55.19839476539836" y2="52.563006222186495" /><path d="M 173.08426987136738 54.67131705675599 a86.0,86.0 0 0,1 12.851231095245387,41.99856678651699" fill="none" id="id75" stroke="none" /><text fill="#e1ed5e" style="font-size:6.75px; font-family:Arial;" text-anchor="middle"><textPath startOffset="22.20632615414155" xlink:href="#id75">March</textPath></text><path d="M 117.84615892207809 88.93136811851018 l 17.79633787787135 -11.037731630030462 a41.941374391379696,41.941374391379696 0 0,0 0.3752438879191898,0.6168022880021562 l -17.98369756407676 10.729761568821225" fill="#ffdf14" stroke="none" /><path d="M 118.03404312379186 89.2402003453031 l 17.601130840464634 -10.501507634173054 a41.49588908668639,41.49588908668639 0 0,0 0.36069871914413937,0.6165510332250224 l -17.7792892340791 10.196977188594136" fill="#ffd914" stroke="none" /><path d="M 118.21658344932153 89.55222093294921 l 15.313501363669781 -8.782770898599086 a38.653339306556006,38.653339306556006 0 0,0 0.3260544617470116,0.5800145053133998 l -15.462413466709226 8.517872883350893" fill="#ffb210" stroke="none" /><path d="M 118.56541770881063 90.18545643968196 l 29.92664877148164 -15.820618883390672 a54.85108991664997,54.85108991664997 0 0,0 0.4340825583349278,0.8385093369997709 l -30.194540762976686 15.303136824130556" fill="#7dff26" stroke="none" /><path d="M 118.89224826269711 90.83032412892265 l 17.16265082911423 -8.330186169646854 a40.077436544333494,40.077436544333494 0 0,0 0.29588943562027953,0.623218612630337 l -17.303498458576264 8.033525141375977" fill="#ffc612" stroke="none" /><path d="M 119.04729006885535 91.15688171328212 l 17.8336689530479 -8.279668313333358 a40.661959610011436,40.661959610011436 0 0,0 0.2892763120697941,0.6373820086175593 l -17.973547582081043 7.971464295873736" fill="#ffce13" stroke="none" /><path d="M 119.34039704204932 91.81776055985345 l 18.917440573721148 -8.003301485093417 a41.540749560850244,41.540749560850244 0 0,0 0.27293916904233584,0.6609438471767071 l -19.05240142964968 7.676483067463406" fill="#ffda14" stroke="none" /><path d="M 119.47837535516314 92.15188598940014 l 29.186906688240093 -11.759819139399122 a52.466948822842866,52.466948822842866 0 0,0 0.3303080501145977,0.8405979591203541 l -29.38500828823639 11.255672175382983" fill="#99ff23" stroke="none" /><path d="M 119.97218684219823 93.5106431181261 l 16.408023977553928 -5.331290166569066 a38.252417386793674,38.252417386793674 0 0,0 0.19808288682969222,0.6279768822802033 l -16.497362348151825 5.048063117862444" fill="#ffac0f" stroke="none" /><path d="M 120.37134235888165 94.90015583598534 l 60.90652628325079 -15.247585904942468 a83.78609575233133,83.78609575233133 0 0,0 0.3382053673335228,1.4020795918556348 l -61.15996445084513 14.196921081427426" fill="#4dd4ff" stroke="none" /><path d="M 120.6074358757038 95.95851677861258 l 14.910733337620345 -2.9242589406100348 a36.19477735991418,36.19477735991418 0 0,0 0.114641400682786,0.6124189465399624 l -14.95886046221299 2.6671619166075096" fill="#ff8f0d" stroke="none" /><path d="M 120.67395015179393 96.31383870115 l 15.340542387371366 -2.735215729771381 a36.58247880881365,36.58247880881365 0 0,0 0.10519751410667358,0.620881683147423 l -15.385351762998264 2.4707482583081197" fill="#ff950d" stroke="none" /><path d="M 120.78858239683441 97.02765380044208 l 31.311026923185135 -4.476842629421266 a52.62945663322448,52.62945663322448 0 0,0 0.12050642106369215,0.8979128085136912 l -31.383449343306665 3.9372114788429102" fill="#97ff23" stroke="none" /><path d="M 120.83666639777658 97.38593545837742 l 14.889558583187478 -1.867969971284647 a36.00627424165616,36.00627424165616 0 0,0 0.07185763062494185,0.61563229647901 l -14.91950656681601 1.6113939364807843" fill="#ff8c0c" stroke="none" /><path d="M 120.91429891909075 98.10471618934814 l 20.8915657174787 -1.8932236952663903 a41.977173643940915,41.977173643940915 0 0,0 0.05901893903028838,0.7201805456602268 l -20.92105914032848 1.5333292323983947" fill="#ffe015" stroke="none" /><path d="M 120.94382443527127 98.46500227214037 l 22.23319938311544 -1.6294975467163466 a43.2928333117197,43.2928333117197 0 0,0 0.048074442217793154,0.7436903428574824 l -22.257954416337647 1.2465481396058289" fill="#fff116" stroke="none" /><path d="M 120.98425023603335 99.18683210126433 l 20.837796135851423 -0.807492605524493 a41.85343597844924,41.85343597844924 0 0,0 0.021700619000688252,0.7201378977071573 l -20.848608449307758 0.4486845603923366" fill="#ffde14" stroke="none" /><line stroke="#e1ed5e" stroke-width="0.3" x1="184.98032266829074" x2="189.97916517819016" y1="98.17113171792111" y2="98.06355123074" /><path d="M 185.9800911702706 98.14961562048488 a86.0,86.0 0 0,1 -9.607161424134198,41.387399972396054" fill="none" id="id76" stroke="none" /><text fill="#e1ed5e" style="font-size:6.75px; font-family:Arial;" text-anchor="middle"><textPath startOffset="21.466115282336823" xlink:href="#id76">April</textPath></text><path d="M 120.99513854157772 99.54816195383933 l 24.059696613220805 -0.5177906441249513 a45.06526767504097,45.06526767504097 0 0,0 0.01001520397512665,0.77568858501558 l -24.065044824313645 0.10356580104890857" fill="#f5ff19" stroke="none" /><path d="M 120.99824983174949 100.27111621757518 l 27.0609396408753 0.34939386178611054 a48.06319512396402,48.06319512396402 0 0,0 -0.017801548515830833,0.8271680096889281 l -27.05091602967446 -0.8151516872651535" fill="#cfff1d" stroke="none" /><path d="M 120.9764740272857 100.99374915477107 l 23.94379081463585 1.1343241887606426 a44.970644754370866,44.970644754370866 0 0,0 -0.04328670635363923,0.7729132203087845 l -23.92071775739468 -1.5463091254048504" fill="#f7ff19" stroke="none" /><path d="M 120.95626037817324 101.35467743843564 l 16.133921551185704 1.042946552699163 a37.167596052957336,37.167596052957336 0 0,0 -0.04676646637585299,0.6380912775679871 l -16.113578526145513 -1.3205109667639203" fill="#ff9d0e" stroke="none" /><path d="M 120.89721153311464 102.0752229133903 l 28.544305434389994 2.834626839585258 a49.68470815698572,49.68470815698572 0 0,0 -0.09184028672600475,0.850326993223875 l -28.491282846162935 -3.325550154693924" fill="#bbff1f" stroke="none" /><path d="M 120.8583938346157 102.4346265915055 l 6.904125162493712 0.8058610286566762 a27.95099678153331,27.95099678153331 0 0,0 -0.05989298429596212,0.4774060140717221 l -6.889230668950902 -0.9245847970157933" fill="#ff1302" stroke="none" /><path d="M 120.76222939487914 103.15116336523771 l 24.405208451619256 3.704072300284872 a45.68469872558151,45.68469872558151 0 0,0 -0.12469365635635309,0.7764675171604005 l -24.337833040901614 -4.123619047138478" fill="#edff19" stroke="none" /><path d="M 120.70491114924044 103.5080841355445 l 25.157261577124096 4.2624568439980886 a46.51580585454417,46.51580585454417 0 0,0 -0.14055206518716293,0.7882906237222026 l -25.080163069597745 -4.69486621845351" fill="#e3ff1b" stroke="none" /><path d="M 120.64145759157962 103.86396538481128 l 23.63117523512712 4.423623802041448 a45.04164908102755,45.04164908102755 0 0,0 -0.14921669264065254,0.7608527010341541 l -23.551528609510804 -4.829740230143547" fill="#f6ff19" stroke="none" /><path d="M 120.41448212921028 104.9243191809786 l 20.981456145691592 5.061082925794859 a42.58323567900216,42.58323567900216 0 0,0 -0.17801553777729862,0.7110835838574088 l -20.891229293619233 -5.421494349049664" fill="#ffe815" stroke="none" /><path d="M 120.02730092923936 106.31721596034902 l 9.413726282132565 2.9693737626432872 a30.870938306827156,30.870938306827156 0 0,0 -0.16421538225104634,0.5054029785049903 l -9.361218648865272 -3.130975641126073" fill="#ff4006" stroke="none" /><path d="M 119.79798401119884 107.00284435728193 l 29.698446458768828 10.504786653337392 a52.50155971847258,52.50155971847258 0 0,0 -0.3086985183150772,0.8494057416650107 l -29.513223679448522 -11.014440192008534" fill="#99ff23" stroke="none" /><path d="M 119.54520255179757 107.68017299344265 l 8.504696615119677 3.341870778149496 a30.1377220800962,30.1377220800962 0 0,0 -0.19388226025039318,0.48119986977304063 l -8.445911740611892 -3.48777001576535" fill="#ff3505" stroke="none" /><path d="M 119.41010516605496 108.01547362559984 l 6.901030022244584 2.8498054832547157 a28.466298055951807,28.466298055951807 0 0,0 -0.1909261976318141,0.4512931325145773 l -6.850952843420462 -2.9681731414354564" fill="#ff1b02" stroke="none" /><path d="M 118.97047184881838 109.00673069616215 l 13.647253183465757 6.47939256046886 a36.10728458083303,36.10728458083303 0 0,0 -0.271400823027154,0.559166081704363 l -13.53369910382389 -6.713347598138498" fill="#ff8e0d" stroke="none" /><path d="M 118.64920377521936 109.65438752849418 l 23.203388453901955 12.012014389902392 a47.12825530811219,47.12825530811219 0 0,0 -0.37915240600202016,0.717213464840945 l -22.99318353967504 -12.409642869829472" fill="#dbff1b" stroke="none" /><line stroke="#e1ed5e" stroke-width="0.3" x1="174.80103733775053" x2="179.2010983576182" y1="140.37084112569926" y2="142.7455964860345" /><path d="M 175.68104954172406 140.8457921977663 a86.0,86.0 0 0,1 -30.038265399797805,32.042727171017184" fill="none" id="id77" stroke="none" /><text fill="#e1ed5e" style="font-size:6.75px; font-family:Arial;" text-anchor="middle"><textPath startOffset="22.206326154141568" xlink:href="#id77">May</textPath></text><path d="M 118.30583269289576 110.29060199501025 l 18.890640415225896 10.619350957981123 a42.67087700269974,42.67087700269974 0 0,0 -0.36544152625537535,0.6371781041841649 l -18.70504689281814 -10.942948908023602" fill="#ffe915" stroke="none" /><path d="M 117.94076556474637 110.91462005526583 l 7.645262351125848 4.651146768749754 a29.948921872605304,29.948921872605304 0 0,0 -0.27172993431204184,0.4381151748056739 l -7.564067777145843 -4.782058274920702" fill="#ff3204" stroke="none" /><path d="M 117.75023020441432 111.22182372390056 l 6.919331570458975 4.3744513888952445 a29.18614526720347,29.18614526720347 0 0,0 -0.2721193000042552,0.4223351965837071 l -6.843007407077669 -4.492908185400404" fill="#ff2603" stroke="none" /><path d="M 117.55443506779139 111.5257021239791 l 13.159648732415473 8.640220591564889 a36.74260990533228,36.74260990533228 0 0,0 -0.3516738328608128,0.5257046643946868 l -13.008971794143939 -8.865462170165381" fill="#ff970d" stroke="none" /><path d="M 117.35343817320211 111.8261652097733 l 28.377330323917022 19.338818813507046 a55.340395883192066,55.340395883192066 0 0,0 -0.5432294764118792,0.7825625767401607 l -28.040239940343007 -19.824422652434226" fill="#78ff26" stroke="none" /><path d="M 116.93607887273984 112.41649034213515 l 17.137260074444246 12.563984013294323 a42.249455925869164,42.249455925869164 0 0,0 -0.43504613486816596,0.5828153918791974 l -16.91845267288099 -12.857112284682836" fill="#ffe315" stroke="none" /><path d="M 116.71984013943494 112.70617746262583 l 17.827938807577386 13.548272734237266 a43.39176402626646,43.39176402626646 0 0,0 -0.45704582816630474,0.5907933433025957 l -17.592086162193013 -13.853144071653114" fill="#fff316" stroke="none" /><path d="M 116.498646956653 112.99209946851258 l 19.639775535368454 15.465626845956232 a45.99812786626269,45.99812786626269 0 0,0 -0.4952072756939274,0.6178472180276844 l -19.370650347619673 -15.801401897562165" fill="#e9ff1a" stroke="none" /><path d="M 116.27256486870786 113.27417163493432 l 14.988723709890476 12.226891871010535 a40.34318286313854,40.34318286313854 0 0,0 -0.44359058572023524,0.5343334364563157 l -14.776037124276696 -12.483086564580622" fill="#ffc912" stroke="none" /><path d="M 115.80600337817218 113.82643327865902 l 4.312415427179979 3.7723213608890784 a26.729514400575315,26.729514400575315 0 0,0 -0.30591439235121803,0.34369806278280074 l -4.246842185180423 -3.8459935934127456" fill="#ff0000" stroke="none" /><path d="M 115.32070863581623 114.36230785411682 l 15.941932186999603 14.94467020434553 a42.851507256286624,42.851507256286624 0 0,0 -0.5091033487609655,0.5337928258075065 l -15.682322286859671 -15.216870146735543" fill="#ffeb16" stroke="none" /><path d="M 114.81725581225074 114.88116024355365 l 4.516710010066607 4.536189850882667 a27.401381700717963,27.401381700717963 0 0,0 -0.33710229844521555,0.3299255496574217 l -4.437957759245597 -4.61326550346266" fill="#ff0b01" stroke="none" /><path d="M 114.55890576462653 115.13401014063108 l 17.6599700279963 18.3575723208751 a46.47302500501044,46.47302500501044 0 0,0 -0.5812761112512477,0.5496328446135854 l -17.341358082354244 -18.658839802234606" fill="#e3ff1b" stroke="none" /><path d="M 114.29624159901734 115.38237550388516 l 18.21184401907665 19.59545950446709 a47.75169706329652,47.75169706329652 0 0,0 -0.6069023552340795,0.5543909119903769 l -17.871842114375706 -19.906043183044048" fill="#d3ff1c" stroke="none" /><path d="M 114.0293411484842 115.62618273729858 l 14.550965426263689 16.207179107586022 a42.780800018862806,42.780800018862806 0 0,0 -0.5521934758993695,0.48724654004664825 l -14.269829597457731 -16.45524878940496" fill="#ffea16" stroke="none" /><path d="M 113.48314897796784 116.09983520530334 l 17.645101392880445 21.069501276775195 a48.48223948693161,48.48223948693161 0 0,0 -0.6444210131358439,0.5303146218515923 l -17.27981025119991 -21.370111017483968" fill="#caff1d" stroke="none" /><path d="M 113.20401910651253 116.32954008644616 l 14.988070863417127 18.535894412781495 a44.83740023342725,44.83740023342725 0 0,0 -0.604328103909756,0.48011479507983035 l -14.66678526679002 -18.79114312186645" fill="#f8ff18" stroke="none" /><path d="M 112.92097659922987 116.55440617244103 l 12.95061976259607 16.592385110242777 a42.0481779705976,42.0481779705976 0 0,0 -0.5744006799503428,0.4404259476844033 l -12.663090354152233 -16.812850399754552" fill="#ffe115" stroke="none" /><path d="M 112.63410532772338 116.77436683061366 l 14.53052441044433 19.292252231516006 a45.15216627565637,45.15216627565637 0 0,0 -0.6248522922793228,0.4622507877197064 l -14.196287147746444 -19.539512967975483" fill="#f4ff19" stroke="none" /><path d="M 112.04921762599082 117.19931262002967 l 17.28267171010426 24.669657639035528 a51.12113459792745,51.12113459792745 0 0,0 -0.7250513328695056,0.4986969181186759 l -16.85546349261187 -24.9634953465193" fill="#a9ff21" stroke="none" /><path d="M 111.45004920935366 117.60387380957326 l 12.552546549844752 19.298907927115774 a44.02203883380687,44.02203883380687 0 0,0 -0.6387769687456036,0.40769768413968555 l -12.21848777905222 -19.51212004007927" fill="#fffb17" stroke="none" /><path d="M 111.1453310114006 117.79835938074945 l 11.292230791775568 18.032948652381886 a42.276788135293494,42.276788135293494 0 0,0 -0.6201014336059705,0.38091694765003403 l -10.980150158237288 -18.2246540668603" fill="#ffe415" stroke="none" /><line stroke="#e1ed5e" stroke-width="0.3" x1="143.8653032363475" x2="146.44561519142675" y1="172.8068346515853" y2="177.08958963109032" /><path d="M 144.38136562736335 173.6633856474863 a86.0,86.0 0 0,1 -40.68145358897372,12.25698825130547" fill="none" id="id78" stroke="none" /><text fill="#e1ed5e" style="font-size:6.75px; font-family:Arial;" text-anchor="middle"><textPath startOffset="21.466115282336833" xlink:href="#id78">June</textPath></text><path d="M 110.8373102113329 117.98757091392108 l 12.743520801515343 21.151464675300883 a45.693759947184134,45.693759947184134 0 0,0 -0.6772079137657219,0.4001063722073764 l -12.377545016721239 -21.36768961980201" fill="#edff19" stroke="none" /><path d="M 110.5260780823613 118.17145234162733 l 11.213934569523131 19.358917537737348 a43.37230468151327,43.37230468151327 0 0,0 -0.6492446408620546,0.3686580513257588 l -10.879041161739877 -19.549078754857735" fill="#fff216" stroke="none" /><path d="M 109.2508944713604 118.85261126421891 l 7.908024452310605 16.115945471965308 a38.95161689636066,38.95161689636066 0 0,0 -0.6044685003539062,0.29018161366014783 l -7.629443283956466 -16.249681362125017" fill="#ffb610" stroke="none" /><path d="M 108.92500713936063 119.00905698771935 l 9.574335789118624 20.39203910910876 a43.527830894922374,43.527830894922374 0 0,0 -0.6809659773240804,0.3125980809174397 l -9.221901816027124 -20.553824260360276" fill="#fff417" stroke="none" /><path d="M 108.59647513512805 119.15986991738527 l 6.1109229702780725 13.620057912718606 a35.928139773410514,35.928139773410514 0 0,0 -0.5664316322372702,0.2483069816815814 l -5.875570663383049 -13.723229447694642" fill="#ff8b0c" stroke="none" /><path d="M 107.93186726928326 119.44442032107085 l 2.9313394057105264 7.185974446279905 a28.760862030345542,28.760862030345542 0 0,0 -0.4600079709933717,0.18304666514082657 l -2.8072103586752886 -7.235367955826801" fill="#ff2003" stroke="none" /><path d="M 107.59598834532513 119.57807347666477 l 8.172643348695518 21.06435722453546 a43.594230338469515,43.594230338469515 0 0,0 -0.7019289276415442,0.2654094587632347 l -7.808844200293699 -21.201914933405323" fill="#fff517" stroke="none" /><path d="M 106.91757812671514 119.82793768551818 l 8.032947177654535 23.024933459656783 a45.38597550192755,45.38597550192755 0 0,0 -0.7398568149752063,0.2509996015004203 l -7.635420629742101 -23.159796048055327" fill="#f1ff19" stroke="none" /><path d="M 106.57524785965236 119.94407469862006 l 7.792625664454086 23.636631145715167 a45.888056305483175,45.888056305483175 0 0,0 -0.7522989667258543,0.24086237232726251 l -7.3846053526372915 -23.767266364702138" fill="#ebff1a" stroke="none" /><path d="M 106.2309692047433 120.05430185196036 l 7.133553628999474 22.959259314618325 a45.041946170260424,45.041946170260424 0 0,0 -0.7423878461639267,0.22367536814882788 l -6.737290808395302 -23.078650051872877" fill="#f6ff19" stroke="none" /><path d="M 105.88484417918355 120.15858648285463 l 6.263744807553133 21.45651398149842 a43.35210261367789,43.35210261367789 0 0,0 -0.7181354903061618,0.2029522628220484 l -5.893478149142366 -21.561155037658988" fill="#fff216" stroke="none" /><path d="M 104.48393922423573 120.51570834832081 l 5.116362686068799 23.40928353896452 a44.96188062200111,44.96188062200111 0 0,0 -0.757518917821761,0.1587454544480288 l -4.7126523068176605 -23.49388497413909" fill="#f7ff19" stroke="none" /><path d="M 104.13013068566511 120.58985236759428 l 4.4719231872400895 22.293783231623664 a43.737872982563694,43.737872982563694 0 0,0 -0.7394457799313996,0.14171654361964173 l -4.087509792736985 -22.36745697359177" fill="#fff717" stroke="none" /><path d="M 102.70371172650421 120.8252237178851 l 2.421798707701597 18.653800770683706 a39.81035332398052,39.81035332398052 0 0,0 -0.6803259088862827,0.08237799309288295 l -2.100345375763934 -18.69272429250194" fill="#ffc212" stroke="none" /><path d="M 101.98527174616119 120.90594882070398 l 1.8718095911909558 19.711133043226067 a40.79980901406458,40.79980901406458 0 0,0 -0.6997277643559632,0.06037545580951359 l -1.532237509093451 -19.740432751314245" fill="#ffd013" stroke="none" /><line stroke="#e1ed5e" stroke-width="0.3" x1="102.19456741930631" x2="102.32365962044197" y1="184.97166512339345" y2="189.96999836594603" /><path d="M 102.22038585953345 185.97133177190398 a86.0,86.0 0 0,1 -42.740103519485714,-10.115201625700543" fill="none" id="id79" stroke="none" /><text fill="#e1ed5e" style="font-size:6.75px; font-family:Arial;" text-anchor="middle"><textPath startOffset="22.20632615414155" xlink:href="#id79">July</textPath></text><path d="M 100.54218724476979 120.99299961872073 l 0.42189010900982943 16.33520335091219 a37.34065053110595,37.34065053110595 0 0,0 -0.6426864908367832,0.0110644307781317 l -0.14064392828037822 -16.340045258969482" fill="#ff9f0e" stroke="none" /><path d="M 100.18074693466247 120.99922214144158 l 0.13307890738464623 15.461139320172858 a36.461712035650706,36.461712035650706 0 0,0 -0.6276516840941927,0.0 l 0.13307890738463557 -15.461139320172858" fill="#ff930d" stroke="none" /><path d="M 99.45781275523022 120.99299961872073 l -0.3863839172075102 14.960435725597481 a35.9654244721361,35.9654244721361 0 0,0 -0.6187417097697865,-0.021310715542756622 l 0.6438459786519398 -14.951568211628631" fill="#ff8c0c" stroke="none" /><path d="M 98.73552117531835 120.96189622390904 l -0.9273063354198968 15.372419681080144 a36.4003631090624,36.4003631090624 0 0,0 -0.6251107837284164,-0.04311129955860586 l 1.1917798799272434 -15.354180037005252" fill="#ff920d" stroke="none" /><path d="M 98.37488393609728 120.93702456842531 l -1.2085285974102822 15.569960507841204 a36.6167926152105,36.6167926152105 0 0,0 -0.6279879012594103,-0.054185438555942 l 1.476360816411234 -15.546850817006598" fill="#ff950d" stroke="none" /><path d="M 97.65516085044442 120.86867818915974 l -1.749411501274956 15.569471214023874 a36.66744632941537,36.66744632941537 0 0,0 -0.626616235922008,-0.07587449967792392 l 2.0171551602483535 -15.537051185620602" fill="#ff960d" stroke="none" /><path d="M 97.2962882734958 120.8252237178851 l -1.9939567188521545 15.358366184832173 a36.487261709677796,36.487261709677796 0 0,0 -0.6221450097199583,-0.08622362934894287 l 2.258030319758944 -15.321767989990624" fill="#ff930d" stroke="none" /><path d="M 96.93821686468263 120.77559828337769 l -2.153488670483322 14.612405107891217 a35.77023684613843,35.77023684613843 0 0,0 -0.608373607222373,-0.09501544561297746 l 2.404698141314212 -14.573171354931134" fill="#ff890c" stroke="none" /><path d="M 96.58105272829116 120.7198165907248 l -1.9445229858534814 11.784375838939162 a32.94372988458319,32.94372988458319 0 0,0 -0.5587115848543461,-0.09713917063206667 l 2.1470835421798773 -11.74915808978609" fill="#ff5f08" stroke="none" /><path d="M 95.86986931433489 120.58985236759428 l -3.081858595174503 15.363923885673838 a36.66997158789479,36.66997158789479 0 0,0 -0.6178166217589984,-0.12946948000809805 l 3.3458666783628885 -15.3085984249392" fill="#ff960d" stroke="none" /><path d="M 95.51606077576429 120.51570834832081 l -3.3338140730185155 15.253453222536347 a36.61352463364889,36.61352463364889 0 0,0 -0.6145490330033002,-0.13986935911167356 l 3.5958832554146785 -15.193807129846988" fill="#ff950d" stroke="none" /><path d="M 95.16358092515715 120.4354850818985 l -2.7353481264383595 11.557758946570692 a32.87703335180316,32.87703335180316 0 0,0 -0.5495892650256389,-0.13507566990291653 l 2.933890676207209 -11.508962018353746" fill="#ff5e08" stroke="none" /><path d="M 94.46302465271185 120.25689768951611 l -5.00538707007353 18.31209413358973 a39.983853435978446,39.983853435978446 0 0,0 -0.6623398280690543,-0.18718385134603568 l 5.319858066247198 -18.22322148890517" fill="#ffc412" stroke="none" /><path d="M 94.11515582081647 120.15858648285463 l -5.198391185932725 17.807135601655467 a39.55040024521651,39.55040024521651 0 0,0 -0.6518753950368605,-0.19640470910920116 l 5.504141555409832 -17.71501552344054" fill="#ffbe11" stroke="none" /><path d="M 93.76903079525671 120.05430185196036 l -3.729105378080854 12.00208224955964 a33.568062907466135,33.568062907466135 0 0,0 -0.5503222640802446,-0.17619581035418502 l 3.9351489872520387 -11.936113592545748" fill="#ff6909" stroke="none" /><path d="M 93.42475214034765 119.94407469862007 l -4.85470541958657 14.725316762910511 a36.50493851903375,36.50493851903375 0 0,0 -0.5950831120157608,-0.2018845010984874 l 5.107458264539557 -14.6395692749139" fill="#ff930d" stroke="none" /><path d="M 92.7421414339146 119.70592522655815 l -12.843028998802605 34.87030875960228 a58.160218337007656,58.160218337007656 0 0,0 -0.9364619898488639,-0.35408979469365276 l 13.441361209411752 -34.64407071480199" fill="#58ff2a" stroke="none" /><path d="M 92.06813273071674 119.44442032107085 l -9.035556634265589 22.150037950316865 a44.9220706647961,44.9220706647961 0 0,0 -0.7134663173895861,-0.29822897853267966 l 9.415494411152638 -21.99122392876421" fill="#f7ff18" stroke="none" /><path d="M 91.7346041902142 119.30500536409082 l -5.848208707977226 13.659321716227511 a35.858620892918196,35.858620892918196 0 0,0 -0.5653356196633861,-0.2478265219780272 l 6.082465002298355 -13.556630640955031" fill="#ff8a0c" stroke="none" /><path d="M 91.40352486487194 119.15986991738527 l -6.344971514624124 14.141706564466478 a36.49988800207491,36.49988800207491 0 0,0 -0.5710181599803044,-0.26212643057481366 l 6.5874576703718475 -14.03039306355759" fill="#ff930d" stroke="none" /><path d="M 90.42595943632237 118.69057910512821 l -13.665381619195436 26.677753708746188 a50.97407542765524,50.97407542765524 0 0,0 -0.7774980997513612,-0.406750258960382 l 14.122570621473292 -26.43857403084109" fill="#abff21" stroke="none" /><line stroke="#e1ed5e" stroke-width="0.3" x1="58.666819895761336" x2="56.23545636021788" y1="174.27360380694188" y2="178.64263932499728" /><path d="M 58.180547188652646 175.14741091055294 a86.0,86.0 0 0,1 -31.652253787137756,-30.449443065178592" fill="none" id="id80" stroke="none" /><text fill="#e1ed5e" style="font-size:6.75px; font-family:Arial;" text-anchor="middle"><textPath startOffset="22.20632615414155" xlink:href="#id80">August</textPath></text><path d="M 89.7882731507175 118.34994917583269 l -7.636276439118618 13.721996937303599 a36.7036912158259,36.7036912158259 0 0,0 -0.549421456773244,-0.3119758421750598 l 7.871346662813069 -13.588517929333905" fill="#ff960d" stroke="none" /><path d="M 89.4739219176387 118.17145234162733 l -9.023937507618978 15.578266574737093 a39.00316187826415,39.00316187826415 0 0,0 -0.5780493860950856,-0.3415217662492007 l 9.290754764742447 -15.420626236194144" fill="#ffb711" stroke="none" /><path d="M 89.1626897886671 117.98757091392108 l -8.108760592299532 13.458773748625328 a36.71275243742853,36.71275243742853 0 0,0 -0.5384900656411342,-0.33078457979219283 l 8.339229857872974 -13.317200702004758" fill="#ff960d" stroke="none" /><path d="M 88.8546689885994 117.79835938074946 l -8.429656001749587 13.461605296582073 a36.88313311248128,36.88313311248128 0 0,0 -0.5351886598523211,-0.34158272429278963 l 8.660126463648831 -13.31450814346548" fill="#ff990e" stroke="none" /><path d="M 88.24862548938628 117.40417183066458 l -6.707522700576156 9.93406154603221 a32.986510734116926,32.986510734116926 0 0,0 -0.46784786297475506,-0.3217900262186101 l 6.877527448173802 -9.817130730448499" fill="#ff6008" stroke="none" /><path d="M 87.65650970185807 116.9893568818739 l -9.246201635824962 12.726304764580473 a36.73057779140092,36.73057779140092 0 0,0 -0.5083075214948192,-0.3760337524852986 l 9.463894127738346 -12.565261063355406" fill="#ff970d" stroke="none" /><path d="M 87.36589467227662 116.77436683061367 l -11.269842989221438 14.963028684729617 a39.73236740035132,39.73236740035132 0 0,0 -0.54276546457632,-0.4161694135303882 l 11.525737182291245 -14.766819929371861" fill="#ffc111" stroke="none" /><path d="M 87.07902340077011 116.55440617244103 l -8.09797603464838 10.375158829732174 a34.16135010551383,34.16135010551383 0 0,0 -0.4604340088583228,-0.36579662335844343 l 8.275367536224062 -10.234228292368599" fill="#ff710a" stroke="none" /><path d="M 86.79598089348748 116.32954008644616 l -12.357478702317476 15.28261525593897 a40.653641111490984,40.653641111490984 0 0,0 -0.5403640770305159,-0.44468284759704135 l 12.61871290789268 -15.067637289484747" fill="#ffce13" stroke="none" /><path d="M 86.24171649860922 115.8653595955263 l -19.47216483330422 22.454319766888347 a50.72140103509662,50.72140103509662 0 0,0 -0.6546868391359361,-0.5776850164039137 l 19.855794025346743 -22.115811608712146" fill="#aeff20" stroke="none" /><path d="M 85.70375840098266 115.38237550388516 l -11.3846778294852 12.249610371437404 a37.723152918430145,37.723152918430145 0 0,0 -0.47183430883176536,-0.44614878941308117 l 11.593847972707783 -12.051826945278393" fill="#ffa50f" stroke="none" /><path d="M 85.44109423537348 115.13401014063109 l -11.13958910427987 11.579623990440734 a37.067922615328385,37.067922615328385 0 0,0 -0.4560237891904982,-0.4463152580076159 l 11.337262845846162 -11.386158629510549" fill="#ff9b0e" stroke="none" /><path d="M 85.18274418774928 114.88116024355367 l -10.997466729156233 11.044897027047064 a36.586340968841,36.586340968841 0 0,0 -0.4424497278072379,-0.4481992383190003 l 11.185957082019005 -10.8539572947474" fill="#ff950d" stroke="none" /><path d="M 84.9287848128048 114.62390073753433 l -5.528961012368137 5.364861162307931 a28.703969442250333,28.703969442250333 0 0,0 -0.341021539298098,-0.3575597205679081 l 5.620489103045193 -5.268894325157523" fill="#ff1f03" stroke="none" /><path d="M 84.43433777217949 114.09645910891817 l -26.308268514812283 23.825098214110312 a56.49310210673992,56.49310210673992 0 0,0 -0.6465531974889407,-0.7264093714422183 l 26.714480561949564 -23.368714672927233" fill="#6bff28" stroke="none" /><path d="M 83.95833913139862 113.55231037782056 l -12.780413132934065 10.797144195543485 a37.730728693868414,37.730728693868414 0 0,0 -0.4148655324926639,-0.4997322593854429 l 12.964374665320266 -10.575550679044282" fill="#ffa50f" stroke="none" /><path d="M 83.72743513129214 113.27417163493432 l -13.14221166275365 10.720619317333236 a37.96023012626293,37.96023012626293 0 0,0 -0.4086727659915949,-0.5098821118848952 l 13.324802340800106 -10.492809371870083" fill="#ffa80f" stroke="none" /><path d="M 83.50135304334701 112.99209946851258 l -12.271898344174728 9.663684808450341 a36.6200605967721,36.6200605967721 0 0,0 -0.385719417003201,-0.49859434197730074 l 12.436424578395998 -9.451012472359787" fill="#ff950d" stroke="none" /><path d="M 83.28015986056508 112.70617746262583 l -14.65703727866383 11.138558454262784 a39.40913431498532,39.40913431498532 0 0,0 -0.40579910880550873,-0.5436342209875723 l 14.846597654164423 -10.884611353765903" fill="#ffbc11" stroke="none" /><path d="M 82.85270091963577 112.12312394758628 l -18.7322664089153 13.24369432352978 a43.94108201784893,43.94108201784893 0 0,0 -0.4313321326416024,-0.6213661073408274 l 18.957459448719035 -12.91928695400194" fill="#fffa17" stroke="none" /><path d="M 82.05923443525364 110.91462005526583 l -13.57895751996576 8.261027743891391 a36.89442250333047,36.89442250333047 0 0,0 -0.3254072679850627,-0.5454012985340502 l 13.719145663649055 -8.02606435147123" fill="#ff990e" stroke="none" /><line stroke="#e1ed5e" stroke-width="0.3" x1="26.63291911575756" x2="22.317208475507996" y1="142.92168965132927" y2="145.44649492493687" /><path d="M 25.769776987707644 143.4266507060508 a86.0,86.0 0 0,1 -11.730757126820373,-40.83630448921669" fill="none" id="id81" stroke="none" /><text fill="#e1ed5e" style="font-size:6.75px; font-family:Arial;" text-anchor="middle"><textPath startOffset="21.46611528233685" xlink:href="#id81">September</textPath></text><path d="M 81.87401531095188 110.60418214915194 l -13.508231797267408 7.902674141490295 a36.650066609292296,36.650066609292296 0 0,0 -0.3138781581220777,-0.5472730255545332 l 13.642261951541863 -7.668981270077455" fill="#ff960d" stroke="none" /><path d="M 81.69416730710424 110.29060199501025 l -14.700820471738666 8.264048678510605 a37.86441884866133,37.86441884866133 0 0,0 -0.3144975185531039,-0.5709043481533026 l 14.840894399743286 -8.00977381195948" fill="#ffa70f" stroke="none" /><path d="M 81.51974371655577 109.97397251340807 l -26.28657031075194 14.187115466904372 a50.87068837461538,50.87068837461538 0 0,0 -0.4092607240840341,-0.7741670560361825 l 26.52688354306086 -13.732533395782063" fill="#acff20" stroke="none" /><path d="M 81.35079622478065 109.6543875284942 l -13.801197893264025 7.144654239665596 a36.540886316211406,36.540886316211406 0 0,0 -0.2843600118563844,-0.5610692806339694 l 13.922136574906677 -6.906030747328941" fill="#ff940d" stroke="none" /><path d="M 81.02952815118164 109.00673069616217 l -14.18830178463125 6.73626962093779 a36.706216474305315,36.706216474305315 0 0,0 -0.26607704129339965,-0.5731062756211445 l 14.302153442764476 -6.491043278037818" fill="#ff960d" stroke="none" /><path d="M 80.87730276802145 108.67885076344099 l -14.106559651947546 6.402272886488812 a36.49142095893802,36.49142095893802 0 0,0 -0.2546734796360093,-0.5742214647441131 l 14.214674216314835 -6.158503085252003" fill="#ff930d" stroke="none" /><path d="M 80.73074385275274 108.34839909993369 l -14.323170694108892 6.205509149764321 a36.60966247362154,36.60966247362154 0 0,0 -0.2455445256328775,-0.5803947259158226 l 14.427866200934076 -5.9580398981823395" fill="#ff950d" stroke="none" /><path d="M 80.45479744820244 107.68017299344265 l -29.72143646636728 11.678864574075345 a52.9336760076866,52.9336760076866 0 0,0 -0.3259346242827476,-0.8509124543373378 l 29.918065370243536 -11.16552855290485" fill="#94ff23" stroke="none" /><path d="M 80.20201598880116 107.00284435728193 l -15.019934540064193 5.312776481743574 a36.93185574667248,36.93185574667248 0 0,0 -0.20683451743289066,-0.6011579247514797 l 15.109159888440312 -5.053445853902797" fill="#ff9a0e" stroke="none" /><path d="M 80.0844068197444 106.66101706037122 l -14.542282883684418 4.863846811301613 a36.334112210131686,36.334112210131686 0 0,0 -0.19327628030080102,-0.5948432260082476 l 14.623851415001468 -4.612804685315561" fill="#ff910d" stroke="none" /><path d="M 79.97269907076064 106.31721596034903 l -7.119616586072989 2.2457422339643327 a28.465406788253183,28.465406788253183 0 0,0 -0.14337514037711643,-0.46855825438252224 l 7.157218498956236 -2.1228570070297628" fill="#ff1b02" stroke="none" /><path d="M 79.58551787078972 104.9243191809786 l -15.907137373515766 3.837071211852263 a37.363377857420744,37.363377857420744 0 0,0 -0.1454314933803999,-0.626515067186958 l 15.970829432826722 -3.562687487316731" fill="#ffa00e" stroke="none" /><path d="M 79.50377843672027 104.57218783832718 l -15.541105414245242 3.4668269441659216 a36.92309161430272,36.92309161430272 0 0,0 -0.1330391057267503,-0.6215144109565209 l 15.598478558696433 -3.198798713793237" fill="#ff990e" stroke="none" /><path d="M 79.4281124754447 104.21870165774334 l -15.480464806890334 3.174597492112113 a36.80262193037265,36.80262193037265 0 0,0 -0.12192194639843967,-0.6216773779860735 l 15.53281668626444 -2.907656387058085" fill="#ff980e" stroke="none" /><path d="M 79.18660465613746 102.79330883721812 l -18.304441788918787 2.4565890458813953 a39.468552161559955,39.468552161559955 0 0,0 -0.08457263235629753,-0.6741270916348989 l 18.344015930521934 -2.1411441999590877" fill="#ffbd11" stroke="none" /><path d="M 79.1416061653843 102.43462659150553 l -15.379140195592003 1.7950789486265224 a36.48354809426689,36.48354809426689 0 0,0 -0.06743844619500595,-0.6243962559891889 l 15.40776094328806 -1.5300863707525514" fill="#ff930d" stroke="none" /><path d="M 79.07016306316243 101.71520430193888 l -7.45423262395651 0.6108758468997039 a28.47922143758179,28.47922143758179 0 0,0 -0.03583423985434979,-0.4889297323764561 l 7.4636434224751955 -0.4824729780264872" fill="#ff1b02" stroke="none" /><path d="M 79.04373962182676 101.35467743843564 l -14.474724712501198 0.9356909411192134 a35.5049361611827,35.5049361611827 0 0,0 -0.03417544387251127,-0.6102255081083585 l 14.488686507261242 -0.6863937166754173" fill="#ff850c" stroke="none" /><path d="M 79.0095281055655 100.63252640178507 l -22.284945780995777 0.6715340483872675 a43.29506148096625,43.29506148096625 0 0,0 -0.016035536868938275,-0.7451083878673195 l 22.293203380549723 -0.28783584472981916" fill="#fff116" stroke="none" /><line stroke="#e1ed5e" stroke-width="0.3" x1="15.007084014347285" x2="10.007500721073583" y1="101.09737516637583" y2="101.16192664675087" /><path d="M 14.007167355692545 101.11028546245083 a86.0,86.0 0 0,1 10.666146001902534,-42.60595125391555" fill="none" id="id82" stroke="none" /><text fill="#e1ed5e" style="font-size:6.75px; font-family:Arial;" text-anchor="middle"><textPath startOffset="22.20632615414155" xlink:href="#id82">October</textPath></text><path d="M 79.00175016825051 100.2711162175752 l -20.0473959642401 0.25883938945421886 a41.04906688044517,41.04906688044517 0 0,0 -0.0030409592671086015,-0.7066118383744929 l 20.048881220796712 0.08628192712394941" fill="#ffd313" stroke="none" /><path d="M 79.00019446554 99.90962569577889 l -15.240536513697434 -0.06558883991195977 a36.24067764639308,36.24067764639308 0 0,0 0.008054046886899126,-0.6237948072614024 l 15.23714945969282 0.32791990523383413" fill="#ff900d" stroke="none" /><path d="M 79.08570108090925 98.10471618934814 l -17.012916607727416 -1.5417349414071415 a38.082630890206666,38.082630890206666 0 0,0 0.06478195414194898,-0.6523454374456505 l 16.98385752790324 1.8343559095572224" fill="#ffaa0f" stroke="none" /><path d="M 79.16333360222342 97.38593545837743 l -15.009386057679482 -1.8830029303099416 a36.12704101481909,36.12704101481909 0 0,0 0.08272060353305885,-0.6163645786232111 l 14.974749455088588 2.141085850997812" fill="#ff8e0d" stroke="none" /><path d="M 79.21141760316559 97.0276538004421 l -15.156355146422952 -2.1670517863440324 a36.31049361611827,36.31049361611827 0 0,0 0.09379191833258362,-0.617971554661045 l 15.116807334651066 2.4276224533971695" fill="#ff910d" stroke="none" /><path d="M 79.26566170972629 96.67025291283419 l -15.104340771893277 -2.425620436238552 a36.297867323721164,36.297867323721164 0 0,0 0.10437907802216406,-0.6160512270476546 l 15.06034983235089 2.6852574516020344" fill="#ff900d" stroke="none" /><path d="M 79.32604984820605 96.31383870115002 l -14.656000972939808 -2.613162128460998 a35.88714145927402,35.88714145927402 0 0,0 0.11366701119561923,-0.6072137189372314 l 14.608848237834327 2.865053924860802" fill="#ff8b0c" stroke="none" /><path d="M 79.46518482838121 95.60439243477599 l -14.663402083691336 -3.138794315523126 a35.99557902927272,35.99557902927272 0 0,0 0.1349073387007386,-0.604763146724624 l 14.60720035798856 3.390735631797709" fill="#ff8c0c" stroke="none" /><path d="M 79.62865764111835 94.90015583598534 l -18.957935334248113 -4.746006138077594 a40.542975372245735,40.542975372245735 0 0,0 0.17530718479484306,-0.675530095315865 l 18.87343181758296 5.071632658942323" fill="#ffcc13" stroke="none" /><path d="M 79.71946130924805 94.55025226153421 l -7.332726278328656 -1.9704362424225415 a28.59285806915577,28.59285806915577 0 0,0 0.13181747278155526,-0.4742175842111159 l 7.29772203498074 2.0963651300526" fill="#ff1d03" stroke="none" /><path d="M 79.91906864156998 93.8553929516997 l -19.75115361675273 -6.0436976532272455 a41.65512891550641,41.65512891550641 0 0,0 0.21570318297570704,-0.6838380362431945 l 19.64419495000882 6.382785855896854" fill="#ffdb14" stroke="none" /><path d="M 80.2630227832202 92.82701384747504 l -16.678575267575543 -6.061474770131174 a38.745882602596,38.745882602596 0 0,0 0.23320484644870237,-0.6248730463274585 l 16.57176583262521 6.347670953487975" fill="#ffb310" stroke="none" /><path d="M 80.65960295795068 91.81776055985345 l -15.740820888142569 -6.659385803260396 a38.09154356719286,38.09154356719286 0 0,0 0.26067184223989937,-0.6016665516787949 l 15.623858336059989 6.929351499525791" fill="#ffaa0f" stroke="none" /><path d="M 80.803312248108 91.48605970444005 l -17.95874660382074 -7.9648999006586445 a40.64576824681985,40.64576824681985 0 0,0 0.28916112387235515,-0.6371282066932809 l 17.81898316298503 8.272850116193997" fill="#ffcd13" stroke="none" /><path d="M 80.95270993114464 91.15688171328213 l -6.068060668364295 -2.817229016166838 a27.690152435070676,27.690152435070676 0 0,0 0.20443482125383713,-0.4305918709401007 l 6.018667653268706 2.921263302747471" fill="#ff0f01" stroke="none" /><path d="M 81.10775173730289 90.83032412892265 l -11.143047728588252 -5.4084688315710086 a33.38624429694776,33.38624429694776 0 0,0 0.25538885006647066,-0.5148483376951315 l 11.048298865568368 5.5994767577651015" fill="#ff6609" stroke="none" /><path d="M 81.26839172434947 90.50648371742162 l -29.63473237399288 -15.01941585486116 a54.22348891220542,54.22348891220542 0 0,0 0.4291158265883662,-0.8289151921443899 l 29.371807114244397 15.527303769265885" fill="#85ff25" stroke="none" /><path d="M 81.6062741919709 89.86733742301443 l -9.781073987086494 -5.388159168297281 a32.166990085236314,32.166990085236314 0 0,0 0.27133983315341703,-0.4826832862677263 l 9.686876512640646 5.555725964499792" fill="#ff5407" stroke="none" /><line stroke="#e1ed5e" stroke-width="0.3" x1="26.266209847984243" x2="21.928928074336255" y1="57.711370442889674" y2="55.22380399835377" /><path d="M 25.398753493254645 57.213857153982495 a86.0,86.0 0 0,1 29.58750427330803,-30.492523968695096" fill="none" id="id83" stroke="none" /><text fill="#e1ed5e" style="font-size:6.75px; font-family:Arial;" text-anchor="middle"><textPath startOffset="21.46611528233685" xlink:href="#id83">November</textPath></text><path d="M 81.78341655067845 89.55222093294921 l -13.140731972425952 -7.5366198502140165 a36.1485799842024,36.1485799842024 0 0,0 0.3142177884643715,-0.5371000556782465 l 13.009054509491255 7.761699318246155" fill="#ff8e0d" stroke="none" /><path d="M 82.15384107792192 88.93136811851018 l -14.756959631167925 -9.15263360371239 a38.36486566143617,38.36486566143617 0 0,0 0.3529063485485881,-0.5582130927609495 l 14.597225686373374 9.405294344187555" fill="#ffae10" stroke="none" /><path d="M 82.54541684631803 88.32363383020206 l -21.461216940139767 -14.356632022442872 a46.820470862855586,46.820470862855586 0 0,0 0.45388106540699996,-0.6660144575029582 l 21.21091140906403 14.723924503216246" fill="#dfff1b" stroke="none" /><path d="M 82.95767976084542 87.72973835380427 l -12.361172210293748 -8.899892452761001 a36.23176496940688,36.23176496940688 0 0,0 0.36876584707528964,-0.5029962009833051 l 12.206143750704825 9.111351097415806" fill="#ff900d" stroke="none" /><path d="M 83.17141714833178 87.43820079747576 l -14.01944770774097 -10.464902991963639 a38.494545111585296,38.494545111585296 0 0,0 0.4009372945729581,-0.5275864823166121 l 13.837234472943901 10.704674250161277" fill="#ffb010" stroke="none" /><path d="M 83.39014120810768 87.1503855733568 l -12.10988591919032 -9.368373732845164 a36.31064216073471,36.31064216073471 0 0,0 0.3867012833457539,-0.49107135971894283 l 11.946830555250594 9.575437486517155" fill="#ff910d" stroke="none" /><path d="M 83.84228863543731 86.58626213691792 l -25.43692329649085 -21.11711327451904 a54.06008983412518,54.06008983412518 0 0,0 0.6005545329635246,-0.71086714237808 l 25.0696581500402 21.551839366526234" fill="#86ff25" stroke="none" /><path d="M 84.80347519578584 85.50635884689758 l -11.117507594938985 -10.603290401845847 a36.363226954953255,36.363226954953255 0 0,0 0.4359011291255129,-0.44923443035484406 l 10.933342202110355 10.793089027750813" fill="#ff910d" stroke="none" /><path d="M 85.83668400450813 84.49514656593479 l -42.48994798647562 -46.514560302195655 a84.0,84.0 0 0,0 1.0759560496161145,-0.9660039649228849 l 41.68298094926353 47.23906327588782" fill="#4dd2ff" stroke="none" /><path d="M 86.93701828274178 83.55741782278169 l -9.549715245713815 -12.020377973065179 a36.35208610872051,36.35208610872051 0 0,0 0.49329338538222006,-0.38502331178084576 l 9.341389305172168 12.182979674069246" fill="#ff910d" stroke="none" /><path d="M 87.22198572758235 83.33499621200491 l -9.367872392413727 -12.2175187456174 a36.395609681336424,36.395609681336424 0 0,0 0.5004462991330606,-0.37692577716718056 l 9.156179939522275 12.376961112290434" fill="#ff920d" stroke="none" /><path d="M 87.51073957382395 83.11751280151077 l -22.973801891615526 -31.055074768312775 a59.629176048948985,59.629176048948985 0 0,0 0.8304205627371444,-0.603335854958681 l 22.4358360125246 31.445929858088125" fill="#48ff2c" stroke="none" /><path d="M 88.09926311788651 82.69761687909137 l -9.76998825227656 -14.20450527578125 a38.24008818362944,38.24008818362944 0 0,0 0.5455500431093019,-0.3683578243903238 l 9.524033514760719 14.370575012470239" fill="#ffac0f" stroke="none" /><path d="M 88.39885842347998 82.49532879139004 l -10.45378794972745 -15.773458132333134 a39.923098687855884,39.923098687855884 0 0,0 0.5760959683470662,-0.374708842964831 l 10.180724955596096 15.9510658994575" fill="#ffc412" stroke="none" /><path d="M 88.70189139769569 82.29822771554957 l -9.04549300650871 -14.17239495902424 a37.81302241137428,37.81302241137428 0 0,0 0.551675517036393,-0.3454591581573816 l 8.800198337100076 14.325998458504552" fill="#ffa60f" stroke="none" /><line stroke="#e1ed5e" stroke-width="0.3" x1="56.762969772571076" x2="54.21961505331055" y1="26.818313649435495" y2="22.513508569990535" /><path d="M 56.25429882871897 25.957352633546506 a86.0,86.0 0 0,1 42.265352541879196,-11.944610805530505" fill="none" id="id84" stroke="none" /><text fill="#e1ed5e" style="font-size:6.75px; font-family:Arial;" text-anchor="middle"><textPath startOffset="22.20632615414155" xlink:href="#id84">December</textPath></text><path d="M 89.94658935756843 81.56283822128135 l -7.1102667655012475 -13.039668159191612 a35.85223347441142,35.85223347441142 0 0,0 0.5443648683971327,-0.29078086014849336 l 6.884756850575809 13.160127745841855" fill="#ff8a0c" stroke="none" /><path d="M 90.58718382345135 81.22770947309562 l -10.359368873608686 -20.660031867535924 a44.111759782134556,44.111759782134556 0 0,0 0.6816920720017416,-0.33450333917508945 l 10.002205534596518 20.835290366845843" fill="#fffc17" stroke="none" /><path d="M 90.91171255644093 81.06846463323043 l -8.538595144295478 -17.786488044160432 a40.72984449972296,40.72984449972296 0 0,0 0.6346520271756262,-0.29797763651355846 l 8.231164905820243 17.930830663313998" fill="#ffcf13" stroke="none" /><path d="M 91.23893434514133 80.91482961587045 l -7.991147877788213 -17.407975789769782 a40.154531200264074,40.154531200264074 0 0,0 0.630651543544329,-0.28295496453708596 l 7.69031421577711 17.542951084823397" fill="#ffc712" stroke="none" /><path d="M 91.90106846888425 80.62456947434976 l -17.208064486202733 -41.167610400503925 a65.6193862513705,65.6193862513705 0 0,0 1.0458984307640076,-0.4266482308542715 l 16.496882185850346 41.457719517541776" fill="#34ff5f" stroke="none" /><path d="M 92.23578459929587 80.48803036053334 l -5.7867080086428775 -14.542367148502677 a36.65140351084022,36.65140351084022 0 0,0 0.5881971433115771,-0.22821135341399124 l 5.535527700331624 14.639821205807221" fill="#ff960d" stroke="none" /><path d="M 92.91201910852362 80.23233633223022 l -8.350853640764695 -23.28968836638932 a45.741591313676714,45.741591313676714 0 0,0 0.743448965625732,-0.2593747461037182 l 7.948722671075679 23.429983965665247" fill="#edff1a" stroke="none" /><path d="M 93.25333710446033 80.11325718540243 l -7.167642315903394 -21.12763917960591 a43.310361576459215,43.310361576459215 0 0,0 0.7080567192424178,-0.23343516799168545 l 6.802902774418567 21.24788807185683" fill="#fff116" stroke="none" /><path d="M 93.59665428221793 80.00007090966166 l -4.697709355621245 -14.672619305644279 a36.40630489371986,36.40630489371986 0 0,0 0.5984756654697655,-0.18594930249171684 l 4.4444483174407505 14.751308743018521" fill="#ff920d" stroke="none" /><path d="M 94.28887869178378 79.79150937346287 l -10.134181862875504 -35.859248671344865 a58.26375393466395,58.26375393466395 0 0,0 0.9674616180365221,-0.26444380628373004 l 9.515422355615259 36.02837901845489" fill="#57ff2a" stroke="none" /><path d="M 95.33964822691252 79.52364482259891 l -4.976433540421488 -21.86513500522595 a43.42429529726607,43.42429529726607 0 0,0 0.7302669444159788,-0.15960806912609565 l 4.599323871851988 21.947556572447915" fill="#fff316" stroke="none" /><path d="M 95.692805502759 79.44645832069477 l -5.25689678604238 -25.085434907789352 a46.63033375381677,46.63033375381677 0 0,0 0.7870169819100505,-0.15786820269979446 l 4.824313394665193 25.172207066566358" fill="#e1ff1b" stroke="none" /><path d="M 96.40284397218896 79.31037775812273 l -3.947614009889367 -22.705337769586432 a44.04595451705316,44.04595451705316 0 0,0 0.7480907411413279,-0.1234413821771331 l 3.5561940626091535 22.769925414703195" fill="#fffb17" stroke="none" /><path d="M 96.75951476605007 79.25152402106235 l -5.794960855577253 -37.104506711258416 a58.554307204413895,58.554307204413895 0 0,0 0.997182694562317,-0.14695880789551077 l 5.155409180586288 37.198760003314895" fill="#54ff2b" stroke="none" /><path d="M 97.47563105711357 79.15227682838746 l -3.1468976149128607 -25.98893101976447 a47.17876047770062,47.17876047770062 0 0,0 0.8070562690823727,-0.09068217538673318 l 2.69907464232077 26.0392491486218" fill="#daff1b" stroke="none" /><path d="M 98.19473922651362 79.07773832637324 l -2.2166124143142785 -25.689665250815242 a46.78511724414369,46.78511724414369 0 0,0 0.8029435831725154,-0.06232387563747505 l 1.7740786417794292 25.72401438864118" fill="#dfff1b" stroke="none" /><path d="M 98.91598698831166 79.02799685794201 l -1.3198854914889733 -25.535341712874114 a46.56943046107777,46.56943046107777 0 0,0 0.800903654353624,-0.034488596102061175 l 0.8801410047460252 25.554278035500367" fill="#e2ff1b" stroke="none" /><path d="M 99.27714615592234 79.0124445844662 l -0.7961780491306902 -23.11647238742039 a44.1301793145727,44.1301793145727 0 0,0 0.7594033994457373,-0.01961314934942133 l 0.39814801449007386 23.126752328912172" fill="#fffc17" stroke="none" /></svg>