<?xml version="1.0" encoding="utf-8" ?>
<svg baseProfile="full" height="200mm" version="1.1" viewBox="0,0,200,200" width="200mm" xmlns="http://www.w3.org/2000/svg" xmlns:ev="http://www.w3.org/2001/xml-events" xmlns:xlink="http://www.w3.org/1999/xlink"><defs /><rect fill="#1a1a1a" height="200" width="200" x="0" y="0" /><text alignment-baseline="middle" fill="#e1ed5e" style="dominant-baseline: central; font-size:9.0px; font-family:Arial;" text-anchor="middle" x="100.0" y="100.0">2023</text><line stroke="#e1ed5e" stroke-width="0.3" x1="100.0" x2="100.0" y1="15.0" y2="10.0" /><path d="M 100.0 14.0 a86.0,86.0 0 0,1 42.46469731375804,11.215312516191453" fill="none" id="id73" stroke="none" /><text fill="#e1ed5e" style="font-size:6.75px; font-family:Arial;" text-anchor="middle"><textPath startOffset="22.20632615414155" xlink:href="#id73">January</textPath></text><path d="M 101.08401301168833 79.027996857942 l 1.3712184895302926 -26.52846244538019 a47.563876973476155,47.563876973476155 0 0,0 0.8172786626835189,0.049300480824286334 l -1.8276592010534232 26.5009286951756" fill="#ff700a" stroke="none" /><path d="M 101.80526077348638 79.07773832637324 l 2.355316146973269 -27.297186907753407 a48.3986117755812,48.3986117755812 0 0,0 0.8294021077021855,0.07876172398341769 l -2.8248433817656986 27.25259963925481" fill="#ff810b" stroke="none" /><path d="M 102.16513564639614 79.11191278185805 l 2.6759983162860523 -25.816620921291353 a46.95493946790137,46.95493946790137 0 0,0 0.8032275091216912,0.09025196959369013 l -3.119992528917469 25.766732998227063" fill="#ff6309" stroke="none" /><path d="M 102.52436894288641 79.15227682838746 l 3.281620263995524 -27.10154987880126 a48.299506174841675,48.299506174841675 0 0,0 0.8245076944773848,0.1070447622724412 l -3.747642686980755 27.041046793364682" fill="#ff7f0b" stroke="none" /><path d="M 102.88285421437855 79.19881850522331 l 3.7852320221146782 -27.3122719487988 a48.57332371090551,48.57332371090551 0 0,0 0.8272060610809565,0.12190867058092918 l -4.25480706362429 27.243068794056903" fill="#ff840c" stroke="none" /><path d="M 103.2404852339499 79.25152402106235 l 5.3067829832920275 -33.97875666912293 a55.39066516383805,55.39066516383805 0 0,0 0.9407729769753271,0.1552356020548484 l -5.89088516640623 33.88237480412846" fill="#f9ff18" stroke="none" /><path d="M 103.59715602781102 79.31037775812273 l 7.085075746708455 -40.75095425974256 a62.36228440761253,62.36228440761253 0 0,0 1.0560158378340718,0.19298014448081163 l -7.785486705645428 40.622958633911004" fill="#83ff25" stroke="none" /><path d="M 103.95276090670814 79.375362276772 l 9.661111388297861 -50.40955602683736 a72.32699496444296,72.32699496444296 0 0,0 1.220719834176222,0.244864914799789 l -10.52739763194121 50.23578715596036" fill="#37ff7c" stroke="none" /><path d="M 105.01212808612495 79.60689891045804 l 12.379842167917511 -50.370495020230855 a72.86952150045005,72.86952150045005 0 0,0 1.215502174637291,0.3098585685999264 l -13.245053231239828 50.14993345546206" fill="#38ff85" stroke="none" /><path d="M 105.71112130821622 79.79150937346287 l 13.972271270581436 -49.44011828233594 a72.37654776481273,72.37654776481273 0 0,0 1.1959700038951258,0.34913643979384784 l -14.821231492199988 49.19228351362339" fill="#38ff7d" stroke="none" /><path d="M 106.0581310904928 79.89281104454417 l 6.122434534274199 -20.32061475877468 a42.22290245939524,42.22290245939524 0 0,0 0.694093501694849,0.21565822965062972 l -6.471313408679767 20.21221639424153" fill="#ff0000" stroke="none" /><path d="M 106.40334571778207 80.00007090966166 l 19.21003715334621 -59.99978727101504 a84.0,84.0 0 0,0 1.37326871103033,0.45274510296305515 l -20.239988686618958 59.66022844379275" fill="#4dd2ff" stroke="none" /><path d="M 107.08798089147638 80.2323363322302 l 17.44128502669032 -48.64198445511179 a72.67437542064334,72.67437542064334 0 0,0 1.173925362196251,0.4323666180605493 l -18.275992714659147 48.334554569244915" fill="#38ff82" stroke="none" /><path d="M 107.76421540070413 80.48803036053334 l 19.276972314004663 -48.44426373044558 a73.13874135400535,73.13874135400535 0 0,0 1.1657484042470692,0.47553804429163293 l -20.10800458784012 48.105264799970364" fill="#39ff8a" stroke="none" /><line stroke="#e1ed5e" stroke-width="0.3" x1="143.23703022742887" x2="145.7803849466894" y1="26.81831364943548" y2="22.513508569990506" /><path d="M 143.74570117128098 25.957352633546492 a86.0,86.0 0 0,1 28.547481713284135,27.462654790039103" fill="none" id="id74" stroke="none" /><text fill="#e1ed5e" style="font-size:6.75px; font-family:Arial;" text-anchor="middle"><textPath startOffset="19.985693538727396" xlink:href="#id74">February</textPath></text><line stroke="#e1ed5e" stroke-width="0.3" x1="172.23445277983987" x2="176.4835382374775" y1="55.19839476539836" y2="52.563006222186495" /><path d="M 173.08426987136738 54.67131705675599 a86.0,86.0 0 0,1 12.851231095245387,41.99856678651699" fill="none" id="id75" stroke="none" /><text fill="#e1ed5e" style="font-size:6.75px; font-family:Arial;" text-anchor="middle"><textPath startOffset="22.20632615414155" xlink:href="#id75">March</textPath></text><line stroke="#e1ed5e" stroke-width="0.3" x1="184.98032266829074" x2="189.97916517819016" y1="98.17113171792111" y2="98.06355123074" /><path d="M 185.9800911702706 98.14961562048488 a86.0,86.0 0 0,1 -9.607161424134198,41.387399972396054" fill="none" id="id76" stroke="none" /><text fill="#e1ed5e" style="font-size:6.75px; font-family:Arial;" text-anchor="middle"><textPath startOffset="21.466115282336823" xlink:href="#id76">April</textPath></text><line stroke="#e1ed5e" stroke-width="0.3" x1="174.80103733775053" x2="179.2010983576182" y1="140.37084112569926" y2="142.7455964860345" /><path d="M 175.68104954172406 140.8457921977663 a86.0,86.0 0 0,1 -30.038265399797805,32.042727171017184" fill="none" id="id77" stroke="none" /><text fill="#e1ed5e" style="font-size:6.75px; font-family:Arial;" text-anchor="middle"><textPath startOffset="22.206326154141568" xlink:href="#id77">May</textPath></text><line stroke="#e1ed5e" stroke-width="0.3" x1="143.8653032363475" x2="146.44561519142675" y1="172.8068346515853" y2="177.08958963109032" /><path d="M 144.38136562736335 173.6633856474863 a86.0,86.0 0 0,1 -40.68145358897372,12.25698825130547" fill="none" id="id78" stroke="none" /><text fill="#e1ed5e" style="font-size:6.75px; font-family:Arial;" text-anchor="middle"><textPath startOffset="21.466115282336833" xlink:href="#id78">June</textPath></text><line stroke="#e1ed5e" stroke-width="0.3" x1="102.19456741930631" x2="102.32365962044197" y1="184.97166512339345" y2="189.96999836594603" /><path d="M 102.22038585953345 185.97133177190398 a86.0,86.0 0 0,1 -42.740103519485714,-10.115201625700543" fill="none" id="id79" stroke="none" /><text fill="#e1ed5e" style="font-size:6.75px; font-family:Arial;" text-anchor="middle"><textPath startOffset="22.20632615414155" xlink:href="#id79">July</textPath></text><line stroke="#e1ed5e" stroke-width="0.3" x1="58.666819895761336" x2="56.23545636021788" y1="174.27360380694188" y2="178.64263932499728" /><path d="M 58.180547188652646 175.14741091055294 a86.0,86.0 0 0,1 -31.652253787137756,-30.449443065178592" fill="none" id="id80" stroke="none" /><text fill="#e1ed5e" style="font-size:6.75px; font-family:Arial;" text-anchor="middle"><textPath startOffset="22.20632615414155" xlink:href="#id80">August</textPath></text><line stroke="#e1ed5e" stroke-width="0.3" x1="26.63291911575756" x2="22.317208475507996" y1="142.92168965132927" y2="145.44649492493687" /><path d="M 25.769776987707644 143.4266507060508 a86.0,86.0 0 0,1 -11.730757126820373,-40.83630448921669" fill="none" id="id81" stroke="none" /><text fill="#e1ed5e" style="font-size:6.75px; font-family:Arial;" text-anchor="middle"><textPath startOffset="21.46611528233685" xlink:href="#id81">September</textPath></text><line stroke="#e1ed5e" stroke-width="0.3" x1="15.007084014347285" x2="10.007500721073583" y1="101.09737516637583" y2="101.16192664675087" /><path d="M 14.007167355692545 101.11028546245083 a86.0,86.0 0 0,1 10.666146001902534,-42.60595125391555" fill="none" id="id82" stroke="none" /><text fill="#e1ed5e" style="font-size:6.75px; font-family:Arial;" text-anchor="middle"><textPath startOffset="22.20632615414155" xlink:href="#id82">October</textPath></text><line stroke="#e1ed5e" stroke-width="0.3" x1="26.266209847984243" x2="21.928928074336255" y1="57.711370442889674" y2="55.22380399835377" /><path d="M 25.398753493254645 57.213857153982495 a86.0,86.0 0 0,1 29.58750427330803,-30.492523968695096" fill="none" id="id83" stroke="none" /><text fill="#e1ed5e" style="font-size:6.75px; font-family:Arial;" text-anchor="middle"><textPath startOffset="21.46611528233685" xlink:href="#id83">November</textPath></text><line stroke="#e1ed5e" stroke-width="0.3" x1="56.762969772571076" x2="54.21961505331055" y1="26.818313649435495" y2="22.513508569990535" /><path d="M 56.25429882871897 25.957352633546506 a86.0,86.0 0 0,1 42.265352541879196,-11.944610805530505" fill="none" id="id84" stroke="none" /><text fill="#e1ed5e" style="font-size:6.75px; font-family:Arial;" text-anchor="middle"><textPath startOffset="22.20632615414155" xlink:href="#id84">December</textPath></text></svg>