<?xml version="1.0" encoding="utf-8" ?>
<svg baseProfile="full" height="200mm" version="1.1" viewBox="0,0,200,200" width="200mm" xmlns="http://www.w3.org/2000/svg" xmlns:ev="http://www.w3.org/2001/xml-events" xmlns:xlink="http://www.w3.org/1999/xlink"><defs /><rect fill="#1a1a1a" height="200" width="200" x="0" y="0" /><text alignment-baseline="middle" fill="#e1ed5e" style="dominant-baseline: central; font-size:9.0px; font-family:Arial;" text-anchor="middle" x="100.0" y="100.0">2021</text><line stroke="#e1ed5e" stroke-width="0.3" x1="100.0" x2="100.0" y1="15.0" y2="10.0" /><path d="M 100.0 14.0 a86.0,86.0 0 0,1 42.46469731375804,11.215312516191453" fill="none" id="id49" stroke="none" /><text fill="#e1ed5e" style="font-size:6.75px; font-family:Arial;" text-anchor="middle"><textPath startOffset="22.20632615414155" xlink:href="#id49">January</textPath></text><path d="M 100.0 79.0 l 0.0 -63.0 a84.0,84.0 0 0,0 1.4459219170901134,0.012445506434235476 l -1.084441437817585 62.990665870174325" fill="#4dd2ff" stroke="none" /><path d="M 100.72285384407766 79.0124445844662 l 0.3098253227734226 -8.995561390615297 a30.000895314520676,30.000895314520676 0 0,0 0.5159570656841472,0.022218196592877593 l -0.46462322084690133 8.988895467498224" fill="#ff4d07" stroke="none" /><path d="M 103.2404852339499 79.25152402106235 l 6.051001631463176 -38.74390806770981 a60.21358225287661,60.21358225287661 0 0,0 1.0226869611121732,0.16875211130352774 l -6.717017798714225 38.63400969346666" fill="#3aff2e" stroke="none" /><path d="M 105.71112130821622 79.79150937346287 l 11.481274950524623 -40.62586394104104 a63.21706403156812,63.21706403156812 0 0,0 1.0446161726551724,0.30495210605957973 l -12.178881340903223 40.422213506062754" fill="#32ff49" stroke="none" /><path d="M 108.09893153111575 80.62456947434976 l 17.454296814700765 -41.756682842424645 a66.25785058195444,66.25785058195444 0 0,0 1.0485028534421845,0.44891420271292154 l -18.170483425933266 41.45004911174893" fill="#36ff6e" stroke="none" /><path d="M 110.05341064243156 81.56283822128135 l 20.21416612111549 -37.071185516277616 a63.22422654773352,63.22422654773352 0 0,0 0.9510004834991118,0.5292307394408788 l -20.849290693686633 36.71773937927655" fill="#32ff49" stroke="none" /><line stroke="#e1ed5e" stroke-width="0.3" x1="143.23703022742887" x2="145.7803849466894" y1="26.81831364943548" y2="22.513508569990506" /><path d="M 143.74570117128098 25.957352633546492 a86.0,86.0 0 0,1 28.547481713284135,27.462654790039103" fill="none" id="id50" stroke="none" /><text fill="#e1ed5e" style="font-size:6.75px; font-family:Arial;" text-anchor="middle"><textPath startOffset="19.985693538727396" xlink:href="#id50">February</textPath></text><path d="M 112.48926042617603 83.11751280151076 l 5.587003344807448 -7.552289665522498 a30.394236827270618,30.394236827270618 0 0,0 0.4179263232120473,0.3147734421219899 l -5.7161758217778775 7.45499963389466" fill="#ff5307" stroke="none" /><path d="M 113.89432698308785 84.25364557470407 l 10.010873813455827 -11.345261081408422 a36.1305169612362,36.1305169612362 0 0,0 0.4627958130975836,0.4155026504674406 l -10.204680614149401 11.171259422171683" fill="#ffa40f" stroke="none" /><path d="M 114.16331599549186 84.49514656593476 l 9.431565202820817 -10.324915166060883 a34.98421593659847,34.98421593659847 0 0,0 0.44112117007761686,0.4099740524653028 l -9.607894256693282 10.16103652752094" fill="#ff940d" stroke="none" /><path d="M 114.42810811169701 84.74124197986012 l 9.467234914423196 -10.012279195627146 a34.77948734953742,34.77948734953742 0 0,0 0.4314590111011629,0.41506322683479224 l -9.638177169136778 9.847832882030053" fill="#ff910d" stroke="none" /><path d="M 114.68862486808459 84.99185889309783 l 10.46564260919695 -10.693297872595053 a35.96249626952283,35.96249626952283 0 0,0 0.4386811467079983,0.4367973104516248 l -10.64815955607227 10.511564711493309" fill="#ffa20e" stroke="none" /><path d="M 114.94478906791727 85.2469230424477 l 10.389049242955785 -10.25577827164925 a35.59840169778161,35.59840169778161 0 0,0 0.4267328505896927,0.43978571340924516 l -10.564046357248587 10.07542836268989" fill="#ff9d0e" stroke="none" /><path d="M 115.19652480421416 85.50635884689758 l 10.508111938928863 -10.022081074564595 a35.521106210829984,35.521106210829984 0 0,0 0.41818943881310094,0.4460953359104162 l -10.679068699712426 9.839716321776125" fill="#ff9c0e" stroke="none" /><path d="M 115.4437574822437 85.77008943001954 l 11.659689760409044 -10.743262626022089 a36.85452797028882,36.85452797028882 0 0,0 0.42585645638498903,0.470241335530254 l -11.842889857410068 10.540968503222285" fill="#ffae10" stroke="none" /><path d="M 115.68641384162765 86.03803664274999 l 11.666556193839028 -10.38401968277901 a36.61846337500414,36.61846337500414 0 0,0 0.415023439358455,0.47444353524241567 l -11.843571496775331 10.181660591333648" fill="#ffab0f" stroke="none" /><path d="M 115.9244219780498 86.31012108654704 l 7.269220010851845 -6.249190198613294 a30.586132572868653,30.586132572868653 0 0,0 0.339781909701249,0.4021946083550165 l -7.375712534040212 6.123136640629172" fill="#ff5607" stroke="none" /><path d="M 116.15771136456269 86.58626213691792 l 12.161510007172 -10.096188969759435 a36.806180986172365,36.806180986172365 0 0,0 0.4004889455356664,0.49095209288077146 l -12.333497444784074 9.885352707270563" fill="#ffad10" stroke="none" /><path d="M 116.38621287248628 86.86637796730983 l 11.994205754791999 -9.613408918314251 a36.37135656729781,36.37135656729781 0 0,0 0.3873478799780039,0.4918924717789851 l -12.157907715363965 9.405524052582228" fill="#ffa70f" stroke="none" /><path d="M 116.60985879189232 87.15038557335679 l 12.753929867759688 -9.866614959132342 a37.124912955532714,37.124912955532714 0 0,0 0.3866719847838343,0.5088150067949414 l -12.921877792767635 9.645615176456367" fill="#ffb210" stroke="none" /><path d="M 116.82858285166822 87.43820079747576 l 12.838890404155716 -9.583668729671547 a37.02135490930795,37.02135490930795 0 0,0 0.37680227045339587,0.5139578734395234 l -13.001955287122739 9.361248412560531" fill="#ffb010" stroke="none" /><path d="M 117.04232023915458 87.72973835380427 l 12.942617699660083 -9.318526077021499 a36.94823755678615,36.94823755678615 0 0,0 0.36717289993283253,0.5193400279147068 l -13.1011032193968 9.094359548774998" fill="#ffaf10" stroke="none" /><path d="M 117.2510076193507 88.02491185347247 l 15.139853464957229 -10.5095936288965 a39.43004940809762,39.43004940809762 0 0,0 0.3822377798553198,0.5608867762729743 l -15.318515710481282 10.247428829353119" fill="#ffd013" stroke="none" /><path d="M 117.45458315368197 88.32363383020206 l 13.54989750927116 -9.064299243841218 a37.30218523062639,37.30218523062639 0 0,0 0.3524228122980093,0.5367641214692428 l -13.703916956927095 8.829717058394301" fill="#ffb410" stroke="none" /><path d="M 117.65298651832404 88.62581576622439 l 13.884796117127449 -8.946261241444228 a37.51735915376198,37.51735915376198 0 0,0 0.3451104023921905,0.5458817781420443 l -14.036734115765594 8.705931815587977" fill="#ffb711" stroke="none" /><line stroke="#e1ed5e" stroke-width="0.3" x1="172.23445277983987" x2="176.4835382374775" y1="55.19839476539836" y2="52.563006222186495" /><path d="M 173.08426987136738 54.67131705675599 a86.0,86.0 0 0,1 12.851231095245387,41.99856678651699" fill="none" id="id51" stroke="none" /><text fill="#e1ed5e" style="font-size:6.75px; font-family:Arial;" text-anchor="middle"><textPath startOffset="22.20632615414155" xlink:href="#id51">March</textPath></text><path d="M 118.03404312379186 89.2402003453031 l 14.88315367128467 -8.879858533875929 a38.330901614882116,38.330901614882116 0 0,0 0.3331873932679256,0.5695252593752639 l -15.033800739022922 8.62235386214677" fill="#ffc212" stroke="none" /><path d="M 118.21658344932153 89.55222093294921 l 37.26892457966799 -21.374891244463964 a63.96345790363763,63.96345790363763 0 0,0 0.5395541811496447,0.9598066831918026 l -37.631336402110065 20.730201051337367" fill="#33ff52" stroke="none" /><path d="M 118.3937258080291 89.86733742301442 l 13.532914587100953 -7.454958208325776 a36.45044268329078,36.45044268329078 0 0,0 0.29801170422012363,0.5521704277859542 l -13.659234390539542 7.220906797207363" fill="#ffa80f" stroke="none" /><path d="M 118.56541770881063 90.18545643968196 l 14.572119036215051 -7.703500093035866 a37.48303876380277,37.48303876380277 0 0,0 0.2966346409065578,0.5730037093215987 l -14.702563110281725 7.451523661453923" fill="#ffb610" stroke="none" /><path d="M 118.73160827565052 90.50648371742162 l 13.991273279739586 -7.091029170617165 a36.68561196405478,36.68561196405478 0 0,0 0.28062743955724073,0.5657277940289214 l -14.111260732250233 6.849141788089294" fill="#ffac0f" stroke="none" /><path d="M 118.89224826269711 90.83032412892265 l 30.735802000937504 -14.918147277510496 a55.16490367078953,55.16490367078953 0 0,0 0.4072793476983211,0.8578341754359674 l -30.988039542477583 14.386870686433989" fill="#6fff27" stroke="none" /><path d="M 119.04729006885535 91.15688171328212 l 11.782216801032693 -5.470150161762525 a33.99011838047551,33.99011838047551 0 0,0 0.2418116634373616,0.5327999470335908 l -11.874630781433401 5.266528205886872" fill="#ff860c" stroke="none" /><path d="M 119.196687751892 91.48605970444005 l 15.022320490261912 -6.662562907095839 a37.43349802699207,37.43349802699207 0 0,0 0.2561686395030686,0.5912725388889993 l -15.13477983960766 6.402991223620237" fill="#ffb610" stroke="none" /><path d="M 119.34039704204932 91.81776055985345 l 17.624673067011745 -7.456377176490042 a40.13704944125742,40.13704944125742 0 0,0 0.2637163035842853,0.6386099469189117 l -17.75041105748223 7.151892659117827" fill="#ffda14" stroke="none" /><path d="M 119.47837535516314 92.15188598940014 l 17.605083788360243 -7.093338238837793 a39.98036940013927,39.98036940013927 0 0,0 0.25169822441955725,0.6405445271100471 l -17.7245755626615 6.789244706831962" fill="#ffd814" stroke="none" /><path d="M 119.61058180528143 92.48833698450437 l 15.151684768867716 -5.803721237383186 a37.225188181848324,37.225188181848324 0 0,0 0.22405204658805503,0.6003480931867203 l -15.249341403957395 5.542050007167133" fill="#ffb310" stroke="none" /><path d="M 119.85752413597 93.16781622104841 l 51.32267742132624 -17.65809079567922 a75.27545843419438,75.27545843419438 0 0,0 0.411013703649303,1.2288786590997707 l -51.61902841874731 16.772039033657137" fill="#42ffd4" stroke="none" /><path d="M 119.97218684219823 93.5106431181261 l 19.232427161104766 -6.248994391007659 a41.22217064031568,41.22217064031568 0 0,0 0.21346119068121824,0.6767303079900278 l -19.33714383555419 5.917013916591212" fill="#ffe815" stroke="none" /><path d="M 120.08093135843002 93.85539295169968 l 18.54379584466221 -5.674255671489034 a40.39251251782339,40.39251251782339 0 0,0 0.197719623222571,0.6666122778166914 l -18.63872136499648 5.354214006925813" fill="#ffdd14" stroke="none" /><path d="M 120.18372546131832 94.20196356495316 l 19.710347450247745 -5.662052473067316 a41.507477534237495,41.507477534237495 0 0,0 0.1913558545587459,0.6884088213698435 l -19.804890075372857 5.321932348278521" fill="#ffec16" stroke="none" /><path d="M 120.28053869075195 94.5502522615342 l 10.222362203756395 -2.746933705814404 a31.585005139768548,31.585005139768548 0 0,0 0.13657306307553937,0.5262717236887118 l -10.268131598702238 2.5705655565768417" fill="#ff6409" stroke="none" /><path d="M 120.37134235888165 94.90015583598534 l 9.004156675956832 -2.2541369668617603 a30.282024074012668,30.282024074012668 0 0,0 0.12223439919945267,0.5067404988025451 l -9.041623875417105 2.098811236399809" fill="#ff5107" stroke="none" /><path d="M 120.45610955862082 95.25157060432595 l 36.66273535619021 -8.510435955197797 a58.63753025831482,58.63753025831482 0 0,0 0.21976679826986845,0.9851714647051435 l -36.80379654146212 7.878086320942691" fill="#4aff2c" stroke="none" /><path d="M 120.53481517161879 95.60439243477599 l 15.692427954042286 -3.3590638364671244 a37.04791590675465,37.04791590675465 0 0,0 0.1281164637157385,0.6247413767139328 l -15.747923713673021 3.0884468035897794" fill="#ffb010" stroke="none" /><path d="M 120.6074358757038 95.95851677861258 l 20.84806860931982 -4.088675563088337 a42.2452166992738,42.2452166992738 0 0,0 0.13380523842968192,0.7147929340760292 l -20.915359571659362 3.729204551549745" fill="#fff517" stroke="none" /><path d="M 120.67395015179393 96.31383870115 l 19.23303461650791 -3.4292463386181575 a40.536359717478526,40.536359717478526 0 0,0 0.11656739543262601,0.687987366345273 l -19.28921387346076 3.097673183957047" fill="#ffdf14" stroke="none" /><path d="M 120.73433829027371 96.67025291283417 l 19.08913785653369 -3.065542786292649 a40.33372019763239,40.33372019763239 0 0,0 0.10418412458999207,0.6864432094839629 l -19.139077874562982 2.7365004644166038" fill="#ffdc14" stroke="none" /><path d="M 120.78858239683441 97.02765380044208 l 7.949528540647096 -1.1366215596147444 a29.03037437410883,29.03037437410883 0 0,0 0.066471264226477,0.4952881267256759 l -7.967915803931409 0.9996150908244043" fill="#ff3f05" stroke="none" /><path d="M 120.83666639777658 97.38593545837742 l 18.703933173759598 -2.3465024378189625 a39.85054879464137,39.85054879464137 0 0,0 0.07952963964746072,0.6813613845669989 l -18.74155316641065 2.0241973149271106" fill="#ffd614" stroke="none" /><path d="M 120.87857604477298 97.74499172005257 l 15.62755467864104 -1.6878672721787096 a36.7184401631462,36.7184401631462 0 0,0 0.06246134395679421,0.6289772095737489 l -15.654293148280063 1.4186145319005257" fill="#ffac0f" stroke="none" /><path d="M 120.91429891909075 98.10471618934814 l 26.441010324178226 -2.3961223370939773 a47.54935835792685,47.54935835792685 0 0,0 0.06685330236045771,0.8157796220029288 l -26.478338110358177 1.94062879788328" fill="#c7ff1e" stroke="none" /><path d="M 120.94382443527127 98.46500227214037 l 19.343315783928546 -1.417694550933965 a40.39519846138541,40.39519846138541 0 0,0 0.0448567692561358,0.6939143663164059 l -19.364853144189095 1.0845211203645237" fill="#ffdd14" stroke="none" /><path d="M 120.96714384426684 98.82574320788733 l 20.643447750071868 -1.1561283173899306 a41.67579666412441,41.67579666412441 0 0,0 0.033948690710364424,0.7166032046692172 l -20.660290049015728 0.8006140060977137" fill="#ffee16" stroke="none" /><path d="M 120.98425023603335 99.18683210126433 l 15.63776399524086 -0.6059843714167423 a36.649500945054214,36.649500945054214 0 0,0 0.019002426873232156,0.6305980368297046 l -15.645878116569738 0.3367161871620387" fill="#ffab0f" stroke="none" /><line stroke="#e1ed5e" stroke-width="0.3" x1="184.98032266829074" x2="189.97916517819016" y1="98.17113171792111" y2="98.06355123074" /><path d="M 185.9800911702706 98.14961562048488 a86.0,86.0 0 0,1 -9.607161424134198,41.387399972396054" fill="none" id="id52" stroke="none" /><text fill="#e1ed5e" style="font-size:6.75px; font-family:Arial;" text-anchor="middle"><textPath startOffset="21.466115282336823" xlink:href="#id52">April</textPath></text><path d="M 120.99513854157772 99.54816195383933 l 16.062401360223788 -0.3456802170121131 a37.066120635341704,37.066120635341704 0 0,0 0.008237491484716022,0.6380027935253767 l -16.06597185882622 0.06914116542627365" fill="#ffb110" stroke="none" /><path d="M 120.99980553446 99.90962569577887 l 16.429466188135777 -0.07070549167899874 a37.42961833073581,37.42961833073581 0 0,0 -0.0027728266042854003,0.6443072505245055 l -16.428249064241985 -0.21211123704919155" fill="#ffb610" stroke="none" /><path d="M 120.99824983174949 100.27111621757518 l 34.91734038739655 0.45083077539645977 a55.920250688065785,55.920250688065785 0 0,0 -0.020711628785259256,0.9623880048684197 l -34.90440669592628 -1.0518085960549943" fill="#67ff28" stroke="none" /><path d="M 120.9904718944345 100.63252640178507 l 30.145582663620402 0.9084063010984494 a51.15926650528899,51.15926650528899 0 0,0 -0.03410098171290121,0.8799948137040301 l -30.125479549056298 -1.4271783618164857" fill="#9cff22" stroke="none" /><path d="M 120.9764740272857 100.99374915477107 l 12.006728280053238 0.5688122829579602 a33.02019431641078,33.02019431641078 0 0,0 -0.03178374388273937,0.5675200981377596 l -11.99515818528297 -0.7754040974311431" fill="#ff790b" stroke="none" /><path d="M 120.95626037817324 101.35467743843564 l 15.676171050444172 1.0133561456037712 a36.708890141592335,36.708890141592335 0 0,0 -0.04618929548350657,0.6302162393063293 l -15.656405196296326 -1.2830455214068708" fill="#ffac0f" stroke="none" /><path d="M 120.92983693683757 101.71520430193887 l 20.07072800189379 1.6448001537605264 a41.13801107537222,41.13801107537222 0 0,0 -0.0639116295091507,0.7052595059632872 l -20.039441776107566 -1.990041048272384" fill="#ffe715" stroke="none" /><path d="M 120.89721153311464 102.0752229133903 l 15.766233801413412 1.5656849523064194 a36.843784196040716,36.843784196040716 0 0,0 -0.06810432888010562,0.630561502654287 l -15.736947171032254 -1.8368427768454978" fill="#ffae10" stroke="none" /><path d="M 120.8583938346157 102.4346265915055 l 15.9871305124467 1.866044594616743 a37.09566601452399,37.09566601452399 0 0,0 -0.0794880468636461,0.6335979424902013 l -15.952640956336205 -2.140960291394339" fill="#ffb110" stroke="none" /><path d="M 120.81339534386255 102.79330883721812 l 30.22432853431669 4.05632442948747 a51.495307888715715,51.495307888715715 0 0,0 -0.12546696649135403,0.8775156714161841 l -30.150027516808734 -4.575985572884063" fill="#98ff23" stroke="none" /><path d="M 120.76222939487914 103.15116336523771 l 31.835700350876326 4.831826618634205 a53.20028517425473,53.20028517425473 0 0,0 -0.1452070006508304,0.904204131663627 l -31.747811595864206 -5.3791099799910365" fill="#85ff25" stroke="none" /><path d="M 120.70491114924044 103.5080841355445 l 3.7775117267341205 0.6400331237777575 a24.831349272142454,24.831349272142454 0 0,0 -0.07503035489693503,0.4208100761880879 l -3.765934929497997 -0.7049619506990638" fill="#ff0000" stroke="none" /><path d="M 120.64145759157962 103.86396538481128 l 15.699413576242662 2.9388423928542755 a36.97211261067082,36.97211261067082 0 0,0 -0.12248344535026966,0.624540449044457 l -15.646500197916728 -3.2086465689666777" fill="#ffaf10" stroke="none" /><path d="M 120.5718875245553 104.21870165774334 l 15.236327366255505 3.124531934233962 a36.55340385316842,36.55340385316842 0 0,0 -0.13170706859255402,0.6152915769235616 l -15.180286258938507 -3.3863373305736926" fill="#ffaa0f" stroke="none" /><path d="M 120.49622156327973 104.57218783832717 l 15.737793893822383 3.5107031616182467 a37.12461451735915,37.12461451735915 0 0,0 -0.14450214193787236,0.6225114454959351 l -15.675031185953957 -3.781083264462747" fill="#ffb210" stroke="none" /><path d="M 120.41448212921028 104.9243191809786 l 7.442666112242511 1.7952972435041148 a28.656132904466624,28.656132904466624 0 0,0 -0.11979448786043739,0.4785194304821279 l -7.410660310087013 -1.9231445133836387" fill="#ff3a05" stroke="none" /><path d="M 120.32669344350535 105.2749913415812 l 29.603066107328566 7.6823078891027485 a51.583645588089,51.583645588089 0 0,0 -0.23043623913917263,0.8575389702219522 l -29.46644179184762 -8.190737792500249" fill="#97ff23" stroke="none" /><path d="M 120.23288151984713 105.62410040840565 l 29.19558251172271 8.115447489115798 a51.30251682859701,51.30251682859701 0 0,0 -0.2438270917032751,0.8487940933284005 l -29.051562783133335 -8.61679905794878" fill="#9bff22" stroke="none" /><path d="M 120.13307415673323 105.97154293290107 l 15.302734804978515 4.53884673385399 a36.96166727459628,36.96166727459628 0 0,0 -0.18616927815183346,0.6084119726825358 l -15.222338754320548 -4.801585679088583" fill="#ffaf10" stroke="none" /><path d="M 120.02730092923936 106.31721596034902 l 14.598747695111882 4.604886213400095 a36.307789236329874,36.307789236329874 0 0,0 -0.1931362574365213,0.5944122799440275 l -14.517319186659114 -4.855497393321918" fill="#ffa60f" stroke="none" /><path d="M 119.9155931802556 106.66101706037122 l 18.558382944815566 6.207081269910348 a40.56888947839639,40.56888947839639 0 0,0 -0.22720349433857653,0.6603597061461506 l -18.448788619533758 -6.525613679145799" fill="#ffdf14" stroke="none" /><path d="M 119.79798401119884 107.00284435728193 l 18.580463187161843 6.572188951779129 a40.708558543621706,40.708558543621706 0 0,0 -0.2393580642659848,0.6586105926619218 l -18.46458086189063 -6.891047341447182" fill="#ffe115" stroke="none" /><path d="M 119.67450827220406 107.3425965602758 l 15.208625378968176 5.6759131587498 a37.2332460125344,37.2332460125344 0 0,0 -0.22926055708204537,0.5985269706731159 l -15.108670542292623 -5.936863696256061" fill="#ffb310" stroke="none" /><line stroke="#e1ed5e" stroke-width="0.3" x1="174.80103733775053" x2="179.2010983576182" y1="140.37084112569926" y2="142.7455964860345" /><path d="M 175.68104954172406 140.8457921977663 a86.0,86.0 0 0,1 -30.038265399797805,32.042727171017184" fill="none" id="id53" stroke="none" /><text fill="#e1ed5e" style="font-size:6.75px; font-family:Arial;" text-anchor="middle"><textPath startOffset="22.206326154141568" xlink:href="#id53">May</textPath></text><line stroke="#e1ed5e" stroke-width="0.3" x1="143.8653032363475" x2="146.44561519142675" y1="172.8068346515853" y2="177.08958963109032" /><path d="M 144.38136562736335 173.6633856474863 a86.0,86.0 0 0,1 -40.68145358897372,12.25698825130547" fill="none" id="id54" stroke="none" /><text fill="#e1ed5e" style="font-size:6.75px; font-family:Arial;" text-anchor="middle"><textPath startOffset="21.466115282336833" xlink:href="#id54">June</textPath></text><line stroke="#e1ed5e" stroke-width="0.3" x1="102.19456741930631" x2="102.32365962044197" y1="184.97166512339345" y2="189.96999836594603" /><path d="M 102.22038585953345 185.97133177190398 a86.0,86.0 0 0,1 -42.740103519485714,-10.115201625700543" fill="none" id="id55" stroke="none" /><text fill="#e1ed5e" style="font-size:6.75px; font-family:Arial;" text-anchor="middle"><textPath startOffset="22.20632615414155" xlink:href="#id55">July</textPath></text><line stroke="#e1ed5e" stroke-width="0.3" x1="58.666819895761336" x2="56.23545636021788" y1="174.27360380694188" y2="178.64263932499728" /><path d="M 58.180547188652646 175.14741091055294 a86.0,86.0 0 0,1 -31.652253787137756,-30.449443065178592" fill="none" id="id56" stroke="none" /><text fill="#e1ed5e" style="font-size:6.75px; font-family:Arial;" text-anchor="middle"><textPath startOffset="22.20632615414155" xlink:href="#id56">August</textPath></text><line stroke="#e1ed5e" stroke-width="0.3" x1="26.63291911575756" x2="22.317208475507996" y1="142.92168965132927" y2="145.44649492493687" /><path d="M 25.769776987707644 143.4266507060508 a86.0,86.0 0 0,1 -11.730757126820373,-40.83630448921669" fill="none" id="id57" stroke="none" /><text fill="#e1ed5e" style="font-size:6.75px; font-family:Arial;" text-anchor="middle"><textPath startOffset="21.46611528233685" xlink:href="#id57">September</textPath></text><line stroke="#e1ed5e" stroke-width="0.3" x1="15.007084014347285" x2="10.007500721073583" y1="101.09737516637583" y2="101.16192664675087" /><path d="M 14.007167355692545 101.11028546245083 a86.0,86.0 0 0,1 10.666146001902534,-42.60595125391555" fill="none" id="id58" stroke="none" /><text fill="#e1ed5e" style="font-size:6.75px; font-family:Arial;" text-anchor="middle"><textPath startOffset="22.20632615414155" xlink:href="#id58">October</textPath></text><line stroke="#e1ed5e" stroke-width="0.3" x1="26.266209847984243" x2="21.928928074336255" y1="57.711370442889674" y2="55.22380399835377" /><path d="M 25.398753493254645 57.213857153982495 a86.0,86.0 0 0,1 29.58750427330803,-30.492523968695096" fill="none" id="id59" stroke="none" /><text fill="#e1ed5e" style="font-size:6.75px; font-family:Arial;" text-anchor="middle"><textPath startOffset="21.46611528233685" xlink:href="#id59">November</textPath></text><line stroke="#e1ed5e" stroke-width="0.3" x1="56.762969772571076" x2="54.21961505331055" y1="26.818313649435495" y2="22.513508569990535" /><path d="M 56.25429882871897 25.957352633546506 a86.0,86.0 0 0,1 42.265352541879196,-11.944610805530505" fill="none" id="id60" stroke="none" /><text fill="#e1ed5e" style="font-size:6.75px; font-family:Arial;" text-anchor="middle"><textPath startOffset="22.20632615414155" xlink:href="#id60">December</textPath></text></svg>