<?xml version="1.0" encoding="utf-8" ?>
<svg baseProfile="full" height="200mm" version="1.1" viewBox="0,0,200,200" width="200mm" xmlns="http://www.w3.org/2000/svg" xmlns:ev="http://www.w3.org/2001/xml-events" xmlns:xlink="http://www.w3.org/1999/xlink"><defs /><rect fill="#1a1a1a" height="200" width="200" x="0" y="0" /><text alignment-baseline="middle" fill="#e1ed5e" style="dominant-baseline: central; font-size:9.0px; font-family:Arial;" text-anchor="middle" x="100.0" y="100.0">2025</text><line stroke="#e1ed5e" stroke-width="0.3" x1="100.0" x2="100.0" y1="15.0" y2="10.0" /><path d="M 100.0 14.0 a86.0,86.0 0 0,1 42.46469731375804,11.215312516191453" fill="none" id="id97" stroke="none" /><text fill="#e1ed5e" style="font-size:6.75px; font-family:Arial;" text-anchor="middle"><textPath startOffset="22.20632615414155" xlink:href="#id97">January</textPath></text><path d="M 100.0 79.0 l 0.0 -33.99006670567584 a54.99006670567584,54.99006670567584 0 0,0 0.9465636032379051,0.008147371773863413 l -0.5850831239653768 33.98503071051053" fill="#94ff23" stroke="none" /><path d="M 100.36148047927253 79.00311137660856 l 0.317382822022292 -18.435440216276668 a39.43817203042715,39.43817203042715 0 0,0 0.6786621394475767,0.017527840813588325 l -0.6346715966647365 18.42724558332072" fill="#ff8f0d" stroke="none" /><path d="M 101.08401301168833 79.027996857942 l 2.283315786398583 -44.174475149593135 a65.23344645991807,65.23344645991807 0 0,0 1.1208906270346528,0.06761518364225681 l -3.0433684622728476 44.12862669657058" fill="#32ff49" stroke="none" /><path d="M 101.80526077348638 79.07773832637324 l 1.9883431592445147 -23.0441144490937 a44.12973668812171,44.12973668812171 0 0,0 0.7562468277227994,0.07181474866691058 l -2.3847151140575584 23.00647415591161" fill="#ffd614" stroke="none" /><path d="M 102.16513564639614 79.11191278185805 l 1.899364929075488 -18.324071456514197 a39.42224692802809,39.42224692802809 0 0,0 0.6743706532861493,0.07577340044268521 l -2.2145022858713626 18.288662102600913" fill="#ff8f0d" stroke="none" /><path d="M 102.52436894288641 79.15227682838746 l 1.979820169051121 -16.350519178372824 a37.46994733762434,37.46994733762434 0 0,0 0.6396392497202367,0.08304353238307279 l -2.260974147279204 16.314017322825613" fill="#ff710a" stroke="none" /><path d="M 102.88285421437855 79.19881850522331 l 3.2814134483982516 -23.676978308196155 a44.90328379169105,44.90328379169105 0 0,0 0.764705103072566,0.11269765405273709 l -3.6884875318994736 23.61698616998245" fill="#ffe115" stroke="none" /><path d="M 103.59715602781102 79.31037775812273 l 7.591586261188569 -43.664231060946406 a65.31926506729081,65.31926506729081 0 0,0 1.106088063995308,0.20213052375816254 l -8.342069446286777 43.5270850558375" fill="#32ff4a" stroke="none" /><path d="M 104.307194497241 79.44645832069477 l 5.645514680475017 -26.93988427051525 a48.525064950263314,48.525064950263314 0 0,0 0.8160466546718149,0.17835619134197642 l -6.1084040593003595 26.838714581077404" fill="#eaff1a" stroke="none" /><path d="M 104.66035177308747 79.52364482259891 l 4.090616269724327 -17.973087807884383 a39.43271620830895,39.43271620830895 0 0,0 0.6605474057529553,0.15633022951098793 l -4.399387362439806 17.900011666232526" fill="#ff8f0d" stroke="none" /><path d="M 105.01212808612495 79.60689891045804 l 4.379467892597231 -17.818964303681227 a39.34925687536571,39.34925687536571 0 0,0 0.6563664247757274,0.16732241628341596 l -4.685543206057983 17.740938891228943" fill="#ff8e0d" stroke="none" /><path d="M 105.71112130821622 79.79150937346287 l 6.414635209799409 -22.697836119046535 a44.58684610883557,44.58684610883557 0 0,0 0.7367653219345758,0.21508200090807839 l -6.804390749457411 22.584055789219754" fill="#ffdc14" stroke="none" /><path d="M 106.0581310904928 79.89281104454417 l 12.888569322251515 -42.77769742135475 a65.67713750731423,65.67713750731423 0 0,0 1.0796527879054472,0.3354533766826987 l -13.62300748286768 42.549503909789536" fill="#33ff4f" stroke="none" /><path d="M 106.74666289553966 80.11325718540242 l 5.218577305366752 -15.382494477163744 a37.24360444704506,37.24360444704506 0 0,0 0.6053291633964556,0.21118745915932882 l -5.482588472826482 15.290386164832208" fill="#ff6d0a" stroke="none" /><path d="M 107.4271985657038 80.35727306442388 l 15.729007346124261 -41.59853725929198 a65.47291281451142,65.47291281451142 0 0,0 1.0507368502380658,0.40766957371597534 l -16.442727361361992 41.32162498168545" fill="#32ff4c" stroke="none" /><path d="M 107.76421540070413 80.48803036053334 l 7.796562512262364 -19.59325999864337 a42.08748976009362,42.08748976009362 0 0,0 0.6708267481541382,0.27364707402861255 l -8.13267313000489 19.456152038431178" fill="#ffb811" stroke="none" /><path d="M 108.76106565485865 80.91482961587045 l 11.445263417810082 -24.932446693743515 a48.43393797542423,48.43393797542423 0 0,0 0.7546971341963165,0.3543404238889201 l -11.872738763305998 24.73174128721459" fill="#ebff1a" stroke="none" /><path d="M 109.08828744355905 81.06846463323043 l 10.381387487313193 -21.62515276863246 a44.987922761849035,44.987922761849035 0 0,0 0.695232074939782,0.3411473598131999 l -10.752090829263405 21.44325024868443" fill="#ffe215" stroke="none" /><path d="M 110.05341064243156 81.56283822128135 l 21.179506670366983 -38.84154390619435 a65.2406717378584,65.2406717378584 0 0,0 0.9813312673689695,0.5461097878260117 l -21.84496202680799 38.47121872080816" fill="#32ff49" stroke="none" /><line stroke="#e1ed5e" stroke-width="0.3" x1="143.23703022742887" x2="145.7803849466894" y1="26.81831364943548" y2="22.513508569990506" /><path d="M 143.74570117128098 25.957352633546492 a86.0,86.0 0 0,1 28.547481713284135,27.462654790039103" fill="none" id="id98" stroke="none" /><text fill="#e1ed5e" style="font-size:6.75px; font-family:Arial;" text-anchor="middle"><textPath startOffset="19.985693538727396" xlink:href="#id98">February</textPath></text><path d="M 110.68208982089419 81.91981866633111 l 23.6636104219584 -40.0523094836222 a67.52046811000585,67.52046811000585 0 0,0 0.9955665825523862,0.5998177265172896 l -24.349539070728426 39.6390451476463" fill="#35ff68" stroke="none" /><path d="M 111.60114157652 82.49532879139004 l 14.661833626854323 -22.122872586338495 a47.54036278525453,47.54036278525453 0 0,0 0.678231881746295,0.4579451941169813 l -15.04047020300716 21.867215479922844" fill="#f7ff18" stroke="none" /><path d="M 112.19680574252982 82.90503203632743 l 15.569490160658415 -21.822101714638357 a47.806960795787006,47.806960795787006 0 0,0 0.6657795045532722,0.4837171243322881 l -15.942814981565474 21.550865355489393" fill="#f4ff19" stroke="none" /><path d="M 112.48926042617603 83.11751280151076 l 15.784262030011165 -21.336539760253334 a47.54036278525453,47.54036278525453 0 0,0 0.653688695522099,0.4923447730793547 l -16.149196879291647 21.061678397668132" fill="#f7ff18" stroke="none" /><path d="M 113.06298171725822 83.55741782278167 l 28.093130769070903 -35.36126906428387 a66.16241076653014,66.16241076653014 0 0,0 0.8856204194881783,0.7161101217875431 l -28.697654587123573 34.872452845232196" fill="#33ff55" stroke="none" /><path d="M 113.6212207817346 84.01681056812373 l 17.220602469874663 -20.2067168440678 a47.54921006436513,47.54921006436513 0 0,0 0.6183801970488481,0.5362532132611119 l -17.565876465570273 19.907298637387015" fill="#f7ff18" stroke="none" /><path d="M 113.89432698308785 84.25364557470407 l 13.53855416343897 -15.343159299695616 a41.46228203627852,41.46228203627852 0 0,0 0.5310903950930992,0.4768182004975341 l -13.80065554612806 15.107842090428784" fill="#ffae10" stroke="none" /><path d="M 114.16331599549186 84.49514656593476 l 12.310399558820077 -13.476430303118306 a39.252674078408425,39.252674078408425 0 0,0 0.4949427921872823,0.45999538452395955 l -12.540550234802206 13.262530332519706" fill="#ff8d0d" stroke="none" /><path d="M 114.68862486808459 84.99185889309783 l 33.00438604853319 -33.722318284492474 a68.18563604447044,68.18563604447044 0 0,0 0.8317485189244734,0.8281767264554029 l -33.579970367624995 33.149205707386955" fill="#36ff70" stroke="none" /><path d="M 115.19652480421416 85.50635884689758 l 12.885123600230873 -12.28914900486517 a38.805886483323576,38.805886483323576 0 0,0 0.45686110659915724,0.4873475748005208 l -13.094752028800492 12.065532013186594" fill="#ff860c" stroke="none" /><path d="M 115.4437574822437 85.77008943001954 l 17.342914926637103 -15.979798226731255 a44.58242246928028,44.58242246928028 0 0,0 0.5151527775673049,0.5688445636864324 l -17.615411344820444 15.678900875775273" fill="#ffdc14" stroke="none" /><path d="M 115.68641384162765 86.03803664274999 l 15.097507866157308 -13.437797430391525 a41.21160912814511,41.21160912814511 0 0,0 0.46708087083561706,0.5339541784577563 l -15.326580600570773 13.17592769573082" fill="#ffaa0f" stroke="none" /><path d="M 116.15771136456269 86.58626213691792 l 14.181724427644257 -11.773321705455297 a39.43183148039789,39.43183148039789 0 0,0 0.4290587120695166,0.5259752485240516 l -14.382281631790182 11.527462287323145" fill="#ff8f0d" stroke="none" /><path d="M 116.38621287248628 86.86637796730983 l 24.291098384828352 -19.469422704797303 a52.130626097132826,52.130626097132826 0 0,0 0.5551810382240744,0.7050235390274265 l -24.62263350364639 19.048406771816836" fill="#b9ff1f" stroke="none" /><path d="M 117.04232023915458 87.72973835380427 l 19.14643350449198 -13.785197402396614 a44.5927442949093,44.5927442949093 0 0,0 0.4431401420314271,0.6267903044446592 l -19.38088626632729 13.453580597620162" fill="#ffdd14" stroke="none" /><path d="M 117.2510076193507 88.02491185347247 l 10.21312140965866 -7.089616550552151 a33.43263897015799,33.43263897015799 0 0,0 0.3240984448787733,0.4755744762120208 l -10.333644320206167 6.912764051069724" fill="#ff3004" stroke="none" /><path d="M 117.65298651832404 88.62581576622439 l 12.396548964523722 -7.987352827758212 a35.74693973083674,35.74693973083674 0 0,0 0.32882487022174683,0.5201219772274127 l -12.532201430991424 7.772783202816592" fill="#ff5507" stroke="none" /><line stroke="#e1ed5e" stroke-width="0.3" x1="172.23445277983987" x2="176.4835382374775" y1="55.19839476539836" y2="52.563006222186495" /><path d="M 173.08426987136738 54.67131705675599 a86.0,86.0 0 0,1 12.851231095245387,41.99856678651699" fill="none" id="id99" stroke="none" /><text fill="#e1ed5e" style="font-size:6.75px; font-family:Arial;" text-anchor="middle"><textPath startOffset="22.20632615414155" xlink:href="#id99">March</textPath></text><path d="M 118.03404312379186 89.2402003453031 l 54.10212937137558 -32.279398964090696 a84.0,84.0 0 0,0 0.7301613021186908,1.2480823505844187 l -54.6497503479646 31.34333720115238" fill="#4dd2ff" stroke="none" /><path d="M 118.73160827565052 90.50648371742162 l 9.996036715853291 -5.066171357350201 a32.20655354008192,32.20655354008192 0 0,0 0.24636477826162512,0.496656359592892 l -10.081761507068324 4.893355409258359" fill="#ff1b02" stroke="none" /><path d="M 119.04729006885535 91.15688171328212 l 30.976978976931072 -14.381735578547659 a55.15270918665887,55.15270918665887 0 0,0 0.3923660459848173,0.8645265722372513 l -31.219947339879234 13.846386997468343" fill="#92ff23" stroke="none" /><path d="M 119.196687751892 91.48605970444005 l 20.474160487203406 -9.080513380365938 a43.397476887068464,43.397476887068464 0 0,0 0.296981933240918,0.6854752479154164 l -20.627433130287006 8.72673898786392" fill="#ffcb12" stroke="none" /><path d="M 119.34039704204932 91.81776055985345 l 8.821665478185075 -3.732135335507921 a30.57865418373318,30.57865418373318 0 0,0 0.20091386293151553,0.4865288554333213 l -8.884601028002788 3.5797319096212967" fill="#ff0000" stroke="none" /><path d="M 119.85752413597 93.16781622104841 l 25.834487848928696 -8.888619125445192 a48.3208402574605,48.3208402574605 0 0,0 0.26383801481630575,0.7888420823643675 l -25.983663157516773 8.44260394015851" fill="#edff1a" stroke="none" /><path d="M 120.08093135843002 93.85539295169968 l 29.8694277620159 -9.139809955982509 a52.23649853715623,52.23649853715623 0 0,0 0.2556954288168024,0.8620778729636299 l -30.022329087944406 8.624302696272348" fill="#b8ff1f" stroke="none" /><path d="M 120.37134235888165 94.90015583598534 l 27.708649299171555 -6.936695232530875 a49.563735517846695,49.563735517846695 0 0,0 0.20006566992672517,0.8294013635761219 l -27.823947769359098 6.458708637295347" fill="#dbff1b" stroke="none" /><path d="M 120.67395015179393 96.31383870115 l 61.91834763648259 -11.040029364032153 a83.8948648332358,83.8948648332358 0 0,0 0.24125022453769596,1.42387248161367 l -62.09920972254051 9.972571094102644" fill="#4dd3ff" stroke="none" /><path d="M 120.83666639777658 97.38593545837742 l 22.050923436914886 -2.766399191025313 a43.223775307197194,43.223775307197194 0 0,0 0.0862615792846107,0.739036532251846 l -22.095275369203087 2.386418920448614" fill="#ffc912" stroke="none" /><path d="M 120.96714384426684 98.82574320788733 l 62.826494543566625 -3.518573559201537 a83.92494558221182,83.92494558221182 0 0,0 0.06836442848151451,1.4430650346193252 l -62.87775258028163 2.436597417959212" fill="#4dd3ff" stroke="none" /><line stroke="#e1ed5e" stroke-width="0.3" x1="184.98032266829074" x2="189.97916517819016" y1="98.17113171792111" y2="98.06355123074" /><path d="M 185.9800911702706 98.14961562048488 a86.0,86.0 0 0,1 -9.607161424134198,41.387399972396054" fill="none" id="id100" stroke="none" /><text fill="#e1ed5e" style="font-size:6.75px; font-family:Arial;" text-anchor="middle"><textPath startOffset="21.466115282336823" xlink:href="#id100">April</textPath></text><path d="M 120.99824983174949 100.27111621757518 l 29.511031236331114 0.3810279061181466 a50.51349093036863,50.51349093036863 0 0,0 -0.018709084096088173,0.8693376220108996 l -29.50010008955002 -0.888955343919161" fill="#cfff1d" stroke="none" /><path d="M 120.9904718944345 100.63252640178507 l 34.71526819379347 1.0461091007413703 a55.731026331187834,55.731026331187834 0 0,0 -0.037148357269050664,0.9586340360993609 l -34.69211770367322 -1.6435203838547374" fill="#8bff24" stroke="none" /><path d="M 120.9764740272857 100.99374915477107 l 24.73240437149024 1.1716843311060936 a45.76014277355179,45.76014277355179 0 0,0 -0.044046641398149414,0.7864823710240014 l -24.70857137920456 -1.5972384184655184" fill="#ffed16" stroke="none" /><path d="M 120.95626037817324 101.35467743843564 l 33.30610711736188 2.1530097001946062 a54.37562317144529,54.37562317144529 0 0,0 -0.06841862328384597,0.9335177558587958 l -33.264111935413695 -2.726000592550172" fill="#9cff22" stroke="none" /><path d="M 120.8583938346157 102.4346265915055 l 23.33083970321787 2.723214605783343 a44.489231129315385,44.489231129315385 0 0,0 -0.09533086931368262,0.7598808253090467 l -23.280507324657336 -3.1244131853797845" fill="#ffdb14" stroke="none" /><line stroke="#e1ed5e" stroke-width="0.3" x1="174.80103733775053" x2="179.2010983576182" y1="140.37084112569926" y2="142.7455964860345" /><path d="M 175.68104954172406 140.8457921977663 a86.0,86.0 0 0,1 -30.038265399797805,32.042727171017184" fill="none" id="id101" stroke="none" /><text fill="#e1ed5e" style="font-size:6.75px; font-family:Arial;" text-anchor="middle"><textPath startOffset="22.206326154141568" xlink:href="#id101">May</textPath></text><line stroke="#e1ed5e" stroke-width="0.3" x1="143.8653032363475" x2="146.44561519142675" y1="172.8068346515853" y2="177.08958963109032" /><path d="M 144.38136562736335 173.6633856474863 a86.0,86.0 0 0,1 -40.68145358897372,12.25698825130547" fill="none" id="id102" stroke="none" /><text fill="#e1ed5e" style="font-size:6.75px; font-family:Arial;" text-anchor="middle"><textPath startOffset="21.466115282336833" xlink:href="#id102">June</textPath></text><line stroke="#e1ed5e" stroke-width="0.3" x1="102.19456741930631" x2="102.32365962044197" y1="184.97166512339345" y2="189.96999836594603" /><path d="M 102.22038585953345 185.97133177190398 a86.0,86.0 0 0,1 -42.740103519485714,-10.115201625700543" fill="none" id="id103" stroke="none" /><text fill="#e1ed5e" style="font-size:6.75px; font-family:Arial;" text-anchor="middle"><textPath startOffset="22.20632615414155" xlink:href="#id103">July</textPath></text><line stroke="#e1ed5e" stroke-width="0.3" x1="58.666819895761336" x2="56.23545636021788" y1="174.27360380694188" y2="178.64263932499728" /><path d="M 58.180547188652646 175.14741091055294 a86.0,86.0 0 0,1 -31.652253787137756,-30.449443065178592" fill="none" id="id104" stroke="none" /><text fill="#e1ed5e" style="font-size:6.75px; font-family:Arial;" text-anchor="middle"><textPath startOffset="22.20632615414155" xlink:href="#id104">August</textPath></text><line stroke="#e1ed5e" stroke-width="0.3" x1="26.63291911575756" x2="22.317208475507996" y1="142.92168965132927" y2="145.44649492493687" /><path d="M 25.769776987707644 143.4266507060508 a86.0,86.0 0 0,1 -11.730757126820373,-40.83630448921669" fill="none" id="id105" stroke="none" /><text fill="#e1ed5e" style="font-size:6.75px; font-family:Arial;" text-anchor="middle"><textPath startOffset="21.46611528233685" xlink:href="#id105">September</textPath></text><line stroke="#e1ed5e" stroke-width="0.3" x1="15.007084014347285" x2="10.007500721073583" y1="101.09737516637583" y2="101.16192664675087" /><path d="M 14.007167355692545 101.11028546245083 a86.0,86.0 0 0,1 10.666146001902534,-42.60595125391555" fill="none" id="id106" stroke="none" /><text fill="#e1ed5e" style="font-size:6.75px; font-family:Arial;" text-anchor="middle"><textPath startOffset="22.20632615414155" xlink:href="#id106">October</textPath></text><line stroke="#e1ed5e" stroke-width="0.3" x1="26.266209847984243" x2="21.928928074336255" y1="57.711370442889674" y2="55.22380399835377" /><path d="M 25.398753493254645 57.213857153982495 a86.0,86.0 0 0,1 29.58750427330803,-30.492523968695096" fill="none" id="id107" stroke="none" /><text fill="#e1ed5e" style="font-size:6.75px; font-family:Arial;" text-anchor="middle"><textPath startOffset="21.46611528233685" xlink:href="#id107">November</textPath></text><line stroke="#e1ed5e" stroke-width="0.3" x1="56.762969772571076" x2="54.21961505331055" y1="26.818313649435495" y2="22.513508569990535" /><path d="M 56.25429882871897 25.957352633546506 a86.0,86.0 0 0,1 42.265352541879196,-11.944610805530505" fill="none" id="id108" stroke="none" /><text fill="#e1ed5e" style="font-size:6.75px; font-family:Arial;" text-anchor="middle"><textPath startOffset="22.20632615414155" xlink:href="#id108">December</textPath></text></svg>