<?xml version="1.0" encoding="utf-8" ?>
<svg baseProfile="full" height="200mm" version="1.1" viewBox="0,0,200,200" width="200mm" xmlns="http://www.w3.org/2000/svg" xmlns:ev="http://www.w3.org/2001/xml-events" xmlns:xlink="http://www.w3.org/1999/xlink"><defs /><rect fill="#1a1a1a" height="200" width="200" x="0" y="0" /><text alignment-baseline="middle" fill="#e1ed5e" style="dominant-baseline: central; font-size:9.0px; font-family:Arial;" text-anchor="middle" x="100.0" y="100.0">2024</text><line stroke="#e1ed5e" stroke-width="0.3" x1="100.0" x2="100.0" y1="15.0" y2="10.0" /><path d="M 100.0 14.0 a86.0,86.0 0 0,1 42.35913384403234,11.155469271406648" fill="none" id="id85" stroke="none" /><text fill="#e1ed5e" style="font-size:6.75px; font-family:Arial;" text-anchor="middle"><textPath startOffset="22.145653131862478" xlink:href="#id85">January</textPath></text><path d="M 100.0 79.0 l 0.0 -31.409816255000763 a52.40981625500076,52.40981625500076 0 0,0 0.8996841882169656,0.007722706704292371 l -0.5391912633681109 31.405187946490905" fill="#95ff23" stroke="none" /><path d="M 101.08105385017728 79.02784411241856 l 1.283646992969861 -24.902408734564382 a45.93547092769393,45.93547092769393 0 0,0 0.7871494595612256,0.04735295682266409 l -1.710940804663549 24.876703799917028" fill="#e4ff1b" stroke="none" /><path d="M 102.15924093988457 79.11130261209362 l 5.764781146468976 -55.76902820420583 a77.06618596362864,77.06618596362864 0 0,0 1.3147641729202264,0.14732206791134425 l -6.721281220989999 55.661850375787516" fill="#44ffe6" stroke="none" /><path d="M 103.23170211078529 79.25015418208739 l 2.368714804616213 -15.208848246984607 a36.392201753661325,36.392201753661325 0 0,0 0.616453565581373,0.10143719962832154 l -2.6294458732506563 15.165945048860618" fill="#ff9b0e" stroke="none" /><path d="M 103.58742460773223 79.30868818359171 l 4.2689916771338 -24.622409553316096 a45.989744739606074,45.989744739606074 0 0,0 0.7767126224757818,0.14154291347386178 l -4.691039033160636 24.54549846591087" fill="#e3ff1b" stroke="none" /><path d="M 104.29559338865022 79.4440306129975 l 7.689911598136525 -36.79901077641817 a58.59390821010893,58.59390821010893 0 0,0 0.9828084108937641,0.21419851883508512 l -8.320482425649423 36.66158079944937" fill="#4fff2b" stroke="none" /><path d="M 104.64783097203109 79.52079915486377 l 2.33677782906452 -10.29627427930348 a31.558115109102282,31.558115109102282 0 0,0 0.5272727562075958,0.12443493477571065 l -2.513182739012001 10.254643200881542" fill="#ff5507" stroke="none" /><path d="M 104.9986988182912 79.60360301121754 l 4.608710998475497 -18.80511360026457 a40.3616247920035,40.3616247920035 0 0,0 0.6715303837689863,0.17070039755493824 l -4.930846675469878 18.723227970874362" fill="#ffd213" stroke="none" /><path d="M 105.3480935250658 79.69241777938227 l 5.425029527131668 -20.599720751919673 a42.30209943708179,42.30209943708179 0 0,0 0.700640807796529,0.19096276777622478 l -5.77785173586289 20.503557489999306" fill="#ffec16" stroke="none" /><path d="M 105.69591212413111 79.78721728523813 l 6.598067921485142 -23.414215375481064 a45.32611728052681,45.32611728052681 0 0,0 0.7471038892510236,0.21747105375222733 l -6.999031823117769 23.29750062742632" fill="#ebff1a" stroke="none" /><path d="M 106.04205211174951 79.88797359093562 l 5.578792702400147 -18.569986502297667 a40.38987691327283,40.38987691327283 0 0,0 0.6623158310593994,0.20518713748464237 l -5.896749166331177 18.471482777006376" fill="#ffd213" stroke="none" /><path d="M 106.72888874123014 80.10723608172694 l 10.189934279619685 -30.124730065032214 a52.80147987301887,52.80147987301887 0 0,0 0.856123767821146,0.2978042875646847 l -10.70556381948585 29.94536734489894" fill="#90ff24" stroke="none" /><path d="M 107.74402155503746 80.48000691201159 l 5.683421104061353 -14.325933867686441 a36.41212693392497,36.41212693392497 0 0,0 0.5790317784834131,0.2354871834609211 l -5.928507343735205 14.226259427646227" fill="#ff9b0e" stroke="none" /><path d="M 108.07796709384702 80.6158196554323 l 5.935142302604787 -14.242180913561258 a36.429375597436774,36.429375597436774 0 0,0 0.5751763419786807,0.24550857829126127 l -6.178753719753899 14.138197685610594" fill="#ff9c0e" stroke="none" /><path d="M 109.06512990194946 81.05736502329252 l 19.28142442883156 -40.290761272795635 a65.66675242220046,65.66675242220046 0 0,0 1.0126430826749977,0.4953344759283331 l -19.970227760768626 39.95383304677008" fill="#35ff62" stroke="none" /><path d="M 109.3889696526874 81.21577127319529 l 6.874777382614936 -13.754159996026821 a36.37658873927564,36.37658873927564 0 0,0 0.5561682100524653,0.2839834509081796 l -7.10987281438098 13.634118593445807" fill="#ff9b0e" stroke="none" /><path d="M 109.71004243097381 81.37971332152246 l 8.946160244286087 -17.155441863862116 a40.347944817494124,40.347944817494124 0 0,0 0.6113889190930168,0.3255301627992123 l -9.239337979165663 16.99934123334033" fill="#ffd113" stroke="none" /><path d="M 110.02825361518725 81.54914285379988 l 9.2333023520562 -16.988236359265766 a40.33530571061047,40.33530571061047 0 0,0 0.605520930846209,0.335872253082249 l -9.523567471058508 16.82723119075037" fill="#ffd113" stroke="none" /><line stroke="#e1ed5e" stroke-width="0.3" x1="143.13028292997686" x2="145.6673583964461" y1="26.7553504044142" y2="22.446841604673864" /><path d="M 143.63769802327073 25.89364864446614 a86.0,86.0 0 0,1 29.32050498858742,28.57503671076993" fill="none" id="id86" stroke="none" /><text fill="#e1ed5e" style="font-size:6.75px; font-family:Arial;" text-anchor="middle"><textPath startOffset="20.669276256404974" xlink:href="#id86">February</textPath></text><path d="M 110.96478420261332 82.08984904055464 l 8.004938163096025 -13.07546489495932 a36.331236649869595,36.331236649869595 0 0,0 0.5291140672838092,0.33020631109231446 l -8.228216359169545 12.93612278702546" fill="#ff9a0e" stroke="none" /><path d="M 112.45986205192187 83.09580414077388 l 13.72012599417392 -18.613985937589224 a44.12406386820397,44.12406386820397 0 0,0 0.6058591396908126,0.45464799337460515 l -14.037638122775498 18.375718916950603" fill="#fbff18" stroke="none" /><path d="M 113.59037401385872 83.9905735841838 l 7.244660355924952 -8.534191682840243 a32.194531314537926,32.194531314537926 0 0,0 0.4182537515249107,0.3612776288961511 l -7.390093587212723 8.408569921479371" fill="#ff5f08" stroke="none" /><path d="M 113.86319453409587 84.22622945171908 l 14.407075057469932 -16.392606745109987 a42.82387150831396,42.82387150831396 0 0,0 0.5480129505288553,0.4900365595784432 l -14.686353034822162 16.142874655648157" fill="#fff216" stroke="none" /><path d="M 114.39649973595853 84.71141617570332 l 15.618087854507555 -16.58586807336684 a43.781915810094766,43.781915810094766 0 0,0 0.542744633661722,0.5199370816676178 l -15.90050497403459 16.315318861393642" fill="#ffff18" stroke="none" /><path d="M 115.16444852881244 85.47280134310134 l 23.62795637394652 -22.63504772024417 a53.7204172911479,53.7204172911479 0 0,0 0.6322232258457596,0.671399156828914 l -24.01303543352854 22.22610710347076" fill="#86ff25" stroke="none" /><path d="M 115.8921839302757 86.27271002978787 l 11.724323332396185 -10.12719125291007 a36.49257113185503,36.49257113185503 0 0,0 0.405424535079295,0.47758908289791957 l -11.896442430982594 9.924435387562598" fill="#ff9c0e" stroke="none" /><path d="M 116.57777611688842 87.10902102172516 l 4.18469654507763 -3.254045344363136 a26.300990122378654,26.300990122378654 0 0,0 0.274091413424118,0.35879445862474385 l -4.2399399358560546 3.18172997249751" fill="#ff0600" stroke="none" /><path d="M 116.7966241395341 87.39550010848427 l 26.165127233894307 -19.634799269269347 a53.712982522392814,53.712982522392814 0 0,0 0.547099927793766,0.7422461256356944 l -26.4983291812719 19.182746834364778" fill="#86ff25" stroke="none" /><path d="M 117.42321728460499 88.27688183743584 l 18.9353116461116 -12.740522731613064 a43.822509647497554,43.822509647497554 0 0,0 0.414593413910407,0.6277472706499042 l -19.151229498942733 12.413595582624101" fill="#ffff18" stroke="none" /><line stroke="#e1ed5e" stroke-width="0.3" x1="172.87174338648825" x2="177.1583165268699" y1="56.24261187166439" y2="53.66864786411523" /><path d="M 173.72905801456457 55.72781907015455 a86.0,86.0 0 0,1 12.242430191666344,42.057860355516425" fill="none" id="id87" stroke="none" /><text fill="#e1ed5e" style="font-size:6.75px; font-family:Arial;" text-anchor="middle"><textPath startOffset="22.145653131862474" xlink:href="#id87">March</textPath></text><path d="M 118.00360718960297 89.18935116829356 l 20.13398906871304 -12.08988193926891 a44.484947543576006,44.484947543576006 0 0,0 0.3874984004389649,0.6580569991873482 l -20.33856117928177 11.742473771788005" fill="#f6ff19" stroke="none" /><path d="M 118.18653347947321 89.5 l 28.611645027344053 -16.51894095849511 a54.037881916990216,54.037881916990216 0 0,0 0.4569202311129614,0.8073342671256654 l -28.890998623478392 16.02534992127033" fill="#82ff25" stroke="none" /><path d="M 118.36410011445183 89.81374322990088 l 26.47228689498493 -14.683731297665906 a51.27199924472191,51.27199924472191 0 0,0 0.4203196716427422,0.7733408542314026 l -26.72045191624301 14.2271356099599" fill="#a2ff22" stroke="none" /><path d="M 118.53625476483649 90.13048839642627 l 13.53780755315194 -7.208120002010538 a36.337184464873665,36.337184464873665 0 0,0 0.28843406887921125,0.5531103585334157 l -13.659549691006095 6.974663400372624" fill="#ff9a0e" stroke="none" /><path d="M 118.8641267826498 90.77261029715802 l 16.266243757491846 -7.956634933658678 a39.107974084520336,39.107974084520336 0 0,0 0.28981009270083746,0.6055916305641877 l -16.400433108152598 7.676230801029387" fill="#ffc111" stroke="none" /><path d="M 119.0197475246899 91.09779779509293 l 16.202597387413583 -7.583633694412382 a38.88954057849581,38.88954057849581 0 0,0 0.27781120197258297,0.6070676132495262 l -16.330393054241217 7.304377098948171" fill="#ffbe11" stroke="none" /><path d="M 119.16976305983485 91.42560881287824 l 21.754401918404458 -9.730467273280889 a44.831407767563164,44.831407767563164 0 0,0 0.3081969668151113,0.7052149738557965 l -21.91823276723654 9.355590229649243" fill="#f2ff19" stroke="none" /><path d="M 119.31412917781788 91.75594674310238 l 30.384247613781607 -12.96922854727847 a54.036394963239196,54.036394963239196 0 0,0 0.3568310207533442,0.8562645500360515 l -30.602404479071435 12.44573148780114" fill="#82ff25" stroke="none" /><path d="M 119.58574465831526 92.42381321644754 l 16.93078148293493 -6.549189992210376 a39.15332617392639,39.15332617392639 0 0,0 0.23710008171087538,0.628936135922366 l -17.040712248460245 6.257585576093853" fill="#ffc112" stroke="none" /><path d="M 119.71291397450082 92.76114493625339 l 14.554061346570403 -5.344452921215964 a36.504318066488075,36.504318066488075 0 0,0 0.21095989681956206,0.5900923773678696 l -14.643661413433907 5.093825587467178" fill="#ff9d0e" stroke="none" /><path d="M 119.83427380445688 93.10060997987247 l 24.096055043670795 -8.381858762854673 a46.51226028771376,46.51226028771376 0 0,0 0.25584972089769925,0.7563742383179142 l -24.23639018614086 7.966982850062597" fill="#dcff1b" stroke="none" /><path d="M 119.94978838288452 93.4421083053983 l 20.503194481434253 -6.739807271236817 a42.58253891452377,42.58253891452377 0 0,0 0.22231184556284855,0.6963886898709054 l -20.615871042774362 6.386849547674524" fill="#ffef16" stroke="none" /><path d="M 120.26092885502905 94.47779374421319 l 30.274112925634654 -8.251344100882108 a52.37844153085429,52.37844153085429 0 0,0 0.22899485293270527,0.8695307556297753 l -30.41129725937209 7.730432840879534" fill="#95ff23" stroke="none" /><path d="M 120.43855184770803 95.1765574152323 l 20.675410102242054 -4.879340487906145 a42.24336476391659,42.24336476391659 0 0,0 0.1605029371151494,0.7072055557087145 l -20.75612390091487 4.5237005982584035" fill="#ffeb16" stroke="none" /><path d="M 120.592083275326 95.88100663000786 l 24.341024926416484 -4.868886695444639 a45.823205919492075,45.823205919492075 0 0,0 0.1476679163852497,0.7726609370496372 l -24.42101913508389 4.450323193361687" fill="#e5ff1a" stroke="none" /><path d="M 120.65975698304385 96.23510406497455 l 10.10618250237972 -1.8416831065855528 a31.272619988906854,31.272619988906854 0 0,0 0.09171095283394427,0.5289644047088787 l -10.1363082727059 1.6679256689560815" fill="#ff5107" stroke="none" /><path d="M 120.77682067341334 96.94652285012252 l 31.38097530730468 -4.611922706939471 a52.718061767586775,52.718061767586775 0 0,0 0.12390121070530533,0.896487439344538 l -31.455521034565198 4.072546959394847" fill="#91ff24" stroke="none" /><path d="M 120.86939407059847 97.66154086499901 l 15.451631690941115 -1.7313875599894581 a36.5483318975182,36.5483318975182 0 0,0 0.0645123439155719,0.6240984065025008 l -15.479076427338352 1.465884631204026" fill="#ff9d0e" stroke="none" /><path d="M 120.9064616781168 98.02013634271609 l 17.7766974786339 -1.6834717335893146 a38.85623281447302,38.85623281447302 0 0,0 0.05718597104326324,0.6645876669157073 l -17.8029770723749 1.3780630192979453" fill="#ffbd11" stroke="none" /><path d="M 120.96210409425399 98.7389718711861 l 19.347168376113046 -1.1638776062497067 a40.382144753767534,40.382144753767534 0 0,0 0.03568706766497752,0.6923195788238186 l -19.3642970332346 0.8315862340491574" fill="#ffd213" stroke="none" /><path d="M 120.98066250479742 99.09900007780936 l 30.06971616363133 -1.2913229940918927 a51.09743087435241,51.09743087435241 0 0,0 0.030111747653667954,0.876670678137957 l -30.087452598281846 0.7749460513898156" fill="#a4ff21" stroke="none" /><path d="M 120.99303781780057 99.45929381324524 l 22.682648234943027 -0.5842245576395876 a43.690170763656965,43.690170763656965 0 0,0 0.01287521953508823,0.7499169901713468 l -22.689334886076782 0.19476065149917435" fill="#fffe18" stroke="none" /><line stroke="#e1ed5e" stroke-width="0.3" x1="184.99686870605535" x2="189.99668451229388" y1="99.2704041080226" y2="99.22748670261217" /><path d="M 185.99683186730306 99.26182062694052 a86.0,86.0 0 0,1 -10.086455211305974,41.156179273409016" fill="none" id="id88" stroke="none" /><text fill="#e1ed5e" style="font-size:6.75px; font-family:Arial;" text-anchor="middle"><textPath startOffset="21.40746469413373" xlink:href="#id88">April</textPath></text><path d="M 120.99922638620191 99.81974689727618 l 18.094668368073833 -0.15532096545457263 a39.09533497763668,39.09533497763668 0 0,0 0.0,0.6711481363567968 l -18.094668368073833 -0.15532096545457044" fill="#ffc011" stroke="none" /><path d="M 120.99303781780057 100.54070618675476 l 7.445682034721297 0.19177435756195516 a28.448151338848437,28.448151338848437 0 0,0 -0.016764513199016645,0.4880805101009142 l -7.441292834525434 -0.31956113222698007" fill="#ff2703" stroke="none" /><path d="M 120.98066250479742 100.90099992219065 l 32.20078715008106 1.3828403516841499 a53.23046603018752,53.23046603018752 0 0,0 -0.0470415639050563,0.9125937725032988 l -32.172303996719435 -1.9354059175641793" fill="#8bff24" stroke="none" /><path d="M 120.96210409425399 101.26102812881392 l 23.989521042051067 1.4431500146539202 a45.032890000826086,45.032890000826086 0 0,0 -0.053044538852844825,0.7712559532443436 l -23.961212542033156 -1.8547493920526072" fill="#efff19" stroke="none" /><path d="M 120.82617615685814 102.69636545807757 l 19.2102101888472 2.4871463107527902 a40.3705465145096,40.3705465145096 0 0,0 -0.0948813257216188,0.6865140078420802 l -19.164684346570372 -2.8165486267949555" fill="#ffd213" stroke="none" /><path d="M 120.77682067341334 103.0534771498775 l 19.138350743299963 2.8126784939616383 a40.34393004236638,40.34393004236638 0 0,0 -0.10658195428707658,0.6843326032581761 l -19.08724729687462 -3.1407992791512647" fill="#ffd113" stroke="none" /><path d="M 120.7213421655516 103.40968896794604 l 17.212576806893242 2.8323229634206166 a38.444049234690866,38.444049234690866 0 0,0 -0.11274208516456984,0.6502663871860063 l -17.16141990423644 -3.127382383527211" fill="#ffb811" stroke="none" /><path d="M 120.51834098615036 104.47187691870673 l 61.555022958451104 13.415630756120176 a84.0,84.0 0 0,0 -0.3191565537693437,1.4062626642439322 l -61.315655543124095 -14.470327754303124" fill="#4dd2ff" stroke="none" /><path d="M 120.16314734710363 105.8691983318838 l 4.748382295459978 1.3821848825433278 a25.945459480510287,25.945459480510287 0 0,0 -0.12815040650072582,0.42657102458003643 l -4.723955568955622 -1.4634935107140878" fill="#ff0000" stroke="none" /><path d="M 119.83427380445688 106.89939002012753 l 59.414203028693755 20.667343986039384 a83.90617321831078,83.90617321831078 0 0,0 -0.4848970911446496,1.3563434643554204 l -59.050665767505166 -21.684222406775728" fill="#4dd3ff" stroke="none" /><line stroke="#e1ed5e" stroke-width="0.3" x1="174.33088141563837" x2="178.70328620479359" y1="141.23008692659167" y2="143.65538615756765" /><path d="M 175.20536237346943 141.71514677278685 a86.0,86.0 0 0,1 -30.301960400862466,31.631185727798858" fill="none" id="id89" stroke="none" /><text fill="#e1ed5e" style="font-size:6.75px; font-family:Arial;" text-anchor="middle"><textPath startOffset="22.145653131862474" xlink:href="#id89">May</textPath></text><line stroke="#e1ed5e" stroke-width="0.3" x1="143.1302829299769" x2="145.66735839644613" y1="173.24464959558577" y2="177.55315839532614" /><path d="M 143.63769802327073 174.10635135553383 a86.0,86.0 0 0,1 -40.68552437913181,11.842963189579606" fill="none" id="id90" stroke="none" /><text fill="#e1ed5e" style="font-size:6.75px; font-family:Arial;" text-anchor="middle"><textPath startOffset="21.407464694133747" xlink:href="#id90">June</textPath></text><line stroke="#e1ed5e" stroke-width="0.3" x1="101.45913802915013" x2="101.54496967792366" y1="184.9874750549273" y2="189.98673829345242" /><path d="M 101.47630435890484 185.9873277026323 a86.0,86.0 0 0,1 -42.54439059252881,-10.42667462771756" fill="none" id="id91" stroke="none" /><text fill="#e1ed5e" style="font-size:6.75px; font-family:Arial;" text-anchor="middle"><textPath startOffset="22.145653131862474" xlink:href="#id91">July</textPath></text><line stroke="#e1ed5e" stroke-width="0.3" x1="58.13341422392154" x2="55.67067388415222" y1="173.97424548756322" y2="178.32567169271397" /><path d="M 57.64086615596768 174.84453072859336 a86.0,86.0 0 0,1 -31.369924170532247,-30.572349798747897" fill="none" id="id92" stroke="none" /><text fill="#e1ed5e" style="font-size:6.75px; font-family:Arial;" text-anchor="middle"><textPath startOffset="22.145653131862474" xlink:href="#id92">August</textPath></text><line stroke="#e1ed5e" stroke-width="0.3" x1="26.387840678322732" x2="22.057713659400548" y1="142.50000000000003" y2="145.00000000000006" /><path d="M 25.521815274538298 143.00000000000003 a86.0,86.0 0 0,1 -11.493303480769221,-40.785679425670985" fill="none" id="id93" stroke="none" /><text fill="#e1ed5e" style="font-size:6.75px; font-family:Arial;" text-anchor="middle"><textPath startOffset="21.40746469413373" xlink:href="#id93">September</textPath></text><line stroke="#e1ed5e" stroke-width="0.3" x1="15.003131293944662" x2="10.003315487706104" y1="100.72959589197737" y2="100.7725132973878" /><path d="M 14.003168132696942 100.73817937305945 a86.0,86.0 0 0,1 10.791469493833604,-42.45332614584628" fill="none" id="id94" stroke="none" /><text fill="#e1ed5e" style="font-size:6.75px; font-family:Arial;" text-anchor="middle"><textPath startOffset="22.145653131862435" xlink:href="#id94">October</textPath></text><line stroke="#e1ed5e" stroke-width="0.3" x1="26.387840678322718" x2="22.05771365940052" y1="57.49999999999999" y2="54.99999999999999" /><path d="M 25.521815274538284 56.99999999999999 a86.0,86.0 0 0,1 29.574782752854787,-30.34633250058573" fill="none" id="id95" stroke="none" /><text fill="#e1ed5e" style="font-size:6.75px; font-family:Arial;" text-anchor="middle"><textPath startOffset="21.40746469413373" xlink:href="#id95">November</textPath></text><line stroke="#e1ed5e" stroke-width="0.3" x1="56.869717070023135" x2="54.33264160355391" y1="26.7553504044142" y2="22.446841604673864" /><path d="M 56.362301976729285 25.89364864446614 a86.0,86.0 0 0,1 42.16139366436587,-11.88097634709845" fill="none" id="id96" stroke="none" /><text fill="#e1ed5e" style="font-size:6.75px; font-family:Arial;" text-anchor="middle"><textPath startOffset="22.145653131862474" xlink:href="#id96">December</textPath></text></svg>