<?xml version="1.0" encoding="utf-8" ?>
<svg baseProfile="full" height="200mm" version="1.1" viewBox="0,0,200,200" width="200mm" xmlns="http://www.w3.org/2000/svg" xmlns:ev="http://www.w3.org/2001/xml-events" xmlns:xlink="http://www.w3.org/1999/xlink"><defs /><rect fill="#1a1a1a" height="200" width="200" x="0" y="0" /><text alignment-baseline="middle" fill="#e1ed5e" style="dominant-baseline: central; font-size:9.0px; font-family:Arial;" text-anchor="middle" x="100.0" y="100.0">2022</text><line stroke="#e1ed5e" stroke-width="0.3" x1="100.0" x2="100.0" y1="15.0" y2="10.0" /><path d="M 100.0 14.0 a86.0,86.0 0 0,1 42.46469731375804,11.215312516191453" fill="none" id="id61" stroke="none" /><text fill="#e1ed5e" style="font-size:6.75px; font-family:Arial;" text-anchor="middle"><textPath startOffset="22.20632615414155" xlink:href="#id61">January</textPath></text><path d="M 100.0 79.0 l 0.0 -48.70227888086643 a69.70227888086643,69.70227888086643 0 0,0 1.1998101512496682,0.010327144765389271 l -0.8383296719771397 48.6950631127096" fill="#3aff93" stroke="none" /><path d="M 100.36148047927253 79.00311137660856 l 0.25490409338231795 -14.806312277681698 a35.808506317689535,35.808506317689535 0 0,0 0.6162019246033,0.015914677739744018 l -0.5097326531804859 14.799730807799595" fill="#ff940d" stroke="none" /><path d="M 100.72285384407766 79.0124445844662 l 1.6828533310454201 -48.860468586976026 a69.889440433213,69.889440433213 0 0,0 1.2019624824587907,0.0517590328899204 l -2.523656645893542 48.82426182756191" fill="#3aff96" stroke="none" /><path d="M 101.08401301168833 79.027996857942 l 1.2630757205910879 -24.436263859634863 a45.468885379061376,45.468885379061376 0 0,0 0.7812809257965254,0.04712899902970758 l -1.683518695227225 24.410901591224853" fill="#e8ff1a" stroke="none" /><path d="M 101.44485096284872 79.0497635885617 l 1.7006339198548328 -24.659071133553486 a45.717644404332134,45.717644404332134 0 0,0 0.7846232172650079,0.06090186264629541 l -2.124847326482182 24.626144008718725" fill="#e5ff1a" stroke="none" /><path d="M 101.80526077348638 79.07773832637324 l 1.645467496988473 -19.070320506080783 a40.14117779783393,40.14117779783393 0 0,0 0.6878952980211142,0.06532394732192344 l -1.9734879220998314 19.03917101424368" fill="#ffd013" stroke="none" /><path d="M 102.16513564639614 79.11191278185805 l 1.6412431673358403 -15.83384878566554 a36.918682310469315,36.918682310469315 0 0,0 0.6315438070698611,0.07096130526589951 l -1.9135536779154267 15.803251526929039" fill="#ffa40f" stroke="none" /><path d="M 102.52436894288641 79.15227682838746 l 3.023148248681899 -24.966935983296 a46.14930054151624,46.14930054151624 0 0,0 0.7878021206570692,0.1022793253335419 l -3.4524650978468143 24.91119833479832" fill="#e0ff1b" stroke="none" /><path d="M 102.88285421437855 79.19881850522331 l 4.213182156446934 -30.400138262176785 a51.690703971119135,51.690703971119135 0 0,0 0.8802951982643746,0.12973262937526117 l -4.735846335139964 30.323111148640557" fill="#9cff22" stroke="none" /><path d="M 103.2404852339499 79.25152402106235 l 0.9355877494048505 -5.990467026770896 a27.063086642599277,27.063086642599277 0 0,0 0.4596482189118232,0.07584589453836636 l -1.0385651744555489 5.973474869292905" fill="#ff1302" stroke="none" /><path d="M 103.59715602781102 79.31037775812273 l 3.279482997737646 -18.862474645877555 a40.14544223826715,40.14544223826715 0 0,0 0.6798054821623561,0.12423010665788194 l -3.603683601002903 18.803229057868936" fill="#ffd013" stroke="none" /><path d="M 103.95276090670814 79.375362276772 l 4.562442169304175 -23.805820563390167 a45.23907942238267,45.23907942238267 0 0,0 0.763535683432237,0.15315807512573235 l -4.971544262203538 23.723758532187226" fill="#ebff1a" stroke="none" /><path d="M 104.307194497241 79.44645832069477 l 6.501414654251549 -31.02416135519316 a52.69805956678701,52.69805956678701 0 0,0 0.8862239599524578,0.19369423214741585 l -7.034481338357535 30.907653624949873" fill="#91ff24" stroke="none" /><path d="M 104.66035177308747 79.52364482259891 l 5.424704143091374 -23.834717672539362 a45.44424638989169,45.44424638989169 0 0,0 0.7612480687525118,0.18016282293505026 l -5.834175898806409 23.73780893746344" fill="#e9ff1a" stroke="none" /><path d="M 105.01212808612495 79.60689891045804 l 8.72112548776394 -35.48408792243247 a57.54009476534296,57.54009476534296 0 0,0 0.9597992257390932,0.2446741934621208 l -9.33063360218806 35.32871073280148" fill="#5aff2a" stroke="none" /><path d="M 105.36241919743992 79.69619591428918 l 12.23592263127036 -46.32904791028543 a68.91762184115524,68.91762184115524 0 0,0 1.14436762884252,0.3127989017002802 l -13.031588149336592 46.11156246775886" fill="#39ff8a" stroke="none" /><path d="M 105.71112130821622 79.79150937346287 l 8.366045322502737 -29.602794154933875 a51.76225180505415,51.76225180505415 0 0,0 0.855333701381761,0.24969536222775437 l -8.874369241607926 29.45440046378742" fill="#9cff22" stroke="none" /><path d="M 106.0581310904928 79.89281104454417 l 7.273311266361039 -24.140422480139986 a46.21231949458483,46.21231949458483 0 0,0 0.7596746976426816,0.23603462646452544 l -7.687771336714438 24.01164771879294" fill="#dfff1b" stroke="none" /><path d="M 106.40334571778207 80.00007090966166 l 14.71136893099557 -45.948844308788836 a69.24645758122743,69.24645758122743 0 0,0 1.13207135173796,0.3732261258028529 l -15.500123104975948 45.68880445872674" fill="#39ff8e" stroke="none" /><path d="M 106.74666289553966 80.11325718540242 l 8.147295686646613 -24.015306005868172 a46.35967960288809,46.35967960288809 0 0,0 0.753494901634595,0.2628795759200824 l -8.55947259234448 23.87150557677588" fill="#ddff1b" stroke="none" /><path d="M 107.08798089147638 80.2323363322302 l 8.2672852934111 -23.056624676030943 a45.493998194945846,45.493998194945846 0 0,0 0.734874678999816,0.2706605461381665 l -8.662942298183491 22.91090086208645" fill="#e8ff1a" stroke="none" /><path d="M 107.4271985657038 80.35727306442388 l 12.58735872443917 -33.28981285164695 a56.59007220216606,56.59007220216606 0 0,0 0.9081812869530633,0.35236022989495064 l -13.1585231763919 33.06820991786145" fill="#65ff29" stroke="none" /><path d="M 107.76421540070413 80.48803036053334 l 18.585415430069986 -46.70633707245077 a71.2682761732852,71.2682761732852 0 0,0 1.13593531532515,0.4633765367582996 l -19.386634614983524 46.379499649508894" fill="#3cffa6" stroke="none" /><path d="M 108.09893153111575 80.62456947434976 l 19.068122934957923 -45.6175101322208 a70.44239620938629,70.44239620938629 0 0,0 1.1147215428832853,0.47726558971921884 l -19.850528235631522 45.28252501453879" fill="#3bff9c" stroke="none" /><path d="M 108.43124777332544 80.76684994638697 l 20.683950990481215 -47.18370801058747 a72.51823104693139,72.51823104693139 0 0,0 1.1389433017350228,0.5110106600881299 l -21.493076410683017 46.82067701998281" fill="#3effb4" stroke="none" /><path d="M 108.76106565485865 80.91482961587045 l 20.768983822827717 -45.243308357594145 a70.78260379061372,70.78260379061372 0 0,0 1.1029338200588799,0.5178422172455588 l -21.544695854186195 44.87910115770858" fill="#3cffa0" stroke="none" /><path d="M 109.08828744355905 81.06846463323043 l 9.883922716145001 -20.588899022524664 a43.838447653429604,43.838447653429604 0 0,0 0.6774683749141437,0.33243078935752135 l -10.236862358069578 20.41571307303231" fill="#fdff18" stroke="none" /><path d="M 109.41281617654863 81.2277094730956 l 22.963491052729392 -45.7968494729351 a72.23156588447652,72.23156588447652 0 0,0 1.1066547042081978,0.5668715221973483 l -23.748406244526343 45.394785425425255" fill="#3dffb1" stroke="none" /><path d="M 109.73455568895987 81.39251694778311 l 18.44513803356209 -35.257653694924876 a60.791019855595664,60.791019855595664 0 0,0 0.9230246575024985,0.4930478056696288 l -19.049307737592898 34.93492716275349" fill="#38ff2e" stroke="none" /><path d="M 110.05341064243156 81.56283822128135 l 2.392221765232021 -4.387145941298892 a25.996976534296028,25.996976534296028 0 0,0 0.3910389830544612,0.21761277070088375 l -2.467384837358517 4.345317773037827" fill="#ff0300" stroke="none" /><path d="M 110.36928655335952 81.73862282372117 l 7.168424429340757 -12.624330670216766 a35.51757671480144,35.51757671480144 0 0,0 0.5290482881572982,0.3064589162048573 l -7.384669449963384 12.49906759662186" fill="#ff900d" stroke="none" /><line stroke="#e1ed5e" stroke-width="0.3" x1="143.23703022742887" x2="145.7803849466894" y1="26.81831364943548" y2="22.513508569990506" /><path d="M 143.74570117128098 25.957352633546492 a86.0,86.0 0 0,1 28.547481713284135,27.462654790039103" fill="none" id="id62" stroke="none" /><text fill="#e1ed5e" style="font-size:6.75px; font-family:Arial;" text-anchor="middle"><textPath startOffset="19.985693538727396" xlink:href="#id62">February</textPath></text><path d="M 110.68208982089419 81.91981866633111 l 2.4548078706183962 -4.154933368308157 a25.825925090252706,25.825925090252706 0 0,0 0.38079457537923433,0.2294244709264037 l -2.5259645122152685 4.1120622879231385" fill="#ff0000" stroke="none" /><path d="M 113.34407831869373 83.78471172551755 l 15.497135720701374 -18.83161332978083 a45.38833483754513,45.38833483754513 0 0,0 0.5990016623905503,0.5016466658864768 l -15.818994920051042 18.56206550650053" fill="#eaff1a" stroke="none" /><path d="M 113.6212207817346 84.01681056812373 l 16.503436677292083 -19.36519192492987 a46.443546931407944,46.443546931407944 0 0,0 0.6040009847527408,0.5237837020530385 l -16.834331460691587 19.07824322945716" fill="#dcff1b" stroke="none" /><path d="M 113.89432698308785 84.25364557470407 l 31.354091258112913 -35.53339677655962 a68.38883122743681,68.38883122743681 0 0,0 0.8759925795872735,0.7864747871683436 l -31.961094825296176 34.98842298062198" fill="#38ff84" stroke="none" /><path d="M 114.16331599549186 84.49514656593476 l 16.98511383484639 -18.59392960335215 a46.18388989169675,46.18388989169675 0 0,0 0.5823395209051507,0.5412211190276351 l -17.30266123954639 18.298803898249876" fill="#dfff1b" stroke="none" /><path d="M 114.42810811169701 84.74124197986012 l 16.945865064221028 -17.921466380423308 a45.664575812274364,45.664575812274364 0 0,0 0.5664946272585019,0.5449673825895739 l -17.251842935091947 17.627115911071435" fill="#e6ff1a" stroke="none" /><path d="M 114.68862486808459 84.99185889309783 l 17.517311990131113 -17.898359616545907 a46.04411101083032,46.04411101083032 0 0,0 0.5616596597188726,0.5592477146451876 l -17.822807450017308 17.5941760512506" fill="#e1ff1b" stroke="none" /><path d="M 114.94478906791727 85.2469230424477 l 17.145031592018356 -16.92509471811252 a45.09171931407943,45.09171931407943 0 0,0 0.5405331982105963,0.5570669749655545 l -17.43382905393206 16.627463547596847" fill="#edff1a" stroke="none" /><path d="M 115.19652480421416 85.50635884689758 l 18.29274815669732 -17.446655133529188 a46.27865523465704,46.27865523465704 0 0,0 0.5448378985366625,0.5811950824350267 l -18.590353377204448 17.12919063421611" fill="#deff1b" stroke="none" /><path d="M 115.4437574822437 85.77008943001954 l 18.043967733428318 -16.62574975484496 a45.53569494584838,45.53569494584838 0 0,0 0.5261679027418263,0.581007740023055 l -18.327479276786182 16.312689227552355" fill="#e8ff1a" stroke="none" /><path d="M 115.68641384162765 86.03803664274999 l 25.178605466596345 -22.410652330131068 a54.70755866425993,54.70755866425993 0 0,0 0.6200401945660023,0.7088131271742746 l -25.560637524740198 21.973923646753846" fill="#7aff26" stroke="none" /><path d="M 115.9244219780498 86.31012108654704 l 24.143536435357785 -20.75567268929314 a52.83878610108303,52.83878610108303 0 0,0 0.5869870473146237,0.6948075187750492 l -24.497234096159524 20.33700622088898" fill="#8fff24" stroke="none" /><path d="M 116.15771136456269 86.58626213691792 l 20.002094630341432 -16.60525107982847 a46.99650270758123,46.99650270758123 0 0,0 0.5113700826579736,0.6268792562594881 l -20.284963205075815 16.25848765396088" fill="#d5ff1c" stroke="none" /><path d="M 116.60985879189232 87.15038557335679 l 19.023759975975775 -14.717041469107313 a45.05191787003611,45.05191787003611 0 0,0 0.46923516082019556,0.6174584685120814 l -19.27427107702008 14.387398224714198" fill="#eeff19" stroke="none" /><path d="M 116.82858285166822 87.43820079747576 l 19.98356243006421 -14.916853118900004 a45.93702617328519,45.93702617328519 0 0,0 0.4675457125319592,0.6377318264551524 l -20.237370755109797 14.570658848773359" fill="#e3ff1b" stroke="none" /><path d="M 117.04232023915458 87.72973835380427 l 19.569444079671822 -14.089759830735414 a45.113989169675094,45.113989169675094 0 0,0 0.4483200100007379,0.6341168603431704 l -19.80907670947644 13.750816470060451" fill="#edff1a" stroke="none" /><path d="M 117.45458315368197 88.32363383020206 l 20.51189202150762 -13.72157444092026 a45.67831678700361,45.67831678700361 0 0,0 0.4315586543680046,0.6572934381398984 l -20.74504731123355 13.366462938802687" fill="#e6ff1a" stroke="none" /><path d="M 117.65298651832404 88.62581576622439 l 20.94579426983543 -13.495808355179559 a45.91712545126354,45.91712545126354 0 0,0 0.4223772141379326,0.6680993186588317 l -21.17499908021932 13.13326138880652" fill="#e3ff1b" stroke="none" /><line stroke="#e1ed5e" stroke-width="0.3" x1="172.23445277983987" x2="176.4835382374775" y1="55.19839476539836" y2="52.563006222186495" /><path d="M 173.08426987136738 54.67131705675599 a86.0,86.0 0 0,1 12.851231095245387,41.99856678651699" fill="none" id="id63" stroke="none" /><text fill="#e1ed5e" style="font-size:6.75px; font-family:Arial;" text-anchor="middle"><textPath startOffset="22.20632615414155" xlink:href="#id63">March</textPath></text><path d="M 117.84615892207809 88.93136811851018 l 25.761365283343626 -15.97783984390961 a51.31401173285198,51.31401173285198 0 0,0 0.4590996252932492,0.7546390718635536 l -26.032580706923095 15.532032998838975" fill="#a1ff22" stroke="none" /><path d="M 118.03404312379186 89.2402003453031 l 21.194069723506836 -12.645192346898527 a45.67973826714802,45.67973826714802 0 0,0 0.3970663949235927,0.6787151798874181 l -21.408595792900755 12.278497754657215" fill="#e6ff1a" stroke="none" /><path d="M 118.21658344932153 89.55222093294921 l 20.877963815620202 -11.974163757013653 a45.06802797833935,45.06802797833935 0 0,0 0.3801646084943645,0.6762704186045144 l -21.080986065407 11.613009828474345" fill="#eeff19" stroke="none" /><path d="M 118.89224826269711 90.83032412892265 l 43.0421000920031 -20.8912195714387 a68.844178700361,68.844178700361 0 0,0 0.5082726575802318,1.0705518425524214 l -43.395330943425094 20.147225313245738" fill="#39ff89" stroke="none" /><path d="M 119.04729006885535 91.15688171328212 l 43.75031879534014 -20.312036136910656 a69.235559566787,69.235559566787 0 0,0 0.4925539134773407,1.0852772578519356 l -44.093475025780826 19.55593687021666" fill="#39ff8e" stroke="none" /><path d="M 119.196687751892 91.48605970444005 l 43.69672037820111 -19.3799718586929 a68.80153429602888,68.80153429602888 0 0,0 0.4708295074007984,1.0867394180831889 l -44.02384059544459 18.62493329602311" fill="#39ff89" stroke="none" /><path d="M 119.34039704204932 91.81776055985345 l 44.105443804985725 -18.659456734094125 a68.89013989169675,68.89013989169675 0 0,0 0.4526354901157237,1.0960927420402482 l -44.420100981987645 17.897489421600575" fill="#39ff8a" stroke="none" /><path d="M 119.47837535516314 92.15188598940014 l 22.169397293332445 -8.932364960214088 a44.90124097472925,44.90124097472925 0 0,0 0.2826777940559662,0.719384152731516 l -22.319868637270112 8.549431802586787" fill="#f0ff19" stroke="none" /><path d="M 119.7369772167798 92.82701384747503 l 46.34894212021679 -16.844540902132074 a70.31493682310469,70.31493682310469 0 0,0 0.4036309050989594,1.1411189222369866 l -46.63202610612556 16.044224353468472" fill="#3bff9b" stroke="none" /><path d="M 119.85752413597 93.16781622104841 l 47.46450083186185 -16.33064577633156 a71.19530685920577,71.19530685920577 0 0,0 0.3887355502488474,1.1622698160492957 l -47.73857367588246 15.511202857359951" fill="#3cffa5" stroke="none" /><path d="M 119.97218684219823 93.5106431181261 l 28.23504825777915 -9.174123303039055 a50.68808664259928,50.68808664259928 0 0,0 0.2624786409840338,0.8321290206761595 l -28.388782382531392 8.686744115936476" fill="#a8ff21" stroke="none" /><path d="M 120.08093135843002 93.85539295169968 l 48.576642888086624 -14.864070642201566 a71.79990974729242,71.79990974729242 0 0,0 0.35145749094922224,1.184939940602997 l -48.82530627614754 14.02570131485204" fill="#3dffac" stroke="none" /><path d="M 120.45610955862082 95.25157060432595 l 61.36832867586249 -14.245288187022162 a84.0,84.0 0 0,0 0.31482245199184966,1.4112873218001445 l -61.60444551485638 13.186822695672053" fill="#4dd2ff" stroke="none" /><path d="M 120.53481517161879 95.60439243477599 l 46.62125839798344 -9.979576363447002 a68.6773916967509,68.6773916967509 0 0,0 0.23749526379712363,1.158111251000965 l -46.786132957695564 9.175589456282625" fill="#39ff87" stroke="none" /><path d="M 120.6074358757038 95.95851677861258 l 29.41069813731707 -5.767958894458916 a50.970961191335746,50.970961191335746 0 0,0 0.1614426945362073,0.8624333297184057 l -29.505626555763136 5.260847487277947" fill="#a5ff21" stroke="none" /><path d="M 120.67395015179393 96.31383870115 l 50.00138516969639 -8.915237269517815 a71.7899593862816,71.7899593862816 0 0,0 0.20644104804173039,1.2184267514999796 l -50.14743807925834 8.053224729701999" fill="#3dffac" stroke="none" /><path d="M 120.73433829027371 96.67025291283417 l 48.19891553911868 -7.740309643554758 a69.81647111913358,69.81647111913358 0 0,0 0.18033962376563448,1.1882127975062335 l -48.32501105632362 6.909497733656442" fill="#3aff95" stroke="none" /><path d="M 120.78858239683441 97.02765380044208 l 28.354463129256324 -4.0541138935757175 a49.64282490974729,49.64282490974729 0 0,0 0.11366788760628388,0.8469577911075161 l -28.420047015920442 3.5654377604035368" fill="#b5ff20" stroke="none" /><path d="M 120.87857604477298 97.74499172005257 l 49.52490570873057 -5.348979365130714 a70.812928700361,70.812928700361 0 0,0 0.12045911200172847,1.2130068188572403 l -49.60964194641453 4.495697015569039" fill="#3cffa0" stroke="none" /><path d="M 120.91429891909075 98.10471618934814 l 33.11509311027063 -3.0009373062385967 a54.25078971119134,54.25078971119134 0 0,0 0.07627536044871275,0.930752595877629 l -33.161842954538834 2.430470793153199" fill="#7fff26" stroke="none" /><path d="M 120.94382443527127 98.46500227214037 l 29.443747046219464 -2.1579671351477923 a50.52272111913357,50.52272111913357 0 0,0 0.05610285701652047,0.8678863663332944 l -29.4765304942404 1.6508217045614628" fill="#aaff21" stroke="none" /><path d="M 120.96714384426684 98.82574320788733 l 47.413089422749735 -2.6553517590777025 a68.48738718411553,68.48738718411553 0 0,0 0.055789146487413954,1.177620707075925 l -47.45177217747065 1.8388199453787777" fill="#38ff85" stroke="none" /><path d="M 120.98425023603335 99.18683210126433 l 47.50006625517991 -1.8406914057955421 a68.53571750902526,68.53571750902526 0 0,0 0.03553513490189826,1.1792381287456193 l -47.52471308453745 1.0227831296249237" fill="#39ff86" stroke="none" /><line stroke="#e1ed5e" stroke-width="0.3" x1="184.98032266829074" x2="189.97916517819016" y1="98.17113171792111" y2="98.06355123074" /><path d="M 185.9800911702706 98.14961562048488 a86.0,86.0 0 0,1 -9.607161424134198,41.387399972396054" fill="none" id="id64" stroke="none" /><text fill="#e1ed5e" style="font-size:6.75px; font-family:Arial;" text-anchor="middle"><textPath startOffset="21.466115282336823" xlink:href="#id64">April</textPath></text><path d="M 120.99513854157772 99.54816195383933 l 33.23646018085817 -0.7152845026326395 a54.24415613718412,54.24415613718412 0 0,0 0.012055099552274504,0.9336807455094804 l -33.24384828752815 0.14306749906269647" fill="#7fff26" stroke="none" /><path d="M 120.99824983174949 100.27111621757518 l 47.494800414795314 0.6132230422117428 a68.49875902527076,68.49875902527076 0 0,0 -0.02537043113587313,1.1788642436891257 l -47.47720792097443 -1.4306771016909834" fill="#38ff85" stroke="none" /><line stroke="#e1ed5e" stroke-width="0.3" x1="174.80103733775053" x2="179.2010983576182" y1="140.37084112569926" y2="142.7455964860345" /><path d="M 175.68104954172406 140.8457921977663 a86.0,86.0 0 0,1 -30.038265399797805,32.042727171017184" fill="none" id="id65" stroke="none" /><text fill="#e1ed5e" style="font-size:6.75px; font-family:Arial;" text-anchor="middle"><textPath startOffset="22.206326154141568" xlink:href="#id65">May</textPath></text><line stroke="#e1ed5e" stroke-width="0.3" x1="143.8653032363475" x2="146.44561519142675" y1="172.8068346515853" y2="177.08958963109032" /><path d="M 144.38136562736335 173.6633856474863 a86.0,86.0 0 0,1 -40.68145358897372,12.25698825130547" fill="none" id="id66" stroke="none" /><text fill="#e1ed5e" style="font-size:6.75px; font-family:Arial;" text-anchor="middle"><textPath startOffset="21.466115282336833" xlink:href="#id66">June</textPath></text><line stroke="#e1ed5e" stroke-width="0.3" x1="102.19456741930631" x2="102.32365962044197" y1="184.97166512339345" y2="189.96999836594603" /><path d="M 102.22038585953345 185.97133177190398 a86.0,86.0 0 0,1 -42.740103519485714,-10.115201625700543" fill="none" id="id67" stroke="none" /><text fill="#e1ed5e" style="font-size:6.75px; font-family:Arial;" text-anchor="middle"><textPath startOffset="22.20632615414155" xlink:href="#id67">July</textPath></text><line stroke="#e1ed5e" stroke-width="0.3" x1="58.666819895761336" x2="56.23545636021788" y1="174.27360380694188" y2="178.64263932499728" /><path d="M 58.180547188652646 175.14741091055294 a86.0,86.0 0 0,1 -31.652253787137756,-30.449443065178592" fill="none" id="id68" stroke="none" /><text fill="#e1ed5e" style="font-size:6.75px; font-family:Arial;" text-anchor="middle"><textPath startOffset="22.20632615414155" xlink:href="#id68">August</textPath></text><line stroke="#e1ed5e" stroke-width="0.3" x1="26.63291911575756" x2="22.317208475507996" y1="142.92168965132927" y2="145.44649492493687" /><path d="M 25.769776987707644 143.4266507060508 a86.0,86.0 0 0,1 -11.730757126820373,-40.83630448921669" fill="none" id="id69" stroke="none" /><text fill="#e1ed5e" style="font-size:6.75px; font-family:Arial;" text-anchor="middle"><textPath startOffset="21.46611528233685" xlink:href="#id69">September</textPath></text><line stroke="#e1ed5e" stroke-width="0.3" x1="15.007084014347285" x2="10.007500721073583" y1="101.09737516637583" y2="101.16192664675087" /><path d="M 14.007167355692545 101.11028546245083 a86.0,86.0 0 0,1 10.666146001902534,-42.60595125391555" fill="none" id="id70" stroke="none" /><text fill="#e1ed5e" style="font-size:6.75px; font-family:Arial;" text-anchor="middle"><textPath startOffset="22.20632615414155" xlink:href="#id70">October</textPath></text><line stroke="#e1ed5e" stroke-width="0.3" x1="26.266209847984243" x2="21.928928074336255" y1="57.711370442889674" y2="55.22380399835377" /><path d="M 25.398753493254645 57.213857153982495 a86.0,86.0 0 0,1 29.58750427330803,-30.492523968695096" fill="none" id="id71" stroke="none" /><text fill="#e1ed5e" style="font-size:6.75px; font-family:Arial;" text-anchor="middle"><textPath startOffset="21.46611528233685" xlink:href="#id71">November</textPath></text><line stroke="#e1ed5e" stroke-width="0.3" x1="56.762969772571076" x2="54.21961505331055" y1="26.818313649435495" y2="22.513508569990535" /><path d="M 56.25429882871897 25.957352633546506 a86.0,86.0 0 0,1 42.265352541879196,-11.944610805530505" fill="none" id="id72" stroke="none" /><text fill="#e1ed5e" style="font-size:6.75px; font-family:Arial;" text-anchor="middle"><textPath startOffset="22.20632615414155" xlink:href="#id72">December</textPath></text></svg>