<?xml version="1.0" encoding="utf-8" ?>
<svg baseProfile="full" height="200mm" version="1.1" viewBox="0,0,200,200" width="200mm" xmlns="http://www.w3.org/2000/svg" xmlns:ev="http://www.w3.org/2001/xml-events" xmlns:xlink="http://www.w3.org/1999/xlink"><defs /><rect fill="#1a1a1a" height="200" width="200" x="0" y="0" /><text alignment-baseline="middle" fill="#e1ed5e" style="dominant-baseline: central; font-size:9.0px; font-family:Arial;" text-anchor="middle" x="100.0" y="100.0">2023</text><line stroke="#e1ed5e" stroke-width="0.3" x1="100.0" x2="100.0" y1="15.0" y2="10.0" /><path d="M 100.0 14.0 a86.0,86.0 0 0,1 42.46469731375804,11.215312516191453" fill="none" id="id73" stroke="none" /><text fill="#e1ed5e" style="font-size:6.75px; font-family:Arial;" text-anchor="middle"><textPath startOffset="22.20632615414155" xlink:href="#id73">January</textPath></text><path d="M 101.08401301168833 79.027996857942 l 0.4000775484340077 -7.740153957891099 a28.750486780623408,28.750486780623408 0 0,0 0.49401270213257015,0.029800195282807536 l -0.5332522994061898 7.7321204932279874" fill="#ff1902" stroke="none" /><path d="M 101.80526077348638 79.07773832637324 l 0.6872056620173524 -7.9644430851715216 a28.9940356065535,28.9940356065535 0 0,0 0.4968678513833036,0.04718358948388097 l -0.8241986404909002 7.951433951172462" fill="#ff1c02" stroke="none" /><path d="M 102.16513564639614 79.11191278185805 l 0.7807704273007507 -7.532461446445645 a28.57281835925948,28.57281835925948 0 0,0 0.4887765585340298,0.054919741415677174 l -0.9103136893445058 7.5179057515593675" fill="#ff1602" stroke="none" /><path d="M 102.52436894288641 79.15227682838746 l 0.9574714752864969 -7.907362478744682 a28.96511977287514,28.96511977287514 0 0,0 0.4944556583610429,0.06419453542767757 l -1.0934418621553859 7.889709620152868" fill="#ff1c02" stroke="none" /><path d="M 102.88285421437855 79.19881850522331 l 1.104409223784819 -7.968844416021089 a29.045010942213285,29.045010942213285 0 0,0 0.4946379465106946,0.07289677544093583 l -1.2414161507241694 7.9486531564191845" fill="#ff1d03" stroke="none" /><path d="M 103.2404852339499 79.25152402106235 l 1.54834896279298 -9.913910708478733 a31.034092387768382,31.034092387768382 0 0,0 0.527093065176421,0.08697487206176743 l -1.7187712341082761 9.885789573477341" fill="#ff3c05" stroke="none" /><path d="M 103.59715602781102 79.31037775812273 l 2.0671977200244323 -11.889820623822635 a33.068187141420715,33.068187141420715 0 0,0 0.5599623182748344,0.102329534475663 l -2.2715551594021677 11.852475607996233" fill="#ff5b08" stroke="none" /><path d="M 103.95276090670814 79.375362276772 l 2.8188022469723957 -14.70789064386979 a35.97556988229727,35.97556988229727 0 0,0 0.6071881145166176,0.12179622364282229 l -3.071556770956138 14.65719046414976" fill="#ff860c" stroke="none" /><path d="M 105.01212808612495 79.60689891045804 l 3.612040635651721 -14.696493895735326 a36.133861714082926,36.133861714082926 0 0,0 0.6027319321870349,0.15364978990076486 l -3.8644814565237806 14.632141109665694" fill="#ff880c" stroke="none" /><path d="M 105.71112130821622 79.79150937346287 l 4.076660341638173 -14.425039822399045 a35.990027799136456,35.990027799136456 0 0,0 0.5947091290812451,0.1736119027768971 l -4.324359688442845 14.352729590703444" fill="#ff860c" stroke="none" /><path d="M 106.0581310904928 79.89281104454417 l 1.7863299084883113 -5.928903232735244 a27.19216182646241,27.19216182646241 0 0,0 0.4470062861958122,0.13888702903614433 l -1.8881215673948417 5.89727606881658" fill="#ff0000" stroke="none" /><path d="M 106.40334571778207 80.00007090966166 l 5.604872329478002 -17.506012339559675 a39.38137812740285,39.38137812740285 0 0,0 0.6438239807097208,0.21225864398950012 l -5.90537913243014 17.40693997131094" fill="#ffb711" stroke="none" /><path d="M 107.08798089147638 80.2323363322302 l 5.08880722386356 -14.19216998629621 a36.07692435086059,36.07692435086059 0 0,0 0.5827585891227443,0.2146349064759501 l -5.3323481387588805 14.102471812013937" fill="#ff880c" stroke="none" /><path d="M 107.76421540070413 80.48803036053334 l 5.624401861193579 -14.134481424332497 a36.21241142721949,36.21241142721949 0 0,0 0.5771846774186746,0.23544812216324648 l -5.866870408200642 14.035572415985671" fill="#ff8a0c" stroke="none" /><path d="M 108.76106565485865 80.91482961587045 l 6.342354467148342 -13.816231998551807 a36.20242503105223,36.20242503105223 0 0,0 0.5641058225691961,0.2648552475295096 l -6.5792385010171355 13.705011768382294" fill="#ff890c" stroke="none" /><path d="M 109.08828744355905 81.06846463323043 l 9.682082075466138 -20.16845091817125 a43.37206127639439,43.37206127639439 0 0,0 0.6702609568178184,0.3288941405991276 l -10.027814299294388 19.99880161743729" fill="#ffee16" stroke="none" /><path d="M 109.73455568895987 81.39251694778311 l 7.469588801325733 -14.278026801503534 a37.11386999467676,37.11386999467676 0 0,0 0.5635210138241413,0.3010134096162706 l -7.714254861678185 14.14733466538551" fill="#ff970d" stroke="none" /><path d="M 110.05341064243156 81.56283822128135 l 9.26338512758359 -16.988317327354977 a40.34976045424972,40.34976045424972 0 0,0 0.6069293971053003,0.33775555238058386 l -9.554438613760926 16.826346377414215" fill="#ffc512" stroke="none" /><path d="M 110.36928655335952 81.73862282372117 l 9.877826406619233 -17.39586544984033 a41.00468918199562,41.00468918199562 0 0,0 0.610780988589135,0.35380377177575323 l -10.175804127673697 17.223257520674526" fill="#ffce13" stroke="none" /><line stroke="#e1ed5e" stroke-width="0.3" x1="143.23703022742887" x2="145.7803849466894" y1="26.81831364943548" y2="22.513508569990506" /><path d="M 143.74570117128098 25.957352633546492 a86.0,86.0 0 0,1 28.547481713284135,27.462654790039103" fill="none" id="id74" stroke="none" /><text fill="#e1ed5e" style="font-size:6.75px; font-family:Arial;" text-anchor="middle"><textPath startOffset="19.985693538727396" xlink:href="#id74">February</textPath></text><path d="M 110.99172775467656 82.1063720568725 l 10.507901895858888 -17.105999273625187 a41.07563730998994,41.07563730998994 0 0,0 0.5992756464706765,0.3752663548422842 l -10.800796694701829 16.92258857745996" fill="#ffcf13" stroke="none" /><path d="M 111.2981086023043 82.29822771554956 l 10.810098739520196 -16.93716293543001 a41.09292718992134,41.09292718992134 0 0,0 0.5929767593138994,0.38568857897941333 l -11.100042524618376 16.74857543229107" fill="#ffcf13" stroke="none" /><path d="M 111.60114157652 82.49532879139004 l 8.498153560214593 -12.822650509921399 a36.383074466197435,36.383074466197435 0 0,0 0.5190570625299983,0.35046964564105537 l -8.717615317151134 12.674468951981673" fill="#ff8c0c" stroke="none" /><path d="M 111.90073688211348 82.69761687909136 l 4.490872262220337 -6.529242113131955 a28.924577985449815,28.924577985449815 0 0,0 0.40779365915123544,0.28568551861137526 l -4.602597060955223 6.4509717517566445" fill="#ff1b02" stroke="none" /><path d="M 112.19680574252982 82.90503203632743 l 9.216880893840946 -12.918323611220831 a36.869277813923226,36.869277813923226 0 0,0 0.5134568085397712,0.37304820769804764 l -9.437883018734505 12.75775616870611" fill="#ff930d" stroke="none" /><path d="M 112.48926042617603 83.11751280151076 l 16.87967093170242 -22.81727009406511 a49.38223221151003,49.38223221151003 0 0,0 0.6790147374795331,0.5114198228177811 l -17.269931822940336 22.52333368174148" fill="#c2ff1e" stroke="none" /><path d="M 113.06298171725822 83.55741782278167 l 21.381165821400483 -26.912812378711507 a55.37228130360206,55.37228130360206 0 0,0 0.7411885756273098,0.5993229486135323 l -21.841257795592284 26.540783332833847" fill="#7aff26" stroke="none" /><path d="M 113.6212207817346 84.01681056812373 l 23.297435676636958 -27.33729477433971 a56.91793694919264,56.91793694919264 0 0,0 0.7402210261455707,0.6419123796143226 l -23.764550501429294 26.932217401305714" fill="#68ff28" stroke="none" /><path d="M 114.42810811169701 84.74124197986012 l 12.82006572232971 -13.558137986277574 a39.65950671319572,39.65950671319572 0 0,0 0.49199838327872725,0.4733020549043274 l -13.051547349220856 13.335452844610945" fill="#ffbb11" stroke="none" /><path d="M 114.68862486808459 84.99185889309783 l 12.592930723245551 -12.866860100332746 a39.0038327320045,39.0038327320045 0 0,0 0.47578026677150126,0.4737371151035135 l -12.812546790184374 12.648187134579114" fill="#ffb210" stroke="none" /><path d="M 114.94478906791727 85.2469230424477 l 12.297244593754908 -12.139495247007419 a38.27974448453304,38.27974448453304 0 0,0 0.4588752220509893,0.47291125259432876 l -12.504384079509007 11.926019798862976" fill="#ffa70f" stroke="none" /><path d="M 115.4437574822437 85.77008943001954 l 11.556866899163072 -10.64852142578232 a36.71471224936417,36.71471224936417 0 0,0 0.4242408766790738,0.4684573720675083 l -11.738451416458183 10.448011266445262" fill="#ff910d" stroke="none" /><path d="M 115.68641384162765 86.03803664274999 l 23.903656420814578 -21.27586192875027 a53.000735789909506,53.000735789909506 0 0,0 0.6006955406837716,0.6866988437253355 l -24.266343825076195 20.861247528821988" fill="#96ff23" stroke="none" /><path d="M 116.15771136456269 86.58626213691792 l 14.944416040732673 -12.40648967940345 a40.42309339326906,40.42309339326906 0 0,0 0.43984465691895885,0.5391975415649931 l -15.155759189728041 12.147407968230356" fill="#ffc612" stroke="none" /><path d="M 116.38621287248628 86.86637796730983 l 14.808243930512406 -11.868872952199041 a39.97772993434672,39.97772993434672 0 0,0 0.42575505556824655,0.5406656844688461 l -15.010353066674616 11.612214873777157" fill="#ffbf11" stroke="none" /><path d="M 116.60985879189232 87.15038557335679 l 9.485273687902563 -7.337937736124865 a32.992320340687286,32.992320340687286 0 0,0 0.34362924982579435,0.45217581300284027 l -9.610178877952471 7.173577147240991" fill="#ff5a08" stroke="none" /><path d="M 117.04232023915458 87.72973835380427 l 28.01661888556815 -20.17162213498715 a55.5228224995564,55.5228224995564 0 0,0 0.5517577318345929,0.7804221823167008 l -28.359689237206627 19.686373452338653" fill="#78ff26" stroke="none" /><path d="M 117.2510076193507 88.02491185347247 l 15.682693385527616 -10.886415437901594 a40.090859407346066,40.090859407346066 0 0,0 0.38864372026905536,0.5702867033786019 l -15.867761571465405 10.614850711252586" fill="#ffc111" stroke="none" /><path d="M 117.65298651832404 88.62581576622439 l 17.570459041278532 -11.321010073851458 a41.90182527947004,41.90182527947004 0 0,0 0.3854417290912956,0.6096762513909719 l -17.762728366615786 11.01688617474628" fill="#ffda14" stroke="none" /><line stroke="#e1ed5e" stroke-width="0.3" x1="172.23445277983987" x2="176.4835382374775" y1="55.19839476539836" y2="52.563006222186495" /><path d="M 173.08426987136738 54.67131705675599 a86.0,86.0 0 0,1 12.851231095245387,41.99856678651699" fill="none" id="id75" stroke="none" /><text fill="#e1ed5e" style="font-size:6.75px; font-family:Arial;" text-anchor="middle"><textPath startOffset="22.20632615414155" xlink:href="#id75">March</textPath></text><path d="M 117.84615892207809 88.93136811851018 l 17.85696773898008 -11.075335778719749 a42.012718992133436,42.012718992133436 0 0,0 0.37588219855534233,0.61785150285551 l -18.04496573582165 10.766316502657158" fill="#ffdb14" stroke="none" /><path d="M 118.03404312379186 89.2402003453031 l 17.661095656009127 -10.53728493586634 a41.56571597563139,41.56571597563139 0 0,0 0.36130568214598435,0.6175885297451232 l -17.83986101262544 10.231716993767321" fill="#ffd513" stroke="none" /><path d="M 118.21658344932153 89.55222093294921 l 15.365672516360819 -8.81269268269794 a38.713481989708406,38.713481989708406 0 0,0 0.3265617863542791,0.5809169791809278 l -15.515091944007532 8.546892193582218" fill="#ffae10" stroke="none" /><path d="M 118.56541770881063 90.18545643968196 l 30.02860505995608 -15.874517721013154 a54.9664162772816,54.9664162772816 0 0,0 0.4349952322989732,0.8402723326000183 l -30.297409725415168 15.355272666152791" fill="#7fff26" stroke="none" /><path d="M 118.89224826269711 90.83032412892265 l 17.22112179899398 -8.358566055100905 a40.14243094576211,40.14243094576211 0 0,0 0.2963692855911208,0.6242292990459283 l -17.36244927842686 8.060894340414437" fill="#ffc212" stroke="none" /><path d="M 119.04729006885535 91.15688171328212 l 17.89442599638471 -8.307876090872126 a40.72894540722777,40.72894540722777 0 0,0 0.2897528607793409,0.6384320205301205 l -18.0347811741274 7.998622061499943" fill="#ffca12" stroke="none" /><path d="M 119.34039704204932 91.81776055985345 l 18.981889889214507 -8.030567715976561 a41.61072928372863,41.61072928372863 0 0,0 0.2733989635239992,0.662057275984626 l -19.117310539624704 7.702635869538633" fill="#ffd614" stroke="none" /><path d="M 119.47837535516314 92.15188598940014 l 29.286342769463406 -11.799883348450365 a52.57415271780919,52.57415271780919 0 0,0 0.3309829570856621,0.8423155237460906 l -29.485119276430765 11.294018819808489" fill="#9bff22" stroke="none" /><path d="M 119.97218684219823 93.5106431181261 l 16.463924029668856 -5.349453194521653 a38.31119417992547,38.31119417992547 0 0,0 0.19838725130277668,0.6289418008349736 l -16.55356676473984 5.06526122726026" fill="#ffa80f" stroke="none" /><path d="M 120.37134235888165 94.90015583598534 l 61.11402707664495 -15.299532492043943 a84.0,84.0 0 0,0 0.33906879895672226,1.4056590733623755 l -61.36832867586249 14.245288187022162" fill="#4dd2ff" stroke="none" /><path d="M 120.6074358757038 95.95851677861258 l 14.961532310841312 -2.9342215191265746 a36.246544035015084,36.246544035015084 0 0,0 0.11480536367897315,0.6132948434218779 l -15.009823398430145 2.676248598242134" fill="#ff8a0c" stroke="none" /><path d="M 120.67395015179393 96.31383870115 l 15.392805665393052 -2.7445342620973308 a36.635566333471346,36.635566333471346 0 0,0 0.10535017395384394,0.6217826902070009 l -15.437767700867118 2.479165783574492" fill="#ff900d" stroke="none" /><path d="M 120.78858239683441 97.02765380044208 l 31.417699612058122 -4.4920946632211525 a52.73721417164489,52.73721417164489 0 0,0 0.1207531550436413,0.8997512632527528 l -31.4903687661596 3.950625057903735" fill="#99ff23" stroke="none" /><path d="M 120.83666639777658 97.38593545837742 l 14.940285416711557 -1.8743339075445389 a36.05739871059325,36.05739871059325 0 0,0 0.07195965959856244,0.616506418416947 l -14.970335429313709 1.6168837508027392" fill="#ff870c" stroke="none" /><path d="M 120.91429891909075 98.10471618934814 l 20.962740626411485 -1.8996736677539594 a42.04864020819778,42.04864020819778 0 0,0 0.05911941937311368,0.721406660350071 l -20.992334529604094 1.5385530901961195" fill="#ffdc14" stroke="none" /><path d="M 120.94382443527127 98.46500227214037 l 22.308945067415873 -1.6350490377372764 a43.36878216123499,43.36878216123499 0 0,0 0.04815877946944035,0.7449950028119134 l -22.33378443788973 1.2507949706723278" fill="#ffee16" stroke="none" /><path d="M 120.98425023603335 99.18683210126433 l 20.908787858654115 -0.8102436301934592 a41.924480984207726,41.924480984207726 0 0,0 0.021737455178312007,0.721360311109867 l -20.91963700828807 0.45021317165859315" fill="#ffda14" stroke="none" /><line stroke="#e1ed5e" stroke-width="0.3" x1="184.98032266829074" x2="189.97916517819016" y1="98.17113171792111" y2="98.06355123074" /><path d="M 185.9800911702706 98.14961562048488 a86.0,86.0 0 0,1 -9.607161424134198,41.387399972396054" fill="none" id="id76" stroke="none" /><text fill="#e1ed5e" style="font-size:6.75px; font-family:Arial;" text-anchor="middle"><textPath startOffset="21.466115282336823" xlink:href="#id76">April</textPath></text><path d="M 120.99513854157772 99.54816195383933 l 24.14166494142341 -0.5195546910346098 a45.14725498314308,45.14725498314308 0 0,0 0.01003342465052428,0.7770997964050151 l -24.14703137319165 0.10391863656913197" fill="#f9ff18" stroke="none" /><path d="M 120.99824983174949 100.27111621757518 l 27.153132822593783 0.35058420226276993 a48.1553959898267,48.1553959898267 0 0,0 -0.01783569768511978,0.8287547873992016 l -27.143075062223655 -0.8179288054520863" fill="#d2ff1c" stroke="none" /><path d="M 120.9764740272857 100.99374915477107 l 24.02536426651513 1.1381886870910745 a45.0523096942095,45.0523096942095 0 0,0 -0.04336531332691014,0.7743168006217145 l -24.00221260230069 -1.551577204048212" fill="#faff18" stroke="none" /><path d="M 120.95626037817324 101.35467743843564 l 16.188887771174365 1.046499739038281 a37.22267699769326,37.22267699769326 0 0,0 -0.046835772476421685,0.6390369042462938 l -16.168475440033607 -1.3250097797813452" fill="#ff980e" stroke="none" /><path d="M 120.89721153311464 102.0752229133903 l 28.64155225482063 2.8442840529264837 a49.78243331164606,49.78243331164606 0 0,0 -0.0920209279445461,0.8519995065586037 l -28.588349025375035 -3.336879881369879" fill="#bdff1f" stroke="none" /><path d="M 120.8583938346157 102.4346265915055 l 6.927646639358893 0.8086064947506387 a27.974677944046842,27.974677944046842 0 0,0 -0.05994372794226636,0.47781049085988586 l -6.9127014021697795 -0.9277347398979194" fill="#ff0c01" stroke="none" /><line stroke="#e1ed5e" stroke-width="0.3" x1="174.80103733775053" x2="179.2010983576182" y1="140.37084112569926" y2="142.7455964860345" /><path d="M 175.68104954172406 140.8457921977663 a86.0,86.0 0 0,1 -30.038265399797805,32.042727171017184" fill="none" id="id77" stroke="none" /><text fill="#e1ed5e" style="font-size:6.75px; font-family:Arial;" text-anchor="middle"><textPath startOffset="22.206326154141568" xlink:href="#id77">May</textPath></text><line stroke="#e1ed5e" stroke-width="0.3" x1="143.8653032363475" x2="146.44561519142675" y1="172.8068346515853" y2="177.08958963109032" /><path d="M 144.38136562736335 173.6633856474863 a86.0,86.0 0 0,1 -40.68145358897372,12.25698825130547" fill="none" id="id78" stroke="none" /><text fill="#e1ed5e" style="font-size:6.75px; font-family:Arial;" text-anchor="middle"><textPath startOffset="21.466115282336833" xlink:href="#id78">June</textPath></text><line stroke="#e1ed5e" stroke-width="0.3" x1="102.19456741930631" x2="102.32365962044197" y1="184.97166512339345" y2="189.96999836594603" /><path d="M 102.22038585953345 185.97133177190398 a86.0,86.0 0 0,1 -42.740103519485714,-10.115201625700543" fill="none" id="id79" stroke="none" /><text fill="#e1ed5e" style="font-size:6.75px; font-family:Arial;" text-anchor="middle"><textPath startOffset="22.20632615414155" xlink:href="#id79">July</textPath></text><line stroke="#e1ed5e" stroke-width="0.3" x1="58.666819895761336" x2="56.23545636021788" y1="174.27360380694188" y2="178.64263932499728" /><path d="M 58.180547188652646 175.14741091055294 a86.0,86.0 0 0,1 -31.652253787137756,-30.449443065178592" fill="none" id="id80" stroke="none" /><text fill="#e1ed5e" style="font-size:6.75px; font-family:Arial;" text-anchor="middle"><textPath startOffset="22.20632615414155" xlink:href="#id80">August</textPath></text><line stroke="#e1ed5e" stroke-width="0.3" x1="26.63291911575756" x2="22.317208475507996" y1="142.92168965132927" y2="145.44649492493687" /><path d="M 25.769776987707644 143.4266507060508 a86.0,86.0 0 0,1 -11.730757126820373,-40.83630448921669" fill="none" id="id81" stroke="none" /><text fill="#e1ed5e" style="font-size:6.75px; font-family:Arial;" text-anchor="middle"><textPath startOffset="21.46611528233685" xlink:href="#id81">September</textPath></text><line stroke="#e1ed5e" stroke-width="0.3" x1="15.007084014347285" x2="10.007500721073583" y1="101.09737516637583" y2="101.16192664675087" /><path d="M 14.007167355692545 101.11028546245083 a86.0,86.0 0 0,1 10.666146001902534,-42.60595125391555" fill="none" id="id82" stroke="none" /><text fill="#e1ed5e" style="font-size:6.75px; font-family:Arial;" text-anchor="middle"><textPath startOffset="22.20632615414155" xlink:href="#id82">October</textPath></text><line stroke="#e1ed5e" stroke-width="0.3" x1="26.266209847984243" x2="21.928928074336255" y1="57.711370442889674" y2="55.22380399835377" /><path d="M 25.398753493254645 57.213857153982495 a86.0,86.0 0 0,1 29.58750427330803,-30.492523968695096" fill="none" id="id83" stroke="none" /><text fill="#e1ed5e" style="font-size:6.75px; font-family:Arial;" text-anchor="middle"><textPath startOffset="21.46611528233685" xlink:href="#id83">November</textPath></text><line stroke="#e1ed5e" stroke-width="0.3" x1="56.762969772571076" x2="54.21961505331055" y1="26.818313649435495" y2="22.513508569990535" /><path d="M 56.25429882871897 25.957352633546506 a86.0,86.0 0 0,1 42.265352541879196,-11.944610805530505" fill="none" id="id84" stroke="none" /><text fill="#e1ed5e" style="font-size:6.75px; font-family:Arial;" text-anchor="middle"><textPath startOffset="22.20632615414155" xlink:href="#id84">December</textPath></text></svg>