<?xml version="1.0" encoding="utf-8" ?>
<svg baseProfile="full" height="200mm" version="1.1" viewBox="0,0,200,200" width="200mm" xmlns="http://www.w3.org/2000/svg" xmlns:ev="http://www.w3.org/2001/xml-events" xmlns:xlink="http://www.w3.org/1999/xlink"><defs /><rect fill="#1a1a1a" height="200" width="200" x="0" y="0" /><text alignment-baseline="middle" fill="#e1ed5e" style="dominant-baseline: central; font-size:9.0px; font-family:Arial;" text-anchor="middle" x="100.0" y="100.0">2023</text><line stroke="#e1ed5e" stroke-width="0.3" x1="100.0" x2="100.0" y1="15.0" y2="10.0" /><path d="M 100.0 14.0 a86.0,86.0 0 0,1 42.46469731375804,11.215312516191453" fill="none" id="id73" stroke="none" /><text fill="#e1ed5e" style="font-size:6.75px; font-family:Arial;" text-anchor="middle"><textPath startOffset="22.20632615414155" xlink:href="#id73">January</textPath></text><path d="M 101.08401301168833 79.027996857942 l 0.4000775484340077 -7.740153957891099 a28.750486780623408,28.750486780623408 0 0,0 0.49401270213257015,0.029800195282807536 l -0.5332522994061898 7.7321204932279874" fill="#ff1f03" stroke="none" /><path d="M 101.80526077348638 79.07773832637324 l 0.6872056620173524 -7.9644430851715216 a28.9940356065535,28.9940356065535 0 0,0 0.4968678513833036,0.04718358948388097 l -0.8241986404909002 7.951433951172462" fill="#ff2303" stroke="none" /><path d="M 102.16513564639614 79.11191278185805 l 0.7807704273007507 -7.532461446445645 a28.57281835925948,28.57281835925948 0 0,0 0.4887765585340298,0.054919741415677174 l -0.9103136893445058 7.5179057515593675" fill="#ff1d02" stroke="none" /><path d="M 102.52436894288641 79.15227682838746 l 0.9574714752864969 -7.907362478744682 a28.96511977287514,28.96511977287514 0 0,0 0.4944556583610429,0.06419453542767757 l -1.0934418621553859 7.889709620152868" fill="#ff2303" stroke="none" /><path d="M 102.88285421437855 79.19881850522331 l 1.104409223784819 -7.968844416021089 a29.045010942213285,29.045010942213285 0 0,0 0.4946379465106946,0.07289677544093583 l -1.2414161507241694 7.9486531564191845" fill="#ff2403" stroke="none" /><path d="M 103.2404852339499 79.25152402106235 l 1.54834896279298 -9.913910708478733 a31.034092387768382,31.034092387768382 0 0,0 0.527093065176421,0.08697487206176743 l -1.7187712341082761 9.885789573477341" fill="#ff4206" stroke="none" /><path d="M 103.59715602781102 79.31037775812273 l 2.0671977200244323 -11.889820623822635 a33.068187141420715,33.068187141420715 0 0,0 0.5599623182748344,0.102329534475663 l -2.2715551594021677 11.852475607996233" fill="#ff6108" stroke="none" /><path d="M 103.95276090670814 79.375362276772 l 2.8188022469723957 -14.70789064386979 a35.97556988229727,35.97556988229727 0 0,0 0.6071881145166176,0.12179622364282229 l -3.071556770956138 14.65719046414976" fill="#ff8c0c" stroke="none" /><path d="M 105.01212808612495 79.60689891045804 l 3.612040635651721 -14.696493895735326 a36.133861714082926,36.133861714082926 0 0,0 0.6027319321870349,0.15364978990076486 l -3.8644814565237806 14.632141109665694" fill="#ff8e0d" stroke="none" /><path d="M 105.71112130821622 79.79150937346287 l 4.076660341638173 -14.425039822399045 a35.990027799136456,35.990027799136456 0 0,0 0.5947091290812451,0.1736119027768971 l -4.324359688442845 14.352729590703444" fill="#ff8c0c" stroke="none" /><path d="M 106.0581310904928 79.89281104454417 l 1.7863299084883113 -5.928903232735244 a27.19216182646241,27.19216182646241 0 0,0 0.4470062861958122,0.13888702903614433 l -1.8881215673948417 5.89727606881658" fill="#ff0701" stroke="none" /><path d="M 106.40334571778207 80.00007090966166 l 5.604872329478002 -17.506012339559675 a39.38137812740285,39.38137812740285 0 0,0 0.6438239807097208,0.21225864398950012 l -5.90537913243014 17.40693997131094" fill="#ffbc11" stroke="none" /><path d="M 107.08798089147638 80.2323363322302 l 5.08880722386356 -14.19216998629621 a36.07692435086059,36.07692435086059 0 0,0 0.5827585891227443,0.2146349064759501 l -5.3323481387588805 14.102471812013937" fill="#ff8d0d" stroke="none" /><path d="M 107.76421540070413 80.48803036053334 l 5.624401861193579 -14.134481424332497 a36.21241142721949,36.21241142721949 0 0,0 0.5771846774186746,0.23544812216324648 l -5.866870408200642 14.035572415985671" fill="#ff8f0d" stroke="none" /><path d="M 108.76106565485865 80.91482961587045 l 6.342354467148342 -13.816231998551807 a36.20242503105223,36.20242503105223 0 0,0 0.5641058225691961,0.2648552475295096 l -6.5792385010171355 13.705011768382294" fill="#ff8f0d" stroke="none" /><path d="M 109.08828744355905 81.06846463323043 l 9.682082075466138 -20.16845091817125 a43.37206127639439,43.37206127639439 0 0,0 0.6702609568178184,0.3288941405991276 l -10.027814299294388 19.99880161743729" fill="#fff216" stroke="none" /><path d="M 109.73455568895987 81.39251694778311 l 7.469588801325733 -14.278026801503534 a37.11386999467676,37.11386999467676 0 0,0 0.5635210138241413,0.3010134096162706 l -7.714254861678185 14.14733466538551" fill="#ff9c0e" stroke="none" /><path d="M 110.05341064243156 81.56283822128135 l 9.26338512758359 -16.988317327354977 a40.34976045424972,40.34976045424972 0 0,0 0.6069293971053003,0.33775555238058386 l -9.554438613760926 16.826346377414215" fill="#ffc912" stroke="none" /><path d="M 110.36928655335952 81.73862282372117 l 9.877826406619233 -17.39586544984033 a41.00468918199562,41.00468918199562 0 0,0 0.610780988589135,0.35380377177575323 l -10.175804127673697 17.223257520674526" fill="#ffd213" stroke="none" /><line stroke="#e1ed5e" stroke-width="0.3" x1="143.23703022742887" x2="145.7803849466894" y1="26.81831364943548" y2="22.513508569990506" /><path d="M 143.74570117128098 25.957352633546492 a86.0,86.0 0 0,1 28.547481713284135,27.462654790039103" fill="none" id="id74" stroke="none" /><text fill="#e1ed5e" style="font-size:6.75px; font-family:Arial;" text-anchor="middle"><textPath startOffset="19.985693538727396" xlink:href="#id74">February</textPath></text><path d="M 110.99172775467656 82.1063720568725 l 10.507901895858888 -17.105999273625187 a41.07563730998994,41.07563730998994 0 0,0 0.5992756464706765,0.3752663548422842 l -10.800796694701829 16.92258857745996" fill="#ffd313" stroke="none" /><path d="M 111.2981086023043 82.29822771554956 l 10.810098739520196 -16.93716293543001 a41.09292718992134,41.09292718992134 0 0,0 0.5929767593138994,0.38568857897941333 l -11.100042524618376 16.74857543229107" fill="#ffd313" stroke="none" /><path d="M 111.60114157652 82.49532879139004 l 8.498153560214593 -12.822650509921399 a36.383074466197435,36.383074466197435 0 0,0 0.5190570625299983,0.35046964564105537 l -8.717615317151134 12.674468951981673" fill="#ff910d" stroke="none" /><path d="M 111.90073688211348 82.69761687909136 l 4.490872262220337 -6.529242113131955 a28.924577985449815,28.924577985449815 0 0,0 0.40779365915123544,0.28568551861137526 l -4.602597060955223 6.4509717517566445" fill="#ff2203" stroke="none" /><path d="M 112.19680574252982 82.90503203632743 l 9.216880893840946 -12.918323611220831 a36.869277813923226,36.869277813923226 0 0,0 0.5134568085397712,0.37304820769804764 l -9.437883018734505 12.75775616870611" fill="#ff980e" stroke="none" /><path d="M 112.48926042617603 83.11751280151076 l 16.87967093170242 -22.81727009406511 a49.38223221151003,49.38223221151003 0 0,0 0.6790147374795331,0.5114198228177811 l -17.269931822940336 22.52333368174148" fill="#bfff1e" stroke="none" /><path d="M 113.06298171725822 83.55741782278167 l 21.381165821400483 -26.912812378711507 a55.37228130360206,55.37228130360206 0 0,0 0.7411885756273098,0.5993229486135323 l -21.841257795592284 26.540783332833847" fill="#77ff26" stroke="none" /><path d="M 113.6212207817346 84.01681056812373 l 23.297435676636958 -27.33729477433971 a56.91793694919264,56.91793694919264 0 0,0 0.7402210261455707,0.6419123796143226 l -23.764550501429294 26.932217401305714" fill="#66ff29" stroke="none" /><path d="M 114.42810811169701 84.74124197986012 l 12.82006572232971 -13.558137986277574 a39.65950671319572,39.65950671319572 0 0,0 0.49199838327872725,0.4733020549043274 l -13.051547349220856 13.335452844610945" fill="#ffc011" stroke="none" /><path d="M 114.68862486808459 84.99185889309783 l 12.592930723245551 -12.866860100332746 a39.0038327320045,39.0038327320045 0 0,0 0.47578026677150126,0.4737371151035135 l -12.812546790184374 12.648187134579114" fill="#ffb710" stroke="none" /><path d="M 114.94478906791727 85.2469230424477 l 12.297244593754908 -12.139495247007419 a38.27974448453304,38.27974448453304 0 0,0 0.4588752220509893,0.47291125259432876 l -12.504384079509007 11.926019798862976" fill="#ffac10" stroke="none" /><path d="M 115.4437574822437 85.77008943001954 l 11.556866899163072 -10.64852142578232 a36.71471224936417,36.71471224936417 0 0,0 0.4242408766790738,0.4684573720675083 l -11.738451416458183 10.448011266445262" fill="#ff960d" stroke="none" /><path d="M 115.68641384162765 86.03803664274999 l 23.903656420814578 -21.27586192875027 a53.000735789909506,53.000735789909506 0 0,0 0.6006955406837716,0.6866988437253355 l -24.266343825076195 20.861247528821988" fill="#93ff23" stroke="none" /><path d="M 116.15771136456269 86.58626213691792 l 14.944416040732673 -12.40648967940345 a40.42309339326906,40.42309339326906 0 0,0 0.43984465691895885,0.5391975415649931 l -15.155759189728041 12.147407968230356" fill="#ffca12" stroke="none" /><path d="M 116.38621287248628 86.86637796730983 l 14.808243930512406 -11.868872952199041 a39.97772993434672,39.97772993434672 0 0,0 0.42575505556824655,0.5406656844688461 l -15.010353066674616 11.612214873777157" fill="#ffc412" stroke="none" /><path d="M 116.60985879189232 87.15038557335679 l 9.485273687902563 -7.337937736124865 a32.992320340687286,32.992320340687286 0 0,0 0.34362924982579435,0.45217581300284027 l -9.610178877952471 7.173577147240991" fill="#ff6008" stroke="none" /><path d="M 117.04232023915458 87.72973835380427 l 28.01661888556815 -20.17162213498715 a55.5228224995564,55.5228224995564 0 0,0 0.5517577318345929,0.7804221823167008 l -28.359689237206627 19.686373452338653" fill="#76ff27" stroke="none" /><path d="M 117.2510076193507 88.02491185347247 l 15.682693385527616 -10.886415437901594 a40.090859407346066,40.090859407346066 0 0,0 0.38864372026905536,0.5702867033786019 l -15.867761571465405 10.614850711252586" fill="#ffc612" stroke="none" /><path d="M 117.65298651832404 88.62581576622439 l 17.570459041278532 -11.321010073851458 a41.90182527947004,41.90182527947004 0 0,0 0.3854417290912956,0.6096762513909719 l -17.762728366615786 11.01688617474628" fill="#ffde14" stroke="none" /><line stroke="#e1ed5e" stroke-width="0.3" x1="172.23445277983987" x2="176.4835382374775" y1="55.19839476539836" y2="52.563006222186495" /><path d="M 173.08426987136738 54.67131705675599 a86.0,86.0 0 0,1 12.851231095245387,41.99856678651699" fill="none" id="id75" stroke="none" /><text fill="#e1ed5e" style="font-size:6.75px; font-family:Arial;" text-anchor="middle"><textPath startOffset="22.20632615414155" xlink:href="#id75">March</textPath></text><path d="M 117.84615892207809 88.93136811851018 l 17.85696773898008 -11.075335778719749 a42.012718992133436,42.012718992133436 0 0,0 0.37588219855534233,0.61785150285551 l -18.04496573582165 10.766316502657158" fill="#ffe015" stroke="none" /><path d="M 118.03404312379186 89.2402003453031 l 17.661095656009127 -10.53728493586634 a41.56571597563139,41.56571597563139 0 0,0 0.36130568214598435,0.6175885297451232 l -17.83986101262544 10.231716993767321" fill="#ffda14" stroke="none" /><path d="M 118.21658344932153 89.55222093294921 l 15.365672516360819 -8.81269268269794 a38.713481989708406,38.713481989708406 0 0,0 0.3265617863542791,0.5809169791809278 l -15.515091944007532 8.546892193582218" fill="#ffb210" stroke="none" /><path d="M 118.56541770881063 90.18545643968196 l 30.02860505995608 -15.874517721013154 a54.9664162772816,54.9664162772816 0 0,0 0.4349952322989732,0.8402723326000183 l -30.297409725415168 15.355272666152791" fill="#7cff26" stroke="none" /><path d="M 118.89224826269711 90.83032412892265 l 17.22112179899398 -8.358566055100905 a40.14243094576211,40.14243094576211 0 0,0 0.2963692855911208,0.6242292990459283 l -17.36244927842686 8.060894340414437" fill="#ffc612" stroke="none" /><path d="M 119.04729006885535 91.15688171328212 l 17.89442599638471 -8.307876090872126 a40.72894540722777,40.72894540722777 0 0,0 0.2897528607793409,0.6384320205301205 l -18.0347811741274 7.998622061499943" fill="#ffce13" stroke="none" /><path d="M 119.34039704204932 91.81776055985345 l 18.981889889214507 -8.030567715976561 a41.61072928372863,41.61072928372863 0 0,0 0.2733989635239992,0.662057275984626 l -19.117310539624704 7.702635869538633" fill="#ffda14" stroke="none" /><path d="M 119.47837535516314 92.15188598940014 l 29.286342769463406 -11.799883348450365 a52.57415271780919,52.57415271780919 0 0,0 0.3309829570856621,0.8423155237460906 l -29.485119276430765 11.294018819808489" fill="#98ff23" stroke="none" /><path d="M 119.97218684219823 93.5106431181261 l 16.463924029668856 -5.349453194521653 a38.31119417992547,38.31119417992547 0 0,0 0.19838725130277668,0.6289418008349736 l -16.55356676473984 5.06526122726026" fill="#ffad10" stroke="none" /><path d="M 120.37134235888165 94.90015583598534 l 61.11402707664495 -15.299532492043943 a84.0,84.0 0 0,0 0.33906879895672226,1.4056590733623755 l -61.36832867586249 14.245288187022162" fill="#4dd2ff" stroke="none" /><path d="M 120.6074358757038 95.95851677861258 l 14.961532310841312 -2.9342215191265746 a36.246544035015084,36.246544035015084 0 0,0 0.11480536367897315,0.6132948434218779 l -15.009823398430145 2.676248598242134" fill="#ff8f0d" stroke="none" /><path d="M 120.67395015179393 96.31383870115 l 15.392805665393052 -2.7445342620973308 a36.635566333471346,36.635566333471346 0 0,0 0.10535017395384394,0.6217826902070009 l -15.437767700867118 2.479165783574492" fill="#ff950d" stroke="none" /><path d="M 120.78858239683441 97.02765380044208 l 31.417699612058122 -4.4920946632211525 a52.73721417164489,52.73721417164489 0 0,0 0.1207531550436413,0.8997512632527528 l -31.4903687661596 3.950625057903735" fill="#96ff23" stroke="none" /><path d="M 120.83666639777658 97.38593545837742 l 14.940285416711557 -1.8743339075445389 a36.05739871059325,36.05739871059325 0 0,0 0.07195965959856244,0.616506418416947 l -14.970335429313709 1.6168837508027392" fill="#ff8d0d" stroke="none" /><path d="M 120.91429891909075 98.10471618934814 l 20.962740626411485 -1.8996736677539594 a42.04864020819778,42.04864020819778 0 0,0 0.05911941937311368,0.721406660350071 l -20.992334529604094 1.5385530901961195" fill="#ffe015" stroke="none" /><path d="M 120.94382443527127 98.46500227214037 l 22.308945067415873 -1.6350490377372764 a43.36878216123499,43.36878216123499 0 0,0 0.04815877946944035,0.7449950028119134 l -22.33378443788973 1.2507949706723278" fill="#fff216" stroke="none" /><path d="M 120.98425023603335 99.18683210126433 l 20.908787858654115 -0.8102436301934592 a41.924480984207726,41.924480984207726 0 0,0 0.021737455178312007,0.721360311109867 l -20.91963700828807 0.45021317165859315" fill="#ffdf14" stroke="none" /><line stroke="#e1ed5e" stroke-width="0.3" x1="184.98032266829074" x2="189.97916517819016" y1="98.17113171792111" y2="98.06355123074" /><path d="M 185.9800911702706 98.14961562048488 a86.0,86.0 0 0,1 -9.607161424134198,41.387399972396054" fill="none" id="id76" stroke="none" /><text fill="#e1ed5e" style="font-size:6.75px; font-family:Arial;" text-anchor="middle"><textPath startOffset="21.466115282336823" xlink:href="#id76">April</textPath></text><path d="M 120.99513854157772 99.54816195383933 l 24.14166494142341 -0.5195546910346098 a45.14725498314308,45.14725498314308 0 0,0 0.01003342465052428,0.7770997964050151 l -24.14703137319165 0.10391863656913197" fill="#f5ff19" stroke="none" /><path d="M 120.99824983174949 100.27111621757518 l 27.153132822593783 0.35058420226276993 a48.1553959898267,48.1553959898267 0 0,0 -0.01783569768511978,0.8287547873992016 l -27.143075062223655 -0.8179288054520863" fill="#ceff1d" stroke="none" /><path d="M 120.9764740272857 100.99374915477107 l 24.02536426651513 1.1381886870910745 a45.0523096942095,45.0523096942095 0 0,0 -0.04336531332691014,0.7743168006217145 l -24.00221260230069 -1.551577204048212" fill="#f6ff19" stroke="none" /><path d="M 120.95626037817324 101.35467743843564 l 16.188887771174365 1.046499739038281 a37.22267699769326,37.22267699769326 0 0,0 -0.046835772476421685,0.6390369042462938 l -16.168475440033607 -1.3250097797813452" fill="#ff9d0e" stroke="none" /><path d="M 120.89721153311464 102.0752229133903 l 28.64155225482063 2.8442840529264837 a49.78243331164606,49.78243331164606 0 0,0 -0.0920209279445461,0.8519995065586037 l -28.588349025375035 -3.336879881369879" fill="#baff1f" stroke="none" /><path d="M 120.8583938346157 102.4346265915055 l 6.927646639358893 0.8086064947506387 a27.974677944046842,27.974677944046842 0 0,0 -0.05994372794226636,0.47781049085988586 l -6.9127014021697795 -0.9277347398979194" fill="#ff1302" stroke="none" /><path d="M 120.76222939487914 103.15116336523771 l 24.48835389473827 3.7166916037979965 a45.768796356538715,45.768796356538715 0 0,0 -0.12492319581677397,0.777896859599554 l -24.42074894456021 -4.137667693090756" fill="#ecff1a" stroke="none" /><path d="M 120.70491114924044 103.5080841355445 l 25.24296916965041 4.276978492676997 a46.602734961850125,46.602734961850125 0 0,0 -0.14081473000253633,0.789763787498664 l -25.165607997308687 -4.7108610309088785" fill="#e2ff1b" stroke="none" /><path d="M 120.64145759157962 103.86396538481128 l 23.711683645462678 4.438694526060941 a45.12355592358195,45.12355592358195 0 0,0 -0.1494880385704745,0.7622362880844102 l -23.63176567391654 -4.846194541213297" fill="#f5ff19" stroke="none" /><path d="M 120.41448212921028 104.9243191809786 l 21.05293729988759 5.07832539202339 a42.656767019577686,42.656767019577686 0 0,0 -0.17832292919383425,0.7123114597655814 l -20.962403056398696 -5.4399646911863675" fill="#ffe915" stroke="none" /><path d="M 120.02730092923936 106.31721596034902 l 9.445797651024199 2.9794900416240795 a30.904567338972022,30.904567338972022 0 0,0 -0.16439426908349422,0.5059535355642325 l -9.393111130924456 -3.141642477166107" fill="#ff4006" stroke="none" /><path d="M 119.79798401119884 107.00284435728193 l 29.799625290969995 10.540575126232184 a52.60888152836103,52.60888152836103 0 0,0 -0.3093295487810883,0.8511420664906721 l -29.61377148118368 -11.051964989728987" fill="#98ff23" stroke="none" /><path d="M 119.54520255179757 107.68017299344265 l 8.533671035479937 3.353256107115097 a30.168853137753594,30.168853137753594 0 0,0 -0.1940825328458654,0.4816969299307666 l -8.47468588837668 -3.499652404888677" fill="#ff3505" stroke="none" /><path d="M 119.41010516605496 108.01547362559984 l 6.924540954360354 2.85951440830561 a28.491734784408827,28.491734784408827 0 0,0 -0.19109680421490213,0.4516963960806275 l -6.874293168953142 -2.9782853300524015" fill="#ff1b02" stroke="none" /><path d="M 118.97047184881838 109.00673069616215 l 13.693747640398838 6.501467027345478 a36.15875317915656,36.15875317915656 0 0,0 -0.2717876873429624,0.5599631367803534 l -13.579806696441162 -6.736219120091107" fill="#ff8e0d" stroke="none" /><path d="M 118.64920377521936 109.65438752849418 l 23.282439449048624 12.052937796116291 a47.217270952859764,47.217270952859764 0 0,0 -0.379868547426251,0.7185681345306474 l -23.07151839339748 -12.451920945733074" fill="#daff1c" stroke="none" /><line stroke="#e1ed5e" stroke-width="0.3" x1="174.80103733775053" x2="179.2010983576182" y1="140.37084112569926" y2="142.7455964860345" /><path d="M 175.68104954172406 140.8457921977663 a86.0,86.0 0 0,1 -30.038265399797805,32.042727171017184" fill="none" id="id77" stroke="none" /><text fill="#e1ed5e" style="font-size:6.75px; font-family:Arial;" text-anchor="middle"><textPath startOffset="22.206326154141568" xlink:href="#id77">May</textPath></text><path d="M 118.30583269289576 110.29060199501025 l 18.95499842598576 10.655529736899897 a42.744706926125275,42.744706926125275 0 0,0 -0.36607381979596126,0.6382805612683576 l -18.768772610037416 -10.980230144026569" fill="#ffea16" stroke="none" /><path d="M 117.94076556474637 110.91462005526583 l 7.6713087881888935 4.6669926345970385 a29.97940971195363,29.97940971195363 0 0,0 -0.2720065539051837,0.43856117366741443 l -7.589837594615747 -4.798350139629726" fill="#ff3204" stroke="none" /><path d="M 117.75023020441432 111.22182372390056 l 6.9429048536232525 4.389354588753313 a29.214034423611523,29.214034423611523 0 0,0 -0.2723793267275511,0.4227387638326985 l -6.866320663518651 -4.508214952507465" fill="#ff2703" stroke="none" /><path d="M 117.55443506779139 111.5257021239791 l 13.204481982961825 8.669656724886835 a36.79624297628202,36.79624297628202 0 0,0 -0.35218717003739297,0.5264720338231714 l -13.05329170751371 -8.895665672915815" fill="#ff970e" stroke="none" /><path d="M 117.35343817320211 111.8261652097733 l 28.474008281370004 19.40470371110319 a55.457389247057435,55.457389247057435 0 0,0 -0.5443779005021296,0.7842169672956824 l -28.13576947370574 -19.89196194058589" fill="#76ff27" stroke="none" /><path d="M 116.93607887273984 112.41649034213515 l 17.195644541250186 12.606787909855854 a42.32185012125156,42.32185012125156 0 0,0 -0.43579158387331435,0.5838140426411291 l -16.97609169068178 -12.900914832006299" fill="#ffe415" stroke="none" /><path d="M 116.71984013943494 112.70617746262583 l 17.888676329036926 13.594429977360948 a43.468049920151415,43.468049920151415 0 0,0 -0.45784934815057987,0.5918320011978552 l -17.65202016366828 -13.900339972672056" fill="#fff316" stroke="none" /><path d="M 116.498646956653 112.99209946851258 l 19.706685754262235 15.518316270829184 a46.08329331046312,46.08329331046312 0 0,0 -0.49612415100086116,0.6189911609491076 l -19.43664369120652 -15.855235265356542" fill="#e8ff1a" stroke="none" /><path d="M 116.27256486870786 113.27417163493432 l 15.039788386396639 12.268547337490112 a40.409082628497075,40.409082628497075 0 0,0 -0.444315181883443,0.5352062592131406 l -14.826377204619652 -12.525614853817023" fill="#ffca12" stroke="none" /><path d="M 115.80600337817218 113.82643327865902 l 4.327107278401695 3.7851731802767405 a26.749034127876026,26.749034127876026 0 0,0 -0.30613779205188485,0.34394905471474385 l -4.261310636701472 -3.859096404732351" fill="#ff0000" stroke="none" /><path d="M 115.32070863581623 114.36230785411682 l 15.996244323627689 14.995584796157809 a42.92595256402673,42.92595256402673 0 0,0 -0.5099878066924767,0.5347201764126797 l -15.735749965556248 -15.268712089152997" fill="#ffec16" stroke="none" /><path d="M 114.81725581225074 114.88116024355365 l 4.532097866964925 4.5516440731226195 a27.42319039451115,27.42319039451115 0 0,0 -0.3373705973537913,0.3301881366088979 l -4.45307731723534 -4.628982312654089" fill="#ff0b01" stroke="none" /><path d="M 114.55890576462653 115.13401014063108 l 17.720135301173833 18.420114236394255 a46.55980836339978,46.55980836339978 0 0,0 -0.5823615816522048,0.5506592246293367 l -17.40043788513082 -18.722408097769513" fill="#e2ff1b" stroke="none" /><path d="M 114.29624159901734 115.38237550388516 l 18.27388945679468 19.662218744276473 a47.84283669486012,47.84283669486012 0 0,0 -0.6080606985067343,0.555449031105893 l -17.932729208821083 -19.973860541968946" fill="#d2ff1c" stroke="none" /><path d="M 114.0293411484842 115.62618273729858 l 14.600538715939727 16.26239490675778 a42.85500443603241,42.85500443603241 0 0,0 -0.5531512699337472,0.4880916819211837 l -14.318445093099392 -16.511309730451252" fill="#ffeb16" stroke="none" /><path d="M 113.48314897796784 116.09983520530334 l 17.70521601050805 21.14128238954164 a48.5758679836754,48.5758679836754 0 0,0 -0.6456655136244461,0.53133876102855 l -17.33868036833891 -21.442916269427368" fill="#c9ff1d" stroke="none" /><path d="M 113.20401910651253 116.32954008644616 l 15.039133315758333 18.599043849001767 a44.91861122611935,44.91861122611935 0 0,0 -0.6054226830997791,0.4809843949877556 l -14.716753139941204 -18.85516215799465" fill="#f8ff18" stroke="none" /><path d="M 112.92097659922987 116.55440617244103 l 12.994740878011312 16.648913257303164 a42.11988643757024,42.11988643757024 0 0,0 -0.5753802560978772,0.44117704490306286 l -12.706231893419941 -16.870129644033597" fill="#ffe115" stroke="none" /><path d="M 112.63410532772338 116.77436683061366 l 14.580028060177671 19.35797848268625 a45.234449636245344,45.234449636245344 0 0,0 -0.6259909961494002,0.4630931736202249 l -14.244652093609707 -19.606081605046246" fill="#f3ff19" stroke="none" /><path d="M 112.04921762599082 117.19931262002967 l 17.341551575870035 24.753704026922698 a51.22375347489206,51.22375347489206 0 0,0 -0.726506776965298,0.49969798583920966 l -16.912887914281853 -25.048542802127002" fill="#a8ff21" stroke="none" /><path d="M 111.45004920935366 117.60387380957326 l 12.59531148042209 19.36465685339494 a44.1004719938487,44.1004719938487 0 0,0 -0.639915064516447,0.4084240707077755 l -12.260114613858713 -19.578595352926527" fill="#fffc17" stroke="none" /><path d="M 111.1453310114006 117.79835938074945 l 11.330701986760264 18.094384616324465 a42.34927544803927,42.34927544803927 0 0,0 -0.6211646526567662,0.38157006363003976 l -11.017558134171189 -18.286743146782882" fill="#ffe415" stroke="none" /><line stroke="#e1ed5e" stroke-width="0.3" x1="143.8653032363475" x2="146.44561519142675" y1="172.8068346515853" y2="177.08958963109032" /><path d="M 144.38136562736335 173.6633856474863 a86.0,86.0 0 0,1 -40.68145358897372,12.25698825130547" fill="none" id="id78" stroke="none" /><text fill="#e1ed5e" style="font-size:6.75px; font-family:Arial;" text-anchor="middle"><textPath startOffset="21.466115282336833" xlink:href="#id78">June</textPath></text><path d="M 110.8373102113329 117.98757091392108 l 12.786936357093937 21.22352502694797 a45.777888448571595,45.777888448571595 0 0,0 -0.6784547467463892,0.4008430231095627 l -12.419713739319166 -21.440486622351283" fill="#ecff1a" stroke="none" /><path d="M 110.5260780823613 118.17145234162733 l 11.252139019230619 19.42487090913225 a43.44852427988407,43.44852427988407 0 0,0 -0.650385580135037,0.3693059064216441 l -10.916104672174383 -19.61567998134852" fill="#fff316" stroke="none" /><path d="M 109.2508944713604 118.85261126421891 l 7.934966086453448 16.17085044973695 a39.01277577334832,39.01277577334832 0 0,0 -0.60541759098484,0.2906372348391387 l -7.655435827468375 -16.30504196107565" fill="#ffb710" stroke="none" /><path d="M 108.92500713936063 119.00905698771935 l 9.606954334185945 20.46151219438022 a43.604580351333766,43.604580351333766 0 0,0 -0.6821666750735373,0.3131492623637096 l -9.253319663344987 -20.623848527078003" fill="#fff517" stroke="none" /><path d="M 108.59647513512805 119.15986991738527 l 6.13174210809602 13.666459718820967 a35.97899804814574,35.97899804814574 0 0,0 -0.5672334476319089,0.2486584739874086 l -5.895587985806357 -13.76998274610283" fill="#ff8c0c" stroke="none" /><path d="M 107.93186726928326 119.44442032107085 l 2.9413261064716862 7.210456147829898 a28.787302300822144,28.787302300822144 0 0,0 -0.4604308628789357,0.1832149425495863 l -2.8167741675508844 -7.260017934785553" fill="#ff2003" stroke="none" /><path d="M 107.59598834532513 119.57807347666477 l 8.200486505783404 21.136120812169768 a43.67120600934524,43.67120600934524 0 0,0 -0.7031683450986889,0.26587810039279075 l -7.83544793992444 -21.27414716266919" fill="#fff617" stroke="none" /><path d="M 106.91757812671514 119.82793768551818 l 8.060314407644059 23.103376481320957 a45.46905542083161,45.46905542083161 0 0,0 -0.741211137395491,0.25145906119709954 l -7.66143353731134 -23.23869852941618" fill="#f0ff19" stroke="none" /><path d="M 106.57524785965236 119.94407469862006 l 7.819174149594713 23.71715814364462 a45.97284674986692,45.97284674986692 0 0,0 -0.7536890400659293,0.24130742991368528 l -7.409763764437844 -23.848238420218014" fill="#eaff1a" stroke="none" /><path d="M 106.2309692047433 120.05430185196036 l 7.157856739488051 23.037478592818005 a45.123854024960075,45.123854024960075 0 0,0 -0.7437378632259011,0.22408211721524193 l -6.760243901821904 -23.157276079138974" fill="#f5ff19" stroke="none" /><path d="M 105.88484417918355 120.15858648285463 l 6.285084589945932 21.529613597357784 a43.428253386171406,43.428253386171406 0 0,0 -0.7193969417478403,0.20330876159976466 l -5.913556480093487 -21.63461115229607" fill="#fff316" stroke="none" /><path d="M 104.48393922423573 120.51570834832081 l 5.133793483414133 23.48903599249527 a45.043515703554746,45.043515703554746 0 0,0 -0.7588943077694079,0.1590336807842242 l -4.728707714215348 -23.573925654006036" fill="#f6ff19" stroke="none" /><path d="M 104.13013068566511 120.58985236759428 l 4.48715846112576 22.369735317395328 a43.815338025669845,43.815338025669845 0 0,0 -0.7407554275047941,0.14196754069407025 l -4.1014354190492615 -22.443660056437867" fill="#fff817" stroke="none" /><path d="M 102.70371172650421 120.8252237178851 l 2.430049468070889 18.71735189887862 a39.874437806825576,39.874437806825576 0 0,0 -0.6814210595291886,0.0825106005842611 l -2.10750098549032 -18.756408028188233" fill="#ffc312" stroke="none" /><path d="M 101.98527174616119 120.90594882070398 l 1.8781866085478258 19.778286368079076 a40.86726444667889,40.86726444667889 0 0,0 -0.7008846432776416,0.06047527619076863 l -1.5374576475286426 -19.80768589654851" fill="#ffd013" stroke="none" /><line stroke="#e1ed5e" stroke-width="0.3" x1="102.19456741930631" x2="102.32365962044197" y1="184.97166512339345" y2="189.96999836594603" /><path d="M 102.22038585953345 185.97133177190398 a86.0,86.0 0 0,1 -42.740103519485714,-10.115201625700543" fill="none" id="id79" stroke="none" /><text fill="#e1ed5e" style="font-size:6.75px; font-family:Arial;" text-anchor="middle"><textPath startOffset="22.20632615414155" xlink:href="#id79">July</textPath></text><path d="M 100.54218724476979 120.99299961872073 l 0.423327434985991 16.390855312408167 a37.39632105045247,37.39632105045247 0 0,0 -0.6436446608261377,0.011080926543441923 l -0.14112308426718542 -16.39571371623077" fill="#ffa00e" stroke="none" /><path d="M 100.18074693466247 120.99922214144158 l 0.13353229030682964 15.513813456615864 a36.51438812326255,36.51438812326255 0 0,0 -0.6285584499385595,0.0 l 0.13353229030681896 -15.513813456615864" fill="#ff930d" stroke="none" /><path d="M 99.45781275523022 120.99299961872073 l -0.3877002781012909 15.011404028536756 a36.016409771100726,36.016409771100726 0 0,0 -0.6196188502878677,-0.021340926035724368 l 0.6460394800638015 -15.002506304074938" fill="#ff8c0c" stroke="none" /><path d="M 98.73552117531835 120.96189622390904 l -0.9304655502374392 15.424791560989663 a36.45283018867924,36.45283018867924 0 0,0 -0.6260118114780836,-0.043173439707580474 l 1.1958401224944528 -15.406489776765797" fill="#ff920d" stroke="none" /><path d="M 98.37488393609728 120.93702456842531 l -1.2126459007290753 15.623005384238656 a36.669997042645065,36.669997042645065 0 0,0 -0.6289003715861659,-0.054264170335209375 l 1.4813905900567828 -15.599816961624784" fill="#ff960d" stroke="none" /><path d="M 97.65516085044442 120.86867818915974 l -1.75537152389715 15.622514423459476 a36.720823327615776,36.720823327615776 0 0,0 -0.6275284045360062,-0.07598495059387757 l 2.0240273514845453 -15.58998394414025" fill="#ff960d" stroke="none" /><path d="M 97.2962882734958 120.8252237178851 l -2.0007498759471973 15.410690186266274 a36.54002484178151,36.54002484178151 0 0,0 -0.6230446749126141,-0.08634831474687706 l 2.2657231420466424 -15.373967306026794" fill="#ff940d" stroke="none" /><path d="M 96.93821686468263 120.77559828337769 l -2.160825332659925 14.662187714753134 a35.82055716567102,35.82055716567102 0 0,0 -0.6092294459589825,-0.09514911002242328 l 2.4128906422274246 -14.622820297383605" fill="#ff890c" stroke="none" /><path d="M 96.58105272829116 120.7198165907248 l -1.951147728503576 11.824523709544406 a32.98442065416691,32.98442065416691 0 0,0 -0.5594016829228621,-0.09725915302700469 l 2.154398382898488 -11.789185977996395" fill="#ff6008" stroke="none" /><path d="M 95.86986931433489 120.58985236759428 l -3.092358095682106 15.41626682148828 a36.72335718932986,36.72335718932986 0 0,0 -0.6187160637411152,-0.12965796682056122 l 3.357265620852608 -15.360752873941177" fill="#ff960d" stroke="none" /><path d="M 95.51606077576429 120.51570834832081 l -3.345171953813799 15.305419798843088 a36.66671792748566,36.66671792748566 0 0,0 -0.6154418693968662,-0.1400725657680234 l 3.608133972603528 -15.24557049949738" fill="#ff960d" stroke="none" /><path d="M 95.16358092515715 120.4354850818985 l -2.7446671098229265 11.597134762228265 a32.917496894777315,32.917496894777315 0 0,0 -0.5502656742565306,-0.1352419148349149 l 2.9438860688226676 -11.54817158907932" fill="#ff5f08" stroke="none" /><path d="M 94.46302465271185 120.25689768951611 l -5.022439787600959 18.37448111070541 a40.04852901165198,40.04852901165198 0 0,0 -0.6634111907815169,-0.1874866291501305 l 5.33798214648709 -18.28530568821676" fill="#ffc512" stroke="none" /><path d="M 94.11515582081647 120.15858648285463 l -5.21610144395069 17.867802249236668 a39.613599100964095,39.613599100964095 0 0,0 -0.6529170476826215,-0.19671855050656198 l 5.5228934660735565 -17.775368329624378" fill="#ffbf11" stroke="none" /><path d="M 93.76903079525671 120.05430185196036 l -3.741809966108147 12.042971818233836 a33.61088070030165,33.61088070030165 0 0,0 -0.5510242284670821,-0.17642055718354566 l 3.94855553966617 -11.976778414390584" fill="#ff6909" stroke="none" /><path d="M 93.42475214034765 119.94407469862007 l -4.8712447838834985 14.775484045429208 a36.55776187378009,36.55776187378009 0 0,0 -0.5959442088318305,-0.202176631890976 l 5.1248587256525555 -14.68944442664011" fill="#ff940d" stroke="none" /><path d="M 92.7421414339146 119.70592522655815 l -12.886783566161158 34.98910746928188 a58.28681847755368,58.28681847755368 0 0,0 -0.9385004316381279,-0.354860558955822 l 13.487154218559569 -34.76209866021943" fill="#57ff2a" stroke="none" /><path d="M 92.06813273071674 119.44442032107085 l -9.066339627234992 22.22550031418616 a45.00357011888566,45.00357011888566 0 0,0 -0.7147607171026453,-0.2987700377177174 l 9.4475718038351 -22.06614523344847" fill="#f6ff19" stroke="none" /><path d="M 91.7346041902142 119.30500536409082 l -5.868132811696364 13.705857289117713 a35.909242325663925,35.909242325663925 0 0,0 -0.5661337010824963,-0.24817637741871418 l 6.103187187436603 -13.602816358404548" fill="#ff8b0c" stroke="none" /><path d="M 91.40352486487194 119.15986991738527 l -6.366588026083421 14.189885561220084 a36.552694150351925,36.552694150351925 0 0,0 -0.571844279491221,-0.2625056615236722 l 6.609900301342061 -14.078192829362338" fill="#ff940d" stroke="none" /><path d="M 90.42595943632237 118.69057910512821 l -13.711937837404797 26.76864142469957 a51.076193292719,51.076193292719 0 0,0 -0.7790556845701467,-0.4075651137215658 l 14.17068442450144 -26.528646892033287" fill="#aaff21" stroke="none" /><line stroke="#e1ed5e" stroke-width="0.3" x1="58.666819895761336" x2="56.23545636021788" y1="174.27360380694188" y2="178.64263932499728" /><path d="M 58.180547188652646 175.14741091055294 a86.0,86.0 0 0,1 -31.652253787137756,-30.449443065178592" fill="none" id="id80" stroke="none" /><text fill="#e1ed5e" style="font-size:6.75px; font-family:Arial;" text-anchor="middle"><textPath startOffset="22.20632615414155" xlink:href="#id80">August</textPath></text><path d="M 89.7882731507175 118.34994917583269 l -7.662292262321624 13.768746036705542 a36.75719169574732,36.75719169574732 0 0,0 -0.550222311146273,-0.31243058818908087 l 7.898163340389104 -13.634812282721828" fill="#ff970d" stroke="none" /><path d="M 89.4739219176387 118.17145234162733 l -9.054680915700771 15.631339748848697 a39.064496362453426,39.064496362453426 0 0,0 -0.5789583985757335,-0.34205882684540784 l 9.322407185304886 -15.47316234970954" fill="#ffb711" stroke="none" /><path d="M 89.1626897886671 117.98757091392108 l -8.136386108956328 13.504626080080989 a36.76628378778021,36.76628378778021 0 0,0 -0.5392752451346594,-0.33126690116708757 l 8.367640554023296 -13.362570712085523" fill="#ff970d" stroke="none" /><path d="M 88.8546689885994 117.79835938074946 l -8.45837476827829 13.50746727476171 a36.93724492813627,36.93724492813627 0 0,0 -0.5359738434215763,-0.34208386559636306 l 8.689630413746789 -13.359868980341544" fill="#ff990e" stroke="none" /><path d="M 88.24862548938628 117.40417183066458 l -6.730374377843158 9.967905631029636 a33.02734725261726,33.02734725261726 0 0,0 -0.46842704754100717,-0.32218839464456517 l 6.900958310007056 -9.85057644701997" fill="#ff6008" stroke="none" /><path d="M 87.65650970185807 116.9893568818739 l -9.277702269540196 12.769661667309505 a36.78416987046785,36.78416987046785 0 0,0 -0.5090491721445033,-0.376582407905572 l 9.496136412103263 -12.608069310664167" fill="#ff970d" stroke="none" /><path d="M 87.36589467227662 116.77436683061367 l -11.308237911808483 15.014005821551079 a39.796186195067136,39.796186195067136 0 0,0 -0.5436372635661362,-0.4168378718203632 l 11.565003903868107 -14.81712860790335" fill="#ffc212" stroke="none" /><path d="M 87.07902340077011 116.55440617244103 l -8.125564809688056 10.410505677108564 a34.20618915242208,34.20618915242208 0 0,0 -0.4610383591564692,-0.36627675578596713 l 8.303560661561884 -10.269095007317466" fill="#ff720a" stroke="none" /><path d="M 86.79598089348748 116.32954008644616 l -12.399579061532801 15.334681183586813 a40.720598568640206,40.720598568640206 0 0,0 -0.5412540687641842,-0.4454152502035217 l 12.661703258841674 -15.11897081452611" fill="#ffce13" stroke="none" /><path d="M 86.24171649860922 115.8653595955263 l -19.538504023840584 22.530818780230323 a50.82265807062164,50.82265807062164 0 0,0 -0.6559938150312249,-0.5788382706720244 l 19.923440191778397 -22.19115736778601" fill="#adff20" stroke="none" /><path d="M 85.70375840098266 115.38237550388516 l -11.423463979776699 12.291343236960254 a37.78012657479151,37.78012657479151 0 0,0 -0.47254692492271116,-0.44682261240632415 l 11.633346739090227 -12.092885987807998" fill="#ffa50f" stroke="none" /><path d="M 85.44109423537348 115.13401014063109 l -11.177540268437111 11.619074297523563 a37.12266398533151,37.12266398533151 0 0,0 -0.45669723850227545,-0.4469743699014811 l 11.375887459315182 -11.42494982469951" fill="#ff9c0e" stroke="none" /><path d="M 85.18274418774928 114.88116024355367 l -11.034933700446198 11.082525587333214 a36.639441651387,36.639441651387 0 0,0 -0.44309189048097636,-0.4488497457171467 l 11.224066215982708 -10.890935347635402" fill="#ff950d" stroke="none" /><path d="M 84.9287848128048 114.62390073753433 l -5.547797479766992 5.383138562375889 a28.73021588691075,28.73021588691075 0 0,0 -0.34133336386916313,-0.3578866673840117 l 5.639637395015113 -5.286844778409376" fill="#ff1f03" stroke="none" /><path d="M 84.43433777217949 114.09645910891817 l -26.39789744167413 23.906267295386282 a56.61402259419176,56.61402259419176 0 0,0 -0.6479371103010959,-0.7279642121574336 l 26.805493401623565 -23.448328913487984" fill="#69ff28" stroke="none" /><path d="M 83.95833913139862 113.55231037782056 l -12.823954375996522 10.833928693423847 a37.787728159933756,37.787728159933756 0 0,0 -0.4154922660506839,-0.500487200330043 l 13.00854264194074 -10.611580235980043" fill="#ffa50f" stroke="none" /><path d="M 83.72743513129214 113.27417163493432 l -13.186985507420037 10.757143104680392 a38.018011474537175,38.018011474537175 0 0,0 -0.40929482922312477,-0.5106582314128231 l 13.370198248698022 -10.528557039689309" fill="#ffa90f" stroke="none" /><path d="M 83.50135304334701 112.99209946851258 l -12.313707141987734 9.696607754269632 a36.67327615780446,36.67327615780446 0 0,0 -0.3862799369707378,-0.4993188895941941 l 12.47879389617654 -9.483210870562186" fill="#ff960d" stroke="none" /><path d="M 83.28015986056508 112.70617746262583 l -14.706971941658505 11.17650610712642 a39.471851895664514,39.471851895664514 0 0,0 -0.40644491691036666,-0.5444993864804817 l 14.897178125263958 -10.92169384113663" fill="#ffbd11" stroke="none" /><path d="M 82.85270091963577 112.12312394758628 l -18.796084859566133 13.288813906722268 a44.01923936830899,44.01923936830899 0 0,0 -0.4320993367045761,-0.622471322014324 l 19.02204510343284 -12.963301322520932" fill="#fffb17" stroke="none" /><path d="M 82.05923443525364 110.91462005526583 l -13.62521930225416 8.289172015379423 a36.94857278050512,36.94857278050512 0 0,0 -0.32588487117168113,-0.5462017889465066 l 13.765885049124075 -8.053408132546805" fill="#ff9a0e" stroke="none" /><line stroke="#e1ed5e" stroke-width="0.3" x1="26.63291911575756" x2="22.317208475507996" y1="142.92168965132927" y2="145.44649492493687" /><path d="M 25.769776987707644 143.4266507060508 a86.0,86.0 0 0,1 -11.730757126820373,-40.83630448921669" fill="none" id="id81" stroke="none" /><text fill="#e1ed5e" style="font-size:6.75px; font-family:Arial;" text-anchor="middle"><textPath startOffset="21.46611528233685" xlink:href="#id81">September</textPath></text><path d="M 81.87401531095188 110.60418214915194 l -13.55425262600832 7.929597547804239 a36.70338439699533,36.70338439699533 0 0,0 -0.3143347818215045,-0.5480691874634099 l 13.688739403982202 -7.695108514482522" fill="#ff960d" stroke="none" /><path d="M 81.69416730710424 110.29060199501025 l -14.750904298506997 8.292203241938903 a37.92187378009109,37.92187378009109 0 0,0 -0.3149747326214228,-0.5717706303034975 l 14.891455440579938 -8.037062093237584" fill="#ffa70f" stroke="none" /><path d="M 81.51974371655577 109.97397251340807 l -26.37612531459054 14.23544916601679 a50.97245401313066,50.97245401313066 0 0,0 -0.4100794407209888,-0.7757157593718804 l 26.617257263536416 -13.779318391558784" fill="#abff21" stroke="none" /><path d="M 81.35079622478065 109.6543875284942 l -13.848216820255923 7.168995168523745 a36.59383214053351,36.59383214053351 0 0,0 -0.28477203457257394,-0.5618822405416166 l 13.969567524614764 -6.929558716279444" fill="#ff940d" stroke="none" /><path d="M 81.02952815118164 109.00673069616217 l -14.236639525377381 6.759219235308527 a36.75972555746141,36.75972555746141 0 0,0 -0.26646491942130374,-0.5739417306013918 l 14.35087906163851 -6.513157437428308" fill="#ff970d" stroke="none" /><path d="M 80.87730276802145 108.67885076344099 l -14.154618907637628 6.424084616438642 a36.544198261075294,36.544198261075294 0 0,0 -0.25504181221467825,-0.5750519574720506 l 14.263101804583586 -6.179484322473895" fill="#ff940d" stroke="none" /><line stroke="#e1ed5e" stroke-width="0.3" x1="15.007084014347285" x2="10.007500721073583" y1="101.09737516637583" y2="101.16192664675087" /><path d="M 14.007167355692545 101.11028546245083 a86.0,86.0 0 0,1 10.666146001902534,-42.60595125391555" fill="none" id="id82" stroke="none" /><text fill="#e1ed5e" style="font-size:6.75px; font-family:Arial;" text-anchor="middle"><textPath startOffset="22.20632615414155" xlink:href="#id82">October</textPath></text><line stroke="#e1ed5e" stroke-width="0.3" x1="26.266209847984243" x2="21.928928074336255" y1="57.711370442889674" y2="55.22380399835377" /><path d="M 25.398753493254645 57.213857153982495 a86.0,86.0 0 0,1 29.58750427330803,-30.492523968695096" fill="none" id="id83" stroke="none" /><text fill="#e1ed5e" style="font-size:6.75px; font-family:Arial;" text-anchor="middle"><textPath startOffset="21.46611528233685" xlink:href="#id83">November</textPath></text><line stroke="#e1ed5e" stroke-width="0.3" x1="56.762969772571076" x2="54.21961505331055" y1="26.818313649435495" y2="22.513508569990535" /><path d="M 56.25429882871897 25.957352633546506 a86.0,86.0 0 0,1 42.265352541879196,-11.944610805530505" fill="none" id="id84" stroke="none" /><text fill="#e1ed5e" style="font-size:6.75px; font-family:Arial;" text-anchor="middle"><textPath startOffset="22.20632615414155" xlink:href="#id84">December</textPath></text></svg>