<?xml version="1.0" encoding="utf-8" ?>
<svg baseProfile="full" height="200mm" version="1.1" viewBox="0,0,200,200" width="200mm" xmlns="http://www.w3.org/2000/svg" xmlns:ev="http://www.w3.org/2001/xml-events" xmlns:xlink="http://www.w3.org/1999/xlink"><defs /><rect fill="#1a1a1a" height="200" width="200" x="0" y="0" /><text alignment-baseline="middle" fill="#e1ed5e" style="dominant-baseline: central; font-size:9.0px; font-family:Arial;" text-anchor="middle" x="100.0" y="100.0">2022</text><line stroke="#e1ed5e" stroke-width="0.3" x1="100.0" x2="100.0" y1="15.0" y2="10.0" /><path d="M 100.0 14.0 a86.0,86.0 0 0,1 42.46469731375804,11.215312516191453" fill="none" id="id61" stroke="none" /><text fill="#e1ed5e" style="font-size:6.75px; font-family:Arial;" text-anchor="middle"><textPath startOffset="22.20632615414155" xlink:href="#id61">January</textPath></text><path d="M 100.0 79.0 l 0.0 -30.647238392730372 a51.64723839273037,51.64723839273037 0 0,0 0.8890223089193668,0.007652095687228802 l -0.5275418296468385 30.642697673651703" fill="#92ff23" stroke="none" /><path d="M 100.36148047927253 79.00311137660856 l 0.1604053587775711 -9.317276162812053 a30.31865682237683,30.31865682237683 0 0,0 0.5217311920130663,0.01347477743274804 l -0.3207631859855052 9.313134593236946" fill="#ff5c08" stroke="none" /><path d="M 100.72285384407766 79.0124445844662 l 1.058981394745606 -30.74678358334201 a51.76501490841971,51.76501490841971 0 0,0 0.8902576045561288,0.03833636515880373 l -1.5880798316910663 30.723999491659008" fill="#90ff24" stroke="none" /><path d="M 101.08401301168833 79.027996857942 l 0.7948248748629422 -15.377186060755605 a36.39771404231152,36.39771404231152 0 0,0 0.625413169616637,0.037726630320558015 l -1.0594000933191912 15.361226161054743" fill="#ffb010" stroke="none" /><path d="M 101.44485096284872 79.0497635885617 l 1.0701703156036657 -15.517393619751388 a36.55425244924038,36.55425244924038 0 0,0 0.6273576763443762,0.048695029912579915 l -1.3371181813103832 15.496673327650344" fill="#ffb210" stroke="none" /><path d="M 101.80526077348638 79.07773832637324 l 1.0354553381588685 -12.000519733487154 a33.04510861848644,33.04510861848644 0 0,0 0.5662906792555659,0.05377612349874122 l -1.2418711445046786 11.980918065473235" fill="#ff830c" stroke="none" /><path d="M 102.16513564639614 79.11191278185805 l 1.032797063415085 -9.963881558720667 a31.017265369870792,31.017265369870792 0 0,0 0.5305921184253488,0.059618206790675546 l -1.204155885350159 9.94462739845939" fill="#ff6609" stroke="none" /><path d="M 102.52436894288641 79.15227682838746 l 1.902398557171401 -15.711125980117547 a36.82588385631123,36.82588385631123 0 0,0 0.628644617722298,0.08161611360168917 l -2.1725579034015454 15.67605154335172" fill="#ffb610" stroke="none" /><path d="M 102.88285421437855 79.19881850522331 l 2.6512598775199216 -19.130116822088244 a40.31296322589805,40.31296322589805 0 0,0 0.6865317209723822,0.10117692961051647 l -2.9801605789209598 19.081645408316756" fill="#ffe415" stroke="none" /><path d="M 103.2404852339499 79.25152402106235 l 0.5887441296836998 -3.769664896017125 a24.815362771546216,24.815362771546216 0 0,0 0.42147214950853296,0.06954651598163847 l -0.6535454853311079 3.758972117095862" fill="#ff0c01" stroke="none" /><path d="M 103.59715602781102 79.31037775812273 l 2.0637041950835218 -11.8697270524676 a33.04779213403379,33.04779213403379 0 0,0 0.5596169580780758,0.10226642210719217 l -2.2677162742644983 11.832445149009668" fill="#ff830c" stroke="none" /><path d="M 103.95276090670814 79.375362276772 l 2.8710412742234985 -14.980462407631011 a36.25310237114866,36.25310237114866 0 0,0 0.6118722495886709,0.12273581707222132 l -3.1284799332792947 14.92882263448158" fill="#ffae10" stroke="none" /><path d="M 104.307194497241 79.44645832069477 l 4.091192637745687 -19.522800387081656 a40.94686923186143,40.94686923186143 0 0,0 0.6886040377317098,0.15050217142539105 l -4.426639399630925 19.44948471756039" fill="#ffec16" stroke="none" /><path d="M 104.66035177308747 79.52364482259891 l 3.413643158054945 -14.998646702356169 a36.382209285815705,36.382209285815705 0 0,0 0.6094475925105757,0.14423655468526692 l -3.671314437528044 14.937664235530033" fill="#ffb010" stroke="none" /><path d="M 105.01212808612495 79.60689891045804 l 5.488006270306658 -22.329330920377785 a43.99385205168252,43.99385205168252 0 0,0 0.7338407298195458,0.18707234167644549 l -5.871555888811229 22.231555582532472" fill="#ecff1a" stroke="none" /><path d="M 105.36241919743992 79.69619591428918 l 7.699788314892834 -29.153818023340197 a51.153471532017605,51.153471532017605 0 0,0 0.8493963569880646,0.23217211049811004 l -8.200482561104609 29.016959372015794" fill="#97ff23" stroke="none" /><path d="M 105.71112130821622 79.79150937346287 l 5.264562383832478 -18.62836627781726 a40.35798665341474,40.35798665341474 0 0,0 0.6668864838915373,0.1946824518794083 l -5.584439085447443 18.53498549701915" fill="#ffe415" stroke="none" /><path d="M 106.0581310904928 79.89281104454417 l 4.5769296510737085 -15.191019797242717 a36.86554025273321,36.86554025273321 0 0,0 0.6060249399126338,0.18829489880910347 l -4.837739963697061 15.109984763551092" fill="#ffb610" stroke="none" /><path d="M 106.40334571778207 80.00007090966166 l 9.257530470278626 -28.91456452883034 a51.360400397557854,51.360400397557854 0 0,0 0.8396622720470944,0.27682344959781036 l -9.753875564568139 28.750927354973296" fill="#95ff23" stroke="none" /><path d="M 106.74666289553966 80.11325718540242 l 5.126908204347264 -15.112286840551997 a36.95827062331393,36.95827062331393 0 0,0 0.600691564877938,0.20956949209785194 l -5.386281773288475 15.021796495281938" fill="#ffb811" stroke="none" /><path d="M 107.08798089147638 80.2323363322302 l 5.202414939712905 -14.509010445004845 a36.413516967201474,36.413516967201474 0 0,0 0.5881956445740433,0.216637419883862 l -5.451392910059525 14.417309757314658" fill="#ffb010" stroke="none" /><path d="M 107.4271985657038 80.35727306442388 l 7.920939069532073 -20.9485234358227 a43.396024421411326,43.396024421411326 0 0,0 0.6964376572429143,0.2702069912020735 l -8.280359891774655 20.809073740730078" fill="#f3ff19" stroke="none" /><path d="M 107.76421540070413 80.48803036053334 l 11.695379978144283 -29.39123752734656 a52.63268493539685,52.63268493539685 0 0,0 0.8389051730833146,0.34221048375514107 l -12.199569020815986 29.18556615740784" fill="#87ff25" stroke="none" /><path d="M 108.09893153111575 80.62456947434976 l 11.999136851871862 -28.706063453926255 a52.11297742439302,52.11297742439302 0 0,0 0.8246661346682107,0.3530790012955745 l -12.491486744330388 28.49526492466789" fill="#8cff24" stroke="none" /><path d="M 108.43124777332544 80.76684994638697 l 13.015940762432594 -29.691636220775766 a53.41925315916512,53.41925315916512 0 0,0 0.838982138573457,0.37642682983557135 l -13.52510501947283 29.463189060423662" fill="#7eff26" stroke="none" /><path d="M 108.76106565485865 80.91482961587045 l 13.069449993294397 -28.470586772803813 a52.327062331392874,52.327062331392874 0 0,0 0.8153597587388479,0.38282233950862826 l -13.557587963332843 28.24139945065518" fill="#8aff24" stroke="none" /><path d="M 109.08828744355905 81.06846463323043 l 6.219728166683891 -12.956126716999758 a35.37171659804061,35.37171659804061 0 0,0 0.5466256367251523,0.2682268259719563 l -6.441825070419474 12.84714473089297" fill="#ffa20f" stroke="none" /><path d="M 109.41281617654863 81.2277094730956 l 14.450403570310474 -28.818917629426153 a53.23886128070424,53.23886128070424 0 0,0 0.8156688223706506,0.4178172515671885 l -14.94433288026988 28.565907852546463" fill="#80ff25" stroke="none" /><path d="M 109.73455568895987 81.39251694778311 l 11.607106597294784 -22.186841001832605 a46.03958540394718,46.03958540394718 0 0,0 0.699045231515782,0.3734057532062636 l -11.987296875338878 21.983756522124587" fill="#d3ff1c" stroke="none" /><path d="M 110.05341064243156 81.56283822128135 l 1.5053708453085777 -2.7607313377590055 a24.14448388470822,24.14448388470822 0 0,0 0.36317432576037034,0.20210611908514653 l -1.552669260140983 2.734409821113679" fill="#ff0200" stroke="none" /><path d="M 110.36928655335952 81.73862282372117 l 4.510926745823974 -7.944204675621288 a30.135581428368596,30.135581428368596 0 0,0 0.4488813495167079,0.260021050926382 l -4.64700482780601 7.865379467304856" fill="#ff5a08" stroke="none" /><line stroke="#e1ed5e" stroke-width="0.3" x1="143.23703022742887" x2="145.7803849466894" y1="26.81831364943548" y2="22.513508569990506" /><path d="M 143.74570117128098 25.957352633546492 a86.0,86.0 0 0,1 28.547481713284135,27.462654790039103" fill="none" id="id62" stroke="none" /><text fill="#e1ed5e" style="font-size:6.75px; font-family:Arial;" text-anchor="middle"><textPath startOffset="19.985693538727396" xlink:href="#id62">February</textPath></text><path d="M 110.68208982089419 81.91981866633111 l 1.5447548605112502 -2.6146052375893447 a24.03684509441999,24.03684509441999 0 0,0 0.35441519284204387,0.21353118810867225 l -1.5895321195709315 2.587627440022058" fill="#ff0000" stroke="none" /><path d="M 113.34407831869373 83.78471172551755 l 9.75199567146791 -11.850306726904533 a36.34702541530598,36.34702541530598 0 0,0 0.4796811498955933,0.4017191681461881 l -9.95453435832262 11.680686401364525" fill="#ffb010" stroke="none" /><path d="M 113.6212207817346 84.01681056812373 l 10.385238017003905 -12.18607562278705 a37.01104642907852,37.01104642907852 0 0,0 0.4813307761120894,0.41740530593217445 l -10.593462591762759 12.005505323435203" fill="#ffb811" stroke="none" /><path d="M 113.89432698308785 84.25364557470407 l 19.730417784460663 -22.360359862801687 a50.82071560414596,50.82071560414596 0 0,0 0.6509625761916324,0.5844406282597563 l -20.112391348248288 22.017420225772632" fill="#9bff22" stroke="none" /><path d="M 114.16331599549186 84.49514656593476 l 10.688346516546812 -11.700737754090122 a36.847650149084195,36.847650149084195 0 0,0 0.46461748857919677,0.4318113197912243 l -10.888171888920857 11.515021848224256" fill="#ffb610" stroke="none" /><path d="M 114.42810811169701 84.74124197986012 l 10.663648156272554 -11.277571915098129 a36.520857589095556,36.520857589095556 0 0,0 0.4530616837906654,0.4358449808463185 l -10.856193083675638 11.092343847489508" fill="#ffb210" stroke="none" /><path d="M 114.68862486808459 84.99185889309783 l 11.02324673296338 -11.263031353192028 a36.75969047280988,36.75969047280988 0 0,0 0.44840555695544,0.4464799609910566 l -11.215488090086142 11.071615541550853" fill="#ffb510" stroke="none" /><path d="M 114.94478906791727 85.2469230424477 l 10.788979130459369 -10.650577849023804 a36.16037200056794,36.16037200056794 0 0,0 0.4334694223967833,0.4467283428178317 l -10.970712816559262 10.46328531065586" fill="#ffad10" stroke="none" /><path d="M 115.19652480421416 85.50635884689758 l 11.51121110755112 -10.978783977254206 a36.90728382791424,36.90728382791424 0 0,0 0.43450888664626014,0.4635037850182362 l -11.698487316167842 10.779010775357914" fill="#ffb711" stroke="none" /><path d="M 115.4437574822437 85.77008943001954 l 11.354659235347764 -10.462206859786008 a36.439755785886696,36.439755785886696 0 0,0 0.42106373694495314,0.46494909501936493 l -11.533066612908753 10.265204977497094" fill="#ffb110" stroke="none" /><path d="M 115.68641384162765 86.03803664274999 l 15.844324780342893 -14.102514713494376 a42.211401391452505,42.211401391452505 0 0,0 0.47841223718795406,0.5469078890232129 l -16.084728881108695 13.827691268268214" fill="#fffc17" stroke="none" /><path d="M 115.9244219780498 86.31012108654704 l 15.192979338563925 -13.061073599168992 a41.03542524492404,41.03542524492404 0 0,0 0.4558632943182663,0.5395983537880763 l -15.415553246369308 12.797616295751808" fill="#ffed16" stroke="none" /><path d="M 116.15771136456269 86.58626213691792 l 12.58686403544984 -10.449307508987618 a37.359008945051826,37.359008945051826 0 0,0 0.4065042799273939,0.49832618158388475 l -12.764866807453643 10.231097157795633" fill="#ffbd11" stroke="none" /><path d="M 116.60985879189232 87.15038557335679 l 11.971220248974104 -9.26110006972648 a36.13532585545932,36.13532585545932 0 0,0 0.37636500821098196,0.49525223379528127 l -12.128861197409199 9.053663060050164" fill="#ffad10" stroke="none" /><path d="M 116.82858285166822 87.43820079747576 l 12.575202142559224 -9.386837004538526 a36.69230441573193,36.69230441573193 0 0,0 0.3734532041272987,0.5093897507344833 l -12.734917959200148 9.16898481013255" fill="#ffb410" stroke="none" /><path d="M 117.04232023915458 87.72973835380427 l 12.314606866549124 -8.866365976120877 a36.174385915093,36.174385915093 0 0,0 0.3594827536582893,0.50846286137649 l -12.465402240011297 8.653076614412594" fill="#ffad10" stroke="none" /><path d="M 117.45458315368197 88.32363383020206 l 12.907667959579978 -8.63467526936797 a36.529504472525915,36.529504472525915 0 0,0 0.3451226950503272,0.5256455420687666 l -13.054387289988231 8.411211663321529" fill="#ffb210" stroke="none" /><path d="M 117.65298651832404 88.62581576622439 l 13.18071279339921 -8.492605797267615 a36.67978134317762,36.67978134317762 0 0,0 0.33740578720163666,0.5336949271779284 l -13.324946176846801 8.264463222375479" fill="#ffb410" stroke="none" /><line stroke="#e1ed5e" stroke-width="0.3" x1="172.23445277983987" x2="176.4835382374775" y1="55.19839476539836" y2="52.563006222186495" /><path d="M 173.08426987136738 54.67131705675599 a86.0,86.0 0 0,1 12.851231095245387,41.99856678651699" fill="none" id="id63" stroke="none" /><text fill="#e1ed5e" style="font-size:6.75px; font-family:Arial;" text-anchor="middle"><textPath startOffset="22.20632615414155" xlink:href="#id63">March</textPath></text><path d="M 117.84615892207809 88.93136811851018 l 16.211042302396553 -10.054491862588014 a40.075919352548624,40.075919352548624 0 0,0 0.3585539102618699,0.5893683530676671 l -16.381712010944646 9.773955736313265" fill="#ffe115" stroke="none" /><path d="M 118.03404312379186 89.2402003453031 l 13.336946899699319 -7.957332455126264 a36.530398977708366,36.530398977708366 0 0,0 0.3175367105295099,0.5427731693319632 l -13.471943284699156 7.726579873440405" fill="#ffb210" stroke="none" /><path d="M 118.21658344932153 89.55222093294921 l 13.138028628543054 -7.535069398137797 a36.14546358086043,36.14546358086043 0 0,0 0.30489965120438467,0.5423824578752606 l -13.265785921039871 7.307803430327743" fill="#ffad10" stroke="none" /><path d="M 118.89224826269711 90.83032412892265 l 27.08541638616467 -13.146370174728998 a51.10725543092432,51.10725543092432 0 0,0 0.3773219614191058,0.7947362798459295 l -27.307696541425535 12.678191479242528" fill="#98ff23" stroke="none" /><path d="M 119.04729006885535 91.15688171328212 l 27.531082337206804 -12.781903188809887 a51.353542524492404,51.353542524492404 0 0,0 0.36533810804206657,0.8049740936693387 l -27.747022762212218 12.306107086298486" fill="#95ff23" stroke="none" /><path d="M 119.196687751892 91.48605970444005 l 27.49735407016716 -12.195376299549473 a51.0804202754508,51.0804202754508 0 0,0 0.3495586161296463,0.8068294809639461 l -27.703203396139486 11.720247673998923" fill="#98ff23" stroke="none" /><path d="M 119.34039704204932 91.81776055985345 l 27.754554443233957 -11.741972489777817 a51.136177765156894,51.136177765156894 0 0,0 0.33598493081542324,0.8136141600552046 l -27.952561060935576 11.26248375926931" fill="#97ff23" stroke="none" /><path d="M 119.47837535516314 92.15188598940014 l 13.950698396145016 -5.6209344744666785 a36.04050830611955,36.04050830611955 0 0,0 0.22689465064815026,0.5774221373169367 l -14.045386596674868 5.379963332253958" fill="#ffab0f" stroke="none" /><path d="M 119.7369772167798 92.82701384747503 l 29.16633699798393 -10.599887161472292 a52.0327701263666,52.0327701263666 0 0,0 0.29868524455547,0.8444234077459086 l -29.344475323349208 10.096266127299769" fill="#8dff24" stroke="none" /><path d="M 119.85752413597 93.16781622104841 l 29.86833276825383 -10.276504625969258 a52.58676700269771,52.58676700269771 0 0,0 0.2871305245867954,0.8584837218515287 l -30.040800586612395 9.760847801195414" fill="#87ff25" stroke="none" /><path d="M 119.97218684219823 93.5106431181261 l 17.76767483721102 -5.773067510871658 a39.68203890387619,39.68203890387619 0 0,0 0.20548591065205896,0.6514464908557942 l -17.86441623163128 5.466370853589445" fill="#ffdb14" stroke="none" /><path d="M 120.08093135843002 93.85539295169968 l 30.56817851483742 -9.353622190293533 a52.9672298736334,52.9672298736334 0 0,0 0.25927232749230417,0.8741373971258405 l -30.724656739441425 8.826055406421164" fill="#83ff25" stroke="none" /><path d="M 120.45610955862082 95.25157060432595 l 38.61769596640956 -8.964236439710666 a60.64446968621326,60.64446968621326 0 0,0 0.22728857912332212,1.0188901333981661 l -38.766278932534924 8.298168136762536" fill="#32ff2f" stroke="none" /><path d="M 120.53481517161879 95.60439243477599 l 29.337699449078897 -6.279920835268653 a51.00230015618345,51.00230015618345 0 0,0 0.17637252129984313,0.8600550512840565 l -29.441451266293736 5.773990127821185" fill="#99ff23" stroke="none" /><path d="M 120.6074358757038 95.95851677861258 l 18.50748461516246 -3.6296455800428666 a39.86004543518387,39.86004543518387 0 0,0 0.12625057462101777,0.6744356179266253 l -18.56722091369334 3.3105318846536784" fill="#ffde14" stroke="none" /><path d="M 120.67395015179393 96.31383870115 l 31.46473648616987 -5.610156407568217 a52.96096833735624,52.96096833735624 0 0,0 0.15229591857044536,0.898859132380414 l -31.556644266260538 5.067711486871966" fill="#83ff25" stroke="none" /><path d="M 120.73433829027371 96.67025291283417 l 30.3304832698245 -4.870801127393822 a51.719096975720575,51.719096975720575 0 0,0 0.13359315274162714,0.8802119602572626 l -30.40983231600543 4.347990054744477" fill="#91ff24" stroke="none" /><path d="M 120.78858239683441 97.02765380044208 l 17.84281990470879 -2.5511618310844213 a39.0242794263808,39.0242794263808 0 0,0 0.08935445184311229,0.6657944539340725 l -17.88409035560974 2.243649035085684" fill="#ffd313" stroke="none" /><path d="M 120.87857604477298 97.74499172005257 l 31.16489877908476 -3.365991274493729 a52.34614510861849,52.34614510861849 0 0,0 0.08904546489214278,0.8966756794698296 l -31.21822136965913 2.829040064319464" fill="#8aff24" stroke="none" /><path d="M 120.91429891909075 98.10471618934814 l 20.83857626930561 -1.8884217153555956 a41.923967059491694,41.923967059491694 0 0,0 0.05894413179838053,0.7192677079511809 l -20.867994884923487 1.5294400901966458" fill="#fff817" stroke="none" /><path d="M 120.94382443527127 98.46500227214037 l 18.528281543212362 -1.3579597249716053 a39.57797813431776,39.57797813431776 0 0,0 0.04394928853964075,0.6798760412927 l -18.54891142275642 1.0388246194258701" fill="#ffda14" stroke="none" /><path d="M 120.96714384426684 98.82574320788733 l 29.83598073571302 -1.670952576491889 a50.88273463012921,50.88273463012921 0 0,0 0.041448571082572674,0.8749138256947105 l -29.860322915029087 1.1571276441741787" fill="#9aff22" stroke="none" /><path d="M 120.98425023603335 99.18683210126433 l 29.89071328169209 -1.1583053117259468 a50.913147806332525,50.913147806332525 0 0,0 0.02639799569239299,0.8760209614757792 l -29.906222971840126 0.6436142028251686" fill="#9aff23" stroke="none" /><line stroke="#e1ed5e" stroke-width="0.3" x1="184.98032266829074" x2="189.97916517819016" y1="98.17113171792111" y2="98.06355123074" /><path d="M 185.9800911702706 98.14961562048488 a86.0,86.0 0 0,1 -9.607161424134198,41.387399972396054" fill="none" id="id64" stroke="none" /><text fill="#e1ed5e" style="font-size:6.75px; font-family:Arial;" text-anchor="middle"><textPath startOffset="21.466115282336823" xlink:href="#id64">April</textPath></text><path d="M 120.99513854157772 99.54816195383933 l 20.91494981138199 -0.450112298121235 a41.91979270197359,41.91979270197359 0 0,0 0.009316160674616682,0.7215469110183371 l -20.919598979174324 0.09002912904243514" fill="#fff817" stroke="none" /><path d="M 120.99824983174949 100.27111621757518 l 29.887399607890508 0.3858873382198558 a50.889890671588816,50.889890671588816 0 0,0 -0.01884849426716389,0.8758154648590395 l -29.876329050938338 -0.9002926188690102" fill="#9aff22" stroke="none" /><path d="M 120.9904718944345 100.63252640178507 l 29.891826772626693 0.9007596268612412 a50.90539542808463,50.90539542808463 0 0,0 -0.03393176011234748,0.8756279561130168 l -29.871892879663143 -1.4151648299882642" fill="#9aff23" stroke="none" /><path d="M 120.9764740272857 100.99374915477107 l 12.814621205423752 0.6070857749990034 a33.82899332670737,33.82899332670737 0 0,0 -0.032562257187341695,0.5814209761670909 l -12.80227259734888 -0.8275784675015176" fill="#ff8d0d" stroke="none" /><path d="M 120.95626037817324 101.35467743843564 l 29.916899044773928 1.9339208156682024 a50.979341189833875,50.979341189833875 0 0,0 -0.06414522053620425,0.875210570601515 l -29.879177265573386 -2.448604522766488" fill="#99ff23" stroke="none" /><path d="M 120.92983693683757 101.71520430193887 l 29.759119703135763 2.4387657816336854 a50.85888115859719,50.85888115859719 0 0,0 -0.07901388241407047,0.8719116083186395 l -29.712731224444617 -2.9506587785008955" fill="#9bff22" stroke="none" /><path d="M 120.89721153311464 102.0752229133903 l 21.649368728009517 2.1499167950521545 a42.75585687917081,42.75585687917081 0 0,0 -0.07903256959046806,0.7317434392067348 l -21.609153856917995 -2.5222565561436805" fill="#fbff18" stroke="none" /><path d="M 120.8583938346157 102.4346265915055 l 19.776233234421383 2.308314997506345 a40.9104926877751,40.9104926877751 0 0,0 -0.0876624012817969,0.6987555900219181 l -19.733569323892738 -2.6483883418156577" fill="#ffeb16" stroke="none" /><path d="M 120.81339534386255 102.79330883721812 l 29.615720968060902 3.974644873358661 a50.88124378815846,50.88124378815846 0 0,0 -0.12397081542270406,0.8670515943267226 l -29.542916101621596 -4.483841939665793" fill="#9aff22" stroke="none" /><path d="M 120.64145759157962 103.86396538481128 l 29.405944163724865 5.504628239174215 a50.916725827062336,50.916725827062336 0 0,0 -0.1686800013546886,0.8600956928474001 l -29.30683422939451 -6.00998765908956" fill="#9aff23" stroke="none" /><path d="M 120.5718875245553 104.21870165774334 l 29.259515675099767 6.000283986385392 a50.86842254720999,50.86842254720999 0 0,0 -0.18328609955265987,0.8562516380256042 l -29.151895536822664 -6.503049443827164" fill="#9bff22" stroke="none" /><path d="M 120.32669344350535 105.2749913415812 l 28.902405057594766 7.500478956571181 a50.85977566377964,50.85977566377964 0 0,0 -0.2272025424688015,0.8455051819468129 l -28.769014438784186 -7.996875071693542" fill="#9bff22" stroke="none" /><path d="M 120.23288151984713 105.62410040840565 l 28.78854923849099 8.00230512746199 a50.88005111458186,50.88005111458186 0 0,0 -0.24181922556413782,0.8418044478907728 l -28.646537376040754 -8.496667050857344" fill="#9aff22" stroke="none" /><path d="M 120.13307415673323 105.97154293290107 l 28.64825253215235 8.497175772390742 a50.88184012494675,50.88184012494675 0 0,0 -0.25628268813536087,0.8375466532434551 l -28.497743071510854 -8.989049398186253" fill="#9aff22" stroke="none" /><path d="M 120.02730092923936 106.31721596034902 l 28.48380955247731 8.984654345196661 a50.86722987363339,50.86722987363339 0 0,0 -0.27058398791536675,0.8327718850303579 l -28.324933313545696 -9.473625130204814" fill="#9bff22" stroke="none" /><path d="M 119.79798401119884 107.00284435728193 l 28.15794488714734 9.959888105479628 a50.867528042027544,50.867528042027544 0 0,0 -0.2990907436107954,0.8229692720538695 l -27.98232988253132 -10.44310517453963" fill="#9bff22" stroke="none" /><path d="M 119.67450827220406 107.3425965602758 l 27.99462121241882 10.44769234263067 a50.88064745137015,50.88064745137015 0 0,0 -0.3132932749261058,0.8179098801835155 l -27.81063365789921 -10.92802578964733" fill="#9aff22" stroke="none" /><path d="M 119.54520255179757 107.68017299344265 l 27.779552262388762 10.91581253712333 a50.847252591225335,50.847252591225335 0 0,0 -0.32711099510802716,0.8118626636806663 l -27.58753865302334 -11.39237456864681" fill="#9bff22" stroke="none" /><path d="M 119.41010516605496 108.01547362559984 l 27.625570663713606 11.408080025985054 a50.88839982961806,50.88839982961806 0 0,0 -0.3413133897473894,0.8067640310174056 l -27.425106292773908 -11.881918582668623" fill="#9aff22" stroke="none" /><path d="M 119.26925614724726 108.34839909993367 l 27.39938841576353 11.87077632062981 a50.86037200056794,50.86037200056794 0 0,0 -0.3549543309793894,0.8003283111518289 l -27.190993000052867 -12.340652968274327" fill="#9bff22" stroke="none" /><path d="M 118.64920377521936 109.65438752849418 l 55.94761132565807 28.96316258548255 a84.0,84.0 0 0,0 -0.6757899671004277,1.2783399396554627 l -55.44076885033275 -29.921917540224147" fill="#4dd2ff" stroke="none" /><line stroke="#e1ed5e" stroke-width="0.3" x1="174.80103733775053" x2="179.2010983576182" y1="140.37084112569926" y2="142.7455964860345" /><path d="M 175.68104954172406 140.8457921977663 a86.0,86.0 0 0,1 -30.038265399797805,32.042727171017184" fill="none" id="id65" stroke="none" /><text fill="#e1ed5e" style="font-size:6.75px; font-family:Arial;" text-anchor="middle"><textPath startOffset="22.206326154141568" xlink:href="#id65">May</textPath></text><path d="M 117.94076556474637 110.91462005526583 l 25.521840731187044 15.526717278959795 a50.8737895783047,50.8737895783047 0 0,0 -0.4615836108932629,0.7442197521812532 l -25.250792480625815 -15.963733362506321" fill="#9aff22" stroke="none" /><path d="M 117.75023020441432 111.22182372390056 l 25.274482976710082 15.978710665218895 a50.90181740735482,50.90181740735482 0 0,0 -0.47458706160140357,0.736569658801777 l -24.995691051731626 -16.411401923942126" fill="#9aff22" stroke="none" /><path d="M 116.93607887273984 112.41649034213515 l 24.073374869073668 17.64911635157591 a50.84993610677269,50.84993610677269 0 0,0 -0.5236059891601919,0.7014557889479187 l -23.766007613218385 -18.060885020033144" fill="#9bff22" stroke="none" /><path d="M 116.71984013943494 112.70617746262583 l 23.76458323382272 18.059802568453193 a50.848147096407786,50.848147096407786 0 0,0 -0.5355839759437272,0.6923144863537762 l -23.450192440660924 -18.466195048920223" fill="#9bff22" stroke="none" /><line stroke="#e1ed5e" stroke-width="0.3" x1="143.8653032363475" x2="146.44561519142675" y1="172.8068346515853" y2="177.08958963109032" /><path d="M 144.38136562736335 173.6633856474863 a86.0,86.0 0 0,1 -40.68145358897372,12.25698825130547" fill="none" id="id66" stroke="none" /><text fill="#e1ed5e" style="font-size:6.75px; font-family:Arial;" text-anchor="middle"><textPath startOffset="21.466115282336833" xlink:href="#id66">June</textPath></text><line stroke="#e1ed5e" stroke-width="0.3" x1="102.19456741930631" x2="102.32365962044197" y1="184.97166512339345" y2="189.96999836594603" /><path d="M 102.22038585953345 185.97133177190398 a86.0,86.0 0 0,1 -42.740103519485714,-10.115201625700543" fill="none" id="id67" stroke="none" /><text fill="#e1ed5e" style="font-size:6.75px; font-family:Arial;" text-anchor="middle"><textPath startOffset="22.20632615414155" xlink:href="#id67">July</textPath></text><line stroke="#e1ed5e" stroke-width="0.3" x1="58.666819895761336" x2="56.23545636021788" y1="174.27360380694188" y2="178.64263932499728" /><path d="M 58.180547188652646 175.14741091055294 a86.0,86.0 0 0,1 -31.652253787137756,-30.449443065178592" fill="none" id="id68" stroke="none" /><text fill="#e1ed5e" style="font-size:6.75px; font-family:Arial;" text-anchor="middle"><textPath startOffset="22.20632615414155" xlink:href="#id68">August</textPath></text><line stroke="#e1ed5e" stroke-width="0.3" x1="26.63291911575756" x2="22.317208475507996" y1="142.92168965132927" y2="145.44649492493687" /><path d="M 25.769776987707644 143.4266507060508 a86.0,86.0 0 0,1 -11.730757126820373,-40.83630448921669" fill="none" id="id69" stroke="none" /><text fill="#e1ed5e" style="font-size:6.75px; font-family:Arial;" text-anchor="middle"><textPath startOffset="21.46611528233685" xlink:href="#id69">September</textPath></text><line stroke="#e1ed5e" stroke-width="0.3" x1="15.007084014347285" x2="10.007500721073583" y1="101.09737516637583" y2="101.16192664675087" /><path d="M 14.007167355692545 101.11028546245083 a86.0,86.0 0 0,1 10.666146001902534,-42.60595125391555" fill="none" id="id70" stroke="none" /><text fill="#e1ed5e" style="font-size:6.75px; font-family:Arial;" text-anchor="middle"><textPath startOffset="22.20632615414155" xlink:href="#id70">October</textPath></text><line stroke="#e1ed5e" stroke-width="0.3" x1="26.266209847984243" x2="21.928928074336255" y1="57.711370442889674" y2="55.22380399835377" /><path d="M 25.398753493254645 57.213857153982495 a86.0,86.0 0 0,1 29.58750427330803,-30.492523968695096" fill="none" id="id71" stroke="none" /><text fill="#e1ed5e" style="font-size:6.75px; font-family:Arial;" text-anchor="middle"><textPath startOffset="21.46611528233685" xlink:href="#id71">November</textPath></text><line stroke="#e1ed5e" stroke-width="0.3" x1="56.762969772571076" x2="54.21961505331055" y1="26.818313649435495" y2="22.513508569990535" /><path d="M 56.25429882871897 25.957352633546506 a86.0,86.0 0 0,1 42.265352541879196,-11.944610805530505" fill="none" id="id72" stroke="none" /><text fill="#e1ed5e" style="font-size:6.75px; font-family:Arial;" text-anchor="middle"><textPath startOffset="22.20632615414155" xlink:href="#id72">December</textPath></text></svg>