<?xml version="1.0" encoding="utf-8" ?>
<svg baseProfile="full" height="200mm" version="1.1" viewBox="0,0,200,200" width="200mm" xmlns="http://www.w3.org/2000/svg" xmlns:ev="http://www.w3.org/2001/xml-events" xmlns:xlink="http://www.w3.org/1999/xlink"><defs /><rect fill="#1a1a1a" height="200" width="200" x="0" y="0" /><text alignment-baseline="middle" fill="#e1ed5e" style="dominant-baseline: central; font-size:9.0px; font-family:Arial;" text-anchor="middle" x="100.0" y="100.0">2023</text><line stroke="#e1ed5e" stroke-width="0.3" x1="100.0" x2="100.0" y1="15.0" y2="10.0" /><path d="M 100.0 14.0 a86.0,86.0 0 0,1 42.46469731375804,11.215312516191453" fill="none" id="id73" stroke="none" /><text fill="#e1ed5e" style="font-size:6.75px; font-family:Arial;" text-anchor="middle"><textPath startOffset="22.20632615414155" xlink:href="#id73">January</textPath></text><path d="M 101.08401301168833 79.027996857942 l 0.8881541706548612 -17.182793801151384 a38.20573220306936,38.20573220306936 0 0,0 0.6564799109875242,0.03960066099964058 l -1.1837961304819973 17.16495987077144" fill="#ff3e05" stroke="none" /><path d="M 101.80526077348638 79.07773832637324 l 1.525565673973384 -17.68070558002118 a38.746399647055114,38.746399647055114 0 0,0 0.6639931261283126,0.06305414809216188 l -1.829683927191941 17.65182588741384" fill="#ff4806" stroke="none" /><path d="M 102.16513564639614 79.11191278185805 l 1.7332752463751975 -16.721725763276996 a37.81131629533924,37.81131629533924 0 0,0 0.646813514162436,0.0726770347753763 l -2.020855464047359 16.68941277503102" fill="#ff3705" stroke="none" /><path d="M 102.52436894288641 79.15227682838746 l 2.1255436286973595 -17.55398920000949 a38.682207796300375,38.682207796300375 0 0,0 0.6603334173225073,0.08573022926443447 l -2.427391774527713 17.51480064758092" fill="#ff4706" stroke="none" /><path d="M 102.88285421437855 79.19881850522331 l 2.4517388242694174 -17.69047633663019 a38.85956260044749,38.85956260044749 0 0,0 0.6617802377568816,0.09752920438741446 l -2.755888042454955 17.645652648081807" fill="#ff4a06" stroke="none" /><path d="M 103.2404852339499 79.25152402106235 l 3.437265086022557 -22.008436058709904 a43.27523398355025,43.27523398355025 0 0,0 0.7350005742589902,0.12128139248067074 l -3.8155948664204224 21.946008403289607" fill="#ff950d" stroke="none" /><path d="M 103.59715602781102 79.31037775812273 l 4.589086000437646 -26.394867236915474 a47.79083288690008,47.79083288690008 0 0,0 0.8092692067208384,0.1478887748096427 l -5.042750328261386 26.311962980755094" fill="#ffdf14" stroke="none" /><path d="M 103.95276090670814 79.375362276772 l 6.2576142592834865 -32.65085598534471 a54.24509186020861,54.24509186020861 0 0,0 0.9155372703237786,0.1836481634994886 l -6.81871793907439 32.53830386576802" fill="#beff1e" stroke="none" /><path d="M 105.01212808612495 79.60689891045804 l 8.018567819378832 -32.6255557168664 a54.596492610216494,54.596492610216494 0 0,0 0.9106983843015501,0.23215729570385144 l -8.578975092365408 32.48269542499368" fill="#b9ff1f" stroke="none" /><path d="M 105.71112130821622 79.79150937346287 l 9.050002678084406 -32.022939878215716 a54.27718778558599,54.27718778558599 0 0,0 0.8968911960028978,0.2618271344891998 l -9.59988409181073 31.862414414807812" fill="#beff1f" stroke="none" /><path d="M 106.0581310904928 79.89281104454417 l 3.96557208621045 -13.161898622340416 a34.74632086471497,34.74632086471497 0 0,0 0.5711875336660177,0.17747074710847563 l -4.191544992587186 13.09168774034942" fill="#ff0000" stroke="none" /><path d="M 106.40334571778207 80.00007090966166 l 12.44256458503826 -38.86256035054668 a61.80583304446475,61.80583304446475 0 0,0 1.0104287699896177,0.33312247911230464 l -13.109676177270295 38.642624147175134" fill="#58ff2a" stroke="none" /><path d="M 107.08798089147638 80.2323363322302 l 11.296923252064255 -31.50597931153558 a54.470094223678814,54.470094223678814 0 0,0 0.879867556071664,0.3240626464089533 l -11.837573133908496 31.3068533973203" fill="#bbff1f" stroke="none" /><path d="M 107.76421540070413 80.48803036053334 l 12.485919267429264 -31.377913297564785 a54.77086944190591,54.77086944190591 0 0,0 0.8729854037559229,0.356112665550129 l -13.024188540773574 31.15833974583108" fill="#b7ff1f" stroke="none" /><path d="M 108.76106565485865 80.91482961587045 l 14.079741774608584 -30.67141388033427 a54.74870009138752,54.74870009138752 0 0,0 0.8530936939488423,0.4005389280465521 l -14.605613679857024 30.424509969647715" fill="#b7ff1f" stroke="none" /><path d="M 109.08828744355905 81.06846463323043 l 21.493786916079216 -44.77305429593816 a70.66497022027542,70.66497022027542 0 0,0 1.0920387263015023,0.5358586603240298 l -22.26129690939115 44.396440475479295" fill="#38ff82" stroke="none" /><path d="M 109.73455568895987 81.39251694778311 l 16.582151317767803 -31.696577581306038 a56.7720669334762,56.7720669334762 0 0,0 0.8620026076459599,0.46045193996368194 l -17.125298971942076 31.4064469148406" fill="#9bff22" stroke="none" /><path d="M 110.05341064243156 81.56283822128135 l 20.564298515748035 -37.713300698220394 a63.955598273091105,63.955598273091105 0 0,0 0.9620015649264587,0.5353528293445792 l -21.210424169746528 37.35373247131563" fill="#3dff2e" stroke="none" /><path d="M 110.36928655335952 81.73862282372117 l 21.928330530876295 -38.61803920740377 a65.40951060410299,65.40951060410299 0 0,0 0.9743004116574844,0.5643776851721396 l -22.589827674999107 38.234857364841574" fill="#30ff35" stroke="none" /><line stroke="#e1ed5e" stroke-width="0.3" x1="143.23703022742887" x2="145.7803849466894" y1="26.81831364943548" y2="22.513508569990506" /><path d="M 143.74570117128098 25.957352633546492 a86.0,86.0 0 0,1 28.547481713284135,27.462654790039103" fill="none" id="id74" stroke="none" /><text fill="#e1ed5e" style="font-size:6.75px; font-family:Arial;" text-anchor="middle"><textPath startOffset="19.985693538727396" xlink:href="#id74">February</textPath></text><path d="M 110.99172775467656 82.1063720568725 l 23.32706978976752 -37.97454932814172 a65.56701225853213,65.56701225853213 0 0,0 0.9565941329612991,0.599019158302251 l -23.97728307510108 37.56738582851653" fill="#30ff38" stroke="none" /><path d="M 111.2981086023043 82.29822771554956 l 23.997933196392278 -37.59974024796939 a65.60539501465351,65.60539501465351 0 0,0 0.9466951417089339,0.615756854206064 l -24.64159536388549 37.1810844696038" fill="#30ff38" stroke="none" /><path d="M 111.60114157652 82.49532879139004 l 18.865518839818186 -28.46570764546386 a55.149733715690296,55.149733715690296 0 0,0 0.786790539330956,0.5312444843135499 l -19.352714073555685 28.13675124885164" fill="#b1ff20" stroke="none" /><path d="M 111.90073688211348 82.69761687909136 l 10.279869494709365 -14.945817405452576 a39.13982289729934,39.13982289729934 0 0,0 0.551813464861959,0.3865805962111932 l -10.535614099154975 14.766651966477449" fill="#ff4f07" stroke="none" /><path d="M 112.19680574252982 82.90503203632743 l 20.461061207597883 -28.678097629033736 a56.229083288690006,56.229083288690006 0 0,0 0.7830694649957287,0.5689332687017987 l -20.9516759889474 28.321645125515264" fill="#a2ff22" stroke="none" /><path d="M 112.48926042617603 83.11751280151076 l 37.46778127852809 -50.647461595467746 a84.0,84.0 0 0,0 1.1550153849664682,0.8699336419766106 l -38.33404281725294 49.995011363985284" fill="#4dd2ff" stroke="none" /><line stroke="#e1ed5e" stroke-width="0.3" x1="172.23445277983987" x2="176.4835382374775" y1="55.19839476539836" y2="52.563006222186495" /><path d="M 173.08426987136738 54.67131705675599 a86.0,86.0 0 0,1 12.851231095245387,41.99856678651699" fill="none" id="id75" stroke="none" /><text fill="#e1ed5e" style="font-size:6.75px; font-family:Arial;" text-anchor="middle"><textPath startOffset="22.20632615414155" xlink:href="#id75">March</textPath></text><line stroke="#e1ed5e" stroke-width="0.3" x1="184.98032266829074" x2="189.97916517819016" y1="98.17113171792111" y2="98.06355123074" /><path d="M 185.9800911702706 98.14961562048488 a86.0,86.0 0 0,1 -9.607161424134198,41.387399972396054" fill="none" id="id76" stroke="none" /><text fill="#e1ed5e" style="font-size:6.75px; font-family:Arial;" text-anchor="middle"><textPath startOffset="21.466115282336823" xlink:href="#id76">April</textPath></text><line stroke="#e1ed5e" stroke-width="0.3" x1="174.80103733775053" x2="179.2010983576182" y1="140.37084112569926" y2="142.7455964860345" /><path d="M 175.68104954172406 140.8457921977663 a86.0,86.0 0 0,1 -30.038265399797805,32.042727171017184" fill="none" id="id77" stroke="none" /><text fill="#e1ed5e" style="font-size:6.75px; font-family:Arial;" text-anchor="middle"><textPath startOffset="22.206326154141568" xlink:href="#id77">May</textPath></text><line stroke="#e1ed5e" stroke-width="0.3" x1="143.8653032363475" x2="146.44561519142675" y1="172.8068346515853" y2="177.08958963109032" /><path d="M 144.38136562736335 173.6633856474863 a86.0,86.0 0 0,1 -40.68145358897372,12.25698825130547" fill="none" id="id78" stroke="none" /><text fill="#e1ed5e" style="font-size:6.75px; font-family:Arial;" text-anchor="middle"><textPath startOffset="21.466115282336833" xlink:href="#id78">June</textPath></text><line stroke="#e1ed5e" stroke-width="0.3" x1="102.19456741930631" x2="102.32365962044197" y1="184.97166512339345" y2="189.96999836594603" /><path d="M 102.22038585953345 185.97133177190398 a86.0,86.0 0 0,1 -42.740103519485714,-10.115201625700543" fill="none" id="id79" stroke="none" /><text fill="#e1ed5e" style="font-size:6.75px; font-family:Arial;" text-anchor="middle"><textPath startOffset="22.20632615414155" xlink:href="#id79">July</textPath></text><line stroke="#e1ed5e" stroke-width="0.3" x1="58.666819895761336" x2="56.23545636021788" y1="174.27360380694188" y2="178.64263932499728" /><path d="M 58.180547188652646 175.14741091055294 a86.0,86.0 0 0,1 -31.652253787137756,-30.449443065178592" fill="none" id="id80" stroke="none" /><text fill="#e1ed5e" style="font-size:6.75px; font-family:Arial;" text-anchor="middle"><textPath startOffset="22.20632615414155" xlink:href="#id80">August</textPath></text><line stroke="#e1ed5e" stroke-width="0.3" x1="26.63291911575756" x2="22.317208475507996" y1="142.92168965132927" y2="145.44649492493687" /><path d="M 25.769776987707644 143.4266507060508 a86.0,86.0 0 0,1 -11.730757126820373,-40.83630448921669" fill="none" id="id81" stroke="none" /><text fill="#e1ed5e" style="font-size:6.75px; font-family:Arial;" text-anchor="middle"><textPath startOffset="21.46611528233685" xlink:href="#id81">September</textPath></text><line stroke="#e1ed5e" stroke-width="0.3" x1="15.007084014347285" x2="10.007500721073583" y1="101.09737516637583" y2="101.16192664675087" /><path d="M 14.007167355692545 101.11028546245083 a86.0,86.0 0 0,1 10.666146001902534,-42.60595125391555" fill="none" id="id82" stroke="none" /><text fill="#e1ed5e" style="font-size:6.75px; font-family:Arial;" text-anchor="middle"><textPath startOffset="22.20632615414155" xlink:href="#id82">October</textPath></text><line stroke="#e1ed5e" stroke-width="0.3" x1="26.266209847984243" x2="21.928928074336255" y1="57.711370442889674" y2="55.22380399835377" /><path d="M 25.398753493254645 57.213857153982495 a86.0,86.0 0 0,1 29.58750427330803,-30.492523968695096" fill="none" id="id83" stroke="none" /><text fill="#e1ed5e" style="font-size:6.75px; font-family:Arial;" text-anchor="middle"><textPath startOffset="21.46611528233685" xlink:href="#id83">November</textPath></text><line stroke="#e1ed5e" stroke-width="0.3" x1="56.762969772571076" x2="54.21961505331055" y1="26.818313649435495" y2="22.513508569990535" /><path d="M 56.25429882871897 25.957352633546506 a86.0,86.0 0 0,1 42.265352541879196,-11.944610805530505" fill="none" id="id84" stroke="none" /><text fill="#e1ed5e" style="font-size:6.75px; font-family:Arial;" text-anchor="middle"><textPath startOffset="22.20632615414155" xlink:href="#id84">December</textPath></text></svg>