<?xml version="1.0" encoding="utf-8" ?>
<svg baseProfile="full" height="200mm" version="1.1" viewBox="0,0,200,200" width="200mm" xmlns="http://www.w3.org/2000/svg" xmlns:ev="http://www.w3.org/2001/xml-events" xmlns:xlink="http://www.w3.org/1999/xlink"><defs /><rect fill="#1a1a1a" height="200" width="200" x="0" y="0" /><text alignment-baseline="middle" fill="#e1ed5e" style="dominant-baseline: central; font-size:9.0px; font-family:Arial;" text-anchor="middle" x="100.0" y="100.0">2024</text><line stroke="#e1ed5e" stroke-width="0.3" x1="100.0" x2="100.0" y1="15.0" y2="10.0" /><path d="M 100.0 14.0 a86.0,86.0 0 0,1 42.35913384403234,11.155469271406648" fill="none" id="id85" stroke="none" /><text fill="#e1ed5e" style="font-size:6.75px; font-family:Arial;" text-anchor="middle"><textPath startOffset="22.145653131862478" xlink:href="#id85">January</textPath></text><path d="M 100.0 79.0 l 0.0 -35.29432919422681 a56.29432919422681,56.29432919422681 0 0,0 0.9663670182681475,0.008295098600739997 l -0.6058740934192928 35.289128493820506" fill="#6eff28" stroke="none" /><path d="M 101.08105385017728 79.02784411241856 l 1.4423981080069046 -27.982137955581717 a49.01928901430564,49.01928901430564 0 0,0 0.839993714583287,0.05053193598093014 l -1.9225361747226541 27.953254041776095" fill="#c5ff1e" stroke="none" /><path d="M 102.15924093988457 79.11130261209362 l 6.477722819653705 -62.666092163719114 a84.0,84.0 0 0,0 1.4330563935968135,0.16057695797211657 l -7.552515114851315 62.54565944524002" fill="#4dd2ff" stroke="none" /><path d="M 103.23170211078529 79.25015418208739 l 2.6616583619158543 -17.08975602837704 a38.29578521909329,38.29578521909329 0 0,0 0.6486986828894847,0.10674312141066514 l -2.9546345478584097 17.041546908470707" fill="#ffaa0f" stroke="none" /><path d="M 103.58742460773223 79.30868818359171 l 4.796946163484367 -27.667510732141103 a49.08027497387642,49.08027497387642 0 0,0 0.828908038142735,0.15105465692915776 l -5.271188935178156 27.58108790128058" fill="#c4ff1e" stroke="none" /><path d="M 104.29559338865022 79.4440306129975 l 8.640937890743695 -41.35001586193684 a63.2432198040599,63.2432198040599 0 0,0 1.0607923290003323,0.23119475082316185 l -9.349492636363163 41.195589652979955" fill="#31ff3f" stroke="none" /><path d="M 104.64783097203109 79.52079915486377 l 2.625771678611554 -11.569634503351493 a32.863857696775526,32.863857696775526 0 0,0 0.5490890938031683,0.1295835310454582 l -2.8239929261546073 11.522854828659806" fill="#ff5b08" stroke="none" /><path d="M 104.9986988182912 79.60360301121754 l 5.178679232653918 -21.13077849784936 a42.75611450879715,42.75611450879715 0 0,0 0.7113695281725065,0.1808273522725508 l -5.540654054051819 21.03876591374154" fill="#ffe815" stroke="none" /><path d="M 105.3480935250658 79.69241777938227 l 6.095953458132737 -23.14732819908312 a44.936571419478376,44.936571419478376 0 0,0 0.7442750151390997,0.20285546502014376 l -6.492409874206529 23.039272239918834" fill="#f9ff18" stroke="none" /><path d="M 105.69591212413111 79.78721728523813 l 7.414063787453341 -26.30989683536229 a48.334575418905516,48.334575418905516 0 0,0 0.7966918731923981,0.23190539317454015 l -7.864615673027344 26.178747747885236" fill="#cdff1d" stroke="none" /><path d="M 106.04205211174951 79.88797359093562 l 6.268732823723941 -20.866572775321274 a42.7878606247381,42.7878606247381 0 0,0 0.7016381240719861,0.2173692843762232 l -6.626011580667557 20.755886903138403" fill="#ffe815" stroke="none" /><path d="M 106.72888874123014 80.10723608172694 l 11.450143229512658 -33.85031390093507 a56.73443061206087,56.73443061206087 0 0,0 0.9198926737961498,0.3199864232867159 l -12.029541675353826 33.64876904507977" fill="#69ff28" stroke="none" /><path d="M 107.74402155503746 80.48000691201159 l 6.386300822890712 -16.097649914152168 a38.3181745850727,38.3181745850727 0 0,0 0.6093420694290905,0.24781411491772906 l -6.661697353510243 15.985648542655143" fill="#ffab0f" stroke="none" /><path d="M 108.07796709384702 80.6158196554323 l 6.669152870620942 -16.003539069635117 a38.337556424278745,38.337556424278745 0 0,0 0.6053042387602562,0.2583683859118338 l -6.942892184551629 15.886696034063883" fill="#ffab0f" stroke="none" /><path d="M 109.06512990194946 81.05736502329252 l 21.665995611051727 -45.27359791930178 a71.19077638746704,71.19077638746704 0 0,0 1.0978287276265355,0.5370030435812357 l -22.43998458794033 44.895001125623324" fill="#3cffa2" stroke="none" /><path d="M 109.3889696526874 81.21577127319529 l 7.7249944447034355 -15.455163658034722 a38.27824131291539,38.27824131291539 0 0,0 0.5852429183931338,0.2988292041524238 l -7.9891645848101485 15.320276502209465" fill="#ffaa0f" stroke="none" /><path d="M 109.71004243097381 81.37971332152246 l 10.052549245201885 -19.277088655976122 a42.740742705288895,42.740742705288895 0 0,0 0.647646778591045,0.34483543074985434 l -10.381984839579488 19.101682757503696" fill="#ffe815" stroke="none" /><path d="M 110.02825361518725 81.54914285379988 l 10.375202774750916 -19.089204522099006 a42.72654049552584,42.72654049552584 0 0,0 0.6414185814856312,0.3557840747657251 l -10.701365544392647 18.908287531900132" fill="#ffe715" stroke="none" /><line stroke="#e1ed5e" stroke-width="0.3" x1="143.13028292997686" x2="145.6673583964461" y1="26.7553504044142" y2="22.446841604673864" /><path d="M 143.63769802327073 25.89364864446614 a86.0,86.0 0 0,1 29.32050498858742,28.57503671076993" fill="none" id="id86" stroke="none" /><text fill="#e1ed5e" style="font-size:6.75px; font-family:Arial;" text-anchor="middle"><textPath startOffset="20.669276256404974" xlink:href="#id86">February</textPath></text><path d="M 110.96478420261332 82.08984904055464 l 8.994924402423361 -14.692533016546271 a38.22728044258912,38.22728044258912 0 0,0 0.5567273151504393,0.3474390200280738 l -9.245815846363513 14.535958199676651" fill="#ffa90f" stroke="none" /><path d="M 112.45986205192187 83.09580414077388 l 15.416920605116449 -20.916013706173363 a46.983861728028344,46.983861728028344 0 0,0 0.6451264808908005,0.4841149382668474 l -15.773700074918017 20.6482797406425" fill="#dfff1b" stroke="none" /><path d="M 113.59037401385872 83.9905735841838 l 8.140621563224531 -9.589631732176734 a33.57898072955067,33.57898072955067 0 0,0 0.4362397615080431,0.37681351594155776 l -8.304040804495434 9.448474083770456" fill="#ff6609" stroke="none" /><path d="M 113.86319453409587 84.22622945171908 l 16.18882599236223 -18.419912237509546 a45.52287205546155,45.52287205546155 0 0,0 0.5825518000355888,0.5209214117844789 l -16.502642819221194 18.13929529584168" fill="#f1ff19" stroke="none" /><path d="M 114.39649973595853 84.71141617570332 l 17.549607092451037 -18.63707456933073 a46.599399555501336,46.599399555501336 0 0,0 0.5776717069739402,0.5533964278183606 l -17.86695128529029 18.33306601120679" fill="#e4ff1b" stroke="none" /><path d="M 115.16444852881244 85.47280134310134 l 26.550071597955547 -25.434368003924238 a57.76701480424554,57.76701480424554 0 0,0 0.6798467005400186,0.7219736366136685 l -26.982774132231825 24.974852907366074" fill="#5dff2a" stroke="none" /><path d="M 115.8921839302757 86.27271002978787 l 13.174293154525026 -11.379640650912611 a38.40856747309404,38.40856747309404 0 0,0 0.42671083806555893,0.5026642942920911 l -13.367698556097697 11.151809574170969" fill="#ffac0f" stroke="none" /><path d="M 116.57777611688842 87.10902102172516 l 4.702226088839308 -3.656479447841677 a26.95657385944719,26.95657385944719 0 0,0 0.280923470782981,0.3677378410194831 l -4.764301536976595 3.575220693581312" fill="#ff0000" stroke="none" /><path d="M 116.7966241395341 87.39550010848427 l 29.401019302520353 -22.063073003867835 a57.75866056320845,57.75866056320845 0 0,0 0.5883076593339818,0.7981523276439876 l -29.77542898143816 21.555114366954975" fill="#5eff2a" stroke="none" /><path d="M 117.42321728460499 88.27688183743584 l 21.277078388726267 -14.316167905773392 a46.64501371156386,46.64501371156386 0 0,0 0.44129639384264074,0.6681789856947102 l -21.51969922148963 13.948809041739624" fill="#e3ff1b" stroke="none" /><line stroke="#e1ed5e" stroke-width="0.3" x1="172.87174338648825" x2="177.1583165268699" y1="56.24261187166439" y2="53.66864786411523" /><path d="M 173.72905801456457 55.72781907015455 a86.0,86.0 0 0,1 12.242430191666344,42.057860355516425" fill="none" id="id87" stroke="none" /><text fill="#e1ed5e" style="font-size:6.75px; font-family:Arial;" text-anchor="middle"><textPath startOffset="22.145653131862474" xlink:href="#id87">March</textPath></text><path d="M 118.00360718960297 89.18935116829356 l 22.623998574680765 -13.585061103818411 a47.389376587968826,47.389376587968826 0 0,0 0.41279823040478025,0.7010216415404382 l -22.853870515215313 13.194688293984417" fill="#d9ff1c" stroke="none" /><path d="M 118.18653347947321 89.5 l 32.15010269990575 -18.561870448264706 a58.123740896529405,58.123740896529405 0 0,0 0.4914684325412456,0.8683776287047199 l -32.46400449746837 18.007236049460868" fill="#59ff2a" stroke="none" /><path d="M 118.36410011445183 89.81374322990088 l 29.74616599506089 -16.49969684674232 a55.01579614591014,55.01579614591014 0 0,0 0.451010721482515,0.8298089291315992 l -30.025022066158744 15.986633084136116" fill="#7dff26" stroke="none" /><path d="M 118.53625476483649 90.13048839642627 l 15.212054488633406 -8.09956219282075 a38.2339638354188,38.2339638354188 0 0,0 0.3034901553556235,0.5819823895713508 l -15.348852712963973 7.837233560144901" fill="#ffa90f" stroke="none" /><path d="M 118.8641267826498 90.77261029715802 l 18.27792169395613 -8.940647418850292 a41.347422385122556,41.347422385122556 0 0,0 0.30640555014370086,0.6402697538797778 l -18.428706502059743 8.62556516290541" fill="#ffd513" stroke="none" /><path d="M 119.0197475246899 91.09779779509293 l 18.20640405375974 -8.521516392392366 a41.10197478345277,41.10197478345277 0 0,0 0.29361594012637376,0.6416038184166684 l -18.350004458741168 8.207723591761013" fill="#ffd113" stroke="none" /><path d="M 119.16976305983485 91.42560881287824 l 24.444811026535174 -10.933853046725439 a47.77868422029736,47.77868422029736 0 0,0 0.32845824586768413,0.7515767454364912 l -24.628903154419827 10.512614231513098" fill="#d4ff1c" stroke="none" /><path d="M 119.31412917781788 91.75594674310238 l 34.14192648863309 -14.573158213554766 a58.12207004832199,58.12207004832199 0 0,0 0.38381090370201987,0.9210064474313512 l -34.38706323687159 13.984919256682137" fill="#5aff2a" stroke="none" /><path d="M 119.58574465831526 92.42381321644754 l 19.02464408969878 -7.359141029798524 a41.39838325544882,41.39838325544882 0 0,0 0.2506954328468161,0.6649994200353302 l -19.14817020636004 7.031473329569036" fill="#ffd513" stroke="none" /><path d="M 119.71291397450082 92.76114493625339 l 16.35399036111984 -6.0054117869731805 a38.42176717393264,38.42176717393264 0 0,0 0.2220409109923652,0.621087946172443 l -16.454671442156148 5.723788884419821" fill="#ffac0f" stroke="none" /><path d="M 119.83427380445688 93.10060997987247 l 27.076060938692223 -9.418459504315246 a49.667411033963305,49.667411033963305 0 0,0 0.2732052403419209,0.8076827476810484 l -27.23375160060651 8.952275082160037" fill="#bdff1f" stroke="none" /><path d="M 119.94978838288452 93.4421083053983 l 23.038864337379984 -7.573332317689166 a45.251693391397524,45.251693391397524 0 0,0 0.23624677459648954,0.7400396565956536 l -23.16547582775373 7.176723627402125" fill="#f5ff19" stroke="none" /><path d="M 120.26092885502905 94.47779374421319 l 34.01817122984379 -9.271803840782054 a56.25907429705029,56.25907429705029 0 0,0 0.24596070574559245,0.9339528621852821 l -34.17232141639411 8.686470474223972" fill="#6eff28" stroke="none" /><path d="M 120.43855184770803 95.1765574152323 l 23.232378198264506 -5.482777996304282 a44.870572915285344,44.870572915285344 0 0,0 0.1704849692535489,0.7511882311190371 l -23.32307402907572 5.083155431246219" fill="#faff18" stroke="none" /><path d="M 120.592083275326 95.88100663000786 l 27.35132672229645 -5.471031363039409 a48.893139974645536,48.893139974645536 0 0,0 0.15756095543103582,0.824425497737576 l -27.441213970009642 5.000703300268519" fill="#c6ff1e" stroke="none" /><path d="M 120.65975698304385 96.23510406497455 l 11.356033707428518 -2.0694476308796617 a32.543054840951164,32.543054840951164 0 0,0 0.09543666532096214,0.5504533242644327 l -11.389885190241714 1.8742012736946363" fill="#ff5608" stroke="none" /><path d="M 120.77682067341334 96.94652285012252 l 35.26192143055207 -5.182288139337202 a56.64069602762469,56.64069602762469 0 0,0 0.13312042548060332,0.9631930849118925 l -35.34568637258789 4.576206746225224" fill="#6aff28" stroke="none" /><path d="M 120.86939407059847 97.66154086499901 l 17.36256497206338 -1.9455116199646034 a38.471224280872235,38.471224280872235 0 0,0 0.06790648773300813,0.6569336690171366 l -17.393403852278055 1.6471734286645354" fill="#ffad10" stroke="none" /><path d="M 120.9064616781168 98.02013634271609 l 19.975176158414982 -1.8916699503142484 a41.06454778360659,41.06454778360659 0 0,0 0.060436019406990345,0.7023581553765664 l -20.004705800519712 1.54849074756202" fill="#ffd113" stroke="none" /><path d="M 120.96210409425399 98.7389718711861 l 21.739870239895236 -1.3078166087719718 a42.77917221405952,42.77917221405952 0 0,0 0.0378054019360236,0.733414697764564 l -21.75911723128783 0.9344301176306771" fill="#ffe815" stroke="none" /><path d="M 120.98066250479742 99.09900007780936 l 33.788496323572055 -1.451023415085965 a54.819638566359195,54.819638566359195 0 0,0 0.03230524695135002,0.9405320168723041 l -33.80842625752025 0.8707851336495409" fill="#7fff26" stroke="none" /><path d="M 120.99303781780057 99.45929381324524 l 25.487855366663222 -0.6564767425979531 a46.496308221103604,46.496308221103604 0 0,0 0.01370217065884794,0.7980827473499832 l -25.495368968920733 0.21884707927890343" fill="#e5ff1a" stroke="none" /><line stroke="#e1ed5e" stroke-width="0.3" x1="184.99686870605535" x2="189.99668451229388" y1="99.2704041080226" y2="99.22748670261217" /><path d="M 185.99683186730306 99.26182062694052 a86.0,86.0 0 0,1 -10.086455211305974,41.156179273409016" fill="none" id="id88" stroke="none" /><text fill="#e1ed5e" style="font-size:6.75px; font-family:Arial;" text-anchor="middle"><textPath startOffset="21.40746469413373" xlink:href="#id88">April</textPath></text><path d="M 120.99922638620191 99.81974689727618 l 20.3324711248982 -0.17452981071310908 a41.3332201753595,41.3332201753595 0 0,0 0.0,0.7095658268738695 l -20.3324711248982 -0.17452981071310664" fill="#ffd513" stroke="none" /><line stroke="#e1ed5e" stroke-width="0.3" x1="174.33088141563837" x2="178.70328620479359" y1="141.23008692659167" y2="143.65538615756765" /><path d="M 175.20536237346943 141.71514677278685 a86.0,86.0 0 0,1 -30.301960400862466,31.631185727798858" fill="none" id="id89" stroke="none" /><text fill="#e1ed5e" style="font-size:6.75px; font-family:Arial;" text-anchor="middle"><textPath startOffset="22.145653131862474" xlink:href="#id89">May</textPath></text><line stroke="#e1ed5e" stroke-width="0.3" x1="143.1302829299769" x2="145.66735839644613" y1="173.24464959558577" y2="177.55315839532614" /><path d="M 143.63769802327073 174.10635135553383 a86.0,86.0 0 0,1 -40.68552437913181,11.842963189579606" fill="none" id="id90" stroke="none" /><text fill="#e1ed5e" style="font-size:6.75px; font-family:Arial;" text-anchor="middle"><textPath startOffset="21.407464694133747" xlink:href="#id90">June</textPath></text><line stroke="#e1ed5e" stroke-width="0.3" x1="101.45913802915013" x2="101.54496967792366" y1="184.9874750549273" y2="189.98673829345242" /><path d="M 101.47630435890484 185.9873277026323 a86.0,86.0 0 0,1 -42.54439059252881,-10.42667462771756" fill="none" id="id91" stroke="none" /><text fill="#e1ed5e" style="font-size:6.75px; font-family:Arial;" text-anchor="middle"><textPath startOffset="22.145653131862474" xlink:href="#id91">July</textPath></text><line stroke="#e1ed5e" stroke-width="0.3" x1="58.13341422392154" x2="55.67067388415222" y1="173.97424548756322" y2="178.32567169271397" /><path d="M 57.64086615596768 174.84453072859336 a86.0,86.0 0 0,1 -31.369924170532247,-30.572349798747897" fill="none" id="id92" stroke="none" /><text fill="#e1ed5e" style="font-size:6.75px; font-family:Arial;" text-anchor="middle"><textPath startOffset="22.145653131862474" xlink:href="#id92">August</textPath></text><line stroke="#e1ed5e" stroke-width="0.3" x1="26.387840678322732" x2="22.057713659400548" y1="142.50000000000003" y2="145.00000000000006" /><path d="M 25.521815274538298 143.00000000000003 a86.0,86.0 0 0,1 -11.493303480769221,-40.785679425670985" fill="none" id="id93" stroke="none" /><text fill="#e1ed5e" style="font-size:6.75px; font-family:Arial;" text-anchor="middle"><textPath startOffset="21.40746469413373" xlink:href="#id93">September</textPath></text><line stroke="#e1ed5e" stroke-width="0.3" x1="15.003131293944662" x2="10.003315487706104" y1="100.72959589197737" y2="100.7725132973878" /><path d="M 14.003168132696942 100.73817937305945 a86.0,86.0 0 0,1 10.791469493833604,-42.45332614584628" fill="none" id="id94" stroke="none" /><text fill="#e1ed5e" style="font-size:6.75px; font-family:Arial;" text-anchor="middle"><textPath startOffset="22.145653131862435" xlink:href="#id94">October</textPath></text><line stroke="#e1ed5e" stroke-width="0.3" x1="26.387840678322718" x2="22.05771365940052" y1="57.49999999999999" y2="54.99999999999999" /><path d="M 25.521815274538284 56.99999999999999 a86.0,86.0 0 0,1 29.574782752854787,-30.34633250058573" fill="none" id="id95" stroke="none" /><text fill="#e1ed5e" style="font-size:6.75px; font-family:Arial;" text-anchor="middle"><textPath startOffset="21.40746469413373" xlink:href="#id95">November</textPath></text><line stroke="#e1ed5e" stroke-width="0.3" x1="56.869717070023135" x2="54.33264160355391" y1="26.7553504044142" y2="22.446841604673864" /><path d="M 56.362301976729285 25.89364864446614 a86.0,86.0 0 0,1 42.16139366436587,-11.88097634709845" fill="none" id="id96" stroke="none" /><text fill="#e1ed5e" style="font-size:6.75px; font-family:Arial;" text-anchor="middle"><textPath startOffset="22.145653131862474" xlink:href="#id96">December</textPath></text></svg>