<?xml version="1.0" encoding="utf-8" ?>
<svg baseProfile="full" height="200mm" version="1.1" viewBox="0,0,200,200" width="200mm" xmlns="http://www.w3.org/2000/svg" xmlns:ev="http://www.w3.org/2001/xml-events" xmlns:xlink="http://www.w3.org/1999/xlink"><defs /><rect fill="#1a1a1a" height="200" width="200" x="0" y="0" /><text alignment-baseline="middle" fill="#e1ed5e" style="dominant-baseline: central; font-size:9.0px; font-family:Arial;" text-anchor="middle" x="100.0" y="100.0">2025</text><line stroke="#e1ed5e" stroke-width="0.3" x1="100.0" x2="100.0" y1="15.0" y2="10.0" /><path d="M 100.0 14.0 a86.0,86.0 0 0,1 42.46469731375804,11.215312516191453" fill="none" id="id97" stroke="none" /><text fill="#e1ed5e" style="font-size:6.75px; font-family:Arial;" text-anchor="middle"><textPath startOffset="22.20632615414155" xlink:href="#id97">January</textPath></text><path d="M 100.0 79.0 l 0.0 -45.38190818153694 a66.38190818153694,66.38190818153694 0 0,0 1.1426554278327117,0.009835196016549365 l -0.7811749485601833 45.375184362128955" fill="#48ff2c" stroke="none" /><path d="M 100.36148047927253 79.00311137660856 l 0.4237543342334064 -24.614116307149686 a45.61776369448845,45.61776369448845 0 0,0 0.7850021314839376,0.02027428907435146 l -0.8473831009122119 24.603175225932976" fill="#ff3f05" stroke="none" /><path d="M 101.08401301168833 79.027996857942 l 3.048573816140559 -58.97964227506688 a80.05837794256894,80.05837794256894 0 0,0 1.3756238604771707,0.08298138792979541 l -4.0633597254573415 58.91842761775678" fill="#46fff4" stroke="none" /><path d="M 101.80526077348638 79.07773832637324 l 2.6547405001459956 -30.767397284306245 a51.88171599463752,51.88171599463752 0 0,0 0.8890917119004867,0.08442997113023364 l -3.1839573391367266 30.717141768660834" fill="#ffbd11" stroke="none" /><path d="M 102.16513564639614 79.11191278185805 l 2.535941031270222 -24.46542207616755 a45.596501260933564,45.596501260933564 0 0,0 0.7799895931613396,0.0876409189749586 l -2.956697327941287 24.41814520372199" fill="#ff3f05" stroke="none" /><path d="M 102.52436894288641 79.15227682838746 l 2.6433610120814985 -21.830429651656683 a42.98988440661123,42.98988440661123 0 0,0 0.7338685896628734,0.09527720510779138 l -3.018744330252218 21.781694123384753" fill="#ff0701" stroke="none" /><path d="M 102.88285421437855 79.19881850522331 l 4.381185983256779 -31.612366780656327 a52.91451901712807,52.91451901712807 0 0,0 0.9011368279153712,0.13280414381771205 l -4.924691791600806 31.532268152677645" fill="#ffd113" stroke="none" /><path d="M 103.59715602781102 79.31037775812273 l 10.13592216928327 -58.29838882000166 a80.17295883450365,80.17295883450365 0 0,0 1.3576140627221802,0.24809529231177496 l -11.137931353108351 58.11527804633915" fill="#46fff6" stroke="none" /><path d="M 104.307194497241 79.44645832069477 l 7.537620655038424 -35.968842455422454 a57.750147655788574,57.750147655788574 0 0,0 0.9711849917071341,0.21226342295225153 l -8.155648370899085 35.83376553437433" fill="#d5ff1c" stroke="none" /><path d="M 104.66035177308747 79.52364482259891 l 5.461594811390337 -23.99680552847836 a45.61047934225206,45.61047934225206 0 0,0 0.764032678994734,0.18082185021223565 l -5.8738511773475945 23.89923776612526" fill="#ff3f05" stroke="none" /><path d="M 105.01212808612495 79.60689891045804 l 5.8472556558015985 -23.791027211626858 a45.49904844047363,45.49904844047363 0 0,0 0.7589482019993993,0.19347279537627815 l -6.255912746486024 23.686851420081712" fill="#ff3d05" stroke="none" /><path d="M 105.71112130821622 79.79150937346287 l 8.56451352772897 -30.305063052498692 a52.492026587416916,52.492026587416916 0 0,0 0.867392700826458,0.253215714845199 l -9.084896446278854 30.15314900873479" fill="#ffc912" stroke="none" /><path d="M 106.0581310904928 79.89281104454417 l 17.208200108537035 -57.11473158919446 a80.65077296633449,80.65077296633449 0 0,0 1.325801263341221,0.41193290618997586 l -18.188786744588974 56.810058548121965" fill="#47fffd" stroke="none" /><path d="M 106.74666289553966 80.11325718540242 l 6.96759433163629 -20.53796946062109 a42.68768222599304,42.68768222599304 0 0,0 0.6938130546933219,0.24205775140605595 l -7.320089390392885 20.414990856042824" fill="#ff0000" stroke="none" /><path d="M 107.4271985657038 80.35727306442388 l 21.0006168375461 -55.540373448934524 a80.37810194343143,80.37810194343143 0 0,0 1.2899415962052083,0.5004772988825276 l -21.953541598750977 55.170653446161445" fill="#46fff9" stroke="none" /><path d="M 107.76421540070413 80.48803036053334 l 10.40959663677331 -26.159981795120586 a49.15500576560699,49.15500576560699 0 0,0 0.7834749200106892,0.31959909175604895 l -10.858355426372386 25.97692181718096" fill="#ff880c" stroke="none" /><path d="M 108.76106565485865 80.91482961587045 l 15.281167231537893 -33.288608004043475 a57.62847928600223,57.62847928600223 0 0,0 0.8979663843833199,0.4216072578826278 l -15.85191182722081 33.02063576352084" fill="#d7ff1c" stroke="none" /><path d="M 109.08828744355905 81.06846463323043 l 13.860731072573401 -28.872867648533028 a53.02752491398464,53.02752491398464 0 0,0 0.8194740701861046,0.40211236730350913 l -14.355676409769938 28.63000012109469" fill="#ffd313" stroke="none" /><path d="M 110.05341064243156 81.56283822128135 l 28.27786233453737 -51.859368045479656 a80.06802478742254,80.06802478742254 0 0,0 1.2043600126633318,0.6702250431142254 l -29.166346436272736 51.36492760480525" fill="#46fff4" stroke="none" /><line stroke="#e1ed5e" stroke-width="0.3" x1="143.23703022742887" x2="145.7803849466894" y1="26.81831364943548" y2="22.513508569990506" /><path d="M 143.74570117128098 25.957352633546492 a86.0,86.0 0 0,1 28.547481713284135,27.462654790039103" fill="none" id="id98" stroke="none" /><text fill="#e1ed5e" style="font-size:6.75px; font-family:Arial;" text-anchor="middle"><textPath startOffset="19.985693538727396" xlink:href="#id98">February</textPath></text><path d="M 110.68208982089419 81.91981866633111 l 31.594518619572217 -53.47592422172927 a83.1118996503136,83.1118996503136 0 0,0 1.2254569943071505,0.7383241273381613 l -32.510337680097 52.924153484932496" fill="#4bdeff" stroke="none" /><path d="M 111.60114157652 82.49532879139004 l 19.57577762904963 -29.537399297230706 a56.43542051431089,56.43542051431089 0 0,0 0.805132716918109,0.543629204498112 l -20.08131504037428 29.196058180433926" fill="#ecff1a" stroke="none" /><path d="M 112.19680574252982 82.90503203632743 l 20.78763713595054 -29.13582444298374 a56.79136940197062,56.79136940197062 0 0,0 0.7909000939184972,0.5746225536352189 l -21.286082546222826 28.773682654531846" fill="#e6ff1a" stroke="none" /><path d="M 112.48926042617603 83.11751280151076 l 21.074390243537586 -28.4875253907589 a56.43542051431089,56.43542051431089 0 0,0 0.7759973684652537,0.5844651298154285 l -21.561633765761222 28.120543671437623" fill="#ecff1a" stroke="none" /><path d="M 113.06298171725822 83.55741782278167 l 37.50860191401134 -47.2126718595107 a81.29868656660449,81.29868656660449 0 0,0 1.0882278330972943,0.87993789319161 l -38.31573314567312 46.560027869054956" fill="#48f8ff" stroke="none" /><path d="M 113.6212207817346 84.01681056812373 l 22.9921231660337 -26.97903997683747 a56.44723297739695,56.44723297739695 0 0,0 0.7340994940646659,0.6366038473163408 l -23.45311645874513 26.579271136101458" fill="#ecff1a" stroke="none" /><path d="M 113.89432698308785 84.25364557470407 l 18.07602871968932 -20.485451016699802 a48.32025837419258,48.32025837419258 0 0,0 0.6189342180562217,0.5556852520900555 l -18.42597392534153 20.17126675584045" fill="#ff770a" stroke="none" /><path d="M 114.16331599549186 84.49514656593476 l 16.436255547657282 -17.993083918510557 a45.370095718450884,45.370095718450884 0 0,0 0.572078269415189,0.5316844040793024 l -16.74354170086732 17.707494928356613" fill="#ff3a05" stroke="none" /><path d="M 114.68862486808459 84.99185889309783 l 44.06587460425377 -45.02442332070654 a84.0,84.0 0 0,0 1.0246567993307099,1.0202565973995252 l -44.8343672037518 44.25923087265689" fill="#4dd2ff" stroke="none" /><path d="M 115.19652480421416 85.50635884689758 l 17.20359954562218 -16.407882826393188 a44.77356633260521,44.77356633260521 0 0,0 0.5271185099687193,0.5622932741593841 l -17.48348537756136 16.10932013535575" fill="#ff2d04" stroke="none" /><path d="M 115.4437574822437 85.77008943001954 l 23.155428896802523 -21.335460802844146 a52.486120355873894,52.486120355873894 0 0,0 0.6064805182735686,0.6696909360186378 l -23.519253055692126 20.933717079555958" fill="#ffc912" stroke="none" /><path d="M 115.68641384162765 86.03803664274999 l 20.157468994833486 -17.941503158223817 a47.98557192008775,47.98557192008775 0 0,0 0.543855073707201,0.621720364102882 l -20.463315932118533 17.591867237917985" fill="#ff700a" stroke="none" /><line stroke="#e1ed5e" stroke-width="0.3" x1="172.23445277983987" x2="176.4835382374775" y1="55.19839476539836" y2="52.563006222186495" /><path d="M 173.08426987136738 54.67131705675599 a86.0,86.0 0 0,1 12.851231095245387,41.99856678651699" fill="none" id="id99" stroke="none" /><text fill="#e1ed5e" style="font-size:6.75px; font-family:Arial;" text-anchor="middle"><textPath startOffset="22.20632615414155" xlink:href="#id99">March</textPath></text><line stroke="#e1ed5e" stroke-width="0.3" x1="184.98032266829074" x2="189.97916517819016" y1="98.17113171792111" y2="98.06355123074" /><path d="M 185.9800911702706 98.14961562048488 a86.0,86.0 0 0,1 -9.607161424134198,41.387399972396054" fill="none" id="id100" stroke="none" /><text fill="#e1ed5e" style="font-size:6.75px; font-family:Arial;" text-anchor="middle"><textPath startOffset="21.466115282336823" xlink:href="#id100">April</textPath></text><line stroke="#e1ed5e" stroke-width="0.3" x1="174.80103733775053" x2="179.2010983576182" y1="140.37084112569926" y2="142.7455964860345" /><path d="M 175.68104954172406 140.8457921977663 a86.0,86.0 0 0,1 -30.038265399797805,32.042727171017184" fill="none" id="id101" stroke="none" /><text fill="#e1ed5e" style="font-size:6.75px; font-family:Arial;" text-anchor="middle"><textPath startOffset="22.206326154141568" xlink:href="#id101">May</textPath></text><line stroke="#e1ed5e" stroke-width="0.3" x1="143.8653032363475" x2="146.44561519142675" y1="172.8068346515853" y2="177.08958963109032" /><path d="M 144.38136562736335 173.6633856474863 a86.0,86.0 0 0,1 -40.68145358897372,12.25698825130547" fill="none" id="id102" stroke="none" /><text fill="#e1ed5e" style="font-size:6.75px; font-family:Arial;" text-anchor="middle"><textPath startOffset="21.466115282336833" xlink:href="#id102">June</textPath></text><line stroke="#e1ed5e" stroke-width="0.3" x1="102.19456741930631" x2="102.32365962044197" y1="184.97166512339345" y2="189.96999836594603" /><path d="M 102.22038585953345 185.97133177190398 a86.0,86.0 0 0,1 -42.740103519485714,-10.115201625700543" fill="none" id="id103" stroke="none" /><text fill="#e1ed5e" style="font-size:6.75px; font-family:Arial;" text-anchor="middle"><textPath startOffset="22.20632615414155" xlink:href="#id103">July</textPath></text><line stroke="#e1ed5e" stroke-width="0.3" x1="58.666819895761336" x2="56.23545636021788" y1="174.27360380694188" y2="178.64263932499728" /><path d="M 58.180547188652646 175.14741091055294 a86.0,86.0 0 0,1 -31.652253787137756,-30.449443065178592" fill="none" id="id104" stroke="none" /><text fill="#e1ed5e" style="font-size:6.75px; font-family:Arial;" text-anchor="middle"><textPath startOffset="22.20632615414155" xlink:href="#id104">August</textPath></text><line stroke="#e1ed5e" stroke-width="0.3" x1="26.63291911575756" x2="22.317208475507996" y1="142.92168965132927" y2="145.44649492493687" /><path d="M 25.769776987707644 143.4266507060508 a86.0,86.0 0 0,1 -11.730757126820373,-40.83630448921669" fill="none" id="id105" stroke="none" /><text fill="#e1ed5e" style="font-size:6.75px; font-family:Arial;" text-anchor="middle"><textPath startOffset="21.46611528233685" xlink:href="#id105">September</textPath></text><line stroke="#e1ed5e" stroke-width="0.3" x1="15.007084014347285" x2="10.007500721073583" y1="101.09737516637583" y2="101.16192664675087" /><path d="M 14.007167355692545 101.11028546245083 a86.0,86.0 0 0,1 10.666146001902534,-42.60595125391555" fill="none" id="id106" stroke="none" /><text fill="#e1ed5e" style="font-size:6.75px; font-family:Arial;" text-anchor="middle"><textPath startOffset="22.20632615414155" xlink:href="#id106">October</textPath></text><line stroke="#e1ed5e" stroke-width="0.3" x1="26.266209847984243" x2="21.928928074336255" y1="57.711370442889674" y2="55.22380399835377" /><path d="M 25.398753493254645 57.213857153982495 a86.0,86.0 0 0,1 29.58750427330803,-30.492523968695096" fill="none" id="id107" stroke="none" /><text fill="#e1ed5e" style="font-size:6.75px; font-family:Arial;" text-anchor="middle"><textPath startOffset="21.46611528233685" xlink:href="#id107">November</textPath></text><line stroke="#e1ed5e" stroke-width="0.3" x1="56.762969772571076" x2="54.21961505331055" y1="26.818313649435495" y2="22.513508569990535" /><path d="M 56.25429882871897 25.957352633546506 a86.0,86.0 0 0,1 42.265352541879196,-11.944610805530505" fill="none" id="id108" stroke="none" /><text fill="#e1ed5e" style="font-size:6.75px; font-family:Arial;" text-anchor="middle"><textPath startOffset="22.20632615414155" xlink:href="#id108">December</textPath></text></svg>