<?xml version="1.0" encoding="utf-8" ?>
<svg baseProfile="full" height="200mm" version="1.1" viewBox="0,0,200,200" width="200mm" xmlns="http://www.w3.org/2000/svg" xmlns:ev="http://www.w3.org/2001/xml-events" xmlns:xlink="http://www.w3.org/1999/xlink"><defs /><rect fill="#1a1a1a" height="200" width="200" x="0" y="0" /><text alignment-baseline="middle" fill="#e1ed5e" style="dominant-baseline: central; font-size:9.0px; font-family:Arial;" text-anchor="middle" x="100.0" y="100.0">2024</text><line stroke="#e1ed5e" stroke-width="0.3" x1="100.0" x2="100.0" y1="15.0" y2="10.0" /><path d="M 100.0 14.0 a86.0,86.0 0 0,1 42.35913384403234,11.155469271406648" fill="none" id="id85" stroke="none" /><text fill="#e1ed5e" style="font-size:6.75px; font-family:Arial;" text-anchor="middle"><textPath startOffset="22.145653131862478" xlink:href="#id85">January</textPath></text><path d="M 100.0 79.0 l 0.0 -30.972299671841178 a51.97229967184118,51.97229967184118 0 0,0 0.8921736342772953,0.007658237631675021 l -0.5316807094284406 30.96773583240394" fill="#85ff25" stroke="none" /><path d="M 101.08105385017728 79.02784411241856 l 1.265766695874591 -24.555535747675915 a45.58813740777806,45.58813740777806 0 0,0 0.7811975581881097,0.04699490521593235 l -1.687108606195163 24.53018886463529" fill="#cdff1d" stroke="none" /><path d="M 102.15924093988457 79.11130261209362 l 5.684481811719944 -54.992204982193186 a76.28522354364978,76.28522354364978 0 0,0 1.3014408016213033,0.14582915636740676 l -6.627658514942043 54.886520065318805" fill="#43ffe2" stroke="none" /><path d="M 103.23170211078529 79.25015418208739 l 2.335720278338773 -14.996999719607318 a36.177799241278194,36.177799241278194 0 0,0 0.6128217657215338,0.10083958834344693 l -2.5928195471133773 14.954694132768203" fill="#ffbd11" stroke="none" /><path d="M 103.58742460773223 79.30868818359171 l 4.20952763452518 -24.279436757503966 a45.64165522377638,45.64165522377638 0 0,0 0.7708338005291235,0.14047159628131797 l -4.625696168605358 24.203596987291284" fill="#ccff1d" stroke="none" /><path d="M 104.29559338865022 79.4440306129975 l 7.582796554231091 -36.28642651524829 a58.07025158842833,58.07025158842833 0 0,0 0.9740250040869944,0.21228421620246402 l -8.20458397493722 36.150910840912104" fill="#46ff2d" stroke="none" /><path d="M 104.64783097203109 79.52079915486377 l 2.3042281623273695 -10.152854441843028 a31.411048013591824,31.411048013591824 0 0,0 0.5248155602524774,0.12385504322090043 l -2.478175876319732 10.1118032549759" fill="#ff7e0b" stroke="none" /><path d="M 104.9986988182912 79.60360301121754 l 4.544514905367119 -18.543171633411898 a40.09193101682686,40.09193101682686 0 0,0 0.6670432610310446,0.16955978850171044 l -4.862163459623559 18.46242661307492" fill="#ffef16" stroke="none" /><path d="M 105.3480935250658 79.69241777938227 l 5.349462692770687 -20.312781173405376 a42.00537621895874,42.00537621895874 0 0,0 0.6957262433185428,0.18962328137365214 l -5.697370337023923 20.21795739788758" fill="#f8ff18" stroke="none" /><path d="M 105.69591212413111 79.78721728523813 l 6.506161489781535 -23.088071872275687 a44.98727162706263,44.98727162706263 0 0,0 0.7415187449512789,0.21584529964533686 l -6.9015402471144185 22.972982878327834" fill="#d4ff1c" stroke="none" /><path d="M 106.04205211174951 79.88797359093562 l 5.5010840554760785 -18.31131969005513 a40.11978960597668,40.11978960597668 0 0,0 0.6578869218113085,0.20381505007833436 l -5.814611610159017 18.214188052170147" fill="#ffef16" stroke="none" /><path d="M 106.72888874123014 80.10723608172694 l 10.047995683339927 -29.705113825966848 a52.35850769194964,52.35850769194964 0 0,0 0.8489414120688268,0.29530589140019187 l -10.556442867453773 29.528249501998065" fill="#81ff25" stroke="none" /><path d="M 107.74402155503746 80.48000691201159 l 5.604255057309643 -14.12638371478281 a36.19744687783648,36.19744687783648 0 0,0 0.5756179000547399,0.2340987888240121 l -5.8459274185548225 14.028097669379504" fill="#ffbd11" stroke="none" /><path d="M 108.07796709384702 80.6158196554323 l 5.852469957127818 -14.043797380227154 a36.214455279633206,36.214455279633206 0 0,0 0.5717830067874005,0.24406016527828686 l -6.092688039085648 13.941262565289467" fill="#ffbe11" stroke="none" /><path d="M 109.06512990194946 81.05736502329252 l 19.01284778813857 -39.72953939037963 a65.04457607000721,65.04457607000721 0 0,0 1.0030485381602692,0.49064130341742246 l -19.692056575560905 39.397304336864984" fill="#35ff68" stroke="none" /><path d="M 109.3889696526874 81.21577127319529 l 6.77901658331559 -13.562574249811773 a36.16240370516908,36.16240370516908 0 0,0 0.5528934965301814,0.2823113588504438 l -7.0108373015593495 13.444204939288495" fill="#ffbd11" stroke="none" /><path d="M 109.71004243097381 81.37971332152246 l 8.82154654292911 -16.9164786605777 a40.07844159471222,40.07844159471222 0 0,0 0.6073051600610754,0.3233557911333457 l -9.110640518776744 16.76255240172178" fill="#ffef16" stroke="none" /><path d="M 110.02825361518725 81.54914285379988 l 9.104688963695235 -16.75160221070942 a40.06597854167151,40.06597854167151 0 0,0 0.6014777424988056,0.3336295646619156 l -9.39091089435014 16.59283973061436" fill="#ffee16" stroke="none" /><line stroke="#e1ed5e" stroke-width="0.3" x1="143.13028292997686" x2="145.6673583964461" y1="26.7553504044142" y2="22.446841604673864" /><path d="M 143.63769802327073 25.89364864446614 a86.0,86.0 0 0,1 29.32050498858742,28.57503671076993" fill="none" id="id86" stroke="none" /><text fill="#e1ed5e" style="font-size:6.75px; font-family:Arial;" text-anchor="middle"><textPath startOffset="20.669276256404974" xlink:href="#id86">February</textPath></text><path d="M 110.96478420261332 82.08984904055464 l 7.89343502136835 -12.893332892733584 a36.11768333837596,36.11768333837596 0 0,0 0.5260039595185474,0.32826537382421533 l -8.11360310967661 12.755931722067823" fill="#ffbc11" stroke="none" /><path d="M 112.45986205192187 83.09580414077388 l 13.529014317596243 -18.354706244251382 a43.80196197081481,43.80196197081481 0 0,0 0.6014364197204156,0.45132910185664454 l -13.842103726227425 18.119758115130722" fill="#e2ff1b" stroke="none" /><path d="M 113.59037401385872 83.9905735841838 l 7.143747347732128 -8.415316412931245 a32.03859939022971,32.03859939022971 0 0,0 0.4162279692053228,0.35952780637713694 l -7.28715479670031 8.291444474089388" fill="#ff860c" stroke="none" /><path d="M 113.86319453409587 84.22622945171908 l 14.206394665031647 -16.164269296906753 a42.519880373309746,42.519880373309746 0 0,0 0.5441228053140321,0.48655796773952253 l -14.481782497169055 15.918015799283845" fill="#f2ff19" stroke="none" /><path d="M 114.39649973595853 84.71141617570332 l 15.400538908085352 -16.354838631192376 a43.46457979379524,43.46457979379524 0 0,0 0.5388107624108334,0.5161685219970343 l -15.679022156361498 16.08805797888976" fill="#e6ff1a" stroke="none" /><path d="M 115.16444852881244 85.47280134310134 l 23.298835609410784 -22.319757472831828 a53.26464496008565,53.26464496008565 0 0,0 0.6268593461902138,0.6657029025142334 l -23.678550789337258 21.9165131103731" fill="#77ff27" stroke="none" /><path d="M 115.8921839302757 86.27271002978787 l 11.561011779007796 -9.986126622731874 a36.27677054483674,36.27677054483674 0 0,0 0.40302703745311763,0.4747648367227047 l -11.730733379968026 9.786195003559618" fill="#ffbe11" stroke="none" /><path d="M 116.57777611688842 87.10902102172516 l 4.126406674194652 -3.2087187882014008 a26.227151069425375,26.227151069425375 0 0,0 0.2733219119606487,0.3577871565077337 l -4.180880563509608 3.137410718452785" fill="#ff3605" stroke="none" /><path d="M 116.7966241395341 87.39550010848427 l 25.800665469063492 -19.361300366328543 a53.257313752414646,53.257313752414646 0 0,0 0.5424586597158112,0.735949354106605 l -26.12922614836313 18.91554470295306" fill="#77ff27" stroke="none" /><path d="M 117.42321728460499 88.27688183743584 l 18.671556112325252 -12.563056237446132 a43.50460818767891,43.50460818767891 0 0,0 0.4115858305343408,0.6231934060871025 l -18.884466381780317 12.24068295301997" fill="#e6ff1a" stroke="none" /><line stroke="#e1ed5e" stroke-width="0.3" x1="172.87174338648825" x2="177.1583165268699" y1="56.24261187166439" y2="53.66864786411523" /><path d="M 173.72905801456457 55.72781907015455 a86.0,86.0 0 0,1 12.242430191666344,42.057860355516425" fill="none" id="id87" stroke="none" /><text fill="#e1ed5e" style="font-size:6.75px; font-family:Arial;" text-anchor="middle"><textPath startOffset="22.145653131862474" xlink:href="#id87">March</textPath></text><path d="M 118.00360718960297 89.18935116829356 l 19.85353680400699 -11.921478412360994 a44.15781879116531,44.15781879116531 0 0,0 0.3846488552490427,0.6532178484847783 l -20.055259369385798 11.578909395582658" fill="#deff1b" stroke="none" /><path d="M 118.18653347947321 89.5 l 28.213104995485523 -16.288843763818747 a53.57768752763749,53.57768752763749 0 0,0 0.4530290325818468,0.8004588921686278 l -28.488567393088747 15.802128101551002" fill="#74ff27" stroke="none" /><path d="M 118.36410011445183 89.81374322990088 l 26.103546612753252 -14.479197278961946 a50.85033164987084,50.85033164987084 0 0,0 0.4168629079584505,0.7669807983957138 l -26.348254870327043 14.028961647091629" fill="#91ff23" stroke="none" /><path d="M 118.53625476483649 90.13048839642627 l 13.349235443845696 -7.10771597517126 a36.12354830451277,36.12354830451277 0 0,0 0.2867382867788619,0.5498584727587448 l -13.469281799599504 6.877511259308017" fill="#ffbc11" stroke="none" /><path d="M 118.8641267826498 90.77261029715802 l 16.039666456566515 -7.845804621842758 a38.855742779342286,38.855742779342286 0 0,0 0.2879409297066685,0.6016857988007732 l -16.171986644233094 7.569306320976881" fill="#ffdf14" stroke="none" /><path d="M 119.0197475246899 91.09779779509293 l 15.976906635525696 -7.477999026734729 a38.64035189796821,38.64035189796821 0 0,0 0.2760310984839443,0.6031777658693199 l -16.102922198864693 7.202632278650725" fill="#ffdd14" stroke="none" /><path d="M 119.16976305983485 91.42560881287824 l 21.451378445782098 -9.594928728279873 a44.49945306863407,44.49945306863407 0 0,0 0.3059149186612723,0.6999932010856813 l -21.612927246460337 9.225273457418343" fill="#daff1c" stroke="none" /><path d="M 119.31412917781788 91.75594674310238 l 29.961016478332354 -12.788576342434146 a53.57622128610329,53.57622128610329 0 0,0 0.3537922495131841,0.8489726052854947 l -30.17613457238202 12.272371227707373" fill="#74ff27" stroke="none" /><path d="M 119.58574465831526 92.42381321644754 l 16.694947640275757 -6.4579643955818495 a38.90046314613541,38.90046314613541 0 0,0 0.23556882369502827,0.6248742921109354 l -16.803347147785228 6.170421823276756" fill="#ffe015" stroke="none" /><path d="M 119.71291397450082 92.76114493625339 l 14.351333538812762 -5.270008462134627 a36.28835385295692,36.28835385295692 0 0,0 0.20971183109428898,0.5866013154075593 l -14.439685539950995 5.022872190346151" fill="#ffbf11" stroke="none" /><path d="M 119.83427380445688 93.10060997987247 l 23.760413994874344 -8.26510538306161 a46.15689249889451,46.15689249889451 0 0,0 0.2538949513590223,0.7505953095166001 l -23.898794367805735 7.8560083990708485" fill="#c6ff1e" stroke="none" /><path d="M 119.94978838288452 93.4421083053983 l 20.217599445775758 -6.645926510377662 a42.28190937230898,42.28190937230898 0 0,0 0.2207423405482547,0.6914722377669178 l -20.32870650210127 6.297885238919357" fill="#f4ff19" stroke="none" /><path d="M 120.26092885502905 94.47779374421319 l 29.85241588869951 -8.136408698262006 a51.94136197546955,51.94136197546955 0 0,0 0.22708397193701427,0.862274829241814 l -29.987689341441257 7.622753364647394" fill="#86ff25" stroke="none" /><path d="M 120.43855184770803 95.1765574152323 l 20.38741622447093 -4.811374716918833 a41.94745967835781,41.94745967835781 0 0,0 0.15937865083717606,0.7022517429232239 l -20.467005736865772 4.460688640056583" fill="#f9ff18" stroke="none" /><path d="M 120.592083275326 95.88100663000786 l 24.00197161996129 -4.801066538411948 a45.47743617194591,45.47743617194591 0 0,0 0.14655365348843488,0.7668306427308194 l -24.08085156573188 4.388333330647814" fill="#ceff1d" stroke="none" /><path d="M 120.65975698304385 96.23510406497455 l 9.96541050927631 -1.8160297600802942 a31.1295296390253,31.1295296390253 0 0,0 0.09129132210477496,0.5265440861755569 l -9.99511664887332 1.6446926409841447" fill="#ff7a0b" stroke="none" /><path d="M 120.77682067341334 96.94652285012252 l 30.943860458201367 -4.547681876997811 a52.27625154188098,52.27625154188098 0 0,0 0.12286284131099294,0.8889743156704285 l -31.017367816067573 4.015819253127297" fill="#82ff25" stroke="none" /><path d="M 120.86939407059847 97.66154086499901 l 15.236401361455037 -1.7072705526430365 a36.33175460236926,36.33175460236926 0 0,0 0.0641300580977641,0.620400137996948 l -15.263463812034466 1.445465892363157" fill="#ffbf11" stroke="none" /><path d="M 120.9064616781168 98.02013634271609 l 17.52908062288501 -1.6600221599036207 a38.60750808760211,38.60750808760211 0 0,0 0.05681991484073593,0.6603335389685993 l -17.554994160423487 1.3588675735593594" fill="#ffdc14" stroke="none" /><path d="M 120.96210409425399 98.7389718711861 l 19.077675968611857 -1.1476656122231177 a40.11216514999883,40.11216514999883 0 0,0 0.03544847755425888,0.6876909944157373 l -19.094566035622687 0.8200028244306496" fill="#ffef16" stroke="none" /><path d="M 120.98066250479742 99.09900007780936 l 29.650866229404283 -1.2733357757158366 a50.67819489375567,50.67819489375567 0 0,0 0.02986469163071234,0.8694779115913702 l -29.668355608031845 0.7641515995603464" fill="#93ff23" stroke="none" /><path d="M 120.99303781780057 99.45929381324524 l 22.36669494593952 -0.5760867216783313 a43.37411269113505,43.37411269113505 0 0,0 0.012782079201726533,0.7444920326964233 l -22.373288456739914 0.19204777301284162" fill="#e7ff1a" stroke="none" /><line stroke="#e1ed5e" stroke-width="0.3" x1="184.99686870605535" x2="189.99668451229388" y1="99.2704041080226" y2="99.22748670261217" /><path d="M 185.99683186730306 99.26182062694052 a86.0,86.0 0 0,1 -10.086455211305974,41.156179273409016" fill="none" id="id88" stroke="none" /><text fill="#e1ed5e" style="font-size:6.75px; font-family:Arial;" text-anchor="middle"><textPath startOffset="21.40746469413373" xlink:href="#id88">April</textPath></text><path d="M 120.99922638620191 99.81974689727618 l 17.842622402139693 -0.15315745397309705 a38.843279726301574,38.843279726301574 0 0,0 0.0,0.6668211133938456 l -17.842622402139693 -0.15315745397309488" fill="#ffdf14" stroke="none" /><path d="M 120.99303781780057 100.54070618675476 l 7.341968936348574 0.18910307604356125 a28.344403844811133,28.344403844811133 0 0,0 -0.016703374736540242,0.4863005304738279 l -7.337640874615189 -0.31510987108149985" fill="#ff5407" stroke="none" /><path d="M 120.98066250479742 100.90099992219065 l 31.75225290032373 1.3635783610754744 a52.78151837456653,52.78151837456653 0 0,0 -0.04664481367145994,0.9048969239642061 l -31.724166497195696 -1.9084470784164111" fill="#7cff26" stroke="none" /><path d="M 120.96210409425399 101.26102812881392 l 23.655363936745427 1.4230479529840256 a44.69812879651826,44.69812879651826 0 0,0 -0.052650221417121605,0.7655226642697093 l -23.627449754163237 -1.8289140414080782" fill="#d8ff1c" stroke="none" /><path d="M 120.82617615685814 102.69636545807757 l 18.942625512280877 2.452502117139423 a40.100728466032066,40.100728466032066 0 0,0 -0.09424718285377412,0.6819256659482723 l -18.89773381287189 -2.7773160912877803" fill="#ffef16" stroke="none" /><path d="M 120.77682067341334 103.0534771498775 l 18.871767018118668 2.7734998666747432 a40.074482742569884,40.074482742569884 0 0,0 -0.10587011932802504,0.6797621121851204 l -18.821375406652372 -3.0970501607913143" fill="#ffee16" stroke="none" /><path d="M 120.7213421655516 103.40968896794604 l 16.97281775415683 2.7928707025318595 a38.20106593432169,38.20106593432169 0 0,0 -0.1120295055979234,0.6461564176062405 l -16.92237343106667 -3.083820153058688" fill="#ffd714" stroke="none" /><path d="M 120.51834098615036 104.47187691870673 l 60.69760491109771 13.228760483410005 a83.1224544417809,83.1224544417809 0 0,0 -0.3158223345296199,1.3915714790689724 l -60.46157171501043 -14.268766296417994" fill="#4cdaff" stroke="none" /><path d="M 120.16314734710363 105.8691983318838 l 4.682240679712244 1.3629320221573993 a25.876572718597995,25.876572718597995 0 0,0 -0.12781015943174595,0.42543845274676434 l -4.6581542002768686 -1.443108078494887" fill="#ff3104" stroke="none" /><path d="M 119.83427380445688 106.89939002012753 l 58.58660509277378 20.37946246357692 a83.02993460097284,83.02993460097284 0 0,0 -0.4798332735445989,1.342179065286118 l -58.22813164918524 -21.38217648524396" fill="#4cdbff" stroke="none" /><path d="M 119.4528033332814 107.91128576633889 l 10.092214152811279 4.104415636659372 a31.894907719878045,31.894907719878045 0 0,0 -0.21061901864956267,0.5054089715974206 l -10.02026928962523 -4.27705711769807" fill="#ff840c" stroke="none" /><path d="M 119.31412917781788 108.2440532568976 l 4.4115885813982905 1.8830448361264351 a25.79666255498406,25.79666255498406 0 0,0 -0.17734114428482634,0.40579124357640023 l -4.378613555096498 -1.95849814947868" fill="#ff3004" stroke="none" /><path d="M 119.0197475246899 108.90220220490707 l 34.15546845441421 15.986483847370502 a58.7115856354877,58.7115856354877 0 0,0 -0.435082882044989,0.9091558872664122 l -33.87600631440931 -16.570452236702018" fill="#3fff2d" stroke="none" /><path d="M 118.70294669586154 109.54985784667822 l 6.558415238947944 3.34877355156553 a28.363904857216003,28.363904857216003 0 0,0 -0.225144479621912,0.4317442260874064 l -6.499962690351083 -3.4608640207574393" fill="#ff5407" stroke="none" /><line stroke="#e1ed5e" stroke-width="0.3" x1="174.33088141563837" x2="178.70328620479359" y1="141.23008692659167" y2="143.65538615756765" /><path d="M 175.20536237346943 141.71514677278685 a86.0,86.0 0 0,1 -30.301960400862466,31.631185727798858" fill="none" id="id89" stroke="none" /><text fill="#e1ed5e" style="font-size:6.75px; font-family:Arial;" text-anchor="middle"><textPath startOffset="22.145653131862474" xlink:href="#id89">May</textPath></text><path d="M 118.00360718960297 110.81064883170644 l 23.576232083547747 14.156849966002067 a48.50009309470059,48.50009309470059 0 0,0 -0.43472720225323164,0.7100942138630524 l -23.329736916839114 -14.559481295989677" fill="#acff21" stroke="none" /><path d="M 117.62189284568427 111.42229804090321 l 30.76746317724792 19.943097909547767 a57.665568924988946,57.665568924988946 0 0,0 -0.5455590124346518,0.8260458790315446 l -30.42057972589254 -20.468323666918373" fill="#4aff2c" stroke="none" /><path d="M 117.21940702142032 112.02048342749411 l 12.396794824300073 8.653925570966177 a36.118563083296486,36.118563083296486 0 0,0 -0.3592677376616089,0.5053550653524715 l -12.246411988108504 -8.865457863028151" fill="#ffbc11" stroke="none" /><path d="M 116.79662413953412 112.60449989151573 l 15.235879338242656 11.433287895870782 a40.04867689156795,40.04867689156795 0 0,0 -0.41736065463314326,0.5463384943717889 l -15.03736670625521 -11.69314730348345" fill="#ffee16" stroke="none" /><path d="M 116.57777611688842 112.89097897827486 l 18.054910100259544 14.039607298109269 a43.871168571229084,43.871168571229084 0 0,0 -0.4674025303031821,0.5905478282020685 l -17.8112411393148 -14.34747507022602" fill="#e1ff1b" stroke="none" /><path d="M 116.35404254752997 113.17365903436017 l 15.177778598711425 12.22614406054802 a40.48957572090209,40.48957572090209 0 0,0 -0.44066768184241006,0.5375429202849334 l -14.965664097630388 -12.484889262531446" fill="#fff417" stroke="none" /><path d="M 116.1254893667686 113.45245675266167 l 27.110502836764574 22.61654568487494 a56.30562990201783,56.30562990201783 0 0,0 -0.6255433124427207,0.7368884491512386 l -26.71826496081474 -23.078600916475736" fill="#57ff2a" stroke="none" /><path d="M 115.6541949942343 113.99807769240083 l 14.35688641938687 12.838016365170605 a40.25966904833942,40.25966904833942 0 0,0 -0.46509944164153094,0.5112257597940929 l -14.134389276903459 -13.082579700522368" fill="#fff116" stroke="none" /><path d="M 115.41159269507618 114.26474011684316 l 14.057559078023266 13.011466815447132 a40.154979402797494,40.154979402797494 0 0,0 -0.4725747098020019,0.5018579652389056 l -13.832128534485005 -13.250866240630534" fill="#ffef16" stroke="none" /><path d="M 115.16444852881244 114.52719865689866 l 11.013821757610222 10.550992101062997 a36.25213768706217,36.25213768706217 0 0,0 -0.4343579204077663,0.44568949118263973 l -10.83107703605165 -10.738504284313374" fill="#ffbe11" stroke="none" /><path d="M 114.91283532996324 114.78537596483092 l 12.11470470808684 12.011160845589018 a38.059720250424746,38.059720250424746 0 0,0 -0.4639807572239016,0.4600151335553716 l -11.906732030732973 -12.217355989373052" fill="#ffd513" stroke="none" /><path d="M 114.65682725009322 115.03919595460226 l 11.351869107908438 11.648017749799514 a37.26472409058114,37.26472409058114 0 0,0 -0.4619539517817146,0.4425414359857313 l -11.150242670261413 -11.841171316090826" fill="#ffcb12" stroke="none" /><path d="M 114.39649973595853 115.28858382429668 l 15.685607495032391 16.65757159178333 a43.880405892894544,43.880405892894544 0 0,0 -0.552830905805669,0.5116920331275252 l -15.397346817912755 -16.924381371043236" fill="#e1ff1b" stroke="none" /><path d="M 113.86319453409587 115.77377054828091 l 9.700719316268914 11.037637845430538 a35.69467265575907,35.69467265575907 0 0,0 -0.4637256744589887,0.4005551929086107 l -9.509814162047071 -11.202537170803867" fill="#ffb711" stroke="none" /><path d="M 113.59037401385872 116.0094264158162 l 12.340364515807439 14.536918370215952 a40.068471152279656,40.068471152279656 0 0,0 -0.5281895812307008,0.44063453437608063 l -12.089000600414844 -14.746615088503903" fill="#ffee16" stroke="none" /><path d="M 113.31354834802062 116.24036423190432 l 9.669806131935054 11.79559119247688 a36.25257755952242,36.25257755952242 0 0,0 -0.48466110583201805,0.3904086794987126 l -9.465894255747784 -11.959848165768998" fill="#ffbe11" stroke="none" /><path d="M 113.03279911837588 116.46651593811092 l 10.608899280947961 13.40399767608118 a38.094323550631884,38.094323550631884 0 0,0 -0.5162507451598936,0.40143970195105183 l -10.377238591152837 -13.584138429653025" fill="#ffd614" stroke="none" /><path d="M 112.7482090630111 116.68781488649013 l 17.99518879154059 23.55627978144727 a50.6432983452417,50.6432983452417 0 0,0 -0.6953735099786085,0.5218212456429574 l -17.588162292651216 -23.861720054354244" fill="#94ff23" stroke="none" /><path d="M 112.45986205192187 116.90419585922612 l 8.889254808099542 12.05998137800445 a35.9820559964624,35.9820559964624 0 0,0 -0.5003544588930601,0.3622180420029952 l -8.680919338832513 -12.210800191380523" fill="#ffbb11" stroke="none" /><path d="M 111.8722381534696 117.32195027204791 l 11.84543602390769 17.282845164025744 a41.95259152372751,41.95259152372751 0 0,0 -0.5975321832712902,0.4020463199189818 l -11.547007552539396 -17.483641158001845" fill="#f8ff18" stroke="none" /><path d="M 111.5731344415666 117.5232005979908 l 9.90666988062512 14.999960853541122 a38.97612120930016,38.97612120930016 0 0,0 -0.5614684126050283,0.36393704158166756 l -9.647715835763083 -15.167811736826684" fill="#ffe115" stroke="none" /><path d="M 111.27062007382361 117.71928675628689 l 11.28515197858982 17.742133324264607 a42.0270765936649,42.0270765936649 0 0,0 -0.6120660754497564,0.3819744992918616 l -10.978921774350349 -17.933243620398013" fill="#f8ff18" stroke="none" /><line stroke="#e1ed5e" stroke-width="0.3" x1="143.1302829299769" x2="145.66735839644613" y1="173.24464959558577" y2="177.55315839532614" /><path d="M 143.63769802327073 174.10635135553383 a86.0,86.0 0 0,1 -40.68552437913181,11.842963189579606" fill="none" id="id90" stroke="none" /><text fill="#e1ed5e" style="font-size:6.75px; font-family:Arial;" text-anchor="middle"><textPath startOffset="21.407464694133747" xlink:href="#id90">June</textPath></text><path d="M 110.65571695917076 118.09573695890943 l 13.535986988158248 22.987065155303643 a47.676358600786656,47.676358600786656 0 0,0 -0.7088056314359173,0.4092291221126511 l -13.139388888861932 -23.216041174692464" fill="#b5ff20" stroke="none" /><path d="M 110.34350942703117 118.27599006163325 l 3.6109721741212413 6.380241835001252 a28.331207671003327,28.331207671003327 0 0,0 -0.42531323213525896,0.23591408036602413 l -3.500914753829888 -6.44128883080042" fill="#ff5407" stroke="none" /><path d="M 109.71004243097381 118.62028667847754 l 9.593545424592934 18.39688830803615 a41.748050829706514,41.748050829706514 0 0,0 -0.6382934603779264,0.32591718888993493 l -9.276324742501425 -18.55886344859892" fill="#fbff18" stroke="none" /><path d="M 109.3889696526874 118.78422872680471 l 9.705380574024495 19.417262524752278 a42.707705913840854,42.707705913840854 0 0,0 -0.6585929922727174,0.3221508350362934 l -9.370627332489708 -19.581007109885793" fill="#efff19" stroke="none" /><path d="M 108.73861861582097 119.09545874513695 l 9.128904396158447 19.948303610543377 a42.937905834710364,42.937905834710364 0 0,0 -0.6728709199833502,0.30096660393597235 l -8.78512007331947 -20.102073965389202" fill="#edff1a" stroke="none" /><path d="M 108.4095320186766 119.2426549942271 l 17.620383794163434 40.31888640936711 a65.00102869644147,65.00102869644147 0 0,0 -1.0262886282657266,0.43806158851252475 l -16.925660090727277 -40.61542264753904" fill="#35ff67" stroke="none" /><path d="M 108.07796709384702 119.3841803445677 l 3.441036882227806 8.257235851854274 a29.945539600158263,29.945539600158263 0 0,0 -0.47619901698656386,0.19366599458623648 l -3.298783404050801 -8.315089103019803" fill="#ff6a09" stroke="none" /><path d="M 107.74402155503746 119.51999308798841 l 3.5904886403211513 9.050376854385018 a30.736576907859522,30.736576907859522 0 0,0 -0.4921185577344399,0.19036203004237753 l -3.434597820093182 -9.110678772565436" fill="#ff750a" stroke="none" /><path d="M 107.407793817531 119.65005319985036 l 7.2392663788772245 19.20301414655705 a41.522249633439614,41.522249633439614 0 0,0 -0.6691228439848292,0.24571117662835473 l -6.908554383238268 -19.324456172194125" fill="#feff18" stroke="none" /><path d="M 107.06938296918513 119.77432235084164 l 7.897563808286996 22.090891554770156 a44.46015779551749,44.46015779551749 0 0,0 -0.7208774811114873,0.2507586084547092 l -7.517180555130487 -22.223208595793455" fill="#daff1b" stroke="none" /><path d="M 106.38641147887787 120.00534299687104 l 6.241120506256956 19.550221094493825 a41.522249633439614,41.522249633439614 0 0,0 -0.6808845526436997,0.21093977489712612 l -5.904595320741632 -19.654477457197594" fill="#feff18" stroke="none" /><path d="M 104.9986988182912 120.39639698878246 l 4.885327347198857 19.93380269861632 a41.52371587497382,41.52371587497382 0 0,0 -0.6937779408461549,0.16372970498029965 l -4.5424172526128235 -20.014728547242843" fill="#feff18" stroke="none" /><path d="M 104.64783097203109 120.47920084513623 l 4.71441090461388 20.77256431291805 a42.30082388810017,42.30082388810017 0 0,0 -0.7095209514935206,0.15463678903008607 l -4.357127536501223 -20.850432560081853" fill="#f4ff19" stroke="none" /><path d="M 104.29559338865022 120.5559693870025 l 2.397582345674809 11.47329945863324 a32.721134824400124,32.721134824400124 0 0,0 -0.5508112456114658,0.11017767549091366 l -2.200274614532385 -11.512766530787015" fill="#ff900d" stroke="none" /><path d="M 103.94208987418118 120.62667999033965 l 3.5719369289584706 18.689883369187946 a40.028149510089136,40.028149510089136 0 0,0 -0.6760283005454231,0.12319487604692636 l -3.2505738948619904 -18.748446419166235" fill="#ffee16" stroke="none" /><path d="M 103.2317021107853 120.74984581791261 l 1.6070134591439669 10.318179201375962 a31.44257220657714,31.44257220657714 0 0,0 -0.5340369581525536,0.07848504227576972 l -1.4296513953837278 -10.344245316950614" fill="#ff7e0b" stroke="none" /><path d="M 101.44090949804482 120.95050786540614 l 1.3191832128491292 19.18063439390821 a40.225945493052805,40.225945493052805 0 0,0 -0.6893111274517458,0.04146724571696897 l -0.9897277332649184 -19.20045361744987" fill="#fff016" stroke="none" /><line stroke="#e1ed5e" stroke-width="0.3" x1="101.45913802915013" x2="101.54496967792366" y1="184.9874750549273" y2="189.98673829345242" /><path d="M 101.47630435890484 185.9873277026323 a86.0,86.0 0 0,1 -42.54439059252881,-10.42667462771756" fill="none" id="id91" stroke="none" /><text fill="#e1ed5e" style="font-size:6.75px; font-family:Arial;" text-anchor="middle"><textPath startOffset="22.145653131862474" xlink:href="#id91">July</textPath></text><path d="M 100.0 121.0 l 1.8661961821000342e-15 15.238648264947514 a36.238648264947514,36.238648264947514 0 0,0 -0.6220845859809386,-0.005339847988562638 l 0.2615916611320846 -15.236402815153387" fill="#ffbe11" stroke="none" /><path d="M 99.63950707515114 120.99690560180557 l -0.09581458447334812 5.580719195270319 a26.581541648241675,26.581541648241675 0 0,0 -0.4561730334047768,-0.011749399183355488 l 0.19160093194886882 -5.578252078736916" fill="#ff3b05" stroke="none" /><path d="M 98.91894614982273 120.97215588758144 l -1.0565353365040353 20.496503272494326 a41.52371587497382,41.52371587497382 0 0,0 -0.7115496989550917,-0.04280506295536346 l 1.4082293875915732 -20.47534623171427" fill="#feff18" stroke="none" /><path d="M 98.19965949673042 120.92268563240118 l -1.3712789734099124 15.936340277226565 a36.995228896595066,36.995228896595066 0 0,0 -0.6322668477932986,-0.05987632785138886 l 1.6446453845882263 -15.910452193869993" fill="#ffc812" stroke="none" /><path d="M 97.48249496171623 120.84855314841334 l -2.460231754719118 20.374248200370094 a41.522249633439614,41.522249633439614 0 0,0 -0.7069107204257862,-0.09152374560478901 l 2.8096202970356985 -20.32901285856491" fill="#feff18" stroke="none" /><path d="M 97.12497278360702 120.80226474461374 l -2.3418019065636746 16.944112028579884 a38.10517373798497,38.10517373798497 0 0,0 -0.6471980389903147,-0.095115824243085 l 2.632325051161674 -16.901415131037915" fill="#ffd614" stroke="none" /><path d="M 96.76829788921471 120.74984581791261 l -2.2775500916261437 14.623505392435918 a35.799802173761265,35.799802173761265 0 0,0 -0.6064188104503201,-0.09978598449017699 l 2.5282464051295275 -14.582253409450074" fill="#ffb811" stroke="none" /><path d="M 96.41257539226777 120.69131181640829 l -4.006515487209779 23.10851664016749 a44.45326646030675,44.45326646030675 0 0,0 -0.7507633139843117,-0.1368140850497709 l 4.402613534745147 -23.03633438118635" fill="#daff1b" stroke="none" /><path d="M 95.70440661134978 120.55596938700252 l -4.6513517397920605 22.258401883189087 a43.73920683315102,43.73920683315102 0 0,0 -0.7336472625668986,-0.15989500623660421 l 5.032761418978096 -22.175275418818767" fill="#e3ff1b" stroke="none" /><path d="M 95.00130118170881 120.39639698878247 l -4.885676361476193 19.935226795969324 a41.52518211650802,41.52518211650802 0 0,0 -0.6908894680647651,-0.1756214010798163 l 5.227171122766338 -19.848420163054247" fill="#feff18" stroke="none" /><path d="M 94.6519064749342 120.30758222061772 l -4.441517799745987 16.865166527088526 a38.44020992854982,38.44020992854982 0 0,0 -0.6366771411964011,-0.1735291860105656 l 4.730376341877084 -16.786436846933817" fill="#ffda14" stroke="none" /><path d="M 94.30408787586889 120.21278271476187 l -3.9763477114849732 14.110655245203056 a35.660215979705356,35.660215979705356 0 0,0 -0.58778222465164,-0.1710948391661666 l 4.21798994851822 -14.040316711734373" fill="#ffb610" stroke="none" /><path d="M 93.95794788825049 120.11202640906438 l -6.076504197475264 20.226706197511813 a42.11974305862638,42.11974305862638 0 0,0 -0.690682288727523,-0.2139751385810225 l 6.42282711907442 -20.11941447112414" fill="#f6ff19" stroke="none" /><path d="M 93.27111125876986 119.89276391827306 l -4.778048164752746 14.125450395571272 a35.91167640282077,35.91167640282077 0 0,0 -0.582272311016546,-0.20254453534474548 l 5.019826247814314 -14.041347427657936" fill="#ffba11" stroke="none" /><path d="M 91.92203290615298 119.3841803445677 l -0.5821167294127703 1.3968682384361228 a22.513307887448505,22.513307887448505 0 0,0 -0.3554582493984192,-0.15172398981413596 l 0.6060100539816206 -1.386669598962583" fill="#ff0000" stroke="none" /><path d="M 90.93487009805054 118.94263497670748 l -6.601149658998188 13.793863934606067 a36.29201945679242,36.29201945679242 0 0,0 -0.5596570730792277,-0.27375631921662724 l 6.836966981339485 -13.678513865292219" fill="#ffbf11" stroke="none" /><path d="M 90.28995756902619 118.62028667847754 l -9.492189639215981 18.202525225314595 a41.52884772034352,41.52884772034352 0 0,0 -0.6292830386719073,-0.33505777358468036 l 9.80326149367445 -18.036896984007342" fill="#feff18" stroke="none" /><path d="M 89.97174638481275 118.45085714620012 l -3.936008439435865 7.241812206692297 a29.24233016035562,29.24233016035562 0 0,0 -0.43899116832905705,-0.2435010010039382 l 4.059743795921025 -7.173178290255211" fill="#ff6008" stroke="none" /><line stroke="#e1ed5e" stroke-width="0.3" x1="58.13341422392154" x2="55.67067388415222" y1="173.97424548756322" y2="178.32567169271397" /><path d="M 57.64086615596768 174.84453072859336 a86.0,86.0 0 0,1 -31.369924170532247,-30.572349798747897" fill="none" id="id92" stroke="none" /><text fill="#e1ed5e" style="font-size:6.75px; font-family:Arial;" text-anchor="middle"><textPath startOffset="22.145653131862474" xlink:href="#id92">August</textPath></text><path d="M 89.65649057296885 118.27599006163327 l -7.257837411653241 12.823903273842424 a35.73528754625643,35.73528754625643 0 0,0 -0.5312774254817005,-0.3067331646162335 l 7.476907304995341 -12.697423211950019" fill="#ffb711" stroke="none" /><path d="M 86.68645165197938 116.24036423190432 l -1.663271724284681 2.0289210594279163 a23.623545977145252,23.623545977145252 0 0,0 -0.3114097068847798,-0.2597890531533071 l 1.6978557653313535 -2.000069822362739" fill="#ff1001" stroke="none" /><path d="M 86.13680546590413 115.77377054828092 l -10.163782988280788 11.564519300754231 a36.39612260572067,36.39612260572067 0 0,0 -0.46575766819912606,-0.41648337890795983 l 10.360805683303285 -11.388340391962888" fill="#ffc011" stroke="none" /><path d="M 85.86807049272751 115.53346607816431 l -11.832082716023326 13.005531580722922 a38.58243535736728,38.58243535736728 0 0,0 -0.4860839878934637,-0.44991208238161706 l 12.053596475230757 -12.800501752208927" fill="#ffdc14" stroke="none" /><path d="M 85.60350026404147 115.28858382429668 l -8.056906741238757 8.556155755714913 a32.75251239323201,32.75251239323201 0 0,0 -0.40601810157121765,-0.3889561568041971 l 8.20259732867529 -8.416587468605135" fill="#ff900d" stroke="none" /><path d="M 85.34317274990678 115.03919595460226 l -6.247580493994395 6.410567968639665 a29.951404566295064,29.951404566295064 0 0,0 -0.36513340821085105,-0.36201262860258554 l 6.356705822335208 -6.30237532980842" fill="#ff6a09" stroke="none" /><path d="M 84.3458050057657 113.99807769240083 l -9.499193010558594 8.494236964972346 a33.74310517373799,33.74310517373799 0 0,0 -0.38240408090624833,-0.4351056471223925 l 9.643608155423435 -8.329919040038654" fill="#ff9d0e" stroke="none" /><path d="M 84.1078160697243 113.72728997021213 l -12.409862341532122 10.719343521320019 a37.398445318500244,37.398445318500244 0 0,0 -0.4154886004375284,-0.4894445265841821 l 12.592045505476761 -10.504732212286282" fill="#ffcd13" stroke="none" /><path d="M 83.20337586046588 112.60449989151573 l -25.26917176040079 18.96245757878216 a52.5928130891149,52.5928130891149 0 0,0 -0.535690309722227,-0.7267667874410584 l 25.590964089706848 -18.52588448207222" fill="#7eff26" stroke="none" /><path d="M 82.78059297857968 112.02048342749411 l -19.232218522457945 13.425582178037297 a44.454732701840946,44.454732701840946 0 0,0 -0.4314443224650753,-0.6294901603463333 l 19.459852581738346 -13.093457282620912" fill="#daff1b" stroke="none" /><path d="M 82.576782715395 111.72311816256416 l -15.023860180943869 10.108723623315619 a39.10808294737822,39.10808294737822 0 0,0 -0.36999144391929184,-0.5602142033407814 l 15.195176063783887 -9.849329541635775" fill="#ffe215" stroke="none" /><path d="M 82.37810715431573 111.42229804090323 l -12.301940718521715 7.9739693459145995 a35.660215979705356,35.660215979705356 0 0,0 -0.3285533764225104,-0.5165404790014988 l 12.437011786570116 -7.761615192234429" fill="#ffb610" stroke="none" /><path d="M 82.18462484594161 111.11811171558189 l -4.283949451712505 2.673501297400148 a26.049735843787094,26.049735843787094 0 0,0 -0.2334949906321453,-0.38139651936782265 l 4.329212406800056 -2.599567661907768" fill="#ff3304" stroke="none" /><line stroke="#e1ed5e" stroke-width="0.3" x1="26.387840678322732" x2="22.057713659400548" y1="142.50000000000003" y2="145.00000000000006" /><path d="M 25.521815274538298 143.00000000000003 a86.0,86.0 0 0,1 -11.493303480769221,-40.785679425670985" fill="none" id="id93" stroke="none" /><text fill="#e1ed5e" style="font-size:6.75px; font-family:Arial;" text-anchor="middle"><textPath startOffset="21.40746469413373" xlink:href="#id93">September</textPath></text><path d="M 81.4637452351635 109.86951160357371 l -10.445263900009257 5.561514694926041 a32.83359555007331,32.83359555007331 0 0,0 -0.26062359260653495,-0.49978010333181955 l 10.539195561590741 -5.381388348489719" fill="#ff910d" stroke="none" /><path d="M 81.29705330413844 109.54985784667822 l -12.747402990271025 6.508914795674737 a35.31300998440664,35.31300998440664 0 0,0 -0.27103590543054573,-0.5422533706163083 l 12.857258808913308 -6.289129568894676" fill="#ffb210" stroke="none" /><path d="M 81.1358732173502 109.22738970284198 l -13.165858308890606 6.440081048451722 a35.656550375869855,35.656550375869855 0 0,0 -0.26423327752774506,-0.5521459238913652 l 13.274470844378262 -6.213122622495252" fill="#ffb610" stroke="none" /><path d="M 80.9802524753101 108.90220220490708 l -19.97943315863055 9.351383538959691 a43.05960388204902,43.05960388204902 0 0,0 -0.3076004533092804,-0.6721625035241344 l 20.137018076794885 -9.007032053220868" fill="#ebff1a" stroke="none" /><path d="M 80.68587082218212 108.24405325689762 l -13.355998798381968 5.700881690248773 a35.52180277887681,35.52180277887681 0 0,0 -0.23456933337629826,-0.5628810081356456 l 13.451893976294752 -5.470768172671846" fill="#ffb510" stroke="none" /><path d="M 80.5471966667186 107.91128576633889 l -9.594835938322415 3.9021362468276504 a31.357970070053764,31.357970070053764 0 0,0 -0.19851286149931235,-0.500382089177261 l 9.660407474787853 -3.736853140436824" fill="#ff7d0b" stroke="none" /><path d="M 80.41425534168474 107.57618678355246 l -22.06934671968401 8.536897414738853 a44.662938999697445,44.662938999697445 0 0,0 -0.2704645434013849,-0.7174393344929493 l 22.212641946899833 -8.15678980005176" fill="#d8ff1c" stroke="none" /><path d="M 80.16572619554312 106.89939002012753 l -4.646446491636398 1.6162752853723934 a25.91953359555007,25.91953359555007 0 0,0 -0.14257542839670614,-0.42149892006147915 l 4.673507341605472 -1.5362746908367526" fill="#ff3104" stroke="none" /><path d="M 79.94057633289273 106.21446072829308 l -15.450382771687146 4.786568077187039 a37.17484348453465,37.17484348453465 0 0,0 -0.1836148366430964,-0.6111940736957244 l 15.530273928333871 -4.5206363999005905" fill="#ffca12" stroke="none" /><path d="M 79.83685265289637 105.86919833188381 l -36.98391526395276 10.765478723980278 a59.51889822421859,59.51889822421859 0 0,0 -0.2771356008773329,-0.9834564791346625 l 37.163269356904664 -10.12901432094262" fill="#37ff2e" stroke="none" /><path d="M 79.64726062577567 105.17358676015961 l -25.642831615510367 6.518307521149724 a47.45832848465101,47.45832848465101 0 0,0 -0.19392935974619743,-0.7912979663207651 l 25.75094850177286 -6.07715373022086" fill="#b7ff1f" stroke="none" /><path d="M 79.48165901384964 104.47187691870673 l -20.21773131708384 4.40636044047167 a41.6923336514069,41.6923336514069 0 0,0 -0.1464041964061443,-0.7005970787191059 l 20.29039322431435 -4.0586469104671545" fill="#fcff18" stroke="none" /><path d="M 79.2786578344484 103.40968896794605 l -30.01790261718515 4.939434452506196 a51.42157935159541,51.42157935159541 0 0,0 -0.13584726163429459,-0.8722368699422863 l 30.098271370957715 -4.42340940063246" fill="#8bff24" stroke="none" /><path d="M 79.13060592940153 102.33845913500099 l -7.629493380058201 0.8549006468358372 a28.677240673074685,28.677240673074685 0 0,0 -0.050618890570396896,-0.48969184851278885 l 7.643044663110264 -0.723804276040117" fill="#ff5808" stroke="none" /><path d="M 79.03789590574601 101.26102812881392 l -44.03885990253373 2.649268453600186 a65.11847464333093,65.11847464333093 0 0,0 -0.05754739935203323,-1.1164041735181554 l 44.077848891342335 -1.8928924867052996" fill="#35ff69" stroke="none" /><path d="M 79.01933749520258 100.90099992219065 l -14.879634095409019 0.6389955111819431 a35.89334838364326,35.89334838364326 0 0,0 -0.02115197242756002,-0.6158165984021066 l 14.888410754833426 -0.3834726482157166" fill="#ffb911" stroke="none" /><line stroke="#e1ed5e" stroke-width="0.3" x1="15.003131293944662" x2="10.003315487706104" y1="100.72959589197737" y2="100.7725132973878" /><path d="M 14.003168132696942 100.73817937305945 a86.0,86.0 0 0,1 10.791469493833604,-42.45332614584628" fill="none" id="id94" stroke="none" /><text fill="#e1ed5e" style="font-size:6.75px; font-family:Arial;" text-anchor="middle"><textPath startOffset="22.145653131862435" xlink:href="#id94">October</textPath></text><path d="M 79.00077361379809 100.18025310272382 l -23.504452128182283 0.20175745267988784 a44.505318034770866,44.505318034770866 0 0,0 0.0,-0.7640211108074022 l 23.504452128182283 0.2017574526798792" fill="#daff1c" stroke="none" /><path d="M 79.00077361379809 99.81974689727619 l -20.78863298545681 -0.1784454116594226 a41.789398840970975,41.789398840970975 0 0,0 0.012315073960855974,-0.7172913186679665 l 20.78250647989729 0.5352836462964414" fill="#faff18" stroke="none" /><path d="M 79.00696218219943 99.45929381324524 l -22.524117078853042 -0.580141357407434 a43.5315870319082,43.5315870319082 0 0,0 0.025653191192557583,-0.7468646714846434 l 22.510839200663632 0.966712293456216" fill="#e5ff1a" stroke="none" /><path d="M 79.01933749520258 99.09900007780938 l -22.86285259698427 -0.9818292633146476 a43.88392487257663,43.88392487257663 0 0,0 0.03878170924010958,-0.7523547986411842 l 22.842629298287587 1.3741558553325437" fill="#e1ff1b" stroke="none" /><path d="M 79.03789590574601 98.7389718711861 l -29.625077683084 -1.782171107856798 a50.678634766215936,50.678634766215936 0 0,0 0.05969469893707941,-0.8679478213595622 l 29.590119022981856 2.2904623533706854" fill="#93ff23" stroke="none" /><path d="M 79.0935383218832 98.0201363427161 l -27.78048214399981 -2.630840542295155 a48.90477575813997,48.90477575813997 0 0,0 0.08632300159880849,-0.8350967345541538 l 27.731226749919337 3.1073417991322216" fill="#a7ff21" stroke="none" /><path d="M 79.17382384314186 97.30363454192245 l -20.594197943143598 -2.6663312339465737 a41.766085600577185,41.766085600577185 0 0,0 0.09816120697205039,-0.7102455946991876 l 20.545392219616343 3.0194651368458283" fill="#fbff18" stroke="none" /><path d="M 79.22317932658666 96.9465228501225 l -23.309187603072512 -3.4256478816927984 a44.559568971536294,44.559568971536294 0 0,0 0.1177189713096565,-0.7558402417000901 l 23.246947139624588 3.825276305324339" fill="#d9ff1c" stroke="none" /><path d="M 79.2786578344484 96.59031103205396 l -23.27081909803907 -3.8292044269970957 a44.58376195685061,44.58376195685061 0 0,0 0.13074757699978215,-0.754117279318246 l 23.20165670354705 4.228114739235934" fill="#d9ff1c" stroke="none" /><path d="M 79.407916724674 95.88100663000787 l -43.18888376015438 -8.638986327264668 a65.0444294458538,65.0444294458538 0 0,0 0.22840595835524863,-1.093005194617558 l 43.03422009097477 9.379107973167635" fill="#35ff68" stroke="none" /><path d="M 79.56144815229197 95.17655741523228 l -23.077387846850634 -5.446200695387466 a44.71132497032606,44.71132497032606 0 0,0 0.1827042565922514,-0.7454957148768236 l 22.980496063742084 5.841552234872408" fill="#d7ff1c" stroke="none" /><path d="M 79.64726062577567 94.8264132398404 l -18.076455503746168 -4.594964301622883 a39.65132543579956,39.65132543579956 0 0,0 0.17335279881150226,-0.6582488130656677 l 17.99491322412994 4.904593619061336" fill="#ffe915" stroke="none" /><path d="M 79.73907114497095 94.47779374421319 l -22.891685530668664 -6.2392306861876925 a44.72672050643517,44.72672050643517 0 0,0 0.20825934169894975,-0.7390389335970293 l 22.781207696895134 6.631277543687736" fill="#d7ff1c" stroke="none" /><path d="M 79.94057633289273 93.78553927170692 l -28.646688941574592 -8.87481746122945 a50.98991784392673,50.98991784392673 0 0,0 0.2662044826339625,-0.8338817503398241 l 28.490119743163373 9.365268245260665" fill="#90ff24" stroke="none" /><path d="M 80.05021161711548 93.44210830539832 l -13.965919769275494 -4.590875226575348 a35.701124118509554,35.701124118509554 0 0,0 0.19638096675915734,-0.580565433612435 l 13.885053380943972 4.829942334661944" fill="#ffb711" stroke="none" /><path d="M 80.41425534168474 92.42381321644754 l -22.269684997369904 -8.614392564304124 a44.877743384457844,44.877743384457844 0 0,0 0.2841003176218931,-0.7161183884705565 l 22.118526004781877 8.995411969988263" fill="#d5ff1c" stroke="none" /><path d="M 80.5471966667186 92.08871423366112 l -19.64182154241038 -7.988157826465167 a42.204051946842924,42.204051946842924 0 0,0 0.2786957743270015,-0.6687684027505458 l 19.5017999235469 8.324158738656976" fill="#f5ff19" stroke="none" /><path d="M 80.68587082218212 91.75594674310238 l -19.338222954994112 -8.254337457669592 a42.02619684874439,42.02619684874439 0 0,0 0.28891232822112234,-0.6610879467717242 l 19.19367674475601 8.585087474217184" fill="#f8ff18" stroke="none" /><path d="M 80.9802524753101 91.09779779509293 l -15.964158044078513 -7.472032042223323 a38.62627597923988,38.62627597923988 0 0,0 0.2862404633397527,-0.5981324781063067 l 15.833538322778855 7.744977022394717" fill="#ffdc14" stroke="none" /><path d="M 81.29705330413844 90.45014215332179 l -23.615805584842427 -12.058398600897348 a47.51624502525193,47.51624502525193 0 0,0 0.3771702208723405,-0.7232736302804539 l 23.405327294995146 12.462018474282289" fill="#b7ff1f" stroke="none" /><path d="M 81.46374523516351 90.13048839642627 l -9.8114842115269 -5.224062708592111 a32.115577070775245,32.115577070775245 0 0,0 0.26327837821526545,-0.484402562254352 l 9.720360483696282 5.391720104321084" fill="#ff870c" stroke="none" /><line stroke="#e1ed5e" stroke-width="0.3" x1="26.387840678322718" x2="22.05771365940052" y1="57.49999999999999" y2="54.99999999999999" /><path d="M 25.521815274538284 56.99999999999999 a86.0,86.0 0 0,1 29.574782752854787,-30.34633250058573" fill="none" id="id95" stroke="none" /><text fill="#e1ed5e" style="font-size:6.75px; font-family:Arial;" text-anchor="middle"><textPath startOffset="21.40746469413373" xlink:href="#id95">November</textPath></text><path d="M 81.99639281039701 89.18935116829357 l -26.671794938653978 -16.015646517748284 a52.11085949682314,52.11085949682314 0 0,0 0.4670920550983826,-0.7629597686724755 l 26.392934919100203 16.4711434025453" fill="#84ff25" stroke="none" /><path d="M 82.576782715395 88.27688183743585 l -14.950991417799047 -10.0596942674422 a39.0202550794796,39.0202550794796 0 0,0 0.37870135510868297,-0.5525365947306797 l 14.776100325875051 10.314865597242914" fill="#ffe115" stroke="none" /><path d="M 84.83555147118756 85.47280134310135 l -5.299598358363275 -5.0768953455471495 a28.33897875113459,28.33897875113459 0 0,0 0.3395457664615434,-0.34840386873893914 l 5.211665790750929 5.167121906353819" fill="#ff5407" stroke="none" /><path d="M 85.08716467003674 85.21462403516908 l -13.749539075269237 -13.63202235342394 a40.36186608327321,40.36186608327321 0 0,0 0.4920458969499905,-0.4878404017337172 l 13.51350125818927 13.86604276538633" fill="#fff216" stroke="none" /><path d="M 85.86807049272753 84.46653392183569 l -10.343637002215939 -11.369469003937658 a36.370610003025575,36.370610003025575 0 0,0 0.4654311858847596,-0.4161914364092637 l 10.146940789507786 11.545355970230323" fill="#ffc011" stroke="none" /><path d="M 86.40962598614128 83.9905735841838 l -4.378670669603491 -5.1580630387821245 a27.76597155956897,27.76597155956897 0 0,0 0.36601588402948465,-0.3053434682634123 l 4.289480451412097 5.232468690957419" fill="#ff4c07" stroke="none" /><path d="M 86.96720088162412 83.53348406188908 l -10.514172091135574 -13.284312966246373 a37.94168780692159,37.94168780692159 0 0,0 0.5141822396954323,-0.39983121959064194 l 10.284579906804899 13.46284523745782" fill="#ffd413" stroke="none" /><path d="M 88.12776184653039 82.6780497279521 l -8.787506458323689 -12.821234540506428 a36.54362650406126,36.54362650406126 0 0,0 0.520492111131522,-0.3502103211941705 l 8.566118059095178 12.970194535757708" fill="#ffc212" stroke="none" /><line stroke="#e1ed5e" stroke-width="0.3" x1="56.869717070023135" x2="54.33264160355391" y1="26.7553504044142" y2="22.446841604673864" /><path d="M 56.362301976729285 25.89364864446614 a86.0,86.0 0 0,1 42.16139366436587,-11.88097634709845" fill="none" id="id96" stroke="none" /><text fill="#e1ed5e" style="font-size:6.75px; font-family:Arial;" text-anchor="middle"><textPath startOffset="22.145653131862474" xlink:href="#id96">December</textPath></text><path d="M 89.34428304082924 81.90426304109057 l -31.967150877512267 -54.287210876728295 a84.0,84.0 0 0,0 1.2488301285584011,-0.721012410895304 l 31.030528281093464 54.827970184899776" fill="#4dd2ff" stroke="none" /><path d="M 91.26138138417902 80.90454125486306 l -11.351092786831407 -24.80418628531679 a48.2781041264226,48.2781041264226 0 0,0 0.7565560477879296,-0.33839789717111 l 10.923623336187857 24.995387933397744" fill="#aeff20" stroke="none" /><path d="M 91.5904679813234 80.7573450057729 l -6.06397580999961 -13.875563366191248 a36.142756068610794,36.142756068610794 0 0,0 0.5706509618582086,-0.2435769626135642 l 5.82488977297097 13.977614978464217" fill="#ffbd11" stroke="none" /><path d="M 92.25597844496254 80.48000691201159 l -6.7586940748459305 -17.036324174356256 a39.328019177508324,39.328019177508324 0 0,0 0.62967480517451,-0.24357174159695325 l 6.465247007177892 17.14983580409125" fill="#ffe515" stroke="none" /><path d="M 92.93061703081487 80.22567764915836 l -6.175126672163807 -17.272928331215084 a39.34356133777085,39.34356133777085 0 0,0 0.6379169306049668,-0.22190062253236034 l 5.877703969513836 17.37638738631603" fill="#ffe515" stroke="none" /><path d="M 94.6519064749342 79.69241777938228 l -4.704211294396562 -17.86265651420919 a39.47171084785998,39.47171084785998 0 0,0 0.6567241351228905,-0.1669367070484866 l 4.396881866048294 17.940778453092936" fill="#ffe715" stroke="none" /><path d="M 95.00130118170881 79.60360301121753 l -4.33789845317624 -17.70010600043596 a39.22391602858008,39.22391602858008 0 0,0 0.6553529018492702,-0.15466150040299034 l 4.033413397587064 17.771963644485183" fill="#ffe415" stroke="none" /><path d="M 95.35216902796891 79.52079915486377 l -4.054506958681533 -17.86490576669063 a39.31922172830312,39.31922172830312 0 0,0 0.6595098877140259,-0.1437371104475722 l 3.7472346543483885 17.931874335271917" fill="#ffe515" stroke="none" /><path d="M 96.05791012581881 79.37332000966035 l -6.057856401504596 -31.697264499130664 a53.27094979868271,53.27094979868271 0 0,0 0.8996836002066216,-0.1639523219952212 l 5.512838067746936 31.79658499505725" fill="#77ff27" stroke="none" /><path d="M 96.76829788921471 79.25015418208739 l -2.7974940840307307 -17.961918806326764 a39.178462541019854,39.178462541019854 0 0,0 0.6654273328224538,-0.09779490267619569 l 2.488741645600592 18.007294782301845" fill="#ffe315" stroke="none" /><path d="M 97.12497278360702 79.19773525538626 l -2.5089157491159053 -18.153264545620228 a39.32581981520702,39.32581981520702 0 0,0 0.669516797917285,-0.0866823536836582 l 2.1969211293078263 18.19365849550428" fill="#ffe515" stroke="none" /><path d="M 97.48249496171623 79.15144685158666 l -2.451372705639867 -20.300882565440034 a41.448351060115904,41.448351060115904 0 0,0 0.7071169582231419,-0.0792339300737353 l 2.102519845815926 20.33997225602074" fill="#ffff18" stroke="none" /><path d="M 97.84075906011542 79.11130261209362 l -1.9384623604818971 -18.7528649063673 a39.85278702259873,39.85278702259873 0 0,0 0.6811039363206987,-0.06450125091066324 l 1.616258860776183 18.783377912783145" fill="#ffec16" stroke="none" /><path d="M 98.5590905019552 79.04949213459386 l -3.0296524808623735 -44.050482154418056 a65.15454418507227,65.15454418507227 0 0,0 1.1164871766300901,-0.0671650960638283 l 2.2730209520997997 44.09599922830658" fill="#35ff69" stroke="none" /><path d="M 99.27912038922189 79.0123766808444 l -0.5883372195209372 -17.128796214137125 a38.13889729327158,38.13889729327158 0 0,0 0.6545119428818296,-0.016857905934940316 l 0.2942119625683637 17.13637183742211" fill="#ffd614" stroke="none" /><path d="M 99.63950707515114 79.00309439819443 l -0.3145618959875204 -18.321653438119846 a39.32435357367282,39.32435357367282 0 0,0 0.675054820836368,-0.0057945337474139625 l 4.488172190088557e-15 18.324353573672823" fill="#ffe515" stroke="none" /></svg>
