<?xml version="1.0" encoding="utf-8" ?>
<svg baseProfile="full" height="200mm" version="1.1" viewBox="0,0,200,200" width="200mm" xmlns="http://www.w3.org/2000/svg" xmlns:ev="http://www.w3.org/2001/xml-events" xmlns:xlink="http://www.w3.org/1999/xlink"><defs /><rect fill="#1a1a1a" height="200" width="200" x="0" y="0" /><text alignment-baseline="middle" fill="#e1ed5e" style="dominant-baseline: central; font-size:9.0px; font-family:Arial;" text-anchor="middle" x="100.0" y="100.0">2021</text><line stroke="#e1ed5e" stroke-width="0.3" x1="100.0" x2="100.0" y1="15.0" y2="10.0" /><path d="M 100.0 14.0 a86.0,86.0 0 0,1 42.46469731375804,11.215312516191453" fill="none" id="id49" stroke="none" /><text fill="#e1ed5e" style="font-size:6.75px; font-family:Arial;" text-anchor="middle"><textPath startOffset="22.20632615414155" xlink:href="#id49">January</textPath></text><path d="M 100.0 79.0 l 0.0 -62.97434476880461 a83.97434476880461,83.97434476880461 0 0,0 1.4454803044582871,0.012441705334891261 l -1.0839998251857585 62.96501444007828" fill="#4dd2ff" stroke="none" /><path d="M 100.72285384407766 79.0124445844662 l 0.3096991538799949 -8.991898165104047 a29.997229916897506,29.997229916897506 0 0,0 0.515894027972026,0.0222154820563903 l -0.4644340142413524 8.985234956523461" fill="#ff4d07" stroke="none" /><path d="M 103.2404852339499 79.25152402106235 l 6.048537506926368 -38.728130545187746 a60.19761346686555,60.19761346686555 0 0,0 1.0224157420843845,0.16870735784004828 l -6.714282455149628 38.61827692440807" fill="#3aff2e" stroke="none" /><path d="M 105.71112130821622 79.79150937346287 l 11.47659947809171 -40.60932003735977 a63.199872150010656,63.199872150010656 0 0,0 1.0443320892705923,0.30486917432954147 l -12.17392178508573 40.40575253411153" fill="#32ff48" stroke="none" /><path d="M 108.09893153111575 80.62456947434976 l 17.447188973111327 -41.739678440007566 a66.23942041338162,66.23942041338162 0 0,0 1.0482112037105935,0.4487893335184327 l -18.163083934612235 41.43316957852634" fill="#36ff6d" stroke="none" /><path d="M 110.05341064243156 81.56283822128135 l 20.205934389285975 -37.05608916968861 a63.20703174941402,63.20703174941402 0 0,0 0.9507418443285216,0.529086807022468 l -20.840800322686533 36.702786965105965" fill="#32ff48" stroke="none" /><line stroke="#e1ed5e" stroke-width="0.3" x1="143.23703022742887" x2="145.7803849466894" y1="26.81831364943548" y2="22.513508569990506" /><path d="M 143.74570117128098 25.957352633546492 a86.0,86.0 0 0,1 28.547481713284135,27.462654790039103" fill="none" id="id50" stroke="none" /><text fill="#e1ed5e" style="font-size:6.75px; font-family:Arial;" text-anchor="middle"><textPath startOffset="19.985693538727396" xlink:href="#id50">February</textPath></text><path d="M 112.48926042617603 83.11751280151076 l 5.584728172386804 -7.549214177626884 a30.390411250799062,30.390411250799062 0 0,0 0.41787372083489244,0.3147338231020784 l -5.713848046980079 7.4519637650189585" fill="#ff5307" stroke="none" /><path d="M 113.89432698308785 84.25364557470407 l 10.00679712643754 -11.340640997344682 a36.12435542297038,36.12435542297038 0 0,0 0.46271688995029736,0.41543179248655016 l -10.200525003983827 11.166710196088834" fill="#ffa40f" stroke="none" /><path d="M 114.16331599549186 84.49514656593476 l 9.427724425268236 -10.320710593272661 a34.9785212017899,34.9785212017899 0 0,0 0.4410493643213698,0.4099073168405452 l -9.603981673384453 10.156898690357476" fill="#ff940d" stroke="none" /><path d="M 114.42810811169701 84.74124197986012 l 9.463379611240486 -10.008201936300848 a34.77387598551033,34.77387598551033 0 0,0 0.4313893989890083,0.4149962600380531 l -9.634252253841913 9.843822589500492" fill="#ff910d" stroke="none" /><path d="M 114.68862486808459 84.99185889309783 l 10.46138072855017 -10.68894328483057 a35.956403153633076,35.956403153633076 0 0,0 0.4386068210815037,0.436723304002991 l -10.643823349798996 10.50728413017746" fill="#ffa20e" stroke="none" /><path d="M 114.94478906791727 85.2469230424477 l 10.384818553110888 -10.251601853194519 a35.592456850628594,35.592456850628594 0 0,0 0.426661587233729,0.43971227025669873 l -10.559744404047725 10.071325387387706" fill="#ff9d0e" stroke="none" /><path d="M 115.19652480421416 85.50635884689758 l 10.503832763671399 -10.017999823659407 a35.515192840400594,35.515192840400594 0 0,0 0.4181198207936991,0.4460210722612944 l -10.674719906435561 9.835709334520057" fill="#ff9c0e" stroke="none" /><path d="M 115.4437574822437 85.77008943001954 l 11.654941632846032 -10.738887691316322 a36.848071595994035,36.848071595994035 0 0,0 0.4257818525620751,0.47015895612565245 l -11.838067126024143 10.53667594792112" fill="#ffae10" stroke="none" /><path d="M 115.68641384162765 86.03803664274999 l 11.661805270086536 -10.379791041101244 a36.612103132324734,36.612103132324734 0 0,0 0.4149513541438208,0.4743611293808994 l -11.838748487808203 10.177514355517397" fill="#ffab0f" stroke="none" /><path d="M 115.9244219780498 86.31012108654704 l 7.2662597962488515 -6.246645366560446 a30.582228851480927,30.582228851480927 0 0,0 0.3397385431885033,0.40214327608242784 l -7.372708952924472 6.1206431408489115" fill="#ff5607" stroke="none" /><path d="M 116.15771136456269 86.58626213691792 l 12.15655752541138 -10.092077540200522 a36.79974430002131,36.79974430002131 0 0,0 0.4004189077979737,0.4908662348957155 l -12.32847492528576 9.881327135696706" fill="#ffad10" stroke="none" /><path d="M 116.38621287248628 86.86637796730983 l 11.989321403654785 -9.60949408929242 a36.36509695290859,36.36509695290859 0 0,0 0.3872812163010894,0.49180781567910603 l -12.152956700549838 9.401693879660277" fill="#ffa70f" stroke="none" /><path d="M 116.60985879189232 87.15038557335679 l 12.748736137292905 -9.862597018054682 a37.11834647347113,37.11834647347113 0 0,0 0.38660359204026495,0.5087250099613114 l -12.916615669557283 9.641687232212337" fill="#ffb110" stroke="none" /><path d="M 116.82858285166822 87.43820079747576 l 12.833662075558717 -9.579766011624567 a37.014830598764114,37.014830598764114 0 0,0 0.3767358662109773,0.513867298127491 l -12.99666055428332 9.357436269825582" fill="#ffb010" stroke="none" /><path d="M 117.04232023915458 87.72973835380427 l 12.93734713062265 -9.314731331927748 a36.94174302152141,36.94174302152141 0 0,0 0.36710836052569024,0.5192487415002872 l -13.095768110952223 9.090656090095669" fill="#ffaf10" stroke="none" /><path d="M 117.2510076193507 88.02491185347247 l 15.133688124625364 -10.505313850256519 a39.42254421478798,39.42254421478798 0 0,0 0.3821650239630213,0.5607800159786318 l -15.312277614257118 10.243255811007481" fill="#ffd013" stroke="none" /><path d="M 117.45458315368197 88.32363383020206 l 13.54437964017157 -9.060608026496377 a37.29554655870446,37.29554655870446 0 0,0 0.3523600915910538,0.5366685935295291 l -13.698336367120548 8.826121368989174" fill="#ffb410" stroke="none" /><path d="M 117.65298651832404 88.62581576622439 l 13.879141868643545 -8.942618092230202 a37.51063285744726,37.51063285744726 0 0,0 0.34504852930516783,0.5457839097772285 l -14.031017994194668 8.702386534738766" fill="#ffb711" stroke="none" /><line stroke="#e1ed5e" stroke-width="0.3" x1="172.23445277983987" x2="176.4835382374775" y1="55.19839476539836" y2="52.563006222186495" /><path d="M 173.08426987136738 54.67131705675599 a86.0,86.0 0 0,1 12.851231095245387,41.99856678651699" fill="none" id="id51" stroke="none" /><text fill="#e1ed5e" style="font-size:6.75px; font-family:Arial;" text-anchor="middle"><textPath startOffset="22.20632615414155" xlink:href="#id51">March</textPath></text><path d="M 118.03404312379186 89.2402003453031 l 14.877092865755248 -8.876242425563722 a38.323844023012995,38.323844023012995 0 0,0 0.33312604588139016,0.5694203968056272 l -15.027678586106965 8.6188426164042" fill="#ffc212" stroke="none" /><path d="M 118.21658344932153 89.55222093294921 l 37.25374770861251 -21.36618683531074 a63.94596207116983,63.94596207116983 0 0,0 0.5394065976719828,0.9595441486528492 l -37.61601194757692 20.721759176723097" fill="#33ff52" stroke="none" /><path d="M 118.3937258080291 89.86733742301442 l 13.527403633886989 -7.4519223563196375 a36.44415086298743,36.44415086298743 0 0,0 0.29796026352549226,0.5520751159912898 l -13.653671996630946 7.217966256995888" fill="#ffa80f" stroke="none" /><path d="M 118.56541770881063 90.18545643968196 l 14.566184892042337 -7.700363028339031 a37.476326443639465,37.476326443639465 0 0,0 0.2965815207021411,0.5729010979944872 l -14.696575845904594 7.448489208084199" fill="#ffb610" stroke="none" /><path d="M 118.73160827565052 90.50648371742162 l 13.98557567099816 -7.088141519938029 a36.6792243767313,36.6792243767313 0 0,0 0.28057857755986443,0.5656292912238101 l -14.10551426151143 6.846352640215269" fill="#ffab0f" stroke="none" /><path d="M 118.89224826269711 90.83032412892265 l 30.723285586551633 -14.912072221678567 a55.150990837417424,55.150990837417424 0 0,0 0.40717663004047394,0.8576178258522726 l -30.975420410433863 14.381011980185754" fill="#6fff27" stroke="none" /><path d="M 119.04729006885535 91.15688171328212 l 11.77741877728627 -5.467922574983581 a33.98482846793096,33.98482846793096 0 0,0 0.24177403007176057,0.5327170269009806 l -11.869795124321378 5.264383539240538" fill="#ff860c" stroke="none" /><path d="M 119.196687751892 91.48605970444005 l 15.016203012400505 -6.659849738973057 a37.42680588109951,37.42680588109951 0 0,0 0.2561228431442187,0.5911668345786607 l -15.128616565387404 6.400383759807794" fill="#ffb610" stroke="none" /><path d="M 119.34039704204932 91.81776055985345 l 17.617495843800988 -7.4533407466433275 a40.12925633922863,40.12925633922863 0 0,0 0.26366509981895886,0.6384859529397274 l -17.743182630506144 7.148980223250297" fill="#ffda14" stroke="none" /><path d="M 119.47837535516314 92.15188598940014 l 17.59791454241096 -7.0904496478462935 a39.97264010227999,39.97264010227999 0 0,0 0.2516495642751819,0.6404206923502275 l -17.717357656567845 6.786479950600281" fill="#ffd814" stroke="none" /><path d="M 119.61058180528143 92.48833698450437 l 15.145514610522552 -5.8013578118254285 a37.218580865118255,37.218580865118255 0 0,0 0.22401227827772183,0.6002415338865874 l -15.2431314773019 5.539793140909508" fill="#ffb310" stroke="none" /><path d="M 119.85752413597 93.16781622104841 l 51.301777498234 -17.650899963904102 a75.25335606222032,75.25335606222032 0 0,0 0.41089302185003596,1.2285178358806315 l -51.59800781385581 16.765209025101157" fill="#42ffd4" stroke="none" /><path d="M 119.97218684219823 93.5106431181261 l 19.224595218798946 -6.246449638692738 a41.2139356488387,41.2139356488387 0 0,0 0.21341854734005933,0.6765951169452101 l -19.329269249907213 5.914604355321109" fill="#ffe815" stroke="none" /><path d="M 120.08093135843002 93.85539295169968 l 18.53624433085848 -5.6719449676618305 a40.38461538461539,40.38461538461539 0 0,0 0.19768096709288022,0.6664819485643656 l -18.631131195063062 5.352033632350935" fill="#ffdd14" stroke="none" /><path d="M 120.18372546131832 94.20196356495316 l 19.70232088642588 -5.659746738698476 a41.499126358406144,41.499126358406144 0 0,0 0.19131735435389824,0.6882703156486425 l -19.796825011346144 5.319765119630881" fill="#ffeb16" stroke="none" /><path d="M 120.28053869075195 94.5502522615342 l 10.218199393189721 -2.7458150832858146 a31.58069465160878,31.58069465160878 0 0,0 0.1365544245928567,0.5261999020118198 l -10.26395014965288 2.5695187557251447" fill="#ff6409" stroke="none" /><path d="M 120.37134235888165 94.90015583598534 l 9.000489950222844 -2.2532190239247614 a30.27824419347965,30.27824419347965 0 0,0 0.12221914158573208,0.5066772461434087 l -9.037941892069396 2.0979565461219467" fill="#ff5107" stroke="none" /><path d="M 120.45610955862082 95.25157060432595 l 36.647805341081984 -8.506970285324716 a58.62220328148306,58.62220328148306 0 0,0 0.21970935450287085,0.9849139555612841 l -36.78880908258689 7.874878160213467" fill="#4aff2c" stroke="none" /><path d="M 120.53481517161879 95.60439243477599 l 15.6860375910712 -3.357695938700065 a37.04138077988493,37.04138077988493 0 0,0 0.12809386440552117,0.6246311744513314 l -15.741510751391719 3.0871891080853215" fill="#ffb010" stroke="none" /><path d="M 120.6074358757038 95.95851677861258 l 20.839578735984116 -4.087010548535099 a42.23656509695291,42.23656509695291 0 0,0 0.1337778358075203,0.7146465481727108 l -20.906842295701495 3.727685922899826" fill="#fff517" stroke="none" /><path d="M 120.67395015179393 96.31383870115 l 19.225202426830528 -3.42784986071906 a40.52840400596634,40.52840400596634 0 0,0 0.11654451778460205,0.6878523411716062 l -19.28135880613535 3.0964117312316164" fill="#ffdf14" stroke="none" /><path d="M 120.73433829027371 96.67025291283417 l 19.081364265342735 -3.064294417897066 a40.325847006179416,40.325847006179416 0 0,0 0.10416378772160409,0.6863092149309343 l -19.13128394650364 2.7353860905740497" fill="#ffdc14" stroke="none" /><path d="M 120.78858239683441 97.02765380044208 l 7.946291286796226 -1.1361586978862745 a29.027104197741316,29.027104197741316 0 0,0 0.06646377645678478,0.49523233414421425 l -7.964671062310847 0.999208021677396" fill="#ff3f05" stroke="none" /><path d="M 120.83666639777658 97.38593545837742 l 18.696316447889192 -2.3455468812706646 a39.84287236309397,39.84287236309397 0 0,0 0.07951431981239673,0.6812301335758363 l -18.733921120705176 2.0233730093699753" fill="#ffd614" stroke="none" /><path d="M 120.87857604477298 97.74499172005257 l 15.621190733747403 -1.6871799289232354 a36.712039207330065,36.712039207330065 0 0,0 0.062450455359645,0.6288675628864183 l -15.647918314789278 1.4180368353323822" fill="#ffac0f" stroke="none" /><path d="M 120.91429891909075 98.10471618934814 l 26.430242860163837 -2.3951465740379363 a47.53854677178777,47.53854677178777 0 0,0 0.06683810151943455,0.8155941332401279 l -26.467555445502764 1.9398385235900397" fill="#c7ff1e" stroke="none" /><path d="M 120.94382443527127 98.46500227214037 l 19.335438684904386 -1.4171172290058909 a40.387300234391645,40.387300234391645 0 0,0 0.044847998685392576,0.6937786894689548 l -19.356967274594194 1.084079475283901" fill="#ffdd14" stroke="none" /><path d="M 120.96714384426684 98.82574320788733 l 20.63504120364809 -1.1556575120046264 a41.66737694438525,41.66737694438525 0 0,0 0.03394183209015385,0.716458430036686 l -20.65187664397174 0.8002879753449406" fill="#ffee16" stroke="none" /><path d="M 120.98425023603335 99.18683210126433 l 15.63139589284917 -0.6057375988905602 a36.643128063072666,36.643128063072666 0 0,0 0.01899912259293629,0.630488383853187 l -15.639506709897752 0.33657906761237416" fill="#ffab0f" stroke="none" /><line stroke="#e1ed5e" stroke-width="0.3" x1="184.98032266829074" x2="189.97916517819016" y1="98.17113171792111" y2="98.06355123074" /><path d="M 185.9800911702706 98.14961562048488 a86.0,86.0 0 0,1 -9.607161424134198,41.387399972396054" fill="none" id="id52" stroke="none" /><text fill="#e1ed5e" style="font-size:6.75px; font-family:Arial;" text-anchor="middle"><textPath startOffset="21.466115282336823" xlink:href="#id52">April</textPath></text><path d="M 120.99513854157772 99.54816195383933 l 16.05586033450237 -0.34553944707739703 a37.05957809503516,37.05957809503516 0 0,0 0.008236037485237798,0.6378901796634245 l -16.05942937910532 0.0691130093535097" fill="#ffb110" stroke="none" /><path d="M 120.99980553446 99.90962569577887 l 16.422775684112388 -0.07067669857208114 a37.42292776475602,37.42292776475602 0 0,0 -0.0027723309599220892,0.6441920802298794 l -16.42155905586296 -0.212024859861483" fill="#ffb610" stroke="none" /><path d="M 120.99824983174949 100.27111621757518 l 34.90312114231136 0.45064718543181226 a55.906030257830814,55.906030257830814 0 0,0 -0.02070636185121355,0.9621432711393356 l -34.89019271777514 -1.0513802723612626" fill="#67ff28" stroke="none" /><path d="M 120.9904718944345 100.63252640178507 l 30.13330660183064 0.908036374532195 a51.1469848710846,51.1469848710846 0 0,0 -0.03409279520414106,0.8797835562888645 l -30.113211673775297 -1.4265971778350657" fill="#9cff22" stroke="none" /><path d="M 120.9764740272857 100.99374915477107 l 12.001838829419512 0.5685806478686577 a33.01529938205839,33.01529938205839 0 0,0 -0.03177903224057614,0.567435968601833 l -11.990273446291408 -0.775088332805914" fill="#ff790b" stroke="none" /><path d="M 120.95626037817324 101.35467743843564 l 15.669787307705159 1.0129434807434736 a36.702493074792244,36.702493074792244 0 0,0 -0.046181246315920264,0.6301064148097075 l -15.6500295027249 -1.2825230320499514" fill="#ffac0f" stroke="none" /><path d="M 120.92983693683757 101.71520430193887 l 20.062554681780323 1.6441303485507652 a41.12981035584914,41.12981035584914 0 0,0 -0.06389888894794789,0.7051189149320681 l -20.031281196555298 -1.9892306520314038" fill="#ffe715" stroke="none" /><path d="M 120.89721153311464 102.0752229133903 l 15.759813382790302 1.5650473648551404 a36.83733219688898,36.83733219688898 0 0,0 -0.06809240260592526,0.6304510801673189 l -15.730538678683326 -1.8360947669072507" fill="#ffae10" stroke="none" /><path d="M 120.8583938346157 102.4346265915055 l 15.980620138963404 1.8652846929422067 a37.08911144257405,37.08911144257405 0 0,0 -0.07947400182339466,0.633485989700359 l -15.946144627893162 -2.1400884369299606" fill="#ffb110" stroke="none" /><path d="M 120.81339534386255 102.79330883721812 l 30.212020405169493 4.054672589153469 a51.48288940975921,51.48288940975921 0 0,0 -0.12543670919322356,0.8773040519435317 l -30.137749644959666 -4.57412211307741" fill="#99ff23" stroke="none" /><path d="M 120.76222939487914 103.15116336523771 l 31.822736029403806 4.829858973729489 a53.1871723844023,53.1871723844023 0 0,0 -0.14517121007417466,0.903981263708627 l -31.73488306496834 -5.376919467131321" fill="#85ff25" stroke="none" /><path d="M 120.70491114924044 103.5080841355445 l 3.775973426151697 0.6397724857180237 a24.82978904751758,24.82978904751758 0 0,0 -0.07502564052535415,0.420783635488629 l -3.7644013432871546 -0.7046748719398711" fill="#ff0000" stroke="none" /><path d="M 120.64145759157962 103.86396538481128 l 15.693020368545353 2.9376456201394268 a36.96560835286597,36.96560835286597 0 0,0 -0.12246189765258265,0.624430577798177 l -15.640128537917105 -3.2073399250055488" fill="#ffaf10" stroke="none" /><path d="M 120.5718875245553 104.21870165774334 l 15.230122739253126 3.1232595439299917 a36.54707010441083,36.54707010441083 0 0,0 -0.13168424720263874,0.6151849629875094 l -15.174104453326045 -3.38495832633367" fill="#ffaa0f" stroke="none" /><path d="M 120.49622156327973 104.57218783832717 l 15.731385056666012 3.5092735123917436 a37.11804815682932,37.11804815682932 0 0,0 -0.1444765833381769,0.6224013397173778 l -15.66864790739728 -3.7795435094576866" fill="#ffb110" stroke="none" /><path d="M 120.41448212921028 104.9243191809786 l 7.439635265896168 1.7945661519827412 a28.653015128915406,28.653015128915406 0 0,0 -0.11978145426910576,0.4784673677636127 l -7.407642497332001 -1.9223613591437498" fill="#ff3a05" stroke="none" /><path d="M 120.32669344350535 105.2749913415812 l 29.591010972327357 7.679179454420064 a51.57119113573407,51.57119113573407 0 0,0 -0.2303806021804333,0.8573319244010266 l -29.454442293805148 -8.187402311996639" fill="#97ff23" stroke="none" /><path d="M 120.23288151984713 105.62410040840565 l 29.1836933145922 8.112142668773144 a51.290176859151934,51.290176859151934 0 0,0 -0.24376844314083612,0.8485899299885818 l -29.039732234565264 -8.613290074266306" fill="#9bff22" stroke="none" /><path d="M 120.13307415673323 105.97154293290107 l 15.296503135147661 4.536998397944188 a36.955167270402725,36.955167270402725 0 0,0 -0.18613653879839176,0.6083049785812019 l -15.216139823843138 -4.7996303490774475" fill="#ffaf10" stroke="none" /><path d="M 120.02730092923936 106.31721596034902 l 14.592802707059795 4.603010984504328 a36.301555508203705,36.301555508203705 0 0,0 -0.19310309763953315,0.594310224582741 l -14.511407358404014 -4.853520109064864" fill="#ffa60f" stroke="none" /><path d="M 119.9155931802556 106.66101706037122 l 18.550825490766965 6.204553585703552 a40.56092051992329,40.56092051992329 0 0,0 -0.22715886469170657,0.6602299915016718 l -18.441275795132025 -6.522956280294525" fill="#ffdf14" stroke="none" /><path d="M 119.79798401119884 107.00284435728193 l 18.572896741466863 6.569512586270912 a40.70053270828894,40.70053270828894 0 0,0 -0.23931087398271034,0.6584807452697706 l -18.457061606478923 -6.888241128546815" fill="#ffe115" stroke="none" /><path d="M 119.67450827220406 107.3425965602758 l 15.202432032932276 5.673601779950868 a37.226635414447045,37.226635414447045 0 0,0 -0.2292198528845214,0.5984207048577145 l -15.102517900454247 -5.934446051641727" fill="#ffb310" stroke="none" /><path d="M 119.54520255179757 107.68017299344265 l 41.36630574024667 16.254647826891684 a65.44530151289155,65.44530151289155 0 0,0 -0.4210232925489698,1.044945284237629 l -41.08037983344031 -16.964292478972126" fill="#35ff64" stroke="none" /><path d="M 119.41010516605496 108.01547362559984 l 5.163620135587914 2.1323357424051155 a26.586575751118687,26.586575751118687 0 0,0 -0.17831871942863903,0.4214927782311269 l -5.126150434966966 -2.2209030463024058" fill="#ff1b02" stroke="none" /><path d="M 119.26925614724726 108.34839909993367 l 14.090275732361006 6.104607481626332 a36.35584913701257,36.35584913701257 0 0,0 -0.25372732443781193,0.5720881345498423 l -13.983107323191922 -6.346243952668862" fill="#ffa70f" stroke="none" /><path d="M 119.12269723197855 108.67885076344098 l 14.267794967188136 6.475449657620722 a36.66848497762625,36.66848497762625 0 0,0 -0.26580353217247826,0.572517161307205 l -14.154216818175827 -6.720086886206757" fill="#ffab0f" stroke="none" /><path d="M 118.97047184881838 109.00673069616215 l 56.911415546455125 27.02019208848646 a84.0,84.0 0 0,0 -0.6313869735411428,1.3008441761388982 l -56.43787531629926 -27.995825220590632" fill="#4dd2ff" stroke="none" /><path d="M 118.81262510543309 109.33194174019688 l 8.631172001280948 4.2814649106206195 a30.63473258043895,30.63473258043895 0 0,0 -0.23839851185891694,0.47038288077032336 l -8.556194819635762 -4.429402003093637" fill="#ff5708" stroke="none" /><path d="M 118.64920377521936 109.65438752849418 l 7.153961201023137 3.7034886116834578 a29.055742595354786,29.055742595354786 0 0,0 -0.23375689681658698,0.442179955190363 l -7.089151795981657 -3.826083581959955" fill="#ff3f05" stroke="none" /><line stroke="#e1ed5e" stroke-width="0.3" x1="174.80103733775053" x2="179.2010983576182" y1="140.37084112569926" y2="142.7455964860345" /><path d="M 175.68104954172406 140.8457921977663 a86.0,86.0 0 0,1 -30.038265399797805,32.042727171017184" fill="none" id="id53" stroke="none" /><text fill="#e1ed5e" style="font-size:6.75px; font-family:Arial;" text-anchor="middle"><textPath startOffset="22.206326154141568" xlink:href="#id53">May</textPath></text><path d="M 118.48025628344425 109.97397251340804 l 4.653470031683114 2.511522647527113 a26.287960792669935,26.287960792669935 0 0,0 -0.21834478617406813,0.3963592094362813 l -4.609548836057537 -2.5912523753611993" fill="#ff1602" stroke="none" /><path d="M 118.30583269289576 110.29060199501025 l 14.741922797929695 8.287154302111384 a37.9115704240358,37.9115704240358 0 0,0 -0.32468191730911067,0.5661102903486899 l -14.597088884468205 -8.539684438318389" fill="#ffbc11" stroke="none" /><path d="M 118.12598468904814 110.60418214915192 l 25.832650244033736 15.112786051760317 a50.928617089281914,50.928617089281914 0 0,0 -0.44918827900843317,0.7528653928796691 l -25.568681089327075 -15.55521353852609" fill="#9fff22" stroke="none" /><path d="M 117.94076556474637 110.91462005526583 l 25.635454021750736 15.595836174430337 a51.00677604943533,51.00677604943533 0 0,0 -0.46279021209308,0.7461651775055445 l -25.36319916998969 -16.034797683301154" fill="#9eff22" stroke="none" /><line stroke="#e1ed5e" stroke-width="0.3" x1="143.8653032363475" x2="146.44561519142675" y1="172.8068346515853" y2="177.08958963109032" /><path d="M 144.38136562736335 173.6633856474863 a86.0,86.0 0 0,1 -40.68145358897372,12.25698825130547" fill="none" id="id54" stroke="none" /><text fill="#e1ed5e" style="font-size:6.75px; font-family:Arial;" text-anchor="middle"><textPath startOffset="21.466115282336833" xlink:href="#id54">June</textPath></text><line stroke="#e1ed5e" stroke-width="0.3" x1="102.19456741930631" x2="102.32365962044197" y1="184.97166512339345" y2="189.96999836594603" /><path d="M 102.22038585953345 185.97133177190398 a86.0,86.0 0 0,1 -42.740103519485714,-10.115201625700543" fill="none" id="id55" stroke="none" /><text fill="#e1ed5e" style="font-size:6.75px; font-family:Arial;" text-anchor="middle"><textPath startOffset="22.20632615414155" xlink:href="#id55">July</textPath></text><line stroke="#e1ed5e" stroke-width="0.3" x1="58.666819895761336" x2="56.23545636021788" y1="174.27360380694188" y2="178.64263932499728" /><path d="M 58.180547188652646 175.14741091055294 a86.0,86.0 0 0,1 -31.652253787137756,-30.449443065178592" fill="none" id="id56" stroke="none" /><text fill="#e1ed5e" style="font-size:6.75px; font-family:Arial;" text-anchor="middle"><textPath startOffset="22.20632615414155" xlink:href="#id56">August</textPath></text><line stroke="#e1ed5e" stroke-width="0.3" x1="26.63291911575756" x2="22.317208475507996" y1="142.92168965132927" y2="145.44649492493687" /><path d="M 25.769776987707644 143.4266507060508 a86.0,86.0 0 0,1 -11.730757126820373,-40.83630448921669" fill="none" id="id57" stroke="none" /><text fill="#e1ed5e" style="font-size:6.75px; font-family:Arial;" text-anchor="middle"><textPath startOffset="21.46611528233685" xlink:href="#id57">September</textPath></text><line stroke="#e1ed5e" stroke-width="0.3" x1="15.007084014347285" x2="10.007500721073583" y1="101.09737516637583" y2="101.16192664675087" /><path d="M 14.007167355692545 101.11028546245083 a86.0,86.0 0 0,1 10.666146001902534,-42.60595125391555" fill="none" id="id58" stroke="none" /><text fill="#e1ed5e" style="font-size:6.75px; font-family:Arial;" text-anchor="middle"><textPath startOffset="22.20632615414155" xlink:href="#id58">October</textPath></text><line stroke="#e1ed5e" stroke-width="0.3" x1="26.266209847984243" x2="21.928928074336255" y1="57.711370442889674" y2="55.22380399835377" /><path d="M 25.398753493254645 57.213857153982495 a86.0,86.0 0 0,1 29.58750427330803,-30.492523968695096" fill="none" id="id59" stroke="none" /><text fill="#e1ed5e" style="font-size:6.75px; font-family:Arial;" text-anchor="middle"><textPath startOffset="21.46611528233685" xlink:href="#id59">November</textPath></text><line stroke="#e1ed5e" stroke-width="0.3" x1="56.762969772571076" x2="54.21961505331055" y1="26.818313649435495" y2="22.513508569990535" /><path d="M 56.25429882871897 25.957352633546506 a86.0,86.0 0 0,1 42.265352541879196,-11.944610805530505" fill="none" id="id60" stroke="none" /><text fill="#e1ed5e" style="font-size:6.75px; font-family:Arial;" text-anchor="middle"><textPath startOffset="22.20632615414155" xlink:href="#id60">December</textPath></text></svg>