<?xml version="1.0" encoding="utf-8" ?>
<svg baseProfile="full" height="200mm" version="1.1" viewBox="0,0,200,200" width="200mm" xmlns="http://www.w3.org/2000/svg" xmlns:ev="http://www.w3.org/2001/xml-events" xmlns:xlink="http://www.w3.org/1999/xlink"><defs /><rect fill="#1a1a1a" height="200" width="200" x="0" y="0" /><text alignment-baseline="middle" fill="#e1ed5e" style="dominant-baseline: central; font-size:9.0px; font-family:Arial;" text-anchor="middle" x="100.0" y="100.0">2022</text><line stroke="#e1ed5e" stroke-width="0.3" x1="100.0" x2="100.0" y1="15.0" y2="10.0" /><path d="M 100.0 14.0 a86.0,86.0 0 0,1 42.46469731375804,11.215312516191453" fill="none" id="id61" stroke="none" /><text fill="#e1ed5e" style="font-size:6.75px; font-family:Arial;" text-anchor="middle"><textPath startOffset="22.20632615414155" xlink:href="#id61">January</textPath></text><path d="M 100.0 79.0 l 0.0 -62.75881953867028 a83.75881953867028,83.75881953867028 0 0,0 1.4417703919114164,0.012409772946339156 l -1.080289912638888 62.7495211423325" fill="#4dd4ff" stroke="none" /><path d="M 100.36148047927253 79.00311137660856 l 0.32847497825269434 -19.079737162633833 a40.082564450474905,40.082564450474905 0 0,0 0.6897510088326996,0.01781423359445469 l -0.6568526222802616 19.071256136897016" fill="#ffaf10" stroke="none" /><path d="M 100.72285384407766 79.0124445844662 l 2.1685615322329816 -62.9626662466014 a84.0,84.0 0 0,0 1.4446366704426739,0.062209093903220936 l -3.2520390350649873 62.916009426173986" fill="#4dd2ff" stroke="none" /><path d="M 101.08401301168833 79.027996857942 l 1.6276269413625803 -31.489102953838454 a52.53113975576663,52.53113975576663 0 0,0 0.9026299448376591,0.05444910324806529 l -2.1694189350398516 31.456420581210086" fill="#a7ff21" stroke="none" /><path d="M 101.44485096284872 79.0497635885617 l 2.191473987050771 -31.776217269987125 a52.851696065128905,52.851696065128905 0 0,0 0.9070604652720099,0.07040534953890201 l -2.738124641685122 31.733786658259756" fill="#a3ff22" stroke="none" /><path d="M 101.80526077348638 79.07773832637324 l 2.120385330486406 -24.574431231716428 a45.6657394843962,45.6657394843962 0 0,0 0.7825691520608142,0.07431437053290317 l -2.543079609637464 24.534291316668345" fill="#fffd18" stroke="none" /><path d="M 102.16513564639614 79.11191278185805 l 2.114941767096078 -20.403843133767108 a41.51316146540027,41.51316146540027 0 0,0 0.710138563854704,0.07979234195104179 l -2.4658470344605075 20.364414838345468" fill="#ffc312" stroke="none" /><path d="M 102.52436894288641 79.15227682838746 l 3.8956948162894496 -32.172938634803614 a53.40793758480326,53.40793758480326 0 0,0 0.9117123335678193,0.11836642721627956 l -4.448921878365115 32.1011138844232" fill="#9cff22" stroke="none" /><path d="M 102.88285421437855 79.19881850522331 l 5.4291984834384985 -39.174281676090565 a60.54871099050203,60.54871099050203 0 0,0 1.0311474878697093,0.1519643355306104 l -6.102714951736863 39.07502285639899" fill="#48ff2c" stroke="none" /><path d="M 103.2404852339499 79.25152402106235 l 1.2056187939607381 -7.719446558242475 a28.81302578018996,28.81302578018996 0 0,0 0.48936975136006705,0.08075020205624361 l -1.3383177514596802 7.6975500932466066" fill="#ff0000" stroke="none" /><path d="M 103.59715602781102 79.31037775812273 l 4.226013368668321 -24.306596519828254 a45.67123473541384,45.67123473541384 0 0,0 0.773376852246087,0.14132967644753805 l -4.643785342017309 24.23025136202998" fill="#fffe18" stroke="none" /><path d="M 103.95276090670814 79.375362276772 l 5.879262558932769 -30.67669996228297 a52.23500678426052,52.23500678426052 0 0,0 0.8816114764787868,0.17684296841148128 l -6.406440444878681 30.570953037794283" fill="#aaff21" stroke="none" /><path d="M 104.307194497241 79.44645832069477 l 8.377864822923879 -39.9784114536391 a61.846811397557666,61.846811397557666 0 0,0 1.040078639664381,0.22732090598580573 l -9.064786186741788 39.82827704955742" fill="#39ff2e" stroke="none" /><path d="M 104.66035177308747 79.52364482259891 l 6.99039215802897 -30.713937407839058 a52.49938941655359,52.49938941655359 0 0,0 0.8794305545559017,0.20813279900173826 l -7.518046399547395 30.58905869669645" fill="#a7ff21" stroke="none" /><path d="M 105.01212808612495 79.60689891045804 l 11.238232650252897 -45.725570170252205 a68.08636363636364,68.08636363636364 0 0,0 1.135716570646539,0.28951944164210575 l -12.02365810958446 45.52534773244123" fill="#37ff76" stroke="none" /><path d="M 105.36241919743992 79.69619591428918 l 15.767476963110164 -59.70062231199409 a82.74769335142469,82.74769335142469 0 0,0 1.374014063500519,0.37556994723663767 l -16.792788915834393 59.42036582393116" fill="#4bdfff" stroke="none" /><path d="M 105.71112130821622 79.79150937346287 l 10.78066859934061 -38.1468066567165 a60.64090909090909,60.64090909090909 0 0,0 1.0020470790804672,0.2925250203237179 l -11.435705896144505 37.95558330747408" fill="#47ff2c" stroke="none" /><path d="M 106.0581310904928 79.89281104454417 l 9.372547644653652 -31.107875295206565 a53.48914518317503,53.48914518317503 0 0,0 0.8792969199253358,0.2732018332188871 l -9.906629937289706 30.941933327105154" fill="#9bff22" stroke="none" /><line stroke="#e1ed5e" stroke-width="0.3" x1="143.23703022742887" x2="145.7803849466894" y1="26.81831364943548" y2="22.513508569990506" /><path d="M 143.74570117128098 25.957352633546492 a86.0,86.0 0 0,1 28.547481713284135,27.462654790039103" fill="none" id="id62" stroke="none" /><text fill="#e1ed5e" style="font-size:6.75px; font-family:Arial;" text-anchor="middle"><textPath startOffset="19.985693538727396" xlink:href="#id62">February</textPath></text><line stroke="#e1ed5e" stroke-width="0.3" x1="172.23445277983987" x2="176.4835382374775" y1="55.19839476539836" y2="52.563006222186495" /><path d="M 173.08426987136738 54.67131705675599 a86.0,86.0 0 0,1 12.851231095245387,41.99856678651699" fill="none" id="id63" stroke="none" /><text fill="#e1ed5e" style="font-size:6.75px; font-family:Arial;" text-anchor="middle"><textPath startOffset="22.20632615414155" xlink:href="#id63">March</textPath></text><line stroke="#e1ed5e" stroke-width="0.3" x1="184.98032266829074" x2="189.97916517819016" y1="98.17113171792111" y2="98.06355123074" /><path d="M 185.9800911702706 98.14961562048488 a86.0,86.0 0 0,1 -9.607161424134198,41.387399972396054" fill="none" id="id64" stroke="none" /><text fill="#e1ed5e" style="font-size:6.75px; font-family:Arial;" text-anchor="middle"><textPath startOffset="21.466115282336823" xlink:href="#id64">April</textPath></text><line stroke="#e1ed5e" stroke-width="0.3" x1="174.80103733775053" x2="179.2010983576182" y1="140.37084112569926" y2="142.7455964860345" /><path d="M 175.68104954172406 140.8457921977663 a86.0,86.0 0 0,1 -30.038265399797805,32.042727171017184" fill="none" id="id65" stroke="none" /><text fill="#e1ed5e" style="font-size:6.75px; font-family:Arial;" text-anchor="middle"><textPath startOffset="22.206326154141568" xlink:href="#id65">May</textPath></text><line stroke="#e1ed5e" stroke-width="0.3" x1="143.8653032363475" x2="146.44561519142675" y1="172.8068346515853" y2="177.08958963109032" /><path d="M 144.38136562736335 173.6633856474863 a86.0,86.0 0 0,1 -40.68145358897372,12.25698825130547" fill="none" id="id66" stroke="none" /><text fill="#e1ed5e" style="font-size:6.75px; font-family:Arial;" text-anchor="middle"><textPath startOffset="21.466115282336833" xlink:href="#id66">June</textPath></text><line stroke="#e1ed5e" stroke-width="0.3" x1="102.19456741930631" x2="102.32365962044197" y1="184.97166512339345" y2="189.96999836594603" /><path d="M 102.22038585953345 185.97133177190398 a86.0,86.0 0 0,1 -42.740103519485714,-10.115201625700543" fill="none" id="id67" stroke="none" /><text fill="#e1ed5e" style="font-size:6.75px; font-family:Arial;" text-anchor="middle"><textPath startOffset="22.20632615414155" xlink:href="#id67">July</textPath></text><line stroke="#e1ed5e" stroke-width="0.3" x1="58.666819895761336" x2="56.23545636021788" y1="174.27360380694188" y2="178.64263932499728" /><path d="M 58.180547188652646 175.14741091055294 a86.0,86.0 0 0,1 -31.652253787137756,-30.449443065178592" fill="none" id="id68" stroke="none" /><text fill="#e1ed5e" style="font-size:6.75px; font-family:Arial;" text-anchor="middle"><textPath startOffset="22.20632615414155" xlink:href="#id68">August</textPath></text><line stroke="#e1ed5e" stroke-width="0.3" x1="26.63291911575756" x2="22.317208475507996" y1="142.92168965132927" y2="145.44649492493687" /><path d="M 25.769776987707644 143.4266507060508 a86.0,86.0 0 0,1 -11.730757126820373,-40.83630448921669" fill="none" id="id69" stroke="none" /><text fill="#e1ed5e" style="font-size:6.75px; font-family:Arial;" text-anchor="middle"><textPath startOffset="21.46611528233685" xlink:href="#id69">September</textPath></text><line stroke="#e1ed5e" stroke-width="0.3" x1="15.007084014347285" x2="10.007500721073583" y1="101.09737516637583" y2="101.16192664675087" /><path d="M 14.007167355692545 101.11028546245083 a86.0,86.0 0 0,1 10.666146001902534,-42.60595125391555" fill="none" id="id70" stroke="none" /><text fill="#e1ed5e" style="font-size:6.75px; font-family:Arial;" text-anchor="middle"><textPath startOffset="22.20632615414155" xlink:href="#id70">October</textPath></text><line stroke="#e1ed5e" stroke-width="0.3" x1="26.266209847984243" x2="21.928928074336255" y1="57.711370442889674" y2="55.22380399835377" /><path d="M 25.398753493254645 57.213857153982495 a86.0,86.0 0 0,1 29.58750427330803,-30.492523968695096" fill="none" id="id71" stroke="none" /><text fill="#e1ed5e" style="font-size:6.75px; font-family:Arial;" text-anchor="middle"><textPath startOffset="21.46611528233685" xlink:href="#id71">November</textPath></text><line stroke="#e1ed5e" stroke-width="0.3" x1="56.762969772571076" x2="54.21961505331055" y1="26.818313649435495" y2="22.513508569990535" /><path d="M 56.25429882871897 25.957352633546506 a86.0,86.0 0 0,1 42.265352541879196,-11.944610805530505" fill="none" id="id72" stroke="none" /><text fill="#e1ed5e" style="font-size:6.75px; font-family:Arial;" text-anchor="middle"><textPath startOffset="22.20632615414155" xlink:href="#id72">December</textPath></text></svg>