<?xml version="1.0" encoding="utf-8" ?>
<svg baseProfile="full" height="200mm" version="1.1" viewBox="0,0,200,200" width="200mm" xmlns="http://www.w3.org/2000/svg" xmlns:ev="http://www.w3.org/2001/xml-events" xmlns:xlink="http://www.w3.org/1999/xlink"><defs /><rect fill="#1a1a1a" height="200" width="200" x="0" y="0" /><text alignment-baseline="middle" fill="#e1ed5e" style="dominant-baseline: central; font-size:9.0px; font-family:Arial;" text-anchor="middle" x="100.0" y="100.0">2025</text><line stroke="#e1ed5e" stroke-width="0.3" x1="100.0" x2="100.0" y1="15.0" y2="10.0" /><path d="M 100.0 14.0 a86.0,86.0 0 0,1 42.46469731375804,11.215312516191453" fill="none" id="id97" stroke="none" /><text fill="#e1ed5e" style="font-size:6.75px; font-family:Arial;" text-anchor="middle"><textPath startOffset="22.20632615414155" xlink:href="#id97">January</textPath></text><path d="M 100.0 79.0 l 0.0 -47.9299776559545 a68.9299776559545,68.9299776559545 0 0,0 1.1865162552056716,0.010212720005105825 l -0.8250357759331434 47.92287631255795" fill="#30ff36" stroke="none" /><path d="M 100.36148047927253 79.00311137660856 l 0.4475469759926079 -25.99613131963275 a46.99998349775074,46.99998349775074 0 0,0 0.8087877229698986,0.02088860072810354 l -0.8949613341573743 25.984575926762286" fill="#ff4406" stroke="none" /><path d="M 101.08401301168833 79.027996857942 l 3.21974286108999 -62.29118716410059 a83.37434362303583,83.37434362303583 0 0,0 1.4326013015370673,0.08641842277317062 l -4.291506211466669 62.226535471947116" fill="#4cdbff" stroke="none" /><path d="M 101.80526077348638 79.07773832637324 l 2.803796886313426 -32.49490211979736 a53.615639511665435,53.615639511665435 0 0,0 0.918805783582661,0.08725168027531727 l -3.362727796986331 32.44182489500686" fill="#ffcd13" stroke="none" /><path d="M 102.16513564639614 79.11191278185805 l 2.6783271536177957 -25.83908831606326 a46.9775272369624,46.9775272369624 0 0,0 0.8036139033474129,0.09029538548708893 l -3.122707760474934 25.789156977105574" fill="#ff4406" stroke="none" /><path d="M 102.52436894288641 79.15227682838746 l 2.7917784712550335 -23.05614830558135 a44.22455600698375,44.22455600698375 0 0,0 0.7549453317515968,0.09801357113745593 l -3.1882385315144766 23.004676411279757" fill="#ff0701" stroke="none" /><path d="M 102.88285421437855 79.19881850522331 l 4.627177540531679 -33.38731433212693 a54.70643158662526,54.70643158662526 0 0,0 0.9316531859730848,0.13730146173741647 l -5.201199706933419 33.30271838622854" fill="#ffe215" stroke="none" /><path d="M 103.59715602781102 79.31037775812273 l 10.705026354398397 -61.57168319902488 a83.49535791728412,83.49535791728412 0 0,0 1.4138741257450367,0.2583764592239291 l -11.763295601246334 61.37829125845022" fill="#4cd9ff" stroke="none" /><path d="M 104.307194497241 79.44645832069477 l 7.960837347999269 -37.988394148228615 a59.81356748924878,59.81356748924878 0 0,0 1.0058855501505812,0.21984762099531796 l -8.613565622303378 37.84573302913743" fill="#beff1f" stroke="none" /><path d="M 104.66035177308747 79.52364482259891 l 5.768248356342042 -25.344160236571632 a46.99229014914733,46.99229014914733 0 0,0 0.7871797414216368,0.1863000120370907 l -6.203651784726202 25.241114312393673" fill="#ff4406" stroke="none" /><path d="M 105.01212808612495 79.60689891045804 l 6.175562997706738 -25.126828032528586 a46.874602708349144,46.874602708349144 0 0,0 0.7818931750074074,0.1993219798871548 l -6.60716506139917 25.01680305647256" fill="#ff4206" stroke="none" /><path d="M 105.71112130821622 79.79150937346287 l 9.045387434483752 -32.00660909096579 a54.260217367627206,54.260217367627206 0 0,0 0.8966107721438016,0.2617452710750011 l -9.59498842435098 31.846165490972083" fill="#ffd914" stroke="none" /><path d="M 106.0581310904928 79.89281104454417 l 18.174393271478365 -60.321566866367476 a84.0,84.0 0 0,0 1.380858509157127,0.4290394604699177 l -19.21003715334621 59.99978727101504" fill="#4dd2ff" stroke="none" /><path d="M 106.74666289553966 80.11325718540242 l 7.358805612474196 -21.691120025374545 a43.90538600411236,43.90538600411236 0 0,0 0.7136046838929535,0.24896266221498106 l -7.731092300430424 21.561236509987356" fill="#ff0000" stroke="none" /><line stroke="#e1ed5e" stroke-width="0.3" x1="143.23703022742887" x2="145.7803849466894" y1="26.81831364943548" y2="22.513508569990506" /><path d="M 143.74570117128098 25.957352633546492 a86.0,86.0 0 0,1 28.547481713284135,27.462654790039103" fill="none" id="id98" stroke="none" /><text fill="#e1ed5e" style="font-size:6.75px; font-family:Arial;" text-anchor="middle"><textPath startOffset="19.985693538727396" xlink:href="#id98">February</textPath></text><line stroke="#e1ed5e" stroke-width="0.3" x1="172.23445277983987" x2="176.4835382374775" y1="55.19839476539836" y2="52.563006222186495" /><path d="M 173.08426987136738 54.67131705675599 a86.0,86.0 0 0,1 12.851231095245387,41.99856678651699" fill="none" id="id99" stroke="none" /><text fill="#e1ed5e" style="font-size:6.75px; font-family:Arial;" text-anchor="middle"><textPath startOffset="22.20632615414155" xlink:href="#id99">March</textPath></text><line stroke="#e1ed5e" stroke-width="0.3" x1="184.98032266829074" x2="189.97916517819016" y1="98.17113171792111" y2="98.06355123074" /><path d="M 185.9800911702706 98.14961562048488 a86.0,86.0 0 0,1 -9.607161424134198,41.387399972396054" fill="none" id="id100" stroke="none" /><text fill="#e1ed5e" style="font-size:6.75px; font-family:Arial;" text-anchor="middle"><textPath startOffset="21.466115282336823" xlink:href="#id100">April</textPath></text><line stroke="#e1ed5e" stroke-width="0.3" x1="174.80103733775053" x2="179.2010983576182" y1="140.37084112569926" y2="142.7455964860345" /><path d="M 175.68104954172406 140.8457921977663 a86.0,86.0 0 0,1 -30.038265399797805,32.042727171017184" fill="none" id="id101" stroke="none" /><text fill="#e1ed5e" style="font-size:6.75px; font-family:Arial;" text-anchor="middle"><textPath startOffset="22.206326154141568" xlink:href="#id101">May</textPath></text><line stroke="#e1ed5e" stroke-width="0.3" x1="143.8653032363475" x2="146.44561519142675" y1="172.8068346515853" y2="177.08958963109032" /><path d="M 144.38136562736335 173.6633856474863 a86.0,86.0 0 0,1 -40.68145358897372,12.25698825130547" fill="none" id="id102" stroke="none" /><text fill="#e1ed5e" style="font-size:6.75px; font-family:Arial;" text-anchor="middle"><textPath startOffset="21.466115282336833" xlink:href="#id102">June</textPath></text><line stroke="#e1ed5e" stroke-width="0.3" x1="102.19456741930631" x2="102.32365962044197" y1="184.97166512339345" y2="189.96999836594603" /><path d="M 102.22038585953345 185.97133177190398 a86.0,86.0 0 0,1 -42.740103519485714,-10.115201625700543" fill="none" id="id103" stroke="none" /><text fill="#e1ed5e" style="font-size:6.75px; font-family:Arial;" text-anchor="middle"><textPath startOffset="22.20632615414155" xlink:href="#id103">July</textPath></text><line stroke="#e1ed5e" stroke-width="0.3" x1="58.666819895761336" x2="56.23545636021788" y1="174.27360380694188" y2="178.64263932499728" /><path d="M 58.180547188652646 175.14741091055294 a86.0,86.0 0 0,1 -31.652253787137756,-30.449443065178592" fill="none" id="id104" stroke="none" /><text fill="#e1ed5e" style="font-size:6.75px; font-family:Arial;" text-anchor="middle"><textPath startOffset="22.20632615414155" xlink:href="#id104">August</textPath></text><line stroke="#e1ed5e" stroke-width="0.3" x1="26.63291911575756" x2="22.317208475507996" y1="142.92168965132927" y2="145.44649492493687" /><path d="M 25.769776987707644 143.4266507060508 a86.0,86.0 0 0,1 -11.730757126820373,-40.83630448921669" fill="none" id="id105" stroke="none" /><text fill="#e1ed5e" style="font-size:6.75px; font-family:Arial;" text-anchor="middle"><textPath startOffset="21.46611528233685" xlink:href="#id105">September</textPath></text><line stroke="#e1ed5e" stroke-width="0.3" x1="15.007084014347285" x2="10.007500721073583" y1="101.09737516637583" y2="101.16192664675087" /><path d="M 14.007167355692545 101.11028546245083 a86.0,86.0 0 0,1 10.666146001902534,-42.60595125391555" fill="none" id="id106" stroke="none" /><text fill="#e1ed5e" style="font-size:6.75px; font-family:Arial;" text-anchor="middle"><textPath startOffset="22.20632615414155" xlink:href="#id106">October</textPath></text><line stroke="#e1ed5e" stroke-width="0.3" x1="26.266209847984243" x2="21.928928074336255" y1="57.711370442889674" y2="55.22380399835377" /><path d="M 25.398753493254645 57.213857153982495 a86.0,86.0 0 0,1 29.58750427330803,-30.492523968695096" fill="none" id="id107" stroke="none" /><text fill="#e1ed5e" style="font-size:6.75px; font-family:Arial;" text-anchor="middle"><textPath startOffset="21.46611528233685" xlink:href="#id107">November</textPath></text><line stroke="#e1ed5e" stroke-width="0.3" x1="56.762969772571076" x2="54.21961505331055" y1="26.818313649435495" y2="22.513508569990535" /><path d="M 56.25429882871897 25.957352633546506 a86.0,86.0 0 0,1 42.265352541879196,-11.944610805530505" fill="none" id="id108" stroke="none" /><text fill="#e1ed5e" style="font-size:6.75px; font-family:Arial;" text-anchor="middle"><textPath startOffset="22.20632615414155" xlink:href="#id108">December</textPath></text></svg>