<?xml version="1.0" encoding="utf-8" ?>
<svg baseProfile="full" height="200mm" version="1.1" viewBox="0,0,200,200" width="200mm" xmlns="http://www.w3.org/2000/svg" xmlns:ev="http://www.w3.org/2001/xml-events" xmlns:xlink="http://www.w3.org/1999/xlink"><defs /><rect fill="#1a1a1a" height="200" width="200" x="0" y="0" /><text alignment-baseline="middle" fill="#e1ed5e" style="dominant-baseline: central; font-size:9.0px; font-family:Arial;" text-anchor="middle" x="100.0" y="100.0">2022</text><line stroke="#e1ed5e" stroke-width="0.3" x1="100.0" x2="100.0" y1="15.0" y2="10.0" /><path d="M 100.0 14.0 a86.0,86.0 0 0,1 42.46469731375804,11.215312516191453" fill="none" id="id61" stroke="none" /><text fill="#e1ed5e" style="font-size:6.75px; font-family:Arial;" text-anchor="middle"><textPath startOffset="22.20632615414155" xlink:href="#id61">January</textPath></text><path d="M 100.0 79.0 l 0.0 -59.55646199690972 a80.55646199690972,80.55646199690972 0 0,0 1.3866470710067687,0.011935309120259351 l -1.0251665917342403 59.547638064398015" fill="#48f5ff" stroke="none" /><path d="M 100.36148047927253 79.00311137660856 l 0.31171407784667243 -18.10616658487748 a39.108849606357154,39.108849606357154 0 0,0 0.6729950750431979,0.017381477259491792 l -0.6233357880847381 18.09811831547563" fill="#ffb610" stroke="none" /><path d="M 100.72285384407766 79.0124445844662 l 2.0579076125358604 -59.74990713821952 a80.7853358840409,80.7853358840409 0 0,0 1.3893506982394515,0.059828363643018384 l -3.086099143164643 59.70563104805231" fill="#49f2ff" stroke="none" /><path d="M 101.08401301168833 79.027996857942 l 1.5445749743377146 -29.882326933053598 a50.92221874770069,50.92221874770069 0 0,0 0.8749842419743533,0.05278143895421096 l -2.05872126515168 29.85131222471908" fill="#adff20" stroke="none" /><path d="M 101.44485096284872 79.0497635885617 l 2.0796509269360106 -30.154790835086377 a51.226418217938345,51.226418217938345 0 0,0 0.8791668423606036,0.06824026755575666 l -2.5984079586589552 30.114525305342156" fill="#a9ff21" stroke="none" /><path d="M 101.80526077348638 79.07773832637324 l 2.012189669630522 -23.3204861166259 a44.4071352365536,44.4071352365536 0 0,0 0.7610005785495746,0.07226617458809818 l -2.4133153752703405 23.282394397522626" fill="#fffe18" stroke="none" /><path d="M 102.16513564639614 79.11191278185805 l 2.007023871762318 -19.3627081758341 a40.466448384960636,40.466448384960636 0 0,0 0.6922331262182363,0.07778045740428959 l -2.3400237014902796 19.32529176495921" fill="#ffc912" stroke="none" /><path d="M 102.52436894288641 79.15227682838746 l 3.6969114776759016 -30.53126893108525 a51.75427672724597,51.75427672724597 0 0,0 0.883483140164135,0.11470146772920585 l -4.221909346347882 30.463109140191907" fill="#a3ff22" stroke="none" /><path d="M 102.88285421437855 79.19881850522331 l 5.152165951007875 -37.17535854001752 a58.53068206901626,58.53068206901626 0 0,0 0.9967803573594514,0.1468995138503727 l -5.791315288795983 37.08116454200618" fill="#55ff2b" stroke="none" /><path d="M 103.2404852339499 79.25152402106235 l 1.1441003896040483 -7.325550878149682 a28.414355087925834,28.414355087925834 0 0,0 0.4825985993458285,0.079632903956425 l -1.270028195088752 7.304771711253632" fill="#ff1802" stroke="none" /><path d="M 103.59715602781102 79.31037775812273 l 4.010375058671155 -23.066318049774473 a44.412350084614815,44.412350084614815 0 0,0 0.7520594463511915,0.13743405677767526 l -4.406829626125247 22.99386851164606" fill="#fffe18" stroke="none" /><path d="M 103.95276090670814 79.375362276772 l 5.57926487041685 -29.111377953317984 a50.641196379957336,50.641196379957336 0 0,0 0.8547114791346997,0.1714470820062936 l -6.0795427590186755 29.01102691523448" fill="#b0ff20" stroke="none" /><path d="M 104.307194497241 79.44645832069477 l 7.950372419517383 -37.93845645819368 a59.76254506658819,59.76254506658819 0 0,0 1.0050275053984905,0.21966008564656342 l -8.602242649069401 37.79598287445125" fill="#47ff2c" stroke="none" /><path d="M 104.66035177308747 79.52364482259891 l 6.633697509982978 -29.14671530554075 a50.892088514458095,50.892088514458095 0 0,0 0.8525062504949035,0.20176068611987544 l -7.134427447440405 29.028208707280005" fill="#adff20" stroke="none" /><path d="M 105.01212808612495 79.60689891045804 l 10.664785932354993 -43.39235827171126 a65.68371532631889,65.68371532631889 0 0,0 1.095639125569176,0.2793028085303472 l -11.410133946609195 43.20235246701205" fill="#34ff5f" stroke="none" /><path d="M 105.36241919743992 79.69619591428918 l 14.962919147355853 -56.65431360966404 a79.5969299536458,79.5969299536458 0 0,0 1.3216960707689869,0.36126946349948497 l -15.93591310734855 56.38835760533826" fill="#47ffff" stroke="none" /><path d="M 105.71112130821622 79.79150937346287 l 10.230569734382719 -36.20031188691054 a58.61817563093224,58.61817563093224 0 0,0 0.9686228744352241,0.2827675784357318 l -10.852182826541371 36.018845979556104" fill="#54ff2b" stroke="none" /><path d="M 106.0581310904928 79.89281104454417 l 8.894300143250717 -29.520551954964805 a51.83134059303951,51.83134059303951 0 0,0 0.8520446154633312,0.2647344095651216 l -9.401130131424766 29.363077410517164" fill="#a2ff22" stroke="none" /><path d="M 106.40334571778207 80.00007090966166 l 17.990063397332527 -56.189374763598735 a79.99905268192185,79.99905268192185 0 0,0 1.3078594757160749,0.4311807064693284 l -18.95460569529102 55.87138033287017" fill="#48faff" stroke="none" /><path d="M 106.74666289553966 80.11325718540242 l 9.963067788394282 -29.36755101298867 a52.01154256493268,52.01154256493268 0 0,0 0.8453559749447888,0.29492810065855235 l -10.467105767402344 29.19170205915791" fill="#a0ff22" stroke="none" /><path d="M 107.08798089147638 80.2323363322302 l 10.109799247773708 -28.19521022114887 a50.95292840850563,50.95292840850563 0 0,0 0.8230539938004617,0.30313773195509414 l -10.593635567346746 28.01700922138745" fill="#adff20" stroke="none" /><path d="M 107.4271985657038 80.35727306442388 l 15.392679125905305 -40.709049341061906 a64.52196306379221,64.52196306379221 0 0,0 1.0354756085603638,0.4017484490426419 l -16.091137899465338 40.438058188128714" fill="#33ff50" stroke="none" /><path d="M 107.76421540070413 80.48803036053334 l 22.727511180028195 -57.115688480916184 a82.47147009050107,82.47147009050107 0 0,0 1.3145014922880742,0.5362181638711648 l -23.707296541904658 56.71600943086143" fill="#4be1ff" stroke="none" /><path d="M 108.09893153111575 80.62456947434976 l 23.3177987770584 -55.78419677709586 a81.46152784931206,81.46152784931206 0 0,0 1.2890947056925222,0.5519230778701134 l -24.274577240541237 55.37455417126295" fill="#4aebff" stroke="none" /><path d="M 108.43124777332544 80.76684994638697 l 25.2937433199763 -57.69945016083909 a84.0,84.0 0 0,0 1.3192715261328791,0.591918677933875 l -26.283196964575957 57.255511152388685" fill="#4dd2ff" stroke="none" /><path d="M 108.76106565485865 80.91482961587045 l 25.397727255933827 -55.326597373498245 a81.87755683908469,81.87755683908469 0 0,0 1.2758152668240061,0.5990123745889011 l -26.346320734057432 54.881220016269346" fill="#4ae7ff" stroke="none" /><path d="M 109.08828744355905 81.06846463323043 l 12.086733540013974 -25.17750730294753 a48.928408505628724,48.928408505628724 0 0,0 0.7561273533108429,0.3710284084445891 l -12.518332160335248 24.965723734368108" fill="#c6ff1e" stroke="none" /><path d="M 109.41281617654863 81.2277094730956 l 28.081320086554523 -56.00350513135027 a83.64944632477375,83.64944632477375 0 0,0 1.2815872416192033,0.6564787622758806 l -29.041167815762485 55.51183384376189" fill="#4dd5ff" stroke="none" /><path d="M 109.73455568895987 81.39251694778311 l 22.55597043027017 -43.115459083926964 a69.65916783165329,69.65916783165329 0 0,0 1.0576747960875417,0.5649732464721539 l -23.294790272886022 42.720807110953054" fill="#3aff90" stroke="none" /><path d="M 110.05341064243156 81.56283822128135 l 2.9253716237330734 -5.364900709615745 a27.11064307262159,27.11064307262159 0 0,0 0.4077904322098698,0.22693493401945944 l -3.017286145014978 5.313750378036106" fill="#ff0300" stroke="none" /><path d="M 110.36928655335952 81.73862282372117 l 8.766037378827416 -15.437890938047435 a38.75308108306968,38.75308108306968 0 0,0 0.5772423995152509,0.33437605621802585 l -9.030476510807995 15.28471072443936" fill="#ffb110" stroke="none" /><line stroke="#e1ed5e" stroke-width="0.3" x1="143.23703022742887" x2="145.7803849466894" y1="26.81831364943548" y2="22.513508569990506" /><path d="M 143.74570117128098 25.957352633546492 a86.0,86.0 0 0,1 28.547481713284135,27.462654790039103" fill="none" id="id62" stroke="none" /><text fill="#e1ed5e" style="font-size:6.75px; font-family:Arial;" text-anchor="middle"><textPath startOffset="19.985693538727396" xlink:href="#id62">February</textPath></text><path d="M 110.68208982089419 81.91981866633111 l 3.001906173914925 -5.08093536761692 a26.90146972261055,26.90146972261055 0 0,0 0.39665311907704354,0.23897906606187722 l -3.088921359209606 5.028509692096429" fill="#ff0000" stroke="none" /><path d="M 113.34407831869373 83.78471172551755 l 18.950952518435496 -23.028578731583945 a50.823716062099926,50.823716062099926 0 0,0 0.6707338023971829,0.5617202702361213 l -19.3445438577918 22.698957303954003" fill="#aeff20" stroke="none" /><path d="M 113.6212207817346 84.01681056812373 l 20.18152583154988 -23.681074960807482 a52.114101243469946,52.114101243469946 0 0,0 0.6777468679781915,0.5877354052821487 l -20.586166498174833 23.33017456210566" fill="#9fff22" stroke="none" /><path d="M 113.89432698308785 84.25364557470407 l 38.34191720328428 -43.45265649521161 a78.95028879405488,78.95028879405488 0 0,0 1.0112742957963905,0.9079320477006897 l -39.084202486676666 42.786225438741624" fill="#46fff9" stroke="none" /><path d="M 114.16331599549186 84.49514656593476 l 20.770553449720186 -22.737922890715385 a51.79657493929807,51.79657493929807 0 0,0 0.65311069954074,0.6069952166477363 l -21.158872033055772 22.37702308799301" fill="#a2ff22" stroke="none" /><path d="M 114.42810811169701 84.74124197986012 l 20.722557381160584 -21.915589084146525 a51.161522330954305,51.161522330954305 0 0,0 0.6346873261671927,0.6105687049107299 l -21.096727950940195 21.55563729247349" fill="#aaff21" stroke="none" /><path d="M 114.68862486808459 84.99185889309783 l 21.421361583104932 -21.88733256029674 a51.62564380840262,51.62564380840262 0 0,0 0.6297448446202989,0.6270405201252467 l -21.794942227892555 21.515356189521377" fill="#a4ff21" stroke="none" /><path d="M 114.94478906791727 85.2469230424477 l 20.966111769505194 -20.69715798800898 a50.46099440806417,50.46099440806417 0 0,0 0.6048969324565395,0.6233994608379672 l -21.319272965664844 20.3331943316209" fill="#b3ff20" stroke="none" /><path d="M 115.19652480421416 85.50635884689758 l 22.369617714981203 -21.33495756892467 a51.912460451769554,51.912460451769554 0 0,0 0.611164600980639,0.6519477841066715 l -22.733549637932303 20.94674036793994" fill="#a1ff22" stroke="none" /><path d="M 115.4437574822437 85.77008943001954 l 22.065392077814632 -20.33109858917837 a51.00391803399309,51.00391803399309 0 0,0 0.5893535744974708,0.6507789369305157 l -22.41208929292814 19.948266864978308" fill="#acff21" stroke="none" /><path d="M 115.68641384162765 86.03803664274999 l 30.790112784550896 -27.405271262363204 a62.21989735854609,62.21989735854609 0 0,0 0.7051829437469105,0.8061460079004615 l -31.257287591875656 26.871209698259793" fill="#30ff32" stroke="none" /><path d="M 115.9244219780498 86.31012108654704 l 29.52435991138595 -25.38144949569951 a59.93463505260835,59.93463505260835 0 0,0 0.665814963918882,0.7881149084296875 l -29.95688548879195 24.869475637640715" fill="#45ff2d" stroke="none" /><path d="M 116.15771136456269 86.58626213691792 l 24.45992294579314 -20.30603141393195 a52.790293208741076,52.790293208741076 0 0,0 0.5744124572345642,0.7041617532761114 l -24.80583389510411 19.88198549104774" fill="#96ff23" stroke="none" /><path d="M 116.60985879189232 87.15038557335679 l 23.263548730830504 -17.997000163090544 a50.41232249282614,50.41232249282614 0 0,0 0.5250660875410558,0.6909254236490652 l -23.569890758595673 17.593889963560443" fill="#b3ff20" stroke="none" /><path d="M 116.82858285166822 87.43820079747576 l 24.437260509724616 -18.241343450527417 a51.494693179309834,51.494693179309834 0 0,0 0.5241114852170508,0.7148874768277234 l -24.747634607455293 17.8179935300282" fill="#a6ff21" stroke="none" /><path d="M 117.04232023915458 87.72973835380427 l 23.930848399981283 -17.22991747382993 a50.48822750349496,50.48822750349496 0 0,0 0.501726472783329,0.7096565144881534 l -24.223887492568494 16.815434459009982" fill="#b2ff20" stroke="none" /><path d="M 117.45458315368197 88.32363383020206 l 25.083337899893806 -16.77967531514199 a51.17832573026268,51.17832573026268 0 0,0 0.48352152483962857,0.7364364548358094 l -25.368456060091358 16.345420796328504" fill="#aaff21" stroke="none" /><path d="M 117.65298651832404 88.62581576622439 l 25.613943106810748 -16.503593176593647 a51.470357221690826,51.470357221690826 0 0,0 0.47345964888539765,0.7488994629560822 l -25.894230351942102 16.06024606592336" fill="#a6ff21" stroke="none" /><line stroke="#e1ed5e" stroke-width="0.3" x1="172.23445277983987" x2="176.4835382374775" y1="55.19839476539836" y2="52.563006222186495" /><path d="M 173.08426987136738 54.67131705675599 a86.0,86.0 0 0,1 12.851231095245387,41.99856678651699" fill="none" id="id63" stroke="none" /><text fill="#e1ed5e" style="font-size:6.75px; font-family:Arial;" text-anchor="middle"><textPath startOffset="22.20632615414155" xlink:href="#id63">March</textPath></text><path d="M 117.84615892207809 88.93136811851018 l 31.502751159529915 -19.538790243968638 a58.07003715694209,58.07003715694209 0 0,0 0.5195448845105419,0.8539951850059975 l -31.83441184232668 18.993627285755558" fill="#5aff2a" stroke="none" /><path d="M 118.03404312379186 89.2402003453031 l 25.917551232777846 -15.46340201644129 a51.18006401294976,51.18006401294976 0 0,0 0.4448774069311112,0.7604396975755161 l -26.179888314179284 15.014982906511879" fill="#aaff21" stroke="none" /><path d="M 118.21658344932153 89.55222093294921 l 25.530995409874755 -14.642822576820466 a50.43202302994629,50.43202302994629 0 0,0 0.4254117863770965,0.7567600992421103 l -25.779264837544286 14.20117896764356" fill="#b3ff20" stroke="none" /><path d="M 118.89224826269711 90.83032412892265 l 52.63481006026722 -25.547205450468052 a79.50711868148039,79.50711868148039 0 0,0 0.5869965372768842,1.2363644102859572 l -53.06676479138586 24.637398624541554" fill="#47fffe" stroke="none" /><path d="M 119.04729006885535 91.15688171328212 l 53.50086810231428 -24.83894051912701 a79.98572584798765,79.98572584798765 0 0,0 0.5690324817949659,1.2537876455214318 l -53.92050290107259 23.914330864763517" fill="#48fbff" stroke="none" /><path d="M 119.196687751892 91.48605970444005 l 53.435324309153295 -23.69914886994894 a79.45497020086822,79.45497020086822 0 0,0 0.5437341603351298,1.2550134086892368 l -53.835349179331104 22.775836316673097" fill="#47fffe" stroke="none" /><path d="M 119.34039704204932 91.81776055985345 l 53.93513913905254 -22.818053926910785 a79.56332315502908,79.56332315502908 0 0,0 0.5227625292694887,1.2659109297779403 l -54.319923355208225 21.886268426679543" fill="#47ffff" stroke="none" /><line stroke="#e1ed5e" stroke-width="0.3" x1="184.98032266829074" x2="189.97916517819016" y1="98.17113171792111" y2="98.06355123074" /><path d="M 185.9800911702706 98.14961562048488 a86.0,86.0 0 0,1 -9.607161424134198,41.387399972396054" fill="none" id="id64" stroke="none" /><text fill="#e1ed5e" style="font-size:6.75px; font-family:Arial;" text-anchor="middle"><textPath startOffset="21.466115282336823" xlink:href="#id64">April</textPath></text><line stroke="#e1ed5e" stroke-width="0.3" x1="174.80103733775053" x2="179.2010983576182" y1="140.37084112569926" y2="142.7455964860345" /><path d="M 175.68104954172406 140.8457921977663 a86.0,86.0 0 0,1 -30.038265399797805,32.042727171017184" fill="none" id="id65" stroke="none" /><text fill="#e1ed5e" style="font-size:6.75px; font-family:Arial;" text-anchor="middle"><textPath startOffset="22.206326154141568" xlink:href="#id65">May</textPath></text><line stroke="#e1ed5e" stroke-width="0.3" x1="143.8653032363475" x2="146.44561519142675" y1="172.8068346515853" y2="177.08958963109032" /><path d="M 144.38136562736335 173.6633856474863 a86.0,86.0 0 0,1 -40.68145358897372,12.25698825130547" fill="none" id="id66" stroke="none" /><text fill="#e1ed5e" style="font-size:6.75px; font-family:Arial;" text-anchor="middle"><textPath startOffset="21.466115282336833" xlink:href="#id66">June</textPath></text><line stroke="#e1ed5e" stroke-width="0.3" x1="102.19456741930631" x2="102.32365962044197" y1="184.97166512339345" y2="189.96999836594603" /><path d="M 102.22038585953345 185.97133177190398 a86.0,86.0 0 0,1 -42.740103519485714,-10.115201625700543" fill="none" id="id67" stroke="none" /><text fill="#e1ed5e" style="font-size:6.75px; font-family:Arial;" text-anchor="middle"><textPath startOffset="22.20632615414155" xlink:href="#id67">July</textPath></text><line stroke="#e1ed5e" stroke-width="0.3" x1="58.666819895761336" x2="56.23545636021788" y1="174.27360380694188" y2="178.64263932499728" /><path d="M 58.180547188652646 175.14741091055294 a86.0,86.0 0 0,1 -31.652253787137756,-30.449443065178592" fill="none" id="id68" stroke="none" /><text fill="#e1ed5e" style="font-size:6.75px; font-family:Arial;" text-anchor="middle"><textPath startOffset="22.20632615414155" xlink:href="#id68">August</textPath></text><line stroke="#e1ed5e" stroke-width="0.3" x1="26.63291911575756" x2="22.317208475507996" y1="142.92168965132927" y2="145.44649492493687" /><path d="M 25.769776987707644 143.4266507060508 a86.0,86.0 0 0,1 -11.730757126820373,-40.83630448921669" fill="none" id="id69" stroke="none" /><text fill="#e1ed5e" style="font-size:6.75px; font-family:Arial;" text-anchor="middle"><textPath startOffset="21.46611528233685" xlink:href="#id69">September</textPath></text><line stroke="#e1ed5e" stroke-width="0.3" x1="15.007084014347285" x2="10.007500721073583" y1="101.09737516637583" y2="101.16192664675087" /><path d="M 14.007167355692545 101.11028546245083 a86.0,86.0 0 0,1 10.666146001902534,-42.60595125391555" fill="none" id="id70" stroke="none" /><text fill="#e1ed5e" style="font-size:6.75px; font-family:Arial;" text-anchor="middle"><textPath startOffset="22.20632615414155" xlink:href="#id70">October</textPath></text><line stroke="#e1ed5e" stroke-width="0.3" x1="26.266209847984243" x2="21.928928074336255" y1="57.711370442889674" y2="55.22380399835377" /><path d="M 25.398753493254645 57.213857153982495 a86.0,86.0 0 0,1 29.58750427330803,-30.492523968695096" fill="none" id="id71" stroke="none" /><text fill="#e1ed5e" style="font-size:6.75px; font-family:Arial;" text-anchor="middle"><textPath startOffset="21.46611528233685" xlink:href="#id71">November</textPath></text><line stroke="#e1ed5e" stroke-width="0.3" x1="56.762969772571076" x2="54.21961505331055" y1="26.818313649435495" y2="22.513508569990535" /><path d="M 56.25429882871897 25.957352633546506 a86.0,86.0 0 0,1 42.265352541879196,-11.944610805530505" fill="none" id="id72" stroke="none" /><text fill="#e1ed5e" style="font-size:6.75px; font-family:Arial;" text-anchor="middle"><textPath startOffset="22.20632615414155" xlink:href="#id72">December</textPath></text></svg>