<?xml version="1.0" encoding="utf-8" ?>
<svg baseProfile="full" height="200mm" version="1.1" viewBox="0,0,200,200" width="200mm" xmlns="http://www.w3.org/2000/svg" xmlns:ev="http://www.w3.org/2001/xml-events" xmlns:xlink="http://www.w3.org/1999/xlink"><defs /><rect fill="#1a1a1a" height="200" width="200" x="0" y="0" /><text alignment-baseline="middle" fill="#e1ed5e" style="dominant-baseline: central; font-size:9.0px; font-family:Arial;" text-anchor="middle" x="100.0" y="100.0">2021</text><line stroke="#e1ed5e" stroke-width="0.3" x1="100.0" x2="100.0" y1="15.0" y2="10.0" /><path d="M 100.0 14.0 a86.0,86.0 0 0,1 42.46469731375804,11.215312516191453" fill="none" id="id49" stroke="none" /><text fill="#e1ed5e" style="font-size:6.75px; font-family:Arial;" text-anchor="middle"><textPath startOffset="22.20632615414155" xlink:href="#id49">January</textPath></text><path d="M 100.0 79.0 l 0.0 -44.63220616563862 a65.63220616563862,65.63220616563862 0 0,0 1.1297505400223067,0.009724119572946723 l -0.7682700607497783 44.625593422674235" fill="#36ff6a" stroke="none" /><path d="M 100.72285384407766 79.0124445844662 l 0.2194950425612527 -6.372884929549215 a27.37666373576218,27.37666373576218 0 0,0 0.4708253850840496,0.02027473148922539 l -0.32916126003463386 6.368162471535795" fill="#ff3605" stroke="none" /><path d="M 103.2404852339499 79.25152402106235 l 4.286818290858414 -27.44803321492974 a48.780772819105024,48.780772819105024 0 0,0 0.8285084269785414,0.13671098938559575 l -4.758655923975831 27.37017596260452" fill="#b0ff20" stroke="none" /><path d="M 105.71112130821622 79.79150937346287 l 8.133883025971386 -28.781300556725835 a50.90858262801453,50.90858262801453 0 0,0 0.8412274368455352,0.24557735679038728 l -8.62810068054035 28.637024871016745" fill="#98ff23" stroke="none" /><path d="M 108.09893153111575 80.62456947434976 l 12.365456728729741 -29.582426625655255 a53.062820917261234,53.062820917261234 0 0,0 0.8396970118223672,0.3595144384635155 l -12.872837498342424 29.36519265922895" fill="#80ff25" stroke="none" /><path d="M 110.05341064243156 81.56283822128135 l 14.32067983784276 -26.262996742335535 a50.91365689623927,50.91365689623927 0 0,0 0.7658284643225448,0.42618271125061064 l -14.77063239123734 26.012598633524743" fill="#98ff23" stroke="none" /><line stroke="#e1ed5e" stroke-width="0.3" x1="143.23703022742887" x2="145.7803849466894" y1="26.81831364943548" y2="22.513508569990506" /><path d="M 143.74570117128098 25.957352633546492 a86.0,86.0 0 0,1 28.547481713284135,27.462654790039103" fill="none" id="id50" stroke="none" /><text fill="#e1ed5e" style="font-size:6.75px; font-family:Arial;" text-anchor="middle"><textPath startOffset="19.985693538727396" xlink:href="#id50">February</textPath></text><path d="M 112.48926042617603 83.11751280151076 l 3.9580997640247384 -5.350402371019397 a27.65532563243773,27.65532563243773 0 0,0 0.38026579263956073,0.2864083112794722 l -4.049611710422682 5.281477470234077" fill="#ff3a05" stroke="none" /><path d="M 113.89432698308785 84.25364557470407 l 7.092180697465926 -8.03752431092725 a31.719180196929933,31.719180196929933 0 0,0 0.40629099787795303,0.3647720694563738 l -7.229482682939869 7.914253232701579" fill="#ff740a" stroke="none" /><path d="M 114.16331599549186 84.49514656593476 l 6.6817708348724105 -7.314662576735843 a30.907085853128123,30.907085853128123 0 0,0 0.3897120318468642,0.3621948612501042 l -6.806690750514121 7.198563129411099" fill="#ff6909" stroke="none" /><path d="M 114.42810811169701 84.74124197986012 l 6.707040960620129 -7.0931763372565895 a30.762046353037512,30.762046353037512 0 0,0 0.3816204064637034,0.3671185286606309 l -6.828144610696251 6.976674721833657" fill="#ff6709" stroke="none" /><path d="M 114.68862486808459 84.99185889309783 l 7.414360612532863 -7.575642464130908 a31.60014632149114,31.60014632149114 0 0,0 0.3854679141447764,0.38381259242013893 l -7.5436643268449615 7.4468940210606505" fill="#ff720a" stroke="none" /><path d="M 114.94478906791727 85.2469230424477 l 7.360098217088483 -7.265682701735337 a31.342204353399964,31.342204353399964 0 0,0 0.37571204238432193,0.38720428569795373 l -7.484074523175915 7.137914220487269" fill="#ff6f0a" stroke="none" /><path d="M 115.19652480421416 85.50635884689758 l 7.444447912220343 -7.100120456011303 a31.28744454214126,31.28744454214126 0 0,0 0.3683466048978194,0.3929264758806874 l -7.565561839088625 6.97092456325256" fill="#ff6e0a" stroke="none" /><path d="M 115.4437574822437 85.77008943001954 l 8.260280590697807 -7.611039879622506 a32.232104143314515,32.232104143314515 0 0,0 0.3724440498429283,0.41126202217327357 l -8.390068281156772 7.467725070179683" fill="#ff7b0b" stroke="none" /><path d="M 115.68641384162765 86.03803664274999 l 8.26514509978463 -7.3565350366641615 a32.06486471974065,32.06486471974065 0 0,0 0.36341422364637493,0.4154452801284932 l -8.390551187008853 7.213174200332721" fill="#ff790b" stroke="none" /><path d="M 115.9244219780498 86.31012108654704 l 5.149862320440084 -4.427224528774549 a27.79127373529234,27.79127373529234 0 0,0 0.30873377143418773,0.36544340573374523 l -5.225306705361389 4.337922173411698" fill="#ff3c05" stroke="none" /><path d="M 116.15771136456269 86.58626213691792 l 8.615793998818697 -7.152622025167456 a32.197852832797494,32.197852832797494 0 0,0 0.35034561543790943,0.429482299195011 l -8.737638106333016 7.003255556364344" fill="#ff7b0b" stroke="none" /><path d="M 116.38621287248628 86.86637796730983 l 8.49726768318993 -6.810597599949057 a31.889802465986968,31.889802465986968 0 0,0 0.3396201996277394,0.43128316455597393 l -8.613241963411634 6.663322041440045" fill="#ff760a" stroke="none" /><path d="M 116.60985879189232 87.15038557335679 l 9.035492496507084 -6.989980841475692 a32.42365776879862,32.42365776879862 0 0,0 0.3377063838083617,0.4443820155944496 l -9.15447482053956 6.833414050000209" fill="#ff7e0b" stroke="none" /><path d="M 116.82858285166822 87.43820079747576 l 9.095682594544714 -6.789528231204512 a32.35029230738252,32.35029230738252 0 0,0 0.32926033153335565,0.44911072218129405 l -9.211205538591697 6.6319550653517245" fill="#ff7d0b" stroke="none" /><path d="M 117.04232023915458 87.72973835380427 l 9.169167960226542 -6.601688524277827 a32.298492485921585,32.298492485921585 0 0,0 0.32096608481766425,0.45398376481317887 l -9.28144666484809 6.442878259132854" fill="#ff7c0b" stroke="none" /><path d="M 117.2510076193507 88.02491185347247 l 10.72579462167507 -7.4454976120950915 a34.05672642579554,34.05672642579554 0 0,0 0.3301483942716712,0.48445203042155377 l -10.852367481615474 7.259767558403132" fill="#ff940d" stroke="none" /><path d="M 117.45458315368197 88.32363383020206 l 9.599393954874019 -6.4215821047327495 a32.54924590736104,32.54924590736104 0 0,0 0.3075180906944154,0.46837114973110144 l -9.708508680926359 6.255392891023973" fill="#ff7f0b" stroke="none" /><path d="M 117.65298651832404 88.62581576622439 l 9.83665210900779 -6.33795835142541 a32.70168538194608,32.70168538194608 0 0,0 0.3008125320018579,0.47581318534112294 l -9.944292237255604 6.1676975183700815" fill="#ff820b" stroke="none" /><line stroke="#e1ed5e" stroke-width="0.3" x1="172.23445277983987" x2="176.4835382374775" y1="55.19839476539836" y2="52.563006222186495" /><path d="M 173.08426987136738 54.67131705675599 a86.0,86.0 0 0,1 12.851231095245387,41.99856678651699" fill="none" id="id51" stroke="none" /><text fill="#e1ed5e" style="font-size:6.75px; font-family:Arial;" text-anchor="middle"><textPath startOffset="22.20632615414155" xlink:href="#id51">March</textPath></text><path d="M 118.03404312379186 89.2402003453031 l 10.543936238915215 -6.2909155048516805 a33.27803768113996,33.27803768113996 0 0,0 0.2892658967287621,0.4944491844275479 l -10.650661810114304 6.108486908070237" fill="#ff890c" stroke="none" /><path d="M 118.21658344932153 89.55222093294921 l 26.40308453033933 -15.14299290144475 a51.437363662601435,51.437363662601435 0 0,0 0.43389218689962455,0.7718457855031685 l -26.659834358531388 14.686263606006788" fill="#92ff23" stroke="none" /><path d="M 118.3937258080291 89.86733742301442 l 9.587362442435998 -5.281448122384378 a31.945830844301852,31.945830844301852 0 0,0 0.2611828771287419,0.4839322045150912 l -9.676853418783203 5.115634934536828" fill="#ff770b" stroke="none" /><path d="M 118.56541770881063 90.18545643968196 l 10.323584461818683 -5.457527053164967 a32.67737118003584,32.67737118003584 0 0,0 0.2586033732974969,0.49953940541024616 l -10.415997268276296 5.279014925494376" fill="#ff810b" stroke="none" /><path d="M 118.73160827565052 90.50648371742162 l 9.912085611763935 -5.023623426500678 a32.11243598434763,32.11243598434763 0 0,0 0.2456448238361959,0.4952049754034412 l -9.99709044855354 4.852258862598287" fill="#ff790b" stroke="none" /><path d="M 118.89224826269711 90.83032412892265 l 21.77470875511255 -10.568727379352522 a45.20404800418828,45.20404800418828 0 0,0 0.33373891658253846,0.7029392723579417 l -21.953405865536844 10.192345691354038" fill="#dbff1b" stroke="none" /><path d="M 119.04729006885535 91.15688171328212 l 8.347084592887974 -3.875315393282326 a30.202819709102137,30.202819709102137 0 0,0 0.21486815646255322,0.47343350091179026 l -8.412555066313875 3.7310598835284727" fill="#ff5f08" stroke="none" /><path d="M 119.196687751892 91.48605970444005 l 10.642528654089956 -4.720077480333939 a32.64227415814803,32.64227415814803 0 0,0 0.22338085944705044,0.5155938219474443 l -10.722200223379687 4.536184513799892" fill="#ff810b" stroke="none" /><path d="M 119.34039704204932 91.81776055985345 l 12.486159395695978 -5.2824533871407295 a34.557598985146356,34.557598985146356 0 0,0 0.22705710539208337,0.5498367907149773 l -12.575238187974259 5.066742025972449" fill="#ff9b0e" stroke="none" /><path d="M 119.47837535516314 92.15188598940014 l 12.472281415959307 -5.025259280609782 a34.446599367730066,34.446599367730066 0 0,0 0.21686012481213593,0.5518853635823345 l -12.556935090653143 4.8098249121316625" fill="#ff990e" stroke="none" /><path d="M 119.61058180528143 92.48833698450437 l 10.734176481918578 -4.11163306023463 a32.49469752394504,32.49469752394504 0 0,0 0.19558003166925012,0.5240572485995428 l -10.803361102089454 3.926252674605754" fill="#ff7f0b" stroke="none" /><path d="M 119.85752413597 93.16781622104841 l 36.35943364509839 -12.50983410927493 a59.451324612214485,59.451324612214485 0 0,0 0.3246118937566422,0.970548244950655 l -36.5693828326268 11.882112761401961" fill="#3dff2e" stroke="none" /><path d="M 119.97218684219823 93.5106431181261 l 13.625169113016758 -4.427085809323383 a35.32635062119514,35.32635062119514 0 0,0 0.18293080516840926,0.5799406427342376 l -13.699355401953374 4.191895000162726" fill="#ffa50f" stroke="none" /><path d="M 120.08093135843002 93.85539295169968 l 13.137309829086927 -4.019913475657821 a34.738581218495575,34.738581218495575 0 0,0 0.1700438710460724,0.5733033998309282 l -13.204559597244703 3.7931806890803634" fill="#ff9d0e" stroke="none" /><path d="M 120.18372546131832 94.20196356495316 l 13.96375065072741 -4.011268147596896 a35.52847563881413,35.52847563881413 0 0,0 0.16379173635466152,0.5892460224644807 l -14.030729157648436 3.7703108217134633" fill="#ffa80f" stroke="none" /><path d="M 120.28053869075195 94.5502522615342 l 7.242009164728367 -1.9460589124007956 a28.498922724801492,28.498922724801492 0 0,0 0.12322889148365541,0.47485118711500657 l -7.274434388082326 1.8211112997369385" fill="#ff4606" stroke="none" /><path d="M 120.37134235888165 94.90015583598534 l 6.378974239825659 -1.5969381877866882 a27.5758287635834,27.5758287635834 0 0,0 0.11131075165600546,0.4614549274645022 l -6.405517791742484 1.48689802866278" fill="#ff3905" stroke="none" /><path d="M 120.45610955862082 95.25157060432595 l 25.973631158948088 -6.029198922410344 a47.66422238181855,47.66422238181855 0 0,0 0.17864008764915376,0.8008084851300381 l -26.07356563359928 5.581212267730342" fill="#bdff1f" stroke="none" /><path d="M 120.53481517161879 95.60439243477599 l 11.117264756892787 -2.3797211059165337 a32.369109385382615,32.369109385382615 0 0,0 0.11193654829385559,0.545842362936827 l -11.15658060110164 2.1880030868162947" fill="#ff7d0b" stroke="none" /><path d="M 120.6074358757038 95.95851677861258 l 14.769766608357795 -2.8966128678756706 a36.0511252659628,36.0511252659628 0 0,0 0.1141864047285951,0.6099883399590419 l -14.81743873699625 2.641946450454066" fill="#ffaf10" stroke="none" /><path d="M 120.67395015179393 96.31383870115 l 13.625599463410246 -2.42944173933281 a34.84048943867586,34.84048943867586 0 0,0 0.10018820480599834,0.5913164560940968 l -13.665399529736467 2.1945394949228754" fill="#ff9f0e" stroke="none" /><path d="M 120.73433829027371 96.67025291283417 l 13.523656132335054 -2.1717767880539642 a34.69692993348413,34.69692993348413 0 0,0 0.08962399831624088,0.5905101693093792 l -13.559036024090595 1.9386675063525027" fill="#ff9d0e" stroke="none" /><path d="M 120.78858239683441 97.02765380044208 l 5.631825345171261 -0.8052369489053172 a26.68910039130931,26.68910039130931 0 0,0 0.06111041563624863,0.4553435779524245 l -5.644851759865347 0.7081750288882283" fill="#ff2c04" stroke="none" /><path d="M 120.83666639777658 97.38593545837742 l 13.250758754278824 -1.6623742948080877 a34.35462825615657,34.35462825615657 0 0,0 0.06856144490040246,0.5873925901378554 l -13.277410552182815 1.4340379663453797" fill="#ff980e" stroke="none" /><path d="M 120.87857604477298 97.74499172005257 l 11.071305433045987 -1.1957657154303845 a32.13569304704437,32.13569304704437 0 0,0 0.054665682087335424,0.5504759584187245 l -11.09024824081555 1.005014226307225" fill="#ff7a0b" stroke="none" /><path d="M 120.91429891909075 98.10471618934814 l 18.73207339708733 -1.6975273991630195 a39.80883231422876,39.80883231422876 0 0,0 0.055970301077180075,0.6829794407155368 l -18.758518181984 1.374834041239714" fill="#ffe015" stroke="none" /><path d="M 120.94382443527127 98.46500227214037 l 13.703727904688098 -1.0043624678918597 a34.74048406907985,34.74048406907985 0 0,0 0.038577502700545725,0.5967768919705898 l -13.718985998393059 0.7683265116682347" fill="#ff9d0e" stroke="none" /><path d="M 120.96714384426684 98.82574320788733 l 14.624803427790416 -0.8190564669155597 a35.64772094209562,35.64772094209562 0 0,0 0.02903828000087999,0.6129521955425439 l -14.636735316024792 0.567193164750016" fill="#ffaa0f" stroke="none" /><path d="M 120.98425023603335 99.18683210126433 l 11.078538200082397 -0.4293082444163013 a32.08685321538121,32.08685321538121 0 0,0 0.01663673627456849,0.5520922829480661 l -11.08428663081261 0.23854581404323613" fill="#ff790b" stroke="none" /><line stroke="#e1ed5e" stroke-width="0.3" x1="184.98032266829074" x2="189.97916517819016" y1="98.17113171792111" y2="98.06355123074" /><path d="M 185.9800911702706 98.14961562048488 a86.0,86.0 0 0,1 -9.607161424134198,41.387399972396054" fill="none" id="id52" stroke="none" /><text fill="#e1ed5e" style="font-size:6.75px; font-family:Arial;" text-anchor="middle"><textPath startOffset="21.466115282336823" xlink:href="#id52">April</textPath></text><path d="M 120.99513854157772 99.54816195383933 l 11.379371571821306 -0.24489636052487826 a32.38200648378717,32.38200648378717 0 0,0 0.007196504465424933,0.5573772016733366 l -11.381901083404447 0.04898290079107889" fill="#ff7d0b" stroke="none" /><path d="M 120.99980553446 99.90962569577887 l 11.639417811115312 -0.05009114415333201 a32.639525596192954,32.639525596192954 0 0,0 -0.0024179713542539596,0.5618513875691419 l -11.638555542471554 -0.1502697216194946" fill="#ff810b" stroke="none" /><path d="M 120.99824983174949 100.27111621757518 l 24.73711007819147 0.3193900335445954 a45.739171874056126,45.739171874056126 0 0,0 -0.016940781508384697,0.7871715491719153 l -24.72794723399808 -0.7451513985066256" fill="#d4ff1c" stroke="none" /><path d="M 120.9904718944345 100.63252640178507 l 21.35656921311122 0.6435583700443045 a42.36626349949996,42.36626349949996 0 0,0 -0.02823987276461522,0.7287456350009238 l -21.342327207495405 -1.0110812520592345" fill="#feff18" stroke="none" /><path d="M 120.9764740272857 100.99374915477107 l 8.506139237621268 0.40297376321471834 a29.51567922033466,29.51567922033466 0 0,0 -0.028410456336956554,0.5072877829614095 l -8.497942430396781 -0.5493332625115511" fill="#ff5507" stroke="none" /><path d="M 120.95626037817324 101.35467743843564 l 11.105747590654598 0.717909847774673 a32.128927356078044,32.128927356078044 0 0,0 -0.04042651557957546,0.5515876860671397 l -11.091744516410685 -0.908970670338583" fill="#ff7a0b" stroke="none" /><path d="M 120.92983693683757 101.71520430193887 l 14.21906142976158 1.165254913712919 a35.26672796955439,35.26672796955439 0 0,0 -0.05479005895206052,0.6046037349540124 l -14.196896774532442 -1.4098400372155018" fill="#ffa50f" stroke="none" /><path d="M 120.89721153311464 102.0752229133903 l 11.169552340957834 1.1092059298694947 a32.2244927409774,32.2244927409774 0 0,0 -0.05956574492860966,0.5515048198335293 l -11.148804294528173 -1.3013070715878154" fill="#ff7b0b" stroke="none" /><path d="M 120.8583938346157 102.4346265915055 l 11.32604611156338 1.3219950327176193 a32.40293784021425,32.40293784021425 0 0,0 -0.0694325380370398,0.5534456434387618 l -11.301612064279492 -1.516758430443776" fill="#ff7d0b" stroke="none" /><path d="M 120.81339534386255 102.79330883721812 l 21.41235654542248 2.873693781136526 a42.60433125037754,42.60433125037754 0 0,0 -0.10380433520136355,0.726007278628293 l -21.359718159204515 -3.2418465317452285" fill="#fbff18" stroke="none" /><path d="M 120.76222939487914 103.15116336523771 l 22.553929229965174 3.4230965365000374 a43.812218515709425,43.812218515709425 0 0,0 -0.11958283346954,0.7446424181655542 l -22.491664642134346 -3.8108181843587965" fill="#ecff1a" stroke="none" /><path d="M 120.70491114924044 103.5080841355445 l 2.6761695584240455 0.4534300052902633 a23.71431064455288,23.71431064455288 0 0,0 -0.07165511323192987,0.4018799284611437 l -2.667968002852927 -0.4994286844846253" fill="#ff0000" stroke="none" /><path d="M 120.64145759157962 103.86396538481128 l 11.122213704991877 2.082016183590329 a32.3154067133374,32.3154067133374 0 0,0 -0.10705642909359794,0.5458784255129915 l -11.084727342922614 -2.2731583361712655" fill="#ff7c0b" stroke="none" /><path d="M 120.5718875245553 104.21870165774334 l 10.794141336791704 2.213567515235743 a32.018773450032555,32.018773450032555 0 0,0 -0.11536815580766634,0.5389616158967133 l -10.754439142259594 -2.3990429505486253" fill="#ff780b" stroke="none" /><path d="M 120.49622156327973 104.57218783832717 l 11.1494041533557 2.4871496396143633 a32.42344634095592,32.42344634095592 0 0,0 -0.12620353116622973,0.5436815092108366 l -11.104940056258917 -2.678699806173765" fill="#ff7e0b" stroke="none" /><path d="M 120.41448212921028 104.9243191809786 l 5.272739814978091 1.2718742333441007 a26.42396987656641,26.42396987656641 0 0,0 -0.11046312317003182,0.4412452670625556 l -5.250065377512998 -1.3624473398040522" fill="#ff2803" stroke="none" /><path d="M 120.32669344350535 105.2749913415812 l 20.972224597417743 5.4425134846721575 a42.666913891816066,42.666913891816066 0 0,0 -0.19060310803576255,0.7093050710976735 l -20.875433413040202 -5.802709488945379" fill="#faff18" stroke="none" /><path d="M 120.23288151984713 105.62410040840565 l 20.683543774430493 5.749370245406833 a42.46774886399484,42.46774886399484 0 0,0 -0.20183781102374632,0.7026238988068471 l -20.581513326520646 -6.104551619718262" fill="#fcff18" stroke="none" /><path d="M 120.13307415673323 105.97154293290107 l 10.841187535141183 3.215535606025503 a32.308006738842984,32.308006738842984 0 0,0 -0.16272962603147795,0.5318098333440188 l -10.784231136603571 -3.401672411921579" fill="#ff7c0b" stroke="none" /><path d="M 120.02730092923936 106.31721596034902 l 10.342449474418654 3.2623211245361907 a31.84476833549236,31.84476833549236 0 0,0 -0.16939558988890224,0.521346018271169 l -10.284761633513504 -3.4398660427851553" fill="#ff760a" stroke="none" /><path d="M 119.9155931802556 106.66101706037122 l 13.147644026886976 4.397392554373215 a34.8635350735299,34.8635350735299 0 0,0 -0.19525101858949434,0.567490854996957 l -13.070002177354251 -4.623056112459472" fill="#ff9f0e" stroke="none" /><path d="M 119.79798401119884 107.00284435728193 l 13.163286724166133 4.656052258021246 a34.96248330391242,34.96248330391242 0 0,0 -0.20557230776395277,0.5656467011733621 l -13.081190155396953 -4.8819467562007395" fill="#ffa00e" stroke="none" /><path d="M 119.67450827220406 107.3425965602758 l 21.54903185428798 8.042175437447053 a44.000812151395756,44.000812151395756 0 0,0 -0.2709312720812862,0.7073160582149067 l -21.407406302613182 -8.411915062495105" fill="#e9ff1a" stroke="none" /><path d="M 119.54520255179757 107.68017299344265 l 58.635607655392704 23.040518980327946 a84.0,84.0 0 0,0 -0.5403895429704302,1.341202528628746 l -58.230315498164885 -24.046420876799505" fill="#4dd2ff" stroke="none" /><path d="M 119.41010516605496 108.01547362559984 l 3.659645198353324 1.511263814157692 a24.959409210199546,24.959409210199546 0 0,0 -0.16740515701315492,0.3956963404951434 l -3.6330890601478596 -1.5740346803189988" fill="#ff1302" stroke="none" /><line stroke="#e1ed5e" stroke-width="0.3" x1="174.80103733775053" x2="179.2010983576182" y1="140.37084112569926" y2="142.7455964860345" /><path d="M 175.68104954172406 140.8457921977663 a86.0,86.0 0 0,1 -30.038265399797805,32.042727171017184" fill="none" id="id53" stroke="none" /><text fill="#e1ed5e" style="font-size:6.75px; font-family:Arial;" text-anchor="middle"><textPath startOffset="22.206326154141568" xlink:href="#id53">May</textPath></text><line stroke="#e1ed5e" stroke-width="0.3" x1="143.8653032363475" x2="146.44561519142675" y1="172.8068346515853" y2="177.08958963109032" /><path d="M 144.38136562736335 173.6633856474863 a86.0,86.0 0 0,1 -40.68145358897372,12.25698825130547" fill="none" id="id54" stroke="none" /><text fill="#e1ed5e" style="font-size:6.75px; font-family:Arial;" text-anchor="middle"><textPath startOffset="21.466115282336833" xlink:href="#id54">June</textPath></text><line stroke="#e1ed5e" stroke-width="0.3" x1="102.19456741930631" x2="102.32365962044197" y1="184.97166512339345" y2="189.96999836594603" /><path d="M 102.22038585953345 185.97133177190398 a86.0,86.0 0 0,1 -42.740103519485714,-10.115201625700543" fill="none" id="id55" stroke="none" /><text fill="#e1ed5e" style="font-size:6.75px; font-family:Arial;" text-anchor="middle"><textPath startOffset="22.20632615414155" xlink:href="#id55">July</textPath></text><line stroke="#e1ed5e" stroke-width="0.3" x1="58.666819895761336" x2="56.23545636021788" y1="174.27360380694188" y2="178.64263932499728" /><path d="M 58.180547188652646 175.14741091055294 a86.0,86.0 0 0,1 -31.652253787137756,-30.449443065178592" fill="none" id="id56" stroke="none" /><text fill="#e1ed5e" style="font-size:6.75px; font-family:Arial;" text-anchor="middle"><textPath startOffset="22.20632615414155" xlink:href="#id56">August</textPath></text><line stroke="#e1ed5e" stroke-width="0.3" x1="26.63291911575756" x2="22.317208475507996" y1="142.92168965132927" y2="145.44649492493687" /><path d="M 25.769776987707644 143.4266507060508 a86.0,86.0 0 0,1 -11.730757126820373,-40.83630448921669" fill="none" id="id57" stroke="none" /><text fill="#e1ed5e" style="font-size:6.75px; font-family:Arial;" text-anchor="middle"><textPath startOffset="21.46611528233685" xlink:href="#id57">September</textPath></text><line stroke="#e1ed5e" stroke-width="0.3" x1="15.007084014347285" x2="10.007500721073583" y1="101.09737516637583" y2="101.16192664675087" /><path d="M 14.007167355692545 101.11028546245083 a86.0,86.0 0 0,1 10.666146001902534,-42.60595125391555" fill="none" id="id58" stroke="none" /><text fill="#e1ed5e" style="font-size:6.75px; font-family:Arial;" text-anchor="middle"><textPath startOffset="22.20632615414155" xlink:href="#id58">October</textPath></text><line stroke="#e1ed5e" stroke-width="0.3" x1="26.266209847984243" x2="21.928928074336255" y1="57.711370442889674" y2="55.22380399835377" /><path d="M 25.398753493254645 57.213857153982495 a86.0,86.0 0 0,1 29.58750427330803,-30.492523968695096" fill="none" id="id59" stroke="none" /><text fill="#e1ed5e" style="font-size:6.75px; font-family:Arial;" text-anchor="middle"><textPath startOffset="21.46611528233685" xlink:href="#id59">November</textPath></text><line stroke="#e1ed5e" stroke-width="0.3" x1="56.762969772571076" x2="54.21961505331055" y1="26.818313649435495" y2="22.513508569990535" /><path d="M 56.25429882871897 25.957352633546506 a86.0,86.0 0 0,1 42.265352541879196,-11.944610805530505" fill="none" id="id60" stroke="none" /><text fill="#e1ed5e" style="font-size:6.75px; font-family:Arial;" text-anchor="middle"><textPath startOffset="22.20632615414155" xlink:href="#id60">December</textPath></text></svg>