<?xml version="1.0" encoding="utf-8" ?>
<svg baseProfile="full" height="200mm" version="1.1" viewBox="0,0,200,200" width="200mm" xmlns="http://www.w3.org/2000/svg" xmlns:ev="http://www.w3.org/2001/xml-events" xmlns:xlink="http://www.w3.org/1999/xlink"><defs /><rect fill="#1a1a1a" height="200" width="200" x="0" y="0" /><text alignment-baseline="middle" fill="#e1ed5e" style="dominant-baseline: central; font-size:9.0px; font-family:Arial;" text-anchor="middle" x="100.0" y="100.0">2022</text><line stroke="#e1ed5e" stroke-width="0.3" x1="100.0" x2="100.0" y1="15.0" y2="10.0" /><path d="M 100.0 14.0 a86.0,86.0 0 0,1 42.46469731375804,11.215312516191453" fill="none" id="id61" stroke="none" /><text fill="#e1ed5e" style="font-size:6.75px; font-family:Arial;" text-anchor="middle"><textPath startOffset="22.20632615414155" xlink:href="#id61">January</textPath></text><path d="M 100.0 79.0 l 0.0 -61.03737392779715 a82.03737392779715,82.03737392779715 0 0,0 1.412138535508559,0.012154722203168822 l -1.0506580562360306 61.028330582202535" fill="#4ae6ff" stroke="none" /><path d="M 100.36148047927253 79.00311137660856 l 0.319465060383759 -18.55638873070561 a39.559138467339054,39.559138467339054 0 0,0 0.6807437607968788,0.01758160295165961 l -0.6388354563755055 18.548140335611592" fill="#ffaa0f" stroke="none" /><path d="M 100.72285384407766 79.0124445844662 l 2.1090788848694415 -61.23562921410437 a82.27193891978509,82.27193891978509 0 0,0 1.4149173799040637,0.06092931873644009 l -3.162837097162837 61.190252168843735" fill="#4be4ff" stroke="none" /><path d="M 101.08401301168833 79.027996857942 l 1.5829818815137247 -30.62537131470498 a51.66625506645302,51.66625506645302 0 0,0 0.887768839157568,0.053552640769522965 l -2.1099127695109043 30.593585404555157" fill="#b0ff20" stroke="none" /><path d="M 101.44485096284872 79.0497635885617 l 2.131362861569409 -30.90461021695986 a51.978018663399006,51.978018663399006 0 0,0 0.8920660887522063,0.0692414973367469 l -2.663019139683956 30.86334345743465" fill="#acff20" stroke="none" /><path d="M 101.80526077348638 79.07773832637324 l 2.062224134221768 -23.90036586378076 a44.98916957300405,44.98916957300405 0 0,0 0.7709748420190612,0.0732133510891298 l -2.4733241033310733 23.86132696817645" fill="#fff617" stroke="none" /><path d="M 102.16513564639614 79.11191278185805 l 2.0569298852764004 -19.844175082873882 a40.950494862852295,40.950494862852295 0 0,0 0.7005133934519281,0.07871084190695676 l -2.398209982238054 19.805828287496325" fill="#ffbe11" stroke="none" /><path d="M 102.52436894288641 79.15227682838746 l 3.78883769577477 -31.290449696852072 a52.51900273352813,52.51900273352813 0 0,0 0.8965375692107621,0.11639630728408036 l -4.326889993493378 31.220595066403856" fill="#a5ff21" stroke="none" /><path d="M 102.88285421437855 79.19881850522331 l 5.280278061279897 -38.0997491124425 a59.463908002639265,59.463908002639265 0 0,0 1.012673240318119,0.1492417116706566 l -5.935320282026671 38.00321291661088" fill="#53ff2b" stroke="none" /><path d="M 103.2404852339499 79.25152402106235 l 1.172549223874719 -7.507705682717113 a28.598718069563578,28.598718069563578 0 0,0 0.4857298798705589,0.08014959207285237 l -1.301608309884153 7.486409827704636" fill="#ff0000" stroke="none" /><path d="M 103.59715602781102 79.31037775812273 l 4.110095761892707 -23.639877735091705 a44.99451409180884,44.99451409180884 0 0,0 0.7619175587929287,0.1392355638149338 l -4.516408441788537 23.565626689926034" fill="#fff617" stroke="none" /><path d="M 103.95276090670814 79.375362276772 l 5.717997085782666 -29.835252164278977 a51.37824488641719,51.37824488641719 0 0,0 0.8671512290652453,0.1739423788152697 l -6.230714724315037 29.732405829386497" fill="#b4ff20" stroke="none" /><path d="M 104.307194497241 79.44645832069477 l 8.148063836641398 -38.881821979323995 a60.72640211141484,60.72640211141484 0 0,0 1.0212367019821293,0.22320278820017395 l -8.816143262777056 38.73580569302795" fill="#45ff2d" stroke="none" /><path d="M 104.66035177308747 79.52364482259891 l 6.7986489100332665 -29.8714682037971 a51.63537562446979,51.63537562446979 0 0,0 0.8649572409276746,0.2047074332799456 l -7.311829837923464 29.750014858376286" fill="#b0ff20" stroke="none" /><path d="M 105.01212808612495 79.60689891045804 l 10.929973087502061 -44.471338770540314 a66.79480629654067,66.79480629654067 0 0,0 1.1141727108420818,0.2840274320839011 l -11.693854687029168 44.276608342287545" fill="#35ff66" stroke="none" /><path d="M 105.36241919743992 79.69619591428918 l 15.334982307981024 -58.06306164720096 a81.05398246771608,81.05398246771608 0 0,0 1.3458902273008062,0.367882640419189 l -16.33217042450554 57.79049246595548" fill="#49f0ff" stroke="none" /><path d="M 105.71112130821622 79.79150937346287 l 10.484959808464174 -37.10045726119341 a59.55357715147517,59.55357715147517 0 0,0 0.9840797067202134,0.2872798516339692 l -11.122029732907816 36.91447908064074" fill="#52ff2b" stroke="none" /><path d="M 106.0581310904928 79.89281104454417 l 9.115462965174512 -30.25460055574902 a52.597982844754455,52.597982844754455 0 0,0 0.8646472878057117,0.26865012120856474 l -9.634895625690941 30.093210299657933" fill="#a4ff21" stroke="none" /><path d="M 106.40334571778207 80.00007090966166 l 18.437398558442556 -57.58656178053127 a81.46610425110754,81.46610425110754 0 0,0 1.3318434759235827,0.43908785425198416 l -19.425924856608557 57.260660202020055" fill="#49ecff" stroke="none" /><path d="M 106.74666289553966 80.11325718540242 l 10.210806244665223 -30.097795141297315 a52.782665661231036,52.782665661231036 0 0,0 0.857889222080459,0.2993007044874292 l -10.727377470808955 29.917573583637676" fill="#a2ff22" stroke="none" /><path d="M 107.08798089147638 80.2323363322302 l 10.361186281571682 -28.896303298379433 a51.697728343858984,51.697728343858984 0 0,0 0.835084912935476,0.30756882100562316 l -10.857053520279734 28.713671209567483" fill="#b0ff20" stroke="none" /><path d="M 107.4271985657038 80.35727306442388 l 15.775428560669544 -41.721307538457715 a65.60416627391837,65.60416627391837 0 0,0 1.052843260974836,0.4084868283567879 l -16.491254986644048 41.44357800621038" fill="#33ff57" stroke="none" /><path d="M 107.76421540070413 80.48803036053334 l 23.292646202112408 -58.53590891839998 a84.0,84.0 0 0,0 1.33886452164645,0.5461564552656828 l -24.296794593347244 58.12629157695072" fill="#4dd2ff" stroke="none" /><path d="M 108.09893153111575 80.62456947434976 l 23.897611701687296 -57.171308767839356 a82.96494485813932,82.96494485813932 0 0,0 1.312885652875741,0.5621091198550996 l -24.878181112353353 56.75148012002146" fill="#4cddff" stroke="none" /><line stroke="#e1ed5e" stroke-width="0.3" x1="143.23703022742887" x2="145.7803849466894" y1="26.81831364943548" y2="22.513508569990506" /><path d="M 143.74570117128098 25.957352633546492 a86.0,86.0 0 0,1 28.547481713284135,27.462654790039103" fill="none" id="id62" stroke="none" /><text fill="#e1ed5e" style="font-size:6.75px; font-family:Arial;" text-anchor="middle"><textPath startOffset="19.985693538727396" xlink:href="#id62">February</textPath></text><line stroke="#e1ed5e" stroke-width="0.3" x1="172.23445277983987" x2="176.4835382374775" y1="55.19839476539836" y2="52.563006222186495" /><path d="M 173.08426987136738 54.67131705675599 a86.0,86.0 0 0,1 12.851231095245387,41.99856678651699" fill="none" id="id63" stroke="none" /><text fill="#e1ed5e" style="font-size:6.75px; font-family:Arial;" text-anchor="middle"><textPath startOffset="22.20632615414155" xlink:href="#id63">March</textPath></text><line stroke="#e1ed5e" stroke-width="0.3" x1="184.98032266829074" x2="189.97916517819016" y1="98.17113171792111" y2="98.06355123074" /><path d="M 185.9800911702706 98.14961562048488 a86.0,86.0 0 0,1 -9.607161424134198,41.387399972396054" fill="none" id="id64" stroke="none" /><text fill="#e1ed5e" style="font-size:6.75px; font-family:Arial;" text-anchor="middle"><textPath startOffset="21.466115282336823" xlink:href="#id64">April</textPath></text><line stroke="#e1ed5e" stroke-width="0.3" x1="174.80103733775053" x2="179.2010983576182" y1="140.37084112569926" y2="142.7455964860345" /><path d="M 175.68104954172406 140.8457921977663 a86.0,86.0 0 0,1 -30.038265399797805,32.042727171017184" fill="none" id="id65" stroke="none" /><text fill="#e1ed5e" style="font-size:6.75px; font-family:Arial;" text-anchor="middle"><textPath startOffset="22.206326154141568" xlink:href="#id65">May</textPath></text><line stroke="#e1ed5e" stroke-width="0.3" x1="143.8653032363475" x2="146.44561519142675" y1="172.8068346515853" y2="177.08958963109032" /><path d="M 144.38136562736335 173.6633856474863 a86.0,86.0 0 0,1 -40.68145358897372,12.25698825130547" fill="none" id="id66" stroke="none" /><text fill="#e1ed5e" style="font-size:6.75px; font-family:Arial;" text-anchor="middle"><textPath startOffset="21.466115282336833" xlink:href="#id66">June</textPath></text><line stroke="#e1ed5e" stroke-width="0.3" x1="102.19456741930631" x2="102.32365962044197" y1="184.97166512339345" y2="189.96999836594603" /><path d="M 102.22038585953345 185.97133177190398 a86.0,86.0 0 0,1 -42.740103519485714,-10.115201625700543" fill="none" id="id67" stroke="none" /><text fill="#e1ed5e" style="font-size:6.75px; font-family:Arial;" text-anchor="middle"><textPath startOffset="22.20632615414155" xlink:href="#id67">July</textPath></text><line stroke="#e1ed5e" stroke-width="0.3" x1="58.666819895761336" x2="56.23545636021788" y1="174.27360380694188" y2="178.64263932499728" /><path d="M 58.180547188652646 175.14741091055294 a86.0,86.0 0 0,1 -31.652253787137756,-30.449443065178592" fill="none" id="id68" stroke="none" /><text fill="#e1ed5e" style="font-size:6.75px; font-family:Arial;" text-anchor="middle"><textPath startOffset="22.20632615414155" xlink:href="#id68">August</textPath></text><line stroke="#e1ed5e" stroke-width="0.3" x1="26.63291911575756" x2="22.317208475507996" y1="142.92168965132927" y2="145.44649492493687" /><path d="M 25.769776987707644 143.4266507060508 a86.0,86.0 0 0,1 -11.730757126820373,-40.83630448921669" fill="none" id="id69" stroke="none" /><text fill="#e1ed5e" style="font-size:6.75px; font-family:Arial;" text-anchor="middle"><textPath startOffset="21.46611528233685" xlink:href="#id69">September</textPath></text><line stroke="#e1ed5e" stroke-width="0.3" x1="15.007084014347285" x2="10.007500721073583" y1="101.09737516637583" y2="101.16192664675087" /><path d="M 14.007167355692545 101.11028546245083 a86.0,86.0 0 0,1 10.666146001902534,-42.60595125391555" fill="none" id="id70" stroke="none" /><text fill="#e1ed5e" style="font-size:6.75px; font-family:Arial;" text-anchor="middle"><textPath startOffset="22.20632615414155" xlink:href="#id70">October</textPath></text><line stroke="#e1ed5e" stroke-width="0.3" x1="26.266209847984243" x2="21.928928074336255" y1="57.711370442889674" y2="55.22380399835377" /><path d="M 25.398753493254645 57.213857153982495 a86.0,86.0 0 0,1 29.58750427330803,-30.492523968695096" fill="none" id="id71" stroke="none" /><text fill="#e1ed5e" style="font-size:6.75px; font-family:Arial;" text-anchor="middle"><textPath startOffset="21.46611528233685" xlink:href="#id71">November</textPath></text><line stroke="#e1ed5e" stroke-width="0.3" x1="56.762969772571076" x2="54.21961505331055" y1="26.818313649435495" y2="22.513508569990535" /><path d="M 56.25429882871897 25.957352633546506 a86.0,86.0 0 0,1 42.265352541879196,-11.944610805530505" fill="none" id="id72" stroke="none" /><text fill="#e1ed5e" style="font-size:6.75px; font-family:Arial;" text-anchor="middle"><textPath startOffset="22.20632615414155" xlink:href="#id72">December</textPath></text></svg>