<?xml version="1.0" encoding="utf-8" ?>
<svg baseProfile="full" height="200mm" version="1.1" viewBox="0,0,200,200" width="200mm" xmlns="http://www.w3.org/2000/svg" xmlns:ev="http://www.w3.org/2001/xml-events" xmlns:xlink="http://www.w3.org/1999/xlink"><defs /><rect fill="#1a1a1a" height="200" width="200" x="0" y="0" /><text alignment-baseline="middle" fill="#e1ed5e" style="dominant-baseline: central; font-size:9.0px; font-family:Arial;" text-anchor="middle" x="100.0" y="100.0">2023</text><line stroke="#e1ed5e" stroke-width="0.3" x1="100.0" x2="100.0" y1="15.0" y2="10.0" /><path d="M 100.0 14.0 a86.0,86.0 0 0,1 42.46469731375804,11.215312516191453" fill="none" id="id73" stroke="none" /><text fill="#e1ed5e" style="font-size:6.75px; font-family:Arial;" text-anchor="middle"><textPath startOffset="22.20632615414155" xlink:href="#id73">January</textPath></text><path d="M 101.08401301168833 79.027996857942 l 0.3985725580686501 -7.711037459905628 a28.721331413176955,28.721331413176955 0 0,0 0.4935117324632984,0.02976997542426824 l -0.5312463393715604 7.703034215101057" fill="#ff1902" stroke="none" /><path d="M 101.80526077348638 79.07773832637324 l 0.6846205684413604 -7.934482868319714 a28.96396407013442,28.96396407013442 0 0,0 0.4963525185096361,0.047134652418037444 l -0.8210982140412407 7.921522671386498" fill="#ff1c02" stroke="none" /><path d="M 102.16513564639614 79.11191278185805 l 0.7778333667852498 -7.504126235062996 a28.54433133539648,28.54433133539648 0 0,0 0.4882892496059582,0.0548649865796443 l -0.9068893199009332 7.48962529501275" fill="#ff1602" stroke="none" /><path d="M 102.52436894288641 79.15227682838746 l 0.9538697102010745 -7.877616984671138 a28.93515701049565,28.93515701049565 0 0,0 0.49394417221788733,0.06412812984654538 l -1.0893286109268079 7.860030531660456" fill="#ff1c02" stroke="none" /><path d="M 102.88285421437855 79.19881850522331 l 1.1002547161207066 -7.938867642477835 a29.014747649497608,29.014747649497608 0 0,0 0.494122561166433,0.072820821038385 l -1.2367462577157953 7.91875233727848" fill="#ff1d03" stroke="none" /><path d="M 103.2404852339499 79.25152402106235 l 1.542524466316394 -9.87661708838513 a30.996346674648986,30.996346674648986 0 0,0 0.5264519797734138,0.08686908747723956 l -1.7123056522286828 9.848601737968266" fill="#ff3c05" stroke="none" /><path d="M 103.59715602781102 79.31037775812273 l 2.0594214459893005 -11.845094131284556 a33.02278967923803,33.02278967923803 0 0,0 0.5591935773680864,0.10218905198862299 l -2.263010144460288 11.807889597945195" fill="#ff5b08" stroke="none" /><path d="M 103.95276090670814 79.375362276772 l 2.808198627148821 -14.652563285960305 a35.91923558291752,35.91923558291752 0 0,0 0.6062373160404595,0.12160550241315266 l -3.0600023526564057 14.602053827469943" fill="#ff860c" stroke="none" /><path d="M 105.01212808612495 79.60689891045804 l 3.5984530540010766 -14.641209409504604 a36.07693196094006,36.07693196094006 0 0,0 0.6017823137824967,0.1534077110253123 l -3.8499442564685986 14.577098702310424" fill="#ff880c" stroke="none" /><path d="M 105.71112130821622 79.79150937346287 l 4.061324978379183 -14.370776477611042 a35.933639112736905,35.933639112736905 0 0,0 0.5937773469007512,0.17333989000726122 l -4.308092543003362 14.298738258685077" fill="#ff860c" stroke="none" /><path d="M 106.0581310904928 79.89281104454417 l 1.7796101879937527 -5.90660020104219 a27.16886848264435,27.16886848264435 0 0,0 0.44662337176702777,0.1387680556591891 l -1.8810189324714988 5.87509201050048" fill="#ff0000" stroke="none" /><path d="M 106.40334571778207 80.00007090966166 l 5.583788219939883 -17.44015915682049 a39.31223204037042,39.31223204037042 0 0,0 0.6426935502595801,0.211885958843155 l -5.88316459244188 17.341459473718096" fill="#ffb610" stroke="none" /><path d="M 107.08798089147638 80.2323363322302 l 5.069664420491927 -14.138782638826957 a36.02020878165135,36.02020878165135 0 0,0 0.581842449909428,0.21429748467206883 l -5.312289196173931 14.049421886348563" fill="#ff870c" stroke="none" /><path d="M 107.76421540070413 80.48803036053334 l 5.603244286505554 -14.0813110866162 a36.15518618995878,36.15518618995878 0 0,0 0.576272572181637,0.23507605153546018 l -5.844800728275578 13.98277414889716" fill="#ff890c" stroke="none" /><path d="M 108.76106565485865 80.91482961587045 l 6.318496136671904 -13.764258834537088 a36.145237360083534,36.145237360083534 0 0,0 0.5632147248555777,0.26443686520464993 l -6.55448907282708 13.653456986692435" fill="#ff890c" stroke="none" /><path d="M 109.08828744355905 81.06846463323043 l 9.645660535949077 -20.09258231610936 a43.28790325051677,43.28790325051677 0 0,0 0.6689603997935818,0.3282559629155919 l -9.99009220275309 19.923571193058937" fill="#ffed16" stroke="none" /><path d="M 109.73455568895987 81.39251694778311 l 7.441490100903324 -14.224316482449913 a37.0532536986973,37.0532536986973 0 0,0 0.5626006420987052,0.30052177891503395 l -7.68523578953034 14.094115977033125" fill="#ff960d" stroke="none" /><path d="M 110.05341064243156 81.56283822128135 l 9.228538619894818 -16.924411582077884 a40.2769715582729,40.2769715582729 0 0,0 0.6058345276375803,0.33714625870718773 l -9.518497236604434 16.763049925810517" fill="#ffc412" stroke="none" /><path d="M 110.36928655335952 81.73862282372117 l 9.840668526526168 -17.33042661179119 a40.92943661009119,40.92943661009119 0 0,0 0.6096600719042733,0.3531544644817156 l -10.13752533089577 17.158467989919423" fill="#ffcd13" stroke="none" /><line stroke="#e1ed5e" stroke-width="0.3" x1="143.23703022742887" x2="145.7803849466894" y1="26.81831364943548" y2="22.513508569990506" /><path d="M 143.74570117128098 25.957352633546492 a86.0,86.0 0 0,1 28.547481713284135,27.462654790039103" fill="none" id="id74" stroke="none" /><text fill="#e1ed5e" style="font-size:6.75px; font-family:Arial;" text-anchor="middle"><textPath startOffset="19.985693538727396" xlink:href="#id74">February</textPath></text><path d="M 110.99172775467656 82.1063720568725 l 10.468373831424149 -17.041650838684536 a41.00011784920487,41.00011784920487 0 0,0 0.5981738504512613,0.37457641027600536 l -10.760166834247674 16.858930087085586" fill="#ffce13" stroke="none" /><path d="M 111.2981086023043 82.29822771554956 l 10.769433887130388 -16.873449620013805 a41.017342688988876,41.017342688988876 0 0,0 0.5918860642604624,0.3849791605770012 l -11.05828697717513 16.685571535277276" fill="#ffce13" stroke="none" /><path d="M 111.60114157652 82.49532879139004 l 8.4661856597875 -12.774414947712728 a36.32520723782677,36.32520723782677 0 0,0 0.5182315030077337,0.349912224166404 l -8.684821857201776 12.626790811247654" fill="#ff8c0c" stroke="none" /><path d="M 111.90073688211348 82.69761687909136 l 4.473978738669342 -6.504680758685012 a28.89476773100212,28.89476773100212 0 0,0 0.40737337876728064,0.285391085344065 l -4.585283257020274 6.426704830577012" fill="#ff1b02" stroke="none" /><path d="M 112.19680574252982 82.90503203632743 l 9.182209323296245 -12.86972815104677 a36.80958161175286,36.80958161175286 0 0,0 0.5126254545435515,0.3724441936639668 l -9.402380094193585 12.709764722566128" fill="#ff930d" stroke="none" /><path d="M 112.48926042617603 83.11751280151076 l 16.81617388663689 -22.731437305422638 a49.27546544543464,49.27546544543464 0 0,0 0.6775466748911975,0.510314108512376 l -17.20496671528647 22.438606607404417" fill="#c3ff1e" stroke="none" /><path d="M 113.06298171725822 83.55741782278167 l 21.300735293150957 -26.811573197724776 a55.24298149060389,55.24298149060389 0 0,0 0.7394578261987369,0.5979234696078479 l -21.759096517914188 26.4409436308528" fill="#7bff26" stroke="none" /><path d="M 113.6212207817346 84.01681056812373 l 23.209796626737457 -27.234458798136185 a56.78282277129476,56.78282277129476 0 0,0 0.738463858532492,0.6403885811756779 l -23.67515428391671 26.83090522354084" fill="#6aff28" stroke="none" /><path d="M 114.42810811169701 84.74124197986012 l 12.771839883437025 -13.50713570654104 a39.5893143768959,39.5893143768959 0 0,0 0.49112760805129413,0.4724643698254511 l -13.002450735100737 13.285288249953286" fill="#ffba11" stroke="none" /><path d="M 114.68862486808459 84.99185889309783 l 12.545559308667839 -12.818458232846796 a38.936106875086914,38.936106875086914 0 0,0 0.4749541267741072,0.4729145228138147 l -12.764349235609268 12.600607859382862" fill="#ffb110" stroke="none" /><path d="M 114.94478906791727 85.2469230424477 l 12.250985475475238 -12.093829541799606 a38.2147424641326,38.2147424641326 0 0,0 0.4580960157906897,0.47210821204892606 l -12.457345754969037 11.881157134200565" fill="#ffa70f" stroke="none" /><path d="M 115.4437574822437 85.77008943001954 l 11.513392894173187 -10.608464386306258 a36.65559748368378,36.65559748368378 0 0,0 0.4235578017349862,0.46770310365344764 l -11.694294336524209 10.40870849538326" fill="#ff900d" stroke="none" /><path d="M 115.68641384162765 86.03803664274999 l 23.81373692208 -21.195827527062946 a52.88035713023045,52.88035713023045 0 0,0 0.599331202566857,0.6851391694080112 l -24.175059988224703 20.782772801451987" fill="#97ff23" stroke="none" /><path d="M 116.15771136456269 86.58626213691792 l 14.888198934211111 -12.359819608792147 a40.350028637356786,40.350028637356786 0 0,0 0.43904963754267196,0.5382229418138146 l -15.098747063830192 12.101712497370231" fill="#ffc512" stroke="none" /><path d="M 116.38621287248628 86.86637796730983 l 14.752539068966133 -11.824225259493883 a39.90634052292049,39.90634052292049 0 0,0 0.42499477220851917,0.5397002018099764 l -14.953887921768615 11.568532663730869" fill="#ffbf11" stroke="none" /><path d="M 116.60985879189232 87.15038557335679 l 9.44959249167211 -7.310334273651932 a32.947208270185804,32.947208270185804 0 0,0 0.34315938814936675,0.4515575301132282 l -9.574027820045591 7.14659196765767" fill="#ff5a08" stroke="none" /><path d="M 117.04232023915458 87.72973835380427 l 27.911227464185664 -20.095741603611117 a55.39295638872324,55.39295638872324 0 0,0 0.5504671880990677,0.7785967997251331 l -28.253007272088617 19.61231830355419" fill="#7aff26" stroke="none" /><path d="M 117.2510076193507 88.02491185347247 l 15.623699066700024 -10.845463501429645 a40.01904443150722,40.01904443150722 0 0,0 0.3879475406462277,0.5692651456861557 l -15.808071073014984 10.574920332473082" fill="#ffc011" stroke="none" /><path d="M 117.65298651832404 88.62581576622439 l 17.50436342637702 -11.278423302476872 a41.82319790888371,41.82319790888371 0 0,0 0.38471846060667547,0.6085322143416052 l -17.695909483229652 10.975443440421062" fill="#ffd914" stroke="none" /><line stroke="#e1ed5e" stroke-width="0.3" x1="172.23445277983987" x2="176.4835382374775" y1="55.19839476539836" y2="52.563006222186495" /><path d="M 173.08426987136738 54.67131705675599 a86.0,86.0 0 0,1 12.851231095245387,41.99856678651699" fill="none" id="id75" stroke="none" /><text fill="#e1ed5e" style="font-size:6.75px; font-family:Arial;" text-anchor="middle"><textPath startOffset="22.20632615414155" xlink:href="#id75">March</textPath></text><path d="M 117.84615892207809 88.93136811851018 l 17.789794350953535 -11.033673171794373 a41.93367446749837,41.93367446749837 0 0,0 0.3751749977262517,0.6166890506384226 l -17.97708514696601 10.72581634794887" fill="#ffdb14" stroke="none" /><path d="M 118.03404312379186 89.2402003453031 l 17.594659089128548 -10.497646339880184 a41.488352963082555,41.488352963082555 0 0,0 0.36063321217005,0.6164390605719061 l -17.772751975768927 10.193227866954382" fill="#ffd413" stroke="none" /><path d="M 118.21658344932153 89.55222093294921 l 15.307870749716121 -8.779541565790147 a38.646848358714124,38.646848358714124 0 0,0 0.32599970832744213,0.5799171050895364 l -15.456728099335997 8.514740950765816" fill="#ffad10" stroke="none" /><path d="M 118.56541770881063 90.18545643968196 l 29.915645056383617 -15.814801807640007 a54.838643225674154,54.838643225674154 0 0,0 0.43398405725737776,0.8383190642702074 l -30.183438546801113 15.297510021109455" fill="#80ff25" stroke="none" /><path d="M 118.89224826269711 90.83032412892265 l 17.1563403022827 -8.327123247499301 a40.07042197086297,40.07042197086297 0 0,0 0.2958376474231224,0.623109533479487 l -17.29713614354758 8.030571298379275" fill="#ffc111" stroke="none" /><path d="M 119.04729006885535 91.15688171328212 l 17.827111699885 -8.276623966072101 a40.65473011353592,40.65473011353592 0 0,0 0.28922488016393866,0.6372686852305643 l -17.966938897012284 7.9685332719994735" fill="#ffc912" stroke="none" /><path d="M 119.34039704204932 91.81776055985345 l 18.910484829092127 -8.00035875501836 a41.533196942520235,41.533196942520235 0 0,0 0.27288954535010884,0.6608236794698634 l -19.045396061328432 7.673660505095193" fill="#ffd513" stroke="none" /><path d="M 119.47837535516314 92.15188598940014 l 29.17617496855299 -11.75549517715389 a52.455378755559536,52.455378755559536 0 0,0 0.3302352102325425,0.8404125895655494 l -29.37420372866723 11.251533582692556" fill="#9cff22" stroke="none" /><path d="M 119.97218684219823 93.5106431181261 l 16.401990919106613 -5.32932990705101 a38.2460738537397,38.2460738537397 0 0,0 0.19805003804716106,0.6278727426628402 l -16.49129644092198 5.04620699796175" fill="#ffa70f" stroke="none" /><path d="M 120.37134235888165 94.90015583598534 l 60.88413159188562 -15.241979527412134 a83.76300996297178,83.76300996297178 0 0,0 0.33811218077553334,1.4016932734118372 l -61.137476572921976 14.191701022340892" fill="#4dd4ff" stroke="none" /><path d="M 120.6074358757038 95.95851677861258 l 14.905250817248534 -2.9231837212461493 a36.18919039953238,36.18919039953238 0 0,0 0.11462370484348411,0.6123244146588196 l -14.953360246001877 2.666181229124767" fill="#ff8a0c" stroke="none" /><path d="M 120.67395015179393 96.31383870115 l 15.334901830716706 -2.7342100196147965 a36.57674929467251,36.57674929467251 0 0,0 0.10518103816889374,0.620784441229997 l -15.379694730405824 2.4698397900689617" fill="#ff8f0d" stroke="none" /><path d="M 120.78858239683441 97.02765380044208 l 31.29951418675014 -4.4751965413073265 a52.6178268135225,52.6178268135225 0 0,0 0.12047979209885847,0.8977143917953905 l -31.371909977906835 3.935763807447272" fill="#9aff22" stroke="none" /><path d="M 120.83666639777658 97.38593545837742 l 14.884083848550942 -1.8672831383040271 a36.000756591895275,36.000756591895275 0 0,0 0.0718466190652405,0.615537956160135 l -14.91402082061977 1.6108014438190394" fill="#ff870c" stroke="none" /><path d="M 120.91429891909075 98.10471618934814 l 20.883884107724718 -1.8925275767561411 a41.969460557049615,41.969460557049615 0 0,0 0.05900809460782121,0.7200482162382125 l -20.913366686152035 1.5327654433101598" fill="#ffdb14" stroke="none" /><path d="M 120.94382443527127 98.46500227214037 l 22.22502446872401 -1.6288983975468585 a43.28463647055773,43.28463647055773 0 0,0 0.048065340051529924,0.7435495363741044 l -22.249770399779955 1.2460897969197189" fill="#ffed16" stroke="none" /><path d="M 120.98425023603335 99.18683210126433 l 20.83013429660907 -0.8071956989566111 a41.84576838860068,41.84576838860068 0 0,0 0.021696643426352066,0.720005967749558 l -20.840942634491068 0.44851958378205403" fill="#ffd914" stroke="none" /><line stroke="#e1ed5e" stroke-width="0.3" x1="184.98032266829074" x2="189.97916517819016" y1="98.17113171792111" y2="98.06355123074" /><path d="M 185.9800911702706 98.14961562048488 a86.0,86.0 0 0,1 -9.607161424134198,41.387399972396054" fill="none" id="id76" stroke="none" /><text fill="#e1ed5e" style="font-size:6.75px; font-family:Arial;" text-anchor="middle"><textPath startOffset="21.466115282336823" xlink:href="#id76">April</textPath></text><path d="M 120.99513854157772 99.54816195383933 l 24.05085011494102 -0.5176002579319674 a45.056419128340146,45.056419128340146 0 0,0 0.010013237493961349,0.7755362788821892 l -24.056196359552697 0.10352772098931547" fill="#faff18" stroke="none" /><path d="M 120.99824983174949 100.27111621757518 l 27.050989616989686 0.34926539332505946 a48.05324427076091,48.05324427076091 0 0,0 -0.017797862939047764,0.8269967554180148 l -27.04096969136563 -0.8148519645331891" fill="#d3ff1c" stroke="none" /><path d="M 120.9764740272857 100.99374915477107 l 23.934986933703414 1.1339071096450613 a44.96183099952624,44.96183099952624 0 0,0 -0.043278222632315774,0.7727617377655126 l -23.91192236018357 -1.5457405637459973" fill="#fbff18" stroke="none" /><path d="M 120.95626037817324 101.35467743843564 l 16.127989277327753 1.0425630721826507 a37.16165139733802,37.16165139733802 0 0,0 -0.0467589864587569,0.6379892200420328 l -16.10765373220466 -1.320025428721454" fill="#ff980e" stroke="none" /><path d="M 120.89721153311464 102.0752229133903 l 28.53380999244896 2.8335845770055026 a49.67416109043512,49.67416109043512 0 0,0 -0.09182079087603287,0.8501464858661791 l -28.480806900071872 -3.324327384756473" fill="#beff1e" stroke="none" /><path d="M 120.8583938346157 102.4346265915055 l 6.901586588032227 0.8055647220025086 a27.948440972868756,27.948440972868756 0 0,0 -0.059887507746792655,0.4773623605864167 l -6.886697571038587 -0.9242448368763202" fill="#ff0c01" stroke="none" /><path d="M 120.76222939487914 103.15116336523771 l 24.396234912257732 3.7027103517217026 a45.675622420575536,45.675622420575536 0 0,0 -0.12466888312398049,0.7763132542187685 l -24.328884274772463 -4.122102835633676" fill="#f1ff19" stroke="none" /><path d="M 120.70491114924044 103.5080841355445 l 25.14801151571045 4.260889583290514 a46.50642396015755,46.50642396015755 0 0,0 -0.14052371687399964,0.7881316313272122 l -25.07094135649726 -4.6931399653509445" fill="#e7ff1a" stroke="none" /><path d="M 120.64145759157962 103.86396538481128 l 23.622486299666814 4.421997281932559 a45.0328092186362,45.0328092186362 0 0,0 -0.14918740741117387,0.7607033762799665 l -23.542868959279975 -4.82796438528047" fill="#faff18" stroke="none" /><path d="M 120.41448212921028 104.9243191809786 l 20.973741484169288 5.059222018647248 a42.57529974945259,42.57529974945259 0 0,0 -0.1779823623094413,0.7109510643544784 l -20.88354780756479 -5.419500922399123" fill="#ffe315" stroke="none" /><path d="M 120.02730092923936 106.31721596034902 l 9.410264953642022 2.96828195503218 a30.86730886626708,30.86730886626708 0 0,0 -0.16419607574461606,0.5053435591879893 l -9.357776626881158 -3.129824414197965" fill="#ff3a05" stroke="none" /><path d="M 119.79798401119884 107.00284435728193 l 59.393952033596506 21.00853307184577 a84.0,84.0 0 0,0 -0.49390295597909306,1.3590088119754755 l -59.02352481661219 -22.027789680827375" fill="#4dd2ff" stroke="none" /><line stroke="#e1ed5e" stroke-width="0.3" x1="174.80103733775053" x2="179.2010983576182" y1="140.37084112569926" y2="142.7455964860345" /><path d="M 175.68104954172406 140.8457921977663 a86.0,86.0 0 0,1 -30.038265399797805,32.042727171017184" fill="none" id="id77" stroke="none" /><text fill="#e1ed5e" style="font-size:6.75px; font-family:Arial;" text-anchor="middle"><textPath startOffset="22.206326154141568" xlink:href="#id77">May</textPath></text><line stroke="#e1ed5e" stroke-width="0.3" x1="143.8653032363475" x2="146.44561519142675" y1="172.8068346515853" y2="177.08958963109032" /><path d="M 144.38136562736335 173.6633856474863 a86.0,86.0 0 0,1 -40.68145358897372,12.25698825130547" fill="none" id="id78" stroke="none" /><text fill="#e1ed5e" style="font-size:6.75px; font-family:Arial;" text-anchor="middle"><textPath startOffset="21.466115282336833" xlink:href="#id78">June</textPath></text><line stroke="#e1ed5e" stroke-width="0.3" x1="102.19456741930631" x2="102.32365962044197" y1="184.97166512339345" y2="189.96999836594603" /><path d="M 102.22038585953345 185.97133177190398 a86.0,86.0 0 0,1 -42.740103519485714,-10.115201625700543" fill="none" id="id79" stroke="none" /><text fill="#e1ed5e" style="font-size:6.75px; font-family:Arial;" text-anchor="middle"><textPath startOffset="22.20632615414155" xlink:href="#id79">July</textPath></text><line stroke="#e1ed5e" stroke-width="0.3" x1="58.666819895761336" x2="56.23545636021788" y1="174.27360380694188" y2="178.64263932499728" /><path d="M 58.180547188652646 175.14741091055294 a86.0,86.0 0 0,1 -31.652253787137756,-30.449443065178592" fill="none" id="id80" stroke="none" /><text fill="#e1ed5e" style="font-size:6.75px; font-family:Arial;" text-anchor="middle"><textPath startOffset="22.20632615414155" xlink:href="#id80">August</textPath></text><line stroke="#e1ed5e" stroke-width="0.3" x1="26.63291911575756" x2="22.317208475507996" y1="142.92168965132927" y2="145.44649492493687" /><path d="M 25.769776987707644 143.4266507060508 a86.0,86.0 0 0,1 -11.730757126820373,-40.83630448921669" fill="none" id="id81" stroke="none" /><text fill="#e1ed5e" style="font-size:6.75px; font-family:Arial;" text-anchor="middle"><textPath startOffset="21.46611528233685" xlink:href="#id81">September</textPath></text><line stroke="#e1ed5e" stroke-width="0.3" x1="15.007084014347285" x2="10.007500721073583" y1="101.09737516637583" y2="101.16192664675087" /><path d="M 14.007167355692545 101.11028546245083 a86.0,86.0 0 0,1 10.666146001902534,-42.60595125391555" fill="none" id="id82" stroke="none" /><text fill="#e1ed5e" style="font-size:6.75px; font-family:Arial;" text-anchor="middle"><textPath startOffset="22.20632615414155" xlink:href="#id82">October</textPath></text><line stroke="#e1ed5e" stroke-width="0.3" x1="26.266209847984243" x2="21.928928074336255" y1="57.711370442889674" y2="55.22380399835377" /><path d="M 25.398753493254645 57.213857153982495 a86.0,86.0 0 0,1 29.58750427330803,-30.492523968695096" fill="none" id="id83" stroke="none" /><text fill="#e1ed5e" style="font-size:6.75px; font-family:Arial;" text-anchor="middle"><textPath startOffset="21.46611528233685" xlink:href="#id83">November</textPath></text><line stroke="#e1ed5e" stroke-width="0.3" x1="56.762969772571076" x2="54.21961505331055" y1="26.818313649435495" y2="22.513508569990535" /><path d="M 56.25429882871897 25.957352633546506 a86.0,86.0 0 0,1 42.265352541879196,-11.944610805530505" fill="none" id="id84" stroke="none" /><text fill="#e1ed5e" style="font-size:6.75px; font-family:Arial;" text-anchor="middle"><textPath startOffset="22.20632615414155" xlink:href="#id84">December</textPath></text></svg>