<?xml version="1.0" encoding="utf-8" ?>
<svg baseProfile="full" height="200mm" version="1.1" viewBox="0,0,200,200" width="200mm" xmlns="http://www.w3.org/2000/svg" xmlns:ev="http://www.w3.org/2001/xml-events" xmlns:xlink="http://www.w3.org/1999/xlink"><defs /><rect fill="#1a1a1a" height="200" width="200" x="0" y="0" /><text alignment-baseline="middle" fill="#e1ed5e" style="dominant-baseline: central; font-size:9.0px; font-family:Arial;" text-anchor="middle" x="100.0" y="100.0">2022</text><line stroke="#e1ed5e" stroke-width="0.3" x1="100.0" x2="100.0" y1="15.0" y2="10.0" /><path d="M 100.0 14.0 a86.0,86.0 0 0,1 42.46469731375804,11.215312516191453" fill="none" id="id61" stroke="none" /><text fill="#e1ed5e" style="font-size:6.75px; font-family:Arial;" text-anchor="middle"><textPath startOffset="22.20632615414155" xlink:href="#id61">January</textPath></text><path d="M 100.0 79.0 l 0.0 -21.221398187049793 a42.22139818704979,42.22139818704979 0 0,0 0.726771964391001,0.006255555747611265 l -0.3652914851184726 21.21825400791074" fill="#faff18" stroke="none" /><path d="M 100.36148047927253 79.00311137660856 l 0.1110712145197025 -6.451662134642548 a27.452618159652353,27.452618159652353 0 0,0 0.47241166652685934,0.012200999596212748 l -0.22210951624142966 6.448794342903976" fill="#ff3f05" stroke="none" /><path d="M 100.72285384407766 79.0124445844662 l 0.7332819212808599 -21.290327338202164 a42.302951451474414,42.302951451474414 0 0,0 0.7275285111280485,0.03132890808604962 l -1.09965126479824 21.27455070359192" fill="#f9ff18" stroke="none" /><path d="M 101.08401301168833 79.027996857942 l 0.5503691700469657 -10.647790975811112 a31.66200538772621,31.66200538772621 0 0,0 0.544040626368395,0.03281801629304749 l -0.7335718452549727 10.63673969013776" fill="#ff7a0b" stroke="none" /><path d="M 101.44485096284872 79.0497635885617 l 0.7410295865605023 -10.744876409746643 a31.770398967024757,31.770398967024757 0 0,0 0.5452554035994411,0.04232231339382834 l -0.9258751795222847 10.730528834164351" fill="#ff7c0b" stroke="none" /><path d="M 101.80526077348638 79.07773832637324 l 0.716991519901118 -8.309649452013517 a29.340524615092185,29.340524615092185 0 0,0 0.5028055984267553,0.04774745011237075 l -0.8599222454181175 8.296076457385968" fill="#ff5a08" stroke="none" /><path d="M 102.16513564639614 79.11191278185805 l 0.7151508220181471 -6.899398090510164 a27.936363219264727,27.936363219264727 0 0,0 0.47788913577172054,0.05369641261164749 l -0.8338066612995929 6.886065724427916" fill="#ff4606" stroke="none" /><path d="M 102.52436894288641 79.15227682838746 l 1.3172983736694392 -10.879024599817253 a31.958487635102806,31.958487635102806 0 0,0 0.5455546245880225,0.0708286477940899 l -1.504367726765308 10.854737628859025" fill="#ff7f0b" stroke="none" /><path d="M 102.88285421437855 79.19881850522331 l 1.8358405033826806 -13.246473344319703 a34.373083653953294,34.373083653953294 0 0,0 0.5853752834749725,0.08626910023617974 l -2.063584767286309 13.212909759922555" fill="#ff9f0e" stroke="none" /><path d="M 103.2404852339499 79.25152402106235 l 0.4076704545512814 -2.61026976607128 a23.641912839436582,23.641912839436582 0 0,0 0.40154189623035075,0.06625785342173868 l -0.4525415569205073 2.6028656497099165" fill="#ff0801" stroke="none" /><path d="M 103.59715602781102 79.31037775812273 l 1.4289929781908424 -8.219083263690129 a29.342382790737304,29.342382790737304 0 0,0 0.4968711656596412,0.0908000296037351 l -1.5702592649533844 8.193267752735656" fill="#ff5a08" stroke="none" /><path d="M 103.95276090670814 79.375362276772 l 1.9880261089431115 -10.37308333314224 a31.56187036685041,31.56187036685041 0 0,0 0.5326946208598061,0.10685352961366923 l -2.166287139270043 10.337325847451364" fill="#ff790b" stroke="none" /><path d="M 104.307194497241 79.44645832069477 l 2.832908691900996 -13.518383465141945 a34.81202603412227,34.81202603412227 0 0,0 0.5854342990908136,0.12795326256044678 l -3.065185715145337 13.467616704485627" fill="#ffa50f" stroke="none" /><path d="M 104.66035177308747 79.52364482259891 l 2.363745789988232 -10.385674880679673 a31.651269261776637,31.651269261776637 0 0,0 0.5301984192316284,0.12548083580823693 l -2.542167896182384 10.343448132730568" fill="#ff7a0b" stroke="none" /><path d="M 105.01212808612495 79.60689891045804 l 3.8001194372811438 -15.461739705204273 a36.92188124717341,36.92188124717341 0 0,0 0.6158765149481861,0.1570006367229262 l -4.065704840914355 15.39403607231248" fill="#ffc111" stroke="none" /><path d="M 105.36241919743992 79.69619591428918 l 5.331647559640907 -20.18729299579715 a41.87949386834809,41.87949386834809 0 0,0 0.6954032338159828,0.19007997281125152 l -5.678348682680601 20.092526482159606" fill="#feff18" stroke="none" /><path d="M 105.71112130821622 79.79150937346287 l 3.645397774383931 -12.899040797409723 a34.40425971199916,34.40425971199916 0 0,0 0.5685054605736903,0.16596233338764 l -3.866893452681049 12.83438013510338" fill="#ffa00e" stroke="none" /><path d="M 106.0581310904928 79.89281104454417 l 3.1692528166775813 -10.518881859877869 a31.985947341858438,31.985947341858438 0 0,0 0.5258103281006787,0.16337182845440645 l -3.3498485174889785 10.462769896540943" fill="#ff7f0b" stroke="none" /><path d="M 106.40334571778207 80.00007090966166 l 6.410291779670742 -20.02162411530705 a42.02277985698274,42.02277985698274 0 0,0 0.6870067705727382,0.22649533087075535 l -6.753981372485898 19.908315060177056" fill="#fdff18" stroke="none" /><path d="M 106.74666289553966 80.11325718540242 l 3.550080404592457 -10.464363948574846 a32.05015763359529,32.05015763359529 0 0,0 0.5209188368073769,0.181738353652609 l -3.729681245463108 10.401704741750029" fill="#ff800b" stroke="none" /><path d="M 107.08798089147638 80.2323363322302 l 3.6023643486289476 -10.046630760262813 a31.672947977636348,31.672947977636348 0 0,0 0.5116201785190466,0.18843402948886484 l -3.7747668529205707 9.983133462967624" fill="#ff7b0b" stroke="none" /><path d="M 107.4271985657038 80.35727306442388 l 5.484781364502068 -14.505612269710687 a36.507921006233246,36.507921006233246 0 0,0 0.5858944757125191,0.22731795415964604 l -5.733659005214255 14.409051611660493" fill="#ffbb11" stroke="none" /><path d="M 107.76421540070413 80.48803036053334 l 8.098358236542499 -20.351691946440802 a42.90376157672922,42.90376157672922 0 0,0 0.6838371930983441,0.2789543611941718 l -8.447479299229231 20.20927669906305" fill="#f2ff19" stroke="none" /><path d="M 108.09893153111575 80.62456947434976 l 8.308691888365281 -19.877249464767015 a42.543894893458045,42.543894893458045 0 0,0 0.6732393942837035,0.2882459737020297 l -8.6496150404393 19.731283963102197" fill="#f6ff19" stroke="none" /><path d="M 108.43124777332544 80.76684994638697 l 9.012768398869964 -20.55970025722038 a43.44841350470934,43.44841350470934 0 0,0 0.682383985623932,0.3061658033337128 l -9.365334502960676 20.401514123370134" fill="#ebff1a" stroke="none" /><path d="M 108.76106565485865 80.91482961587045 l 9.049820373349675 -19.714195803950073 a42.69213601714634,42.69213601714634 0 0,0 0.6652284338557849,0.3123336694347445 l -9.387827018505057 19.555497151875326" fill="#f4ff19" stroke="none" /><path d="M 109.08828744355905 81.06846463323043 l 4.30679353059481 -8.97135071356199 a30.951562899409446,30.951562899409446 0 0,0 0.47831769008534636,0.2347084132139587 l -4.460582487690588 8.8958871402132" fill="#ff710a" stroke="none" /><path d="M 109.41281617654863 81.2277094730956 l 10.006048969223432 -19.955394300026384 a43.3235028085653,43.3235028085653 0 0,0 0.6637563175988085,0.3400017663093542 l -10.348065774410998 19.78020000840453" fill="#edff1a" stroke="none" /><path d="M 109.73455568895987 81.39251694778311 l 8.037234146328595 -15.363073872402689 a38.33843048063499,38.33843048063499 0 0,0 0.5821142127181166,0.3109452525421771 l -8.300493405575024 15.222449893358757" fill="#ffd313" stroke="none" /><path d="M 110.05341064243156 81.56283822128135 l 1.0423801883254438 -1.9116430085898841 a23.177368928157094,23.177368928157094 0 0,0 0.34862726300453006,0.19401069441129207 l -1.075131540402009 1.893416916618412" fill="#ff0100" stroke="none" /><path d="M 110.36928655335952 81.73862282372117 l 3.12354971234375 -5.5008914193316505 a27.325849287863196,27.325849287863196 0 0,0 0.40702928311445663,0.2357776327022327 l -3.217775727923535 5.4463096292393685" fill="#ff3e05" stroke="none" /><line stroke="#e1ed5e" stroke-width="0.3" x1="143.23703022742887" x2="145.7803849466894" y1="26.81831364943548" y2="22.513508569990506" /><path d="M 143.74570117128098 25.957352633546492 a86.0,86.0 0 0,1 28.547481713284135,27.462654790039103" fill="none" id="id62" stroke="none" /><text fill="#e1ed5e" style="font-size:6.75px; font-family:Arial;" text-anchor="middle"><textPath startOffset="19.985693538727396" xlink:href="#id62">February</textPath></text><path d="M 110.68208982089419 81.91981866633111 l 1.0696512872124162 -1.810459335285192 a23.10283543839181,23.10283543839181 0 0,0 0.3406435347455991,0.20523391819769843 l -1.1006568881756527 1.791778807628879" fill="#ff0000" stroke="none" /><path d="M 113.34407831869373 83.78471172551755 l 6.752679657808778 -8.205635837973832 a31.62690651442954,31.62690651442954 0 0,0 0.4173885128463209,0.3495508760577605 l -6.892925707614216 8.088183804522252" fill="#ff7a0b" stroke="none" /><path d="M 113.6212207817346 84.01681056812373 l 7.191162492422298 -8.438135919940079 a32.086701754615945,32.086701754615945 0 0,0 0.41728939191225556,0.3618692486283578 l -7.335345682981318 8.31310167789205" fill="#ff800b" stroke="none" /><path d="M 113.89432698308785 84.25364557470407 l 13.662146221311975 -15.483225410834994 a41.649080088353465,41.649080088353465 0 0,0 0.5334830914524626,0.4789663869135371 l -13.926640300360427 15.24576001515216" fill="#fffd17" stroke="none" /><path d="M 114.16331599549186 84.49514656593476 l 7.401047183507712 -8.102068179190079 a31.97355950422432,31.97355950422432 0 0,0 0.4031593563683308,0.3746926838504379 l -7.53941442367089 7.973470909265" fill="#ff7f0b" stroke="none" /><path d="M 114.42810811169701 84.74124197986012 l 7.383945031227929 -7.8090508882573895 a31.747275003441064,31.747275003441064 0 0,0 0.39384271943052473,0.37887638405098717 l -7.517270994270872 7.6807914174441" fill="#ff7c0b" stroke="none" /><path d="M 114.68862486808459 84.99185889309783 l 7.63294575637198 -7.798982409978253 a31.912652635856563,31.912652635856563 0 0,0 0.38927995842868485,0.38760826657442865 l -7.766061514967986 7.666438292753706" fill="#ff7e0b" stroke="none" /><path d="M 114.94478906791727 85.2469230424477 l 7.470729310917555 -7.374894617255931 a31.497660075113558,31.497660075113558 0 0,0 0.3775755547922808,0.3891247990417206 l -7.596569129412945 7.245205622664097" fill="#ff780b" stroke="none" /><path d="M 115.19652480421416 85.50635884689758 l 7.970832196955068 -7.602157930359512 a32.01485229633805,32.01485229633805 0 0,0 0.37691036523541577,0.40206169831791333 l -8.100509884160948 7.463826815163544" fill="#ff7f0b" stroke="none" /><path d="M 115.4437574822437 85.77008943001954 l 7.86242929375112 -7.24445885928395 a31.69111680616639,31.69111680616639 0 0,0 0.3661929061426812,0.40435935316797317 l -7.985965840509837 7.108046718846428" fill="#ff7b0b" stroke="none" /><path d="M 115.68641384162765 86.03803664274999 l 10.971256883241843 -9.76515653184535 a35.68763969089395,35.68763969089395 0 0,0 0.4044737436254708,0.4623834093203088 l -11.137722490445162 9.574857566322093" fill="#ffb110" stroke="none" /><path d="M 115.9244219780498 86.31012108654704 l 10.520238726232629 -9.04402021632316 a34.87334583041116,34.87334583041116 0 0,0 0.387408640687058,0.45856963559795977 l -10.674357980406803 8.861591631096093" fill="#ffa60f" stroke="none" /><path d="M 116.15771136456269 86.58626213691792 l 8.715658167944326 -7.235526822532733 a32.32764519659957,32.32764519659957 0 0,0 0.3517578892877066,0.43121357994572274 l -8.838914549308443 7.084429072978909" fill="#ff840c" stroke="none" /><path d="M 116.60985879189232 87.15038557335679 l 8.28936129359745 -6.412763515958381 a31.48031710242579,31.48031710242579 0 0,0 0.32788108379404,0.4314530724843243 l -8.398518317615604 6.2691256675930225" fill="#ff780b" stroke="none" /><path d="M 116.82858285166822 87.43820079747576 l 8.707582997533372 -6.499828899347 a31.865991780768045,31.865991780768045 0 0,0 0.32433113489921983,0.4423873035118754 l -8.818176744946218 6.348979152163632" fill="#ff7d0b" stroke="none" /><path d="M 117.04232023915458 87.72973835380427 l 8.527136196845902 -6.139433525469068 a31.507363881260282,31.507363881260282 0 0,0 0.3131042488221892,0.4428637553405359 l -8.631553065471975 5.991743269796738" fill="#ff780b" stroke="none" /><path d="M 117.45458315368197 88.32363383020206 l 8.937795892939107 -5.979001427763037 a31.753262458297556,31.753262458297556 0 0,0 0.29999781476614873,0.4569172535558761 l -9.03939034306318 5.824266110229487" fill="#ff7c0b" stroke="none" /><path d="M 117.65298651832404 88.62581576622439 l 9.126863275361702 -5.880626729232919 a31.857320294424163,31.857320294424163 0 0,0 0.2930454827826864,0.4635275787372981 l -9.226736354390344 5.722651502781414" fill="#ff7d0b" stroke="none" /><line stroke="#e1ed5e" stroke-width="0.3" x1="172.23445277983987" x2="176.4835382374775" y1="55.19839476539836" y2="52.563006222186495" /><path d="M 173.08426987136738 54.67131705675599 a86.0,86.0 0 0,1 12.851231095245387,41.99856678651699" fill="none" id="id63" stroke="none" /><text fill="#e1ed5e" style="font-size:6.75px; font-family:Arial;" text-anchor="middle"><textPath startOffset="22.20632615414155" xlink:href="#id63">March</textPath></text><path d="M 117.84615892207809 88.93136811851018 l 11.22518705658872 -6.962140361561726 a34.20894480530121,34.20894480530121 0 0,0 0.3060628707721259,0.5030868857360579 l -11.34336572564707 6.767885702618587" fill="#ff9d0e" stroke="none" /><path d="M 118.03404312379186 89.2402003453031 l 9.23504614449026 -5.509981629438577 a31.753881850179265,31.753881850179265 0 0,0 0.27601732998868994,0.4718030892827577 l -9.328523148949278 5.350199127801924" fill="#ff7c0b" stroke="none" /><path d="M 118.21658344932153 89.55222093294921 l 9.097307018217531 -5.217589461596179 a31.48733687708512,31.48733687708512 0 0,0 0.26560672018221976,0.4724847180098948 l -9.185771379692184 5.0602212336514905" fill="#ff780b" stroke="none" /><path d="M 118.89224826269711 90.83032412892265 l 18.75504731705895 -9.103083045109067 a41.84749195445995,41.84749195445995 0 0,0 0.30895765408628795,0.6507436135309697 l -18.908963164986993 8.778897015937556" fill="#ffff18" stroke="none" /><path d="M 119.04729006885535 91.15688171328212 l 19.063644603518497 -8.850711234797508 a42.01803118588967,42.01803118588967 0 0,0 0.29892364309208314,0.6586386237229866 l -19.213170563573925 8.521250602232458" fill="#fdff18" stroke="none" /><path d="M 119.196687751892 91.48605970444005 l 19.040289775398737 -8.444576087972683 a41.82891019800877,41.82891019800877 0 0,0 0.2862477615528616,0.6606992996995088 l -19.18282824679428 8.11557764368657" fill="#ffff18" stroke="none" /><path d="M 119.34039704204932 91.81776055985345 l 19.21838580678547 -8.13062079244524 a41.86751895863512,41.86751895863512 0 0,0 0.27508617334155344,0.6661429883861159 l -19.35549366701322 7.798603233605822" fill="#feff18" stroke="none" /><path d="M 119.47837535516314 92.15188598940014 l 9.660032720020062 -3.8921643489505238 a31.414661562964955,31.414661562964955 0 0,0 0.19777242318606614,0.5033092449391292 l -9.725598693087829 3.72530609911561" fill="#ff770b" stroke="none" /><path d="M 119.7369772167798 92.82701384747503 l 20.19596164458057 -7.33979431715316 a42.488356088065075,42.488356088065075 0 0,0 0.2438971632320008,0.6895301240020847 l -20.31931188862238 6.991066566724461" fill="#f7ff19" stroke="none" /><path d="M 119.85752413597 93.16781622104841 l 20.68205215543247 -7.115871056443461 a42.871966126801645,42.871966126801645 0 0,0 0.23408645987733723,0.6998887199462414 l -20.801475909081574 6.7588092335749055" fill="#f2ff19" stroke="none" /><path d="M 119.97218684219823 93.5106431181261 l 12.303062930065469 -3.9975074699712034 a33.93620591339001,33.93620591339001 0 0,0 0.17573220451400656,0.5571191114647608 l -12.370050618347681 3.7851381920800233" fill="#ff990e" stroke="none" /><path d="M 120.08093135843002 93.85539295169968 l 21.166653902168846 -6.476829606889736 a43.135414140487256,43.135414140487256 0 0,0 0.21114600948983708,0.7118793776957655 l -21.275005808770388 6.111520842447441" fill="#efff19" stroke="none" /><path d="M 120.45610955862082 95.25157060432595 l 26.740468184043536 -6.207203027307207 a48.45144819720913,48.45144819720913 0 0,0 0.18159052052382693,0.814034697185449 l -26.8433530915694 5.745990160571795" fill="#b0ff20" stroke="none" /><path d="M 120.53481517161879 95.60439243477599 l 20.314619996840374 -4.348473390019969 a41.77481664033978,41.77481664033978 0 0,0 0.14446269511635135,0.7044514062692433 l -20.386461987871723 3.998146327587314" fill="#fffe18" stroke="none" /><path d="M 120.6074358757038 95.95851677861258 l 12.815337402544671 -2.513314679283659 a34.059464897849494,34.059464897849494 0 0,0 0.10787812627133417,0.5762892641952495 l -12.856701252725864 2.2923473376258463" fill="#ff9b0e" stroke="none" /><path d="M 120.67395015179393 96.31383870115 l 21.78746721864478 -3.8847011757142296 a43.131078397315314,43.131078397315314 0 0,0 0.1240288350018664,0.7320252050508063 l -21.85110791516687 3.5090901823475855" fill="#efff19" stroke="none" /><path d="M 120.73433829027371 96.67025291283417 l 21.00206401720277 -3.372741416038122 a42.27115600154684,42.27115600154684 0 0,0 0.10918862336151833,0.7194166035793146 l -21.05700853400359 3.0107257000667254" fill="#f9ff18" stroke="none" /><path d="M 120.78858239683441 97.02765380044208 l 12.355096440515176 -1.7665285323028508 a33.48074641637554,33.48074641637554 0 0,0 0.07666134486806424,0.571216063570075 l -12.383673784441077 1.5535941266681115" fill="#ff930d" stroke="none" /><path d="M 120.87857604477298 97.74499172005257 l 21.57984735769658 -2.3307496817432765 a42.705349710622734,42.705349710622734 0 0,0 0.0726456114480499,0.7315313933683464 l -21.616770094826858 1.9589427576704952" fill="#f4ff19" stroke="none" /><path d="M 120.91429891909075 98.10471618934814 l 14.429480366069061 -1.3076202381790654 a35.488608432905764,35.488608432905764 0 0,0 0.049896165833779725,0.6088596055256649 l -14.449851015722336 1.0590467154456318" fill="#ffae10" stroke="none" /><path d="M 120.94382443527127 98.46500227214037 l 12.829738043984491 -0.940306714631578 a33.86414999115154,33.86414999115154 0 0,0 0.03760437923483246,0.5817231026706464 l -12.844023014223739 0.7193245477078963" fill="#ff980e" stroke="none" /><path d="M 120.96714384426684 98.82574320788733 l 20.659650288226327 -1.1570357342807889 a41.69202459215175,41.69202459215175 0 0,0 0.0339619098196213,0.7168822391727027 l -20.676505806279447 0.8012423884850864" fill="#fffd18" stroke="none" /><path d="M 120.98425023603335 99.18683210126433 l 20.697549336001156 -0.8020578535435616 a41.71308391612975,41.71308391612975 0 0,0 0.021627847756006586,0.7177229743744669 l -20.70828887821281 0.44566473174409565" fill="#fffe18" stroke="none" /><line stroke="#e1ed5e" stroke-width="0.3" x1="184.98032266829074" x2="189.97916517819016" y1="98.17113171792111" y2="98.06355123074" /><path d="M 185.9800911702706 98.14961562048488 a86.0,86.0 0 0,1 -9.607161424134198,41.387399972396054" fill="none" id="id64" stroke="none" /><text fill="#e1ed5e" style="font-size:6.75px; font-family:Arial;" text-anchor="middle"><textPath startOffset="21.466115282336823" xlink:href="#id64">April</textPath></text><path d="M 120.99513854157772 99.54816195383933 l 14.482364522435425 -0.31167611857597466 a35.48571793745781,35.48571793745781 0 0,0 0.007886266335089008,0.6108000186230694 l -14.48558379588823 0.0623398418924425" fill="#ffae10" stroke="none" /><path d="M 120.99824983174949 100.27111621757518 l 20.69525481307207 0.26720413613667693 a41.696979727205395,41.696979727205395 0 0,0 -0.01544364259727231,0.7176053868669119 l -20.687589107789787 -0.6233993387937037" fill="#fffd18" stroke="none" /><path d="M 120.9904718944345 100.63252640178507 l 20.698320362551673 0.6237227141801795 a41.707715853154966,41.707715853154966 0 0,0 -0.027800907885344266,0.717417901963534 l -20.684517321815125 -0.9799178631577197" fill="#fffe18" stroke="none" /><path d="M 120.9764740272857 100.99374915477107 l 8.873366524306988 0.42037095805681196 a29.8833183674272,29.8833183674272 0 0,0 -0.028764329133115437,0.5136064194551248 l -8.864815844286342 -0.57304909384736" fill="#ff6209" stroke="none" /><path d="M 120.95626037817324 101.35467743843564 l 20.715681426666897 1.3391256714749868 a41.75891891537599,41.75891891537599 0 0,0 -0.0525435402000532,0.7169148599926761 l -20.689561327802508 -1.6955136679644331" fill="#fffe18" stroke="none" /><path d="M 120.92983693683757 101.71520430193887 l 20.606428573548875 1.688700922210218 a41.67550747530626,41.67550747530626 0 0,0 -0.06474667889236341,0.7144742063234966 l -20.574307298379434 -2.043156517082285" fill="#fffd17" stroke="none" /><path d="M 120.89721153311464 102.0752229133903 l 14.99090614260148 1.4886900996485841 a36.06464288289233,36.06464288289233 0 0,0 -0.06666411590001664,0.6172269191439516 l -14.963059725200411 -1.7465133406773272" fill="#ffb610" stroke="none" /><path d="M 120.8583938346157 102.4346265915055 l 13.693870708010456 1.5983714772434623 a34.78683743093289,34.78683743093289 0 0,0 -0.07454072297463006,0.5941629033793485 l -13.66432847578898 -1.8338521349102057" fill="#ffa50f" stroke="none" /><path d="M 120.81339534386255 102.79330883721812 l 20.50713343910489 2.7522062650078047 a41.69099227234891,41.69099227234891 0 0,0 -0.1015790087463939,0.7104433505852296 l -20.456720379341895 -3.104795087573444" fill="#fffd18" stroke="none" /><path d="M 120.64145759157962 103.86396538481128 l 20.361875421459878 3.811629166656134 a41.71556148365657,41.71556148365657 0 0,0 -0.1381978289702758,0.7046677525704915 l -20.293247659513938 -4.1615606462945705" fill="#fffe18" stroke="none" /><path d="M 120.5718875245553 104.21870165774334 l 20.260482362052024 4.1548414274307675 a41.68211432204445,41.68211432204445 0 0,0 -0.15018653562738818,0.7016214947789567 l -20.185961787700194 -4.502976741625893" fill="#fffd17" stroke="none" /><path d="M 120.32669344350535 105.2749913415812 l 20.013204401350205 5.193637628659573 a41.67612686718796,41.67612686718796 0 0,0 -0.18617703009690686,0.6928339885457834 l -19.92083929491152 -5.537362550380905" fill="#fffd17" stroke="none" /><path d="M 120.23288151984713 105.62410040840565 l 19.93436598719518 5.541122542526476 a41.690166416506635,41.690166416506635 0 0,0 -0.19814217037196294,0.6897588888754838 l -19.836031179937116 -5.883438906906542" fill="#fffd18" stroke="none" /><path d="M 120.13307415673323 105.97154293290107 l 19.837218824002484 5.88379116645072 a41.69140520027004,41.69140520027004 0 0,0 -0.20999211841843646,0.6862663930541073 l -19.732999933077917 -6.224384532056885" fill="#fffd18" stroke="none" /><path d="M 120.02730092923936 106.31721596034902 l 19.723351796049432 6.221341218060689 a41.681288466202176,41.681288466202176 0 0,0 -0.2217201385381863,0.6823844202391973 l -19.613339406494998 -6.559924538277682" fill="#fffd17" stroke="none" /><path d="M 119.79798401119884 107.00284435728193 l 19.497709807383416 6.896632860564041 a41.68149493016274,41.68149493016274 0 0,0 -0.24507873280517808,0.6743514155524081 l -19.37610681357301 -7.23123207312258" fill="#fffd17" stroke="none" /><path d="M 119.67450827220406 107.3425965602758 l 19.384617831839932 7.234408415452794 a41.69057934442777,41.69057934442777 0 0,0 -0.2567062093473952,0.670178908178654 l -19.257217342899033 -7.5670108904645925" fill="#fffd18" stroke="none" /><path d="M 119.54520255179757 107.68017299344265 l 19.235695316611245 7.558553936149508 a41.66745538084408,41.66745538084408 0 0,0 -0.26805544249994195,0.6652916252180182 l -19.10273725985391 -7.888544929210339" fill="#fffd17" stroke="none" /><path d="M 119.41010516605496 108.01547362559984 l 19.129072175658386 7.89942002861126 a41.69594740740256,41.69594740740256 0 0,0 -0.2796587276471305,0.6610306223051522 l -18.990262466818947 -8.227525176582576" fill="#fffd18" stroke="none" /><path d="M 119.26925614724726 108.34839909993367 l 18.972454359557563 8.21980981977293 a41.6765397951091,41.6765397951091 0 0,0 -0.2908604030726252,0.6558134240248811 l -18.828152871753666 -8.5451715802905" fill="#fffd17" stroke="none" /><path d="M 118.64920377521936 109.65438752849418 l 38.74040859217238 20.055275392401498 a64.62377022855233,64.62377022855233 0 0,0 -0.5199058994840354,0.9834660301699533 l -38.38945018446345 -20.719156437657585" fill="#35ff61" stroke="none" /><line stroke="#e1ed5e" stroke-width="0.3" x1="174.80103733775053" x2="179.2010983576182" y1="140.37084112569926" y2="142.7455964860345" /><path d="M 175.68104954172406 140.8457921977663 a86.0,86.0 0 0,1 -30.038265399797805,32.042727171017184" fill="none" id="id65" stroke="none" /><text fill="#e1ed5e" style="font-size:6.75px; font-family:Arial;" text-anchor="middle"><textPath startOffset="22.206326154141568" xlink:href="#id65">May</textPath></text><path d="M 117.94076556474637 110.91462005526583 l 17.67236374392082 10.751332491762467 a41.68583067333469,41.68583067333469 0 0,0 -0.37822022705162434,0.6098114339492585 l -17.484678877201233 -11.053940257076999" fill="#fffd17" stroke="none" /><path d="M 117.75023020441432 111.22182372390056 l 17.501083143197743 11.064311152508374 a41.70523828562814,41.70523828562814 0 0,0 -0.3888420394298682,0.6034914802443451 l -17.308036240390823 -11.363924232674172" fill="#fffe18" stroke="none" /><path d="M 116.93607887273984 112.41649034213515 l 16.669386887528187 12.220968197748148 a41.6693135564892,41.6693135564892 0 0,0 -0.4290723610066787,0.5748125455715629 l -16.456553259826414 -12.506093622829026" fill="#fffd17" stroke="none" /><path d="M 116.71984013943494 112.70617746262583 l 16.455566961422054 12.50534408919399 a41.66807477272579,41.66807477272579 0 0,0 -0.4388901942559394,0.5673247390693681 l -16.237869949948045 -12.78674682237661" fill="#fffd17" stroke="none" /><path d="M 116.27256486870786 113.27417163493432 l 16.0235205742022 13.071016401777053 a41.678604434714785,41.678604434714785 0 0,0 -0.45827411823001646,0.5520206972725715 l -15.796150456078642 -13.344898356163394" fill="#fffd17" stroke="none" /><path d="M 116.0416608686014 113.55231037782055 l 15.804667091373867 13.352093377043152 a41.689753488585495,41.689753488585495 0 0,0 -0.46783346113013946,0.5441960076919935 l -15.572491120672948 -13.622166483896672" fill="#fffd18" stroke="none" /><path d="M 115.56566222782051 114.09645910891815 l 15.328048903170073 13.881273499360057 a41.679430290557065,41.679430290557065 0 0,0 -0.48616791249351726,0.5276392496828491 l -15.086834582680833 -14.143064003844241" fill="#fffd17" stroke="none" /><path d="M 115.32070863581623 114.36230785411682 l 15.101445434862544 14.156760860956592 a41.69945729473223,41.69945729473223 0 0,0 -0.49541625743277806,0.519441965270172 l -14.855522626050801 -14.414609942809271" fill="#fffd18" stroke="none" /><path d="M 114.29624159901734 115.38237550388516 l 14.074351830411176 15.143628017874233 a41.67406222758227,41.67406222758227 0 0,0 -0.5296583801946503,0.48383037222882935 l -13.811593900749662 -15.383651156689647" fill="#fffd17" stroke="none" /><path d="M 114.0293411484842 115.62618273729858 l 13.815318040755262 15.387799184145168 a41.67963675451763,41.67963675451763 0 0,0 -0.5379802033517932,0.4747049795722744 l -13.548395484496881 -15.623327305489731" fill="#fffd17" stroke="none" /><path d="M 113.20401910651253 116.32954008644616 l 15.596457309426835 19.28829190463805 a45.804993150640044,45.804993150640044 0 0,0 -0.6173695289248438,0.49047569184792567 l -15.262130287784641 -19.5539015104911" fill="#cfff1d" stroke="none" /><path d="M 112.92097659922987 116.55440617244103 l 15.260859946830784 19.552273944651468 a45.80292851103435,45.80292851103435 0 0,0 -0.6256925876515254,0.4797543953105224 l -14.922038630685766 -19.81206768178936" fill="#cfff1d" stroke="none" /><path d="M 112.34349029814194 116.9893568818739 l 14.601974678440564 20.097893950583465 a45.84236312750296,45.84236312750296 0 0,0 -0.6423883188215267,0.45832700901143947 l -14.253859031770153 -20.346265221439122" fill="#ceff1d" stroke="none" /><line stroke="#e1ed5e" stroke-width="0.3" x1="143.8653032363475" x2="146.44561519142675" y1="172.8068346515853" y2="177.08958963109032" /><path d="M 144.38136562736335 173.6633856474863 a86.0,86.0 0 0,1 -40.68145358897372,12.25698825130547" fill="none" id="id66" stroke="none" /><text fill="#e1ed5e" style="font-size:6.75px; font-family:Arial;" text-anchor="middle"><textPath startOffset="21.466115282336833" xlink:href="#id66">June</textPath></text><path d="M 110.8373102113329 117.98757091392108 l 10.671023854309333 17.711571834753688 a41.67777857887251,41.67777857887251 0 0,0 -0.6176887503766754,0.36494140136705056 l -10.364567232904275 -17.89263180841449" fill="#fffd17" stroke="none" /><path d="M 109.2508944713604 118.85261126421891 l 9.11067795643914 18.56686079362196 a41.681701394123316,41.681701394123316 0 0,0 -0.6468351647877061,0.31052018720632946 l -8.789730123651202 -18.72093525732785" fill="#fffd17" stroke="none" /><path d="M 108.59647513512805 119.15986991738527 l 4.796861185129296 10.691269953572997 a32.718068546034914,32.718068546034914 0 0,0 -0.5158226695582193,0.2261214997034016 l -4.6121178409133226 -10.772256006570853" fill="#ff890c" stroke="none" /><path d="M 108.2653958097858 119.30500536409082 l 4.959920088413304 11.584597533601 a33.60173429726878,33.60173429726878 0 0,0 -0.5336732094534361,0.22307544483371516 l -4.7597754194624065 -11.668258021454688" fill="#ff950d" stroke="none" /><path d="M 106.91757812671514 119.82793768551818 l 4.8061999265123205 13.776068864188002 a35.59039516546612,35.59039516546612 0 0,0 -0.5801747372316021,0.1968267709348913 l -4.568355456343491 -13.856758622021015" fill="#ffaf10" stroke="none" /><path d="M 106.57524785965236 119.94407469862006 l 3.89992285009184 11.829265497103128 a33.45555781318617,33.45555781318617 0 0,0 -0.5484778306264768,0.1756052810075773 l -3.695723674374423 -11.894643624770412" fill="#ff930d" stroke="none" /><path d="M 105.88484417918355 120.15858648285463 l 3.478221436071328 11.914678705272093 a33.41199391750618,33.41199391750618 0 0,0 -0.5534757759704234,0.15641778280933785 l -3.2726144919962987 -11.97278528141995" fill="#ff920d" stroke="none" /><path d="M 105.18746579009965 120.34920634021253 l 5.124700340706109 20.102992267209284 a41.74591168586017,41.74591168586017 0 0,0 -0.697845960605772,0.17151355860903086 l -4.777901095357127 -20.188227084132347" fill="#fffe18" stroke="none" /><path d="M 103.41894727170886 120.7198165907248 l 1.058329885328148 6.413787453797662 a27.500517798504283,27.500517798504283 0 0,0 -0.4677237471343517,0.07304883007769587 l -0.9477702745852791 -6.4310545912224635" fill="#ff4006" stroke="none" /><path d="M 102.34483914955558 120.86867818915974 l 2.333896392675202 20.771289474082085 a41.90199844005007,41.90199844005007 0 0,0 -0.7174567988630901,0.07436733070602344 l -1.976006997206509 -20.808386173243868" fill="#feff18" stroke="none" /><line stroke="#e1ed5e" stroke-width="0.3" x1="102.19456741930631" x2="102.32365962044197" y1="184.97166512339345" y2="189.96999836594603" /><path d="M 102.22038585953345 185.97133177190398 a86.0,86.0 0 0,1 -42.740103519485714,-10.115201625700543" fill="none" id="id67" stroke="none" /><text fill="#e1ed5e" style="font-size:6.75px; font-family:Arial;" text-anchor="middle"><textPath startOffset="22.20632615414155" xlink:href="#id67">July</textPath></text><path d="M 99.81925306533755 120.99922214144158 l -0.09530947728915191 11.073077889355742 a32.07348806113955,32.07348806113955 0 0,0 -0.5520310224305758,-0.00950371467604963 l 0.2859001896123956 -11.069796697400532" fill="#ff800b" stroke="none" /><path d="M 97.2962882734958 120.8252237178851 l -0.6750994636986578 5.199924690760845 a26.243565206562277,26.243565206562277 0 0,0 -0.44747954122828654,-0.06201658697137185 l 0.7645075961137754 -5.187533538296869" fill="#ff2e04" stroke="none" /><path d="M 95.86986931433489 120.58985236759428 l -2.3110827360862545 11.521391444215023 a32.750896315765324,32.750896315765324 0 0,0 -0.5517879410646958,-0.11563252798376931 l 2.509062138580337 -11.479902935504713" fill="#ff890c" stroke="none" /><path d="M 94.81253420990036 120.34920634021253 l -0.7251347449708326 2.8445327924920027 a23.935504591365216,23.935504591365216 0 0,0 -0.3983660767053153,-0.10521210155080236 l 0.7739912644876372 -2.8316293416376186" fill="#ff0c01" stroke="none" /><path d="M 94.46302465271185 120.25689768951611 l -2.8173543326975103 10.307226399431242 a31.685335815270466,31.685335815270466 0 0,0 -0.5248733694414847,-0.1483344570225431 l 2.994358870243609 -10.257203149070179" fill="#ff7b0b" stroke="none" /><path d="M 94.11515582081647 120.15858648285463 l -3.005062514232384 10.293868577492677 a31.72353164797567,31.72353164797567 0 0,0 -0.5228718191667261,-0.15753698993199886 l 3.181809307839356 -10.240616218454953" fill="#ff7b0b" stroke="none" /><path d="M 92.40401165467489 119.57807347666478 l -3.8624935329609715 9.955278859530138 a31.678316040611133,31.678316040611133 0 0,0 -0.5066704145012578,-0.2016146144156951 l 4.033285023504088 -9.887317400708376" fill="#ff7b0b" stroke="none" /><path d="M 91.7346041902142 119.30500536409082 l -4.212063994080979 9.837873451063976 a31.701646468155396,31.701646468155396 0 0,0 -0.4997980821388392,-0.2190967914979564 l 4.380782750877562 -9.763912106271567" fill="#ff7b0b" stroke="none" /><path d="M 90.10565033884886 118.52300852407294 l -5.659894339624268 10.595771797902609 a33.01269261776639,33.01269261776639 0 0,0 -0.4989274074129326,-0.2720550032421829 l 5.841444558905841 -10.49677614290066" fill="#ff8d0d" stroke="none" /><line stroke="#e1ed5e" stroke-width="0.3" x1="58.666819895761336" x2="56.23545636021788" y1="174.27360380694188" y2="178.64263932499728" /><path d="M 58.180547188652646 175.14741091055294 a86.0,86.0 0 0,1 -31.652253787137756,-30.449443065178592" fill="none" id="id68" stroke="none" /><text fill="#e1ed5e" style="font-size:6.75px; font-family:Arial;" text-anchor="middle"><textPath startOffset="22.20632615414155" xlink:href="#id68">August</textPath></text><path d="M 89.7882731507175 118.34994917583269 l -5.094585406340648 9.154708567714813 a31.47680721509612,31.47680721509612 0 0,0 -0.4711796743547098,-0.26754811613272894 l 5.251413847616565 -9.06565728578745" fill="#ff780b" stroke="none" /><path d="M 89.4739219176387 118.17145234162733 l -5.214882453004225 9.002592154503303 a31.403925437015385,31.403925437015385 0 0,0 -0.4654243129442021,-0.2749808878542393 l 5.3690746369768085 -8.911492694355314" fill="#ff770a" stroke="none" /><path d="M 89.1626897886671 117.98757091392108 l -5.369713926687705 8.912553775821566 a31.405164220778794,31.405164220778794 0 0,0 -0.4606401814067389,-0.2829628224628628 l 5.522333308026752 -8.818802486530325" fill="#ff770a" stroke="none" /><path d="M 88.8546689885994 117.79835938074946 l -5.645607014230102 9.01566247417536 a31.63743617641854,31.63743617641854 0 0,0 -0.45907154950160617,-0.2930011831105333 l 5.799960365778631 -8.91714686224102" fill="#ff7a0b" stroke="none" /><path d="M 87.36589467227662 116.77436683061367 l -6.222236216220007 8.261295128557542 a31.342399176765923,31.342399176765923 0 0,0 -0.42815399542397786,-0.32829022626813475 l 6.363518940137471 -8.152965560462041" fill="#ff760a" stroke="none" /><path d="M 87.07902340077011 116.55440617244103 l -6.476579285030418 8.297818920189172 a31.526152101672032,31.526152101672032 0 0,0 -0.42491624456338967,-0.33757916331342447 l 6.618453022311166 -8.185105842870618" fill="#ff790b" stroke="none" /><path d="M 86.51685102203217 116.09983520530335 l -14.926916747652768 17.82379621801917 a44.248667815873475,44.248667815873475 0 0,0 -0.5797302919819278,-0.494058731807095 l 15.231512516211753 -17.564213095989125" fill="#e1ff1b" stroke="none" /><path d="M 85.70375840098266 115.38237550388516 l -7.007097107890312 7.539450012733782 a31.292847826229444,31.292847826229444 0 0,0 -0.3914052268481759,-0.37009807226741837 l 7.135838169129305 -7.4177173037204325" fill="#ff750a" stroke="none" /><path d="M 85.18274418774928 114.88116024355367 l -7.36458471575998 7.396346980244461 a31.43757906258807,31.43757906258807 0 0,0 -0.38018418707152957,-0.38512457428977176 l 7.490809527887043 -7.268481911974025" fill="#ff770b" stroke="none" /><path d="M 83.50135304334701 112.99209946851258 l -8.603694720695207 6.77510452230836 a31.951054932522336,31.951054932522336 0 0,0 -0.33654073970309284,-0.4350242722144971 l 8.719042277616369 -6.62600225598061" fill="#ff7e0b" stroke="none" /><path d="M 83.28015986056508 112.70617746262583 l -8.488412834063348 6.45073630765496 a31.661385995844505,31.661385995844505 0 0,0 -0.32601990487711374,-0.43675693999431026 l 8.598194005635547 -6.303666488151342" fill="#ff7a0b" stroke="none" /><path d="M 82.6465618267979 111.8261652097733 l -18.545051771125348 12.638235943803082 a43.44201312193172,43.44201312193172 0 0,0 -0.4157957015340275,-0.6215581578917536 l 18.759850578070107 -12.317140871705508" fill="#ebff1a" stroke="none" /><path d="M 82.44556493220864 111.52570212397912 l -10.57311578161063 6.941982612973888 a33.648395152357296,33.648395152357296 0 0,0 -0.31372343457137863,-0.48690573733853476 l 10.691044079559054 -6.758955275713904" fill="#ff950d" stroke="none" /><path d="M 82.24976979558568 111.22182372390057 l -4.537699196185146 2.8687662021989633 a26.368475902706315,26.368475902706315 0 0,0 -0.2392441455966176,-0.3857377396960956 l 4.58640798144972 -2.7902321311376035" fill="#ff3004" stroke="none" /><line stroke="#e1ed5e" stroke-width="0.3" x1="26.63291911575756" x2="22.317208475507996" y1="142.92168965132927" y2="145.44649492493687" /><path d="M 25.769776987707644 143.4266507060508 a86.0,86.0 0 0,1 -11.730757126820373,-40.83630448921669" fill="none" id="id69" stroke="none" /><text fill="#e1ed5e" style="font-size:6.75px; font-family:Arial;" text-anchor="middle"><textPath startOffset="21.46611528233685" xlink:href="#id69">September</textPath></text><path d="M 81.87401531095188 110.60418214915194 l -18.675280353369285 10.92553469237241 a42.6363907477928,42.6363907477928 0 0,0 -0.365146179393228,-0.6366631420351582 l 18.860578528914893 -10.602451704478947" fill="#f5ff19" stroke="none" /><path d="M 81.51974371655577 109.97397251340807 l -8.325799447455402 4.493514243926468 a30.46100452909831,30.46100452909831 0 0,0 -0.24506239581626404,-0.463565698709206 l 8.401914351496552 -4.3495335301311355" fill="#ff6a09" stroke="none" /><path d="M 80.73074385275274 108.34839909993369 l -9.526769040990859 4.127469658368004 a31.38245318511624,31.38245318511624 0 0,0 -0.21048513042390454,-0.4975246720197328 l 9.596405152607069 -3.962870460682112" fill="#ff770a" stroke="none" /><path d="M 79.76711848015287 105.62410040840567 l -26.03928048991959 7.238095468225387 a48.02654536635883,48.02654536635883 0 0,0 -0.21454583845129235,-0.7984048778881989 l 26.16001440471266 -6.78879965716165" fill="#b5ff20" stroke="none" /><path d="M 79.58551787078972 104.9243191809786 l -13.379956314798628 3.227472296607675 a34.7637134673492,34.7637134673492 0 0,0 -0.13531267928445054,-0.5829234808955773 l 13.433529560013634 -2.996680158363523" fill="#ffa40f" stroke="none" /><path d="M 79.50377843672027 104.57218783832718 l -24.475929548457582 5.459959879322428 a46.077525578590674,46.077525578590674 0 0,0 -0.16602382219539202,-0.7756080251204779 l 24.566287409377413 -5.0378380347857865" fill="#ccff1d" stroke="none" /><path d="M 79.35854240842038 103.8639653848113 l -20.383792823617828 3.8157319817256554 a41.73785959139799,41.73785959139799 0 0,0 -0.12611503239150562,-0.7073200768146874 l 20.446454298348524 -3.464293154177754" fill="#fffe18" stroke="none" /><path d="M 79.29508885075956 103.50808413554451 l -16.28115310411092 2.758555904983831 a37.513194030242055,37.513194030242055 0 0,0 -0.10239002238657025,-0.637582767140092 l 16.32622488085878 -2.4778939081505253" fill="#ffc812" stroke="none" /><path d="M 79.23777060512086 103.15116336523772 l -30.62731282865846 4.648424999347507 a51.97805910768243,51.97805910768243 0 0,0 -0.1266431771695181,-0.8857420861597398 l 30.70279005684458 -4.120537441207367" fill="#88ff25" stroke="none" /><path d="M 79.1416061653843 102.43462659150553 l -16.428707472147682 1.9175861954134643 a37.54024080907655,37.54024080907655 0 0,0 -0.06939170234784008,-0.6424809821006245 l 16.459281475996573 -1.6345088914280577" fill="#ffc912" stroke="none" /><path d="M 79.10278846688536 102.07522291339032 l -32.89021038504078 3.266202196838826 a54.05198959159463,54.05198959159463 0 0,0 -0.08397466583109983,-0.9266534399501548 l 32.94155964714896 -2.699567368340105" fill="#72ff27" stroke="none" /><path d="M 79.04373962182676 101.35467743843564 l -39.12872765889918 2.529401887438468 a60.21039660743664,60.21039660743664 0 0,0 -0.05795580142596572,-1.034839766965938 l 39.16646981121268 -1.8554904041370923" fill="#33ff2f" stroke="none" /><line stroke="#e1ed5e" stroke-width="0.3" x1="15.007084014347285" x2="10.007500721073583" y1="101.09737516637583" y2="101.16192664675087" /><path d="M 14.007167355692545 101.11028546245083 a86.0,86.0 0 0,1 10.666146001902534,-42.60595125391555" fill="none" id="id70" stroke="none" /><text fill="#e1ed5e" style="font-size:6.75px; font-family:Arial;" text-anchor="middle"><textPath startOffset="22.20632615414155" xlink:href="#id70">October</textPath></text><path d="M 79.00019446554 99.90962569577889 l -21.767913176150333 -0.09367991548360449 a42.768114754635604,42.768114754635604 0 0,0 0.00950468986421947,-0.7361487045195108 l 21.763075479168396 0.4683648780635872" fill="#f3ff19" stroke="none" /><path d="M 79.00486145842228 99.54816195383935 l -12.614091816907239 -0.2714688731086644 a33.61701263035086,33.61701263035086 0 0,0 0.01743010976227139,-0.5784204865588941 l 12.607550012689321 0.4885595070925529" fill="#ff950d" stroke="none" /><path d="M 79.01574976396665 99.18683210126434 l -30.787921837565918 -1.1930733490825702 a51.81102976358238,51.81102976358238 0 0,0 0.042204751093414,-0.8908755905740143 l 30.762823478239007 1.7228600462795938" fill="#8aff24" stroke="none" /><path d="M 79.05617556472873 98.46500227214037 l -35.28584637631982 -2.5861415225596764 a56.380490138887986,56.380490138887986 0 0,0 0.07926967018382965,-0.9672907589545443 l 35.2361022223165 3.1931461987219993" fill="#59ff2a" stroke="none" /><path d="M 79.16333360222342 97.38593545837743 l -33.87144759624935 -4.249343366376028 a55.13695770438294,55.13695770438294 0 0,0 0.12624788220027255,-0.9406933628493843 l 33.79328371499124 4.831755071290072" fill="#66ff29" stroke="none" /><path d="M 79.21141760316559 97.0276538004421 l -33.225705504646974 -4.750602883792883 a54.56360728588376,54.56360728588376 0 0,0 0.14094067275959737,-0.9286229369078176 l 33.13900893844807 5.321824933092793" fill="#6dff28" stroke="none" /><path d="M 79.26566170972629 96.67025291283419 l -27.859036309115975 -4.473909111680694 a49.21598424319488,49.21598424319488 0 0,0 0.14152674628078923,-0.835298867918997 l 27.777897701314963 4.952793767915519" fill="#a7ff21" stroke="none" /><path d="M 79.54389044137918 95.25157060432595 l -61.3683286758625 -14.245288187022146 a84.0,84.0 0 0,0 0.3390687989567409,-1.4056590733624128 l 61.114027076644945 15.299532492043955" fill="#4dd2ff" stroke="none" /><path d="M 79.81627453868168 94.20196356495316 l -25.46027562476837 -7.3137937791341825 a47.48994553284088,47.48994553284088 0 0,0 0.23246125463153705,-0.7837437879376244 l 25.330608473025126 7.750966953818346" fill="#bbff1f" stroke="none" /><path d="M 79.91906864156998 93.8553929516997 l -34.90251162881788 -10.6798940312988 a57.49993773309125,57.49993773309125 0 0,0 0.2977525196258766,-0.9439568554273685 l 34.71350362542379 11.279101053152583" fill="#4eff2b" stroke="none" /><path d="M 80.14247586403 93.16781622104843 l -36.53056097088423 -12.568712211668926 a59.63229751784439,59.63229751784439 0 0,0 0.34230903571471344,-0.9677537397959942 l 36.30879885435971 13.195663577891532" fill="#38ff2e" stroke="none" /><path d="M 80.52162464483688 92.15188598940014 l -36.0341454062973 -14.5186688451505 a59.849084676441485,59.849084676441485 0 0,0 0.393232178336209,-0.9522429107377218 l 35.77889154107489 15.136786326341534" fill="#36ff2e" stroke="none" /><path d="M 80.65960295795068 91.81776055985345 l -31.48099031925288 -13.318495998041229 a55.182379775708036,55.182379775708036 0 0,0 0.377629553655172,-0.8716210750166428 l 31.247070055755024 13.858416217644471" fill="#66ff29" stroke="none" /><path d="M 81.10775173730289 90.83032412892265 l -27.892593148289915 -13.53814722404761 a52.004486494635216,52.004486494635216 0 0,0 0.39780952556488675,-0.8019597288725174 l 27.655423609771614 14.016266541419089" fill="#88ff25" stroke="none" /><line stroke="#e1ed5e" stroke-width="0.3" x1="26.266209847984243" x2="21.928928074336255" y1="57.711370442889674" y2="55.22380399835377" /><path d="M 25.398753493254645 57.213857153982495 a86.0,86.0 0 0,1 29.58750427330803,-30.492523968695096" fill="none" id="id71" stroke="none" /><text fill="#e1ed5e" style="font-size:6.75px; font-family:Arial;" text-anchor="middle"><textPath startOffset="21.46611528233685" xlink:href="#id71">November</textPath></text><path d="M 81.78341655067845 89.55222093294921 l -20.93696987978476 -12.008005576129861 a45.13604991839758,45.13604991839758 0 0,0 0.3923404402489503,-0.6706369914077375 l 20.727169765065483 12.366621979891491" fill="#d7ff1c" stroke="none" /><path d="M 81.96595687620814 89.24020034530311 l -20.38816488413269 -12.164358706161762 a44.7412908257903,44.7412908257903 0 0,0 0.40029436716418176,-0.6579786893008909 l 20.175754718682292 12.513505168669727" fill="#dcff1b" stroke="none" /><path d="M 82.15384107792192 88.93136811851018 l -17.571101454930318 -10.898034395307675 a41.67633333114853,41.67633333114853 0 0,0 0.3833674994872603,-0.6063953182847084 l 17.3809063591971 11.1988773613066" fill="#fffd17" stroke="none" /><path d="M 82.34701348167596 88.62581576622439 l -20.88659238994673 -13.457663359819078 a45.846698870674906,45.846698870674906 0 0,0 0.43314949112733997,-0.6597163916654024 l 20.651846263461472 13.815197815462147" fill="#ceff1d" stroke="none" /><path d="M 83.39014120810768 87.1503855733568 l -34.485905096838444 -26.678768868552126 a64.60085272892921,64.60085272892921 0 0,0 0.6879865287130881,-0.8736730253397577 l 34.021564487531386 27.268434287844933" fill="#34ff60" stroke="none" /><path d="M 83.6137871275137 86.86637796730984 l -16.157500353482042 -12.95030793796178 a41.706889997312686,41.706889997312686 0 0,0 0.45381367881857,-0.556321910698172 l 15.93218818258708 13.226514018268034" fill="#fffe18" stroke="none" /><line stroke="#e1ed5e" stroke-width="0.3" x1="56.762969772571076" x2="54.21961505331055" y1="26.818313649435495" y2="22.513508569990535" /><path d="M 56.25429882871897 25.957352633546506 a86.0,86.0 0 0,1 42.265352541879196,-11.944610805530505" fill="none" id="id72" stroke="none" /><text fill="#e1ed5e" style="font-size:6.75px; font-family:Arial;" text-anchor="middle"><textPath startOffset="22.20632615414155" xlink:href="#id72">December</textPath></text></svg>