<?xml version="1.0" encoding="utf-8" ?>
<svg baseProfile="full" height="200mm" version="1.1" viewBox="0,0,200,200" width="200mm" xmlns="http://www.w3.org/2000/svg" xmlns:ev="http://www.w3.org/2001/xml-events" xmlns:xlink="http://www.w3.org/1999/xlink"><defs /><rect fill="#1a1a1a" height="200" width="200" x="0" y="0" /><text alignment-baseline="middle" fill="#e1ed5e" style="dominant-baseline: central; font-size:9.0px; font-family:Arial;" text-anchor="middle" x="100.0" y="100.0">2022</text><line stroke="#e1ed5e" stroke-width="0.3" x1="100.0" x2="100.0" y1="15.0" y2="10.0" /><path d="M 100.0 14.0 a86.0,86.0 0 0,1 42.46469731375804,11.215312516191453" fill="none" id="id61" stroke="none" /><text fill="#e1ed5e" style="font-size:6.75px; font-family:Arial;" text-anchor="middle"><textPath startOffset="22.20632615414155" xlink:href="#id61">January</textPath></text><path d="M 100.0 79.0 l 0.0 -15.336030864109816 a36.336030864109816,36.336030864109816 0 0,0 0.6254650405533237,0.005383575070403066 l -0.2639845612807954 15.333758665647972" fill="#ffbf11" stroke="none" /><path d="M 100.36148047927253 79.00311137660856 l 0.0802676411315727 -4.662411437247615 a25.663102326176233,25.663102326176233 0 0,0 0.44161722090232003,0.011405669918195074 l -0.1605114972287605 4.66033897518706" fill="#ff2e04" stroke="none" /><path d="M 100.72285384407766 79.0124445844662 l 0.5299195688114264 -15.38584377371135 a36.39496681966095,36.39496681966095 0 0,0 0.6259226629431737,0.02695354652962974 l -0.7946830641439316 15.374442500657526" fill="#ffc011" stroke="none" /><path d="M 101.08401301168833 79.027996857942 l 0.3977343294771929 -7.69482055801953 a28.705092862319354,28.705092862319354 0 0,0 0.4932327093479998,0.029753143987974354 l -0.5301290876648046 7.686834144651252" fill="#ff5908" stroke="none" /><path d="M 101.44485096284872 79.0497635885617 l 0.5355185605840748 -7.764981119456968 a28.783425461469598,28.783425461469598 0 0,0 0.49399185333673457,0.038343275266785076 l -0.6691006032831505 7.754612582001718" fill="#ff5a08" stroke="none" /><path d="M 101.80526077348638 79.07773832637324 l 0.5181470128211751 -6.005119895624033 a27.027432395947308,27.027432395947308 0 0,0 0.46316637136040734,0.04398322787068245 l -0.6214385112718267 5.995311123238173" fill="#ff4106" stroke="none" /><path d="M 102.16513564639614 79.11191278185805 l 0.5168167988882414 -4.985976000601768 a26.012689525812455,26.012689525812455 0 0,0 0.4449821051874119,0.04999892430355755 l -0.6025656075853785 4.97634112282761" fill="#ff3304" stroke="none" /><path d="M 102.52436894288641 79.15227682838746 l 0.9519697212111303 -7.861925758314116 a28.91935117161411,28.91935117161411 0 0,0 0.49367435505395346,0.06409309983486232 l -1.08715880477293 7.844374335315116" fill="#ff5c08" stroke="none" /><path d="M 102.88285421437855 79.19881850522331 l 1.3267036588871308 -9.572805818848671 a30.664303070779987,30.664303070779987 0 0,0 0.5222145700784642,0.07696085291380204 l -1.4912872093942509 9.5485504817739" fill="#ff740a" stroke="none" /><path d="M 103.2404852339499 79.25152402106235 l 0.2946104973045272 -1.8863591052426798 a22.90922654995524,22.90922654995524 0 0,0 0.38909771525318537,0.0642044569346493 l -0.32703741869658776 1.8810083853684059" fill="#ff0600" stroke="none" /><path d="M 103.59715602781102 79.31037775812273 l 1.0326878665094033 -5.939670586057814 a27.02877524050417,27.02877524050417 0 0,0 0.4576935402922094,0.08364056898491619 l -1.1347765279045134 5.9210145357221595" fill="#ff4106" stroke="none" /><path d="M 103.95276090670814 79.375362276772 l 1.4366833653784907 -7.496298064381597 a28.63272846119961,28.63272846119961 0 0,0 0.48325717882170516,0.09693684382413403 l -1.5655069536673212 7.470457264480255" fill="#ff5808" stroke="none" /><path d="M 104.307194497241 79.44645832069477 l 2.0472531899764728 -9.769306632246462 a30.981512796100777,30.981512796100777 0 0,0 0.5210165076511222,0.11387402840138304 l -2.215112421781123 9.732619105749208" fill="#ff780b" stroke="none" /><path d="M 104.66035177308747 79.52364482259891 l 1.7082040528456202 -7.50539757610834 a28.69733420487971,28.69733420487971 0 0,0 0.48071630574270696,0.1137700182483767 l -1.8371440455508508 7.474881645719095" fill="#ff5908" stroke="none" /><path d="M 105.01212808612495 79.60689891045804 l 2.7462256946392647 -11.173708501287479 a32.5062381879414,32.5062381879414 0 0,0 0.5422212523582509,0.1382242702859189 l -2.9381558356825406 11.124781234832692" fill="#ff8d0d" stroke="none" /><path d="M 105.36241919743992 79.69619591428918 l 3.853012455188086 -14.588715866766021 a36.08894746564734,36.08894746564734 0 0,0 0.5992520074745636,0.16379821051852436 l -4.10356235188636 14.520231115421202" fill="#ffbc11" stroke="none" /><path d="M 105.71112130821622 79.79150937346287 l 2.634413260009673 -9.321727345336065 a30.686833018345105,30.686833018345105 0 0,0 0.5070776783073087,0.14802987928338404 l -2.794481156040409 9.274999137133976" fill="#ff740a" stroke="none" /><path d="M 106.0581310904928 79.89281104454417 l 2.29031841277991 -7.6016620317437384 a28.939195430065507,28.939195430065507 0 0,0 0.4757254078305595,0.14781019992558111 l -2.420829193321188 7.561111696935637" fill="#ff5c08" stroke="none" /><path d="M 106.40334571778207 80.00007090966166 l 4.632514394879597 -14.468992225466593 a36.19249570147642,36.19249570147642 0 0,0 0.5916907371540153,0.19507113324827227 l -4.880887954276029 14.387107367959086" fill="#ffbd11" stroke="none" /><path d="M 106.74666289553966 80.11325718540242 l 2.5655304224075843 -7.56226366774244 a28.985598169752606,28.985598169752606 0 0,0 0.47110982277748586,0.16436096668320785 l -2.6953222492483437 7.516981847887025" fill="#ff5d08" stroke="none" /><path d="M 107.08798089147638 80.2323363322302 l 2.6033143691755347 -7.260381152158435 a28.713000724709758,28.713000724709758 0 0,0 0.46380749171077956,0.1708242134295175 l -2.7279041866588907 7.214493670922593" fill="#ff5908" stroke="none" /><path d="M 107.4271985657038 80.35727306442388 l 3.9636773952165183 -10.482745552875343 a32.207082261662855,32.207082261662855 0 0,0 0.5168728061152849,0.20053861867189368 l -4.143533366331471 10.412964230312904" fill="#ff890c" stroke="none" /><path d="M 107.76421540070413 80.48803036053334 l 5.85242644096956 -14.707521770075296 a36.82915322637943,36.82915322637943 0 0,0 0.5870148406795276,0.2394580925780485 l -6.104725151237474 14.604602791313669" fill="#ffc512" stroke="none" /><path d="M 108.09893153111575 80.62456947434976 l 6.004427894770259 -14.36465724823459 a36.56908899720063,36.56908899720063 0 0,0 0.5786905826943449,0.24776510688059133 l -6.25080223525492 14.259172613391208" fill="#ffc212" stroke="none" /><path d="M 108.43124777332544 80.76684994638697 l 6.513241640246454 -14.857842773714614 a37.22275588649055,37.22275588649055 0 0,0 0.5846062138719286,0.2622957673022244 l -6.768029972585163 14.743526675895858" fill="#ffca12" stroke="none" /><path d="M 108.76106565485865 80.91482961587045 l 6.540017926106064 -14.246823543181133 a36.676218151848005,36.676218151848005 0 0,0 0.5714884622101837,0.26832149583134324 l -6.784284599615845 14.132137064709786" fill="#ffc312" stroke="none" /><path d="M 109.08828744355905 81.06846463323043 l 3.1123829791222946 -6.483310393746843 a28.191678626746054,28.191678626746054 0 0,0 0.43566713074223745,0.2137799689736407 l -3.223521376874964 6.42877526463837" fill="#ff5107" stroke="none" /><path d="M 109.41281617654863 81.2277094730956 l 7.231053979913937 -14.421130040217728 a37.13248689127933,37.13248689127933 0 0,0 0.5689042012865303,0.2914148282580202 l -7.478218668789222 14.294522686647207" fill="#ffc912" stroke="none" /><path d="M 109.73455568895987 81.39251694778311 l 5.808254001161465 -11.102405835754269 a33.52993335512199,33.52993335512199 0 0,0 0.5091040638026786,0.2719457594931281 l -5.998503111492455 11.000781349759386" fill="#ff9a0e" stroke="none" /><path d="M 110.05341064243156 81.56283822128135 l 0.7532950750648918 -1.381483723291369 a22.573515410739915,22.573515410739915 0 0,0 0.3395442734863774,0.18895602057838418 l -0.7769634376233042 1.3683123051528048" fill="#ff0100" stroke="none" /><path d="M 110.36928655335952 81.73862282372117 l 2.25729022997728 -3.9753196204794943 a25.571490486408138,25.571490486408138 0 0,0 0.3808974180895351,0.22064036978462165 l -2.3253843805321432 3.9358750933048228" fill="#ff2c04" stroke="none" /><line stroke="#e1ed5e" stroke-width="0.3" x1="143.23703022742887" x2="145.7803849466894" y1="26.81831364943548" y2="22.513508569990506" /><path d="M 143.74570117128098 25.957352633546492 a86.0,86.0 0 0,1 28.547481713284135,27.462654790039103" fill="none" id="id62" stroke="none" /><text fill="#e1ed5e" style="font-size:6.75px; font-family:Arial;" text-anchor="middle"><textPath startOffset="19.985693538727396" xlink:href="#id62">February</textPath></text><path d="M 110.68208982089419 81.91981866633111 l 0.7730030325963602 -1.308361494347388 a22.5196524235147,22.5196524235147 0 0,0 0.33204469742447923,0.20005321492477116 l -0.7954097962384769 1.2948616699640023" fill="#ff0000" stroke="none" /><path d="M 113.34407831869373 83.78471172551755 l 4.879947246397659 -5.929952558338328 a28.679728020689755,28.679728020689755 0 0,0 0.37849383157126554,0.3169776990410543 l -4.981298614928042 5.845073701903455" fill="#ff5808" stroke="none" /><path d="M 113.6212207817346 84.01681056812373 l 5.196824872732334 -6.097972987601011 a29.012007446037543,29.012007446037543 0 0,0 0.37730281653424314,0.3271932844948023 l -5.301021487913341 6.007614709686537" fill="#ff5d08" stroke="none" /><path d="M 113.89432698308785 84.25364557470407 l 9.873199412839895 -11.189235538751525 a35.92243474059653,35.92243474059653 0 0,0 0.46013048781050275,0.4131096951082994 l -10.064340888246388 11.017626834873928" fill="#ffba11" stroke="none" /><path d="M 114.16331599549186 84.49514656593476 l 5.348501876858966 -5.855107498760655 a28.930243133019765,28.930243133019765 0 0,0 0.36478572864390024,0.339028578989609 l -5.448495489297713 5.762174333696406" fill="#ff5c08" stroke="none" /><path d="M 114.42810811169701 84.74124197986012 l 5.336142694259701 -5.643353203503908 a28.76671450698421,28.76671450698421 0 0,0 0.3568671978708152,0.34330596160621396 l -5.432493135742935 5.550664155135392" fill="#ff5a08" stroke="none" /><path d="M 114.68862486808459 84.99185889309783 l 5.516087614586639 -5.636077033843341 a28.88622767254487,28.88622767254487 0 0,0 0.35236273323438105,0.3508495756773647 l -5.612286147988343 5.540291607515857" fill="#ff5b08" stroke="none" /><path d="M 114.94478906791727 85.2469230424477 l 5.398858938500942 -5.329602247358693 a28.586325721512512,28.586325721512512 0 0,0 0.3426761787394145,0.35315792427747894 l -5.489799380943465 5.2358801275311" fill="#ff5708" stroke="none" /><path d="M 115.19652480421416 85.50635884689758 l 5.7602674200675335 -5.49383822998887 a28.960084123172237,28.960084123172237 0 0,0 0.34094662636821665,0.36369808919356195 l -5.853981368406213 5.393870723917253" fill="#ff5c08" stroke="none" /><path d="M 115.4437574822437 85.77008943001954 l 5.681928082826815 -5.235340465339892 a28.726130760376847,28.726130760376847 0 0,0 0.331932300452417,0.3665279366558784 l -5.771204023895267 5.136759741414465" fill="#ff5908" stroke="none" /><path d="M 115.68641384162765 86.03803664274999 l 7.928579101925097 -7.0569686617837 a31.61429099228397,31.61429099228397 0 0,0 0.35830754682767274,0.40960746574636864 l -8.048878512330617 6.919445639834383" fill="#ff810b" stroke="none" /><path d="M 115.9244219780498 86.31012108654704 l 7.602642595988924 -6.535826336730508 a31.0258266664772,31.0258266664772 0 0,0 0.3446664794798812,0.40797639830029947 l -7.714019688955923 6.403990988801102" fill="#ff790b" stroke="none" /><path d="M 116.15771136456269 86.58626213691792 l 6.298529507174144 -5.228885565898837 a29.186129623577223,29.186129623577223 0 0,0 0.3175749823543233,0.3893093778778067 l -6.387602981604876 5.1196920184129295" fill="#ff5f08" stroke="none" /><path d="M 116.60985879189232 87.15038557335679 l 5.990458287519689 -4.634300640237279 a28.573792505648473,28.573792505648473 0 0,0 0.2976083761918683,0.3916177378067647 l -6.069342603935671 4.53049812654948" fill="#ff5708" stroke="none" /><path d="M 116.82858285166822 87.43820079747576 l 6.292693837838701 -4.697220029199041 a28.85250735367257,28.85250735367257 0 0,0 0.29365997829549323,0.4005518803733314 l -6.372616428647821 4.588205705154216" fill="#ff5b08" stroke="none" /><path d="M 117.04232023915458 87.72973835380427 l 6.162290662690625 -4.436773732100332 a28.59333835419834,28.59333835419834 0 0,0 0.28414613677137174,0.40190455948599474 l -6.23774941926588 4.330042672282544" fill="#ff5708" stroke="none" /><path d="M 117.45458315368197 88.32363383020206 l 6.459061389973554 -4.320834547493968 a28.77104145055632,28.77104145055632 0 0,0 0.2718224489546182,0.4140042384241762 l -6.532480474286097 4.209012245092118" fill="#ff5a08" stroke="none" /><path d="M 117.65298651832404 88.62581576622439 l 6.595694385908701 -4.249742275457618 a28.846240745740552,28.846240745740552 0 0,0 0.26534750781535993,0.41971603402206364 l -6.667869489970017 4.135578593721348" fill="#ff5b08" stroke="none" /><line stroke="#e1ed5e" stroke-width="0.3" x1="172.23445277983987" x2="176.4835382374775" y1="55.19839476539836" y2="52.563006222186495" /><path d="M 173.08426987136738 54.67131705675599 a86.0,86.0 0 0,1 12.851231095245387,41.99856678651699" fill="none" id="id63" stroke="none" /><text fill="#e1ed5e" style="font-size:6.75px; font-family:Arial;" text-anchor="middle"><textPath startOffset="22.20632615414155" xlink:href="#id63">March</textPath></text><path d="M 117.84615892207809 88.93136811851018 l 8.112086377998589 -5.031317848337245 a30.545685134923904,30.545685134923904 0 0,0 0.27328817463693017,0.4492139028159 l -8.197490350921743 4.890936172314264" fill="#ff720a" stroke="none" /><path d="M 118.03404312379186 89.2402003453031 l 6.673874711507417 -3.981888826784013 a28.77148906540861,28.77148906540861 0 0,0 0.25009318952252885,0.427490329792489 l -6.741427575500273 3.866419084637629" fill="#ff5a08" stroke="none" /><path d="M 118.21658344932153 89.55222093294921 l 6.574335017039824 -3.770586288142079 a28.578865473974393,28.578865473974393 0 0,0 0.2410727447260035,0.4288415132478339 l -6.638265403058261 3.656861264959451" fill="#ff5708" stroke="none" /><path d="M 118.89224826269711 90.83032412892265 l 13.553677376817657 -6.578509168332765 a36.06582069827917,36.06582069827917 0 0,0 0.2662719038876465,0.5608365373891164 l -13.664907474547059 6.344230215303108" fill="#ffbc11" stroke="none" /><path d="M 119.04729006885535 91.15688171328212 l 13.776690840304342 -6.396128071759626 a36.18906398760888,36.18906398760888 0 0,0 0.2574553481435212,0.5672687326346257 l -13.88474850541121 6.158037330282937" fill="#ffbd11" stroke="none" /><path d="M 119.196687751892 91.48605970444005 l 13.759813047346801 -6.102627092615558 a36.052392252710554,36.052392252710554 0 0,0 0.24671731900525096,0.5694575880915917 l -13.862821076194734 5.864870359937363" fill="#ffbb11" stroke="none" /><path d="M 119.34039704204932 91.81776055985345 l 13.888517396138912 -5.875741566048425 a36.08029357850312,36.08029357850312 0 0,0 0.2370618116482202,0.5740639804803944 l -13.98760089467333 5.6358030151147265" fill="#ffbc11" stroke="none" /><path d="M 119.47837535516314 92.15188598940014 l 6.9809990197980305 -2.8127436306302713 a28.52634533130604,28.52634533130604 0 0,0 0.17958889767146188,0.45703415587640056 l -7.028381467351193 2.6921604698580865" fill="#ff5608" stroke="none" /><path d="M 119.7369772167798 92.82701384747503 l 14.59498042408316 -5.304236374621613 a36.528952865445554,36.528952865445554 0 0,0 0.209688225198721,0.592816849556865 l -14.68412173009169 5.052221898638134" fill="#ffc212" stroke="none" /><path d="M 119.85752413597 93.16781622104841 l 14.946262606881312 -5.142414141837174 a36.80617566396203,36.80617566396203 0 0,0 0.20096646226388115,0.6008641426748734 l -15.032566362916963 4.884376896239986" fill="#ffc512" stroke="none" /><path d="M 119.97218684219823 93.5106431181261 l 8.891033058024894 -2.888871760410177 a30.34858539496682,30.34858539496682 0 0,0 0.15715439224261668,0.49822236971944844 l -8.939442934035718 2.7353992242643095" fill="#ff6f0a" stroke="none" /><path d="M 120.08093135843002 93.85539295169968 l 15.296468907109253 -4.680599170579437 a36.99656118113481,36.99656118113481 0 0,0 0.18109658650317964,0.610567661753115 l -15.374771390724135 4.416602122079792" fill="#ffc812" stroke="none" /><path d="M 120.45610955862082 95.25157060432595 l 19.324487565644674 -4.485748599951843 a40.838290253364214,40.838290253364214 0 0,0 0.15305726991332116,0.6861257295067539 l -19.39883922256003 4.152444700895125" fill="#fff817" stroke="none" /><path d="M 120.53481517161879 95.60439243477599 l 14.680731048829996 -3.142503690534517 a36.01330055561082,36.01330055561082 0 0,0 0.12453863060825195,0.6072945918402628 l -14.732648975353245 2.889333442530843" fill="#ffbb11" stroke="none" /><path d="M 120.6074358757038 95.95851677861258 l 9.261237558764668 -1.8162927415515826 a30.43766075057195,30.43766075057195 0 0,0 0.0964066176524563,0.5150080064493104 l -9.291129900326984 1.6566066576397094" fill="#ff710a" stroke="none" /><path d="M 120.67395015179393 96.31383870115 l 15.74511098518568 -2.807350232227058 a36.9934278771688,36.9934278771688 0 0,0 0.10637924978514816,0.6278563540160012 l -15.79110209649105 2.535908089895219" fill="#ffc812" stroke="none" /><path d="M 120.73433829027371 96.67025291283417 l 15.177525021625758 -2.437373164440529 a36.37198925724354,36.37198925724354 0 0,0 0.09395076481402659,0.6190181545049759 l -15.217231679879086 2.175755897543471" fill="#ffc011" stroke="none" /><path d="M 120.78858239683441 97.02765380044208 l 8.9286360243889 -1.2766140974754223 a30.01943927358504,30.01943927358504 0 0,0 0.06873594030068059,0.5121625939632941 l -8.949287963747418 1.122733161447464" fill="#ff6b09" stroke="none" /><path d="M 120.87857604477298 97.74499172005257 l 15.595070701909393 -1.6843588127733171 a36.6857672686968,36.6857672686968 0 0,0 0.062405764447174515,0.6284175314967889 l -15.621753592038795 1.4156657505720933" fill="#ffc412" stroke="none" /><path d="M 120.91429891909075 98.10471618934814 l 10.42772744267826 -0.9449756398938131 a31.470457419749053,31.470457419749053 0 0,0 0.044246738083557245,0.539922277497195 l -10.442448664581311 0.7653394451888492" fill="#ff7f0b" stroke="none" /><path d="M 120.94382443527127 98.46500227214037 l 9.271644445230747 -0.6795298156235358 a30.296512867150753,30.296512867150753 0 0,0 0.03364270355662269,0.520437733407901 l -9.281967739791785 0.5198330179625995" fill="#ff6f0a" stroke="none" /><path d="M 120.96714384426684 98.82574320788733 l 14.930073488527333 -0.8361529987518207 a35.95346937035511,35.95346937035511 0 0,0 0.029287339638775205,0.6182094508574 l -14.942254436399605 0.579032441271421" fill="#ffba11" stroke="none" /><path d="M 120.98425023603335 99.18683210126433 l 14.957461927369685 -0.579621751984841 a35.968688275332866,35.968688275332866 0 0,0 0.018649431808165775,0.6188838491353423 l -14.965223053633496 0.3220677554244996" fill="#ffba11" stroke="none" /><line stroke="#e1ed5e" stroke-width="0.3" x1="184.98032266829074" x2="189.97916517819016" y1="98.17113171792111" y2="98.06355123074" /><path d="M 185.9800911702706 98.14961562048488 a86.0,86.0 0 0,1 -9.607161424134198,41.387399972396054" fill="none" id="id64" stroke="none" /><text fill="#e1ed5e" style="font-size:6.75px; font-family:Arial;" text-anchor="middle"><textPath startOffset="21.466115282336823" xlink:href="#id64">April</textPath></text><path d="M 120.99513854157772 99.54816195383933 l 10.465945143845179 -0.22523843772951685 a31.468368550438377,31.468368550438377 0 0,0 0.0069934596210476044,0.5416511547130433 l -10.468271610583942 0.04505102495601087" fill="#ff7f0b" stroke="none" /><path d="M 120.99824983174949 100.27111621757518 l 14.95580374848115 0.19309994764202493 a35.9570502891734,35.9570502891734 0 0,0 -0.013317699199105965,0.6188211508882983 l -14.950263986597037 -0.45051091432043805" fill="#ffba11" stroke="none" /><path d="M 120.9904718944345 100.63252640178507 l 14.958019123783961 0.4507446074477229 a35.96480894661305,35.96480894661305 0 0,0 -0.023972886555549914,0.6186336808719459 l -14.948044104377207 -0.708155535333675" fill="#ffba11" stroke="none" /><path d="M 120.9764740272857 100.99374915477107 l 6.412500330368143 0.3037887480509556 a27.41969221150157,27.41969221150157 0 0,0 -0.02639295414929707,0.4712639261194391 l -6.406321025331317 -0.4141243905058181" fill="#ff4706" stroke="none" /><path d="M 120.95626037817324 101.35467743843564 l 14.97056541374837 0.9677436164971758 a36.001811774402114,36.001811774402114 0 0,0 -0.045299607685641494,0.6180771561647067 l -14.95168924739839 -1.2252939091586528" fill="#ffbb11" stroke="none" /><path d="M 120.92983693683757 101.71520430193887 l 14.891611844683696 1.2203705540509886 a35.94153297429412,35.94153297429412 0 0,0 -0.05583842970034071,0.6161724188019587 l -14.86839881870628 -1.476524361401518" fill="#ffba11" stroke="none" /><path d="M 120.89721153311464 102.0752229133903 l 10.83345203070574 1.0758290812919957 a31.88673923237605,31.88673923237605 0 0,0 -0.05894142045890256,0.545724350629356 l -10.813328308745785 -1.262149753806143" fill="#ff840c" stroke="none" /><path d="M 120.8583938346157 102.4346265915055 l 9.896125692384139 1.1550923313939425 a30.96330979210777,30.96330979210777 0 0,0 -0.06634772425557801,0.5288566424251576 l -9.874776458881712 -1.3252667281064952" fill="#ff780b" stroke="none" /><path d="M 120.81339534386255 102.79330883721812 l 14.81985440282871 1.9889321077021767 a35.9527233456013,35.9527233456013 0 0,0 -0.08759786707215629,0.6126592782790035 l -14.783422484739953 -2.2437368579615895" fill="#ffba11" stroke="none" /><path d="M 120.64145759157962 103.86396538481128 l 14.714881044229617 2.754543410718883 a35.97047873474202,35.97047873474202 0 0,0 -0.11916517221302146,0.6076206458068631 l -14.665285939040931 -3.0074277835936907" fill="#ffba11" stroke="none" /><path d="M 120.5718875245553 104.21870165774334 l 14.641607498595173 3.0025720174010133 a35.94630753271851,35.94630753271851 0 0,0 -0.12951961494142564,0.6050725217063075 l -14.587753844929304 -3.25415835852349" fill="#ffba11" stroke="none" /><path d="M 120.32669344350535 105.2749913415812 l 14.46290756544697 3.7532770587534157 a35.941980589146404,35.941980589146404 0 0,0 -0.16056125424544415,0.5975081572999743 l -14.39615823485975 -4.001676149228938" fill="#ffba11" stroke="none" /><path d="M 120.23288151984713 105.62410040840565 l 14.4059335460114 4.004393376203572 a35.95212652579825,35.95212652579825 0 0,0 -0.17087080699415444,0.5948236952905727 l -14.334870102131147 -4.2517745469987265" fill="#ffba11" stroke="none" /><path d="M 120.13307415673323 105.97154293290107 l 14.335728374799212 4.2520291137899475 a35.95302175550282,35.95302175550282 0 0,0 -0.18108891186841714,0.5918090417203054 l -14.260412690424662 -4.498165128062309" fill="#ffba11" stroke="none" /><path d="M 120.02730092923936 106.31721596034902 l 14.253440288043548 4.495965821637566 a35.945710712915464,35.945710712915464 0 0,0 -0.1912102109219506,0.5884845182942994 l -14.17393782610535 -4.7406492399096605" fill="#ffba11" stroke="none" /><path d="M 119.79798401119884 107.00284435728193 l 14.090375985120627 4.983977656693123 a35.94585991786623,35.94585991786623 0 0,0 -0.2113543627219587,0.581556433124003 l -14.002497361393441 -5.225781886823258" fill="#ffba11" stroke="none" /><path d="M 119.67450827220406 107.3425965602758 l 14.00864800413978 5.228077328602433 a35.95242493569977,35.95242493569977 0 0,0 -0.22137400984147762,0.5779376844520316 l -13.916579714704795 -5.468438579887609" fill="#ffba11" stroke="none" /><path d="M 119.54520255179757 107.68017299344265 l 13.901026429454769 5.462327007443169 a35.93571398121439,35.93571398121439 0 0,0 -0.23118195303124456,0.5737746483295728 l -13.804941862166132 -5.700801023615555" fill="#ffba11" stroke="none" /><path d="M 119.41010516605496 108.01547362559984 l 13.823973269900028 5.708660112757219 a35.95630426441959,35.95630426441959 0 0,0 -0.24116238931401418,0.5700366501201735 l -13.723659899393706 -5.945771288543555" fill="#ffba11" stroke="none" /><path d="M 119.26925614724726 108.34839909993367 l 13.710790545537527 5.940195645076644 a35.94227899904793,35.94227899904793 0 0,0 -0.2508410201136388,0.5655802802609202 l -13.606508440692616 -6.175324261830252" fill="#ffba11" stroke="none" /><path d="M 118.64920377521936 109.65438752849418 l 27.996463598724638 14.493310935270173 a52.52551404658036,52.52551404658036 0 0,0 -0.42257399296989995,0.7993507435318773 l -27.742837097529844 -14.973076693888185" fill="#7fff26" stroke="none" /><line stroke="#e1ed5e" stroke-width="0.3" x1="174.80103733775053" x2="179.2010983576182" y1="140.37084112569926" y2="142.7455964860345" /><path d="M 175.68104954172406 140.8457921977663 a86.0,86.0 0 0,1 -30.038265399797805,32.042727171017184" fill="none" id="id65" stroke="none" /><text fill="#e1ed5e" style="font-size:6.75px; font-family:Arial;" text-anchor="middle"><textPath startOffset="22.206326154141568" xlink:href="#id65">May</textPath></text><path d="M 117.94076556474637 110.91462005526583 l 12.771256324851176 7.769646725002049 a35.94899322183224,35.94899322183224 0 0,0 -0.3261692560521793,0.5258886953081799 l -12.635622429131033 -7.988331751675503" fill="#ffba11" stroke="none" /><path d="M 117.75023020441432 111.22182372390056 l 12.647477271465553 7.995826468612725 a35.9630184872039,35.9630184872039 0 0,0 -0.33530400562265483,0.520399262851749 l -12.507968402465847 -8.212347331385926" fill="#ffba11" stroke="none" /><path d="M 116.93607887273984 112.41649034213515 l 12.0464367870409 8.831705800814882 a35.93705682577125,35.93705682577125 0 0,0 -0.37004684031958435,0.4957382147984662 l -11.892628680026224 -9.037756895122662" fill="#ffba11" stroke="none" /><path d="M 116.71984013943494 112.70617746262583 l 11.891915913476286 9.037215230956175 a35.93616159606667,35.93616159606667 0 0,0 -0.37851590287618114,0.4892828289246513 l -11.734593193382036 -9.24057605399408" fill="#ffba11" stroke="none" /><path d="M 116.27256486870786 113.27417163493432 l 11.579689703368507 9.446008655794708 a35.943771048555554,35.943771048555554 0 0,0 -0.39521716733438683,0.47606453781122354 l -11.415376536140577 -9.643934450719703" fill="#ffba11" stroke="none" /><path d="M 116.0416608686014 113.55231037782055 l 11.421531238134978 9.649134063926486 a35.95182811589672,35.95182811589672 0 0,0 -0.40344369476833036,0.469296162551226 l -11.25374503379587 -9.844307325639239" fill="#ffba11" stroke="none" /><path d="M 115.56566222782051 114.09645910891815 l 11.07709440224591 10.031555741187976 a35.944367868358604,35.944367868358604 0 0,0 -0.4192715248417902,0.45503643308392167 l -10.902776469408398 -10.22074342907323" fill="#ffba11" stroke="none" /><path d="M 115.32070863581623 114.36230785411682 l 10.913335268505168 10.230641712945237 a35.95884074858255,35.95884074858255 0 0,0 -0.4272140565132609,0.4479322302748642 l -10.735614660612944 -10.416981059802609" fill="#ffba11" stroke="none" /><path d="M 114.29624159901734 115.38237550388516 l 10.171087322382178 10.943819282296023 a35.94048853963878,35.94048853963878 0 0,0 -0.45678726588621915,0.4172643370655215 l -9.981200507029094 -11.117276385948127" fill="#ffba11" stroke="none" /><path d="M 114.0293411484842 115.62618273729858 l 9.98389182480018 11.120274033724314 a35.94451707330936,35.94451707330936 0 0,0 -0.46395410589524866,0.4093855554336408 l -9.790995365998343 -11.290482730930243" fill="#ffba11" stroke="none" /><path d="M 113.20401910651253 116.32954008644616 l 11.271064637678002 13.939036314110627 a38.9257811944922,38.9257811944922 0 0,0 -0.5246500336773742,0.41681371721420635 l -11.029457111283277 -14.130983945329959" fill="#ffe015" stroke="none" /><path d="M 112.92097659922987 116.55440617244103 l 11.028539076198856 14.129807755159554 a38.924289144984584,38.924289144984584 0 0,0 -0.5317266818813632,0.4077053456777386 l -10.783683665823999 -14.317552442664665" fill="#ffe015" stroke="none" /><path d="M 112.34349029814194 116.9893568818739 l 10.552383606946783 14.52411001447794 a38.95278729058019,38.95278729058019 0 0,0 -0.5458448001777638,0.389445771848518 l -10.300811478920135 -14.703600048170676" fill="#ffe015" stroke="none" /><line stroke="#e1ed5e" stroke-width="0.3" x1="143.8653032363475" x2="146.44561519142675" y1="172.8068346515853" y2="177.08958963109032" /><path d="M 144.38136562736335 173.6633856474863 a86.0,86.0 0 0,1 -40.68145358897372,12.25698825130547" fill="none" id="id66" stroke="none" /><text fill="#e1ed5e" style="font-size:6.75px; font-family:Arial;" text-anchor="middle"><textPath startOffset="21.466115282336833" xlink:href="#id66">June</textPath></text><path d="M 110.8373102113329 117.98757091392108 l 7.71161022185649 12.799590767560169 a35.943174228752504,35.943174228752504 0 0,0 -0.5326986017720206,0.31472772349892947 l -7.490143749056087 -12.930437063352848" fill="#ffba11" stroke="none" /><path d="M 109.2508944713604 118.85261126421891 l 6.583997769674748 13.41768094971134 a35.94600912281699,35.94600912281699 0 0,0 -0.557826143289244,0.267790447817739 l -6.352058958385271 -13.529025674028638" fill="#ffba11" stroke="none" /><path d="M 108.59647513512805 119.15986991738527 l 3.466539317418097 7.726241435146425 a29.46827618546886,29.46827618546886 0 0,0 -0.4645874761182862,0.20366149656287666 l -3.333031166642057 -7.784767485003756" fill="#ff6309" stroke="none" /><path d="M 108.2653958097858 119.30500536409082 l 3.584376811036095 8.371820921394905 a30.106873374731787,30.106873374731787 0 0,0 -0.47816673979852575,0.1998737360162546 l -3.439738611740108 -8.432279700431133" fill="#ff6c0a" stroke="none" /><path d="M 106.91757812671514 119.82793768551818 l 3.473288129387018 9.955527690735074 a31.544015460474895,31.544015460474895 0 0,0 -0.5142129160388863,0.17444893984852297 l -3.301405480410905 -10.01383961748172" fill="#ff800b" stroke="none" /><path d="M 106.57524785965236 119.94407469862006 l 2.818350453136202 8.548634692412936 a30.00123626959203,30.00123626959203 0 0,0 -0.49184691754781135,0.15747385098508065 l -2.6707821904974502 -8.595881390057723" fill="#ff6b09" stroke="none" /><path d="M 105.88484417918355 120.15858648285463 l 2.5136002267913655 8.610360106786493 a29.96975402498117,29.96975402498117 0 0,0 -0.496454444041071,0.1403029848354131 l -2.365014614645689 -8.652351884960424" fill="#ff6a09" stroke="none" /><path d="M 105.18746579009965 120.34920634021253 l 3.7034582689440088 14.527794406073602 a35.992411862504085,35.992411862504085 0 0,0 -0.6016675218334068,0.14787523836857305 l -3.452837462367391 -14.589390902756204" fill="#ffbb11" stroke="none" /><path d="M 103.41894727170886 120.7198165907248 l 0.7648214148164317 4.635040607612084 a25.697717874753103,25.697717874753103 0 0,0 -0.43706205771276974,0.06826010477953638 l -0.6849234934951448 -4.647519019738727" fill="#ff2e04" stroke="none" /><path d="M 102.34483914955558 120.86867818915974 l 1.6866328408815068 15.010751584515033 a36.10521080528043,36.10521080528043 0 0,0 -0.6182027094410486,0.06407923851194178 l -1.4279975348348555 -15.037560191482733" fill="#ffbc11" stroke="none" /><line stroke="#e1ed5e" stroke-width="0.3" x1="102.19456741930631" x2="102.32365962044197" y1="184.97166512339345" y2="189.96999836594603" /><path d="M 102.22038585953345 185.97133177190398 a86.0,86.0 0 0,1 -42.740103519485714,-10.115201625700543" fill="none" id="id67" stroke="none" /><text fill="#e1ed5e" style="font-size:6.75px; font-family:Arial;" text-anchor="middle"><textPath startOffset="22.20632615414155" xlink:href="#id67">July</textPath></text><path d="M 99.81925306533755 120.99922214144158 l -0.068877133941183 8.002161911060186 a29.002458329188748,29.002458329188748 0 0,0 -0.4991741682084265,-0.008593735995885816 l 0.20661099204227742 -7.999790697785142" fill="#ff5d08" stroke="none" /><path d="M 97.2962882734958 120.8252237178851 l -0.4878729535335072 3.7578205189712497 a24.789358134511815,24.789358134511815 0 0,0 -0.4226838281332779,-0.05858012707545609 l 0.5524853728536161 -3.748865826403189" fill="#ff2103" stroke="none" /><path d="M 95.86986931433489 120.58985236759428 l -1.6701461354115157 8.326143886871584 a29.491999772640074,29.491999772640074 0 0,0 -0.49688196852774486,-0.10412644759787947 l 1.8132195653686474 -8.296161458547164" fill="#ff6409" stroke="none" /><path d="M 94.81253420990036 120.34920634021253 l -0.5240318630983238 2.055653558503558 a23.121395989939323,23.121395989939323 0 0,0 -0.3848166130487572,-0.10163356504994653 l 0.5593389189585702 -2.0463286441500297" fill="#ff0901" stroke="none" /><path d="M 94.46302465271185 120.25689768951611 l -2.036012548303689 7.4487053488071915 a28.721953021755503,28.721953021755503 0 0,0 -0.47578439273486867,-0.13446142186871837 l 2.1639281091431717 -7.412555133599952" fill="#ff5908" stroke="none" /><path d="M 94.11515582081647 120.15858648285463 l -2.171663292900784 7.439052074893688 a28.74955593764654,28.74955593764654 0 0,0 -0.47385432303569003,-0.14276842044436977 l 2.29939259037672 -7.400568285343592" fill="#ff5908" stroke="none" /><path d="M 92.40401165467489 119.57807347666478 l -2.791301473720142 7.194364033173964 a28.716880053429584,28.716880053429584 0 0,0 -0.45930451294195035,-0.18276674466444512 l 2.91472706270395 -7.145250444103453" fill="#ff5908" stroke="none" /><path d="M 91.7346041902142 119.30500536409082 l -3.0439249499710623 7.1095188711360855 a28.73374021286573,28.73374021286573 0 0,0 -0.4530070154397742,-0.19858496291978237 l 3.1658526400685796 -7.056069354921851" fill="#ff5908" stroke="none" /><path d="M 90.10565033884886 118.52300852407294 l -4.090225983933871 7.657227949328118 a29.681191650206756,29.681191650206756 0 0,0 -0.448577768872886,-0.24460036580848865 l 4.221426564675397 -7.585686931759864" fill="#ff6609" stroke="none" /><line stroke="#e1ed5e" stroke-width="0.3" x1="58.666819895761336" x2="56.23545636021788" y1="174.27360380694188" y2="178.64263932499728" /><path d="M 58.180547188652646 175.14741091055294 a86.0,86.0 0 0,1 -31.652253787137756,-30.449443065178592" fill="none" id="id68" stroke="none" /><text fill="#e1ed5e" style="font-size:6.75px; font-family:Arial;" text-anchor="middle"><textPath startOffset="22.20632615414155" xlink:href="#id68">August</textPath></text><path d="M 89.7882731507175 118.34994917583269 l -3.6816951617807305 6.615817294832208 a28.57125602148551,28.57125602148551 0 0,0 -0.4276861695697073,-0.24285136900505663 l 3.795030098271645 -6.551462760032519" fill="#ff5708" stroke="none" /><path d="M 89.4739219176387 118.17145234162733 l -3.7686300189580355 6.5058875914551235 a28.5185866738664,28.5185866738664 0 0,0 -0.4226619259890024,-0.24971611589309536 l 3.88005981597542 -6.4400529032682785" fill="#ff5608" stroke="none" /><path d="M 89.1626897886671 117.98757091392108 l -3.8805218103572696 6.44081971316329 a28.51948190357097,28.51948190357097 0 0,0 -0.4183139825454273,-0.256962614106428 l 3.9908149928350056 -6.373068632228483" fill="#ff5608" stroke="none" /><path d="M 88.8546689885994 117.79835938074946 l -4.07990098737713 6.515333096606464 a28.687337473178633,28.687337473178633 0 0,0 -0.41626446566184555,-0.26567967685692534 l 4.191447255085898 -6.444138990925735" fill="#ff5808" stroke="none" /><path d="M 87.36589467227662 116.77436683061367 l -4.496612608398439 5.970175760916334 a28.47412359853921,28.47412359853921 0 0,0 -0.3889718115117409,-0.2982469984582663 l 4.598713148403666 -5.8918894206307" fill="#ff5507" stroke="none" /><path d="M 87.07902340077011 116.55440617244103 l -4.680418270917376 5.996570345797117 a28.606916004717718,28.606916004717718 0 0,0 -0.3855701538856781,-0.30632024925546947 l 4.782945917520412 -5.915116182536517" fill="#ff5708" stroke="none" /><path d="M 86.51685102203217 116.09983520530335 l -10.78720892611577 12.88069176714065 a37.80107427564549,37.80107427564549 0 0,0 -0.4952562169383337,-0.42206809242902277 l 11.00733061963116 -12.693099284488675" fill="#ffd213" stroke="none" /><path d="M 85.70375840098266 115.38237550388516 l -5.063806661900241 5.448521208383804 a28.438314410356245,28.438314410356245 0 0,0 -0.35570124409180137,-0.3363377280410267 l 5.156843740382859 -5.360548843596847" fill="#ff5507" stroke="none" /><path d="M 85.18274418774928 114.88116024355367 l -5.322151608802546 5.345105189153594 a28.542907080840664,28.542907080840664 0 0,0 -0.3451780400642042,-0.3496635321891837 l 5.4133702739222835 -5.252701162983746" fill="#ff5608" stroke="none" /><path d="M 83.50135304334701 112.99209946851258 l -6.2176170777701065 4.896152984165632 a28.91397979338667,28.91397979338667 0 0,0 -0.304551200828174,-0.3936734809854284 l 6.30097509581635 -4.788401509066952" fill="#ff5c08" stroke="none" /><path d="M 83.28015986056508 112.70617746262583 l -6.134306517557449 4.661742371471112 a28.70464524746707,28.70464524746707 0 0,0 -0.2955741013466298,-0.39596981078312204 l 6.213641885599164 -4.555459681178682" fill="#ff5908" stroke="none" /><path d="M 82.6465618267979 111.8261652097733 l -13.40192026141097 9.133251956053657 a37.218130533016925,37.218130533016925 0 0,0 -0.35622517426449907,-0.5325083022590867 l 13.5571485410862 -8.90120673958875" fill="#ffca12" stroke="none" /><path d="M 82.44556493220864 111.52570212397912 l -7.640855165496958 5.016750483276319 a30.14059369360408,30.14059369360408 0 0,0 -0.28101817429219844,-0.43614644709667116 l 7.726078203166201 -4.884482436258199" fill="#ff6d0a" stroke="none" /><path d="M 82.24976979558568 111.22182372390057 l -3.279251174279775 2.0731662744863977 a24.879627129723048,24.879627129723048 0 0,0 -0.22573565333755624,-0.36395774897691535 l 3.314451467285287 -2.016412194144218" fill="#ff2203" stroke="none" /><line stroke="#e1ed5e" stroke-width="0.3" x1="26.63291911575756" x2="22.317208475507996" y1="142.92168965132927" y2="145.44649492493687" /><path d="M 25.769776987707644 143.4266507060508 a86.0,86.0 0 0,1 -11.730757126820373,-40.83630448921669" fill="none" id="id69" stroke="none" /><text fill="#e1ed5e" style="font-size:6.75px; font-family:Arial;" text-anchor="middle"><textPath startOffset="21.46611528233685" xlink:href="#id69">September</textPath></text><path d="M 81.87401531095188 110.60418214915194 l -13.496032324107249 7.895537125889031 a36.63593281514217,36.63593281514217 0 0,0 -0.3137571136142352,-0.5470619742522377 l 13.629941433873862 -7.662055305778486" fill="#ffc312" stroke="none" /><path d="M 81.51974371655577 109.97397251340807 l -6.016790984699732 3.2473201117929547 a27.837167663734668,27.837167663734668 0 0,0 -0.22395331690053716,-0.4236352765647438 l 6.071796809825155 -3.1432698201420846" fill="#ff4d07" stroke="none" /><path d="M 80.73074385275274 108.34839909993369 l -6.884693588994523 2.9827913087289546 a28.503069358987112,28.503069358987112 0 0,0 -0.19117282629623644,-0.4518760898243409 l 6.935017396483065 -2.863840693238455" fill="#ff5607" stroke="none" /><path d="M 79.76711848015287 105.62410040840567 l -18.817761476070565 5.230741844607444 a40.531226464695266,40.531226464695266 0 0,0 -0.18106249156572501,-0.6738008880162222 l 18.905012043978065 -4.906050023415682" fill="#fff417" stroke="none" /><path d="M 79.58551787078972 104.9243191809786 l -9.669269724622188 2.332391782933494 a30.946598837622382,30.946598837622382 0 0,0 -0.12045511787435205,-0.5189174951993819 l 9.707985408427094 -2.1656056303855378" fill="#ff780b" stroke="none" /><path d="M 79.50377843672027 104.57218783832718 l -17.687977374270545 3.945739695756153 a39.122731729498526,39.122731729498526 0 0,0 -0.1409647192399204,-0.6585402387174522 l 17.75327613223491 -3.640685637622537" fill="#ffe315" stroke="none" /><path d="M 79.35854240842038 103.8639653848113 l -14.730720055071062 2.757508384938832 a35.98659286942435,35.98659286942435 0 0,0 -0.10873701645981707,-0.6098549346298078 l 14.776003513870068 -2.5035346995758108" fill="#ffbb11" stroke="none" /><path d="M 79.29508885075956 103.50808413554451 l -11.765872555009732 1.993520790963761 a32.93356116692482,32.93356116692482 0 0,0 -0.0898901880344406,-0.5597462866973557 l 11.798444497405464 -1.7906952745731914" fill="#ff920d" stroke="none" /><path d="M 79.23777060512086 103.15116336523772 l -22.13338681480867 3.359269197587378 a43.38686001733619,43.38686001733619 0 0,0 -0.10571094600938018,-0.7393421101788701 l 22.187931811834652 -2.9777816154281074" fill="#e7ff1a" stroke="none" /><path d="M 79.1416061653843 102.43462659150553 l -11.87250541314661 1.385778675761238 a32.953107015474686,32.953107015474686 0 0,0 -0.06091256060620325,-0.5639746603183806 l 11.894600275253866 -1.1812076935580753" fill="#ff930d" stroke="none" /><path d="M 79.10278846688536 102.07522291339032 l -23.768711050333163 2.3603806524732627 a44.88562374774416,44.88562374774416 0 0,0 -0.06973388552978324,-0.7695076159902074 l 23.80581953214002 -1.950891647934489" fill="#d5ff1c" stroke="none" /><path d="M 79.04373962182676 101.35467743843564 l -28.277089462296566 1.827918456247896 a49.33610901908403,49.33610901908403 0 0,0 -0.04748870458505955,-0.8479427214736064 l 28.304364517769155 -1.340904018438852" fill="#a2ff22" stroke="none" /><line stroke="#e1ed5e" stroke-width="0.3" x1="15.007084014347285" x2="10.007500721073583" y1="101.09737516637583" y2="101.16192664675087" /><path d="M 14.007167355692545 101.11028546245083 a86.0,86.0 0 0,1 10.666146001902534,-42.60595125391555" fill="none" id="id70" stroke="none" /><text fill="#e1ed5e" style="font-size:6.75px; font-family:Arial;" text-anchor="middle"><textPath startOffset="22.20632615414155" xlink:href="#id70">October</textPath></text><path d="M 79.00019446554 99.90962569577889 l -15.730979899355717 -0.06769950134956139 a36.731125573728555,36.731125573728555 0 0,0 0.008163042933851783,-0.6322366712157437 l 15.727483849304148 0.338472430625777" fill="#ffc412" stroke="none" /><path d="M 79.00486145842228 99.54816195383935 l -9.115803761924415 -0.19618193768119316 a30.1179145410882,30.1179145410882 0 0,0 0.015615859803911373,-0.5182143629046675 l 9.111076207664858 0.353066448010855" fill="#ff6c0a" stroke="none" /><path d="M 79.01574976396665 99.18683210126434 l -22.24945384752483 -0.8621962390698074 a43.26615321216944,43.26615321216944 0 0,0 0.03524417938461117,-0.7439489230505526 l 22.23131605990672 1.245056268743369" fill="#e9ff1a" stroke="none" /><path d="M 79.05617556472873 98.46500227214037 l -25.49996113939881 -1.8689223895310567 a46.56835718244213,46.56835718244213 0 0,0 0.0654740373090302,-0.7989490948252901 l 25.46401261827028 2.3075854015641255" fill="#c2ff1e" stroke="none" /><path d="M 79.16333360222342 97.38593545837743 l -24.477820036624678 -3.0708655690137983 a45.669695764000394,45.669695764000394 0 0,0 0.10457055686403027,-0.7791721102727934 l 24.421333480702813 3.491756021351251" fill="#ccff1d" stroke="none" /><path d="M 79.21141760316559 97.0276538004421 l -24.011162724048923 -3.4331099113646637 a45.255353615733306,45.255353615733306 0 0,0 0.11689696304637605,-0.7702049310129919 l 23.948509867563242 3.8459139547697476" fill="#d1ff1c" stroke="none" /><path d="M 79.26566170972629 96.67025291283419 l -20.13284124425331 -3.2331521050213947 a41.39079618603726,41.39079618603726 0 0,0 0.11902443485098298,-0.7024889520774621 l 20.074204947882105 3.5792268454146847" fill="#ffff18" stroke="none" /><path d="M 79.54389044137918 95.25157060432595 l -44.34894319198018 -10.29461760147491 a66.5281002657269,66.5281002657269 0 0,0 0.2685428934996864,-1.1132836639533734 l 44.16516749821968 11.05648649708768" fill="#37ff79" stroke="none" /><path d="M 79.81627453868168 94.20196356495316 l -18.39933303869043 -5.285446611099536 a40.14344279766387,40.14344279766387 0 0,0 0.19650043758254127,-0.662501789928171 l 18.305626703996182 5.601377787774246" fill="#ffef16" stroke="none" /><path d="M 79.91906864156998 93.8553929516997 l -25.222937285119357 -7.718020417211272 a47.37734642547567,47.37734642547567 0 0,0 0.2453346008278366,-0.777777728349564 l 25.086347200523317 8.15104831198725" fill="#b8ff1f" stroke="none" /><path d="M 80.14247586403 93.16781622104843 l -26.39947686739154 -9.083009361649665 a48.9183351569494,48.9183351569494 0 0,0 0.2808073616706396,-0.7938802253689007 l 26.239216424911096 9.536087213445178" fill="#a7ff21" stroke="none" /><path d="M 80.52162464483688 92.15188598940014 l -26.04073309599502 -10.492181125506308 a49.075000355249884,49.075000355249884 0 0,0 0.3224421792893585,-0.7808193130334176 l 25.85626922981946 10.938875008993037" fill="#a5ff21" stroke="none" /><path d="M 80.65960295795068 91.81776055985345 l -22.750312439989255 -9.624854304563549 a45.70252085316811,45.70252085316811 0 0,0 0.3127560395337557,-0.7218840600735545 l 22.581265690612817 10.015037509223703" fill="#ccff1d" stroke="none" /><path d="M 81.10775173730289 90.83032412892265 l -20.15709170676937 -9.78358927347003 a43.40595825103377,43.40595825103377 0 0,0 0.3320348843424177,-0.6693620657910321 l 19.98569680947354 10.129110927760024" fill="#e7ff1a" stroke="none" /><line stroke="#e1ed5e" stroke-width="0.3" x1="26.266209847984243" x2="21.928928074336255" y1="57.711370442889674" y2="55.22380399835377" /><path d="M 25.398753493254645 57.213857153982495 a86.0,86.0 0 0,1 29.58750427330803,-30.492523968695096" fill="none" id="id71" stroke="none" /><text fill="#e1ed5e" style="font-size:6.75px; font-family:Arial;" text-anchor="middle"><textPath startOffset="21.46611528233685" xlink:href="#id71">November</textPath></text><path d="M 81.78341655067845 89.55222093294921 l -15.130483554719756 -8.67780447399124 a38.44235715402214,38.44235715402214 0 0,0 0.3341562090011063,-0.5711812795095028 l 14.978867671248326 8.936965165854634" fill="#ffda14" stroke="none" /><path d="M 81.96595687620814 89.24020034530311 l -14.733879604428022 -8.790795918133345 a38.157077288164494,38.157077288164494 0 0,0 0.34138628600085275,-0.5611492927054098 l 14.580377520140953 9.043112984045829" fill="#ffd614" stroke="none" /><path d="M 82.15384107792192 88.93136811851018 l -12.698077282846473 -7.875663534109659 a35.94212979409717,35.94212979409717 0 0,0 0.33062036230311204,-0.5229620145117795 l 12.560629324297398 8.093073196335654" fill="#ffba11" stroke="none" /><path d="M 82.34701348167596 88.62581576622439 l -15.09407734188672 -9.725426139495907 a38.9559205945462,38.9559205945462 0 0,0 0.36804693898512636,-0.5605607383234402 l 14.924433767543674 9.983804941797015" fill="#ffe015" stroke="none" /><path d="M 83.39014120810768 87.1503855733568 l -24.921868968304818 -19.27989942878722 a52.508952297045745,52.508952297045745 0 0,0 0.5592101387390529,-0.7101400875198847 l 24.586304748971795 19.706031910260155" fill="#7fff26" stroke="none" /><path d="M 83.6137871275137 86.86637796730984 l -11.676512637092834 -9.358776480501003 a35.96421212681,35.96421212681 0 0,0 0.3913274620124083,-0.4797211973472601 l 11.513686683004034 9.558381847456346" fill="#ffba11" stroke="none" /><path d="M 84.5562425177563 85.77008943001954 l -13.175243690108184 -12.13969719891645 a38.915336847938846,38.915336847938846 0 0,0 0.45814966406370083,-0.4887221180616197 l 12.964326704074027 12.36468873385612" fill="#ffe015" stroke="none" /><path d="M 84.80347519578584 85.50635884689758 l -10.892897829584882 -10.38906949407474 a36.052839867562845,36.052839867562845 0 0,0 0.43218038998354763,-0.4453998816068448 l 10.712453175898217 10.575033571231709" fill="#ffbb11" stroke="none" /><path d="M 85.83668400450813 84.49514656593479 l -4.603434936195496 -5.039468440984097 a27.825529677575208,27.825529677575208 0 0,0 0.35641722607571164,-0.31999490469782205 l 4.516006722523814 5.117962354451198" fill="#ff4c07" stroke="none" /><path d="M 86.10567301691215 84.25364557470407 l -22.728902106860435 -25.75852351165423 a55.35264945362567,55.35264945362567 0 0,0 0.7198643727198313,-0.6242592903613119 l 22.282143935493828 26.14594779543522" fill="#61ff29" stroke="none" /><path d="M 87.22198572758235 83.33499621200491 l -4.551372056789122 -5.935870077300739 a28.479942591618943,28.479942591618943 0 0,0 0.3916044268604866,-0.29494833550013166 l 4.448521476170246 6.013335002306724" fill="#ff5607" stroke="none" /><path d="M 88.09926311788651 82.69761687909137 l -35.70221064634046 -51.907149362725875 a84.0,84.0 0 0,0 1.198381222373842,-0.8091523508053382 l 34.80342472956008 52.51401362582988" fill="#4dd2ff" stroke="none" /><line stroke="#e1ed5e" stroke-width="0.3" x1="56.762969772571076" x2="54.21961505331055" y1="26.818313649435495" y2="22.513508569990535" /><path d="M 56.25429882871897 25.957352633546506 a86.0,86.0 0 0,1 42.265352541879196,-11.944610805530505" fill="none" id="id72" stroke="none" /><text fill="#e1ed5e" style="font-size:6.75px; font-family:Arial;" text-anchor="middle"><textPath startOffset="22.20632615414155" xlink:href="#id72">December</textPath></text><path d="M 89.94658935756843 81.56283822128135 l -2.25631375224254 -4.1379013703136485 a25.713085984681626,25.713085984681626 0 0,0 0.39041642072663546,-0.20854693097528534 l 2.1847522849875993 4.176127027790683" fill="#ff2e04" stroke="none" /><path d="M 90.26544431104013 81.39251694778311 l -3.6917665795803165 -7.056766251816613 a28.964112656842822,28.964112656842822 0 0,0 0.4437571182684156,-0.22730963159706527 l 3.569748973723137 7.1192684087261835" fill="#ff5c08" stroke="none" /><path d="M 90.58718382345135 81.22770947309562 l -3.4769891365919006 -6.934274398517606 a28.75716539013542,28.75716539013542 0 0,0 0.44440602135391793,-0.21806810464420637 l 3.357111848227557 6.993097663296642" fill="#ff5908" stroke="none" /><path d="M 90.91171255644093 81.06846463323043 l -8.03543672831863 -16.738374039590262 a39.56721327781962,39.56721327781962 0 0,0 0.6165359191741913,-0.2894718808963971 l 7.7461225978448285 16.874210903126666" fill="#ffe815" stroke="none" /><path d="M 91.90106846888425 80.62456947434976 l -5.761596900913896 -13.783721968949605 a35.939444104983444,35.939444104983444 0 0,0 0.5728338885697499,-0.23367332614996705 l 5.523479142755766 13.88085618128315" fill="#ffba11" stroke="none" /><path d="M 92.23578459929587 80.48803036053334 l -11.653604845708932 -29.286253949007225 a52.51969505350063,52.51969505350063 0 0,0 0.8428581620053779,-0.3270158722708819 l 11.147763518703877 29.48251252516866" fill="#7fff26" stroke="none" /><path d="M 93.25333710446033 80.11325718540243 l -2.46529828711015 -7.266815276844483 a28.673610617708498,28.673610617708498 0 0,0 0.4687687177805604,-0.15454567608853872 l 2.3398467470871807 7.308174677192255" fill="#ff5808" stroke="none" /></svg>