<?xml version="1.0" encoding="utf-8" ?>
<svg baseProfile="full" height="200mm" version="1.1" viewBox="0,0,200,200" width="200mm" xmlns="http://www.w3.org/2000/svg" xmlns:ev="http://www.w3.org/2001/xml-events" xmlns:xlink="http://www.w3.org/1999/xlink"><defs /><rect fill="#1a1a1a" height="200" width="200" x="0" y="0" /><text alignment-baseline="middle" fill="#e1ed5e" style="dominant-baseline: central; font-size:9.0px; font-family:Arial;" text-anchor="middle" x="100.0" y="100.0">2021</text><line stroke="#e1ed5e" stroke-width="0.3" x1="100.0" x2="100.0" y1="15.0" y2="10.0" /><path d="M 100.0 14.0 a86.0,86.0 0 0,1 42.46469731375804,11.215312516191453" fill="none" id="id49" stroke="none" /><text fill="#e1ed5e" style="font-size:6.75px; font-family:Arial;" text-anchor="middle"><textPath startOffset="22.20632615414155" xlink:href="#id49">January</textPath></text><path d="M 100.0 79.0 l 0.0 -40.74184120798832 a61.74184120798832,61.74184120798832 0 0,0 1.0627843024300934,0.009147720023994806 l -0.701303823157565 40.735804864572884" fill="#31ff3c" stroke="none" /><path d="M 100.72285384407766 79.0124445844662 l 0.20036276353410332 -5.817392599256491 a26.820842025935356,26.820842025935356 0 0,0 0.46126633241447845,0.019863098573272227 l -0.3004699283379133 5.813081774159024" fill="#ff3104" stroke="none" /><path d="M 103.2404852339499 79.25152402106235 l 3.913157898703983 -25.055526194786196 a46.35926256100139,46.35926256100139 0 0,0 0.7873807133546994,0.12992456424181323 l -4.343867818197557 24.98445536760476" fill="#cbff1d" stroke="none" /><path d="M 105.71112130821622 79.79150937346287 l 7.424893347611557 -26.272579327352897 a48.30160188954958,48.30160188954958 0 0,0 0.7981489693001096,0.23300157082451817 l -7.876032534635094 26.140879427609676" fill="#b4ff20" stroke="none" /><path d="M 108.09893153111575 80.62456947434976 l 11.287622051137058 -27.003875265688805 a50.26806606071189,50.26806606071189 0 0,0 0.795471181735427,0.34057924607217627 l -11.7507769906628 26.805576491653838" fill="#9eff22" stroke="none" /><path d="M 110.05341064243156 81.56283822128135 l 13.072418194577526 -23.973783392000932 a48.306233859331485,48.306233859331485 0 0,0 0.7266083630388398,0.40435676734893145 l -13.4831506466884 23.74521122709182" fill="#b4ff20" stroke="none" /><line stroke="#e1ed5e" stroke-width="0.3" x1="143.23703022742887" x2="145.7803849466894" y1="26.81831364943548" y2="22.513508569990506" /><path d="M 143.74570117128098 25.957352633546492 a86.0,86.0 0 0,1 28.547481713284135,27.462654790039103" fill="none" id="id50" stroke="none" /><text fill="#e1ed5e" style="font-size:6.75px; font-family:Arial;" text-anchor="middle"><textPath startOffset="19.985693538727396" xlink:href="#id50">February</textPath></text><path d="M 112.48926042617603 83.11751280151076 l 3.6130921127403917 -4.884034703324585 a27.07521436645866,27.07521436645866 0 0,0 0.37228915648243927,0.2804004742989385 l -3.696627422981214 4.8211176395198" fill="#ff3505" stroke="none" /><path d="M 113.89432698308785 84.25364557470407 l 6.4739909723972335 -7.336933737173201 a30.784843165546967,30.784843165546967 0 0,0 0.3943230742910864,0.3540271494933958 l -6.59932503428431 7.224407578910507" fill="#ff6a09" stroke="none" /><path d="M 114.16331599549186 84.49514656593476 l 6.099354473589109 -6.677080225104807 a30.043535001700228,30.043535001700228 0 0,0 0.3788233910182759,0.3520750562868783 l -6.213385748402232 6.571100582743289" fill="#ff5f08" stroke="none" /><path d="M 114.42810811169701 84.74124197986012 l 6.12242192955798 -6.474899827274384 a29.911137865433925,29.911137865433925 0 0,0 0.37106441031260107,0.3569636687267752 l -6.2329695834829995 6.368553071785307" fill="#ff5e08" stroke="none" /><path d="M 114.68862486808459 84.99185889309783 l 6.768088084499344 -6.915311808174396 a30.676184874412964,30.676184874412964 0 0,0 0.37419715963206096,0.37259023810913516 l -6.8861210442987275 6.797785719415142" fill="#ff6809" stroke="none" /><path d="M 114.94478906791727 85.2469230424477 l 6.718555469182154 -6.632369679490007 a30.44072641049913,30.44072641049913 0 0,0 0.36490565125520064,0.3760673497307963 l -6.831725384140464 6.515738134209097" fill="#ff6509" stroke="none" /><path d="M 115.19652480421416 85.50635884689758 l 6.795552825581047 -6.481238662118979 a30.39073973660267,30.39073973660267 0 0,0 0.357789712970426,0.3816651196305473 l -6.906109860521935 6.363304125610377" fill="#ff6409" stroke="none" /><path d="M 115.4437574822437 85.77008943001954 l 7.540273472269725 -6.9476238089699605 a31.25305811100185,31.25305811100185 0 0,0 0.36113110956338984,0.3987699909593218 l -7.65874822244915 6.81680103074109" fill="#ff700a" stroke="none" /><path d="M 115.68641384162765 86.03803664274999 l 7.544713966562894 -6.715302873276314 a31.100396106939684,31.100396106939684 0 0,0 0.352483205685879,0.4029492369821282 l -7.659189035826621 6.584438080091237" fill="#ff6e0a" stroke="none" /><path d="M 115.9244219780498 86.31012108654704 l 4.700974720445348 -4.041325630959044 a27.1993125568657,27.1993125568657 0 0,0 0.3021576638077785,0.3576593685151964 l -4.769842997740244 3.959807312814741" fill="#ff3705" stroke="none" /><path d="M 116.15771136456269 86.58626213691792 l 7.864798564469245 -6.52916393352035 a31.221792314973946,31.221792314973946 0 0,0 0.3397250773356541,0.41646277526820674 l -7.976022133881307 6.392816988644043" fill="#ff700a" stroke="none" /><path d="M 116.38621287248628 86.86637796730983 l 7.75660359170913 -6.2169520574193315 a30.94059314946374,30.94059314946374 0 0,0 0.32951130485142455,0.4184458947643913 l -7.862468977154519 6.082513768701903" fill="#ff6c09" stroke="none" /><path d="M 116.60985879189232 87.15038557335679 l 8.24791405476325 -6.380699363894159 a31.427914970269008,31.427914970269008 0 0,0 0.32733529298040936,0.43073487575046643 l -8.356525287967772 6.237779712262659" fill="#ff730a" stroke="none" /><path d="M 116.82858285166822 87.43820079747576 l 8.302857684648842 -6.1977191995911305 a31.360944407172198,31.360944407172198 0 0,0 0.3191907774616374,0.43537586174386284 l -8.408311074624105 6.053880894175774" fill="#ff720a" stroke="none" /><path d="M 117.04232023915458 87.72973835380427 l 8.369937700559525 -6.026252535277908 a31.31365971564852,31.31365971564852 0 0,0 0.31117931478149424,0.44014107265177715 l -8.472429635144904 5.8812849622943375" fill="#ff710a" stroke="none" /><path d="M 117.2510076193507 88.02491185347247 l 9.790881044150781 -6.796511028396619 a32.91863724508083,32.91863724508083 0 0,0 0.319115674601165,0.4682628756711889 l -9.906421184420681 6.626970129455024" fill="#ff870c" stroke="none" /><path d="M 117.45458315368197 88.32363383020206 l 8.762663058845106 -5.861845086575672 a31.54255622237131,31.54255622237131 0 0,0 0.2980071087585852,0.45388527173186805 l -8.862266802961617 5.710141750866129" fill="#ff740a" stroke="none" /><path d="M 117.65298651832404 88.62581576622439 l 8.97924061284602 -5.785510395303192 a31.68170831456957,31.68170831456957 0 0,0 0.29143008334094744,0.4609724047594821 l -9.077498292432923 5.630090342829504" fill="#ff760a" stroke="none" /><line stroke="#e1ed5e" stroke-width="0.3" x1="172.23445277983987" x2="176.4835382374775" y1="55.19839476539836" y2="52.563006222186495" /><path d="M 173.08426987136738 54.67131705675599 a86.0,86.0 0 0,1 12.851231095245387,41.99856678651699" fill="none" id="id51" stroke="none" /><text fill="#e1ed5e" style="font-size:6.75px; font-family:Arial;" text-anchor="middle"><textPath startOffset="22.20632615414155" xlink:href="#id51">March</textPath></text><path d="M 118.03404312379186 89.2402003453031 l 9.62487434205664 -5.74256803708846 a32.20782288229834,32.20782288229834 0 0,0 0.27996316540651334,0.4785478010731612 l -9.72229718193348 5.576040823661403" fill="#ff7e0b" stroke="none" /><path d="M 118.21658344932153 89.55222093294921 l 24.101660432021045 -13.823054363809058 a48.78429174057294,48.78429174057294 0 0,0 0.4115125955620557,0.7320349896955414 l -24.336030668875534 13.406135864178722" fill="#afff20" stroke="none" /><path d="M 118.3937258080291 89.86733742301442 l 8.751680272840249 -4.821090849774567 a30.991737815805678,30.991737815805678 0 0,0 0.25338239876755525,0.4694791027991598 l -8.833370770826267 4.669730763642948" fill="#ff6d0a" stroke="none" /><path d="M 118.56541770881063 90.18545643968196 l 9.423729521228209 -4.981821865653816 a31.659513459364575,31.659513459364575 0 0,0 0.2505482136993678,0.48397940097246583 l -9.508087168087695 4.818869742421005" fill="#ff760a" stroke="none" /><path d="M 118.73160827565052 90.50648371742162 l 9.048098956519363 -4.585739436039644 a31.1438208236451,31.1438208236451 0 0,0 0.23823537969960606,0.4802679881544859 l -9.125694349172377 4.429311859386208" fill="#ff6f0a" stroke="none" /><path d="M 118.89224826269711 90.83032412892265 l 19.8767168971804 -9.647504563455806 a43.09430286097657,43.09430286097657 0 0,0 0.31816278812838955,0.670131973425498 l -20.039837879150546 9.303930174389768" fill="#f3ff19" stroke="none" /><path d="M 119.04729006885535 91.15688171328212 l 7.6195112061232715 -3.5375236392758804 a29.400656195719105,29.400656195719105 0 0,0 0.2091614245427453,0.46085947358247503 l -7.679274947629364 3.4058421568513424" fill="#ff5608" stroke="none" /><path d="M 119.196687751892 91.48605970444005 l 9.714872952218416 -4.308652063478283 a31.627475668373023,31.627475668373023 0 0,0 0.21643628941760826,0.49956479684598754 l -9.787599951478706 4.140788122045692" fill="#ff760a" stroke="none" /><path d="M 119.34039704204932 91.81776055985345 l 11.397803673633348 -4.822008490657549 a33.37585126230367,33.37585126230367 0 0,0 0.21929255504332568,0.5310343161668514 l -11.479117915562872 4.625099604037394" fill="#ff8e0d" stroke="none" /><path d="M 119.47837535516314 92.15188598940014 l 11.385135367598453 -4.587232700972713 a33.27452692332436,33.27452692332436 0 0,0 0.2094812897094523,0.5331070330940235 l -11.462410207189606 4.390576662982905" fill="#ff8c0c" stroke="none" /><path d="M 119.61058180528143 92.48833698450437 l 9.798532299788944 -3.7532426836332573 a31.49276254721576,31.49276254721576 0 0,0 0.18954955625599718,0.5078985726557684 l -9.861686444546567 3.5840209739481557" fill="#ff740a" stroke="none" /><path d="M 119.85752413597 93.16781622104841 l 33.190164664579065 -11.419414781488936 a56.09971601613837,56.09971601613837 0 0,0 0.30631167890693334,0.9158329318453372 l -33.381813637257764 10.846408746721284" fill="#5eff2a" stroke="none" /><path d="M 119.97218684219823 93.5106431181261 l 12.437531641935427 -4.04119900298482 a34.077594684263254,34.077594684263254 0 0,0 0.17646435944206457,0.559440242666081 l -12.505251485145699 3.8265085938923202" fill="#ff970d" stroke="none" /><path d="M 120.08093135843002 93.85539295169968 l 11.992196598358431 -3.6695178339894174 a33.54105818452518,33.54105818452518 0 0,0 0.16418204695249813,0.5535402430562483 l -12.053584542422632 3.462548204186639" fill="#ff900d" stroke="none" /><path d="M 120.18372546131832 94.20196356495316 l 12.746600729718585 -3.6616260756985093 a34.26210148057606,34.26210148057606 0 0,0 0.15795355673893144,0.5682429841332111 l -12.807741057023879 3.441671788146346" fill="#ff9a0e" stroke="none" /><path d="M 120.28053869075195 94.5502522615342 l 6.610759645650546 -1.776430743669227 a27.84527934270143,27.84527934270143 0 0,0 0.12040254782920842,0.4639601320762851 l -6.640358525350058 1.6623741860440915" fill="#ff4006" stroke="none" /><path d="M 120.37134235888165 94.90015583598534 l 5.822951134979065 -1.4577411169037817 a27.00264683987538,27.00264683987538 0 0,0 0.10899708372201282,0.45186328018179406 l -5.847181018961898 1.3572926050625815" fill="#ff3404" stroke="none" /><path d="M 120.45610955862082 95.25157060432595 l 23.709640351307947 -5.5036639729749695 a45.340036210239965,45.340036210239965 0 0,0 0.1699293020607976,0.7617597413508468 l -23.800864040370783 5.094726062074158" fill="#d7ff1c" stroke="none" /><path d="M 120.53481517161879 95.60439243477599 l 10.148228696371236 -2.172292784648248 a31.37812129511346,31.37812129511346 0 0,0 0.10850958387217946,0.5291312673550919 l -10.184117576158412 1.9972858611297442" fill="#ff720a" stroke="none" /><path d="M 120.6074358757038 95.95851677861258 l 13.482360329748477 -2.6441296911480516 a34.73919436811293,34.73919436811293 0 0,0 0.11003106501665356,0.5877903490609333 l -13.52587711867499 2.4116612646245557" fill="#ffa00e" stroke="none" /><path d="M 120.67395015179393 96.31383870115 l 12.437924480849325 -2.2176795204929567 a33.63408357764523,33.63408357764523 0 0,0 0.09671903317748727,0.5708412087640784 l -12.474255375547036 2.0032525234130403" fill="#ff910d" stroke="none" /><path d="M 120.73433829027371 96.67025291283417 l 12.34486703727451 -1.9824739272290344 a33.50303743256532,33.50303743256532 0 0,0 0.08654011107615228,0.5701912055219116 l -12.377163041789961 1.7696836093150405" fill="#ff8f0d" stroke="none" /><path d="M 120.78858239683441 97.02765380044208 l 5.140927452085955 -0.735048493577777 a26.19321012048636,26.19321012048636 0 0,0 0.059974968576750505,0.446883178505546 l -5.152818419720542 0.6464469730075667" fill="#ff2803" stroke="none" /><path d="M 120.83666639777658 97.38593545837742 l 12.09575675127204 -1.517473487552026 a33.19057247102721,33.19057247102721 0 0,0 0.06623834170807381,0.5674896606811946 l -12.120085445983703 1.3090400885459788" fill="#ff8b0c" stroke="none" /><path d="M 120.87857604477298 97.74499172005257 l 10.10627541565632 -1.091536831480403 a31.16505068514553,31.16505068514553 0 0,0 0.053014532796782234,0.5338491103944458 l -10.123567074135332 0.9174121903815222" fill="#ff6f0a" stroke="none" /><path d="M 120.91429891909075 98.10471618934814 l 17.09929276200712 -1.549562472584074 a38.16936099035925,38.16936099035925 0 0,0 0.053665242167638,0.6548518835190064 l -17.123432487994254 1.2549966718572987" fill="#ffcd13" stroke="none" /><path d="M 120.94382443527127 98.46500227214037 l 12.509242858806207 -0.9168172424695543 a33.5427951731934,33.5427951731934 0 0,0 0.037247531404705436,0.5762028246831694 l -12.523170981215328 0.7013553535333495" fill="#ff900d" stroke="none" /><path d="M 120.96714384426684 98.82574320788733 l 13.35003286061638 -0.747663433700941 a34.37095277045098,34.37095277045098 0 0,0 0.027998237308539245,0.5909985381045373 l -13.360924706158416 0.517753788973404" fill="#ff9b0e" stroke="none" /><path d="M 120.98425023603335 99.18683210126433 l 10.112877738763496 -0.3918876037267228 a31.120467975994636,31.120467975994636 0 0,0 0.01613567447647346,0.5354644812300562 l -10.118125107695615 0.2177529750716676" fill="#ff6e0a" stroke="none" /><line stroke="#e1ed5e" stroke-width="0.3" x1="184.98032266829074" x2="189.97916517819016" y1="98.17113171792111" y2="98.06355123074" /><path d="M 185.9800911702706 98.14961562048488 a86.0,86.0 0 0,1 -9.607161424134198,41.387399972396054" fill="none" id="id52" stroke="none" /><text fill="#e1ed5e" style="font-size:6.75px; font-family:Arial;" text-anchor="middle"><textPath startOffset="21.466115282336823" xlink:href="#id52">April</textPath></text><path d="M 120.99513854157772 99.54816195383933 l 10.387488978368463 -0.22354997635318183 a31.389894218309145,31.389894218309145 0 0,0 0.006976019661548121,0.5403004106302985 l -10.389798005147727 0.04471330766242052" fill="#ff720a" stroke="none" /><path d="M 120.99980553446 99.90962569577887 l 10.624868294746681 -0.04572495102410327 a31.624966684741153,31.624966684741153 0 0,0 -0.0023428117328966056,0.5443869385075317 l -10.624081185724283 -0.1371714656871132" fill="#ff750a" stroke="none" /><path d="M 120.99824983174949 100.27111621757518 l 22.580900594739486 0.29155041052185415 a43.58278267422732,43.58278267422732 0 0,0 -0.01614210245967063,0.7500600721272327 l -22.57253642959481 -0.6802002984392016" fill="#edff1a" stroke="none" /><path d="M 120.9904718944345 100.63252640178507 l 19.495024476246158 0.5874626233601437 a40.503873760442616,40.503873760442616 0 0,0 -0.026998468757633936,0.69671051363544 l -19.48202387463732 -0.9229503840095898" fill="#ffeb16" stroke="none" /><path d="M 120.9764740272857 100.99374915477107 l 7.764701857355425 0.3678485668162942 a28.773410287751933,28.773410287751933 0 0,0 -0.027695981872655817,0.4945303614445228 l -7.75721952459524 -0.5014506445962403" fill="#ff4d07" stroke="none" /><path d="M 120.95626037817324 101.35467743843564 l 10.137715423594596 0.6553332566877447 a31.158874725436313,31.158874725436313 0 0,0 -0.039205938018705616,0.5349338750024577 l -10.124932926911553 -0.8297402681869727" fill="#ff6f0a" stroke="none" /><path d="M 120.92983693683757 101.71520430193887 l 12.979657352093357 1.063685502910891 a34.02316903932579,34.02316903932579 0 0,0 -0.05285807742101499,0.5832844797483494 l -12.959424678395266 -1.286951371207811" fill="#ff960d" stroke="none" /><path d="M 120.89721153311464 102.0752229133903 l 10.195958634685768 1.012522027120713 a31.24611015632898,31.24611015632898 0 0,0 -0.05775724206253805,0.5347603293798863 l -10.177019091122178 -1.1878786783853905" fill="#ff700a" stroke="none" /><path d="M 120.8583938346157 102.4346265915055 l 10.338811630309339 1.2067633739825439 a31.409001093659533,31.409001093659533 0 0,0 -0.06730274501327503,0.5364690975173081 l -10.316507376049215 -1.3845502257872468" fill="#ff720a" stroke="none" /><path d="M 120.81339534386255 102.79330883721812 l 19.545949107352396 2.623208345940671 a40.72119034271062,40.72119034271062 0 0,0 -0.09921611179135227,0.6939172547850773 l -19.497898944544442 -2.9592710727061577" fill="#ffee16" stroke="none" /><path d="M 120.76222939487914 103.15116336523771 l 20.58801664191272 3.124722426046443 a41.823792149546456,41.823792149546456 0 0,0 -0.11415554247476764,0.7108466719603528 l -20.531179345076662 -3.4786483277000007" fill="#fffc17" stroke="none" /><path d="M 120.70491114924044 103.5080841355445 l 2.442901316379608 0.4139067920127957 a23.477717835840785,23.477717835840785 0 0,0 -0.07094022487813242,0.3978704549215248 l -2.435414649162287 -0.4558959976675388" fill="#ff0000" stroke="none" /><path d="M 120.64145759157962 103.86396538481128 l 10.152746269552612 1.9005373032535449 a31.32909961492156,31.32909961492156 0 0,0 -0.10378893142962801,0.5292175253197312 l -10.118527405147319 -2.075018555641221" fill="#ff710a" stroke="none" /><path d="M 120.5718875245553 104.21870165774334 l 9.853270319823949 2.0206219668864875 a31.05832238142066,31.05832238142066 0 0,0 -0.1119075151712542,0.5227946549499858 l -9.817028765928251 -2.1899304412526424" fill="#ff6e0a" stroke="none" /><path d="M 120.49622156327973 104.57218783832717 l 10.17756666327238 2.2703573133179877 a31.427721971528094,31.427721971528094 0 0,0 -0.122327819430697,0.5269850444909616 l -10.13697827791113 -2.445211015157514" fill="#ff730a" stroke="none" /><path d="M 120.41448212921028 104.9243191809786 l 4.8131416017311155 1.1610113526346637 a25.951189699381487,25.951189699381487 0 0,0 -0.10848670648515502,0.4333504648614357 l -4.792443580950899 -1.2436896568934952" fill="#ff2503" stroke="none" /><path d="M 120.32669344350535 105.2749913415812 l 19.144181247847005 4.968116954423811 a40.778317970020865,40.778317970020865 0 0,0 -0.1821663072530634,0.6779085968183217 l -19.055826864252165 -5.2969164844176815" fill="#ffef16" stroke="none" /><path d="M 120.23288151984713 105.62410040840565 l 18.880663280433772 5.248226554497197 a40.596513156080846,40.596513156080846 0 0,0 -0.1929443299870097,0.6716645246028656 l -18.78752631356066 -5.5724485546046445" fill="#ffec16" stroke="none" /><path d="M 120.13307415673323 105.97154293290107 l 9.896215737656995 2.935253538064693 a31.322344658989607,31.322344658989607 0 0,0 -0.15776502320269653,0.5155852240495639 l -9.844223941948165 -3.105165734666314" fill="#ff710a" stroke="none" /><path d="M 120.02730092923936 106.31721596034902 l 9.440950165551328 2.977960998209544 a30.899484417649276,30.899484417649276 0 0,0 -0.16436723090734062,0.5058703206146093 l -9.38829068362774 -3.1400302188019484" fill="#ff6b09" stroke="none" /><path d="M 119.9155931802556 106.66101706037122 l 12.00163001610658 4.014093959742317 a33.65512044040475,33.65512044040475 0 0,0 -0.18848336902388055,0.5478208974927424 l -11.930755816139468 -4.220087560324359" fill="#ff910d" stroke="none" /><path d="M 119.79798401119884 107.00284435728193 l 12.015909218130483 4.250207597813976 a33.74544385115202,33.74544385115202 0 0,0 -0.1984163627251249,0.5459566137826097 l -11.940968594400132 -4.456412008602717" fill="#ff930d" stroke="none" /><path d="M 119.67450827220406 107.3425965602758 l 9.835355558439725 3.670589724192314 a31.497973513220415,31.497973513220415 0 0,0 -0.1939461026891242,0.5063320738370027 l -9.770715176157093 -3.8393453648624605" fill="#ff740a" stroke="none" /><path d="M 119.54520255179757 107.68017299344265 l 26.762318306249163 10.516096405389629 a49.754303412401555,49.754303412401555 0 0,0 -0.32007982478380703,0.7944118755580334 l -26.577335867207964 -10.975207648790477" fill="#a4ff21" stroke="none" /><path d="M 119.41010516605496 108.01547362559984 l 3.3406523306409506 1.3795345475705878 a24.6142874210773,24.6142874210773 0 0,0 -0.16509039199567765,0.3902249197643593 l -3.3164109574529643 -1.4368339930011107" fill="#ff1101" stroke="none" /><path d="M 119.26925614724726 108.34839909993367 l 9.11583564024624 3.949432893134628 a30.934610188495437,30.934610188495437 0 0,0 -0.21589251968984785,0.48678063793993187 l -9.046502035825121 -4.105761867567248" fill="#ff6c09" stroke="none" /><path d="M 119.12269723197855 108.67885076344098 l 9.230683369162561 4.189352706561138 a31.136872868972237,31.136872868972237 0 0,0 -0.2257058287089885,0.48615027530601057 l -9.157202923613742 -4.347623049145978" fill="#ff6f0a" stroke="none" /><path d="M 118.97047184881838 109.00673069616215 l 36.819372454417454 17.4809659317612 a61.75843909970683,61.75843909970683 0 0,0 -0.46420802325939137,0.9564060217890767 l -36.513011174543344 -18.112160909515552" fill="#31ff3d" stroke="none" /><path d="M 118.81262510543309 109.33194174019688 l 5.584017434496895 2.769933759000989 a27.233280335266386,27.233280335266386 0 0,0 -0.21192851897488924,0.4181550736012611 l -5.535510245735736 -2.8656430443049445" fill="#ff3705" stroke="none" /><path d="M 118.64920377521936 109.65438752849418 l 4.628322094183601 2.396006587869173 a26.211737999614,26.211737999614 0 0,0 -0.210876542385764,0.39889894729394476 l -4.586393043572944 -2.4753205502492523" fill="#ff2803" stroke="none" /><line stroke="#e1ed5e" stroke-width="0.3" x1="174.80103733775053" x2="179.2010983576182" y1="140.37084112569926" y2="142.7455964860345" /><path d="M 175.68104954172406 140.8457921977663 a86.0,86.0 0 0,1 -30.038265399797805,32.042727171017184" fill="none" id="id53" stroke="none" /><text fill="#e1ed5e" style="font-size:6.75px; font-family:Arial;" text-anchor="middle"><textPath startOffset="22.206326154141568" xlink:href="#id53">May</textPath></text><path d="M 118.48025628344425 109.97397251340804 l 3.010605950613763 1.6248530615360048 a24.421095681423413,24.421095681423413 0 0,0 -0.20283881875629073,0.36821137456031894 l -2.9821907224059627 -1.6764349544941288" fill="#ff0e01" stroke="none" /><path d="M 118.30583269289576 110.29060199501025 l 9.53742480273011 5.361451967182225 a31.941098622356606,31.941098622356606 0 0,0 -0.273549658472896,0.4769568871168259 l -9.443723148104835 -5.524828700157365" fill="#ff7a0b" stroke="none" /><path d="M 118.12598468904814 110.60418214915192 l 16.7126746310393 9.777358252659866 a40.362598682094315,40.362598682094315 0 0,0 -0.3559964372591142,0.5966705057230882 l -16.541897318081958 -10.063590852269058" fill="#ffe915" stroke="none" /><path d="M 117.94076556474637 110.91462005526583 l 16.585096691093042 10.089872046421009 a40.41316435221351,40.41316435221351 0 0,0 -0.36667318247651615,0.5911939214351496 l -16.408958868948563 -10.373862299221432" fill="#ffea16" stroke="none" /><path d="M 117.75023020441432 111.22182372390056 l 8.272260782064405 5.229783007060747 a30.786773152956094,30.786773152956094 0 0,0 -0.2870428788410856,0.44549692234768873 l -8.18101303984627 -5.371401529329889" fill="#ff6a09" stroke="none" /><path d="M 117.55443506779139 111.5257021239791 l 9.021555703625861 5.92327598885007 a31.792296593112702,31.792296593112702 0 0,0 -0.30429299462271264,0.45487673994527883 l -8.918259603592427 -6.077689643001155" fill="#ff780b" stroke="none" /><path d="M 117.35343817320211 111.8261652097733 l 8.167243232174542 5.565880767146931 a30.8834655221535,30.8834655221535 0 0,0 -0.30315664602029363,0.43671975908330485 l -8.070225678992113 -5.705641788417255" fill="#ff6b09" stroke="none" /><path d="M 117.14729908036423 112.12312394758627 l 8.59720936714969 6.078218748785684 a31.52885331176649,31.52885331176649 0 0,0 -0.3171205210795467,0.44045266763490937 l -8.49130905369454 -6.2253050218717245" fill="#ff740a" stroke="none" /><path d="M 116.93607887273984 112.41649034213515 l 16.350836323304573 11.987426535957084 a41.27432473416721,41.27432473416721 0 0,0 -0.42500512850151184,0.569363822973255 l -16.14206992810797 -12.267103238439653" fill="#fff517" stroke="none" /><path d="M 116.71984013943494 112.70617746262583 l 7.945416041777447 6.0380880079772234 a30.97938589638725,30.97938589638725 0 0,0 -0.32630614128817037,0.4217946741254596 l -7.840303083271208 -6.173960676215936" fill="#ff6d0a" stroke="none" /><path d="M 116.498646956653 112.99209946851258 l 15.555815143324438 12.249652846494076 a40.79993382900312,40.79993382900312 0 0,0 -0.4392444870516583,0.5480250345243307 l -15.342652744217924 -12.515605714596656" fill="#ffef16" stroke="none" /><path d="M 116.27256486870786 113.27417163493432 l 2.662168820850009 2.1716358874124935 a24.435570586991886,24.435570586991886 0 0,0 -0.268679571115243,0.32364185165588805 l -2.624393249841223 -2.2171389961821517" fill="#ff0e01" stroke="none" /><path d="M 116.0416608686014 113.55231037782055 l 8.059530688673112 6.808849924402541 a31.550662169489655,31.550662169489655 0 0,0 -0.35405475563057626,0.4118456684416735 l -7.941133423471756 -6.946572692005742" fill="#ff740a" stroke="none" /><path d="M 115.80600337817218 113.82643327865902 l 7.480502072092882 6.5436315756768755 a30.93866316205461,30.93866316205461 0 0,0 -0.35408732831956113,0.39782086702102215 l -7.366755894124983 -6.671426612438764" fill="#ff6c09" stroke="none" /><path d="M 115.56566222782051 114.09645910891815 l 30.192741159436398 27.34292540277863 a61.73373526086997,61.73373526086997 0 0,0 -0.7200904857138692,0.781516002644232 l -29.717604265726806 -27.858592660224197" fill="#31ff3c" stroke="none" /><path d="M 115.32070863581623 114.36230785411682 l 5.557803226506434 5.210129820306218 a28.618046301316987,28.618046301316987 0 0,0 -0.3400007173577164,0.35648939284461084 l -5.467295957769752 -5.3050263297333355" fill="#ff4b07" stroke="none" /><path d="M 115.07121518719521 114.62390073753431 l 9.46499295648151 9.184071473854825 a34.188375961547294,34.188375961547294 0 0,0 -0.41345040902670965,0.4188230814986179 l -9.305501922399264 -9.345635049334106" fill="#ff990e" stroke="none" /><path d="M 114.81725581225074 114.88116024355365 l 20.46042026426914 20.548662752471692 a49.99786782343372,49.99786782343372 0 0,0 -0.6150929301568022,0.6019978920593365 l -20.103677381736546 -20.8978107474536" fill="#a1ff22" stroke="none" /><path d="M 114.55890576462653 115.13401014063108 l 7.01619665266404 7.293349720558704 a31.12027497725372,31.12027497725372 0 0,0 -0.38924671716328463,0.36805706663297294 l -6.889614101109948 -7.413041423937599" fill="#ff6e0a" stroke="none" /><path d="M 114.29624159901734 115.38237550388516 l 3.281556950041422 3.5308679482858563 a25.820336553042488,25.820336553042488 0 0,0 -0.32816473613924957,0.29977070575241016 l -3.2202926644353083 -3.5868314206248493" fill="#ff2303" stroke="none" /><path d="M 114.0293411484842 115.62618273729858 l 6.963289783612 7.755862335933122 a31.423090001746182,31.423090001746182 0 0,0 -0.4055937542989452,0.3578893305916312 l -6.828753676406467 -7.874574808297042" fill="#ff730a" stroke="none" /><path d="M 113.75828350139079 115.86535959552629 l 19.524904620640378 22.515136633396054 a50.80190057807718,50.80190057807718 0 0,0 -0.6655884145014044,0.5672288864703751 l -19.134450729561927 -22.84788991008938" fill="#98ff23" stroke="none" /><path d="M 113.48314897796784 116.09983520530334 l 13.888229568810296 16.58353013206617 a42.63091288404452,42.63091288404452 0 0,0 -0.5666457730164675,0.4663108941447347 l -13.600713667249137 -16.82013614506808" fill="#f8ff18" stroke="none" /><path d="M 113.20401910651253 116.32954008644616 l 6.586658723665202 8.145785521529696 a31.475585659274508,31.475585659274508 0 0,0 -0.424234699199564,0.3370377024570212 l -6.445466531748287 -8.257957137991843" fill="#ff730a" stroke="none" /><path d="M 112.92097659922987 116.55440617244103 l 6.487622481097392 8.311967506538716 a31.544100212298616,31.544100212298616 0 0,0 -0.4309093398300361,0.33040290686478835 l -6.343584412773862 -8.422409755230875" fill="#ff740a" stroke="none" /><path d="M 112.63410532772338 116.77436683061366 l 6.066307316921466 8.054267524427308 a31.08321921899843,31.08321921899843 0 0,0 -0.43015479394359424,0.3182182330107366 l -5.9267675525593075 -8.157495706177814" fill="#ff6e0a" stroke="none" /><path d="M 112.34349029814194 116.9893568818739 l 17.338333351815713 23.864168556541504 a50.497734562398335,50.497734562398335 0 0,0 -0.7076239660597474,0.5048709112020487 l -16.92498205790708 -24.15908372958777" fill="#9bff22" stroke="none" /><path d="M 112.04921762599082 117.19931262002967 l 2.943065893868688 4.200995611599488 a26.129327537244162,26.129327537244162 0 0,0 -0.3705923960191374,0.25489682922384516 l -2.8703166132266675 -4.251033230188427" fill="#ff2703" stroke="none" /><path d="M 111.7513745106137 117.40417183066458 l 11.051750361143025 16.36800547384626 a40.749754156365746,40.749754156365746 0 0,0 -0.5847110451161575,0.38751459738421484 l -10.768364617286904 -16.555818092321793" fill="#ffee16" stroke="none" /><path d="M 111.45004920935366 117.60387380957326 l 10.586525936352759 16.27625028135999 a40.41625233206812,40.41625233206812 0 0,0 -0.5864555989830639,0.3743037104573017 l -10.304788535322764 -16.4560684206411" fill="#ffea16" stroke="none" /><path d="M 111.1453310114006 117.79835938074945 l 5.22250776082191 8.340000839883574 a30.840233804188994,30.840233804188994 0 0,0 -0.45235397574480724,0.2778727581648514 l -5.078174585144794 -8.428662064876804" fill="#ff6b09" stroke="none" /><line stroke="#e1ed5e" stroke-width="0.3" x1="143.8653032363475" x2="146.44561519142675" y1="172.8068346515853" y2="177.08958963109032" /><path d="M 144.38136562736335 173.6633856474863 a86.0,86.0 0 0,1 -40.68145358897372,12.25698825130547" fill="none" id="id54" stroke="none" /><text fill="#e1ed5e" style="font-size:6.75px; font-family:Arial;" text-anchor="middle"><textPath startOffset="21.466115282336833" xlink:href="#id54">June</textPath></text><path d="M 110.8373102113329 117.98757091392108 l 15.44049529746708 25.6278540240378 a50.91982280877501,50.91982280877501 0 0,0 -0.7546611837920283,0.4458671293631832 l -14.997066242646671 -25.88983972569473" fill="#96ff23" stroke="none" /><path d="M 110.5260780823613 118.17145234162733 l 3.0056819382492757 5.1887897531855005 a26.996470880166164,26.996470880166164 0 0,0 -0.4041130433312465,0.22946593270605528 l -2.91592012799683 -5.239758851686185" fill="#ff3404" stroke="none" /><path d="M 110.21172684928248 118.3499491758327 l 5.068558041606848 9.107938728774242 a31.423283000487093,31.423283000487093 0 0,0 -0.47490634288334693,0.25895680360155143 l -4.911028886854853 -9.193836184135565" fill="#ff730a" stroke="none" /><path d="M 109.89434966115114 118.52300852407294 l 4.763898982602975 8.918397316101212 a31.1110110376899,31.1110110376899 0 0,0 -0.4745304698557469,0.24825191413347744 l -4.609677610220733 -8.999078649179406" fill="#ff6e0a" stroke="none" /><path d="M 109.57404056367764 118.69057910512821 l 18.69704737160518 36.50064365270248 a62.01068845408009,62.01068845408009 0 0,0 -0.9542148407541782,0.47846313032929566 l -18.06597862316824 -36.817074623941075" fill="#31ff40" stroke="none" /><path d="M 109.2508944713604 118.85261126421891 l 2.8662647879584697 5.841227137007162 a27.50656655239916,27.50656655239916 0 0,0 -0.4268591231540666,0.2049183193001471 l -2.7652929968041704 -5.889699732806869" fill="#ff3b05" stroke="none" /><path d="M 108.92500713936063 119.00905698771935 l 4.280942271414778 9.117827507339104 a31.07279728698913,31.07279728698913 0 0,0 -0.48611468427653476,0.22315140913172649 l -4.123359591370824 -9.190165986804905" fill="#ff6e0a" stroke="none" /><path d="M 108.59647513512805 119.15986991738527 l 4.254192177129097 9.481766356105146 a31.392403201941015,31.392403201941015 0 0,0 -0.4949226510938286,0.21695954580353832 l -4.090348851377515 -9.553590455203137" fill="#ff720a" stroke="none" /><path d="M 108.2653958097858 119.30500536409082 l 3.9682012674264127 9.268297431414133 a31.082061226552952,31.082061226552952 0 0,0 -0.4936549769858457,0.2063478204166876 l -3.808074830943106 -9.335230294850794" fill="#ff6e0a" stroke="none" /><path d="M 107.93186726928326 119.44442032107085 l 3.906413102099566 9.576299719375648 a31.34241652804456,31.34241652804456 0 0,0 -0.5012979589374873,0.19947680347202557 l -3.740994067120212 -9.642123367253742" fill="#ff720a" stroke="none" /><path d="M 107.59598834532513 119.57807347666477 l 3.7786218159105704 9.739105984536522 a31.44644284939665,31.44644284939665 0 0,0 -0.5063323227876726,0.19145155934367553 l -3.6104192723626234 -9.80270579398683" fill="#ff730a" stroke="none" /><path d="M 107.2578585660854 119.70592522655815 l 12.08226772809644 32.80475394349581 a55.95901993401281,55.95901993401281 0 0,0 -0.9067504709464432,0.3251284582448948 l -11.515797696520261 -33.007869942780665" fill="#60ff29" stroke="none" /><path d="M 106.91757812671514 119.82793768551818 l 6.493275758182236 18.61175468491026 a40.711926403146805,40.711926403146805 0 0,0 -0.6636630780109146,0.22515054905166243 l -6.171942947234094 -18.720768220860045" fill="#ffee16" stroke="none" /><path d="M 106.57524785965236 119.94407469862006 l 3.269827511380395 9.918057163858977 a31.443161870801127,31.443161870801127 0 0,0 -0.5154861654746307,0.165042391668403 l -3.098620000814824 -9.972872402187086" fill="#ff730a" stroke="none" /><path d="M 106.2309692047433 120.05430185196036 l 3.070731848155487 9.883114707493593 a31.349171483976512,31.349171483976512 0 0,0 -0.5167015610080232,0.15567794176418112 l -2.9001553127072177 -9.9345080183635" fill="#ff720a" stroke="none" /><path d="M 105.88484417918355 120.15858648285463 l 2.820164829006305 9.660499899474967 a31.063726346166217,31.063726346166217 0 0,0 -0.5145762951599536,0.14542440097588752 l -2.6534573657417457 -9.707613093789375" fill="#ff6e0a" stroke="none" /><path d="M 105.53697534728816 120.25689768951611 l 5.489904772278354 20.08469106724403 a41.82147616465549,41.82147616465549 0 0,0 -0.6960478864418217,0.18383257309007964 l -5.143366443025035 -20.176214989637696" fill="#fffc17" stroke="none" /><path d="M 105.18746579009965 120.34920634021253 l 3.120422124030205 12.240680948998614 a33.6321535902361,33.6321535902361 0 0,0 -0.5622122402316286,0.13817809009308812 l -2.909256599055365 -12.292580297405733" fill="#ff910d" stroke="none" /><path d="M 104.83641907484287 120.43548508189849 l 7.1359283472185036 30.151679378573743 a51.984596862391896,51.984596862391896 0 0,0 -0.8725487112346756,0.1985892459023017 l -6.615859486590966 -30.27004535805373" fill="#8bff24" stroke="none" /><path d="M 104.48393922423573 120.51570834832081 l 4.146888622584909 18.973575081946564 a40.42146329807277,40.42146329807277 0 0,0 -0.6810218503036743,0.1427147501825579 l -3.819675310851857 -19.042145812855665" fill="#ffea16" stroke="none" /><path d="M 104.13013068566511 120.58985236759428 l 2.544906597350428 12.687068549823321 a33.93979358325139,33.93979358325139 0 0,0 -0.573796470324081,0.10996945918471944 l -2.3261425124546427 -12.728995207356508" fill="#ff950d" stroke="none" /><path d="M 103.7750983002368 120.6578951692458 l 4.476903191534316 24.498275133067775 a45.90397853118768,45.90397853118768 0 0,0 -0.7785118651146395,0.13535426677106457 l -4.0545423549476265 -24.571707978359843" fill="#d1ff1d" stroke="none" /><path d="M 103.41894727170886 120.7198165907248 l 2.123688199073485 12.870169231564644 a34.04420590208531,34.04420590208531 0 0,0 -0.5790175904834345,0.09043063953533194 l -1.9018347449815332 -12.904818178447082" fill="#ff970d" stroke="none" /><path d="M 103.06178313531738 120.77559828337769 l 2.277631910401338 15.454773743469355 a36.6217040869781,36.6217040869781 0 0,0 -0.624437389312536,0.08654133227226764 l -2.0112659299019713 -15.491689641234226" fill="#ffb911" stroke="none" /><path d="M 102.70371172650421 120.8252237178851 l 2.0339523695007027 15.666430970117219 a36.79791193743165,36.79791193743165 0 0,0 -0.6288457849197367,0.07614446701200904 l -1.763979161529586 -15.699120965854577" fill="#ffbb11" stroke="none" /><path d="M 102.34483914955558 120.86867818915974 l 3.4811731693155914 30.981861849650997 a52.17682360834122,52.17682360834122 0 0,0 -0.8933849991532735,0.09260300799311295 l -2.947355573556715 -31.037194226099867" fill="#88ff25" stroke="none" /><path d="M 101.98527174616119 120.90594882070398 l 0.9756584598169592 10.274193377738282 a31.320414671580476,31.320414671580476 0 0,0 -0.5371535864124235,0.04634787166008019 l -0.798660555662994 -10.289465501677025" fill="#ff710a" stroke="none" /><path d="M 101.62511606390274 120.93702456842531 l 1.1964226067236379 15.413994155614688 a36.46035713957485,36.46035713957485 0 0,0 -0.6261410733252615,0.04318235436136707 l -0.9309187726194459 -15.43230485449234" fill="#ffb711" stroke="none" /><path d="M 101.26447882468166 120.96189622390904 l 1.2333575544512823 20.445983403392088 a41.483149371835054,41.483149371835054 0 0,0 -0.7131386610961107,0.036861123018613585 l -0.8812308249416921 -20.464184333172906" fill="#fff817" stroke="none" /><path d="M 100.90346689309514 120.98055641714683 l 0.4428697412623553 10.28444280915513 a31.2939738440754,31.2939738440754 0 0,0 -0.538375041194771,0.018542724980494234 l -0.26577434839293207 -10.290542332561719" fill="#ff710a" stroke="none" /><line stroke="#e1ed5e" stroke-width="0.3" x1="102.19456741930631" x2="102.32365962044197" y1="184.97166512339345" y2="189.96999836594603" /><path d="M 102.22038585953345 185.97133177190398 a86.0,86.0 0 0,1 -42.740103519485714,-10.115201625700543" fill="none" id="id55" stroke="none" /><text fill="#e1ed5e" style="font-size:6.75px; font-family:Arial;" text-anchor="middle"><textPath startOffset="22.20632615414155" xlink:href="#id55">July</textPath></text><path d="M 100.54218724476979 120.99299961872073 l 0.354256173475207 13.716478553183398 a34.721052486467116,34.721052486467116 0 0,0 -0.5975994275219823,0.010288216094691981 l -0.11809705606055679 -13.72054424655725" fill="#ffa00e" stroke="none" /><path d="M 100.18074693466247 120.99922214144158 l 0.0901002098731904 10.467863953825429 a31.468251707119816,31.468251707119816 0 0,0 -0.5416942890712845,0.0 l 0.09010020987318319 -10.467863953825429" fill="#ff730a" stroke="none" /><path d="M 99.81925306533755 120.99922214144158 l -0.10691094224627713 12.420938865564247 a33.421398965159135,33.421398965159135 0 0,0 -0.5752305145803802,-0.009903114972522503 l 0.32070114671932526 -12.417258273312564" fill="#ff8e0d" stroke="none" /><path d="M 99.45781275523022 120.99299961872073 l -1.0528275821455264 40.764531522582224 a61.77812497127996,61.77812497127996 0 0,0 -1.062818060182094,-0.03660560294645741 l 1.7543659940022636 -40.740369121209675" fill="#31ff3d" stroke="none" /><path d="M 99.09653310690486 120.98055641714683 l -0.44602497124678553 10.357714426746652 a31.36731336562233,31.36731336562233 0 0,0 -0.5392368755620335,-0.02787238708348 l 0.624249915222308 -10.34850223290097" fill="#ff720a" stroke="none" /><path d="M 98.73552117531835 120.96189622390904 l -0.6100257050796696 10.112700406047816 a31.131082906744847,31.131082906744847 0 0,0 -0.5346203711167001,-0.036870550899596274 l 0.7840088369752998 -10.100701510631936" fill="#ff6f0a" stroke="none" /><path d="M 98.37488393609728 120.93702456842531 l -0.8022600094894218 10.335838714563737 a31.3669273681405,31.3669273681405 0 0,0 -0.5379512917440071,-0.046416701032658214 l 0.9800556189749706 -10.320497761252415" fill="#ff720a" stroke="none" /><path d="M 98.01472825383883 120.90594882070398 l -1.2969430059312645 13.657487524213085 a34.718929500317074,34.718929500317074 0 0,0 -0.5944664442410702,-0.061618877572225554 l 1.5318420467779281 -13.633139278185098" fill="#ffa00e" stroke="none" /><path d="M 97.65516085044442 120.86867818915974 l -1.1584012686929464 10.309578503433471 a31.374454319036108,31.374454319036108 0 0,0 -0.5361633938966169,-0.06492192018878178 l 1.3356920856409527 -10.28811105451934" fill="#ff720a" stroke="none" /><path d="M 97.2962882734958 120.8252237178851 l -2.4875072238223113 19.159917800458057 a40.3207179553162,40.3207179553162 0 0,0 -0.6875093467913576,-0.09528253086584254 l 2.8169451618004997 -19.11426070409961" fill="#ffe915" stroke="none" /><path d="M 96.93821686468263 120.77559828337769 l -1.9673987581172885 13.349699980506374 a34.49389296841254,34.49389296841254 0 0,0 -0.5866657853734908,-0.09162513028408656 l 2.1969004070992963 -13.313856542875182" fill="#ff9d0e" stroke="none" /><path d="M 96.58105272829116 120.7198165907248 l -1.7079182692032306 10.350482320293787 a31.49044656232481,31.49044656232481 0 0,0 -0.5340645205703062,-0.09285396257844984 l 1.8858317612455868 -10.31954977919433" fill="#ff740a" stroke="none" /><path d="M 96.22490169976321 120.6578951692458 l -5.759150827117306 31.514923477092502 a53.03682599784945,53.03682599784945 0 0,0 -0.8966567071220205,-0.17184639198087995 l 6.300775148811022 -31.411119886763156" fill="#7fff26" stroke="none" /><path d="M 95.86986931433489 120.58985236759428 l -1.965863102696296 9.80037537308564 a30.99559779062394,30.99559779062394 0 0,0 -0.5222146264963421,-0.109435152380019 l 2.134269190622025 -9.765084239979078" fill="#ff6d0a" stroke="none" /><path d="M 95.51606077576429 120.51570834832081 l -2.15561559136235 9.862752051689782 a31.095571138416858,31.095571138416858 0 0,0 -0.5219315366387041,-0.11878991847577192 l 2.325067277393917 -9.824185399636322" fill="#ff6e0a" stroke="none" /><path d="M 95.16358092515715 120.4354850818985 l -2.310576999766159 9.762959139522744 a31.03265354887923,31.03265354887923 0 0,0 -0.5187576711445716,-0.12749801425590251 l 2.478287955653941 -9.721739866952811" fill="#ff6d0a" stroke="none" /><path d="M 94.81253420990036 120.34920634021253 l -7.308382172054835 28.669061705642182 a50.58593498699556,50.58593498699556 0 0,0 -0.8419175112986481,-0.22235806680315723 l 7.800790126164972 -28.539012289535446" fill="#9aff22" stroke="none" /><path d="M 94.46302465271185 120.25689768951611 l -3.2520424185420675 11.897522821126065 a33.33397053552555,33.33397053552555 0 0,0 -0.5521833044108805,-0.15605251743646154 l 3.456356891057562 -11.839781510351083" fill="#ff8d0d" stroke="none" /><path d="M 94.11515582081647 120.15858648285463 l -2.8829565474490026 9.875593493815462 a31.287797884366185,31.287797884366185 0 0,0 -0.515689992496889,-0.15537316446979943 l 3.0525215143861373 -9.824504960239937" fill="#ff710a" stroke="none" /><path d="M 93.76903079525671 120.05430185196036 l -8.74760297254608 28.154058337987276 a50.48171566690256,50.48171566690256 0 0,0 -0.8276084365382292,-0.26497408636651243 l 9.23093275417525 -27.999311404961055" fill="#9bff22" stroke="none" /><path d="M 93.42475214034765 119.94407469862007 l -3.169756649084216 9.614521723767492 a31.12355595584924,31.12355595584924 0 0,0 -0.5073588201099556,-0.17212365837245067 l 3.3347852021313975 -9.558535078496918" fill="#ff6f0a" stroke="none" /><path d="M 93.08242187328487 119.8279376855182 l -6.406177429610139 18.36210369437492 a40.44751812809602,40.44751812809602 0 0,0 -0.65540472571741,-0.23500481645904184 l 6.721301715957276 -18.24911133687592" fill="#ffea16" stroke="none" /><path d="M 92.7421414339146 119.70592522655815 l -3.470010002158779 9.421478389986195 a31.040180499774834,31.040180499774834 0 0,0 -0.499790922854754,-0.18897816161438918 l 3.631671145773816 -9.360351978265173" fill="#ff6d0a" stroke="none" /><path d="M 92.40401165467489 119.57807347666478 l -3.631671145773816 9.360351978265173 a31.040180499774834,31.040180499774834 0 0,0 -0.49646392503480336,-0.19755324161905638 l 3.7922561468504776 -9.29645189224005" fill="#ff6d0a" stroke="none" /><path d="M 92.06813273071674 119.44442032107085 l -4.385274557419634 10.75019523435248 a32.610225257101895,32.610225257101895 0 0,0 -0.5179257540695328,-0.21649300720608783 l 4.56967177098663 -10.67311718412642" fill="#ff830c" stroke="none" /><path d="M 91.7346041902142 119.30500536409082 l -5.328612387439036 12.44573074176073 a34.53847567756344,34.53847567756344 0 0,0 -0.5445226297941737,-0.2387027188567556 l 5.542055691890954 -12.352163469609522" fill="#ff9d0e" stroke="none" /><path d="M 91.40352486487194 119.15986991738527 l -4.740706104121522 10.566111207645536 a32.58088944848312,32.58088944848312 0 0,0 -0.5097078528662046,-0.2339818756593992 l 4.921881952755146 -10.482942261652063" fill="#ff830c" stroke="none" /><path d="M 91.07499286063937 119.00905698771935 l -4.270525156041063 9.095640461805734 a31.04828644689318,31.04828644689318 0 0,0 -0.48182110634963154,-0.23130341126823975 l 4.426458930390936 -9.020782774037931" fill="#ff6d0a" stroke="none" /><path d="M 90.7491055286396 118.85261126421891 l -8.523126945927338 17.369477034314087 a40.347930777784924,40.347930777784924 0 0,0 -0.6208702935203655,-0.3113172542269768 l 8.820851147130464 -17.220191939177806" fill="#ffe915" stroke="none" /><path d="M 90.42595943632237 118.69057910512821 l -8.806332893190012 17.191849195908905 a40.316085985534286,40.316085985534286 0 0,0 -0.6149337674138422,-0.32170428354622577 l 9.10095756313035 -17.037715493417963" fill="#ffe915" stroke="none" /><path d="M 90.10565033884886 118.52300852407294 l -8.606917532351334 16.112833311693215 a39.26752382615409,39.26752382615409 0 0,0 -0.5934579188964736,-0.32360057525533775 l 8.882998263116447 -15.962292084678113" fill="#ffdb14" stroke="none" /><line stroke="#e1ed5e" stroke-width="0.3" x1="58.666819895761336" x2="56.23545636021788" y1="174.27360380694188" y2="178.64263932499728" /><path d="M 58.180547188652646 175.14741091055294 a86.0,86.0 0 0,1 -31.652253787137756,-30.449443065178592" fill="none" id="id56" stroke="none" /><text fill="#e1ed5e" style="font-size:6.75px; font-family:Arial;" text-anchor="middle"><textPath startOffset="22.20632615414155" xlink:href="#id56">August</textPath></text><path d="M 89.7882731507175 118.34994917583269 l -5.53302179163763 9.942556255552322 a32.37843376926541,32.37843376926541 0 0,0 -0.48467621812040984,-0.2752118059210486 l 5.703346776679247 -9.845841283836641" fill="#ff800b" stroke="none" /><path d="M 89.4739219176387 118.17145234162733 l -5.11468972504594 8.82962674736629 a31.204036430809953,31.204036430809953 0 0,0 -0.4624618424223289,-0.27323060805215177 l 5.265919438496651 -8.740277567020389" fill="#ff700a" stroke="none" /><path d="M 89.1626897886671 117.98757091392108 l -5.201478632067655 8.633319885382774 a31.079166245439254,31.079166245439254 0 0,0 -0.45585855487414206,-0.2800255569045371 l 5.349316386874106 -8.542505861649857" fill="#ff6e0a" stroke="none" /><path d="M 88.8546689885994 117.79835938074946 l -12.48522086389562 19.938075204436682 a44.524616529882636,44.524616529882636 0 0,0 -0.6460695673113143,-0.4123521655816816 l 12.826572233253858 -19.720208610031197" fill="#e1ff1b" stroke="none" /><path d="M 88.54995079064634 117.60387380957326 l -10.523177044036585 16.17885455092075 a40.30006709003851,40.30006709003851 0 0,0 -0.5782585646050288,-0.38323824514444393 l 10.800110307381575 -15.995318284684986" fill="#ffe915" stroke="none" /><path d="M 88.24862548938628 117.40417183066458 l -3.2535006950917498 4.818541447846875 a26.814087070003403,26.814087070003403 0 0,0 -0.38030434423442333,-0.26157679576458787 l 3.335961923949063 -4.761823862717186" fill="#ff3104" stroke="none" /><path d="M 87.95078237400918 117.19931262002967 l -26.493794335033673 37.81781235954271 a67.1747557646886,67.1747557646886 0 0,0 -0.9413188038082524,-0.6716059729528324 l 27.14084046669081 -37.35616212474565" fill="#38ff7d" stroke="none" /><path d="M 87.65650970185807 116.9893568818739 l -13.938368755820779 19.18451875637201 a44.71336929849553,44.71336929849553 0 0,0 -0.6187798638746637,-0.45775855035720453 l 14.266533590114006 -18.94175025727504" fill="#dfff1b" stroke="none" /><path d="M 87.36589467227662 116.77436683061367 l -3.6275925580488146 4.81637335626678 a27.029666663603194,27.029666663603194 0 0,0 -0.36923975448500296,-0.2831172985482401 l 3.7099610410273045 -4.753216715891174" fill="#ff3405" stroke="none" /><path d="M 87.07902340077011 116.55440617244103 l -2.4773448318901345 3.1739839679572883 a25.026339732926502,25.026339732926502 0 0,0 -0.33731037838641525,-0.2679797648819555 l 2.531612702993908 -3.1308702890702023" fill="#ff1702" stroke="none" /><path d="M 86.79598089348748 116.32954008644616 l -22.41427416028646 27.719952951936072 a56.64821843781306,56.64821843781306 0 0,0 -0.7529623776532928,-0.6196367753909673 l 22.888106666484443 -27.330021057687926" fill="#58ff2a" stroke="none" /><path d="M 86.51685102203217 116.09983520530335 l -12.754028697601669 15.229213929967624 a40.864395408468056,40.864395408468056 0 0,0 -0.535390759794075,-0.4562716205509985 l 13.0142849339728 -15.007417919193674" fill="#fff016" stroke="none" /><path d="M 86.24171649860922 115.8653595955263 l -6.3454833629000795 7.317291822752635 a30.685448813976784,30.685448813976784 0 0,0 -0.39607264550104215,-0.34948805907781966 l 6.470498361307709 -7.2069806219025265" fill="#ff6809" stroke="none" /><path d="M 85.97065885151581 115.62618273729859 l -19.690769343659156 21.93200355921629 a50.474381714747864,50.474381714747864 0 0,0 -0.6415064390499123,-0.5860009221012283 l 20.065375332175922 -21.589809870528487" fill="#9bff22" stroke="none" /><path d="M 85.70375840098266 115.38237550388516 l -17.867509995040557 19.224965258143566 a47.2458987767556,47.2458987767556 0 0,0 -0.5909430752691635,-0.5587735624739948 l 18.195788904700535 -18.914557058923638" fill="#c1ff1e" stroke="none" /><path d="M 85.44109423537348 115.13401014063109 l -5.423948046399335 5.638204276031969 a28.823589960389306,28.823589960389306 0 0,0 -0.3545988494746265,-0.34704960737554713 l 5.520196848249755 -5.544004565733852" fill="#ff4e07" stroke="none" /><path d="M 85.18274418774928 114.88116024355367 l -16.647879840447718 16.719679457534966 a44.594482074093136,44.594482074093136 0 0,0 -0.5392946092147105,-0.5463025918842526 l 16.93321507471796 -16.430636371670047" fill="#e0ff1b" stroke="none" /><path d="M 84.9287848128048 114.62390073753433 l -45.21364556158558 43.871702212602976 a84.0,84.0 0 0,0 -0.99797379448417,-1.0463715336699995 l 45.9621259074487 -43.08692356235048" fill="#4dd2ff" stroke="none" /><line stroke="#e1ed5e" stroke-width="0.3" x1="26.63291911575756" x2="22.317208475507996" y1="142.92168965132927" y2="145.44649492493687" /><path d="M 25.769776987707644 143.4266507060508 a86.0,86.0 0 0,1 -11.730757126820373,-40.83630448921669" fill="none" id="id57" stroke="none" /><text fill="#e1ed5e" style="font-size:6.75px; font-family:Arial;" text-anchor="middle"><textPath startOffset="21.46611528233685" xlink:href="#id57">September</textPath></text><line stroke="#e1ed5e" stroke-width="0.3" x1="15.007084014347285" x2="10.007500721073583" y1="101.09737516637583" y2="101.16192664675087" /><path d="M 14.007167355692545 101.11028546245083 a86.0,86.0 0 0,1 10.666146001902534,-42.60595125391555" fill="none" id="id58" stroke="none" /><text fill="#e1ed5e" style="font-size:6.75px; font-family:Arial;" text-anchor="middle"><textPath startOffset="22.20632615414155" xlink:href="#id58">October</textPath></text><line stroke="#e1ed5e" stroke-width="0.3" x1="26.266209847984243" x2="21.928928074336255" y1="57.711370442889674" y2="55.22380399835377" /><path d="M 25.398753493254645 57.213857153982495 a86.0,86.0 0 0,1 29.58750427330803,-30.492523968695096" fill="none" id="id59" stroke="none" /><text fill="#e1ed5e" style="font-size:6.75px; font-family:Arial;" text-anchor="middle"><textPath startOffset="21.46611528233685" xlink:href="#id59">November</textPath></text><line stroke="#e1ed5e" stroke-width="0.3" x1="56.762969772571076" x2="54.21961505331055" y1="26.818313649435495" y2="22.513508569990535" /><path d="M 56.25429882871897 25.957352633546506 a86.0,86.0 0 0,1 42.265352541879196,-11.944610805530505" fill="none" id="id60" stroke="none" /><text fill="#e1ed5e" style="font-size:6.75px; font-family:Arial;" text-anchor="middle"><textPath startOffset="22.20632615414155" xlink:href="#id60">December</textPath></text></svg>